<svg width="114" height="46" viewBox="0 0 114 46" fill="none" xmlns="http://www.w3.org/2000/svg">
<g clip-path="url(#clip0_8_7)">
<path fill-rule="evenodd" clip-rule="evenodd" d="M66.5688 12.5736C68.8452 8.63206 72.7679 6.04255 77.1538 5.58636C72.2435 5.07789 67.4947 7.58174 64.9703 12.0097C62.9455 15.5612 62.6444 19.8364 64.0322 23.5912C60.8496 15.7683 63.1142 6.49013 69.8403 1.26569C72.4412 -0.504345 75.8191 -0.410769 78.3264 1.50066C80.8337 3.41209 81.9487 6.74368 81.1275 9.87023C79.0705 17.7017 72.3203 13.5902 67.9358 18.4576C66.2052 20.379 65.3501 22.9853 65.5889 25.6113C63.9294 21.3471 64.2927 16.5148 66.5691 12.5733L66.5688 12.5736Z" fill="#90D26D"/>
<path fill-rule="evenodd" clip-rule="evenodd" d="M75.1972 23.5066C79.5188 22.6024 83.9952 23.8802 87.2759 26.9537C84.3226 22.825 79.3498 20.8527 74.517 21.8937C70.6411 22.7287 67.4167 25.3805 65.6989 28.9835C69.0807 21.2525 77.166 16.7391 85.3958 18.4005C88.4015 19.2113 90.614 21.8786 90.9546 25.1015C91.2952 28.324 89.6927 31.4313 86.9288 32.9072C80.0063 36.6045 78.358 28.6264 71.9603 28.5297C69.4348 28.4916 67.0158 29.5907 65.3211 31.5465C67.2154 27.3903 70.8756 24.4107 75.1972 23.5066Z" fill="#2C7865"/>
<path fill-rule="evenodd" clip-rule="evenodd" d="M48.8519 19.0228C41.7825 17.5438 34.4592 19.6338 29.0921 24.6618C33.9233 17.9078 42.0589 14.6811 49.9646 16.3841C56.305 17.7495 61.5802 22.0881 64.3899 27.9824C58.8574 15.3348 45.6311 7.95191 32.1676 10.6694C27.2508 11.9963 23.6311 16.3597 23.0741 21.6316C22.5171 26.9035 25.1384 31.9865 29.66 34.4013C40.9847 40.4497 43.6808 27.3986 54.1472 27.24C58.2784 27.1773 62.2357 28.9756 65.0085 32.1751C61.9092 25.376 55.9216 20.5014 48.8522 19.0228H48.8519Z" fill="#2C7865"/>
</g>
<path d="M6.6 41.12C3.408 41.12 1.152 39.32 1.152 36.008V29.96C1.152 26.768 3.528 24.848 6.6 24.848C9.768 24.848 12.048 26.6 12.048 29.192C12.048 30.368 11.328 31.088 10.272 31.088C9.168 31.088 8.76 30.416 8.496 29.576C8.208 28.64 7.704 28.184 6.6 28.184C5.448 28.184 4.776 28.808 4.776 29.888V36.104C4.776 37.208 5.472 37.856 6.624 37.856C8.016 37.856 8.568 37.28 8.568 36.128V34.976H7.536C6.648 34.976 6 34.328 6 33.416C6 32.528 6.648 31.88 7.536 31.88H10.2C11.424 31.88 12.096 32.552 12.096 33.776V36.08C12.096 39.272 9.888 41.12 6.6 41.12ZM19.4342 41.12C16.1462 41.12 14.2022 39.296 14.2022 36.248V32.984C14.2022 29.936 16.0742 28.112 19.2422 28.112C22.3382 28.112 24.2822 29.84 24.2822 32.984V33.272C24.2822 34.76 23.4422 35.504 22.0022 35.504H17.5862V36.584C17.5862 37.64 18.2102 38.24 19.4342 38.24C20.2022 38.24 20.8262 37.832 21.1382 37.208C21.4502 36.584 21.9062 36.224 22.6262 36.224C23.3942 36.224 24.1382 36.776 24.1382 37.712C24.1382 38.432 23.7782 39.056 23.4182 39.488C22.6022 40.472 21.1862 41.12 19.4342 41.12ZM17.5862 32.648V33.056H20.8982V32.648C20.8982 31.592 20.3462 30.992 19.2422 30.992C18.1382 30.992 17.5862 31.592 17.5862 32.648ZM31.053 41.12C28.101 41.12 26.301 39.464 26.301 36.416V27.104C26.301 26.144 27.069 25.352 28.053 25.352C29.013 25.352 29.781 26.144 29.781 27.104V28.232H33.957C34.773 28.232 35.445 28.904 35.445 29.72C35.445 30.536 34.773 31.208 33.957 31.208H29.781V36.608C29.781 37.664 30.141 38.144 31.053 38.144C31.989 38.144 32.373 37.64 32.373 36.608V35.216C32.373 34.328 33.093 33.584 34.005 33.584C34.893 33.584 35.613 34.328 35.613 35.216V36.488C35.613 39.488 33.981 41.12 31.053 41.12ZM43.8814 41H41.5774C40.4254 41 39.7294 40.448 39.5134 39.296L37.1614 27.32C37.1134 27.032 37.0894 26.864 37.0894 26.72C37.0894 25.664 37.8814 24.896 38.9134 24.896C39.8734 24.896 40.5454 25.52 40.7134 26.432L41.9854 33.56C42.4654 36.224 42.5854 37.472 42.7534 39.44C42.8974 37.472 43.0174 36.224 43.4974 33.56L44.7694 26.432C44.9374 25.52 45.6094 24.896 46.5694 24.896C47.6014 24.896 48.3934 25.664 48.3934 26.72C48.3934 26.864 48.3694 27.032 48.3214 27.32L45.9454 39.296C45.7054 40.448 45.0334 41 43.8814 41ZM54.4967 41.12C51.2087 41.12 49.2647 39.296 49.2647 36.248V32.984C49.2647 29.936 51.1367 28.112 54.3047 28.112C57.4007 28.112 59.3447 29.84 59.3447 32.984V33.272C59.3447 34.76 58.5047 35.504 57.0647 35.504H52.6487V36.584C52.6487 37.64 53.2727 38.24 54.4967 38.24C55.2647 38.24 55.8887 37.832 56.2007 37.208C56.5127 36.584 56.9687 36.224 57.6887 36.224C58.4567 36.224 59.2007 36.776 59.2007 37.712C59.2007 38.432 58.8407 39.056 58.4807 39.488C57.6647 40.472 56.2487 41.12 54.4967 41.12ZM52.6487 32.648V33.056H55.9607V32.648C55.9607 31.592 55.4087 30.992 54.3047 30.992C53.2007 30.992 52.6487 31.592 52.6487 32.648ZM65.8755 45.128C64.2675 45.128 62.9235 44.648 62.0115 43.76C61.5315 43.304 61.2195 42.752 61.2195 42.104C61.2195 41.24 61.8915 40.568 62.8035 40.568C63.4035 40.568 63.9075 40.952 64.2675 41.408C64.7475 41.984 65.1795 42.224 65.8755 42.224C67.1235 42.224 67.6995 41.624 67.6995 40.568V37.976C67.6275 38.696 66.8835 40.16 64.8675 40.16C62.2995 40.16 61.1475 38.36 61.1475 36.104V32.264C61.1475 29.792 62.4435 28.16 64.8195 28.16C66.8115 28.16 67.6515 29.528 67.6995 30.2V29.912C67.6995 28.904 68.4435 28.16 69.4515 28.16C70.4595 28.16 71.2035 28.904 71.2035 29.912V40.256C71.2035 43.304 69.1875 45.128 65.8755 45.128ZM66.1635 37.232C67.2915 37.232 67.6995 36.512 67.6995 35.456V32.864C67.6995 31.76 67.1955 31.064 66.1155 31.064C65.2275 31.064 64.6515 31.688 64.6515 32.816V35.528C64.6515 36.632 65.2515 37.232 66.1635 37.232ZM78.1333 45.128C76.5253 45.128 75.1813 44.648 74.2693 43.76C73.7893 43.304 73.4773 42.752 73.4773 42.104C73.4773 41.24 74.1493 40.568 75.0613 40.568C75.6613 40.568 76.1653 40.952 76.5253 41.408C77.0053 41.984 77.4373 42.224 78.1333 42.224C79.3813 42.224 79.9573 41.624 79.9573 40.568V37.976C79.8853 38.696 79.1413 40.16 77.1253 40.16C74.5573 40.16 73.4053 38.36 73.4053 36.104V32.264C73.4053 29.792 74.7013 28.16 77.0773 28.16C79.0693 28.16 79.9093 29.528 79.9573 30.2V29.912C79.9573 28.904 80.7013 28.16 81.7093 28.16C82.7173 28.16 83.4613 28.904 83.4613 29.912V40.256C83.4613 43.304 81.4453 45.128 78.1333 45.128ZM78.4213 37.232C79.5493 37.232 79.9573 36.512 79.9573 35.456V32.864C79.9573 31.76 79.4533 31.064 78.3733 31.064C77.4853 31.064 76.9093 31.688 76.9093 32.816V35.528C76.9093 36.632 77.5093 37.232 78.4213 37.232ZM87.7271 27.368C86.6711 27.368 85.8791 26.576 85.8791 25.52C85.8791 24.464 86.6711 23.672 87.7271 23.672C88.7831 23.672 89.5751 24.464 89.5751 25.52C89.5751 26.576 88.7831 27.368 87.7271 27.368ZM87.7271 41.072C86.6951 41.072 85.9511 40.328 85.9511 39.296V29.936C85.9511 28.904 86.6951 28.16 87.7271 28.16C88.7351 28.16 89.4791 28.904 89.4791 29.936V39.296C89.4791 40.328 88.7351 41.072 87.7271 41.072ZM96.9186 41.12C93.6306 41.12 91.6866 39.296 91.6866 36.248V32.984C91.6866 29.936 93.5586 28.112 96.7266 28.112C99.8226 28.112 101.767 29.84 101.767 32.984V33.272C101.767 34.76 100.927 35.504 99.4866 35.504H95.0706V36.584C95.0706 37.64 95.6946 38.24 96.9186 38.24C97.6866 38.24 98.3106 37.832 98.6226 37.208C98.9346 36.584 99.3906 36.224 100.111 36.224C100.879 36.224 101.623 36.776 101.623 37.712C101.623 38.432 101.263 39.056 100.903 39.488C100.087 40.472 98.6706 41.12 96.9186 41.12ZM95.0706 32.648V33.056H98.3826V32.648C98.3826 31.592 97.8306 30.992 96.7266 30.992C95.6226 30.992 95.0706 31.592 95.0706 32.648ZM108.057 41.12C106.209 41.12 104.793 40.424 103.929 39.512C103.377 38.936 103.209 38.312 103.209 37.76C103.209 36.872 103.953 36.272 104.865 36.272C105.513 36.272 105.969 36.656 106.281 37.232C106.449 37.52 106.593 37.76 106.785 37.928C107.073 38.192 107.433 38.312 108.033 38.312C108.993 38.312 109.401 37.952 109.401 37.328C109.401 36.56 108.393 36.272 107.217 35.888C105.465 35.336 103.353 34.592 103.353 32.024C103.353 29.936 104.961 28.112 107.985 28.112C109.809 28.112 111.177 28.712 112.041 29.624C112.569 30.176 112.737 30.776 112.737 31.304C112.737 32.192 112.089 32.792 111.177 32.792C110.529 32.792 110.001 32.432 109.689 31.88C109.545 31.64 109.425 31.448 109.257 31.304C108.969 31.04 108.585 30.92 108.057 30.92C107.289 30.92 106.785 31.28 106.785 31.88C106.785 32.528 107.601 32.816 108.633 33.152C110.409 33.68 112.833 34.352 112.833 37.136C112.833 39.272 111.393 41.12 108.057 41.12Z" fill="#FF9800"/>
<defs>
<clipPath id="clip0_8_7">
<rect width="68" height="36" fill="white" transform="translate(23)"/>
</clipPath>
</defs>
</svg>
