<?xml version="1.0" encoding="UTF-8"?>
<svg id="Layer_2" data-name="Layer 2" xmlns="http://www.w3.org/2000/svg" viewBox="0 0 534.07 280.37">
  <defs>
    <style>
      .cls-1 {
        fill: #fff;
      }

      .cls-2 {
        fill: #295021;
      }

      .cls-3 {
        fill: #6f9969;
      }

      .cls-4 {
        fill: #95bc8f;
      }

      .cls-5 {
        fill: #528c4d;
      }

      .cls-6 {
        fill: #264f21;
      }
    </style>
  </defs>
  <g id="OBJECTS">
    <g>
      <path class="cls-6" d="m205.4,112.63c8.61,2.47,4.05,20.29,3.49,26.45-.48,5.25-1.29,10.48-2.43,15.62-.25,1.14-3.4,12.14-4.1,14.34-.07.25-.13.39-.14.39-.22-.11-.45-.22-.68-.33-12.54-6.18-25.42-11.59-38.06-17.4-2.67-1.23-6.12-2.72-7.66-5.37-1.61-2.79-1.98-6.53,1.93-7.13,2.37-.36,4.78.14,7.14.63-.69-1.25-4.92-2.63-6.23-3.33-2.37-1.27-4.89-2.42-7.18-3.84-3.69-2.3-7.74-4.07-11.44-6.45-3.41-2.19-10.97-8.56-8.13-13.37,1.73-2.92,6.74-2.04,9.56-1.84,4.69.34,9.2,1.88,13.61,3.39-5.13-2.81-10.28-5.65-14.88-9.24-4.61-3.6-8.69-8.04-11.09-13.38-1.15-2.53-1.73-5.9.32-7.78,1.75-1.61,4.5-1.23,6.78-.56,6.52,1.93,12.54,5.48,17.36,10.26-8.43-9.17-17.14-18.82-20.47-30.82-.41-1.46-.72-2.99-.5-4.5.22-1.5,1.07-2.99,2.46-3.6,2.25-.99,4.76.57,6.6,2.2,8.76,7.74,13.37,18.06,19.4,27.77-1.32-5.35-2.01-10.87-2.03-16.39-.02-4.67.6-9.72,3.8-13.12.39-.41.86-.82,1.43-.9.87-.12,1.64.55,2.22,1.21,3.92,4.39,5.71,10.27,6.99,16.01,1.48,6.6,2.45,13.31,2.87,20.06-.21-3.8-.31-7.35.94-11.37.99-3.18,2.97-8.81,7.29-7.66,1.15.3,2.1,1.07,2.88,2.12,2.44,3.26,3.32,9.21,4,12.26,1.39,6.16,1.97,12.46,2.45,18.75.25,3.26.45,6.52.72,9.78.21,2.6,1.3,6.19.91,8.73.45-2.86.92-5.81,2.51-8.23,1.57-2.42,4.59-4.17,7.36-3.36Z"/>
      <path class="cls-4" d="m183.41,133.27c0,.08-.03.16-.07.23,4.33,7.51,8.75,15.23,12.79,23.08,1.27-11.8,3.31-23.62,6.09-35.15.05-.2.25-.33.47-.28.2.05.33.25.28.47-2.86,11.87-4.95,24.05-6.2,36.2,1.9,3.71,3.77,7.46,5.6,11.23-.07.25-.13.39-.14.39-.22-.11-.45-.22-.68-.33-1.72-3.54-3.49-7.07-5.27-10.56-.06,0-.12-.02-.16-.05-9.78-6.82-21.16-11.53-32.9-13.59-.22-.03-.35-.24-.32-.45.04-.21.23-.35.45-.32,11.47,2.03,22.59,6.54,32.24,13.08-4.23-8.24-8.89-16.36-13.44-24.24-4.64-4.33-10.95-6.56-17.55-8.64-7.12-2.24-14.11-4.29-21.34-4.95-.21-.02-.36-.21-.35-.42.02-.21.21-.36.42-.35,7.31.66,14.34,2.74,21.5,4.98,5.94,1.87,11.65,3.87,16.18,7.4-2.07-3.61-4.18-7.27-6.26-10.98-11.69-11.37-24.92-21.02-39.33-28.68-.18-.1-.25-.33-.15-.51.1-.2.33-.27.52-.17,13.74,7.31,26.4,16.42,37.7,27.1-1.11-1.99-2.2-3.98-3.27-5.98-7.6-14.2-17.01-30.73-29.16-45.63-.13-.16-.11-.41.05-.54.17-.13.41-.11.54.05,12.2,14.96,21.62,31.52,29.24,45.76.81,1.51,1.63,3.02,2.46,4.53-3.1-9.68-10.41-34.92-7.89-50.93.03-.2.23-.35.43-.32.22.03.36.23.32.44-3.06,19.45,8.58,52.8,9.15,54.42,2.28,4.07,4.61,8.12,6.9,12.08.11.21.24.41.35.62-.36-14.84-.64-30.14,3.71-44.66.06-.21.28-.33.48-.26.21.06.32.28.26.48-4.41,14.75-4.03,30.36-3.66,45.47Z"/>
    </g>
    <path class="cls-4" d="m115.37,69.21c-1.04.34-1.67,1.33-1.61,2.37-1.97.2-3.99-.27-5.57-.82-.99-.34-1.98-.75-2.93-1.15-1.44-.6-2.92-1.2-4.46-1.61.43-.13.87-.27,1.3-.4,1.71-.5,3.48-1.02,5.13-1.78,1.92-.89,3.47-2.07,4.56-3.42.53.26,1.16.32,1.76.12,1.24-.4,1.91-1.74,1.51-2.98-.4-1.24-1.74-1.91-2.98-1.51-1.24.4-1.91,1.74-1.51,2.98.11.35.31.65.55.9-1.01,1.25-2.44,2.33-4.24,3.16-1.1.51-2.26.9-3.43,1.26.4-2.41,1.67-4.62,2.99-6.62.28.01.56-.02.84-.11,1.24-.4,1.91-1.74,1.51-2.97-.4-1.24-1.74-1.91-2.98-1.51s-1.91,1.74-1.51,2.98c.22.66.7,1.15,1.28,1.41-1.38,2.11-2.69,4.46-3.02,7.09-.23.07-.47.14-.7.21-.87.25-1.73.51-2.59.79-2.51.84-4.4,1.83-5.82,3.06.16-.35.32-.7.48-1.04,2-4.31,4.05-8.76,5.58-13.29.28.01.57-.02.85-.11,1.24-.4,1.91-1.74,1.51-2.98-.4-1.24-1.74-1.91-2.98-1.51-1.24.4-1.91,1.74-1.51,2.98.22.67.72,1.17,1.32,1.43-1.52,4.47-3.55,8.86-5.53,13.13-1.77,3.82-3.56,7.7-5.02,11.7.12-2.77-.18-5.75-.94-8.93-.27-1.12-.62-2.21-1.02-3.27.35-1.46,1.37-4.74,3.76-7.56.57.36,1.28.47,1.97.25,1.24-.4,1.91-1.74,1.51-2.98s-1.74-1.91-2.97-1.51c-1.24.4-1.91,1.74-1.51,2.98.08.26.22.49.37.69-2.03,2.39-3.11,5.09-3.65,6.86-.55-1.31-1.15-2.59-1.75-3.84-.55-1.15-1.1-2.32-1.61-3.52.28-1.38,1.02-2.6,1.82-3.88.3-.49.6-.97.88-1.47.61-1.1,1.08-2.27,1.43-3.47.29.02.6-.01.89-.11,1.24-.4,1.91-1.74,1.51-2.98-.4-1.24-1.74-1.91-2.98-1.51s-1.91,1.74-1.51,2.98c.21.66.69,1.15,1.28,1.41-.33,1.13-.77,2.23-1.35,3.27-.27.48-.56.96-.86,1.43-.61.98-1.22,1.98-1.62,3.07-.37-.97-.71-1.95-.97-2.96-.53-2.04-.93-4.96-.14-7.92.19-.01.39-.04.58-.1,1.24-.4,1.91-1.74,1.51-2.98-.4-1.24-1.74-1.91-2.98-1.51s-1.91,1.74-1.51,2.98c.25.76.85,1.31,1.57,1.53-.78,3.09-.38,6.1.17,8.22.37,1.42.87,2.79,1.43,4.12.01.07.04.13.08.18.23.55.48,1.1.73,1.64-.35-.21-.71-.38-1.03-.51-.67-.26-1.37-.43-2.05-.6-.41-.1-.83-.2-1.23-.32-.17-.05-.33-.11-.49-.17.72-2.38.22-4.56-.31-6.21-.02-.07-.06-.19-.14-.32.62-.61.89-1.53.6-2.42-.4-1.24-1.74-1.91-2.98-1.51-1.24.4-1.91,1.74-1.51,2.97.4,1.24,1.74,1.91,2.97,1.51.08-.02.14-.06.21-.09.01.02.02.05.04.11.73,2.27.83,3.97.33,5.66-1.5-.64-2.87-1.57-4.01-2.73.15-.46.17-.97,0-1.46-.4-1.24-1.74-1.91-2.98-1.51-1.24.4-1.91,1.74-1.51,2.98.4,1.24,1.74,1.91,2.98,1.51.45-.15.81-.41,1.09-.75,1.53,1.49,3.41,2.61,5.46,3.23.42.13.85.23,1.27.33.68.17,1.32.32,1.94.56.79.31,1.83.88,2.3,1.89.03.06.07.1.11.14,1.03,2.18,2.07,4.42,2.76,6.8-.2-.24-.42-.46-.65-.67-.91-.79-2.01-1.31-3.06-1.81-.31-.15-.62-.3-.92-.45.46-.6.62-1.4.37-2.17-.4-1.24-1.74-1.91-2.98-1.51-1.24.4-1.91,1.74-1.51,2.98.4,1.24,1.74,1.91,2.98,1.51.17-.06.33-.13.48-.22.41.21.82.41,1.23.61,1.05.5,2.05.96,2.87,1.68,1.18,1.03,1.92,2.58,1.99,4.14,0,.1.05.18.11.25.65,4.45.33,8.46-.98,11.93-.05.12-.03.24.03.35-.54,2.33-.92,4.7-1.06,7.13-.01.23.16.42.39.44.05,0,.1,0,.15-.02.16-.05.27-.19.28-.37.45-7.86,3.43-15.18,6.65-22.26.36,1.38.78,2.74,1.29,4.07-.85.57-1.26,1.66-.93,2.68.4,1.24,1.74,1.91,2.97,1.51.06-.02.1-.05.16-.07,0,0,.02,0,.02,0,.02,0,.04-.02.06-.02,0,0,.02-.01.02-.02,1.06-.5,1.62-1.71,1.24-2.86-.39-1.18-1.61-1.84-2.8-1.55-.54-1.43-1-2.89-1.36-4.37,1.33-1.47,3.24-2.61,5.97-3.56.17.4.21.89.22,1.36.01.52.01,1.04.02,1.57,0,1.21,0,2.46.16,3.7.08.61.19,1.18.33,1.72-.77.59-1.13,1.62-.81,2.6.4,1.24,1.74,1.91,2.97,1.51,1.24-.4,1.91-1.74,1.51-2.98-.4-1.22-1.7-1.89-2.92-1.52-.11-.45-.2-.93-.26-1.43-.15-1.19-.15-2.41-.15-3.6,0-.53,0-1.06-.02-1.59,0-.39-.04-.79-.13-1.18,1.67.38,3.29,1.04,4.86,1.69.97.4,1.97.82,2.98,1.17,2.22.77,4.26,1.05,6.04.85.48,1.1,1.72,1.68,2.88,1.3,1.24-.4,1.91-1.74,1.51-2.98-.4-1.24-1.74-1.91-2.98-1.51Z"/>
    <path class="cls-4" d="m479.53,50.35c-1.29-.16-2.47.76-2.63,2.06-.13,1.08.5,2.08,1.47,2.47-.65,1.86-1.94,3.5-3.1,4.7-.73.75-1.52,1.47-2.28,2.17-1.15,1.05-2.32,2.14-3.34,3.36.06-.45.12-.9.19-1.35.27-1.76.55-3.58.56-5.4,0-2.11-.4-4.02-1.17-5.58.46-.37.78-.91.86-1.54.16-1.29-.76-2.47-2.06-2.63-1.29-.16-2.47.76-2.63,2.06-.16,1.29.76,2.47,2.06,2.63.37.04.72,0,1.05-.12.7,1.44,1.08,3.2,1.07,5.17,0,1.21-.14,2.43-.31,3.64-2.02-1.38-3.48-3.47-4.73-5.51.13-.24.22-.51.26-.8.16-1.29-.76-2.47-2.06-2.63-1.29-.16-2.47.76-2.63,2.06-.16,1.29.76,2.47,2.06,2.63.69.08,1.34-.14,1.82-.57,1.33,2.14,2.9,4.32,5.14,5.73-.04.24-.07.48-.11.72-.14.89-.27,1.79-.38,2.69-.31,2.63-.21,4.76.31,6.57-.25-.29-.5-.59-.74-.88-3.06-3.63-6.22-7.37-9.68-10.68.13-.25.23-.52.26-.81.16-1.29-.76-2.47-2.06-2.63-1.29-.16-2.47.76-2.63,2.06-.16,1.29.76,2.47,2.06,2.63.7.09,1.36-.15,1.85-.59,2.3,2.21,4.44,4.57,6.52,6.98,1.02,1.19,1.97,2.56,3.09,3.64.97.93,1.3,1.81,1.5,3.16.62,4.22,1.24,8.44,1.86,12.67.05.36.27.83.62.73.27-.08.31-.44.29-.72-.11-2.28-.3-4.56-.56-6.83-.26-2.25-.8-4.51-.97-6.75.48.06,4.2-.13,4.27.3.16,1.02.96,1.85,2.04,1.98,1.29.16,2.47-.76,2.63-2.06,0-.06,0-.11.01-.19,0-.02,0-.04,0-.07,0-.01,0-.02,0-.03,0-1.17-.87-2.19-2.06-2.34-1.23-.15-2.35.68-2.59,1.88-1.52-.11-3.04-.32-4.54-.62-.77-1.82-.99-4.04-.7-6.91.44.02.89.19,1.32.38.48.21.95.43,1.43.65,1.1.51,2.24,1.04,3.42,1.42.59.19,1.15.33,1.7.43.21.95.99,1.71,2.01,1.83,1.29.16,2.47-.76,2.63-2.06.16-1.29-.76-2.47-2.06-2.63-1.28-.16-2.43.74-2.61,2-.46-.09-.93-.21-1.41-.37-1.14-.37-2.25-.89-3.33-1.39-.48-.22-.96-.45-1.44-.66-.36-.16-.73-.3-1.12-.39,1.05-1.35,2.34-2.54,3.59-3.69.77-.71,1.58-1.44,2.32-2.21,1.63-1.69,2.75-3.41,3.32-5.11,1.2.03,2.25-.85,2.4-2.06.16-1.29-.76-2.47-2.06-2.63Z"/>
    <path class="cls-4" d="m320.59,71.99c-1.28.22-2.15,1.43-1.93,2.72.09.51.34.96.69,1.29-.48,1.56-1.26,3.02-2.29,4.28-1.23-1.26-1.93-2.82-2.34-5.16,0-.05-.01-.09-.01-.11.08,0,.16,0,.23-.02,1.28-.22,2.15-1.43,1.93-2.72-.22-1.28-1.43-2.15-2.72-1.93-1.28.22-2.15,1.43-1.93,2.72.15.92.82,1.61,1.66,1.86,0,.14.01.27.03.34.29,1.7.86,3.87,2.6,5.64-.12.13-.23.26-.36.38-.3.3-.62.58-.94.86-.52.46-1.06.94-1.53,1.48-.23.26-.47.57-.68.93-.03-.59-.07-1.19-.12-1.79.01-.07,0-.13-.01-.2-.12-1.44-.31-2.89-.65-4.32-.49-2.13-1.53-4.99-3.66-7.36.54-.52.82-1.29.68-2.08-.22-1.28-1.43-2.15-2.72-1.93s-2.15,1.43-1.93,2.72c.22,1.28,1.43,2.15,2.72,1.93.2-.03.38-.1.56-.18,2.07,2.26,3.07,5.03,3.55,7.08.24,1.01.4,2.04.52,3.07-.86-.78-1.87-1.38-2.86-1.96-.48-.28-.96-.57-1.43-.87-1-.65-1.9-1.42-2.71-2.27.4-.5.59-1.16.48-1.84-.22-1.28-1.43-2.15-2.72-1.93-1.28.22-2.15,1.43-1.93,2.72.22,1.28,1.43,2.15,2.72,1.93.31-.05.59-.16.84-.32.87.9,1.82,1.71,2.87,2.41.47.31.97.6,1.46.89,1.3.76,2.53,1.5,3.41,2.59.1,1.3.16,2.59.21,3.87.05,1.39.11,2.8.23,4.22-1.29-1.31-3.51-3.21-6.41-4.38.04-.25.06-.52.01-.79-.22-1.28-1.43-2.15-2.72-1.93-1.28.22-2.15,1.43-1.93,2.72s1.43,2.15,2.72,1.93c.72-.12,1.29-.56,1.63-1.14,3.43,1.39,5.86,3.82,6.84,4.95.14,1.12.33,2.25.61,3.37.32,1.28.71,2.54,1.17,3.77.21.57.42,1.16.71,1.7.28.52.48,1.03.93,1.44.1.09.23.18.35.13.57-.2-.27-1.58-.38-1.84-.41-.99-.83-1.97-1.23-2.95-.51-1.28-.46-2.84.04-4.11.4-1.02,1.06-1.9,1.76-2.82.27-.36.55-.73.81-1.11.17,0,.35,0,.53-.03,1.28-.22,2.15-1.43,1.93-2.72s-1.43-2.15-2.72-1.93c-1.28.22-2.15,1.43-1.93,2.72.13.8.65,1.43,1.33,1.75-.2.27-.4.55-.61.82-.71.93-1.44,1.9-1.87,3.02-.11.29-.2.59-.27.89-.49-2.43-.61-4.9-.71-7.31.02-.05.04-.11.03-.17-.05-1.11.6-2.11,1.16-2.75.44-.5.93-.94,1.46-1.4.33-.29.66-.58.97-.89,1.53-1.49,2.67-3.36,3.34-5.39.4.17.85.24,1.31.16,1.28-.22,2.15-1.43,1.93-2.72-.22-1.28-1.43-2.15-2.72-1.93Z"/>
    <g>
      <path class="cls-5" d="m327.02,112c2.25,6.79,5.83,9.59,9.85,14.84,4.49,5.86,6.88,14.14,7.61,21.38.81,7.96-.38,16.04.63,23.98,2.05,16.08,12.75,29.54,23.04,42.07-3.05-12.95-8.27-29.53-3.64-42.49,5.67-15.9-2.92-32-12.13-44.49-9.09-12.32-1.1-29.55-10.17-41.49-.8-1.06-1.79-2.05-3.04-2.47-1.24-.42-2.61-.24-3.86.16-4.45,1.42-7.7,5.53-8.95,10.03-1.88,6.74-1.24,12.77.66,18.5Z"/>
      <path class="cls-4" d="m364.44,201.21c-.23,0-.44-.13-.54-.35-3.55-7.58-7.21-15.43-8.67-23.88-.85-4.94-.92-10.04-.99-14.97-.09-6.24-.18-12.69-1.87-18.75-1.59-5.69-4.59-10.98-7.48-16.1-2.97-5.25-6.04-10.68-7.65-16.59-1.26-4.61-1.7-9.7-1.36-15.56.02-.33.31-.6.63-.56.33.02.58.3.56.63-.33,5.73.1,10.69,1.32,15.18,1.57,5.77,4.61,11.13,7.54,16.32,2.93,5.18,5.96,10.54,7.59,16.37,1.73,6.2,1.83,12.73,1.92,19.05.07,4.89.14,9.94.98,14.79,1.43,8.29,5.06,16.06,8.57,23.58.14.3.01.66-.29.8-.08.04-.17.06-.25.06Z"/>
      <path class="cls-4" d="m406.59,78.06c1.55,7.21.21,15.69-.56,22.14-1.49,12.51-4.74,24.99-11.35,35.83-4.53,7.42-10.5,13.88-14.93,21.35-12.06,20.35-11.43,45.74-7.6,69.08-.54-3.32-4.02-7.61-5.45-10.76-1.79-3.94-3.4-7.97-4.82-12.06-2.42-6.95-4.62-13.82-7.21-20.64-5.33-14.05.73-34.66,7.35-47.32,6.38-12.2,13.23-23.25,14.73-37.32.56-5.31.48-10.69,1.43-15.94.95-5.25,3.08-10.53,7.2-13.93,4.12-3.39,10.53-4.35,14.81-1.14,3.59,2.69,5.49,6.48,6.4,10.71Z"/>
      <path class="cls-4" d="m383.67,186.29c-5.48,4.72-6.66,9.75-9.03,16.33-1.92,5.31-6.02,14.61-5.08,20.32-2.94-18.03-1.88-39.57,10-54.23,4.08-5.03,9.05-9.27,13.41-14.05,7.19-7.88,12.73-17.26,16.15-27.37.8-2.38,1.52-4.84,2.99-6.87,1.48-2.03,3.93-3.57,6.41-3.17,2.07.33,3.72,1.92,4.91,3.65,5.62,8.18,3.29,19.46-1.19,28.32-4.74,9.37-11.64,17.63-20.01,23.97-6.04,4.57-12.83,8.15-18.57,13.1Z"/>
      <path class="cls-5" d="m370.53,220.45c-.22,0-.43-.12-.53-.32-2.86-5.51-4.18-11.26-5.18-16.65-.46-2.49-1.12-5-1.76-7.43-.76-2.89-1.54-5.88-2.02-8.91-1.95-12.45-.7-23.89,3.62-33.09,1.79-3.81,4.32-7.16,6.76-10.4,2.05-2.72,4.17-5.53,5.8-8.56,3.09-5.74,5.21-12.56,6.13-19.74.26-2.04.47-4.13.67-6.16.41-4.19.84-8.52,1.81-12.71,1.95-8.43,4.6-17.19,10.69-24.06.22-.25.6-.27.85-.05.25.22.27.6.05.85-5.91,6.68-8.5,15.26-10.42,23.54-.95,4.11-1.37,8.4-1.78,12.56-.2,2.03-.41,4.13-.67,6.19-.95,7.32-3.11,14.29-6.27,20.16-1.68,3.11-3.82,5.96-5.9,8.72-2.4,3.19-4.89,6.48-6.63,10.18-4.22,8.98-5.44,20.18-3.52,32.39.47,2.97,1.24,5.93,1.99,8.79.64,2.45,1.31,4.98,1.78,7.51.98,5.3,2.28,10.95,5.07,16.32.15.29.04.66-.26.81-.09.05-.18.07-.28.07Z"/>
      <path class="cls-5" d="m369.93,220.41c-.28,0-.54-.2-.59-.49-2.11-11.43-.62-22.51,4.21-31.19,4.36-7.83,11.32-13.72,18.05-19.43,3.94-3.34,8.02-6.79,11.54-10.6,8.08-8.75,13.73-20.18,15.92-32.18.06-.33.38-.54.7-.48.33.06.54.37.48.7-2.23,12.22-7.99,23.86-16.22,32.78-3.56,3.86-7.67,7.34-11.64,10.7-6.65,5.63-13.53,11.45-17.78,19.09-4.7,8.43-6.14,19.22-4.08,30.38.06.33-.15.64-.48.7-.04,0-.07.01-.11.01Z"/>
    </g>
    <path class="cls-4" d="m407.97,54.91h0s0,0,0,0c0,0,0,0,0,0,0,0,0,.02.01.02.66,1.21,1.17,2.53,1.67,3.81.7,1.8,1.42,3.66,2.56,5.29,2.28,3.27,5.54,4.79,8.7,6.26,1.61.75,3.28,1.53,4.79,2.54.2.13.49.3.83.49.6.34,1.61.92,2.06,1.36.34.63.68,1.26,1.03,1.9,0,.01,0,.03,0,.04.02.15.1.28.22.37,1.57,2.91,3.12,5.88,4.62,8.9-1.93-1.7-4.45-3.05-7.68-4.1-1.48-.48-3.01-.88-4.48-1.27-3-.79-6.11-1.6-8.83-3.1-.19-.1-.42-.09-.6.03-.18.12-.27.33-.24.55.45,3.41,3.17,5.83,5.92,8,4.14,3.28,8.27,6.25,13.2,6.51,1.37.07,2.75.04,4.08,0,.6-.02,1.2-.03,1.79-.03,2.06,4.51,3.96,9.12,5.57,13.8-.82-1.47-1.72-2.9-2.91-4.09-2.02-2.02-4.49-3.7-7.33-4.99-5.21-2.36-11.04-3.2-16.11-3.8,0,0,0,0,0,0-.31-.03-.6.19-.63.5-.03.26.12.5.35.6.28.26,1.05,1.51,1.42,2.12.36.59.57.92.7,1.09.87,1.08,1.83,2.11,2.86,3.07,2.09,1.96,4.46,3.63,7.02,4.96,2.58,1.34,5.31,2.31,8.1,2.88.66.14,1.29.24,1.9.35,2.12.36,3.95.67,5.92,2,.07.05.15.07.23.08.74,2.48,1.38,4.97,1.92,7.48-2.84-.59-5.76-.64-9.14-.12-3.19.49-6.2,1.76-8.72,3.65-1.62,1.22-4.3,3.77-4.12,7.15,0,.18.1.35.25.45.12.08.52.07,1.09,0,2.37-.31,7.65-1.67,7.71-1.69,2.83-.88,5.59-2.03,8.2-3.41,2.1-1.12,3.77-2.55,5.16-3.9,2.02,10.59,2.11,21.47-1.02,32.42-.09.3.09.62.39.71.08.02.15.03.23.02.22-.03.41-.18.48-.41,4.13-14.5,2.76-28.81-1.3-42.53.93,1.34,1.99,2.74,3.38,3.77,1.29.96,2.92,1.65,5.11,2.18,3.37.81,6.86.99,10.24,1.17.03,0,.07,0,.1,0,.18-.02.35-.13.43-.3.1-.2.08-.44-.05-.61-2.65-3.45-5.79-6.47-9.36-8.97-1.44-1.01-3.15-2.04-5.04-2.23,2.33-2.23,4.29-4.78,5.42-8.24,1.36-4.14,1.48-9.02.38-14.9-.03-.16-.12-.3-.26-.38-.14-.08-.3-.11-.46-.06-2.16.63-3.56,2.51-4.81,4.39-1.93,2.91-3.93,6.05-5.22,9.55-1.29,3.51-1.22,7.17-1.11,10.72-1.8-5.37-3.97-10.64-6.35-15.79.46-.06.92-.29,1.28-.5,1.61-.93,2.94-2.2,4.14-3.44,1.58-1.63,3.54-3.85,4.76-6.51.93-2.03,1.39-4.18,1.79-6.79.52-3.31.87-6.69,1.04-10.04.01-.25-.14-.48-.37-.56-.23-.09-.49-.02-.65.18l-6.13,7.65c-1.52,1.89-3.08,3.85-4.31,6.02-1.82,3.21-2.86,6.88-3.01,10.61v.26c-1.93-3.96-3.94-7.85-5.98-11.64.54-2.21,1.72-3.9,2.96-5.67.38-.54.77-1.09,1.15-1.67,1.8-2.74,2.94-5.8,3.29-8.85.51-4.4-.64-8.88-1.65-12.84-.06-.25-.29-.43-.55-.43-.25,0-.49.18-.55.43-.58,2.22-1.69,4.31-2.76,6.34-.79,1.5-1.61,3.04-2.24,4.66-1.04,2.71-1.6,5.73-1.71,9.25-.05,1.74.12,3.49.34,5.2-.71-1.54-1.49-3.07-2.32-4.56-.71-1.89-1.25-3.74-1.79-5.65-.25-.89-.52-1.8-.8-2.72,0-1.03-.03-2.05-.08-3.04-.1-2.14-.19-4.16.12-6.28.16-1.13.45-2.27.73-3.38.35-1.39.71-2.82.85-4.29.15-1.5.07-2.91-.23-4.32-.41-1.91-1.08-3.89-2.05-6.06-.4-.9-.86-1.84-1.41-2.88-.09-.16-.25-.4-.43-.68-.24-.35-.73-1.07-.75-1.31.02-.31-.22-.58-.53-.6-.32-.01-.59.23-.61.54,0,0,0,0,0,0-.15,2.2-.66,4.41-1.15,6.54-.35,1.52-.71,3.09-.95,4.66-.97,6.5-.27,11.69,2.22,16.32.3.57.63,1.13.96,1.68.91,1.55,1.77,3.02,2.16,4.66.06.25.28.42.54.43.1.34.2.7.3,1.04.09.33.19.66.28.99-.56-.85-1.14-1.64-1.8-2.39h0c-1.15-1.31-2.38-2.33-3.76-3.11-1.43-.81-2.9-1.23-4.33-1.63-.6-.17-1.21-.34-1.82-.55-1.02-.34-3.22-1.44-3.46-1.85-.15-.28-.5-.38-.78-.23-.27.14-.37.47-.24.75Zm29.69,64.66c2.93-.46,5.49-.45,7.96-.04-4.11.45-7.9,2.32-11.56,4.14-1.91.95-3.89,1.94-5.89,2.7-.22.08-.33.33-.25.55.07.19.26.3.45.27.03,0,.07-.01.1-.03,2.04-.78,4.03-1.77,5.97-2.73,3.59-1.79,7.31-3.61,11.27-4.05-1.22,1.14-2.64,2.28-4.35,3.19-2.55,1.35-5.24,2.47-8,3.33-.71.22-5.86,1.39-7.57,1.69.19-2.68,2.59-4.78,3.66-5.59,2.36-1.78,5.2-2.97,8.2-3.43Zm-14.57-69.16c-.31,2.12-.23,4.18-.14,6.17-.97-3.31-1.54-6.49-1.66-9.46-.05-1.37.19-2.76.43-4.11.39-2.17.79-4.41.02-6.72-.07-.23-.32-.35-.54-.27-.23.07-.35.32-.27.54.7,2.11.34,4.15-.05,6.3-.25,1.39-.51,2.84-.45,4.3.12,2.95.66,6.09,1.59,9.35-.05-.09-.11-.19-.16-.29-.32-.55-.64-1.09-.94-1.65-2.37-4.4-3.04-9.36-2.1-15.61.23-1.53.59-3.08.93-4.57.36-1.57.73-3.18.97-4.81,0,0,0,.01.01.02.15.23.29.43.37.57.53,1.02.99,1.94,1.38,2.82.93,2.1,1.58,4,1.97,5.83.28,1.29.35,2.59.21,3.97-.13,1.38-.48,2.78-.82,4.12-.29,1.14-.58,2.31-.75,3.5Zm9.75,19.68c-.5.72-.99,1.42-1.45,2.15.45-3.15,1.17-5.82,2.28-8.41,1.2-2.82,2.33-5.83,1.74-8.81-.05-.23-.28-.38-.5-.34-.23.05-.38.27-.34.5.55,2.74-.49,5.49-1.69,8.3-1.31,3.08-2.1,6.25-2.53,10.15-.28-1.97-.52-3.99-.46-5.98.11-3.39.64-6.29,1.64-8.88.6-1.55,1.4-3.07,2.18-4.54.8-1.5,1.61-3.04,2.24-4.67.82,3.35,1.54,6.99,1.14,10.5-.33,2.87-1.41,5.76-3.11,8.35-.37.57-.76,1.11-1.13,1.64Zm6.13,19.6c-.17.1-.3.16-.41.21.48-.94.93-1.9,1.35-2.83.73-1.62,1.48-3.3,2.48-4.83l.63-.96c1.44-2.16,2.93-4.39,3.42-7.04.04-.23-.11-.46-.35-.5-.23-.04-.46.11-.5.34-.45,2.47-1.89,4.63-3.29,6.72l-.64.96c-1.04,1.58-1.81,3.29-2.55,4.95-.39.87-.8,1.75-1.24,2.62,0-.35.01-.75.03-1.05l.02-.44c.15-3.55,1.14-7.04,2.87-10.09,1.18-2.09,2.72-4.01,4.21-5.87l5-6.24c-.19,2.72-.5,5.45-.92,8.13-.39,2.51-.83,4.57-1.7,6.49-1.14,2.5-3.02,4.62-4.54,6.19-1.14,1.18-2.4,2.39-3.88,3.24Zm7.61,18.18c2.34-4.9,4.32-10,5.85-15.2.07-.23-.06-.46-.29-.53-.23-.07-.47.06-.53.29-1.52,5.19-3.5,10.27-5.84,15.16,0-.08,0-.16,0-.24-.12-3.74-.23-7.27,1.02-10.7,1.24-3.39,3.2-6.46,5.09-9.31,1-1.5,2.1-3.01,3.58-3.7.93,5.38.78,9.86-.46,13.66-1.55,4.73-4.79,7.72-8.41,10.59Zm-.14,1.86c3.83.45,7.51,1.79,10.73,3.92.09.06.19.08.29.07.12-.02.23-.08.3-.19.13-.2.08-.46-.12-.59-3.19-2.1-6.81-3.46-10.59-3.98.69-.55,1.37-1.1,2.04-1.66.21.02.43-.07.55-.26.02-.01.1-.05.31-.05,1.86-.03,3.62,1.02,5.1,2.06,3.12,2.19,5.92,4.8,8.33,7.75-2.93-.16-5.91-.39-8.77-1.07-2.04-.49-3.53-1.12-4.7-1.98-1.42-1.05-2.46-2.54-3.47-4.01Zm-3.77-1.97c-4.46-3.54-9.6-6.28-15.02-7.98-.22-.07-.47.05-.54.28-.07.23.06.47.28.54,5.48,1.71,10.66,4.52,15.13,8.15-1.25-.44-2.5-.67-3.78-.89-.6-.1-1.21-.21-1.86-.34-2.69-.55-5.32-1.49-7.8-2.78-2.48-1.29-4.75-2.9-6.77-4.79-.99-.92-1.91-1.92-2.75-2.95-.09-.12-.36-.55-.62-.97-.33-.54-.6-.97-.82-1.31,4.63.58,9.76,1.45,14.35,3.53,2.72,1.23,5.07,2.83,7,4.76,1.32,1.32,2.3,3.02,3.21,4.74Zm-7.96-20.02c.5.54.89,1.16,1.26,1.8-.82-.47-1.72-.82-2.63-1.12-1.1-.36-2.22-.68-3.34-1-3.69-1.07-7.5-2.17-10.5-4.52-.19-.15-.46-.11-.6.07-.15.19-.11.46.07.6,3.13,2.45,7.03,3.58,10.79,4.66,1.11.32,2.22.64,3.31,1,1.34.44,2.83,1.01,3.82,2.11-.37,0-.75.02-1.12.03-1.31.03-2.67.07-3.99,0-4.59-.25-8.56-3.1-12.55-6.26-2.23-1.77-4.44-3.69-5.24-6.12,2.55,1.21,5.31,1.94,7.99,2.64,1.46.38,2.97.78,4.42,1.25h0c3.69,1.19,6.4,2.78,8.3,4.85Zm-24.78-31.37c.96.5,1.94.88,2.16.95.63.21,1.25.39,1.87.56,1.42.41,2.77.79,4.08,1.53,1.27.72,2.4,1.66,3.46,2.87,1.31,1.5,2.34,3.19,3.54,5.25.24.42.47.85.71,1.27.24.63.5,1.27.79,1.91-.8-.76-1.69-1.44-2.56-2.11l-.38-.3c-3.13-2.41-6.1-5.07-8.85-7.9-.16-.17-.44-.17-.61,0-.17.17-.17.44,0,.61,2.78,2.86,5.78,5.55,8.94,7.98l.38.29c1.13.87,2.28,1.75,3.2,2.8-.12-.07-.23-.14-.32-.2-1.58-1.05-3.29-1.85-4.94-2.62-3.16-1.47-6.14-2.87-8.24-5.88-1.06-1.52-1.73-3.24-2.43-5.05-.25-.65-.51-1.3-.78-1.96Z"/>
    <g>
      <path class="cls-3" d="m110.23,108.51c.92,5.29.69,9.99.67,15.31-1.06-1.41-1.68-3.04-2.77-4.4-1.26-1.59-2.74-2.99-3.98-4.61-2.44-3.22-4.47-6.77-5.88-10.57-2.44-6.57-3-13.91-1.02-20.63,5.4,7.72,10.91,15.71,12.98,24.9Z"/>
      <path class="cls-3" d="m119.8,129.25c-.07.18-.13.36-.2.54-1.62,4.25-3.48,8.6-3.26,13.15-1.19-3.25-2.56-6-2.95-9.46-.4-3.58-.49-7.2.11-10.76.53-3.16,1.5-6.25,2.88-9.15.52-1.1,5-6.74,4.83-7.41,1.93,7.79,1.35,15.55-1.41,23.09Z"/>
      <path class="cls-3" d="m104.85,125.73c-4.84-4.23-11-7.16-14.52-12.54,2.47,8.92,8.14,17.3,16.52,21.23,4.72,2.21,8.14,4.61,10.53,9.48-2.49-6.76-7.09-13.41-12.53-18.17Z"/>
      <path class="cls-3" d="m97.41,133.12c.21,2.17,1.63,4.75,2.46,6.76.99,2.39,1.48,5.04,3.03,7.16,1.75,2.4,4.57,3.71,7.17,5.14,7.41,4.07,15.2,9.26,18.37,17.6-6.33-15.1-17.61-27.44-31.03-36.66Z"/>
      <path class="cls-3" d="m131.76,134.93c3.07,6.12,3.95,13.26,2.69,19.98-.52,2.78-1.25,5.53-1.81,8.29-.32,1.6-1.07,3.13-1.66,4.64-.36.92-2.04,3.73-1.81,4.63-2.02-6.47-2.66-13.24-2.09-19.99.25-2.97.94-5.85,1.77-8.72.41-1.42,3.47-7.7,2.91-8.83Z"/>
      <path class="cls-3" d="m83.5,138.6c1.15,4.32,1.35,8.9,2.95,13.07,1.38,3.61,3.84,6.79,6.92,9.11,1.56,1.18,2.84,1.55,4.62,2.07,2.28.68,4.21,2.01,6.27,3.13-5.63-9.93-14.54-17.83-20.76-27.39Z"/>
      <path class="cls-3" d="m109.14,120.53c1.85,7.46,3.71,14.97,6.92,21.98,1.65,3.6,3.64,7.03,5.36,10.59,1.65,3.42,3.05,6.95,4.28,10.54,2.53,7.35,4.91,14.9,5.38,22.7.46,7.61-.31,15.22-.05,22.83.26,7.7,1.58,15.57,5.87,22.12.46.71,1.53-.06,1.07-.77-8.17-12.49-5-28.3-5.48-42.31-.13-3.91-.55-7.8-1.51-11.6-.94-3.72-2.07-7.42-3.25-11.07-1.17-3.61-2.48-7.18-4.02-10.64-1.57-3.52-3.46-6.87-5.19-10.31-3.9-7.76-6.07-16.13-8.15-24.53-.2-.82-1.43-.34-1.23.47h0Z"/>
      <path class="cls-3" d="m132.65,191.33c1.96-3.15,4.49-5.9,6.75-8.83,1.17-1.52,2.29-3.1,3.26-4.76,1.06-1.82,1.92-3.76,2.72-5.71,3.29-7.98,4.82-16.49,6.24-24.96.79-4.73,1.57-9.47,2.68-14.15.2-.83-1.11-1.05-1.3-.23-1.96,8.28-2.89,16.76-4.69,25.08-1.76,8.13-4.33,16.42-9.37,23.15-2.47,3.3-5.3,6.34-7.49,9.85-.45.72.76,1.26,1.2.55h0Z"/>
      <path class="cls-3" d="m132.1,203.1c-.7-3.64-1.41-7.33-2.86-10.76-1.49-3.51-3.89-6.34-6.36-9.18-2.45-2.82-4.92-5.63-7.68-8.15-2.87-2.62-6.19-4.66-9.13-7.18-3.06-2.62-5.62-5.81-7.53-9.36-.4-.74-1.63-.28-1.23.47,1.65,3.07,3.71,5.86,6.19,8.31,2.7,2.67,5.93,4.66,8.86,7.04,2.92,2.37,5.49,5.12,7.97,7.94,2.47,2.81,5.17,5.61,6.91,8.94,1.95,3.75,2.76,7.95,3.55,12.06.16.83,1.47.71,1.31-.13h0Z"/>
      <path class="cls-3" d="m95.07,171.08c1.47,1.66,2.93,3.32,4.4,4.98,1.81,2.05,3.77,4.19,6.4,4.93,1.13.32,2.31.35,3.49.34,1.8-.02,3.66-.54,5.4-.55,2,0,4.28,1,6.21,1.51-1.89-.5-3.61-4.34-5.17-5.55-1.37-1.07-3.15-1.4-4.75-2-5.18-1.97-10.43-3.34-15.98-3.66Z"/>
      <path class="cls-3" d="m121.63,171.3c1.42,2.37,3.15,5.11,3.61,7.85.4,2.37-.59,6.13.37,8.3-2.08-4.68-4.67-9.13-7.71-13.26-1.68-2.29-3.57-4.6-4.54-7.3-.47-1.31-.59-2.61-.69-3.98-.04-.55.19-3.17-.07-3.44,3.43,3.6,6.46,7.57,9.03,11.83Z"/>
      <path class="cls-3" d="m156.35,112.28c-.59.77.74,6.77.75,8.05.01,2.84-.24,5.68-.75,8.48-.97,5.35-3.19,10.24-4.1,15.62-.58-8.15-4.33-15.49-1.15-23.73,1.19-3.1,3.24-5.78,5.25-8.42Z"/>
      <path class="cls-3" d="m139.66,146.61c.52,2.9,1.53,6.53,3.6,8.74,2.1,2.25,3.73,3.62,5.03,6.66.47-11.3-3.38-22.28-7.19-32.93.39,1.08-.58,2.41-.88,3.34-.45,1.39-.64,2.84-.79,4.31-.34,3.29-.36,6.62.23,9.89Z"/>
      <path class="cls-3" d="m164.16,147.08c-1.47,5.4-4.06,10.48-7.5,14.88-1.74,2.22-3.72,4.14-5.79,6.05-.88.82-1.45,1.78-2.44,2.49-.66.47-1.34.91-2.04,1.33-.31.19-1.83.8-1.92,1.09,2.48-8.14,6.93-14.9,13.01-20.86,2-1.96,4.07-3.97,6.67-4.98Z"/>
    </g>
    <g>
      <path class="cls-5" d="m233.12,226c-16.06,4.21-32.2,8.09-45.54,17.69-.55-11.51-8.15-21.79-13.4-31.7-5.36-10.15-10.46-20.55-13.28-31.73-1.7-6.71-2.19-14.79,2.79-19.6,2.7-2.6,6.75-3.71,10.4-2.84,3.64.87,6.76,3.69,7.99,7.23-1.1-6.61-3-13.45-2.5-20.16.1-1.39.32-2.87,1.22-3.93,1.31-1.54,3.73-1.69,5.6-.9,1.86.79,3.3,2.31,4.68,3.79-4.38-7.71-7.1-16.95-4.69-25.49,1.83-6.48,8.51-14.08,15.86-13.84,8.06.26,14.55,6.83,17.48,13.86,1.03-13.11,7.97-25.65,18.54-33.47,4.09-3.03,9.52-5.42,14.17-3.34,4.41,1.98,6.32,7.18,7.03,11.96,1.74,11.7-1.15,24.02-7.91,33.72,3.55-3.29,14.14-8.59,16.65-1.86.8,2.13.51,4.52-.06,6.72-2.78,10.8-11.52,18.87-19.85,26.29,2.04-1.22,4.18-2.46,6.55-2.63,2.37-.17,5.03,1.1,5.6,3.41.33,1.32-.06,2.7-.5,3.99-2.89,8.38-8.29,15.88-15.32,21.28,3.63-2.79,15.33-8.29,15.53-.32.17,6.8-6.59,15.09-11.63,18.86,2.61-.5,5.31-1.01,7.92-.49,10.65,2.12,3.55,12.03-1.52,15.92-5.91,4.54-14.76,5.73-21.8,7.57Z"/>
      <path class="cls-2" d="m259.45,135.34c-14.72,7.31-28.19,17.04-39.73,28.74-2.16,2.19-4.24,4.45-6.26,6.77,3.6-8.5,7.38-16.93,11.27-25.3,3.79-8.15,7.68-16.24,11.6-24.32.19.03.41-.02.6-.2,6.11-5.46,11.5-11.69,15.99-18.55.59-.91-.75-1.93-1.34-1.02-3.88,5.92-8.42,11.38-13.54,16.26,1.28-2.63,2.57-5.26,3.86-7.89.48-.98-1.09-1.61-1.56-.64-3.95,8.07-7.9,16.15-11.77,24.26,1.57-11.23,4.4-22.25,8.45-32.86.39-1.01-1.17-1.65-1.56-.64-4.71,12.33-7.8,25.23-9.19,38.36-3.95,8.37-7.81,16.79-11.51,25.27-.95-6.25-2.18-12.45-3.69-18.58-.16-5.63.85-11.25,2.95-16.48.4-1.01-1.16-1.65-1.56-.64-1.49,3.7-2.43,7.58-2.84,11.51-2.14-7.78-4.72-15.45-7.74-22.94-.41-1.01-1.95-.34-1.55.67,3.69,9.16,6.71,18.57,9.07,28.15,0,.19,0,.38,0,.57.01.26.12.45.28.56,1.11,4.6,2.04,9.25,2.83,13.92-3.77-7.61-9.61-14.08-15.32-20.32-.73-.8-2.06.24-1.33,1.04,6.89,7.52,13.96,15.34,17.28,25.18.06.19.17.3.29.38-1.04,2.4-2.06,4.81-3.07,7.23-5.79,13.89-11.06,28.02-15.49,42.41-.87-4.36-2.12-8.61-3.63-12.78-1.55-8.54-1.72-17.25-.51-25.84.15-1.08-1.52-1.28-1.67-.2-.91,6.47-1.04,13.02-.42,19.51-3.46-7.99-7.71-15.68-11.98-23.2-.53-.93-2.08-.27-1.55.67,3.94,6.95,7.89,14.05,11.19,21.39-4.89-4.22-10.08-8.06-15.58-11.44-.92-.56-1.94.78-1.02,1.34,6.47,3.98,12.54,8.55,18.14,13.67,0,0,0,0,.01,0,2.73,6.58,4.86,13.38,5.94,20.46-1.99,6.72-3.82,13.49-5.39,20.33-2.97,12.93-5.08,26.05-6.15,39.28-.09,1.08,1.59,1.29,1.67.2,1.63-20.23,5.75-40.14,11.52-59.57,0,0,0-.02.01-.02,0,0,0,0,0,0,1.56-4,4.45-7.36,7.28-10.53,2.97-3.32,6.05-6.53,9.27-9.61.29-.28.59-.54.88-.81.66.2,1.15.76,1.72,1.13.57.37,1.19.66,1.78,1.01,1.38.8,2.74,1.62,4.09,2.46,2.75,1.71,5.45,3.49,8.11,5.34.89.62,1.91-.72,1.02-1.34-2.84-1.97-5.73-3.87-8.67-5.68-1.4-.86-2.81-1.73-4.25-2.53-.49-.27-.96-.61-1.43-.93,7.66-.87,15.24,1.79,22.87,2.25,1.08.07,1.29-1.61.2-1.67-7.68-.47-15.28-3.08-23-2.28,5.43-4.93,11.15-9.54,17.16-13.74,4.24-2.96,8.61-5.72,13.09-8.29.93-.53.27-2.09-.67-1.55-15.91,9.1-30.31,20.66-42.62,34.23-1.59,1.75-3.2,3.55-4.65,5.46.21-.67.42-1.34.64-2.01,3.88-11.95,8.34-23.69,13.14-35.29.12-.05.24-.12.34-.25,2.98-3.63,6.14-7.1,9.45-10.43.15.03.31.02.48-.07,3.21-1.68,6.84-1.78,10.39-1.86,4.24-.09,8.47-.17,12.71-.26,1.08-.02.82-1.69-.25-1.67-4.36.09-8.72.17-13.09.26-2.51.06-5.06.19-7.48.84,7.32-6.99,15.35-13.23,23.96-18.58,3.94-2.45,8.01-4.7,12.17-6.77.97-.48.3-2.03-.67-1.55Z"/>
    </g>
    <g>
      <path class="cls-1" d="m285.17,106.76c1.87,2.98,4.06,5.74,6.56,8.22.38.38,1.13.23,1.25-.33,1.09-5.09,2.73-10.36,1.15-15.53-.28-.92-1.73-.53-1.45.4,1.5,4.9-.12,9.92-1.15,14.73l1.25-.33c-2.41-2.4-4.52-5.04-6.32-7.92-.51-.82-1.81-.06-1.3.76h0Z"/>
      <g>
        <path class="cls-3" d="m286.33,144.53c-5.83-6.97-9.95-16.38-8.37-25.37,1.04-5.94,2.25-11.83,3.06-17.9.47-3.51.94-7.03,1.41-10.54.23-1.73,1.92-7.16,1.15-8.63,7.26,13.87,22.64,21.06,30.55,34.71,7.7,13.28,6.08,33.71,6.42,48.8-11.01-4.59-22.28-9.35-30.93-17.56-1.14-1.08-2.25-2.26-3.3-3.51Z"/>
        <path class="cls-2" d="m286.86,96.89c1.56,4.16,2.82,8.42,3.88,12.74,1.04,4.19,1.72,8.5,2.88,12.65,1.05,3.76,2.75,7.28,4.69,10.66,1.34,2.35,2.79,4.63,4.19,6.94.7,1.16,1.41,2.3,2.19,3.4,8.54,12.07,19.09,22.56,27.54,34.7,4.8,6.9,8.86,14.34,11.3,22.41.18.59,1.11.39.94-.2-4.36-14.41-13.65-26.38-23.18-37.76-4.82-5.76-9.74-11.44-14.21-17.48-1.51-2.04-2.89-4.16-4.21-6.31-2.77-4.53-5.72-9.1-7.54-14.16-.82-2.26-1.3-4.6-1.8-6.95-.51-2.37-1.03-4.73-1.59-7.08-1.14-4.74-2.5-9.43-4.22-14-.22-.57-1.06-.13-.85.44h0Z"/>
        <path class="cls-2" d="m300.89,151.31c5.69,2.58,11.39,5.15,17.08,7.73.32.15.72-.22.62-.55-2.49-8.26-4.14-16.75-4.9-25.34-.05-.61-.99-.41-.94.2.76,8.59,2.41,17.08,4.9,25.34.21-.18.41-.37.62-.55-5.69-2.57-11.39-5.15-17.08-7.72-.56-.25-.86.66-.3.91h0Z"/>
        <path class="cls-2" d="m290.36,135.86c4.9,4.15,10.55,7.36,16.62,9.45.33.11.72-.2.62-.55-2.43-8.65-3.44-17.65-2.98-26.63.03-.62-.92-.67-.96-.06-.47,9.06.55,18.15,3,26.88.21-.18.41-.37.62-.55-6-2.07-11.55-5.25-16.4-9.35-.47-.4-.98.41-.52.8h0Z"/>
        <path class="cls-2" d="m283.27,114.86c.87,3.14,2.53,6.08,4.87,8.37,2.18,2.13,5.19,3.09,7.97,4.15.31.12.63-.11.63-.43-.02-7.23.65-14.45,2.04-21.54.12-.6-.79-.9-.91-.3-1.41,7.18-2.11,14.47-2.09,21.79l.63-.43c-2.62-1-5.51-1.88-7.56-3.88-2.22-2.16-3.82-4.94-4.64-7.92-.16-.59-1.1-.4-.94.2h0Z"/>
        <g>
          <path class="cls-3" d="m263.43,172.85c9.87,9.36,25.93,16.52,39.78,14.59,4.82-.67,9.39-2.45,13.89-4.22,4.12-1.62,8.21-3.53,12.54-4.32-.73.13-2.41-2.74-2.79-3.25-1.02-1.37-1.98-2.8-3.04-4.14-2.09-2.65-4.45-5.14-7.17-7.15-4.98-3.69-13.46-4.15-19.48-3.74-12.03.83-23.17,6.41-33.73,12.24Z"/>
          <path class="cls-2" d="m335.94,181.51c-6.43-3.51-13.16-6.53-20.21-8.55-3.62-1.04-7.37-1.87-11.1-2.41-3.76-.55-7.57-.6-11.36-.51-4.41.1-8.81.38-13.22.34-.61,0-.67.95-.06.96,7.63.06,15.28-.86,22.89-.04,3.67.4,7.36,1.19,10.92,2.13,3.56.94,7.05,2.14,10.46,3.54,3.82,1.56,7.52,3.38,11.14,5.35.54.29,1.06-.51.52-.8h0Z"/>
          <path class="cls-2" d="m282.48,167.19c3.91.85,7.74,2.03,11.46,3.52-.02-.29-.05-.59-.07-.88-5,2.21-9.74,4.94-14.18,8.12-.5.36.15,1.06.64.71,4.37-3.13,9.06-5.8,13.98-7.98.4-.18.28-.74-.07-.88-3.71-1.49-7.54-2.67-11.46-3.52-.6-.13-.9.78-.3.91h0Z"/>
          <path class="cls-2" d="m292.93,180.39c3.92-3.86,8.65-6.82,13.85-8.63.33-.11.52-.5.25-.79-2.77-3.04-6.14-5.45-9.89-7.13-.56-.25-.86.66-.3.91,3.61,1.61,6.83,3.95,9.49,6.86.08-.26.17-.53.25-.79-5.36,1.86-10.25,4.87-14.3,8.86-.44.43.2,1.14.64.71h0Z"/>
          <path class="cls-2" d="m301.51,183.64c2.9-2.53,6.26-4.3,9.93-5.44,3.29-1.01,6.78-2.08,10.26-1.51.45.07.61-.51.38-.8-2.15-2.81-4.62-5.52-7.2-7.94-2.25-2.12-4.93-3.71-7.85-4.69-.58-.19-.88.7-.32.9,2.51.92,4.96,1.98,6.87,3.84,2.73,2.66,5.45,5.48,7.79,8.53.13-.27.25-.53.38-.8-3.63-.59-7.31.54-10.75,1.61-3.74,1.16-7.18,3.01-10.13,5.59-.46.4.18,1.11.64.71h0Z"/>
        </g>
        <g>
          <path class="cls-5" d="m332.07,153.49c.62,2.89-1.23,5.74-4.12,6.36-2.89.62-5.74-1.23-6.36-4.12-.62-2.89,1.23-5.74,4.12-6.36,2.89-.62,5.74,1.23,6.36,4.12Z"/>
          <path class="cls-5" d="m327.05,168.75c.62,2.89-1.23,5.74-4.12,6.36-2.89.62-5.74-1.23-6.36-4.12-.62-2.89,1.23-5.74,4.12-6.36s5.74,1.23,6.36,4.12Z"/>
          <path class="cls-5" d="m347.21,158.98c.62,2.89-1.23,5.74-4.12,6.36-2.89.62-5.74-1.23-6.36-4.12-.62-2.89,1.23-5.74,4.12-6.36s5.74,1.23,6.36,4.12Z"/>
          <path class="cls-5" d="m342.41,176.32c.62,2.89-1.23,5.74-4.12,6.36-2.89.62-5.74-1.23-6.36-4.12-.62-2.89,1.23-5.74,4.12-6.36s5.74,1.23,6.36,4.12Z"/>
        </g>
      </g>
    </g>
    <g>
      <path class="cls-5" d="m10.42,133.64c-1.59,4.48-3.59,9.81-3.9,14.6-.29,4.48,3.71,6.15,7.16,7.66,1.71.75,5.71,2.95,6.48,4.85.83,2.07-2.06,2.68-3.81,2.39-1-.17-7.56-1.65-7.62-2.85.63,11.73,3.83,23.23,9.16,33.66,2.14,4.19,4.89,4.22,8.85,3.04,4.62-1.38,9.09-2.99,13.2-5.55,5.32-3.31,10.38-7.04,15.09-11.17,2.83-2.49,25.54-26.13,20.97-28.69-.86-.48-1.93-.27-2.9-.07-2.12.43-4.28.7-6.45.81-.72.04-1.47.05-2.14-.24-.66-.29-1.22-.95-1.15-1.67.06-.58.5-1.05.96-1.42,3.58-2.86,9.28-2.18,12.39-5.55,1.06-1.15,1.67-2.64,2.16-4.13,1.86-5.55,2.49-11.42,3.11-17.23.33-3.1.66-6.2.99-9.3.04-.37.08-.75,0-1.12-.24-1.01-1.42-1.56-2.46-1.46-1.04.1-1.95.68-2.83,1.24-2.46,1.58-4.92,3.16-7.37,4.74-.76.49-1.57.99-2.47,1.06s-1.92-.45-2.08-1.35c-.1-.56.16-1.12.44-1.61,3.91-6.64,12.79-9.69,12.93-18.36.06-3.63-1.4-7.11-3.04-10.34-1.35-2.64-2.84-5.21-4.43-7.71-1.05-1.66-2.62-5.33-4.61-6.05-1.96-.71-4.34,1.49-5.85,2.46-8.06,5.22-16.01,10.55-22.81,17.42-.38.39-.78.81-.86,1.35-.09.59.22,1.15.52,1.66,1.87,3.22,3.52,6.75,6.02,9.49.88.96,1.73,1.64,1.71,3.13-.03,1.95-1.26,2.32-2.58.91-2.71-2.9-5.07-6.95-8.28-9.27-.42-.31-.92-.58-1.44-.54-.67.06-1.17.63-1.59,1.16-2.96,3.78-5.7,7.73-8.2,11.82-.41.68-.83,1.42-.75,2.21.11,1.01.98,1.73,1.75,2.38,3.47,2.94,6.82,6.75,8.83,10.84.5,1.02.91,2.18.57,3.26-.12.38-.35.74-.69.95-.66.41-1.52.16-2.21-.18-3.42-1.67-5.62-5.04-8.19-7.85-.59-.64-1.26-1.29-2.12-1.43-1.87-.29-4.33,2.33-5.46,3.63-2.12,2.46-3.93,5.35-5.01,8.42Z"/>
      <path class="cls-6" d="m52.92,93.89c1.71,4.22,3.55,8.37,5.48,12.49,1.63-7.11,3.05-14.27,4.32-21.45.18-1.04,1.75-.56,1.57.46-1.32,7.45-2.81,14.87-4.52,22.25,2-.85,3.72-2.5,5.39-3.81,2.29-1.8,4.59-3.6,6.88-5.4.82-.64,1.95.54,1.12,1.19-2.47,1.94-4.95,3.88-7.42,5.82-1.97,1.54-3.95,3.38-6.41,4.08-1.92,8.08-4.11,16.1-6.66,24.01,5.26-3.16,10.29-6.7,15.01-10.63.8-.67,1.93.52,1.12,1.19-5.26,4.37-10.87,8.3-16.79,11.75-.04.02-.08.02-.12.03-.23.68-.44,1.36-.67,2.03-1.67,4.89-3.49,9.73-5.47,14.5.08.17.16.34.24.51,5.18-2.26,10.36-4.52,15.53-6.78.96-.42,1.73,1.02.76,1.44-5.44,2.37-10.88,4.75-16.32,7.12-.37.16-.84.08-1.06-.28-2.48,5.84-5.2,11.58-8.19,17.18.49-.18,1.06-.44,1.23-.5,1.13-.38,2.26-.77,3.38-1.18,2.66-.95,5.3-1.97,7.91-3.04,4.88-2.01,9.68-4.22,14.38-6.62.93-.48,1.7.96.76,1.44-7.95,4.06-16.18,7.57-24.62,10.49-1.04.36-2.09.74-3.15,1.06-.3.09-.6.17-.89.17-2.07,3.79-4.27,7.52-6.6,11.17.04,0,.08,0,.12,0,.67-.02,1.4-.25,2.06-.37,1.38-.24,2.75-.49,4.13-.73,2.92-.52,5.85-1.04,8.77-1.55,1.03-.18,1.41,1.41.37,1.59-3.35.59-6.71,1.19-10.06,1.78-1.63.29-3.26.61-4.9.87-.54.08-1.06.11-1.53,0-.19.28-.37.57-.55.85-5.65,8.53-12.03,16.56-19.15,23.91-.73.76-1.85-.44-1.12-1.19,7.28-7.51,13.75-15.75,19.47-24.49-.78-.98-1.31-2.29-1.86-3.4-.66-1.34-1.29-2.7-1.86-4.08-1.18-2.83-2.16-5.73-2.96-8.69-.27-1.01,1.32-1.38,1.59-.37,1.38,5.1,3.33,10.04,5.87,14.67.07.12.13.23.2.34,2.36-3.69,4.59-7.47,6.7-11.32-.16-.38-.26-.8-.36-1.18-.31-1.18-.62-2.36-.93-3.54-1.15-4.47-2.21-8.96-3.19-13.47-1.11-5.11-2.11-10.24-3.01-15.38-.18-1.03,1.41-1.41,1.59-.37,1.86,10.64,4.17,21.2,6.93,31.64.02.08.04.18.06.28.91-1.72,1.81-3.45,2.67-5.2,2.07-4.19,3.99-8.44,5.79-12.75-2.81-6.1-5.07-12.44-6.73-18.95-.26-1.02,1.33-1.39,1.59-.37,1.51,5.91,3.51,11.66,5.98,17.22,2.11-5.21,4.05-10.48,5.8-15.82-1.77-6.54-2.83-13.25-3.16-20.02-.05-1.05,1.58-1,1.63.05.28,5.75,1.12,11.45,2.46,17.04,1.78-5.62,3.4-11.3,4.85-17.01.48-1.87.92-3.75,1.37-5.63-2.25-4.71-4.36-9.48-6.31-14.31-.39-.96,1.05-1.74,1.44-.76Z"/>
    </g>
    <g>
      <path class="cls-5" d="m533.1,101.72c.55,3.56,1.28,7.81.83,11.41-.42,3.37-3.63,4.04-6.42,4.68-1.38.31-4.67,1.38-5.51,2.68-.91,1.42,1.15,2.29,2.5,2.32.77.02,5.85-.15,6.07-1.03-2.14,8.63-6.15,16.73-11.6,23.73-2.19,2.81-4.24,2.45-7.02,1-3.24-1.68-6.33-3.52-9.03-6.01-3.48-3.22-6.72-6.71-9.63-10.45-1.75-2.25-15.28-23.06-11.52-24.32.71-.24,1.47.08,2.17.36,1.52.62,3.08,1.13,4.68,1.52.53.13,1.09.25,1.62.13.53-.12,1.04-.53,1.09-1.08.04-.44-.22-.85-.51-1.19-2.25-2.63-6.59-2.94-8.42-5.89-.62-1.01-.86-2.2-1.02-3.38-.59-4.39-.23-8.84.13-13.26.19-2.35.39-4.7.58-7.06.02-.28.05-.57.16-.83.32-.72,1.28-.96,2.03-.74.76.22,1.36.78,1.93,1.32,1.6,1.52,3.21,3.05,4.81,4.57.5.47,1.02.96,1.69,1.14.66.18,1.49-.06,1.74-.71.15-.4.04-.85-.1-1.26-1.96-5.49-8.13-9.03-7-15.49.47-2.71,2.05-5.09,3.73-7.26,1.38-1.77,2.85-3.47,4.39-5.11,1.02-1.08,2.71-3.59,4.29-3.84,1.56-.25,3.02,1.73,4,2.66,5.26,5.03,10.41,10.12,14.49,16.2.23.34.46.71.45,1.12-.02.45-.33.82-.62,1.16-1.85,2.13-3.58,4.52-5.83,6.2-.79.59-1.52.97-1.72,2.08-.26,1.46.61,1.9,1.79,1.04,2.43-1.77,4.76-4.45,7.47-5.72.36-.17.77-.3,1.15-.19.49.14.78.64,1.01,1.09,1.67,3.23,3.14,6.56,4.42,9.96.21.56.42,1.18.24,1.75-.22.73-.98,1.15-1.64,1.52-3,1.69-6.03,4.05-8.11,6.81-.52.69-.99,1.49-.89,2.35.04.3.15.6.38.81.43.4,1.11.33,1.67.18,2.78-.76,4.9-2.95,7.21-4.68.53-.39,1.12-.78,1.78-.76,1.43.05,2.89,2.35,3.54,3.47,1.23,2.13,2.16,4.54,2.53,6.97Z"/>
      <path class="cls-6" d="m507.15,66.12c-1.87,2.89-3.83,5.72-5.85,8.51-.2-5.52-.24-11.04-.17-16.57.01-.8-1.22-.67-1.23.12-.08,5.73-.02,11.46.2,17.19-1.37-.92-2.41-2.39-3.47-3.6-1.45-1.66-2.9-3.33-4.35-4.99-.52-.6-1.53.12-1,.72,1.56,1.79,3.13,3.59,4.69,5.38,1.24,1.43,2.46,3.08,4.19,3.95.28,6.28.77,12.56,1.54,18.8-3.47-3.1-6.7-6.44-9.65-10.04-.5-.61-1.51.11-1,.72,3.29,4,6.91,7.72,10.81,11.12.02.02.05.02.08.04.07.54.13,1.07.21,1.61.55,3.87,1.21,7.73,2,11.56-.08.12-.17.23-.25.35-3.53-2.42-7.06-4.83-10.59-7.25-.65-.45-1.43.51-.77.97,3.71,2.54,7.42,5.08,11.12,7.61.25.17.61.18.83-.06,1.01,4.7,2.22,9.35,3.65,13.94-.34-.2-.73-.48-.84-.54-.79-.44-1.57-.9-2.35-1.35-1.84-1.09-3.66-2.22-5.45-3.39-3.35-2.19-6.6-4.52-9.76-6.97-.63-.49-1.4.48-.77.97,5.34,4.15,10.96,7.93,16.82,11.3.73.42,1.45.84,2.19,1.24.21.11.42.21.64.25,1,3.12,2.11,6.2,3.32,9.24-.03,0-.06,0-.09-.01-.5-.11-1.01-.38-1.48-.57-.99-.38-1.98-.75-2.97-1.13-2.1-.8-4.2-1.6-6.3-2.4-.74-.28-1.25.85-.5,1.13,2.41.92,4.82,1.84,7.23,2.75,1.17.45,2.34.92,3.52,1.34.39.14.77.23,1.14.22.1.24.19.48.29.71,2.99,7.14,6.59,14.03,10.85,20.5.44.67,1.44-.06,1-.72-4.35-6.62-7.99-13.67-11-20.98.72-.61,1.3-1.52,1.87-2.26.68-.9,1.34-1.83,1.96-2.77,1.28-1.94,2.42-3.96,3.44-6.04.35-.72-.78-1.22-1.13-.5-1.75,3.6-3.9,6.99-6.45,10.08-.07.08-.13.15-.2.22-1.23-3.08-2.35-6.21-3.37-9.37.18-.26.3-.56.43-.83.4-.83.8-1.66,1.19-2.5,1.49-3.16,2.92-6.35,4.29-9.57,1.55-3.64,3.03-7.31,4.43-11.01.28-.74-.85-1.25-1.13-.5-2.9,7.65-6.11,15.17-9.65,22.54-.03.05-.05.13-.08.2-.44-1.41-.85-2.83-1.25-4.25-.95-3.41-1.77-6.85-2.49-10.31,2.96-4.14,5.54-8.53,7.7-13.14.34-.72-.79-1.22-1.13-.5-1.96,4.18-4.27,8.17-6.89,11.96-.83-4.17-1.52-8.37-2.07-12.59,2.25-4.61,3.98-9.45,5.19-14.44.19-.77-1.03-.97-1.22-.2-1.03,4.23-2.46,8.35-4.25,12.32-.52-4.43-.92-8.89-1.19-13.34-.09-1.46-.15-2.92-.22-4.38,2.34-3.18,4.59-6.43,6.73-9.74.43-.66-.53-1.44-.97-.77Z"/>
    </g>
    <g>
      <path class="cls-6" d="m510.17,175.95c9.22,2.64,4.34,21.73,3.74,28.34-.51,5.63-1.38,11.22-2.6,16.74-.27,1.23-3.64,13-4.39,15.36-.08.27-.14.41-.15.42-.24-.12-.48-.24-.73-.35-13.44-6.62-27.23-12.41-40.77-18.64-2.86-1.32-6.56-2.91-8.21-5.76-1.73-2.99-2.12-6.99,2.07-7.64,2.53-.39,5.13.15,7.65.67-.74-1.34-5.27-2.81-6.67-3.56-2.54-1.36-5.24-2.59-7.69-4.11-3.95-2.46-8.29-4.36-12.25-6.91-3.65-2.35-11.75-9.17-8.7-14.32,1.85-3.12,7.22-2.18,10.24-1.97,5.02.37,9.85,2.02,14.58,3.64-5.49-3.01-11.01-6.05-15.94-9.9-4.94-3.86-9.31-8.61-11.89-14.33-1.23-2.71-1.85-6.32.34-8.33,1.88-1.72,4.82-1.32,7.26-.6,6.98,2.06,13.43,5.88,18.6,10.99-9.03-9.82-18.36-20.16-21.93-33.02-.43-1.57-.77-3.2-.54-4.82.23-1.61,1.15-3.2,2.64-3.86,2.41-1.06,5.1.61,7.07,2.36,9.38,8.29,14.33,19.35,20.78,29.75-1.42-5.73-2.15-11.64-2.17-17.55-.03-5.01.64-10.42,4.07-14.06.42-.44.92-.88,1.53-.96.94-.12,1.76.59,2.38,1.29,4.2,4.71,6.12,11,7.49,17.16,1.59,7.07,2.62,14.26,3.08,21.49-.23-4.07-.33-7.87,1-12.18,1.06-3.41,3.18-9.44,7.81-8.2,1.23.33,2.25,1.15,3.09,2.27,2.61,3.5,3.56,9.87,4.29,13.13,1.49,6.6,2.11,13.35,2.62,20.08.26,3.49.49,6.99.77,10.48.23,2.79,1.39,6.63.97,9.36.48-3.06.99-6.23,2.69-8.82,1.69-2.6,4.91-4.47,7.88-3.6Z"/>
      <path class="cls-4" d="m486.61,198.07c0,.09-.03.17-.08.24,4.64,8.04,9.38,16.32,13.7,24.72,1.36-12.64,3.55-25.3,6.53-37.65.06-.22.27-.35.5-.3.22.06.35.27.3.5-3.07,12.72-5.3,25.76-6.64,38.79,2.03,3.98,4.04,8,6,12.03-.08.27-.14.41-.15.42-.24-.12-.48-.24-.73-.35-1.84-3.79-3.74-7.57-5.65-11.32-.06,0-.12-.02-.17-.06-10.48-7.31-22.67-12.35-35.24-14.56-.23-.04-.38-.26-.34-.48.04-.22.25-.37.48-.34,12.29,2.17,24.2,7.01,34.54,14.01-4.53-8.83-9.53-17.53-14.4-25.97-4.97-4.64-11.73-7.02-18.8-9.25-7.63-2.4-15.11-4.6-22.86-5.3-.22-.02-.39-.23-.37-.45.03-.23.23-.39.45-.37,7.83.71,15.36,2.93,23.03,5.33,6.37,2,12.48,4.15,17.33,7.93-2.22-3.86-4.48-7.79-6.71-11.76-12.53-12.18-26.7-22.52-42.14-30.73-.2-.11-.27-.35-.16-.55.11-.21.36-.28.55-.18,14.72,7.83,28.29,17.59,40.39,29.03-1.19-2.14-2.36-4.27-3.51-6.41-8.14-15.22-18.22-32.92-31.24-48.89-.14-.17-.12-.44.06-.58.18-.13.44-.12.58.06,13.07,16.03,23.17,33.77,31.33,49.03.86,1.62,1.75,3.23,2.64,4.85-3.32-10.37-11.16-37.41-8.46-54.56.03-.22.25-.37.46-.34.23.04.39.25.35.47-3.28,20.84,9.19,56.57,9.81,58.3,2.45,4.37,4.94,8.69,7.4,12.94.12.22.25.44.38.67-.39-15.9-.68-32.29,3.98-47.85.06-.22.3-.35.51-.28.22.07.34.3.28.51-4.73,15.8-4.32,32.53-3.92,48.71Z"/>
    </g>
    <path class="cls-3" d="m71.45,29.36c-.23-.22-.59-.21-.81.02-.34.34-2.75.83-3.82.89-.64.04-1.28.05-1.9.06-1.48.02-3.02.04-4.6.45-1.54.4-2.99,1.06-4.44,2.03h0c-.83.55-1.59,1.17-2.36,1.84.18-.29.35-.59.53-.88.18-.3.38-.62.56-.92.25.06.51-.05.63-.28.8-1.49,2.01-2.68,3.29-3.95.46-.45.92-.91,1.36-1.38,3.61-3.83,5.64-8.65,6.38-15.18.18-1.58.24-3.19.3-4.75.08-2.19.16-4.45.59-6.61,0,0,0,0,0,0,.06-.31-.13-.61-.45-.68-.31-.06-.61.13-.67.44-.08.22-.75.79-1.06,1.07-.25.21-.47.41-.59.54-.8.86-1.49,1.66-2.11,2.42-1.5,1.85-2.66,3.58-3.55,5.32-.66,1.28-1.1,2.62-1.35,4.11-.24,1.46-.27,2.94-.29,4.37-.02,1.14-.04,2.32-.17,3.46-.26,2.14-.87,4.06-1.52,6.1-.3.95-.59,1.92-.86,2.92-.51.82-1,1.63-1.48,2.42-1.02,1.7-2.02,3.35-3.2,4.99-1.19,1.22-2.33,2.49-3.42,3.8.66-1.6,1.28-3.23,1.68-4.93.81-3.43,1.05-6.5.75-9.38-.18-1.72-.57-3.43-.95-5.08-.51-2.23-1.04-4.55-1.02-6.84,0-.26-.18-.5-.42-.56-.25-.07-.52.05-.65.27-2,3.55-4.27,7.58-4.93,11.97-.45,3.03-.15,6.28.88,9.4.22.66.45,1.29.68,1.92.75,2.03,1.44,3.96,1.39,6.24-2.95,3.13-5.91,6.36-8.78,9.69l.06-.25c.82-3.64.77-7.46-.16-11.03-.62-2.42-1.63-4.71-2.6-6.93l-3.93-8.98c-.1-.23-.34-.36-.58-.34-.25.02-.45.2-.5.45-.71,3.28-1.25,6.63-1.61,9.97-.28,2.62-.4,4.82-.03,7.02.48,2.88,1.8,5.53,2.9,7.52.83,1.51,1.79,3.08,3.1,4.39.3.3.68.64,1.11.81-3.63,4.35-7.1,8.88-10.23,13.6,1.03-3.4,2.05-6.92,1.72-10.64-.33-3.72-1.44-7.27-2.56-10.58-.72-2.14-1.58-4.32-3.5-5.49-.14-.08-.3-.1-.46-.06-.15.05-.28.16-.35.3-2.59,5.39-3.73,10.13-3.5,14.48.2,3.64,1.42,6.61,3.09,9.37-1.88-.3-3.79.24-5.45.85-4.09,1.49-7.91,3.59-11.37,6.24-.18.14-.26.36-.21.58.04.18.17.33.34.4.03.01.06.02.1.03,3.31.7,6.73,1.43,10.19,1.53,2.26.06,4.01-.18,5.5-.78,1.61-.64,2.99-1.72,4.24-2.77-7.48,12.19-12.52,25.66-12.29,40.74,0,.24.15.44.35.52.07.03.15.04.23.04.32,0,.57-.26.56-.58-.17-11.39,2.73-21.86,7.43-31.57.99,1.66,2.22,3.48,3.97,5.1,2.16,2.02,4.53,3.84,7.03,5.42.06.03,4.8,2.72,7.01,3.63.53.22.92.33,1.05.29.17-.06.3-.2.36-.37,1.05-3.22-.88-6.38-2.12-7.98-1.93-2.48-4.52-4.48-7.47-5.78-3.12-1.38-5.96-2.09-8.86-2.26,1.18-2.29,2.45-4.53,3.8-6.73.08,0,.16,0,.25-.02,2.25-.76,4.1-.59,6.24-.39.62.06,1.25.12,1.92.16,2.85.17,5.73-.06,8.57-.68,2.83-.62,5.54-1.62,8.07-2.97,1.24-.66,2.43-1.41,3.56-2.22.17-.13.46-.4.96-.87.52-.49,1.59-1.5,1.92-1.68.25-.03.46-.23.49-.49.05-.31-.18-.6-.48-.65,0,0,0,0,0,0-5.04-.74-10.9-1.44-16.54-.51-3.08.51-5.9,1.49-8.38,2.91-1.45.84-2.7,1.98-3.87,3.19,2.77-4.11,5.8-8.06,8.96-11.88.58.16,1.15.33,1.72.5,1.28.38,2.6.77,3.94,1.06,4.83,1.02,9.58-.77,14.43-2.86,3.22-1.39,6.48-3.01,7.8-6.19.08-.2.05-.43-.09-.59-.14-.16-.36-.24-.57-.18-3.02.74-6.23.72-9.34.7-1.53,0-3.11-.02-4.66.06-3.39.17-6.18.82-8.48,1.96,2.23-2.52,4.5-4.99,6.77-7.39.13-.06.25-.16.31-.3,0-.01.01-.03.02-.04.5-.52.99-1.05,1.48-1.56.55-.31,1.68-.61,2.34-.78.37-.1.7-.18.93-.26,1.72-.58,3.53-.9,5.28-1.21,3.43-.6,6.97-1.23,10.02-3.79,1.52-1.28,2.7-2.89,3.85-4.45.81-1.11,1.65-2.25,2.6-3.25,0,0,.01-.01.02-.02,0,0,0,0,0,0,0,0,0,0,0,0h0c.2-.23.18-.58-.04-.79Zm-38.39,60.96c.83,1.07,2.6,3.71,2.09,6.35-1.57-.72-6.24-3.19-6.87-3.59-2.45-1.55-4.76-3.33-6.86-5.29-1.42-1.32-2.48-2.8-3.37-4.21,3.71,1.45,6.83,4.18,9.83,6.84,1.62,1.43,3.29,2.91,5.05,4.19.03.02.06.04.09.05.18.07.39.02.51-.14.14-.19.1-.46-.1-.6-1.73-1.26-3.39-2.72-4.99-4.14-3.06-2.71-6.24-5.49-10.09-6.99,2.49.24,4.96.9,7.67,2.1,2.78,1.23,5.21,3.11,7.03,5.44ZM58.24,18.29c.02-1.39.05-2.82.28-4.2.23-1.37.63-2.61,1.24-3.78.85-1.66,1.97-3.34,3.42-5.12.6-.74,1.28-1.52,2.06-2.36.1-.11.29-.27.5-.45,0,0,.01,0,.02-.01-.2,1.64-.26,3.29-.31,4.9-.06,1.53-.11,3.12-.29,4.66-.72,6.27-2.65,10.89-6.08,14.53-.43.46-.88.9-1.33,1.35-.08.08-.15.16-.23.23,1.75-2.91,3.09-5.8,3.97-8.62.44-1.4.56-2.85.68-4.27.19-2.18.37-4.24,1.59-6.1.13-.2.08-.46-.12-.59-.19-.13-.46-.08-.59.12-1.34,2.04-1.54,4.3-1.73,6.5-.12,1.37-.24,2.78-.65,4.08-.89,2.84-2.26,5.76-4.06,8.71.6-1.9,1.21-3.87,1.46-6,.14-1.19.16-2.4.18-3.57Zm-15.37,18.17c-.97-2.95-1.26-6.02-.84-8.87.52-3.5,2.16-6.82,3.83-9.85.18,1.73.57,3.43.95,5.09.37,1.62.75,3.29.93,4.95.29,2.75.05,5.7-.72,9-.46,1.93-1.22,3.82-2,5.65.6-3.88.66-7.15.19-10.46-.43-3.03-.71-5.95.53-8.45.1-.21.02-.47-.19-.57-.21-.1-.47-.02-.57.19-1.34,2.72-1.04,5.92-.61,8.95.4,2.79.4,5.56.02,8.72-.25-.82-.54-1.63-.84-2.45-.22-.61-.45-1.23-.67-1.88Zm-13.25,15.08c-1.05-1.91-2.32-4.44-2.78-7.15-.34-2.08-.23-4.18.04-6.71.29-2.7.7-5.41,1.23-8.09l3.21,7.33c.96,2.18,1.94,4.43,2.54,6.76.88,3.4.93,7.02.15,10.49l-.09.43c-.06.3-.15.69-.24,1.03-.2-.95-.37-1.91-.52-2.85-.29-1.79-.59-3.64-1.18-5.44l-.37-1.1c-.8-2.38-1.64-4.83-1.43-7.34.02-.24-.16-.44-.39-.46-.24-.02-.44.16-.46.39-.22,2.68.64,5.23,1.47,7.68l.36,1.09c.57,1.73.86,3.55,1.14,5.3.16,1.01.35,2.05.57,3.09-.1-.08-.21-.18-.34-.31-1.21-1.21-2.12-2.7-2.91-4.14Zm-14.54,7.32c-.21-3.99.8-8.35,3.1-13.31,1.25,1.05,1.92,2.79,2.49,4.5,1.09,3.25,2.18,6.72,2.5,10.32.32,3.65-.7,7.02-1.79,10.6-.02.08-.05.16-.07.23-.99-5.32-1.58-10.75-1.7-16.15,0-.24-.2-.42-.44-.42-.24,0-.42.2-.42.44.13,5.42.71,10.86,1.7,16.2-2.75-3.71-5.11-7.44-5.37-12.41Zm.64,17.22c-1.35.53-2.95.76-5.05.7-2.94-.08-5.88-.64-8.75-1.24,3.09-2.23,6.47-4.01,10.05-5.32,1.7-.62,3.67-1.18,5.46-.67.2.05.26.11.28.13.07.21.25.36.46.39.49.72,1.01,1.43,1.53,2.13-3.78-.47-7.63-.11-11.26,1.09-.22.08-.35.32-.27.54.04.12.13.22.24.26.09.04.2.04.3.01,3.67-1.22,7.57-1.55,11.38-1-1.35,1.15-2.75,2.32-4.39,2.97Zm12.87-7.64c2.36-1.36,5.05-2.29,7.99-2.78,4.97-.82,10.15-.32,14.77.31-.3.27-.68.62-1.13,1.05-.36.34-.73.69-.85.78-1.08.78-2.23,1.5-3.42,2.14-2.44,1.3-5.06,2.26-7.78,2.86-2.74.6-5.52.82-8.26.66-.66-.04-1.28-.1-1.89-.16-1.3-.12-2.55-.23-3.88-.12,5.25-2.35,10.99-3.71,16.72-3.94.24,0,.42-.21.41-.45-.01-.24-.21-.42-.45-.41-5.67.23-11.35,1.54-16.58,3.81,1.33-1.42,2.72-2.82,4.33-3.75Zm17.82-16.05h0c1.52-.08,3.08-.07,4.59-.06,2.77.02,5.62.03,8.4-.48-1.4,2.14-4.03,3.42-6.65,4.55-4.67,2.02-9.24,3.75-13.74,2.79-1.29-.27-2.59-.66-3.85-1.03-.36-.11-.72-.21-1.08-.32,1.24-.81,2.83-.98,4.24-1.05,1.14-.06,2.3-.08,3.46-.1,3.92-.07,7.97-.15,11.63-1.7.22-.09.32-.34.23-.56-.09-.22-.34-.32-.56-.23-3.51,1.49-7.48,1.56-11.31,1.64-1.17.02-2.33.04-3.49.1-.95.05-1.92.15-2.83.39.53-.53,1.07-1.02,1.69-1.41,2.37-1.51,5.4-2.33,9.27-2.53Zm21.54-19.64c-1.15,1.57-2.24,3.06-3.66,4.25-2.82,2.37-6.06,2.94-9.49,3.54-1.79.32-3.65.64-5.45,1.25-.1.03-.23.07-.36.11,1.17-.77,2.5-1.33,3.82-1.87l.45-.18c3.68-1.53,7.29-3.34,10.71-5.39.2-.12.27-.38.15-.59-.12-.2-.38-.27-.59-.15-3.39,2.02-6.95,3.81-10.6,5.33l-.45.19c-1.02.42-2.05.85-3.02,1.38.45-.55.86-1.1,1.25-1.64.34-.35.67-.7,1.01-1.04,1.69-1.67,3.12-3.04,4.78-4.15,1.34-.9,2.68-1.51,4.09-1.87,1.46-.37,2.86-.4,4.34-.42.64-.01,1.29-.02,1.95-.06.23-.01,1.28-.13,2.33-.36-.44.56-.85,1.13-1.26,1.69Z"/>
    <path class="cls-3" d="m215.89,94.12c-4.86,2.14-9.56,4.07-9.63,3.7-.77-4.33-2.11-8.61-3.6-12.76-1.37-3.82-3.97-7.64-2.19-11.81.25-.59.63-1.17,1.21-1.47.77-.39,1.75-.18,2.45.34.7.52,1.17,1.28,1.56,2.06.96,1.9,1.57,3.98,1.79,6.1-.09-3.07-.18-6.14-.02-9.21.07-1.36.2-2.75.83-3.96.54-1.03,1.71-1.94,2.81-1.55.91.32,1.34,1.34,1.62,2.27.7,2.33,1.1,4.76,1.19,7.19-.02-4.03,1.15-8.06,3.33-11.45.83-1.29,1.87-2.55,3.3-3.11,1.46-.58,3.33-.47,4.18,1.09.77,1.41.08,3.82-.27,5.3-1,4.16-3.23,7.98-6.04,11.18,1.8-1.05,3.72-1.87,5.72-2.45,1.25-.36,2.89-.49,3.57.62.41.67.27,1.56-.15,2.22-.42.66-1.07,1.14-1.71,1.58-2.19,1.5-4.49,2.82-6.9,3.94,1.53-.41,3.09-.83,4.68-.79,1.59.03,3.24.58,4.26,1.79.33.4.6.87.65,1.39.13,1.26-.99,2.29-2.09,2.93-.84.48-5.77,2.77-10.54,4.87Z"/>
    <path class="cls-3" d="m418.65,202.57c5.3.32,10.38.51,10.31.13-.78-4.32-1.01-8.8-1.04-13.22-.03-4.06,1.08-8.54-2.04-11.84-.44-.47-1-.88-1.64-.96-.86-.1-1.71.44-2.18,1.17-.48.73-.65,1.61-.75,2.47-.24,2.12-.09,4.28.43,6.35-.98-2.91-1.96-5.82-3.17-8.65-.54-1.25-1.14-2.51-2.15-3.42-.87-.78-2.27-1.23-3.17-.48-.74.61-.79,1.72-.73,2.68.16,2.43.62,4.84,1.38,7.16-1.38-3.79-3.87-7.16-7.08-9.58-1.23-.93-2.64-1.74-4.18-1.78-1.57-.03-3.29.71-3.55,2.47-.24,1.59,1.25,3.61,2.09,4.87,2.38,3.56,5.79,6.36,9.53,8.39-2.05-.36-4.14-.47-6.21-.32-1.3.09-2.88.54-3.13,1.82-.15.77.29,1.56.91,2.03.62.47,1.4.69,2.15.89,2.57.65,5.19,1.09,7.83,1.31-1.58.14-3.19.3-4.67.88-1.48.58-2.84,1.66-3.38,3.16-.18.49-.26,1.03-.13,1.53.32,1.23,1.72,1.81,2.97,2.02.95.16,6.37.6,11.58.92Z"/>
    <g>
      <path class="cls-3" d="m355.56,85.78c-.55-.61-1.29-.95-2.13-1-.82-.04-1.61.24-2.22.8-1.26,1.14-1.35,3.09-.21,4.35.53.58,1.25.94,2.03,1,.03,0,.07,0,.1,0,.82.04,1.61-.24,2.22-.8.61-.55.97-1.31,1-2.13.04-.82-.24-1.61-.8-2.22Z"/>
      <path class="cls-3" d="m368.59,87.4c-.55-.61-1.3-.96-2.13-1-.82-.04-1.61.24-2.22.8-1.26,1.14-1.35,3.1-.21,4.35.53.58,1.25.94,2.03,1,.03,0,.07,0,.1,0,.82.04,1.61-.24,2.22-.8.61-.55.97-1.31,1-2.13.04-.82-.24-1.61-.8-2.22Z"/>
      <path class="cls-3" d="m358.45,96.49c-.82-.04-1.61.24-2.22.8-1.26,1.14-1.35,3.09-.21,4.35.53.58,1.25.94,2.03,1,.03,0,.07,0,.1,0,.82.04,1.61-.24,2.22-.8.61-.55.96-1.31,1-2.13.04-.82-.24-1.61-.8-2.22-.55-.61-1.3-.95-2.13-1Z"/>
    </g>
    <g>
      <path class="cls-3" d="m71.93,169.1c-.82,0-1.58.3-2.18.89-.59.58-.91,1.35-.92,2.17-.01,1.7,1.36,3.09,3.06,3.1.79,0,1.53-.28,2.11-.82.02-.02.05-.05.07-.07.59-.58.91-1.35.92-2.17,0-.82-.31-1.6-.89-2.18-.58-.59-1.35-.91-2.17-.92Z"/>
      <path class="cls-3" d="m81.96,160.62c-.82,0-1.59.3-2.18.89-.59.58-.91,1.35-.92,2.17-.01,1.7,1.36,3.09,3.06,3.1.79,0,1.53-.28,2.11-.82.02-.02.05-.05.07-.07.59-.58.91-1.35.92-2.17,0-.82-.31-1.6-.89-2.18s-1.35-.91-2.17-.92Z"/>
      <path class="cls-3" d="m81.76,174.23c-.59.58-.91,1.35-.92,2.17-.01,1.7,1.36,3.09,3.06,3.1.79,0,1.53-.28,2.11-.82.02-.02.05-.05.07-.07.59-.58.91-1.35.92-2.17,0-.82-.31-1.6-.89-2.18-.58-.59-1.35-.91-2.17-.92-.82,0-1.58.31-2.18.89Z"/>
    </g>
  </g>
</svg>