<svg xmlns="http://www.w3.org/2000/svg" viewBox="0 0 577.66 805.67" fill="#fff" xmlns:v="https://vecta.io/nano"><path d="M135.68 216.27c-.26-1.92.81-3.31 2.11-4.6 4.45-4.38 9.92-6.28 16.06-6.26 6.24.02 12.11 1.32 16.68 6.02 1.01 1.03 1.83 2.24 2.72 3.38.55.7 1.07 1.41 1.71 2.26 3.4-4.6 7.47-8.14 12.12-11.02 2.57-1.59 5.31-2.75 8.3-3.28 4.34-.78 8.4-.07 11.76 2.85 2.52 2.19 4.83 4.65 7.07 7.14 1.33 1.47 1.57 2.67-.23 4.17-1.38 1.15-2.39 2.72-3.62 4.05-5.62 6.13-12.62 8.47-20.69 6.76-4.05-.86-7.92-2.56-11.84-3.96-.95-.34-1.99-.75-2.6-2.44l3.33 1.02c3.52 1.2 6.96 2.68 10.56 3.57 8.01 1.96 14.87-.23 20.4-6.41l4.16-4.63c-2.98-3.48-5.7-6.97-9.65-9.22-2.47-1.41-5.15-1.63-7.92-1.27-3.88.51-7.33 2.13-10.41 4.42-2.54 1.89-4.92 4.02-7.29 6.13-1.5 1.34-2.78 2.83-2.67 5.11.03.56-.57 1.31-1.08 1.7-9.92 7.57-24.56 8.88-35.18.61-1.18-.92-2.16-2.1-3.04-3.43 5.67 4.55 11.85 7.51 19.25 7.57 7.25.07 13.46-2.53 19.11-6.83-2.96.48-5.55 2.22-8.74 2.05l7.37-3.09c-1.21-.91-1.87-1.39-3.31-.86-3.91 1.43-7.95 2.51-11.94 3.71-.32.1-.68.09-1.68.2 1.38-1.53 2.78-1.76 4.02-2.24 1.44-.56 2.91-1.03 4.38-1.47 1.38-.41 2.78-.72 4.2-1.28-3.32-1.42-6.85-1.9-10.4-2.2-3.6-.3-7.2-.46-11.06-.7 1.59-1.07 2.59-1.23 7.44-1.03 2.53.11 5.05.4 8.25.67-.85-.63-1.12-.92-1.46-1.06l-10.83-4.39c-.69-.26-1.61-.13-2.37.05-4.74 1.12-8.77 3.4-11.61 7.48-.25.35-.54.67-.82 1.01l-.57-.27zm18.67-8.76c.05.34.03.49.08.51l1.74.72c4.02 1.58 8.23 2.72 11.67 5.56.67.56 1.77 1.09 3.04.59-4.32-5.47-10.01-7.22-16.53-7.39zm43.77 15.13c-.61-.03-1.23.03-1.82-.1l-13.74-3.15c-.49-.11-1.04-.02-1.55.09-.79.17-1.56.43-2.34.63-.06.02-.15-.07-.46-.23l.93-1.07c.19-.18.46-.29.72-.38 5.97-2.12 10.35-6.56 15.16-10.39.71-.57 1.32-1.43 2.7-.95l-7.58 6.5c2.78.45 4.15-1.64 6.06-2.66 1.93-1.03 3.67-2.41 5.49-3.63l.47.56c-.8.75-1.57 1.55-2.42 2.25-.9.75-1.88 1.41-3.03 2.27 1.87.52 3.23-.17 4.59-.98s2.75-1.56 4.13-2.33l.48.5-1.41 2.15c1.92.65 4.19-.04 6.24 1.63-2.67.96-5.22 0-8.07.91l4.53 1.7c-2.17.57-3.96-.18-5.77-.94-.64-.27-1.38-.64-2-.54-5.29.82-10.44 2.14-15.95 4.22 2.78 1.16 5.28 1.22 7.67 1.76 2.35.53 4.72.95 7.08 1.41l-.12.77zm-8.28-5c4.94-.14 9.64 1.14 14.9 2.43-2.76.9-12.78-.72-14.9-2.43zm-43.54 2.94c3.72-2.38 7.89-3.67 11.98-5.15.09.17.19.34.28.51-.45.26-.9.54-1.36.78-2.19 1.12-4.75 1.31-6.63 3.3-.82.87-2.64.78-4.01 1.13l-.25-.57zm34.72-.14c2.31 0 9.52 1.92 11.45 3.05-2.62.67-9-1.03-11.45-3.05zm-37.79-.69c2.39-1.55 4.95-2.6 7.76-3.02-2.37 1.57-4.92 2.68-7.76 3.02zm182.7 446.8c-1.36-1.39-1.33-3.14-1.05-4.95.96-6.17 4.21-10.96 9.15-14.61 5.02-3.71 10.5-6.17 16.97-5.13 1.42.23 2.81.71 4.21 1.09.85.23 1.7.49 2.72.79-.02-5.72 1.13-10.99 3.14-16.08 1.11-2.81 2.62-5.38 4.7-7.59 3.02-3.21 6.69-5.07 11.14-4.73 3.33.26 6.65.85 9.93 1.5 1.94.38 2.85 1.2 2.3 3.48-.42 1.74-.29 3.61-.48 5.41-.85 8.27-5.07 14.33-12.56 17.77-3.76 1.73-7.88 2.67-11.87 3.89-.96.29-2.05.58-3.55-.41l3.28-1.17c3.54-1.14 7.19-2 10.6-3.44 7.6-3.21 11.79-9.06 12.54-17.32l.58-6.2c-4.47-1.01-8.74-2.19-13.24-1.64-2.82.34-5.11 1.76-7.11 3.71-2.81 2.73-4.61 6.08-5.71 9.76-.91 3.03-1.55 6.16-2.19 9.27-.4 1.97-.54 3.93.9 5.69.35.43.33 1.39.15 2.01-3.44 12-14.4 21.78-27.86 21.49-1.49-.03-2.98-.4-4.48-.94 7.27.27 13.99-1.05 19.96-5.41 5.85-4.27 9.29-10.06 11.25-16.89-2.08 2.15-3.13 5.09-5.79 6.86l4.06-6.88c-1.52 0-2.33 0-3.17 1.29-2.28 3.48-4.88 6.76-7.37 10.11-.2.27-.49.48-1.23 1.17.19-2.05 1.18-3.08 1.88-4.2.82-1.3 1.72-2.56 2.64-3.79.86-1.15 1.8-2.23 2.61-3.53-3.51.85-6.63 2.56-9.65 4.45-3.06 1.91-6.05 3.93-9.29 6.04.64-1.8 1.34-2.54 5.35-5.27 2.09-1.43 4.3-2.69 7.02-4.39-1.05 0-1.45-.07-1.8.02l-11.31 2.94c-.71.2-1.37.85-1.87 1.45-3.14 3.73-5.01 7.96-4.85 12.94.01.43-.03.86-.05 1.29a13.67 13.67 0 0 0-.62.13zm9.75-18.18c.24.25.32.37.37.36a61.19 61.19 0 0 0 1.83-.46c4.17-1.13 8.22-2.73 12.69-2.51.87.04 2.07-.19 2.79-1.34-6.73-1.81-12.34.19-17.67 3.94zm44.15-13.99c-.5.34-.97.76-1.52 1l-12.9 5.68c-.46.2-.85.61-1.19.99-.53.6-.99 1.27-1.5 1.9-.04.05-.16.03-.51.09l.11-1.41c.05-.26.2-.51.35-.73 3.52-5.27 4.39-11.45 5.96-17.38.23-.88.21-1.93 1.6-2.38l-2.2 9.74c2.5-1.29 2.35-3.8 3.27-5.75.93-1.98 1.5-4.12 2.24-6.19l.71.17c-.19 1.08-.34 2.18-.59 3.25-.28 1.14-.66 2.25-1.08 3.62 1.81-.7 2.49-2.06 3.09-3.53.6-1.46 1.28-2.89 1.92-4.34.23.04.45.08.68.11l.15 2.57c1.93-.63 3.34-2.53 5.98-2.42-1.57 2.36-4.19 3.12-5.93 5.55l4.66-1.34c-1.4 1.75-3.29 2.22-5.19 2.69-.67.17-1.49.31-1.93.76-3.75 3.81-7.1 7.95-10.28 12.91 2.92-.73 4.97-2.17 7.2-3.17 2.2-.98 4.35-2.06 6.53-3.09l.37.69zm-9.63.93c3.88-3.06 8.41-4.84 13.41-6.95-1.68 2.37-10.68 7.05-13.41 6.95zm-33.17 28.36c1.56-4.13 4.13-7.65 6.54-11.28l.53.24c-.21.48-.4.97-.63 1.44-1.08 2.2-3.03 3.89-3.35 6.61-.14 1.18-1.65 2.21-2.54 3.3l-.54-.31zm27.77-20.84c1.86-1.37 8.79-4.14 11.01-4.39-1.71 2.1-7.84 4.55-11.01 4.39zm-30.74 22c.99-2.67 2.42-5.05 4.42-7.05-.96 2.67-2.35 5.09-4.42 7.05zM138.29 122.39l-1.55-5.61c0-.03.13-.1.34-.27.23.1.63.15.82.37 2.98 3.45 4.42 7.36 2.79 11.82-2.41 6.61-7.59 10.74-13.66 13.56-3.76 1.75-7.42 1.04-10.6-2.34-1.65-1.76-2.62-3.45-2.6-5.67.03-3.05.31-6.1.5-9.3-1.82 1.99-2.87 4.6-4.3 7.07-1.07-.86-.46-1.52-.22-2.09 3.24-7.61 8.77-13.09 16.17-16.54 2.59-1.21 4.13-2.71 5.28-5.31 1.42-3.2 3.24-6.32 5.39-9.08 5.12-6.57 14.68-7.62 21.4-2.66 2.46 1.82 4.11 3.81 6.25 7.62l1.67-2.8c.58 1.67 1.08 2.8 1.37 3.97 1.33 5.36 2.77 10.73 2.63 16.31a44.54 44.54 0 0 1-.79 7.28c-1.13 5.82-3.19 11.34-5.92 16.6-1.09 2.09-1.25 2.06-4.01 1.36l3.89-5.04c-2.03.99-2.95 3.21-5.59 4.04.31-.78.4-1.27.67-1.61l6.26-7.85c.47-.62.66-1.47.91-2.24 3.01-9.47 2.93-18.9-.48-28.57.07 3.07.79 5.92-.93 8.65-.02-.62-.14-1.25-.06-1.86.79-6.37-2.23-10.83-7.25-14.18-3.95-2.64-8.39-2.86-12.82-1.64-1.49.41-2.98 1.46-4.06 2.6-2.66 2.81-5.3 5.67-6.79 9.38-.69 1.72-1.81 3.28-2.82 5.05 1.78.56 4.23-.05 6.16 1.94-.68.2-1.12.41-1.58.46-2.08.18-4.17.25-6.24.48-3.23.36-5.81 1.89-7.75 4.53-.68.94-1.61 1.69-2.31 2.62-.47.63-.88 1.37-1.08 2.13-.8 3-1.14 6.08-.68 9.16.69 4.6 3.05 6.08 6.97 5.73 1.35-.12 2.72-.31 4.02-.68 1.44-.41 2.74-.91 3.64-2.49.92-1.6 2.65-2.71 3.88-4.16 1.96-2.31 3.63-4.82 3.65-8 0-.94-.38-1.88-.58-2.83l.05.08zm-29.8 12.44l.08 2.93c.14 4.36.36 8.74 1.87 12.87.67 1.82 1.82 3.53 3.05 5.06 1.15 1.43 2.71 2.35 4.78 1.79.76-.21 1.62-.02 2.44 0 3.76.11 7.42-.51 10.97-1.72.88-.3 1.93-.43 2.07-1.77.04-.33.8-.65 1.27-.86 6.68-2.97 11.73-7.8 15.85-13.72.52-.74 1.1-1.43 1.68-2.13.09-.11.32-.1.89-.27-.48 2.54-2.8 3.96-3.03 6.03.47.69 1.23 1.28 1.19 1.82-.15 1.89-2.59 4.41-4.91 5.19l-.05-2.18-4.71 3.64c-.29.22-.8.44-.81.67-.07 2.18-1.96 2.41-3.33 3.07-2.04.98-4.13 1.89-6.28 2.58-2.04.65-4.19.99-6.29 1.46.09.13.18.39.27.38l12.62-.61c1.27-.07 2.4-.37 3.41-1.39.84-.85 1.97-2.1 3.47-.72.13.12.55.03.76-.09l5.75-3.42-.15-.58-2.11-.4c-.38-1.06 3.94-5.35 6.38-6l-1.33 3.49c1.53-1.41 2.88-1.39 4.43-.47-.3.44-.51.92-.86 1.26-6.78 6.49-14.51 10.86-24.23 10.71-4.52 1.34-9 .41-13.44-.38-4.66-.83-8.61-2.89-10.77-7.41-.47-.98-.92-1.99-1.17-3.04-1.08-4.53-1.5-9.13-1.15-13.78.05-.72.35-1.42.54-2.13l.85.11zm44.3 11.13c-.14-1.11-.36-1.65-.22-2.08.37-1.17 4.68-6.28 6.06-7.19.08.7.36 1.32.18 1.76-1.2 2.86-2.91 5.34-6.02 7.51zm5.53-18.8c-1.22-.82-.79-1.74-.57-2.57.69-2.55 4.03-8.34 5.45-9.3-.05 2.41-1.54 4.09-2.33 6.02-.78 1.91-1.65 3.79-2.55 5.84z"/><path d="M138.24 122.31c.03 1.28.05 2.48-1.2 3.4-.46.33-.44 1.29-.68 1.95-.35.98-.58 2.09-2.43 2.21.66-2.33.15-4.74 2.65-6.31l.18-2.81.46-.08 1.07 1.72-.05-.07zm24.15 4.75c.15 2.81-1.71 6.36-4.07 7.75-.9-.48-.56-1.16-.28-1.82 1.28-3.03 3.08-5.48 4.35-5.93zm-16 25.07c-.63 2.37-4.37 4.76-6.63 4.23.94-2.23 4.36-4.41 6.63-4.23zm13.84-14.74c.22-2.57 2.58-6.87 4.19-7.91.53 2.23-1.37 5.97-4.19 7.91zm5.48-22.3c1.15 1.37.67 2.44.36 3.18-.85 1.98.71 4.59-1.77 6.28-.26-.51-.75-1.01-.66-1.39l2.08-8.07zm-38.05 19.12c.98-1.79 2.68-2.59 4.37-3.34.17-.07.96.61.93.88-.18 1.48-3.44 3-5.3 2.46zm5.32-9.21v-4.46c1.55 1.59 1.59 2.37 0 4.46zm-2.31.66c.1 1.53.03 2.61-1.5 3.32-.32-1.49.05-2.44 1.5-3.32zm112.08 7.79l1.44 2.11-3.63 2.3c.35.83 1.21.61 1.71.25 1.08-.78 2.02-1.77 3.02-2.66 1.14-1.02 1.03-2.29 1.08-3.7.19-5.12-2.31-8.6-6.3-11.33-.65-.45-1.26-.96-1.77-1.82.44.03.96-.08 1.29.12 5.07 2.98 8.78 6.8 8.04 13.3-.04.36-.13.77 0 1.07.69 1.65.1 2.97-.94 4.23-1.21 1.47-2.71 2.4-4.63 2.55-.53.04-1.06 0-1.96.01.26.89.25 1.82.71 2.27 1.92 1.85 1.45 3.76.31 5.68a10.52 10.52 0 0 1-2.06 2.49c-.5.44-1.41.88-1.95.71-2.63-.81-5.32-1.56-6.89-4.24-1.47-2.5-2.02-5.01-.84-7.75.02-.06.15-.07.37-.17.72.69.41 1.66.44 2.46.13 2.75 1.47 4.84 3.49 6.52 2.25 1.87 5.7 1.13 6.88-1.54.32-.73.44-2.11 0-2.53-2.33-2.28-2.48-5.12-2.45-8.27l4.72-2.01-.08-.07zm-15.17-4.69c3.03 2.13 5.15 4.72 4.44 8.74-.07.42-.25.83-.38 1.24l-3.31-1.12c-2-.49-3.57-1.62-5.15-2.87-3.42-2.71-2.93-7.09-.91-9.94 1.63-2.3 3.62-4.33 6.26-5.5 1.35-.6 2.78-1.3 4.91-.08-4.82.83-7.54 3.74-9.99 6.99-1.89 2.52-1.43 4.73 1.29 6.56l2.29 1.94c.72 1.28 1.84 1.81 3.34 1.92.12-2.05.24-3.85-1.8-5.09-.88-.54-1.5-1.61-.85-2.83l-.14.04z"/><path d="M227.02 134.71l-2.29-1.94c-.08-.65-1.13-1.2.19-1.97 1.3-.76-.32-1.59-.43-2.49.61-1.27 1.8-1.73 3.09-1.78 1.53-.06 3.12-.14 4.59.22 3.9.95 7.47 2.73 10.87 4.85.3.19.68.4.79.69.35.97-.07 1.36-1.07 1.16 0 0 .08.07.08.06-.39-.54-.67-1.25-1.18-1.58-2.37-1.52-4.95-2.52-8.04-3.05l.6 2.3c1.29.48 2.82-.4 3.61 1.34-1.49.96-3.13.28-4.84.62-.2-1.88-.77-3.67-2.28-4.6-.72-.45-2.06.11-3.12.21l.14-.04-1.92.23 2.83 4.12c-.23.83-.39 1.74-1.6 1.65zm10.52 463.6l-2.34 1.02-1.58-3.99c-.88.19-.82 1.07-.56 1.64.56 1.21 1.36 2.31 2.05 3.47.78 1.31 2.05 1.44 3.43 1.75 4.99 1.15 8.88-.65 12.31-4.06.56-.56 1.17-1.06 2.12-1.4-.12.42-.1.95-.36 1.25-3.88 4.42-8.33 7.34-14.57 5.4-.34-.11-.73-.27-1.05-.21-1.75.36-2.93-.46-3.98-1.72-1.22-1.47-1.85-3.11-1.63-5.03.06-.52.19-1.04.36-1.93-.92.09-1.84-.1-2.36.27-2.18 1.54-3.97.72-5.63-.76a10.48 10.48 0 0 1-2.06-2.49c-.34-.57-.6-1.55-.33-2.05 1.29-2.44 2.53-4.93 5.45-5.97 2.73-.98 5.3-1.04 7.77.63.05.04.04.16.1.4-.82.58-1.7.09-2.5-.03-2.73-.39-5.03.54-7.06 2.2-2.26 1.86-2.17 5.39.22 7.05.66.46 1.99.82 2.48.48 2.67-1.86 5.49-1.47 8.58-.85l1.09 5.01.08-.07zm7.45-14.03c-2.66 2.57-5.6 4.17-9.42 2.72-.4-.15-.76-.4-1.15-.61l1.72-3.04c.85-1.87 2.26-3.2 3.79-4.52 3.31-2.85 7.51-1.55 9.94.97 1.96 2.04 3.57 4.36 4.23 7.18.33 1.44.75 2.97-.84 4.84.09-4.89-2.26-8.11-4.99-11.13-2.12-2.33-4.38-2.3-6.69.04l-2.34 1.88c-1.39.47-2.13 1.47-2.51 2.92 1.99.5 3.74.96 5.33-.81.69-.77 1.86-1.17 2.94-.31v-.14z"/><path d="M239.24 582.61l2.34-1.88c.66.04 1.39-.89 1.9.56.5 1.42 1.62-.02 2.53.04 1.14.83 1.36 2.09 1.17 3.37-.23 1.51-.45 3.09-1.08 4.46-1.67 3.65-4.08 6.83-6.8 9.77-.24.26-.52.59-.83.64-1.02.17-1.32-.32-.94-1.27l-.08.07c.6-.28 1.35-.42 1.78-.87 1.94-2.04 3.4-4.39 4.5-7.33l-2.37.16c-.71 1.17-.14 2.84-1.99 3.29-.66-1.64.31-3.12.3-4.88 1.89.16 3.75-.07 4.95-1.38.57-.62.28-2.04.38-3.1l.01.14.13-1.93-4.58 2.01c-.77-.38-1.64-.71-1.32-1.88zM29.78 270.82c-1.07-1.02-2.3-.68-3.47-.33-7.56 2.24-13.4-.42-18.12-6.32-.38-.47-.87-.87-1.34-1.26-4.02-3.33-5.91-7.79-6.7-12.78-.64-4 .81-5.98 4.77-6.8 2.43-.5 4.86-.73 7.3 0 1.18.35 2.17.22 2.85-1.05 2.08-3.81 5.59-4.47 9.49-4.1 1.19.12 2.37.42 3.81.69-.75-2.31-1.53-4.14-3.52-5.43-2.72-1.78-4.42-4.55-5.83-7.39-1.15-2.33-.05-4.99 2.45-5.73 1.8-.54 3.91-.84 5.7-.44 3.05.68 5.96 1.99 9.31 3.16-.21.12.1.02.29-.18 3.01-3.14 4.62-3.69 8.36-1.71 3.05 1.62 5.94 3.66 8.55 5.92 1.37 1.19 2.38 3.16 2.82 4.96.72 2.96 2.53 4.59 5.13 5.64 2.28.92 4.59 1.79 6.89 2.66 3.23 1.21 5.41 3.47 5.99 6.85.82 4.84 1.44 9.72 1.91 14.6.11 1.18-.46 2.6-1.14 3.63-.76 1.14-.59 2.02-.17 3.13.79 2.11 1.51 4.24 2.14 6.4.22.75.28 1.66.06 2.4-.16.54-.89.9-1.37 1.34-.35-.52-.88-.99-1.03-1.57-.53-2.07-.88-4.19-1.39-6.27-.29-1.2-1.05-1.02-2.05-.27.47.72.87 1.53 1.44 2.17 1.06 1.18 1.14 2.55 1.14 4.02 0 1.24-.51 1.78-1.74 2.06-4.01.9-4.01.99-7.62-1.13-1.67-.98-3.25-2.11-5-3.25-2.15 1.31-4.27 2.68-6.48 3.92-.97.54-2.1.81-3.15 1.2-3.77 1.39-7 .37-9.98-2.12-2.12-1.78-4.28-3.52-6.56-5.07-1.13-.77-2.57-1.09-3.86-1.62l.13.08zm38.39 5.57l.6.3c1.28 1.27 2.11.38 3.25-.8l-8.01-11.23c.1-1.06.54-2.09.2-2.72-1.88-3.51-3.81-7.01-6-10.32-1.5-2.27-3.92-3.24-6.69-3-2.55.22-5.1.44-7.63.8-3.61.51-6.74-.34-9.16-3.12-2.87-3.3-6.67-4.72-10.78-5.33-2.48-.37-4.91.13-6.49 2.52-1.79 2.71-2.7 3.15-5.89 2.3-2.29-.6-4.47-.41-6.67.15-2.01.52-2.61 1.26-2.3 3.32.67 4.45 2.15 8.55 5.82 11.51.71.57 1.45 1.19 1.94 1.93 3.23 4.88 8.87 7.24 14.31 5.49 3.58-1.15 6.69-.48 9.62 1.5 2.29 1.55 4.51 3.21 6.63 4.99 4.38 3.67 7.59 3.68 12.41.32 2.21-1.54 4.8-2.54 7.25-3.8 1.98 2.76 4.78 3.97 7.58 5.18zm-24.44-41.87l.63-.63c.5.25 1.18.37 1.46.78 1.88 2.66 3.83 5.3 5.44 8.13.91 1.6 1.84 2.73 3.64 3.41 1.76.67 3.67 1.65 4.84 3.05 3.07 3.69 5.88 7.62 8.58 11.6 1.01 1.49 1.42 3.38 2.08 5.1.06.16-.03.39-.06.63l-1.49.81 1.51 1.59c2.09-3.06 3.63-6.19 3.5-9.6-.15-3.76-.97-7.51-1.64-11.24-.52-2.86-2.35-4.7-5.05-5.71-2.21-.83-4.43-1.64-6.58-2.61-3.13-1.41-5.44-3.54-6.25-7.1-.31-1.35-.84-2.97-1.82-3.79-2.82-2.35-5.83-4.51-8.94-6.44-1.84-1.15-3.79-1.13-5.45.93-1.38 1.71-1.98 1.52-4.01.68-2.35-.98-4.76-1.91-7.23-2.53-1.32-.33-2.87-.18-4.23.14-2.49.58-3.3 2.19-1.91 4.34 1.25 1.93 2.94 3.65 4.73 5.11 1.76 1.43 3.52 2.63 4.28 4.96.82 2.52 1.9 4.93 4.68 6.09.88.36 1.56 1.32 2.2 2.11 1.49 1.83 3.46 2.59 5.7 2.41 2.63-.2 5.25-.66 8.34-1.07l-5.4-4.38c-6.23 2.05-6.38 2.05-7.81.14 1.36-1.44 3.92-.06 5.17-2.17-1.61-1.23-3.22-2.33-4.67-3.61-1.32-1.17-3.43-1.61-4.02-4.26l3.59 1.69c-.13-1.78-2.19-2.61-1.76-4.53 1.94 1.04 2.97 1.81 4.44 4.91 1.46 3.08 4.07 4.65 6.92 6.19l-3.44-5.12zm35.5 43.96c.3-.52.48-1.31.93-1.52 2.11-1 4.22-2.39 6.45-2.65 9.13-1.06 18.4 2.68 21.92 13.72.89 2.8 1.4 5.8 1.6 8.74.35 5.11-2.19 9.24-5.21 13.1-.2.26-.68.31-1.42.63.16-.89.19-1.43.36-1.92.94-2.71 2.27-5.33 2.79-8.12 1.27-6.81-.34-13.14-4.99-18.28-4.32-4.77-10.12-5.91-16.33-5.04-1.09.15-2.13.71-3.19 1.06-.83.28-1.66.54-2.49.8l-.42-.51zm21.98 57.75l1.73-.36-.54-2.1c.29-.17.53-.4.62-.35 4.96 2.87 10.38 4.93 15.02 8.45-3.38.52-5.76-1.84-8.92-3 2.24 3.55 5.24 5.91 8.52 8.01l-.2.69c-.57.17-1.29.66-1.69.47-1.64-.78-3.31-1.6-4.74-2.71-1.27-.98-2.24-2.36-3.49-3.73-1.16 2.73.82 6.09-2.36 8.64-.33-2.75-.34-5.15-.97-7.38-.63-2.22-1.89-4.27-2.98-6.63zm-40.88-15.98c-3.12-1.95-5.42-4.72-7.14-7.99-2.69-5.12-2.28-10.28-.08-15.42 2.54-5.95 7.03-10.25 12.07-14.05.12-.09.38-.01.72-.01.34 1.15-.68 1.54-1.27 2.08-3.5 3.2-6.66 6.65-8.79 10.96-3.67 7.42-2.93 14.25 2.42 20.57.9 1.06 1.83 2.09 2.75 3.13-.22.25-.45.49-.67.74zm39.42 14.05l-.93-1.25-1.44-1.6c-3.68-3.87-7.99-6.33-13.51-6.3-3.03.01-6.02-.42-8.98.98-2.64 1.25-5.41.92-7.93-.74l-5.07-3.21c1.04.02 1.59-.05 2.1.05.49.1.98.33 1.42.57 4.38 2.43 8.85 1.83 13.37.48.96-.29 2.02-.36 3.03-.36 6.26.03 12 1.55 16.56 6.13.85.85 1.54 1.91 2.12 2.96.22.4-.06 1.07-.11 1.62l-.64.67zm3.03-22.58c-.25.84-.38 1.71-.75 2.45-3.09 6.18-.4 11.15 3.31 15.9.56.72 1.33 1.28 1.94 1.97.38.43.63.96 1.2 1.86-.95-.05-1.61.12-1.96-.14-1.39-1.04-2.92-2.02-3.95-3.37-1.67-2.18-3.21-4.53-4.4-7-1.6-3.33.53-9.76 3.65-11.85.12-.08.38.06.97.17zm-8.63-.44l1.19-5.25c2.07-.43 1.59-2.52 2.29-3.96 1.12 1.7.94 2.49.52 5.46-.33 2.3-2.15 2.81-4.01 3.75zm7.12-16.34c.7 2.23.81 4.44-.05 6.87-.94-1.89-.95-4.54.05-6.87zm-15.49 20.79l2.02-3.22.67.39c.2 1.9-.92 3.19-2.68 4.84l.04-2.11-.05.1z"/><path d="M29.65 270.74c.19.55.53 1.1.53 1.65 0 .36-.43.92-.78 1.03s-1.03-.11-1.21-.4c-.19-.32-.15-1.04.1-1.32.35-.41.98-.6 1.49-.88l-.13-.08zm61.7 41.7l.37-3.37c1.51 1.27.82 2.35.46 3.46l-.84-.08zm-5.51 3.19l-2.33.6q1.33-2.15 2.28-.5l.05-.1zm-17.67-39.24c-.99-1.15-1.84-2.46-2.99-3.42-2.9-2.45-5.93-4.74-8.79-7.01-4.93.97-9.45 3.08-14.44 2.63 1.48-1.87 3.73-1.69 5.65-2.3s3.9-1.03 6.09-1.6l-2.19-2.82.41-.56 5.23 2.22-4.17-10.86c1.45-.73 1.9.04 2.35.71 2.07 3.12 3.58 6.48 3.99 10.21.16 1.38.75 2.18 1.8 2.96 2.39 1.77 4.7 3.65 6.99 5.54.7.58 1.35 1.28 1.86 2.04.84 1.25.6 1.69-1.2 2.55l-.6-.3zm-35.21-19.74C27.7 254.07 22 253 16.25 250.87c1.96-2.05 3.63-.11 5.1-.92-.65-1.97-3.25-2.77-3.4-5.63.96.39 1.67.5 2.12.9 1.22 1.09 2.62 2.14 3.4 3.52 1.37 2.42 3.49 3.27 5.95 3.79.76.16 1.51.34 2.46.56l-6.89-7.94c-.09-.11.18-.53.29-.84 1.42-.48 2.1.59 2.86 1.34 3.05 3.01 5.89 6.25 9.15 8.99 1.46 1.23 3.72 1.5 5.76 2.25.14-2.3-2.91-3.03-1.94-5.7 4.79 1.83 5.84 7.1 9.64 9.59-.07.19-.13.39-.2.58-.95-.11-1.92-.16-2.85-.35-.69-.14-1.34-.48-2.02-.73-4.01-1.51-7.83-2.48-12.4-1.37-4.59 1.11-9.58.58-14.39.71-.52.01-1.05-.34-1.93-.65 2.68-2.09 5.54-1.61 8.17-1.9 2.59-.29 5.22-.3 7.83-.43zm-.98-196.21c1.25-2.29 4.11-2.8 6.18-4.7l-4.6.42c1.58-2.23 5.84-2.67 7.61-.78.79.85 1.52 1.99 1.73 3.11.99 5.13 3.88 9.04 7.66 12.38 3.47 3.06 6.62 6.57 10.96 8.52 2.01 3.69 6.19 5.69 7.53 9.95 1.04 3.3.98 6.33-.89 9.28-1.13 1.79-1.92 3.88-3.36 5.37-4.8 4.98-10.03 9.29-17.34 10.19-3.83.47-7.38-.11-11.08-1-4.42-1.06-7.99-3.2-11.04-6.41-.21-.22-.43-.5-.69-.58-5.45-1.52-6.79-6.25-8.08-10.76-1.45-5.04.46-9.58 3.22-13.73 2.03-3.05 4.46-5.77 7.99-7.2l5.81-2.38c2.55-.96 2.44-2.25 1.8-4.06-.9-2.54-2.2-4.94-3.42-7.62zm10.07 50.34c-2.19-7.98-2.57-13.89-.7-16.87l.49 7.61c.15 3.07.89 5.99 2.19 8.77 1.07 2.27 3.11 2.92 5.15 1.39 1.41-1.06 2.74-2.43 3.63-3.94 1.94-3.31 2.48-7.03 2.27-10.83-.39-7.2-3.23-13.5-7.27-19.32-4.14-5.96-8.58-11.74-9.73-19.44l-3.73 2.35c1.06 1.83 2.25 3.39 2.91 5.15.58 1.54 1.11 3.43.74 4.94-.93 3.81-2.36 7.51-3.65 11.23-.15.45-.67.77-1.02 1.14-.18-.09-.36-.17-.54-.26l2-5.97q-2.86 2.31-5.08 2.85l1.34-3.74c-1.88.85-3.67 1.22-4.85 2.28-2.96 2.64-5.28 5.84-6.7 9.62-1.36 3.65-1.16 7.15 1.02 10.9-.71-7.7.55-12.45 3.99-14.26l-.89 3.08c-1.15 3.65-1.39 7.34-.46 11.07.94 3.79 3.39 7 6.33 8.4-.48-1.93-2.51-3.35-1.9-6.27l2.99 3.94c2.24 2.95 4.84 5.4 8.44 6.65 1.19.41 2.13.39 3.03-.46zm21.99-9.97c.16-.12.39-.21.46-.37.93-2.1 2.23-4.14 2.66-6.34.62-3.17-.92-5.94-2.98-8.28-3.94-4.48-8.45-8.44-13.25-11.88-5.74-4.11-8.83-9.51-10.37-16.12-.1-.44-.31-.86-.47-1.3-.4.51-.43.9-.36 1.27.89 5.09 3.2 9.54 6.06 13.77 2.26 3.35 4.7 6.62 6.64 10.15 4.41 8.03 5.77 16.51 2.84 25.42-.11.35-.1.74-.18 1.33 1.92-.79 2.89-2.15 3.63-3.73.38-.82.54-1.92 1.17-2.42 3.34-2.67 2.76-6.05 1.75-9.4-.78-2.6-1.95-5.09-2.95-7.62l-.9-2.34c3.96 1.81 7.04 11.06 6.25 17.87zm467.04 571.93c2.58-.33 4.68 1.69 7.43 2.25l-3.04-3.48c2.73-.03 5.59 3.16 5.09 5.71-.22 1.14-.72 2.4-1.5 3.23-3.58 3.81-5.05 8.44-5.54 13.47-.45 4.61-1.44 9.21-.47 13.87-1.81 3.79-.98 8.35-3.65 11.94-2.06 2.78-4.55 4.51-8.04 4.72-2.11.13-4.27.72-6.32.43-6.85-.97-13.41-2.68-18.42-8.07-2.62-2.83-4.24-6.04-5.69-9.56-1.73-4.2-2.09-8.35-1.28-12.71.05-.3.16-.64.06-.9-1.96-5.3 1.08-9.16 3.98-12.86 3.24-4.13 8.03-5.24 13.01-5.44 3.66-.15 7.28.23 10.52 2.26l5.34 3.31c2.27 1.5 3.25.66 4.34-.92 1.53-2.22 2.72-4.68 4.17-7.24zm-34.88 37.67c5.19-6.45 9.75-10.22 13.26-10.46l-5.88 4.86a23.03 23.03 0 0 0-5.81 6.92c-1.21 2.2-.54 4.23 1.9 4.98 1.69.52 3.57.8 5.32.63 3.82-.36 7.15-2.11 10.1-4.51 5.6-4.53 9.04-10.53 11.39-17.22 2.4-6.84 4.48-13.84 10.05-19.27l-4.09-1.64c-.86 1.93-1.43 3.81-2.47 5.38-.91 1.37-2.13 2.91-3.57 3.49-3.64 1.48-7.47 2.49-11.24 3.62-.45.14-1.01-.1-1.52-.16-.03-.2-.07-.39-.1-.59l6.01-1.88q-3.55-.96-5.29-2.45l3.82-1.11c-1.79-1.03-3.14-2.26-4.69-2.59-3.88-.85-7.83-.86-11.72.21-3.76 1.04-6.47 3.25-8.24 7.22 5.82-5.09 10.41-6.85 13.89-5.13l-3.02 1.08c-3.63 1.21-6.76 3.18-9.24 6.11-2.51 2.98-3.68 6.85-3.1 10.05 1.28-1.52 1.24-4 3.96-5.22l-1.44 4.74c-1.08 3.54-1.54 7.09-.44 10.74.36 1.2.93 1.96 2.15 2.19zm20.97 11.97c.19.06.4.19.57.16 2.25-.48 4.66-.62 6.7-1.56 2.93-1.36 4.27-4.22 4.96-7.27 1.32-5.82 1.89-11.8 1.86-17.7-.03-7.06 2.53-12.73 6.98-17.85.3-.34.52-.76.77-1.14-.65-.03-.98.18-1.24.45-3.6 3.7-5.85 8.19-7.6 12.98-1.39 3.8-2.61 7.68-4.33 11.33-3.92 8.28-9.99 14.35-18.92 17.2-.35.11-.66.35-1.19.64 1.77 1.09 3.43 1.08 5.15.75.89-.17 1.87-.69 2.65-.47 4.12 1.14 6.52-1.32 8.64-4.1 1.65-2.16 2.98-4.56 4.45-6.86l1.37-2.1c.85 4.27-4.83 12.19-10.81 15.54zM309.08 460.71c1.47-2.15 4.38-2.37 6.62-4.05l-4.62-.05c1.79-2.06 6.08-2.07 7.65 0 .7.92 1.31 2.14 1.41 3.27.47 5.21 2.95 9.39 6.37 13.09 3.14 3.4 5.92 7.2 10.04 9.58 1.63 3.87 5.58 6.28 6.49 10.66.7 3.39.34 6.4-1.82 9.15-1.31 1.66-2.31 3.67-3.88 5-5.28 4.47-10.92 8.23-18.28 8.38-3.86.08-7.33-.85-10.92-2.11-4.29-1.5-7.62-3.99-10.34-7.5-.18-.24-.37-.54-.63-.64-5.27-2.06-6.12-6.9-6.95-11.53-.93-5.16 1.43-9.48 4.59-13.33 2.33-2.83 5.02-5.29 8.68-6.35 2.01-.58 4-1.25 6.03-1.78 2.63-.7 2.65-1.99 2.2-3.86-.64-2.62-1.69-5.14-2.64-7.93zm4.93 51.1c-1.37-8.16-1.15-14.08 1.01-16.86l-.28 7.62c-.16 3.07.28 6.05 1.3 8.94.83 2.37 2.8 3.22 4.98 1.9 1.51-.91 2.97-2.14 4.01-3.55 2.27-3.09 3.18-6.74 3.36-10.54.34-7.2-1.85-13.76-5.28-19.96-3.51-6.35-7.35-12.55-7.71-20.32l-3.95 1.96c.87 1.92 1.89 3.6 2.38 5.42.42 1.59.75 3.52.23 4.99-1.31 3.7-3.11 7.23-4.77 10.8-.2.43-.75.69-1.13 1.03l-.51-.31 2.59-5.74q-3.08 2.01-5.34 2.32l1.71-3.59c-1.96.66-3.78.85-5.06 1.78-3.21 2.33-5.85 5.27-7.63 8.89-1.73 3.5-1.88 7-.09 10.95.08-7.73 1.81-12.33 5.41-13.78l-1.2 2.97c-1.51 3.51-2.13 7.16-1.58 10.96.56 3.86 2.67 7.31 5.44 9-.29-1.97-2.16-3.58-1.26-6.43l2.58 4.23c1.93 3.16 4.27 5.86 7.73 7.47 1.14.53 2.08.6 3.07-.15zm22.88-7.7c.17-.1.41-.17.49-.32 1.14-2 2.64-3.89 3.29-6.04.93-3.09-.31-6-2.12-8.54-3.47-4.86-7.55-9.26-11.98-13.16-5.29-4.67-7.83-10.36-8.69-17.08-.06-.45-.22-.89-.34-1.34-.45.46-.52.85-.49 1.23.37 5.15 2.22 9.82 4.64 14.31 1.91 3.56 4 7.06 5.58 10.77 3.58 8.44 4.07 17.01.26 25.57-.15.34-.18.73-.31 1.31 1.99-.59 3.09-1.84 3.99-3.35.46-.78.73-1.85 1.41-2.29 3.59-2.32 3.35-5.74 2.69-9.18-.52-2.67-1.43-5.26-2.16-7.88l-.66-2.42c3.76 2.2 5.89 11.71 4.41 18.41zm-184.64 9.28l1.11 4.97c.27 2.07-1.07 3.55-2.25 5.03-.18.23-.64.23-1.32.44l1.58-4.62-6.29-.23c1.77 1.5 3.8 2.03 4.33 4.24l-7.59-2.73q2.79-3.89 9.22-3.57c-.05-1.95-1.14-3.44-2.29-4.76-.51-.58-1.87-.87-2.68-.66-2.45.63-3.48-.72-4.35-2.58-.93-1.98-1.86-3.93-1.44-6.24.16-.89.4-1.56 1.33-1.82 1.39-.38 2.75-.97 4.16-1.08 2.75-.22 5.4.39 7.95 1.49 2.93 1.27 4.95 3.31 5.81 6.42l1.97 7.36.73 2.72c4-.48 7.44.21 9.53 4.27 6.11.61 10.67 3.9 13.7 9.28 2.6 4.62 2.83 9.38 1.6 14.68-2.21 9.58-5.67 18.9-6.11 28.9-.18 4.16-5.83 10.23-10.82 9.94-.72-.04-1.44-.05-2.05-.08-3.87 4.24-8.56 5.57-13.93 4.68-5.32-.87-9.25-3.57-11.08-8.95-.64.08-1.16.11-1.65.23-1.56.38-2.93.58-3.92-1.24-.43-.79-1.62-1.14-2.33-1.82-1.91-1.83-3.36-3.93-3.54-6.82 1.48 0 1.71 1.16 2.19 1.91 1.99 3.08 4.59 5.26 8.52 6.05l-1.49-20.54.55-.24c.32.41.88.79.93 1.23.61 5.49 1.28 10.98 1.64 16.49.19 2.89.89 5.32 3.25 7.11.87.66 1.68 1.39 2.54 2.05 5.61 4.31 13.65 3.14 17.36-2.77.84-1.34 1.05-3.32.95-4.96a47.55 47.55 0 0 1 1.77-16.15c.23-.79.58-1.53.87-2.3.22.05.45.1.67.16-.07.74-.07 1.5-.24 2.22-1.32 5.7-1.56 11.49-1.41 17.32.03 1.29-.18 2.59-.3 4.08 1.53.47 3.09-.22 4.51-1.2 2.36-1.64 4.1-3.83 5.2-6.5.2-.49.46-1.06.37-1.54-.73-4.26.38-8.29 1.46-12.32 1.37-5.08 3.02-10.08 4.26-15.19 1.73-7.1.02-13.31-5.58-18.22-2.62-2.3-5.67-3.59-9.2-3.52-1.41.03-2.46-.34-2.96-1.75l2.36-.07c-2.24-1.94-4.18-2.84-6.75-2.4l.61 1.66c1.45-.08 2.64-.25 3.81-.17.46.03.95.65-.02.97l-3.49 2.16c-.94-.09-1.58-1.08-2.03-2.18a57.34 57.34 0 0 1-1.64-4.61l-2.86-9.36c-.33-1.02-.81-2.05-1.47-2.88-2.16-2.71-10.25-5.11-13.8-2.66l5.71.55c3.22.25 5.74 1.69 7.35 4.48 1.8 3.13 3.57 6.24 3.92 10.02.18 1.92 1.27 3.76 1.9 5.65.26.78 1.14 1.54-.02 2.74-.58-.82-1.33-1.5-1.62-2.33-.85-2.48-1.75-4.98-2.22-7.55-.6-3.32-2.11-6.14-3.99-8.82-1.18-1.68-3.06-2.27-4.97-2.49-1.96-.23-3.96-.18-5.92-.25-.3 1.16.44 1.28 1.16 1.49l6.49 1.97c1.45.47 2.32 1.56 3.08 2.89 2.47 4.32 3.33 9.18 4.87 13.81.07.23-.04.51-.49.95l-1.89-4.24-2.04 3.91 9.72 2.85c.51.15 1.1.27 1.48.61 4.56 4.04 8.1 8.62 7.75 15.15-.04.84-.32 1.67-.48 2.49-1.44-.17-1.22-1.04-1.24-1.7-.1-5.07-2.23-9.28-5.53-12.98-.52-.59-1.17-1.23-1.88-1.46-3.79-1.26-7.62-2.29-11.66-2.56-3.57-.24-6.15 1.16-8.04 4.06-.93 1.41-1.82 2.86-2.82 4.44-1.45-4.62 4.19-10.36 10.39-10.79l3.94-6c-.52-2-.54-4.65-2.67-6.47-.61-1.22-1.28-2.38-2.81-2.72l2.56 2.94zm-5.54-4.09c-.87-.63-1.78-1.11-3.02-.83.71 1.84 2.02.79 3.02.83zm-6.74 10.73c-3.72 2.2-6.09 5.03-8.29 8.01-.91 1.23-1.71 2.57-2.41 3.93-1.25 2.43-1.62 5.03-.8 7.65.74 2.4 1.89 4.68 2.53 7.1.64 2.44 1.03 4.97 1.26 7.48.33 3.61.45 7.23.57 10.86.03.98-.19 1.98-.43 2.93-.08.31-.58.51-1.34 1.14-.23-1.54-.51-2.63-.55-3.73l-.39-12.77c-.08-1.4-.57-2.8-1.01-4.16-.9-2.75-2-5.44-2.83-8.22-.95-3.17-.53-6.3.94-9.25 1.97-3.96 4.84-7.23 8.23-10.02 1.07-.88 2.27-1.77 4.52-.95zm4.51 32.11l1 4.73 1.61-.64 1.79 6.39c-1.71-.03-1.44-1.58-1.79-1.78l-.55-.53c-.02.09-.02.23-.08.25-.26.12-.73.36-.77.3-1.78-2.51-2.46-5.31-1.97-8.36.02-.1.3-.15.75-.37zm29.26-22.79c-3.04-3.01-6.79-2.13-10.51-1.91 1.11-2.24 3.52-2.87 7-2.13 2.49.53 3.59 1.63 3.5 4.04zm-11.9 36.69l1.47-4.86h.53l.29 2.4 1.95-2.8q-.39 2.61-4.23 5.26zm7.3-8.75c.58 2.36-.15 4.47-1.34 6.75-1.26-1.39-.08-2.49.02-3.59s.43-2.18.65-3.27l.67.11zm-20.26-32.38c-2.06.82-3.74.97-5.63.68 1.79-1.69 3.13-1.9 5.63-.68zm-111-83.69l2.4-7.42c1.16-2.61 2.73-5.03 4.45-7.48 1.56 4.9 1.99 9.86 1.72 15.41.78-.88 1.17-1.43 1.66-1.86 1.29-1.12 2.48-2.52 3.98-3.21 3.19-1.46 6.53-2.59 8.96-5.17 1.28.7.96 1.6.64 2.26-.96 1.94-1.88 3.93-3.14 5.68-1.52 2.12-3.37 4-5.21 6.15.5.1.9.25 1.28.23 7.26-.25 12.12 3.55 15.75 9.37.57.92.96 1.95 1.46 2.92 1.11 2.15 2.59 4.19 3.29 6.47 1.06 3.44 1.92 7.01 2.26 10.58.45 4.7-.02 9.38-1.46 13.97-1.64 5.25-5.14 9.09-8.94 12.76-.98.94-2.04 1.83-3.19 2.53-.88.54-1.95.75-2.94 1.09-.76.26-1.54.45-2.29.75-5.64 2.22-11.42 2.84-17.34 1.45-1.43-.33-2.78-.99-4.17-1.5l.17-.72c.81.11 1.63.17 2.42.34 6.67 1.45 13.15.76 19.51-1.61 3.68-1.37 6.76-3.38 8.52-7.07.34-.71 1-1.28 1.58-1.86 3.97-4 5.49-8.88 6.07-14.44 1.02-9.71-2.57-18.01-7.2-25.99-2.95-5.08-7.81-7.44-13.7-7.26-2.25.07-4.51.48-6.7 1-1.05.25-2.06 1.01-2.91 1.74-1.21 1.04-2.49 1.51-3.96.92-2.98-1.2-5.86-.81-8.74.31-3.84 1.5-7.41 3.43-10.36 6.37-.43.43-.94.78-1.56 1.29.63-3.72 4.68-6.7 14.23-10.69-.06-.14-.08-.35-.18-.39-3.19-1.49-4.66-4.13-5.12-7.49-.27-1.97-.71-3.92-.99-5.9-.09-.66.08-1.35.14-2.28 2.29 1.14 3.7 2.81 5.25 4.28 1.49 1.42 2.87 2.95 4.33 4.47zm6.24-11.37c-1.1 2.04-2.07 3.58-2.78 5.22-1.32 3.03-1.9 6.22-1.49 9.53.23 1.85.51 2.24 1.92 3.4.19-4.52.01-9.07 1.3-13.51.34 4.91-.31 9.84.46 14.74 1.37-6.21 2.17-12.44.59-19.38zm-6.27 15.89c.22-.15.45-.3.67-.44-2.34-4.01-5.29-7.55-8.94-11.08-.22 3.01.59 5.41 1.2 7.83.79 3.15 3.26 5.08 6.98 5.47-.98-1.32-1.95-2.5-2.76-3.78-.75-1.2-2-2.18-2.22-4.33l5.07 6.34zm7.91.79l.42.52c4.46-.43 12-7.31 12.85-12.09l-13.27 11.56zm6.63-7.5c-2.81 1.02-5.06 3.3-5.7 5.72l5.7-5.72zM39.28 499.1l1.31-3.8c.4-1.57 1.27-1.44 2.22-1.07l-1.74 3.93c-.53 1.26-.93 2.63-3.13 2.5l3.18 2.2-.26.53-3.27-1.36c-2.48-1.26-4.4-3.19-6.04-5.39l-3.63-5.11L25 488c-7.47-8.25-6.19-21.94 2.69-28.58.11-.08.33 0 .63 0 .11 1.07-.86 1.5-1.31 2.2-1.23 1.89-2.75 3.64-3.69 5.66-2.87 6.17-1.55 12.21 1.68 17.7 2.61 4.43 6.04 8.38 9.13 12.53.37.5.88.89 1.8 1.8-1.07-4.26 1.4-6.04 3.67-7.96 1.11.72.95 1.37.41 1.99-.59.68-1.32 1.26-1.86 1.98-1.11 1.48-.81 2.59 1.13 3.79zm-4.67 6.6c-5.05-.82-13.94-10.83-16.73-18.34-2.99-8.04-2.68-22.4.84-26.59-.07.9-.03 1.47-.17 2.01-1.48 5.7-1.56 11.48-.92 17.28.67 6.14 3.19 11.52 7.31 16.07 2.3 2.55 4.9 4.83 7.36 7.24l2.31 2.33zm7.87-4.03l4.47-.02c1.16-.09 2.53-.1 3.41-.72 2.54-1.76 5.46-2.02 8.3-2.68 1.22-.28 2.38-.85 3.52-1.39.88-.41 1.83-.82 1.79-2.1 0-.29.35-.62.61-.87 3.61-3.59 4.51-8.15 4.7-12.97.02-.51.18-1.01.35-1.88.37.49.69.72.71.97.35 4.14.04 8.24-2.16 11.85-2.59 4.24-6.34 7.13-11.27 8.23-2.04.46-3.97 1.08-5.87 2-2.79 1.36-5.75 1.13-8.63.17.02-.2.04-.4.07-.6zm-2.71-34.04l-2.53-3.01c-.51-.52-1.43-1.25-1.86-1.09-.59.22-1.11 1.16-1.25 1.87-.22 1.13.82 1.58 1.67 1.78.88.21 1.83.1 3.16.14-1.73 1.03-2.96 2.1-4.38 2.48-1.11.3-2.46-.2-3.67-.49-.88-.21-1.71-.76-2.56.38 1.47 3.26 4.51.51 6.69 1.63-1.27 1.85-3.13 1.6-4.81 1.52-1.52-.08-2.81-.88-3.39-2.36-.62-1.6 1.05-3.35 3.03-3.13 1.14.13 2.25.56 3.8.97-.91-1.54-1.57-2.8-.87-4.36 1.2-2.7 3.73-3.18 5.47-.79.88 1.21 2.46 2.21 2.11 4.05l-.61.4zm29.37-7.12l-3.04-4.01c-3.73-4.59-8.13-5.45-13.41-2.64-.8.43-1.55.95-2.37 1.34-.77.36-1.6.6-2.94 1.08l-1.64 6.25c-1.63-1.83-.86-5.34 1.99-8.64l1.32.97c1.02-.75 2.01-1.55 3.07-2.24 2.09-1.39 4.39-2.11 6.93-1.98 2.46.12 4.56.87 6.2 2.85 1.71 2.07 3.78 3.88 4.4 6.64l-.5.39zm-2.52 9.97c-2.06-6.91-5.4-12.74-12.79-15.44 1.4-.97 2.54-.38 3.57.19 4.76 2.63 7.81 6.67 9.44 11.8.32.99.35 2.07.52 3.1l-.75.35zm-15.81 23.2c-1.73-1.5-1.88-3.71-2.46-5.74l-1.55-6.31c-.64-1.97-1.58-3.85-2.41-5.75-.84-1.92-1.73-3.83-2.17-5.97.19.13.47.2.57.38 2.95 5.22 5.54 10.55 6.24 16.65.26 2.29 1.17 4.5 1.78 6.74zm6.39-19.18c2.26-2.31 5.15-.22 7.11-1.89q-.98-1.58-6.07-.64c1.07-2.04 4.14-3.25 6-2.37 1.22.58 1.7 1.63 1.63 2.88-.07 1.3-1.05 1.94-2.2 2-2.02.11-4.04.02-6.48 0zm-14.43-11.99c-3.08-3.23-7.39-3.6-11.44-5.02 1.93-1.34 5.22-1.12 8.1.42 1.77.94 3.65 1.89 3.34 4.59zM31.5 477.03l-1.94 2.11c-1.15 1.08-2.64 1.27-4.01.51-1.06-.59-1.93-1.4-1.89-2.75.04-1.41 1.01-2.2 2.2-2.4 1.66-.28 3.37-.29 5.06-.26.45 0 .89.62 1.47 1.06-1.12.92-1.94.23-2.77.17-1.05-.08-2.13-.11-3.15.1-.46.1-1.17.95-1.08 1.27.16.57.77 1.31 1.31 1.43.69.15 1.55-.12 2.25-.41.79-.34 1.47-.9 2.2-1.37l.37.54zm22.98-8.08c2.51-1.22 6.53-.1 6.98-4.46-2.05-.59-2.64 1.37-4 1.66l-4.06.98-.18-.55c.25-.18.48-.41.76-.54l5.17-2.34c1.54-.74 2.48-.73 3.16.19.74 1.01.6 2.4-.35 3.49-1.67 1.91-5.1 2.69-7.48 1.56zm11.26 11.08l-7.43-.48c.91-.58 1.26-1 1.65-1.03 1.71-.14 3.44-.34 5.14-.21 1.73.13 2.2 1.53 1.12 2.9-.91 1.17-2.23 1.65-3.6 1.58-1.38-.06-2.75-.48-4.49-.81 1.23-1.82 2.55-1.16 3.58-.82.99.33 1.87.66 2.83.1.27-.16.46-.46 1.21-1.25zm-28.42 8.69c-.23 3.64-2.89 5.23-5.5 3.83-1.71-.92-1.95-2.83-.29-3.89 1.52-.98 3.27-1.6 5.19-2.51-.6 3.03-4.02 2.25-4.97 4.35 2.01 1.56 2.54 1.54 4.05-.11l1.51-1.68zm10.09 7.98l-1.5 2.23c-.97 1.71-2.08 2.43-3.13 1.95-.98-.45-.91-1.63.25-3.57l1.29-2.02q2.66.8 3.1 1.41zm4.04-32.51l3.07-1.53c.78-.44 1.65-.84 2.23-1.49.37-.41.27-1.23.38-1.86-.56.08-1.26-.03-1.66.27-1.3.97-2.48 2.08-3.72 3.13-.31.26-.66.48-1.14.55 1.28-2.05 3.14-3.54 4.98-4.99.47-.36 1.8-.33 2.17.06.5.54.77 1.65.6 2.39-.43 1.95-4.2 3.92-6.91 3.47zm-22.41 21.94l4.69-3.6c-.51 2.1-2.49 3.89-4.01 4.07-1.27.15-2.03-.57-2.57-1.6-1.05-2.03-.04-3.81 2.26-3.98l4.08-.24c-1.21 2.4-3.62.97-5.45 2.17l1 3.18zm31.37-.79l2.42-.97c1-.31 1.98-.31 2.6.76.55.94.33 2.49-.58 3.2-.69.54-1.52.91-2.43 1.45l-2.45-1.67c.97-2.01 3.56.94 4.01-2l-3.51-.15-.05-.61zm-9.38-5.4c2.7 3.71 3.48 8.25 5.37 13.16-.98-.6-1.5-.79-1.82-1.15-.27-.31-.42-.82-.43-1.25-.15-3.69-1.91-6.88-3.11-10.25-.05-.15 0-.33 0-.5zm-.57-1.59c-.62-.45-1.57-.76-1.82-1.36-1.27-3.08-2.06-6.29-1.94-9.7 1.73 3.38.73 7.82 4.29 10.46l-.53.59zm-6.88-13.22l3.11 9.33-.72.23c-1.44-2.98-2.26-6.17-3.15-9.34l.75-.22zm26.05 13.42l-1.69-7.69c2.28 2.23 3.01 6.09 1.69 7.69zM332.88 76.37c-1.01-.27-1.79-.36-2.45-.68-10.1-4.92-18.34-11.59-22.18-22.71-2.35-6.81-4.01-13.74-5.11-20.84a15.55 15.55 0 0 0-1.5-4.66c-.44 1.79-.94 3.56-1.3 5.36-.15.76-.09 1.6.03 2.38.75 5.16 2.62 9.98 4.48 14.81.41 1.06.65 2.17.68 3.4-2.85-1.82-3.36-5.13-5.08-7.66-.78.43-.9.93-.41 1.74.84 1.39 1.64 2.82 2.31 4.3.4.89.75 1.95-.98 2.62-.71-1.02-1.64-2.02-2.19-3.19-1.91-4.11-4.8-7.47-8.02-10.56l-11.95-11.15c-.25-.23-.58-.38-1.2-.77 1.55 4.96 3.34 9.31 7.72 12.28l-.57-3.98.52-.18c.25.21.6.36.74.63l4.02 7.72c.72 1.33 1.48 2.67 2.42 3.84 2.04 2.56 4.21 5 6.3 7.51.61.73 1.09 1.57 1.69 2.44-1.29.8-1.78-.07-2.26-.59-2.35-2.53-4.84-4.95-6.9-7.7-2.01-2.68-4.82-3.19-7.94-3.57l10.63 10.07-.46.61-4.16-2.79c-1.13.29-2 .83-2.61.62-1.56-.54-2.79-.13-4.12.6-1.15.63-2.39 1.21-4.51.71l3.55-2.25c-2.99-2.4-6.24-2.4-10.9.08 4.57 2.25 9.45 3.64 13.76 6.19l-.09.6c-.54.09-1.12.35-1.6.22-1.57-.43-3.13-.93-4.65-1.52l-13.14-5.18c-1.16-.47-2.2-1.23-3.34-1.76-3.52-1.65-7.11-3.15-10.57-4.91-2.66-1.36-5.25-2.9-7.08-5.41-.34-.47-1-.71-1.5-1.05.03-.19.03-.36.08-.5 1.24-3.05 3.8-3.08 6.52-2.95 4.36.2 8.67.59 12.89 1.83 2.33.69 4.9.68 7.14 1.55 3.62 1.4 7.07 3.25 10.58 4.94.79.38 1.52.87 2.52 1.05-2.05-2.21-4.32-4.25-6.09-6.67-1.9-2.58-5.26-3.11-7.47-5.69l1.61-.77c-.02-.14.02-.33-.06-.44-.72-1.04-1.43-2.1-2.21-3.1-3.01-3.83-5.16-8.1-6.48-12.79-.31-1.12-.5-2.33-.47-3.48.04-1.47 1.01-1.88 2.22-1.08.23.15.42.35.62.53l18.62 16.76c1.05.95 1.94 2.08 3.54 2.3.63.09 1.2.77 1.74 1.25l5.67 5.13-1.84-5.9c-1.14-3.76-1.78-7.58-1.6-11.53.15-3.25-.2-6.58.34-9.75.53-3.08 1.89-6.02 2.94-9 .21-.59.61-1.11.97-1.63.86-1.25 1.94-2.23 3.58-2.06 1.63.17 2.21 1.53 2.58 2.84.64 2.26 1.26 4.56 1.61 6.88.46 3.05.88 6.13.89 9.2.05 8.91 2.09 17.45 4.57 25.9 1.09 3.73 2.61 7.34 3.88 11.03 1.51 4.36 4.29 7.79 7.9 10.51 3.62 2.72 7.42 5.22 11.12 7.83.68.48 1.7.65 1.98 2.17zM298.59 1.66c-3.42 1.86-6.2 9.36-5.98 15.73 2.35.23 2.03 3.1 4.03 4.4-.04-2.26-.16-4.15-.09-6.05.07-1.89-.64-3.85.49-6.13l1.11 2.24c.76-1.04.29-2.64 1.98-3.36.18.7.53 1.3.42 1.81-.44 2.2-1.01 4.38-1.55 6.57-.15.59-.55 1.18-.51 1.75.19 2.87.48 5.73.75 8.81l2.31-3.24-.6-14.16c-.13-1.97-.59-3.93-1.07-5.86-.22-.89-.84-1.68-1.28-2.51zm-36.48 40.77c3.81 2.27 6.97 5.46 11.41 6.68 4.16 1.14 8.19 2.75 12.28 4.16-7.24-5.15-14.63-9.86-23.69-10.84zm30.81-22.86c-.62 5.95 3.11 18.97 6.26 22.8-.63-3.68-1.74-7.56-1.87-11.47-.15-4.45-2.89-7.58-4.39-11.33zm-16.38 7.66c-4.95-4.91-11.16-10-12.79-10.46 1.14 2.43 8.82 11.41 11.84 13.84l.95-3.39zm-16.45 22.68c4.41 2.99 8.45 4 12.98 1.53-.49-.23-.89-.4-1.27-.6-3.62-1.96-7.44-.85-11.72-.93zm2.6-1.9c-4.82-1.5-9.05-2.91-13.47-3.72 2.21 2.54 5.24 3.52 8.14 4.7.36.15.85.09 1.25 0 1.13-.24 2.25-.54 4.07-.99zm-15.67-7.34l-.03.54 14.25 3.83c-1.25-1.39-3.42-1.45-2.32-3.79l-11.9-.57zm20.7-14.6c.11.36.13.64.27.82l8.15 10.19c.62.74 1.71 1.1 3.02 1.9-.95-2.16-8.56-10.56-11.44-12.91zm12.29 15.26l-.14.74 4.7 2.07.44-.63-3.79-2.78-1.21.61zm29.05 46.11l.75 7.55.62 13.32c.69 9.13 4.03 16.88 11.99 22.09 3.53 2.31 7.37 3.88 11.49 4.79 1.06.24 2.15.35 3.2.64.7.19 1.35.59 2.58 1.15-1.9.72-3.13.37-4.31.2-5.25-.77-10.23-2.54-14.93-4.88-2.19-1.09-4.07-3.02-5.76-4.87-3.32-3.63-4.81-8.17-6.25-12.82-1.91-6.15-1.11-12.36-1.24-18.56-.08-3.8-.53-7.64-.12-11.39.43-3.91-1.62-6.32-3.93-8.74-3.72-3.9-8-7.09-12.7-9.73-.86-.49-1.7-1.03-2.52-1.58-.11-.07-.11-.32-.21-.68 1.01-.63 2.08-.35 2.99.08 3.11 1.47 6.31 2.82 9.21 4.64 4.79 3.01 8.34 7.2 10.58 12.46.91 2.14 2.05 4.2 3.2 6.53l-1.82.48c1.06 3.95 3.36 7.57 3.56 11.76l-.55.31c-.37-.49-.88-.94-1.1-1.49-1.06-2.7-2.03-5.43-3.04-8.15-.4-1.08-.84-2.15-1.26-3.23l-.43.12zm61.16 30.15l1.95-7.91c.46.69.81.97.79 1.21-1.03 9.68-3.97 18.46-12.16 24.57-4.35 3.25-9.27 4.86-14.92 4.32l-.23-1.94c.42-.13.74-.28 1.07-.31 5.77-.49 10.95-2.33 15.2-6.45 1.27-1.23 2.3-2.54 2.8-4.25.61-2.09 1.2-4.18 1.91-6.24.31-.89.89-1.68 1.35-2.51.16-.3.4-.6.43-.91.33-3.5.75-7 .89-10.51.28-6.89-1.99-13-6.09-18.48-3.72-4.95-7.86-9.5-12.76-13.33-.73-.57-1.37-1.27-2.05-1.91.09-.17.19-.34.28-.51.46.04 1.02-.08 1.36.14 1.05.7 2.05 1.5 3.02 2.32a74.9 74.9 0 0 1 12.53 13.55c4.72 6.59 6.47 13.88 5.04 21.9-.42 2.36-.76 4.73-1.14 7.1l.72.15zm-45.48-32.25c-1.94-.77-9.05-8.51-13.36-14.35q-1.25-1.69-1.38-3.29c2.98 1.54 13.56 14.06 14.73 17.64zm-4.2 7.11c-3.42-4.93-5.91-10.41-8.74-15.69-.2-.37-.04-.92-.06-1.79.63.45 1.02.59 1.16.85l8.15 15.03c.19.35.14.83.21 1.25-.24.11-.48.23-.71.34zm5.27-13.37c-1.74-.58-12.16-9.9-13.65-12.19q1.16 0 4.81 3.15l4.9 4.28c1.5 1.39 2.92 2.87 4.37 4.31l-.43.45zm10.76-7.16c3.75-.23 14.78 5.03 17.26 8.27-.28.07-.61.26-.75.16-5.17-3.32-10.86-5.57-16.49-7.95-.06-.03-.01-.32-.02-.49zm-3.17 53.18c2.96-.02 10.26 2.73 11.89 4.43-1.08.95-2.22.44-3.31.2-3.33-.73-7.01-2.68-8.59-4.63zm7.52-1.95c3.15-.55 9.14 2.54 10.67 5.37-4.14-.86-7.03-3.32-10.67-5.37zm20.56-15.13c1.67 2.39 2.88 4.94 2.69 8.21-1.75-1.38-3.13-5.35-2.69-8.21zm-2.18 10.46c-2.17-1.81-2.59-4.15-3.25-6.65 2.45.6 3.96 3.79 3.25 6.65zm-8.52-1.28c.94-.02 1.72-.28 2.13 0 1.02.69 1.91 1.59 2.76 2.49.22.23.24.93.04 1.17s-.9.37-1.16.21c-1.41-.88-2.81-1.81-3.78-3.87zm-2.88 3.09c2.47-.13 4.74 1.55 6.09 4.34-3.15-.19-4.27-2.75-6.09-4.34zm137.5-61.07c.26-.46.41-1.08.8-1.35 6.24-4.39 12.54-8.68 19.57-11.73 4.95-2.15 10.15-3.43 15.56-3.61.98-.03 2.03.04 2.95.36 2.69.93 3.12 3.37.99 5.26-.47.41-1.03.74-1.59 1.03-5.57 2.88-11.29 5.38-17.33 7.17-4.11 1.22-8.28 2.53-11.8 5.51 3.99-.79 7.79-1.65 11.63-2.27 2.41-.39 4.89-.71 7.31-.53 4.59.33 9.16.99 13.71 1.64.98.14 1.88.82 2.83 1.26-.63 1.27-.94 2.34-1.6 3.11-.8.92-1.78 1.93-2.88 2.29-2.49.82-5.07 1.46-7.66 1.81-6.11.82-12.24 1.45-18.37 2.1-1.24.13-2.51.07-3.82.4.59.18 1.17.4 1.77.53l18.63 4.02c1.93.44 3.8 1.17 5.66 1.89.97.37 1.7 1.14 1.61 2.29-.11 1.34-1.17 1.91-2.27 1.94-2.98.09-6.06.46-8.93-.12-6.65-1.35-13.22-3.15-19.79-4.89-1.55-.41-2.97-1.28-4.71-2.06-1.91 2.41-3.44 5.58-7.41 6.39.29-.69.38-1.19.66-1.54.96-1.2 2.11-2.27 2.96-3.54 2.9-4.34 2.9-8.92.44-13.39-1.07-1.96-2.7-3.62-4.12-5.38-.99-1.21-2.32-1.65-3.87-1.53-1.87.14-3.73.66-5.63-.05-.47-.17-1.2.29-1.79.51l-25.23 9.47c-6.92 2.73-13.74 5.7-20.55 8.7-2.04.9-3.96 2.13-5.83 3.38-1.45.97-2.8 1.05-4.36.16-.04-1.64 1.43-1.92 2.45-2.43 2.6-1.28 5.27-2.43 7.94-3.58 7-3.01 13.94-6.19 21.04-8.94 8.12-3.15 16.33-6.12 24.64-8.71 2.97-.93 6.39-.82 9.56-.58 1.89.14 3.68 1.43 4.79 3.29.46.77.71 1.98 2.08 1.74-.08 2.04 1.33 3.3 2.43 4.81-.64-2.25 1.29-2.54 2.9-3.59-.86-.29-1.48-.74-1.85-.58-1.36.58-2.38-.16-3.49-.63zm27.02 4.94l.06.96c-.93.22-1.85.52-2.79.64l-19.41 2.33c-.5.06-.98.29-1.46.43.48.43.91.5 1.34.51 7.8.11 15.57-.26 23.29-1.36 2.78-.4 5.58-.61 8.35-1.07 1.93-.32 3.88-.81 5.25-2.53-.89-1.17-1.86-1.77-3.23-1.92-8.61-.96-17.18-1.1-25.63 1.12-2.79.73-5.53 1.67-8.47 2.56l19.12-1.98c1.18-.11 2.39.2 3.59.32zm-5.83-13.74c-.69 2.19-2.84 2.35-4.3 3.32-1.5 1-3.12 1.84-4.68 2.75l-4.7 2.8c1.07-.05 1.98-.43 2.87-.83l6.19-2.78 20.01-8.45c.75-.32 1.38-.89 2.07-1.34l-.33-.68c-7.55-.77-14.5.93-20.95 5.42 1.31-.09 2.44-1.01 3.81-.21zm-18.51 22.76l17.64 5.12c1.57.45 3.14.91 4.73 1.26 2.82.61 5.68.85 8.61.37-1.38-.66-2.81-1.08-4.26-1.43l-22.49-5.42c-1.17-.28-2.3-.51-2.76-1.83-.03-.08-.33-.06-.74-.13l-.74 2.06zm-11.66 9.1c-2.82.98-5.59 2.54-8.48 2.81-8.11.76-16.26.98-24.4 1.42l-10.56.63c-4.8.15-9.59.05-14.31-1.13-1.73-.43-3.61-.25-5.4-.52-2.07-.32-3.17-1.58-3.23-3.43-.04-1.11.21-1.49 1.61-2.42.12.12.35.23.36.36.13 3.12.13 3.09 3.16 3.44 1.77.21 3.6.13 5.17 1.36.48.38 1.4.23 2.11.31 5.45.58 10.84-.18 16.25-.71l28.43-2.43 7.04-.6c.73-.05 1.47.18 2.21.29.01.2.03.41.04.61zm-12.45-12.5c3.23.92 4.76 4.98 3.19 7.63l-3.19-7.63zm-5.36-2.87c1.27 1.52 1.78 6.64.9 9.04-1.35-1.75-1.85-6.74-.9-9.04zm-1.72 10.27l-2.21-7.25c2.39.6 3.4 3.74 2.21 7.25zm15.07-2.79c-1.2-2.48-2.09-4.32-2.1-6.64 1.89 1.21 2.69 3.57 2.1 6.64zm-22.58 3.84c-1.08-2.38-1.15-3-.54-5.26 1.58.47 1.42 1.89 1.63 2.98.18.94.27 2-1.1 2.28zm-15.68 3.48l-.22-1.21c.96-.24 1.04-1.03 1.29-1.79.1-.3.68-.63 1.01-.6.35.03.8.41.96.75.51 1.08-.15 2.29-1.37 2.59-.5.12-1.01.16-1.66.26zm19.46-3.67l-1.13-6.14c2.14 1.83 2.53 4.04 1.13 6.14zm-6.87-4.12c1.04 1.47 1.33 2.94-.05 4.74-.74-1.8-.69-3.25.05-4.74zm23.16.64l-1.92-4.9c1.9 1.13 2.37 2.14 2.48 4.74l-.56.16zm-30.5 5.43c-.64-1.35-.23-2.42.59-3.81.39.6.85.98.85 1.36 0 .97-.16 1.96-1.44 2.45zM252.19 379.95c.23-.48.33-1.1.7-1.4 5.92-4.81 11.91-9.53 18.71-13.06 4.79-2.49 9.88-4.12 15.28-4.68.98-.1 2.03-.1 2.97.15 2.74.75 3.35 3.15 1.35 5.17-.44.44-.98.81-1.51 1.14-5.36 3.26-10.89 6.15-16.79 8.35-4.02 1.5-8.08 3.09-11.39 6.31 3.93-1.07 7.66-2.19 11.44-3.07 2.37-.55 4.83-1.05 7.25-1.04 4.6.02 9.2.36 13.79.69.99.07 1.94.69 2.91 1.06-.54 1.31-.78 2.4-1.38 3.21-.73.98-1.64 2.05-2.72 2.49-2.42.99-4.95 1.81-7.51 2.34-6.04 1.24-12.11 2.29-18.18 3.37-1.23.22-2.5.24-3.79.66.6.14 1.2.32 1.8.4l18.86 2.72c1.96.3 3.87.91 5.77 1.49.99.31 1.78 1.02 1.76 2.18-.02 1.34-1.04 1.98-2.13 2.09-2.97.3-6.01.88-8.91.49-6.73-.89-13.4-2.23-20.08-3.51-1.57-.3-3.05-1.07-4.84-1.73-1.74 2.54-3.04 5.81-6.95 6.89.24-.71.3-1.21.55-1.58.87-1.27 1.95-2.41 2.71-3.74 2.59-4.53 2.27-9.1-.49-13.39-1.21-1.88-2.94-3.42-4.49-5.08-1.07-1.14-2.43-1.48-3.97-1.26-1.86.27-3.67.92-5.62.34-.48-.14-1.18.37-1.75.63l-24.52 11.2c-6.71 3.2-13.32 6.64-19.9 10.1-1.98 1.04-3.8 2.4-5.58 3.77-1.38 1.07-2.72 1.24-4.34.46-.16-1.63 1.29-2.02 2.28-2.59 2.51-1.46 5.09-2.79 7.67-4.12 6.78-3.49 13.48-7.14 20.37-10.38 7.89-3.7 15.87-7.24 23.98-10.4 2.9-1.13 6.32-1.26 9.5-1.24 1.9 0 3.77 1.17 5.01 2.95.51.73.84 1.93 2.19 1.6.06 2.04 1.55 3.2 2.75 4.63-.79-2.21 1.11-2.63 2.64-3.78-.88-.23-1.53-.63-1.88-.45-1.31.67-2.39 0-3.53-.38zm27.29 3.06l.13.96c-.91.28-1.81.65-2.74.83l-19.2 3.67c-.49.09-.95.35-1.43.53.51.4.94.44 1.37.41 7.79-.43 15.51-1.33 23.14-2.98 2.74-.59 5.53-.99 8.26-1.65 1.91-.46 3.82-1.08 5.06-2.88-.97-1.1-1.98-1.64-3.35-1.7-8.65-.36-17.21.09-25.49 2.89-2.73.92-5.4 2.04-8.27 3.14l18.94-3.3c1.17-.19 2.4.03 3.61.07zm-6.76-13.3c-.53 2.24-2.67 2.54-4.06 3.61-1.43 1.11-2.98 2.05-4.48 3.07l-4.49 3.11c1.07-.13 1.94-.56 2.81-1.02l5.98-3.2 19.38-9.81c.72-.37 1.32-.98 1.97-1.48l-.38-.66c-7.58-.25-14.4 1.93-20.52 6.86 1.3-.18 2.36-1.17 3.79-.48zm-16.89 23.99l17.95 3.89c1.6.34 3.2.69 4.81.92 2.86.41 5.73.45 8.62-.23-1.42-.56-2.88-.88-4.35-1.13l-22.81-3.84c-1.18-.2-2.33-.35-2.88-1.64-.03-.08-.33-.04-.75-.08l-.59 2.11zm-11 9.88c-2.75 1.17-5.4 2.92-8.27 3.39-8.03 1.32-16.16 2.1-24.24 3.11l-10.49 1.36c-4.78.49-9.56.71-14.35-.13-1.76-.31-3.62 0-5.42-.15-2.09-.17-3.27-1.36-3.46-3.2-.12-1.11.11-1.51 1.44-2.52.13.11.37.21.38.33.35 3.1.35 3.07 3.39 3.21 1.78.08 3.6-.12 5.25 1 .51.35 1.41.14 2.13.16 5.48.2 10.8-.93 16.17-1.84l28.19-4.39 6.98-1.08c.72-.1 1.48.08 2.22.13.03.2.06.4.08.61zm-13.29-11.6c3.29.7 5.09 4.64 3.72 7.39l-3.72-7.39zm-5.54-2.5c1.37 1.43 2.23 6.5 1.53 8.95-1.47-1.65-2.31-6.6-1.53-8.95zm-1 10.36l-2.71-7.08c2.43.43 3.66 3.49 2.71 7.08zm14.83-3.83c-1.37-2.39-2.39-4.17-2.56-6.48 1.97 1.08 2.93 3.38 2.56 6.48zm-22.26 5.4c-1.24-2.3-1.35-2.91-.9-5.21 1.61.36 1.55 1.78 1.84 2.86.25.93.41 1.98-.94 2.35zm-15.4 4.57l-.3-1.19c.94-.31.97-1.1 1.16-1.87.07-.3.63-.68.96-.67.35 0 .83.35 1.01.69.58 1.04 0 2.29-1.19 2.68-.49.16-1 .23-1.64.37zm19.16-5.02l-1.55-6.04c2.26 1.68 2.8 3.85 1.55 6.04zm-7.14-3.64c1.14 1.39 1.53 2.84.28 4.73-.87-1.74-.91-3.2-.28-4.73zm23.15-.96l-2.26-4.75c1.97.99 2.51 1.97 2.81 4.55l-.55.2zm-30.05 7.53c-.73-1.3-.4-2.4.32-3.84.44.57.92.92.94 1.3.07.97-.02 1.97-1.26 2.55zm252.17 210.53c-3.92 1.26-7.54-.36-11.88-1.8.67 1.12.88 1.8 1.34 2.18 12.07 10.21 25.73 13.73 41.13 9.6 4.03-1.08 7.99-2.41 11.99-3.6 1-.3 2.04-.5 3.09-.76.54 1.6-.51 1.82-1.28 2.19-5.92 2.85-12.1 4.87-18.62 5.89-7.6 1.2-15 .64-22.2-2.16-4.18-1.63-7.97-3.93-11.54-6.61-.65-.48-1.28-.98-2.33-1.78.25 5.13-.06 9.82-1.94 14.3-1.59-.58-1.48-1.65-1.55-2.63-.3-3.84-1.12-7.54-2.89-10.98-.7-1.36-1.62-2.61-2.42-3.92-.61-1-1.34-1.96-1.76-3.04-1.06-2.71-.76-4.01 1.45-6.92.58 2.03 1.04 3.88 1.65 5.67.63 1.86 1.09 3.75 2.36 5.41 1.19 1.55 1.89 3.47 2.85 5.33.39-2.59-.44-7.89-1.77-10.48l6.63 1.56-4.33-3.75c1.09-2.66 3.23-3.22 5.28-3.78 3.04-.84 5.32-2.65 7.14-5.14.25-.34.38-.75.69-1.37-3.76 1.25-6.94 3.82-11.58 2.44 3.46-2.99 5.36-6.47 6.86-10.22-2.01 1.04-3.35 2.97-5.81 3.51.22-.49.34-1.08.69-1.44 1.78-1.81 3.59-3.59 5.47-5.29.55-.5 1.36-.69 2.06-1.03l.96 2.3c2.8-.07 5.54-1.08 7.82-2.85 3.78-2.94 7.35-6.16 10.95-9.34 1.49-1.32 2.82-2.82 4.25-4.21.42-.41.95-.71 1.92-1.43-.23 1.01-.2 1.55-.45 1.88-4.72 6.04-9.94 11.6-16.7 15.36-2.25 1.25-4.91 1.83-7.44 2.49-1.27.33-2.04.85-2.57 2.05-.81 1.82-1.81 3.55-2.84 5.53 1.26.24 2.22-.47 3.24-.85 1.19-.44 2.33-1.02 3.55-1.34 1.53-.4 2.25.3 2.06 1.85-.08.62-.27 1.26-.58 1.8-1.94 3.44-4.52 6.12-8.58 6.98-1.38.29-2.75.64-4.73 1.1 2.17 1.57 3.77 2.87 5.51 3.93 1.62.99 3.39 1.73 5.09 2.58l-.24.78zm25.39-45.26c.18-.38.29-.82.56-1.12 4.63-5.23 9.36-10.37 15.14-14.39 3.55-2.47 7.38-4.37 11.79-4.47 7.42-.16 13 3.53 17.45 9.04 4.04 5.02 5.52 10.97 5.15 17.34-.45 7.81-2.64 15.16-6.17 22.12-.23.45-.62.81-1.32 1.72 0-1.06-.12-1.55.02-1.95.39-1.11.89-2.18 1.35-3.27 2.27-5.48 3.94-11.13 4.39-17.06.71-9.49-2.5-17.25-10.57-22.71-5.73-3.88-11.72-4.19-17.72-.85-2.99 1.66-5.83 3.68-8.45 5.88-3.26 2.73-6.22 5.81-9.32 8.73-.55.52-1.12 1-1.69 1.5l-.6-.51zm-33.64 20.28l-.97-1.59c-.16.25-.32.45-.42.68l-3.04 6.63c-.26.52-.9.86-1.37 1.28l-.52-.37c.16-.64.23-1.33.5-1.92 1.63-3.58 2.47-7.35 2.93-11.23.12-1.05.36-2.17.88-3.07.66-1.15 2.15-.97 2.45.3.73 3.04 1.26 6.14.22 9.19-.22.03-.44.07-.65.1zm-9.99 13.4c-.96 1.22-2 1.09-2.84.52l-6.07-4.56c-.54-.47-.86-1.69-.67-2.4.3-1.11 1.54-.91 2.34-.61l6.72 2.87c.61.29.96 1.1 1.61 1.88-2.8 1.13-4.28-1.37-6.57-1.01l5.47 3.31zm71.98 11.77l10.92-13.14c.18.63.53 1.16.39 1.49-.47 1.17-.93 2.43-1.73 3.37-2.29 2.68-4.72 5.23-7.16 7.78-.5.52-1.28.79-1.93 1.18-.16-.23-.33-.45-.49-.68zm11.16-30.58c.46.54 1.06.98.99 1.22-1.23 4.45-2.77 8.71-7.37 10.87-.06.03-.17-.05-.56-.16 1.3-1.94 2.65-3.75 3.79-5.7 1.12-1.92 2.02-3.97 3.15-6.24zm-4.96 1.49c1.43 1.16.66 2.37.27 3.45-1.49 4.09-3.18 6.33-5 6.71-.03-.26-.17-.57-.08-.76l4.81-9.4zm-7.8 8.72c1.27 2.04.35 3.21-.35 4.28-1.09 1.67-2 3.61-4.45 4.11-.07-.48-.28-.92-.14-1.12l4.94-7.28z"/><path d="M299.71 227.79c-.62.63-1.36 1.18-1.84 1.9-7.62 11.5-15.2 23.03-21.98 35.06-1.69 2.99-3.72 5.78-5.98 9.25 1.15-.73 1.81-1.09 2.4-1.54L291.74 258c1.12-.82 2.13-2.02 3.76-1.76.6 1.14-.2 1.81-.69 2.5-1.94 2.78-4.4 5.05-7.13 7.06l-18.37 13.6c-2.96 2.23-5.82 4.6-8.71 6.93-.28.22-.49.53-.7.82-5.7 8-9.39 16.94-12.34 26.24-.01.05.11.14.26.31 2.69-4.52 6.58-7.85 10.46-11.26 4.01-3.53 7.68-7.44 11.47-11.22 1.54-1.54 2.97-3.19 4.5-4.74.61-.62 1.35-1.11 2.56-2.08-.02 1.17.14 1.79-.08 2.21-.42.79-1.04 1.48-1.61 2.19-5.53 6.89-11.73 13.12-18.66 18.62-1.2.95-2.35 1.96-3.27 3.35l6.98-3.79c.75-.4 1.38-1.21 2.42-.36.24.2 1.15-.26 1.66-.56 1.71-1.02 3.37-2.13 5.07-3.17.49-.3 1.05-.49 1.92-.38-.25.5-.39 1.12-.78 1.46-.88.78-1.83 1.5-2.84 2.09-4.69 2.75-9.35 5.57-14.15 8.11-2.68 1.42-5.62 2.33-8.38 3.45-.26-.34-.48-.53-.44-.6 1.13-2.43.54-4.97.44-7.47-.32-7.74-.03-15.41 2.03-22.94.77-2.8 1.35-5.64.78-8.59-.12-.61.13-1.29.25-2.26 1.33 1.07 1.2 2.26 1.2 3.25.01 4.89 0 9.79-.19 14.68-.14 3.61-.59 7.2-.57 10.91.27-.49.59-.95.79-1.46 1.98-5.1 4.47-9.93 7.47-14.5.67-1.02 1.02-2.02 1.03-3.28.01-1.81.21-3.62.49-5.41l3.78-23.37c.33-1.96.88-3.89 1.44-5.81.2-.68.71-1.26 1.39-2.4 1.01 2.32 1.18 4.12.94 5.87l-3.5 24.22c-.09.6-.25 1.19-.06 1.95l1.33-1.52c2.07-2.4 4.21-4.75 6.19-7.23 1.47-1.83 2.86-3.75 4.07-5.76 2.06-3.42 3.96-6.94 5.88-10.44.33-.61.61-1.34.62-2.01l.17-22.03c-.03-3.71-.4-7.42-.62-11.14l-.14-2.46c1.22-.52 1.75.02 2 .72.46 1.27.93 2.57 1.13 3.89 1.17 7.48.96 15.01.84 22.54-.01.63-.06 1.27-.04 1.9 0 .25.13.5.23.89 1.18-.83 1.64-1.98 1.94-3.21 2.39-9.67 3.84-19.4 2.06-29.37-.57-3.2-.97-6.42-1.91-9.57l1.72 16.59-.5.18c-.26-.47-.63-.9-.78-1.4-1.51-5.19-1.75-10.56-2-15.9-.18-3.8.09-7.61.08-11.42 0-1.25-.23-2.49-.42-4.32.77.73 1.36 1.04 1.54 1.5.54 1.44 1.1 2.91 1.32 4.42l2.56 18.61c.14 1.05.31 2.09.64 3.17 1.94-7.58 2.78-15.41 4.97-22.9 1.91 0 1.99 1.27 1.91 2.42-.24 3.34-.27 6.74-.96 10-1.39 6.47-3.06 12.88-4.83 19.26-1.36 4.89-2.09 9.87-2.57 15l1.49-2.12 9.42-13.68c.34-.49.71-1.83 1.73-.55l-.39.53-1.34 2.71-.03.06zm-35.08 23.99c-1.36 3.46-5.24 29.97-4.77 31.9 1.62-4.14 5.01-26.39 4.77-31.9zm-16.49 36.97c-1.4 4.91-1.55 9.94-1.3 14.99.51-3.74.86-7.49 1.16-11.25.1-1.24.09-2.49.14-3.74zm16.26-7.13l6.57-5.43c-2.64 1.28-5.14 2.72-6.57 5.43zm25.26-19.67c-.12-.11-.25-.21-.37-.31-.51.36-1.02.7-1.51 1.08-.44.35-.85.74-1.69 1.48.8-.22 1.09-.22 1.27-.36.78-.61 1.54-1.25 2.3-1.88z"/><path d="M299.71 227.79l.03-.06 1.34-2.71.39-.53 3.32-5.48.39.14c-.12.55-.14 1.13-.36 1.63l-2.54 5.42-13.93 23.38c-1.32 2.16-2.95 4.13-4.48 6.16-.34.46-.84.8-1.27 1.19l-.44-.33 9.01-14.26c2.93-4.8 5.7-9.69 8.55-14.54zM20.41 680.9c.67-.57 1.46-1.05 2.01-1.72 8.66-10.74 17.28-21.52 25.15-32.86 1.96-2.82 4.25-5.41 6.82-8.66-1.21.62-1.9.92-2.54 1.31l-20.69 12.59c-1.19.72-2.3 1.81-3.9 1.4-.49-1.19.37-1.78.92-2.43 2.19-2.59 4.85-4.62 7.75-6.36l19.55-11.83c3.16-1.94 6.22-4.04 9.31-6.09.3-.2.54-.48.77-.76 6.42-7.43 10.92-16 14.73-24.97.02-.04-.09-.15-.23-.34-3.1 4.25-7.28 7.21-11.46 10.24-4.32 3.14-8.34 6.69-12.46 10.1-1.68 1.39-3.25 2.9-4.92 4.3-.67.56-1.45.98-2.75 1.83.13-1.16.03-1.8.29-2.19.49-.75 1.17-1.38 1.8-2.03 6.15-6.35 12.9-11.97 20.31-16.8 1.28-.84 2.53-1.73 3.56-3.03l-7.3 3.12c-.78.33-1.49 1.07-2.44.13-.23-.22-1.17.15-1.71.41-1.8.86-3.56 1.81-5.35 2.69-.52.25-1.09.39-1.95.2.3-.47.49-1.08.91-1.39.95-.69 1.96-1.32 3.02-1.82 4.93-2.3 9.83-4.67 14.85-6.75 2.8-1.16 5.81-1.8 8.66-2.65.22.36.42.57.38.64-1.35 2.32-1 4.9-1.13 7.4-.4 7.73-1.4 15.35-4.16 22.65-1.02 2.71-1.87 5.49-1.57 8.48.06.62-.25 1.27-.46 2.22-1.23-1.19-.98-2.36-.89-3.35.44-4.87.9-9.75 1.55-14.6.48-3.58 1.26-7.11 1.58-10.81-.31.46-.67.89-.92 1.38-2.45 4.89-5.37 9.47-8.78 13.74-.76.95-1.2 1.92-1.33 3.17-.18 1.8-.55 3.59-1 5.34l-5.94 22.91c-.51 1.92-1.24 3.79-1.97 5.65-.26.66-.83 1.19-1.61 2.26-.79-2.41-.79-4.21-.39-5.93l5.74-23.79c.14-.59.36-1.16.24-1.93l-1.47 1.39c-2.29 2.2-4.63 4.34-6.84 6.62-1.63 1.69-3.2 3.47-4.59 5.36-2.37 3.22-4.59 6.54-6.83 9.84-.39.57-.73 1.27-.81 1.95l-2.22 21.92c-.32 3.7-.29 7.43-.42 11.15l-.09 2.46c-1.27.41-1.74-.18-1.93-.9-.34-1.31-.68-2.64-.77-3.98-.46-7.55.44-15.04 1.26-22.52.07-.63.18-1.26.22-1.89.02-.25-.08-.51-.15-.9-1.25.72-1.81 1.82-2.23 3.02-3.28 9.4-5.63 18.96-4.78 29.05.27 3.23.37 6.48 1.01 9.71l-.17-16.68.52-.13c.22.49.54.96.64 1.47 1.02 5.31.76 10.68.51 16.02-.18 3.8-.79 7.57-1.14 11.36-.11 1.24 0 2.5.01 4.34-.7-.8-1.26-1.16-1.39-1.64-.4-1.48-.82-3-.9-4.52l-.82-18.77c-.04-1.06-.11-2.11-.35-3.21-2.63 7.37-4.2 15.08-7.08 22.34-1.9-.19-1.86-1.45-1.68-2.59.55-3.3.89-6.69 1.89-9.86 1.99-6.31 4.25-12.54 6.6-18.72 1.81-4.74 3-9.63 3.96-14.7l-1.68 1.97-10.65 12.75c-.39.46-.87 1.76-1.78.38.14-.17.29-.33.43-.5l1.59-2.57.04-.06zm37.17-20.62c1.67-3.32 8.01-29.35 7.72-31.32-2 3.97-7.45 25.81-7.72 31.32zm19.86-35.27c1.85-4.76 2.47-9.75 2.69-14.8-.86 3.68-1.55 7.38-2.2 11.09-.22 1.23-.33 2.47-.48 3.71zm-16.86 5.58l-7.05 4.8c2.75-1.03 5.37-2.23 7.05-4.8zm-26.99 17.23c.11.12.23.23.34.35.54-.31 1.09-.6 1.61-.94.47-.3.92-.66 1.82-1.31-.82.15-1.11.12-1.3.24-.84.53-1.65 1.1-2.46 1.66z"/><path d="M20.41 680.9l-.04.06-1.59 2.57-.43.5-3.82 5.15-.38-.18c.17-.53.25-1.11.51-1.59l3.03-5.16 16.05-21.98c1.51-2.03 3.33-3.84 5.03-5.72.39-.42.91-.72 1.37-1.07l.41.37-10.29 13.36c-3.36 4.51-6.58 9.12-9.86 13.69zm364.38 123.95l2.52-.38 23.55-2.31c8.5-.96 16.77-2.92 24.82-5.92 6.97-2.59 13.96-5.28 21.15-7.08 6.32-1.59 10.44-5.79 14.88-9.61-.45-1.83-1.68-2.04-2.85-2.02-2.26.04-4.6-.1-6.76.44-7.74 1.94-15.58 3.67-23.05 6.38-5.66 2.05-11.32 3.78-17.19 4.91-7.98 1.55-16.04 1.54-24.12.8-.36-.03-.72-.12-1.06-.23-.15-.05-.27-.21-.65-.5.73-.15 1.27-.34 1.83-.37 1.45-.07 2.9-.13 4.35-.08 11.01.34 21.65-1.45 32.05-5.1 4.78-1.68 9.77-2.77 14.67-4.09 4.11-1.11 8.2-2.36 12.37-3.18 2.54-.5 5.22-.39 7.84-.42 1.26-.01 2.68.13 3.12 1.64.43 1.49.56 2.97-.8 4.22-4.63 4.28-9.31 8.42-16.03 9-.89.08-1.77.4-2.62.7-4.28 1.5-8.63 2.85-12.81 4.58-14.11 5.84-28.95 8.07-44.04 9.15-3.07.22-6.16.23-9.24.29-.65.01-1.3-.19-1.95-.29v-.53zm-4.47-16.71l-3.57 1.9c-.69.4-1.44.84-1.91 1.46-1.92 2.53-1.95 3.35-.07 6.03 1.04 1.48 2.2 2.89 3.49 4.16 1.24 1.23 2.7 2.23 3.94 3.67-.78-.3-1.67-.46-2.34-.93-3.41-2.39-6.83-4.77-10.1-7.33-1.93-1.51-1.81-1.66-.72-4.39l2.53 1.16.76-1.62c-6.39-1.26-11.65-4.18-16.13-8.63-3.4-3.38-7.01-6.56-10.49-9.86-.72-.68-1.27-1.51-2.51-1.21-.24.06-.66-.57-1.21-1.08 2.7-.18 4.65.28 5.68 2.63.04.08.08.17.15.22 5.13 3.87 8.94 9.28 14.64 12.48 2.05 1.15 4.1 2.32 6.24 3.27 2.06.91 4.06 1.02 6.03-.65 1.48-1.26 3.36-1.95 5.35-1.94l.23.66zm-13.23 6.08L363.9 793l-4.11-1.19c-.51-.16-1.03-.38-1.46-.7-5.15-3.9-9.94-8.18-13.83-13.38-.51-.68-.85-1.5-1.26-2.25l.52-.43c.76.7 1.54 1.38 2.27 2.11l8.04 8.11c2.67 2.62 5.58 4.87 9.17 6.18 1.48.54 3.01 1.14 3.87 2.77zm14.95-5.78c2.24-.73 4.39-1.4 6.71-.33 1.03.47 2.28.44 3.41.7.95.21 1.87.51 2.78.99-2.16.73-4.27-.04-6.37-.19-2.19-.16-4.48.14-6.52-1.17zm83.51-9.09l-18.07 6.59c1.59-1.89 15.63-7 18.07-6.59zm-73.52 17.17c-1.85-.76-4.27-.37-5.48-2.71 2.41-.06 4.19.84 5.48 2.71zm-.18-1.97c2.55-.08 3.84 1.29 5.37 2.1-2.07.54-3.64-.3-5.37-2.1zm40.29-3.81q3.45-.27 5.02.72c-1.78 1.18-3.67.91-5.02-.72zm6.64-2.25l2.28.58c-1.01.97-1.83 1.02-2.49.1l.2-.68zm-79.3-460.95l2.12 1.42 19 14.1c6.94 5 14.39 9.1 22.37 12.28 6.91 2.76 13.89 5.47 20.43 8.96 5.75 3.07 11.62 2.72 17.48 2.87.89-1.66.12-2.63-.76-3.41-1.7-1.49-3.34-3.16-5.31-4.21-7.03-3.76-14.01-7.74-21.36-10.75-5.57-2.28-10.93-4.81-16.04-7.9-6.96-4.22-12.92-9.64-18.41-15.6-.24-.26-.45-.57-.63-.88-.08-.14-.07-.34-.14-.81.65.38 1.18.6 1.6.95 1.12.92 2.24 1.86 3.28 2.86 7.93 7.64 17.01 13.46 27.17 17.74 4.67 1.97 9.1 4.51 13.62 6.82 3.79 1.94 7.66 3.76 11.3 5.95 2.22 1.33 4.13 3.22 6.09 4.95.94.83 1.9 1.9 1.21 3.32-.68 1.39-1.58 2.57-3.43 2.59-6.31.06-12.56-.01-17.92-4.1-.71-.54-1.58-.89-2.41-1.24-4.18-1.76-8.31-3.68-12.57-5.21-14.38-5.15-26.87-13.46-38.77-22.79-2.42-1.9-4.72-3.97-7.04-5.99-.49-.43-.84-1.01-1.25-1.53l.36-.39zm7.91-15.38l-3.92-.99c-.78-.16-1.63-.34-2.39-.2-3.13.58-3.7 1.17-4.1 4.42-.22 1.79-.31 3.62-.21 5.42.09 1.74.51 3.46.45 5.36-.38-.75-.93-1.46-1.11-2.26-.92-4.06-1.85-8.12-2.56-12.21-.42-2.41-.23-2.44 2.41-3.73l1.1 2.55 1.65-.69c-3.88-5.23-5.83-10.92-6.16-17.23-.25-4.79-.79-9.56-1.16-14.35-.08-.99.07-1.97-1.05-2.58-.22-.12-.1-.86-.17-1.61 2.12 1.68 3.26 3.33 2.44 5.76-.03.08-.05.18-.04.27 1.21 6.31.39 12.89 2.47 19.08.75 2.23 1.48 4.47 2.43 6.61.91 2.06 2.32 3.48 4.9 3.56 1.94.06 3.8.82 5.27 2.15l-.27.64zm-13.88-4.38l-1.55-3.05-2.25-3.65c-.27-.46-.51-.98-.61-1.5-1.19-6.35-1.87-12.74-1.26-19.2.08-.85.38-1.68.58-2.52.22 0 .45.02.67.03.09 1.03.22 2.05.27 3.09l.51 11.41c.22 3.73.86 7.36 2.64 10.73.73 1.39 1.46 2.86 1.01 4.65zm14.96 5.75c2.15.97 4.19 1.91 5.19 4.26.44 1.04 1.39 1.86 2.06 2.81.56.79 1.05 1.63 1.39 2.6-2.09-.91-3.14-2.9-4.59-4.42-1.52-1.59-3.41-2.9-4.05-5.24zm67.98 49.35l-17.82-7.26c2.45-.33 16.28 5.31 17.82 7.26zm-66.01-36.65c-.86-1.8-2.92-3.14-2.24-5.68 1.82 1.58 2.54 3.43 2.24 5.68zm1.19-1.58c1.95 1.66 1.99 3.53 2.57 5.16-1.9-.99-2.5-2.67-2.57-5.16zm32.41 24.23q2.74 2.12 3.24 3.9c-2.11-.32-3.33-1.79-3.24-3.9zm6.44 2.79l1.3 1.96c-1.4.04-2.05-.47-1.91-1.59l.61-.37zm18.04 94.26l1.48 4.4-.62.3-2.71-4.12c-1.04-1.28-2.32-2.37-3.37-3.82 2.78 1.53 5.64 1.57 8.47 1.14l1.33-3.95c1.87-4.66 5.39-7.51 10.21-8.51 4.87-1.01 9.81-1.68 14.73-2.45 1.88-.29 3.77-.46 5.67-.65.79-.08 1.59-.04 2.86-.06-.48 1.03-.76 1.84-1.22 2.53-.34.51-.89.92-1.42 1.25-7.43 4.52-14.83 9.14-23.73 10.27-.97.12-1.94.45-2.85.84-1.48.63-2.86 1.53-4.38 2.03-1.41.46-2.95.55-4.42.8zm12.1-11.93c-4.25 1.75-7.21 5.91-6.73 9.82 1.21-1.23 2.16-2.38 3.3-3.31 2.03-1.65 3.57-3.51 3.44-6.51zm1.48 1.64c3.32-1.13 6.32-2.35 9.42-3.14 3.09-.79 6.29-1.15 9.44-1.7-3.42-.39-13.68.91-16.68 1.78-1.52.44-1.79 1.58-2.18 3.06zm-1.99 4.95l9.59-2.4c-4.16-1.74-6.16-1.28-9.59 2.4zm18.58-7.19c-3.53-.13-8.81 1.21-10.31 2.5 1.46.22 2.99.9 4.22.54 1.99-.58 3.79-1.84 6.09-3.04zm-19.55 55.47l6.57 1.4c1.73.41 2.98-.14 3.78-1.7.45-.88.94-1.75 1.51-2.56 1.32-1.86 2.23-3.87 3.02-6.02 3.22-8.78.56-16.45-4.48-23.52-3.68-5.16-9.14-6.53-15.22-5.86-.36.04-.71.12-1.06.16-.08 0-.17-.07-.41-.17.48-1.43 1.7-1.66 2.91-1.83 5.18-.72 9.71.7 13.54 4.24 2.37 2.19 4.05 4.87 5.36 7.8.81 1.81 1.74 3.56 2.43 5.41 1.05 2.8.75 5.73.39 8.61-.59 4.73-2.64 8.8-5.85 12.31-.46.51-.89 1.14-1.09 1.79-.8 2.59-3.59 3.87-6.08 2.85-1.42-.58-2.91-.98-4.4-1.38-.88-.24-1.25-.65-.92-1.54h0z"/><path d="M439.14 488.86c-1.28.89-2.67.93-4.16.65-2.37-.45-4.52-1.37-6.36-2.9-4.09-3.4-6.82-7.71-8.27-12.81-.29-1.02-.26-2.15-.22-3.22.01-.41.46-.81.96-1.63 2.2 8.89 5.66 16.26 15.1 18.57-1.57-2.27-4.04-3.84-4.85-6.8l8.27 6.72-.88 1.18c-.02.02.07.16.14.2s.17.04.26.06zm-8.01-37.61c.19 2.39-.37 2.6-3.55 1.15l-4.15 6.21-3.66 6.55c-1.22-.79-.67-1.62-.48-2.33.84-3.21 5.18-9.52 8.15-11.71-1.26-1.51-2.42-3.08-3.78-4.46-1.29-1.3-2.78-2.4-4.08-3.69 2.79.53 7.12 4 8.06 6.24q.98 2.36 3.51 2.03zm17.9 16.57c2.81 2.11 3.87 8.8 1.85 13.37l-1.85-13.37zm-15.48 10.3c1.52.76 5.39 4.87 7.07 7.52-1.21.54-1.84-.41-2.5-.99-2.41-2.09-4.39-5-4.56-6.54zm14.54 1.8l-1.42-10.72c2.11 2.22 2.88 7.9 1.42 10.72zm-19.77-17.52c1.29 1.96 1.41 4.2 1.57 6.42-1.44-1.92-1.54-4.16-1.57-6.42zm15.42 2.84l1.49 4.28c-1.77-.99-2.05-2.49-1.49-4.28zm-20.64-23.92l-3.7.35c.3-1.81.58-1.87 3.7-.35zm19.12 26.74l.81 2.67-.59.19-.91-2.7.69-.16zm-190.54 291.2c-1.57 2.12-3.61 2.97-6.17 2.68-1.85-.21-2.55-.68-2.97-2.54-.8-3.61-.08-7.03 1.45-10.31.61-1.31 1.31-2.59 2.04-3.84 1.26-2.18 3.07-3.78 5.37-4.84 3.78-1.74 7.06-.24 9.77 2.09 2.44 2.1 4.3 4.86 6.15 7.01-.74 5.24-4.86 5.1-8.39 6.19.3.77.5 1.54.88 2.19 1.69 2.83 1.67 6.06 2.26 9.15.05.25.02.68-.13.77-1.53.92-3.01 1.99-4.66 2.57-.68.24-1.88-.42-2.59-.99-1.67-1.3-2.34-3.18-2.42-5.27l-.12-4.58c-.16-.09-.31-.19-.47-.28zm13.65-7.53c-1.13-3.82-5.14-8.26-8.55-9.42-.67-.23-1.58-.5-2.11-.23-1.99 1.02-4.15 1.97-5.73 3.49-2.59 2.48-3.96 5.81-4.99 9.23-.6 1.99-.37 3.89.83 5.72.8-.1 1.52-.17 2.22-.3 2.43-.45 4.02-2.21 4.21-4.64.13-1.7-.68-2.52-2.7-2.74-1.01 1.57-.96 3.1.59 4.7-1.95-.49-2.59-1.1-2.62-2.2-.03-1.09 1.15-3.55 1.81-3.74.17-.05.4-.1.53-.03 1 .55 2.44.89 2.87 1.74 1.22 2.41 2.08 4.96 1.67 7.84-.22 1.55.02 3.24.42 4.77.49 1.88 1.33 2.3 2.94 2.09 2.44-.32 3.8-1.29 3.62-3.18-.2-2.12-.79-4.24-1.47-6.28-.77-2.3-1.77-4.53-2.77-6.74-.44-.97-.93-1.91.09-2.66.77-.57 1.71-1.1 2.63-1.2 2.15-.23 3.19 1.04 2.85 3.2-1.87-2.57-2.94-2.72-5.31-.68.31.61.51 1.35.97 1.84.5.54 1.27 1.22 1.89 1.19 2.14-.12 4.29-.44 6.08-1.77zm-33.21 21.64c3.67-.32 6.07-4.74 3.89-7.75-2.26-3.12-4.24-6.36-8.2-7.99.51-.1 1.12-.41 1.52-.25 1.32.56 2.74 1.09 3.8 2 1.36 1.16 2.57 2.58 3.56 4.08 3.76 5.68 1.6 10.32-4.37 12.66-.91.36-1.94.42-2.92.63l-2.93.65c-1.07-4.33 1.26-7.06 4.74-9.23-2.73-1.57-3.98-.75-5.44 3.28l-4.65-.63c.72-2.32 2.52-.79 3.76-1.3l.82-1.81c-.95-1.25-8.3 1.13-10.44 3.27l.06-.04c-.49-.83-.51-1.58.49-2.01 4.68-2 9.38-3.97 14.64-3.45 1.72.17 3.42.54 4.4 2.38-.24 1.03-2.56 2.08.34 3.18l-3 2.41-1.51.37c-.72-1.15-.65-2.01.45-2.83.88-.65 1.76-1.43 1.97-3.11-.67.35-1.07.44-1.27.69-.54.69-.84 1.8-1.52 2.1-2.19.96-2.06 2.88-2.51 4.82 1.92-.07 3.41-.49 4.31-2.14z"/><path d="M215.25 770.98c2.12-.02 3.32 1.89 5.26 2.08l-.61 2.94c-.19 1.91-1.08 3.39-2.48 4.67-1.42 1.3-1.49 2.15-.52 3.78 1.56 2.61 4.23 3.19 6.73 1.39 2.14-1.54 3.65-3.5 3.96-6.23.07-.6.25-1.2.45-2.11 1.17 1.27.94 2.55.79 3.7-.43 3.44-3.43 6.41-6.91 7.03-.42.08-.83.28-1.23.46-1.27.59-2.48.24-3.14-.79-.96-1.49-1.77-3.14-2.31-4.82-.41-1.27.18-2.51 1.4-3.27.88-.54 1.24-1.25.87-2.41-3.06-.18-5.31-1.66-6.43-4.56-.25-.66-.1-1.51-.01-2.26l.53-3.48c.3-3.4 1.93-6 4.7-7.91 1.82-1.26 3.62-2.57 6.12-2.5-.34.3-.66.66-1.04.9a19.43 19.43 0 0 1-2.14 1.19c-4.6 2.25-6.28 6.33-6.79 11.05-.21 1.97 1.32 3.28 2.39 4.69.64.84 1.55 1.43 2.89.96l-3.11-2.71c-.33-1.29 1.72-.58.7-1.85-.01 0-.07.05-.07.05zm323.84-296.17c-.24 2.62-1.55 4.41-3.89 5.49-1.69.77-2.53.74-3.85-.64-2.55-2.67-3.71-5.97-4.1-9.57-.16-1.44-.22-2.89-.25-4.34-.05-2.52.67-4.83 2.09-6.92 2.33-3.45 5.91-3.86 9.44-3.27 3.17.53 6.19 1.92 8.89 2.81 2.08 4.86-1.52 6.88-3.97 9.64.66.5 1.22 1.06 1.89 1.42 2.91 1.54 4.56 4.32 6.67 6.66.17.19.37.57.29.72-.83 1.58-1.55 3.26-2.66 4.61-.46.56-1.82.61-2.73.5-2.1-.25-3.65-1.51-4.8-3.25l-2.47-3.85h-.54zm7.77-13.51c-2.95-2.68-8.68-4.4-12.19-3.63-.69.15-1.61.39-1.92.9-1.17 1.91-2.52 3.84-3.1 5.95-.93 3.46-.38 7.02.52 10.48.52 2.01 1.7 3.52 3.67 4.46.63-.5 1.21-.93 1.75-1.41 1.84-1.65 2.29-3.97 1.2-6.15-.76-1.52-1.89-1.81-3.73-.95-.05 1.87.79 3.15 2.94 3.71-1.92.59-2.78.4-3.38-.53-.59-.92-.86-3.64-.39-4.14.12-.13.29-.3.44-.3 1.14-.05 2.55-.5 3.36 0 2.29 1.43 4.35 3.17 5.49 5.84.61 1.44 1.7 2.76 2.84 3.86 1.39 1.35 2.33 1.27 3.6.26 1.92-1.54 2.58-3.07 1.45-4.6-1.27-1.71-2.88-3.22-4.51-4.61-1.85-1.57-3.86-2.96-5.86-4.33-.87-.6-1.78-1.15-1.3-2.32.36-.88.9-1.83 1.63-2.39 1.72-1.31 3.27-.76 4.1 1.26-2.93-1.23-3.93-.8-4.89 2.17.58.36 1.13.89 1.78 1.07.71.2 1.72.39 2.23.04 1.77-1.21 3.44-2.6 4.29-4.66zm-17.19 35.72c2.97-2.17 2.74-7.2-.69-8.65-3.54-1.5-6.92-3.24-11.15-2.58.39-.35.74-.93 1.17-1 1.42-.21 2.91-.49 4.29-.26 1.77.29 3.54.87 5.16 1.64 6.16 2.91 6.72 7.99 2.82 13.09-.6.78-1.45 1.36-2.17 2.05l-2.17 2.07c-3.16-3.15-2.58-6.69-.73-10.35-3.15.07-3.8 1.42-2.96 5.62l-4.3 1.87c-.59-2.36 1.74-1.98 2.54-3.06l-.24-1.97c-1.46-.57-6.52 5.26-7.24 8.21l.03-.07c-.85-.46-1.26-1.09-.62-1.98 2.96-4.13 5.96-8.25 10.74-10.53 1.56-.75 3.21-1.31 5-.24.33 1.01-1.12 3.11 1.94 2.54l-1.32 3.62-1.1 1.1c-1.21-.61-1.6-1.38-1.08-2.65.41-1.01.77-2.14.08-3.68-.39.64-.69.93-.73 1.24-.11.87.22 1.98-.21 2.59-1.38 1.96-.27 3.53.36 5.42 1.6-1.05 2.66-2.19 2.58-4.07z"/><path d="M514.01 503.71c1.8-1.12 3.82-.11 5.58-.94l1 2.83c.83 1.73.83 3.46.3 5.28-.54 1.85-.16 2.61 1.51 3.5 2.69 1.43 5.27.53 6.47-2.3 1.03-2.43 1.31-4.89.15-7.38-.26-.55-.4-1.15-.71-2.04 1.66.48 2.12 1.7 2.6 2.75 1.42 3.17.39 7.26-2.27 9.59-.32.29-.57.67-.82 1.03-.78 1.16-1.99 1.49-3.1.95-1.59-.78-3.14-1.77-4.48-2.93-1.01-.88-1.15-2.24-.49-3.52.47-.92.41-1.72-.5-2.52-2.71 1.43-5.4 1.34-7.86-.57-.56-.43-.86-1.24-1.18-1.92l-1.35-3.25c-1.5-3.06-1.46-6.13-.08-9.2.9-2.02 1.77-4.08 3.94-5.31-.14.44-.22.9-.42 1.31-.36.73-.77 1.44-1.21 2.13-2.77 4.31-2.09 8.67-.09 12.97.84 1.79 2.83 2.13 4.48 2.78.98.39 2.06.42 2.97-.68l-4.06-.71c-.95-.93 1.17-1.39-.36-1.94 0 .01-.04.08-.04.08zM113.98 751.7l.09 7.96c.31 4.27.65 8.57-1 12.62-4.62 11.3-12.25 19.12-24.9 20.92-3.59.51-7.17 1-10.81.49-2.63-.36-5.08-1.14-7.48-2.64.1-1.52.17-3.13.36-4.73.02-.19.7-.31 1.24-.52-.2-1.35-.52-3.01-.69-4.69-.6-6.11 1.16-11.54 5.29-16.02 7.57-8.2 16.79-13.11 28.15-13.38 3.34-.08 6.68 0 9.74 0zm-42.06 38.93c.72.25 1.05.41 1.4.48 5.03 1 10.11 1.03 15.18.41 7.8-.96 14.05-4.53 18.45-11.19 4.17-6.3 6.09-13.1 5.05-20.66-.21-1.55-.27-3.12-.44-5.11L95.5 767.21l.27.57c1.4-.19 2.82-.32 4.2-.6 1.33-.27 2.63-.68 3.94-1.06 2.69-.78 2.69-.79 4.35-.38-4.33 2.09-8.43 3.63-12.98 3.4-1.39-.07-2.44.26-3.4 1.25l-7.09 7.16c-.66.67-1.21 1.43-2.04 2.41 4.02.51 7.55.68 11.04-.04 3.48-.72 6.91-1.66 10.86-2.63-4.96 4.95-17.05 6.33-23.47 2.83l5.27-6.56c.54-.69 1.03-1.45 1.43-2.24l7.38-14.84c.18-.36.66-.57.99-.85l.49.34-6.01 12.58c.1.06.2.13.3.19l18.82-14.93c-.87-.11-1.22-.19-1.58-.2-11.83-.45-21.9 3.62-30.16 12.04-5.97 6.09-7.21 13.35-4.91 21.14l-1.3 3.85zm7.74-8.52c-.65-5.12 1.86-15.02 4.5-17.61-1.35 6.31-2.24 12.13-4.5 17.61zm-2.8 4.24c5.48 1.62 10.76-.08 16.63-1.14-4.33 3.94-13.57 4.52-16.63 1.14zm2.58-16.97l-2.88 15.23c-1.62-2.28.08-11.9 2.88-15.23zm338.09-568.25c.14-.3.18-.46.21-.46l6.49.62c.39.05.83.41 1.07.76 2.25 3.3 3.15 6.89 2.05 10.81-.46 1.65-1.13 3.25-1.67 4.88-1.42 4.32-4.7 7.17-8.67 8.4-4.64 1.43-9.69 2.79-14.52.76-2.78-1.17-5.18-3.22-7.78-4.83-1.81-1.11-2.96-2.74-3.45-4.71-.41-1.65-.42-3.4-.6-5.1-.09-.87-.28-1.75-.25-2.62.06-1.79-.11-3.68.42-5.34 1.45-4.52 4.49-7.83 8.7-10 1.79-.92 3.68-1.47 5.76-.71.63.23 1.41.02 2.12 0 3.16-.08 5.17 1.14 6.47 4-1.92 1.46-2.76-1.03-4.33-1.14-1.97.66-4.23 1.08-6.13 2.14-1.81 1.01-3.24 2.69-5.02 4.25-.98-2.3.49-3.53 1.59-4.62 1.12-1.11 2.64-1.82 3.95-2.95-.65.15-1.35.18-1.94.45-5 2.31-8.41 6.07-9.39 11.55-.54 3-.46 6.2.67 9.08 1.1 2.8 3.22 4.99 5.94 6.39 1.68.87 3.75 1.15 5.2 2.27 2.15 1.65 4.38 1.6 6.62.99 3.3-.9 6.59-1.99 9.21-4.34 1.06-.95 2.12-2.06 2.72-3.32 1-2.11 1.87-4.34 2.37-6.61.62-2.78.53-5.6-1.35-8.21l-1.85-.06c.63 3.34.9 6.48-.39 9.46-.22 0-.43-.02-.65-.02-.1-2.22-.11-4.45-.31-6.67-.2-2.24-1.41-3.96-3.26-5.12zm4.72-14.96c.5 3.85-.88 7.22-2.09 11.02 2.35-.68 4.37-1.29 5.84-3.19l-4.68 1.57c2.23-3.47 5.8-4.2 8.34-1.84-.36.46-.63 1.09-1.11 1.37-2.18 1.26-4.4 2.45-6.65 3.6-.45.23-1.23.43-1.56.2-1.65-1.14-3.05-.19-4.61.48-1.18-2.8-1.73-5.56-1.15-8.49.76-3.82 3.38-5.52 7.65-4.72zm-4.02 2.89l.62.21c-.12 2.43-1.37 4.76-.93 7.27 1.59-2.75 2.43-5.65 2.42-8.89-3.03.65-3.78 1.51-3.79 4.1l1.69-2.69zm-6.33 31.53c-1 .86-1.54 1.45-2.19 1.84-.26.16-.83-.02-1.15-.23-.14-.09-.12-.73.06-.94.69-.82 1.48-1.51 3.28-.68zM206.48 659.6l-.1-.49 5.6-3.34c.34-.19.91-.16 1.31-.02 3.77 1.33 6.62 3.69 8.05 7.5.6 1.61 1.01 3.29 1.55 4.92 1.41 4.32.45 8.56-2.02 11.9-2.89 3.9-6.16 7.98-11.26 9.2-2.93.7-6.08.47-9.13.71a7.54 7.54 0 0 1-5.57-1.75c-1.31-1.09-2.35-2.49-3.5-3.76-.59-.65-1.26-1.24-1.75-1.96-1.01-1.48-2.27-2.9-2.82-4.55-1.51-4.5-1.01-8.97 1.1-13.21.9-1.8 2.1-3.36 4.22-3.98.64-.19 1.15-.82 1.71-1.25 2.5-1.93 4.84-2.14 7.59-.6-.68 2.31-2.83.8-4.17 1.64-1.2 1.7-2.77 3.37-3.68 5.35-.86 1.88-1.01 4.09-1.54 6.4-2.15-1.28-1.69-3.14-1.45-4.66.25-1.56 1.06-3.03 1.44-4.71-.44.5-.98.94-1.29 1.51-2.67 4.83-3.18 9.87-.74 14.87 1.34 2.74 3.3 5.28 5.91 6.92 2.55 1.61 5.55 2.12 8.57 1.64 1.87-.3 3.7-1.29 5.54-1.25 2.71.06 4.48-1.3 5.92-3.12 2.13-2.67 4.13-5.51 4.85-8.95.29-1.39.49-2.91.23-4.28-.44-2.29-1.06-4.6-2-6.74-1.14-2.6-2.89-4.83-5.95-5.82l-1.53 1.05c2.49 2.32 4.56 4.7 5.29 7.86l-.54.37c-1.39-1.74-2.73-3.52-4.19-5.19-1.49-1.69-3.49-2.36-5.65-2.2zm-5.06-14.85c2.68 2.81 3.56 6.34 4.84 10.12 1.49-1.93 2.76-3.63 2.82-6.03l-2.84 4.03c-.25-4.12 2.19-6.81 5.64-6.42-.02.58.14 1.25-.08 1.76a141.88 141.88 0 0 1-3.23 6.83c-.23.45-.74 1.07-1.14 1.08-2 .05-2.57 1.65-3.43 3.12-2.61-1.56-4.68-3.46-5.95-6.17-1.65-3.53-.54-6.45 3.38-8.33zm-1.53 4.71l.62-.2c1.34 2.03 1.71 4.65 3.55 6.41-.34-3.16-1.38-6-3.31-8.6-2.06 2.32-2.15 3.45-.63 5.55l-.23-3.17zm13.56 29.16c-.29 1.28-.38 2.08-.68 2.78-.12.28-.68.47-1.06.5-.16 0-.53-.52-.51-.79.07-1.07.3-2.09 2.25-2.49zm316.74-385.2l-1.77 1.56.35-2.14 1.61-5.77c1.44-4.79 1.1-9.52-.6-14.14-1.66-4.51-3.55-8.93-5.31-13.4-.51-1.29-1.71-2.33-1.22-4 .11-.39-.56-1.09-.98-1.53-3.35-3.51-4.25-7.61-3.38-12.32.69-3.74 1.01-7.55 1.62-11.31.24-1.5.64-3.02 1.22-4.42 2.04-4.87.87-9.57-.89-14.41l-1.11 2.91c-.77 2.04-1.17 4.32-2.37 6.07-4.85 7.07-4.36 15.28-5.27 23.17-.46 4 .28 7.84 2.09 11.52l9.1 18.79c-.21-4.34-2.27-8.15-3.39-12.22 2.99 4.08 4.59 8.63 4.99 13.7l-1.79.41c.74 1.95.02 4.14 1.53 5.84-.44 1.36-.69 2.84-1.39 4.05-.72 1.25-1.89 2.24-3.25 3.78-.03-1.04-.17-1.7-.03-2.29.46-1.85 1.01-3.67 1.55-5.5.53-1.79.44-3.53 0-5.35-1.02-4.28-2.67-8.2-5.2-11.84-2.81-4.04-4.88-8.56-6.04-13.32-.69-2.84-.36-5.93-.49-8.91 2.19-4.47 1.61-9.5 2.9-14.16.9-3.25 1.69-6.45 4.13-9.02.76-.8.97-2.12 1.39-3.22.49-1.27.89-2.58 1.42-3.83.92-2.18.96-2.25.82-4.26.46.35.93.52 1.06.84 1.4 3.26 2.88 6.49 3.21 10.11.27 2.95-.78 5.44-2.19 7.89-.48.83-.88 1.8-.97 2.74l-1.36 14.63c-.3 2.88.41 5.4 2.29 7.58 1.83 2.14 3.44 4.55 5.6 6.29 3.32 2.67 4.94 6.2 6.11 10.03.84 2.75 1.42 5.58 2.15 8.52 1.15-.18 2.29-.4 3.44-.54 3.72-.48 7.26-.18 10.11 2.62 1.11 1.09 2.4 1.42 3.88 1.65 5.43.84 8.83 4.16 10.51 9.46-.44-.42-.97-.79-1.31-1.28-3.87-5.6-9.37-7.12-15.77-6.26-2.51.34-5.02.83-7.47 1.46-2.24.58-4.65 1.04-5.96 4.21-.32-1.18-.56-1.58-.5-1.92.73-4.22.62-8.47.35-12.7-.22-3.36-1.2-6.47-2.56-9.62-1.17-2.71-3.45-3.73-5.54-5.37.19.5.32 1.04.57 1.51 2.99 5.65 5.28 11.55 6.61 17.81.49 2.32.51 4.5-.42 6.89-1.12 2.89-1.45 6.09-2.12 9.15l.06-.09zm18.26-13.96c-4.3-2.67-8.24-1.89-12.31-.7l-.15 3.72 12.45-3.01zm-29.58 6.64l-1.5-.5c-5.49-2.61-10.96-2.27-16.24.44-8.58 4.4-14.23 11.49-17.3 20.48-2.55 7.44-3.65 15.13-2.19 23.03 1.54 8.34 5.47 15.28 11.85 20.86.77.67 1.52 1.38 2.27 2.07l-.31.55c-.55-.08-1.23.02-1.61-.28-1.99-1.56-4.18-2.97-5.78-4.88-5.32-6.35-8.59-13.61-8.81-22.04-.1-3.71-.36-7.43-.26-11.14.27-10.45 5.17-18.73 12.62-25.64 5.34-4.95 11.87-7.1 19.06-7.14 1.85 0 3.75.56 5.55 1.1 1.27.39 2.33 1.27 2.65 3.08zm-26.59 20.14c.04-.89-.02-1.17.08-1.36 3.37-5.95 7.87-10.64 14.58-12.76 3.18-1 6.38-1.16 9.61-.1.59.19 1.36-.05 2.02-.2.93-.22 1.85-.72 2.94.19-1.49.76-2.99 1.25-4.15 2.16-4.32 3.39-8.1 7.29-10.35 12.43-4.21 9.62-4.67 19.48-1.92 29.55.26.93 1.06 1.96-.27 2.83-.12.08.18 1.02.46 1.44l6.53 9.69c.5.73 1.07 1.42 1.72 2.28-2.22-.74-5.24-4.28-8.36-9.58-2.14-3.65-3.81-7.46-4.43-11.64l.58-.28 1.08 1.84c-.41-4.05-1.03-8.08-1.18-12.13-.18-5.09 1.16-9.92 3.73-14.31 2.55-4.35 4.58-9.04 8.34-13.02-9.72-.05-15.18 6.34-21.02 12.96zm45.98 47.52l-2.64 2.63c-3.26 3.54-7.35 4.53-11.91 3.66-2.03-.39-4.02-1.11-5.95-1.86-1.07-.41-1.98-.61-3.11-.23-3.64 1.22-7.36 1.2-10.93-.15-1.56-.59-3.13-1.59-4.28-2.8-11.17-11.75-15.09-26.6-8.3-41.8.1-.22.3-.4.82-1.08-.11.99-.08 1.46-.22 1.87-5.21 15.02-1.14 27.96 8.83 39.6 2.34 2.73 5.08 4.19 8.78 3.35 1.59-.36 3.33-.21 4.82-.77 1.72-.65 3.06-.26 4.63.33 1.94.73 3.98 1.29 6.02 1.57 3.15.44 6.13-.18 8.69-2.28 1.61-1.32 3.29-2.55 5.07-3.92.42.37.84.68 1.18 1.06 1.44 1.61 3.35 2.23 5.38 2.2 4.09-.07 7.91-1.02 10.97-4.01.73-.72 1.53-1.36 2.41-1.9-2.43 6.6-14.2 10.54-20.27 4.52zm27.63-63.09c.46.48.98.92 1.37 1.45 3.53 4.81 5.9 10.17 7.51 15.9 1.51 5.36 2.48 10.78 1.96 16.37-.09.99-.17 1.99-.41 2.95-.37 1.43-.44 1.42-2.45 1.47.73 6.98-2.82 11.89-8.01 15.87-1.8 1.38-3.8 2.62-6.56 2.05 3.39-3.39 3.69-7.58 4.34-11.63.18-1.1.22-2.21.51-3.29 1.14 2.4 1.06 3.04-1.31 12.35 2.41-1.3 4.09-2.97 5.62-4.82 1.64-1.98 3.06-4.17 3.41-6.72.32-2.35.08-4.78.08-7.61l1.48 1.89c1.38-1.28 1.51-2.79 1.44-4.33-.49-10.5-3.07-20.39-8.71-29.37-.4-.64-.66-1.36-.99-2.05l.73-.48z"/><path d="M530.13 293.52c2.7-1.28 5.42-2.37 8.48-2.61 4.22-.33 7.85.93 11.14 3.43 4.17 3.17 6.82 7.45 8.7 12.24.88 2.25 1.53 4.51 1.52 7.06-.01 2.66.96 5.32 1.4 8 .2 1.2.14 2.44.19 3.66l-.55.06c-.46-2.05-.99-4.08-1.36-6.14-1.79-9.85-7.1-17.43-14.79-23.63-3.26-2.63-6.63-3.52-10.59-2.21l-4.1 1.3c0-.52 0-.9.02-1.27l-.06.09zm18.89 2.83c-.09.13-.17.26-.26.4l1.37 1.15c.08-.1.16-.2.25-.29l-1.35-1.25zm-19.5-56.64c-2.95 1.77-3.57 5.05-5.63 7.27.29-3.83 1.75-7.1 5.06-9.19 1.39-.88 2.22-1.96 2.98-3.34 2.14-3.88 4.41-7.7 6.65-11.53.21-.36.54-.65.91-1.07.9.94.33 1.71.01 2.31-1.18 2.24-2.47 4.43-3.74 6.62l-3.02 5.06c.43.21.57.34.72.35 4.31.29 6.14 2.78 5.05 6.93-.69 2.62-2.42 4.45-4.74 5.66-2.12 1.1-3.57.43-3.98-1.94-.33-1.94-.21-3.95-.28-5.93-.01-.34 0-.68 0-1.19zm1.83 8.22c2.87-.94 4.56-2.7 5.42-5.18.3-.87.18-1.96-.03-2.89-.27-1.18-1.25-1.71-2.45-1.72-1.16-.02-2.53-.21-3.07 1.11-1.15 2.84-1.09 5.7.13 8.69zm-2.43 49.74c1.85 6.34 2.57 12.82 2.51 19.4-1.18-3.18-1.07-6.57-1.58-9.85l-1.64-10.3c.07-.05.53-.41 1.19-.92 5.85 4.64 9.85 10.34 11.26 17.69-.17.1-.34.19-.51.29-.91-1.96-1.74-3.97-2.76-5.87-1.02-1.91-2.1-3.81-3.38-5.56-1.33-1.81-2.93-3.42-4.41-5.12l-.67.25zm-4.83-9.89l1.34-1.66c2.06-2.11 2.67-4.59 2.31-7.5-.61-4.93-2.32-9.49-4.37-13.96-.63-1.36-1.18-2.76-1.81-4.26.46 0 .61-.03.63.01 3.47 5.99 6.43 12.17 7.13 19.18.33 3.34-.83 6.05-3.7 7.94a1.8 1.8 0 0 1-.48.24c-.17.04-.35.01-1.04.02zm34.17 4.45c-.76-.47-1.17-.64-1.48-.92-4.52-4.05-9.92-4.92-15.73-4.44-1.27.11-2.58.88-3.95.05 4.33-4.27 19.77-1.12 21.16 5.31zm-40.86-38.74c-4.57-5.38-2.5-21.08 2.47-29.53-.18.83-.33 1.68-.56 2.5-.76 2.8-1.62 5.57-2.3 8.39-1.28 5.29-1.29 10.6-.05 15.91.2.84.28 1.71.45 2.73zm47.06 45.4c3.31 2.75 8.22 19.13 7.42 24.24-.24-.15-.59-.26-.63-.43-1.8-8.07-3.84-16.06-6.79-23.81zm-50.86 31.63c1.49 6.62 3.28 13.11 7.26 19.25-4.02-1.8-8.55-14.24-7.26-19.25zm4.14 2.3c2.76 5.54 4.16 11.57 6.59 17.76-2.34-1.79-6.72-13.62-6.59-17.76zm17.91-119.29c3.02 3.13 2.32 9.25-1.03 11.53-.62-2.04.98-3.6 1.01-5.42l.02-6.11zM527.67 287c-.25 3.24-1.74 5.45-4.72 6.87l4.72-6.87zm-374.68 2.99c-1.31.9-2.1 1.84-2.65 1.72-.85-.19-1.54-1.1-2.3-1.7.61-.55 1.23-1.56 1.83-1.55.85.01 1.69.78 3.12 1.53zm244.9-221.31c-1.22 1.02-1.91 2.03-2.47 1.97-.87-.1-1.64-.94-2.46-1.47.55-.61 1.07-1.67 1.67-1.72.85-.07 1.76.61 3.26 1.23zm-26.26 652.89c-.96 1.27-1.4 2.41-1.96 2.47-.87.09-1.81-.55-2.73-.88.4-.72.67-1.87 1.24-2.05.81-.26 1.85.2 3.45.46zm-197.88-396.5c.76.84 1.57 1.37 1.53 1.79-.06.54-.76 1.11-1.32 1.41-.17.09-1.11-.65-1.13-1.05-.03-.56.46-1.15.93-2.15zM96.93 76.49c-1.47-.62-2.68-.76-2.88-1.29-.3-.82.09-1.89.18-2.86.8.21 1.98.18 2.3.69.45.72.26 1.84.4 3.46zm24.24-2.91c-.75.85-1.18 1.72-1.6 1.72-.54 0-1.19-.63-1.55-1.15-.11-.16.52-1.18.91-1.24.55-.09 1.19.33 2.24.68zm307.18 209.1c.31 1.56.87 2.65.54 3.11-.51.71-1.62.99-2.47 1.45-.27-.78-.95-1.74-.71-2.29.35-.78 1.38-1.25 2.64-2.27zm63.18 123.98c1.13-.14 2.02-.5 2.34-.22.4.36.47 1.26.39 1.89-.02.19-1.17.53-1.51.33-.48-.3-.67-1.04-1.23-2zm-52.39-256.18c1.09-.31 1.92-.8 2.28-.57.45.29.65 1.17.68 1.81 0 .19-1.08.71-1.44.55-.52-.22-.82-.92-1.52-1.79zM417.2 733.23c1.11-.23 1.97-.66 2.32-.41.43.32.57 1.22.54 1.86 0 .19-1.13.63-1.48.45-.5-.26-.76-.98-1.38-1.89zM200.05 478.87c-1 1.24-1.48 2.36-2.05 2.4-.87.06-1.79-.61-2.69-.98.43-.7.73-1.85 1.31-2.01.82-.23 1.84.27 3.43.58zm155.24-50.53c-1.38.8-2.23 1.67-2.77 1.51-.83-.25-1.45-1.22-2.16-1.88.65-.5 1.35-1.46 1.94-1.41.85.08 1.62.91 2.99 1.77zm-134.06 67.79c.65.93 1.4 1.54 1.3 1.96-.12.52-.89 1.01-1.48 1.24-.18.07-1.03-.78-1-1.17.04-.56.59-1.08 1.18-2.03zm130.43 82.98c-1.14 1.11-1.76 2.17-2.32 2.14-.87-.04-1.71-.82-2.56-1.29.51-.65.95-1.75 1.54-1.84.84-.13 1.8.48 3.34.99zM250.58 714.08c-1.14 1.11-1.76 2.17-2.32 2.14-.87-.04-1.71-.82-2.56-1.29.51-.65.95-1.75 1.54-1.84.84-.13 1.8.48 3.34.99zm121.65-146.94c.88.72 1.77 1.11 1.78 1.53.02.54-.58 1.21-1.09 1.6-.15.11-1.2-.47-1.28-.86-.12-.55.28-1.21.59-2.27zM128.05 678.56c.88.72 1.77 1.11 1.78 1.53.02.54-.58 1.21-1.09 1.6-.15.11-1.2-.47-1.28-.86-.12-.55.28-1.21.59-2.27zm136.69-19.99c.88.72 1.77 1.11 1.78 1.53.02.54-.58 1.21-1.09 1.6-.15.11-1.2-.47-1.28-.86-.12-.55.28-1.21.59-2.27zm241.45-97.07c-1.26.98-1.99 1.96-2.54 1.87-.86-.14-1.6-1.01-2.4-1.57.58-.59 1.13-1.63 1.73-1.66.85-.04 1.73.68 3.21 1.35zm20.49 7.11c.89.71 1.78 1.09 1.8 1.51.03.54-.57 1.22-1.07 1.61-.15.12-1.2-.46-1.29-.85-.12-.55.27-1.21.56-2.28zm50.01-248.04c.5 1.51 1.18 2.53.91 3.02-.42.76-1.49 1.17-2.28 1.73-.36-.74-1.16-1.62-.98-2.19.25-.81 1.22-1.4 2.35-2.57zm-26.26 19.22c1.1-.26 1.95-.72 2.3-.48.44.31.6 1.2.6 1.84 0 .19-1.11.66-1.46.49-.51-.24-.79-.96-1.44-1.85zm-57.57-158.63c.56 1.49 1.28 2.48 1.03 2.98-.39.78-1.44 1.23-2.21 1.83-.39-.72-1.22-1.57-1.07-2.15.22-.82 1.16-1.45 2.24-2.66zM130.9 436.49c.56 1.49 1.28 2.48 1.03 2.98-.39.78-1.44 1.23-2.21 1.83-.39-.72-1.22-1.57-1.07-2.15.22-.82 1.16-1.45 2.24-2.66zm415.29-321.74c1.02-.5 1.74-1.14 2.14-.98.5.2.86 1.03 1 1.66.04.18-.93.89-1.31.81-.55-.12-.98-.76-1.82-1.48zm-222.7 54.95c1.02-.5 1.74-1.14 2.14-.98.5.2.86 1.03 1 1.66.04.18-.93.89-1.31.81-.55-.12-.98-.76-1.82-1.48zM144.11 585.08c.56.99 1.25 1.67 1.11 2.07-.17.51-.98.92-1.59 1.09-.18.05-.95-.88-.88-1.26.09-.55.7-1.02 1.37-1.9z"/></svg>