<?xml version="1.0" encoding="UTF-8"?>
<svg id="Layer_2" data-name="Layer 2" xmlns="http://www.w3.org/2000/svg" viewBox="0 0 348.99 35.07">
  <defs>
    <style>
      .cls-1 {
        fill: #fff;
      }

      .cls-2 {
        fill: #ff9800;
      }
    </style>
  </defs>
  <g id="Layer_1-2" data-name="Layer 1">
    <g>
      <path class="cls-2" d="m243.9,4.38c-2.66.51-7.23-.28-6.49-2.12l-.55-1.13c2.27.15,11.73.17,7.03,3.25Z"/>
      <path class="cls-1" d="m244.57,12.58c-2.3-.63-.55-1.13-.15-1.82l3.17.15c.97.89-1.69,1.41-3.02,1.66Z"/>
      <path class="cls-2" d="m243.31,29.97l.93.44c-.93-.44-2.3-.63-3.19-.61-.08-.91,1.64-1.87,3.46-1.45-.39.69-2.18.73-1.21,1.63Z"/>
      <path class="cls-2" d="m197.22,11.44c-.65,2.76,2.42,6.78,6.25,9.39l-1.38,4.61c-2.9-2.2-8.62-.86-13.1-.69-1.71.97,4.18,1.45-.21,2.52-.51-.67-.17-1.82-1.1-2.24-3.93,1.28-1.79,4.86-10.4,4.03l-2.9-2.18c-7.39.19-14.92,1.28-22.36,2.1-7.44.85-14.79,1.39-21.86.46-2.44,2.41-9.7,1.84-14.02,3.43l-.14-1.37c-2.44,2.4-6.78-.36-9.89.04l-2.83-1.22c-1.14-2.23,7.95-1.33,5.35-4.62-6.04-1.74-9.97,3.5-15.16,1.26-5-.42-4.37,1.14-7.43,2-.74,1.42,1.05,1.31.78,2.93-11.1,1.32-11.94-5.95-21.73-4.93-.32,1.16-8.04,4.38-.67,5.76l3.41-1.57,2.42,1.46c-2.68.15-7.62.22-6.99,1.78-3.75-5.03-18.22,5.69-11.1-2.52,4.63,1.09,5.95.78,8.84-1.46-10.36-.06-19.58-1.78-28.11-1.43l-2.4,2.44c-.28-2.27-4.51-3.59-8.61-4.01-1.73.58-4,.51-3.4,1.61-.72,1.41,14.89.15,7.77,4.51-9.52-.51-19.64-2.07-25.89-5.08,4.42-.77,7.63-.3,12.17-3.6,15.77-3.85,33.11-2.21,48.39-6.56.64,1.56,4.75,2,3.59,3.67,1.48,1.05,5.38-.31,6.53,1.91,11.85-2.75,25.92-1.91,36.72-2.01-3.14-3.96,6.45-2.84,9.41-4.58,2.89,1.69,7.74.77,11.33.59.38-.71,2.59-1.04,2.03-2.16-2.64.59-3.63-.28-6.37-.61,1.03-3.01,5.85-.07,9.91,0l-2.08,1.69c6.75-.07,14.9,4.82,20.9,1.82l-5.23-2.74c7.51-1.49,16.88,2.28,22.38-1.38-5.05-.94-13.37,1.45-13.3-2.44.24-2.07,6.1-2.07,8.89-1.27,12.06,3.61,21.17-4.9,31.6.66Z"/>
      <path class="cls-2" d="m180.84,4.95c-9.89.35-4.87,5.65-14.36,5.35,1.15-2.1-3.52-3.74-6.69-3.85-3.03,1.27-6.72.49-9.41.62-1.85-.38-1.65-2.9,1.95-3.06,8.97,3.99,20.03-2.88,28.51.94Z"/>
      <path class="cls-1" d="m189.57,16.28c-4.92.4-3.12-4.46-7.95-3.14,2.01-2.58,2.69-.1,7.18-.26l-2.57,1.47,3.33,1.93Z"/>
      <path class="cls-2" d="m149.37,10.53c-3.12.37-10.44-.68-10.72-3.41-.47-.21.29-1.61-1.47-1.08,2.79.79,10.92.89,12.19,4.49Z"/>
      <path class="cls-1" d="m163.48,21.15c-1.75.53-3.54.6-6.22.71,1.75-.53,3.87-1.76,6.22-.71Z"/>
      <path class="cls-2" d="m145.39,15.74c.66,2.03-2.65.57-3.54.61l-1.89-.83c1.75-.53,3.97-.86,5.43.22Z"/>
      <path class="cls-2" d="m118.23,10.37c-4.59-.69,4.67-2.74-.77-2.94l3.12-.38,1.24,3.14-3.59.17Z"/>
      <path class="cls-2" d="m111.18,7.74c-1.28.75-2.6,1.04-4.92.48l1.23-1.21c.84-.5,1.9.82,3.69.73Z"/>
      <path class="cls-2" d="m117.35,14.76c-2.17.79-1.89-.82-3.31-1.44.8-.95,5.53,1.1,3.31,1.44Z"/>
      <path class="cls-2" d="m96.1,34.58c1.96-2.62,6.15-1.24,10.1-2.13-3.95.89-5.58,2.35-10.1,2.13Z"/>
      <path class="cls-2" d="m276.6,2.08c1.87.88,4.07.15,5.36-.56l-.97-.9-4.39,1.45Z"/>
      <path class="cls-2" d="m249.46.82c-2.01,3.01,1.48,1.56,5.26,3.76,5,.56,10.21-1.83,15.18-1.69l3.02-1.66c-5.94-1.04-16.38-1.96-23.47-.41Z"/>
      <path class="cls-1" d="m245.73,15.75c3.7,1.28,8.47-.88,11.16-.95-4.52-.35-10.38-.45-13.54-.6-.39.69,1.44,1.11,2.38,1.54Z"/>
      <path class="cls-2" d="m324.7.73c-6.3.07-15.03-2.36-21.97,1.39,3.2.64,3.27,1.55,8.26,2.18-3.77,3.92-7.69-.6-12.19-.53,3.67.86-1.16,2.53-4.3,2.8-5.93-1.06-15.35-.68-23.44-.51-3.48,1.43-14.92-.84-13.26,3.01-4.93.35-5.61-2.61-9.28-3.44-10.87,4.57-19.61-8.17-31.31-2.6.7-2.31-5.12-1.9-7.4-2.05-4.97-.07-16.7-.16-14.06,4.1,3.42,2.86,10.19-1.92,15.4.88,8.96,4.51-9.29,1.89-9.39,5.78,1.29-.72,2.04,2.68,5.98,1.41-8.38,1.87,3.53,4.23-.75,6.65,9.63,2.21,8.74,2.22,13.65,7.11,5.76-.84,4.12-4.22,5.76-6.1,6.12-1.99,10.98,2.43,16.29,1.39-3.99,6.03,8.9,4.59,15.17,4.44,8.09.27,2.72-5.31,11.29-4.8,4.26,2.88-8.67,3.82-3.05,6.91l3.94-1.22c2.51-2.33,4.52-5.34,7.54-6.99,1.79-.04,4.48-.09,4.55.82-3.52.98-2.45,3.24,1.24,4.54,1.72-.94,2.15-1.17,2.98-2.1-7.21-6.51,7.6-.34,12.71-4.07,14.9-5.23,7.72,7.66,22.33,4.99-4.42-5.67,9.68-2.84,14.48-4.91,4.05.2,5.5,1.79,8.3,3.6,1.12-.6,4.25-.88,4.75-1.96-2.14-7.55-11.44-14.78-23.58-21.17-.33.14-.62.28-.61.44Z"/>
    </g>
  </g>
</svg>