<?xml version="1.0" encoding="UTF-8"?>
<svg id="Layer_2" data-name="Layer 2" xmlns="http://www.w3.org/2000/svg" viewBox="0 0 248.59 256.64">
  <defs>
    <style>
      .cls-1 {
        fill: #ff9800;
      }
    </style>
  </defs>
  <g id="Layer_1-2" data-name="Layer 1">
    <path class="cls-1" d="m243.14,175.5q3.06,1.94,5,5c.86,5.12.67,9.63-2.17,14.06-.98,1.33-1.99,2.64-3.02,3.94-1.11,1.48-2.22,2.96-3.32,4.43q-.87,1.13-1.75,2.28c-2.27,2.99-4.45,6.04-6.63,9.09-2.15,3.01-4.32,5.99-6.49,8.97-1.09,1.49-2.17,2.98-3.25,4.48-1.57,2.17-3.16,4.34-4.75,6.5-.46.64-.93,1.29-1.4,1.95-4.15,5.6-9.02,10.62-15.41,13.61q-.95.46-1.92.93c-3.38,1.36-6.46,1.89-10.09,1.91-.83,0-1.66.01-2.51.02-.9,0-1.8,0-2.73,0-.96,0-1.91.01-2.9.02-3.17.02-6.33.03-9.5.04-1.08,0-2.17,0-3.29.01-5.75.02-11.49.04-17.24.04-5.91.01-11.83.05-17.74.09-4.56.03-9.13.03-13.69.04-2.18,0-4.36.02-6.53.04-12.74.1-23.35.04-34.79-6.14q-3.87-1.96-12.88-2.31v-52c3.3-.33,6.6-.66,10-1q3.66-1.29,6.88-3c10.7-5.36,23.5-5.92,34.94-2.19,2.72,1.02,4.86,1.92,7.13,3.74,4.73,2.24,9.33,1.83,14.49,1.78,2.28.01,4.56.03,6.84.04,3.59,0,7.17,0,10.76-.01,3.47,0,6.93.01,10.4.04,1.07-.01,2.14-.03,3.24-.04q8.31.08,11.98,3.06c3.12,3.43,4.22,5.97,4.35,10.59-1.49,5.25-3.32,8.21-8,11-3.71.6-7.39.58-11.14.57-1.08.01-2.15.03-3.26.04-3.43.04-6.86.06-10.29.07-3.44.03-6.88.06-10.32.1-2.14.02-4.28.04-6.42.05-.96,0-1.93.01-2.92.02-.85,0-1.7,0-2.58.01q-2.13,0-4.07,1.13v4c2.4,1.2,3.92,1.13,6.6,1.15.96,0,1.91.01,2.89.02q1.55,0,3.14,0t3.23.01c2.26,0,4.52,0,6.78,0,3.44,0,6.89.02,10.33.04,2.2,0,4.4,0,6.59,0,1.02,0,2.05.01,3.1.02,10.19-.03,17.34-1.68,25.07-8.77.89-.9,1.78-1.8,2.69-2.73q.72-.73,1.46-1.47c3.19-3.26,6.21-6.64,9.17-10.11,3.04-3.38,6.29-6.53,9.53-9.72,2.91-2.88,5.66-5.8,8.29-8.94,5.44-6.26,9.91-9.04,18.12-6.5Z"/>
    <path class="cls-1" d="m131.82,0q1.57,0,3.16.02c18.41.41,35.29,8.19,48.15,21.48,11.36,13.28,17.61,29.25,17.5,46.69,0,1.04,0,2.09-.02,3.16-.4,18.14-7.91,34.09-20.48,47.15-9.81,8.73-21.01,14.8-34,17v13q3.19-.03,6.44-.06c2.19-.02,4.38-.01,6.56.06q1,1,1.39,3.68c-.52,4.39-2.62,6.41-5.65,9.37-.54.55-1.08,1.09-1.64,1.66-1.14,1.15-2.3,2.29-3.46,3.42-1.77,1.74-3.5,3.5-5.23,5.27-1.12,1.11-2.24,2.23-3.36,3.34-.52.53-1.03,1.06-1.56,1.6-2.43,2.33-4.18,3.59-7.49,4.31-4.05-.89-6.25-3.04-9.05-5.92-.55-.54-1.09-1.08-1.66-1.64-1.15-1.14-2.29-2.3-3.42-3.46-1.74-1.77-3.5-3.5-5.27-5.23-1.11-1.12-2.23-2.24-3.34-3.36q-.79-.77-1.6-1.56c-2.53-2.63-3.62-4.13-4.05-7.81q.39-2.68,1.39-3.68c4.34-.14,8.66-.04,13,0v-13c-1.15-.16-2.31-.33-3.5-.5-15.86-3.56-30.64-14.03-39.5-27.5-10.44-17.85-14.1-35.53-10-56,5.18-17.99,15.39-31.85,31-42C107.57,3.23,118.78-.08,131.82,0Zm-38.07,33.5c-11.17,13.75-14.31,27.63-12.62,45,2.24,12.08,9.46,23.32,19,31,13.36,9.19,26.48,12.42,42.48,9.78,13.32-2.95,24.65-10.6,32.52-21.78,7.85-13.57,10.16-27.14,7.35-42.59-4.47-14.63-14.07-25.71-27.37-32.94-20.38-10.11-45.87-5.15-61.36,11.53Z"/>
    <path class="cls-1" d="m157.9,31.26c9.06,6.69,16.04,16.07,18.23,27.24,1.53,14.28.03,26.56-8.69,38.38-7.11,8.2-16.56,14.76-27.58,15.85-14.47.9-25.43-.85-37.16-9.9-8.61-7.78-14.16-17.4-14.99-29.01-.6-13.95,1.8-25.28,11.18-36.1,15.87-15.81,40.03-18.53,58.99-6.46Zm-27.77,2.24q-2.17,2.74-2.25,5.44c-1.09,3.73-3.55,4.49-6.75,6.56-3.94,4.35-4.64,7.92-4.38,13.6.58,3.64,1.93,5.69,4.38,8.4q1.53.82,3.09,1.65,2.91,2.35,3.71,6.24c.05,1.45.08,2.91.07,4.36.02.75.04,1.49.06,2.26.05,1.83.06,3.66.06,5.49-3.28-2.99-4.38-5.91-6-10q-2.47.49-5,1c-.46,5.72.28,8.6,4,13q1.55.96,3.12,1.94c3.66,2.63,4.04,4.73,4.88,9.06,1.65.33,3.3.66,5,1q2.17-2.74,2.25-5.44c1.09-3.73,3.55-4.49,6.75-6.56,3.94-4.35,4.64-7.92,4.38-13.6-.58-3.64-1.93-5.69-4.38-8.4-1.02-.54-2.04-1.09-3.09-1.65q-2.91-2.35-3.71-6.24c-.05-1.45-.08-2.91-.07-4.36-.02-.75-.04-1.49-.06-2.26-.05-1.83-.06-3.66-.06-5.49,3.28,2.99,4.38,5.91,6,10,1.65-.33,3.3-.66,5-1,.46-5.72-.28-8.6-4-13-1.03-.64-2.06-1.28-3.12-1.94-3.66-2.63-4.04-4.73-4.88-9.06-1.65-.33-3.3-.66-5-1Z"/>
    <path class="cls-1" d="m6.19,180.37q1.62,0,3.27,0c1.17,0,2.35,0,3.55,0,1.19,0,2.39,0,3.62,0,2.53,0,5.06,0,7.6,0,3.89,0,7.78,0,11.67,0,2.45,0,4.91,0,7.36,0,1.17,0,2.35,0,3.55,0,1.08,0,2.16,0,3.27,0,.95,0,1.91,0,2.89,0q2.16.13,3.16,1.13c.1,2.3.13,4.59.13,6.89,0,.72,0,1.44,0,2.18,0,2.39,0,4.78,0,7.18,0,1.66,0,3.31,0,4.97,0,3.47,0,6.95,0,10.42,0,4.46,0,8.93,0,13.39,0,3.42,0,6.84,0,10.26,0,1.65,0,3.29,0,4.94,0,2.3,0,4.59,0,6.89,0,1.31,0,2.62,0,3.97q-.13,2.92-1.13,3.92c-1.68.1-3.37.13-5.05.13q-1.62,0-3.27,0c-1.17,0-2.35,0-3.55,0-1.19,0-2.39,0-3.62,0-2.53,0-5.06,0-7.6,0-3.89,0-7.78,0-11.67,0-2.45,0-4.91,0-7.36,0-1.17,0-2.35,0-3.55,0-1.08,0-2.16,0-3.27,0-.95,0-1.91,0-2.89,0q-2.16-.13-3.16-1.13c-.1-2.3-.13-4.59-.13-6.89,0-.72,0-1.44,0-2.18,0-2.39,0-4.78,0-7.18,0-1.66,0-3.31,0-4.97,0-3.47,0-6.95,0-10.42,0-4.46,0-8.93,0-13.39,0-3.42,0-6.84,0-10.26,0-1.65,0-3.29,0-4.94,0-2.3,0-4.59,0-6.89,0-1.31,0-2.62,0-3.97.21-4.81,1.83-4.05,6.18-4.05Z"/>
    <path class="cls-1" d="m213.14,171.5c2.8,1.96,3.73,3.19,4.81,6.4q.19,2.6-1.22,4.55-1.04.92-2.09,1.86c-2.8,2.59-5.42,5.15-7.88,8.06-4.27,4.97-8.95,9.53-13.62,14.12-1.98-3.81-3.48-7.75-5-11.76q-.9-2.38-3-4.24c.31-3.49,1.84-5.22,4.27-7.64.66-.66,1.32-1.32,2-2,.69-.68,1.39-1.35,2.1-2.05.69-.69,1.37-1.38,2.08-2.09,5.76-5.7,9.51-7.1,17.55-5.22Z"/>
    <path class="cls-1" d="m136.14,73.5q3,1,4,3,.36,7.47-2,11h-2v-14Z"/>
    <path class="cls-1" d="m126.14,49.5h2v14c-.99-.33-1.98-.66-3-1-1.56-3.13-1.4-6.58-1-10,.66-.99,1.32-1.98,2-3Z"/>
  </g>
</svg>