<?xml version="1.0" encoding="UTF-8"?>
<svg id="Layer_2" data-name="Layer 2" xmlns="http://www.w3.org/2000/svg" viewBox="0 0 256.76 248.84">
  <defs>
    <style>
      .cls-1 {
        fill: #ff9800;
      }
    </style>
  </defs>
  <g id="Layer_1-2" data-name="Layer 1">
    <path class="cls-1" d="m114.42,154.34c1.25,1.15,2.5,2.32,3.74,3.48,8.59,6.11,19.82,4.44,29.88,4.35,2.31,0,4.62.01,6.93.02,6.06.02,12.11,0,18.17-.03,9.72-.04,19.44-.02,29.16,0,3.39,0,6.79-.01,10.18-.03,2.07,0,4.14,0,6.21,0,.95,0,1.89-.02,2.87-.03.86,0,1.73,0,2.62,0,.75,0,1.5,0,2.28-.01q1.97.24,4.97,2.24c1.01,2.84,1.42,4.89.33,7.77-3.1,6.03-6.75,11.6-10.53,17.22-.48.72-.95,1.44-1.44,2.18-.43.64-.86,1.28-1.3,1.94-1.1,1.96-1.62,3.7-2.06,5.89,2,2,3.6,3.58,6,5q3.36-.11,7-1c7.11-.68,12.94.04,19,4,4.69,4.24,7.63,8.67,8.34,15.05.1,7.98-.38,13.76-5.98,19.7-6.01,5.47-11.29,6.74-19.35,6.56-6.5-.66-10.46-3.44-14.88-8.12-4.69-5.78-5.85-11.83-5.12-19.19.54-2.72,1.24-5.33,2-8q-1.56-1.78-4-3c-2.33.66-4.67,1.33-7,2-2.56.16-5.12.22-7.68.2q-1.05,0-2.12,0c-2.21-.01-4.42-.04-6.63-.06-1.51-.01-3.02-.02-4.53-.03-3.68-.02-7.36-.06-11.03-.1-.26,1.29-.52,2.57-.79,3.89-1.13,5.09-2.77,9.91-4.59,14.79-.29.82-.58,1.63-.88,2.47q-3.99,10.83-8.59,14.2c-6.01,1.8-12.97,1.38-18.84-.61-2.51-1.9-3.2-2.85-4.31-5.75q-.23-2.64-.19-5.81c0-1.25.01-2.5.02-3.79.08-3.2.35-6.34.68-9.52,1.43-15.16.52-33.32-9.11-45.97-4.25-4.35-9.33-7.83-15.41-8.9q-2.01.22-4.05.78c-.76.18-1.53.37-2.31.56-1.58.4-3.16.8-4.73,1.2-5.11,1.23-9.64,1.85-14.91,1.47q-2-2-2.44-5.44.44-3.56,2.29-5.12c4.53-2.08,9.17-3.07,14.03-4.13.97-.22,1.94-.45,2.93-.68q10.7-2.39,15.19-1.63Zm31,58c-.77,8.04-1.13,15.93-1,24h6l8-24h-13Zm88,2q.67.78,1.35,1.57,4.67,5.75,4.59,9.36-.94,2.06-1.94,3.06c-3.3.39-5.89.69-8.8-1.12-1.46-1.23-2.84-2.55-4.2-3.88.29,3.44,1.02,5.02,3.12,7.81,3.59,2.73,5.46,2.68,9.88,2.19,3.53-1.18,4.26-1.76,6-5,.52-4.64.63-6.86-1.62-10.94-2.82-2.45-4.7-2.81-8.38-3.06Z"/>
    <path class="cls-1" d="m6.04,17.59c.78.25,1.57.5,2.38.75,1.44,2.87,1.11,5.34,1.1,8.54,0,1.3,0,2.6,0,3.95,0,1.38-.02,2.76-.03,4.14,0,1.39,0,2.78-.01,4.16-.01,3.4-.03,6.81-.05,10.21h7c-.02-.86-.03-1.73-.05-2.61-.05-3.2-.09-6.41-.12-9.61-.02-1.39-.04-2.77-.06-4.16-.04-1.99-.05-3.99-.07-5.98q-.02-1.8-.05-3.63.34-3,1.69-4.93,1.65-1.07,4.27-.82,2.38.75,3.38,1.75c.16,2.14.25,4.29.32,6.44.04,1.31.08,2.61.13,3.96.04,1.39.08,2.78.12,4.17.04,1.39.09,2.79.13,4.18.11,3.42.21,6.84.31,10.26h6c.01-.87.03-1.74.04-2.63.06-3.22.14-6.43.22-9.65.03-1.39.06-2.79.08-4.18.03-2,.09-4,.14-6l.08-3.65c.14-.95.29-1.91.43-2.89q3-2,5.62-1.75c.78.25,1.57.5,2.38.75,1.19,2.38,1.15,3.89,1.18,6.55q.02,1.42.04,2.86c0,1.02.01,2.05.02,3.1,0,1.05.02,2.1.02,3.18.01,2.23.02,4.45.03,6.68.02,3.4.06,6.81.11,10.21.01,2.16.02,4.32.03,6.49.02,1.02.04,2.04.05,3.08-.01,4.44-.04,7.1-2.33,10.99-2.78,2.39-4.28,2.38-7.9,2.16-1.73-.1-3.47-.21-5.25-.31v21c3.3.66,6.6,1.32,10,2,2.34.64,4.68,1.29,7,2,.01-.62.03-1.24.04-1.88.08-2.85.17-5.71.27-8.56.02-.97.05-1.95.07-2.95.34-9.17,1.75-17.05,8.62-23.61,7.6-4.9,13.91-5,23-5v25q-8,0-10-1.5c-.33-.49-.66-.99-1-1.5.03,1.09.05,2.18.08,3.3.09,4.06.15,8.12.2,12.18.03,1.75.06,3.51.1,5.26.06,2.53.09,5.05.11,7.58q.04,1.17.08,2.36c0,4.08-.36,6.57-2.97,9.8q-2.59,2.52-4.59,3.52c-7.14-.45-13.7-2.1-20.56-4.06-1.01-.28-2.02-.56-3.06-.85-2.46-.69-4.92-1.38-7.38-2.08,0,1.28,0,2.56.01,3.88.04,12.07.07,24.13.09,36.2.01,6.2.02,12.41.05,18.61.02,5.98.03,11.97.04,17.95,0,2.29.01,4.57.02,6.86.01,3.2.02,6.39.02,9.59,0,.95.01,1.9.02,2.87,0,.87,0,1.74,0,2.64,0,.76,0,1.51,0,2.29-.29,2.47-.86,4.03-2.25,6.1q-3.44.94-7,1c-2.15-1.54-2.9-2.44-3.37-5.06,0-.8,0-1.59,0-2.41q-.01-1.37-.02-2.77c0-1,.02-2,.02-3.04,0-1.06,0-2.11-.01-3.2,0-2.3,0-4.6,0-6.89,0-3.64,0-7.27-.02-10.9-.04-10.34-.04-20.67-.04-31.01,0-6.32-.02-12.64-.05-18.96-.01-3.59,0-7.17.01-10.76,0-2.19-.02-4.39-.03-6.58,0-1,.02-2,.03-3.03q.04-5.36-2.5-9.91-1.01-.73-2.03-1.47c-1.57-3.14-1.35-5.54-1-9,.82-.69,1.63-1.38,2.47-2.09,3.64-4.2,3.31-7.84,3.34-13.23.03-.93.05-1.86.08-2.82.06-2.29.1-4.58.11-6.87-.83.03-1.66.07-2.52.11q-1.63.04-3.29.08c-1.08.03-2.16.07-3.27.11q-2.92-.29-4.58-1.5C-.02,69.77.04,68.3.03,65.35c0-1.01-.02-2.03-.03-3.07,0-1.09.01-2.19.02-3.31,0-1.12,0-2.25,0-3.4,0-2.37,0-4.75.02-7.12.02-3.65,0-7.29-.02-10.94,0-2.3,0-4.61.01-6.91,0-1.1-.01-2.19-.02-3.32,0-1.01.02-2.02.03-3.06,0-.89,0-1.79,0-2.7.13-.71.25-1.42.38-2.16q3-2,5.62-1.75Z"/>
    <path class="cls-1" d="m68.42,89.34h50v59h-12q-3.44.37-6.25,1-1.37.28-2.77.56c-.65.14-1.31.29-1.98.44v-3h-4v4c-.82.24-1.64.48-2.48.73-1.08.34-2.16.67-3.27,1.02q-1.6.49-3.23.98c-4.03,1.69-6.19,3.8-8.33,7.58-.93,3.65-.66,6.05.31,9.69,3.88,4.57,6.28,6.04,12.12,6.56q1.37.13,2.76.25c.7.06,1.4.12,2.12.18.09,7.98.16,15.96.21,23.94.02,3.71.05,7.41.09,11.12.04,3.58.07,7.16.08,10.74,0,1.36.02,2.73.04,4.09q.2,13.23-4.42,18.12c-2.97,2.33-6.24,2.47-9.96,2.39-3.65-.71-5.47-2.77-8.04-5.39-1.37-2.75-1.12-4.93-1.12-8.01,0-1.28,0-2.56,0-3.88,0-1.43,0-2.86.01-4.29,0-1.5,0-3,0-4.49,0-4.07,0-8.15.01-12.22,0-4.25,0-8.51,0-12.76,0-8.06.01-16.12.02-24.18.01-9.18.02-18.35.02-27.53.01-18.88.03-37.75.05-56.63Zm12,12c-.13,2.97-.19,5.91-.19,8.88-.01.83-.02,1.66-.04,2.51,0,.8,0,1.6,0,2.42,0,.73,0,1.46-.01,2.22q.13,2.3,2.24,4.98,2.17.46,4.68.4,1.39,0,2.81.01t2.94-.04c.97.01,1.93.02,2.93.04.93,0,1.86,0,2.81-.01.85,0,1.7,0,2.58-.01q2.29-.23,4.02-1.65c1.51-2.15,1.58-3.33,1.55-5.93,0-.8-.01-1.6-.02-2.42-.02-.83-.04-1.66-.06-2.51,0-.84-.01-1.67-.02-2.54q.33-3.99-1.23-7.34c-1.77-.1-3.54-.13-5.31-.13-1.08,0-2.15,0-3.26,0-1.13,0-2.26,0-3.43.01-1.13,0-2.26,0-3.43-.01-1.08,0-2.15,0-3.26,0-.99,0-1.99,0-3.01,0q-2.26-.13-3.3,1.13Z"/>
    <path class="cls-1" d="m102.73,1.91c5,2.83,7.9,7.06,9.69,12.44q2.59.89,5.69,1.44c5,1.12,8.34,2.36,12.31,5.56-.2,3.57-.73,4.76-3.44,7.19-4.43,2.26-8.68,3.08-13.56,3.81-.07.57-.15,1.14-.23,1.72-1.05,6.17-2.97,10.18-7.77,14.28-5.49,3.27-10.75,3.87-17,3-5.93-1.83-9.51-4.96-13-10-1.73-3.45-2-5.04-2-9-.65-.11-1.3-.22-1.98-.33q-10.06-1.83-14.02-4.67-.88-3.19-1-6c5.58-4.09,10.9-6.43,18-6,.23-.87.45-1.73.69-2.62,2.03-5.23,4.66-8.4,9.5-11.25,6.25-1.84,12.05-2.22,18.12.44Z"/>
    <path class="cls-1" d="m110.42,56.34c9.9,0,17.58,0,25,7,5.01,6.23,6.25,12.54,6.26,20.42,0,.71,0,1.41.01,2.14,0,2.31,0,4.62,0,6.92,0,1.61,0,3.23,0,4.84,0,3.37,0,6.75-.01,10.12-.01,4.32,0,8.64,0,12.96,0,3.33,0,6.66,0,9.99,0,1.59,0,3.18,0,4.78,0,2.23,0,4.45-.01,6.68q0,1.9,0,3.83c-.3,3.96-1.2,6.85-3.5,10.08-2.81,2.01-4.24,2.38-7.75,2.25-3.85-1.63-6.48-3.66-9-7-1.27-5.56-1.05-10.98-.88-16.65.02-1.63.03-3.25.04-4.88.03-4.26.12-8.53.22-12.79.09-4.36.13-8.71.18-13.07.1-8.54.25-17.07.44-25.61-.33.5-.66.99-1,1.5q-2,1.5-10,1.5v-25Z"/>
    <path class="cls-1" d="m114.54,176.52c2.73,2.13,3.74,3.3,4.61,6.69.27,3.64.29,7.21.22,10.86,0,1.34,0,2.69,0,4.03,0,2.81-.03,5.62-.08,8.43-.06,3.59-.07,7.18-.05,10.77,0,2.77-.01,5.55-.04,8.32-.02,1.96-.02,3.93-.01,5.89q-.21,9.92-3.19,13.62c-3.59,3.07-5.71,3.56-10.48,3.49-3.48-.47-5.51-2-8.1-4.28-1.97-3.86-2.24-7.05-2.23-11.35,0-1.26,0-2.52,0-3.82.01-1.37.02-2.73.03-4.1,0-1.41,0-2.81,0-4.22,0-3.69.03-7.37.05-11.06.02-3.77.03-7.53.04-11.3.02-7.38.06-14.77.1-22.15,1.44-.32,2.87-.65,4.31-.97.8-.18,1.6-.36,2.42-.54,4.99-1.07,8.01-.99,12.39,1.69Z"/>
    <path class="cls-1" d="m150.93,96.81c5.38.82,8.97,3.86,13.3,7.03.85.6,1.7,1.2,2.58,1.82q19.05,13.64,21.17,23.21c.89,6.55.46,12.51-2.56,18.47-1.88,2.12-3.62,3.41-6,5-5.72-8.29-3.58-16.69-2-26-.34.58-.68,1.16-1.02,1.75-.45.74-.89,1.49-1.35,2.25-.44.74-.88,1.49-1.34,2.25-.43.58-.85,1.15-1.29,1.75h-2q-1.1-1.51-2.28-3.61c-.43-.75-.86-1.51-1.31-2.28-.45-.8-.89-1.59-1.35-2.42-.88-1.56-1.76-3.12-2.65-4.68-.39-.7-.78-1.39-1.18-2.11-1.23-1.91-2.56-3.36-4.23-4.9.33.98.65,1.96.99,2.96,2.34,7.01,4.67,14.02,7.01,21.04-3.63-.33-7.26-.66-11-1,1.04.5,2.07.99,3.14,1.5,1.37.69,2.74,1.37,4.11,2.06.68.32,1.36.65,2.07.98,5.17,2.64,7.32,5.14,9.68,10.46v3c-5.51,1.7-10.4.34-15.45-2.26-5.27-3.31-9.37-6.57-11.14-12.8-1.47-6.9-1.68-13.53-1.6-20.56,0-1.08,0-2.16,0-3.27q.1-18.45,5.7-19.63Z"/>
    <path class="cls-1" d="m230.42,79.34c2.74,2.74,2.26,4.29,2.27,8.12q0,1.87,0,3.78c0,1.31-.02,2.62-.02,3.98q.01,1.91.02,3.86-.05,23.67-7.27,31.27c-6.06,4.92-12.15,7.33-20,7-.99-.33-1.98-.66-3-1q3.35-9.03,7.56-11.51c.95-.39,1.9-.78,2.88-1.18.95-.4,1.89-.79,2.87-1.2.89-.37,1.78-.73,2.69-1.11,1.32-.66,2.64-1.32,4-2h-10c.67-4.82,2.58-8.92,4.56-13.31.33-.74.66-1.48,1-2.24.81-1.82,1.62-3.63,2.44-5.44l-1-1c-4.29,5.94-8.58,11.88-13,18-2.62-2.62-4.2-4.82-6-8,.12,1.13.24,2.27.36,3.44q1.35,14.86-3.36,21.56c-3.79-1.7-5.12-3.25-7-7-1.89-6.1-1.69-12.68.12-18.75,3.97-6.88,9.03-11.49,15.62-15.81.7-.47,1.41-.94,2.13-1.42,2.03-1.35,4.08-2.68,6.12-4.01,1.01-.67,2.02-1.35,3.05-2.04q7.79-4.99,12.95-3.96Zm-9,14l1,2-1-2Z"/>
    <path class="cls-1" d="m83.42,56.34h20v25h-20v-25Z"/>
  </g>
</svg>