<?xml version="1.0" encoding="UTF-8"?>
<svg id="Layer_2" data-name="Layer 2" xmlns="http://www.w3.org/2000/svg" viewBox="0 0 63.35 1464.89">
  <defs>
    <style>
      .cls-1 {
        fill: #ffa520;
      }
    </style>
  </defs>
  <g id="Layer_1-2" data-name="Layer 1">
    <g>
      <path class="cls-1" d="m16.07,1428.73c-.07,3.29-.49,6.16-.58,4.92.01,3.37.09,5.08.12,6.06.04.98.12,1.24.48,1.67.32,4.29.14,8.88-.4,4.01.14,2.06.38,4.12.56,6.18l.29,3.08c.1,1.03.3,2.04.44,3.06-.31-2.44-.35-4.91-.47-7.37.18.49.3,1.48.4,2.71.04.62.08,1.3.13,2.01.07.71.15,1.45.23,2.19.31,2.97.64,5.98,1.13,7.09l-.8-6.61c-.12-1.1-.31-2.2-.36-3.31l-.21-3.33.24.65c-.2-1.51-.36-3.74-.48-5.85-.01-2.12.02-4.11.05-5.14.1.32.26.12.3,2.47-.1-8.05-.17-9.15-.46-9.9-.13-.38-.28-.67-.37-1.71-.05-.52-.08-1.23-.09-2.22-.01-1-.01-2.29.12-3.97-.07.84-.15,1.89-.26,3.33Z"/>
      <path class="cls-1" d="m18.69,1415.12l-.11-5.71c.48-3.14,1.04-6.27,1.55-9.4-.27-.15.72-7.04-.31-2.43-.13.91-.33,2.72-.56,4.17-.5-1.15,1.83-12.58.77-9.91-.57,3.74-.91,5.9-1.18,7.7-.22,1.8-.34,3.26-.45,5.59-.57,3.42-.91,6.38-1.27,8.89-.36,2.5-.68,4.55-.88,6.15-.08,2.05.25,2.37.11,4.97.04-.58.07-1.1.12-1.76l.87-.21c.02-2.17.19-4.21.47-6.6-.08,1.86,0,3.72,0,5.57l.07,5.55c.52-1.75.9-5.34,1.22-9.02.42-3.68.84-7.47,1.25-9.6-1.33,5.27.14-4.32-1.65,6.06Z"/>
      <path class="cls-1" d="m16.35,1425.13c0,.07-.01.19-.02.27,0-.08.01-.2.02-.27Z"/>
      <path class="cls-1" d="m9.05,589.49c-.21-2.39-.47-3.08-.6-3.41.76,8.97,1.42,17.95,2.45,26.89.13-.86-.4-8.62.28-3.47,0-1.16-.23-3.49-.52-5.66-.25-2.17-.54-4.17-.73-4.67l.5,1.92c-.95-6.16-.44-10.47.15-6.45l-.05-.52-3.1-17.03c.43,6.31.98,4.81,1.63,12.4Z"/>
      <path class="cls-1" d="m59.45,39.28c-.17,3.48-.12,3.92-.01,3.53.03-1.25.04-2.44.01-3.53Z"/>
      <path class="cls-1" d="m6.75,573.09l-.83-5.36c.27,2.15.56,4.04.83,5.36Z"/>
      <path class="cls-1" d="m17.9,609.58s.06.06.08-.08l-.52-2.37s0,.05,0,.06c.16.88.3,1.66.43,2.39Z"/>
      <path class="cls-1" d="m4.33,450.36c.03-.58.06-1.08.09-1.77-.03.65-.06,1.23-.09,1.77Z"/>
      <path class="cls-1" d="m29.62,681.46l-2.1-11.77c.45,1.55-.39-4.16.22-1.7-.16-.9-.83-5.12-.79-3.95l.34,2.41c-.77-3.08-1.09-3.66-1.46-4.76-.38-1.1-.8-2.72-1.69-7.87.35,6.49,1.16,9.26,1.92,12.62.19,1.15.35,2.11.51,3.09l2.3,9.72.75,2.2Z"/>
      <path class="cls-1" d="m43.79,205.46l.03.14c0-.12-.02-.15-.03-.14Z"/>
      <path class="cls-1" d="m43.96,206.15l-.14-.55c.01.65-.26,3.11.14.55Z"/>
      <path class="cls-1" d="m7.31,575.04c-.14-.15-.34-.84-.57-1.95.2,1.33.41,2.67.67,3.99-.04-.57-.08-1.32-.1-2.04Z"/>
      <path class="cls-1" d="m9.58,584.06l.93,10.06.67,3.68c-.46-3.84-.92-8.34-1.6-13.74Z"/>
      <path class="cls-1" d="m3.16,466.34c.79-21.01.6,5.2,1.21-4.44.08-2.92.04-4.89-.02-6.6-.07-1.7-.11-3.13-.03-4.95-.06,1.04-.11,1.94-.15,2.72-.03.78-.06,1.44-.08,1.99-.06,1.11-.12,1.8-.19,2.21-.14.83-.29.54-.45.26-.31-.57-.64-1.11-.9,7.3-.57-2.42-.36-12.18.36-17.85,1.16-6.4.06,5.66.69,7.16.31-6.74.15-5.56-.04-8.44.46-5.28.65-10.76.9-15.7.27-4.94.5-9.36,1.32-12.45.6-7.64.22-7.17.3-11.59-.64-.94-1.49,11.31-2.34,14.09.12-.58.35-1.71.42-1.37-.29,2.19-.44,4.4-.67,6.6.71-6.26.66.93.48,4.29-.16,2.44-.48,7.3-.63,6.62l.11-3.71c-.58,4.75-.23,10.54-.99,15.54-.18.25-.12-1.65-.2-1.95.07,2.84-.1,5.6-.11,8.72-.03,3.12-.1,6.57-.1,10.76l-.52-4.88c.26,3.36.17,8.83-.09,14.76-.13,2.97-.3,6.05-.5,9.05-.17,3-.23,5.92-.37,8.55.13-1.17.23-3.26.36-2,.12,6.18-.41,10.83-.77,7.97.28,3.02.1,8.77-.05,14.79-.03,1.51-.07,3.03-.1,4.53.01,1.5.05,2.98.1,4.4.09,2.84.24,5.44.49,7.49.81,6.28,1.51,12.56,2.41,18.81l2.91,18.7c-.17-1.4-.33-2.9-.45-4.45.44-3.45.26-5.28,1.2.66-.67-5.85-1.05-3.58-1.58-12.41.52,3.45,1.29,4.28.89-4.17-.63-10.56-1.46-19.34-2.35-27.97-.65-8.63-1.21-17.1-1.61-27.03.12-.18.22-1.29.29-2.97.07-1.68.1-3.93.25-6.39.24-4.92.52-10.69.71-14.47.4,2.91.31,8.51.17,14.33.17-3.65.47-9.92.69-14.58l-.95-1.95Z"/>
      <path class="cls-1" d="m3.75,515.6c.05-.53.08-1.08.1-1.64-.04.3-.08.79-.1,1.64Z"/>
      <path class="cls-1" d="m3.33,484.64c.02.07.03.05.05.07.01-.61.03-1.22.04-1.84-.03.62-.07,1.33-.09,1.77Z"/>
      <path class="cls-1" d="m8.13,570.02c.19,1.25.33,2.16.52,3.41-.08-.77-.18-1.73-.28-2.66-.12-.88-.21-1.3-.24-.75Z"/>
      <path class="cls-1" d="m7.51,574.3l-.24-.66c.01.54.02.92.04,1.4.12.14.2-.02.2-.74Z"/>
      <path class="cls-1" d="m13.86,386.83l.13-2c-.13,1.2-.15,1.72-.13,2Z"/>
      <path class="cls-1" d="m5.28,443.03c-.47,7.28.63.92-.04,11.22.05-1.01.14-2.02.23-3.02-.11,7.41-.73,20.42-1.1,29.21-.25-1-.58,5.32-.99,4.28,0,6.03.09,12,.52,15.1-.18,3.73.18,9.4-.05,14.14.29-2,.87,6.74.63-4.79.03.93.1.35.13,1.27.44-7.43-.18-10.41-.14-16.81.3-3.82.39,6.26.52,2.66-.06-3.99-.07-10.27.23-15.46.21-5.2.27-9.33-.25-9.09.18-5.81.43-6.61.69-8.33-.17-2.31-.14-5.6-.01-9.23.17-3.63.55-7.58.84-11.26.61-7.35,1.1-13.54.41-13.55-.19,3.35-.61,8.81-.68,13.74l-.95-.09Z"/>
      <path class="cls-1" d="m7.36,557.81c-.02-.45-.05-1.04-.07-1.41.02.42.04.94.07,1.41Z"/>
      <path class="cls-1" d="m11.82,649.77l-1.27-2.92c-2.39-17.21-2.64-23.52-4.29-38.63,0-1.17.27.66.41,1.59-.67-5.3-1.14-11.97-1.69-18.26-.54-6.29-1.09-12.21-1.61-16.08-.19-3.4-.41-12.36.05-8.99-.17-1.65-.36-3.54-.44-5.44.3-.52.34,4.25.61,4.35-.06-1.51-.04-2.1-.16-2.44.42,2.52.95-2.69,1.61,9.13-.49,4.63-.56-8.2-1.24-5.44.22,3.93.52,3.45.64,3.78.27,5,.05,4.89-.16,4.63.39,1.9.57,8.2,1.18,10.81.87,9.7-.67-.48-.13,5.86l1.15,3.58c.26,3.51.44,7.04.76,10.54,1.89,15.17,1.23-2.31,3.52,15-.67-2.24-.72,4.81,0,12.91-.59-4.83-2.04-13.72-2.45-19.99.26,8.88-1.35-12.12-1.63-7.47.81,4.32,1.62,11.57,2.02,17.26l-.27-1.85c.54,6.03,1.86,10.5,2.57,18.81.53,4.11.2,3.37-.09,2.67.55,3.47,1.1,6.56.91,6.6Zm-1.27-8.95l-.59-5.52c.02,1.32.28,3.38.59,5.52Z"/>
      <path class="cls-1" d="m32.88,1339.5c-.14.54-.29,1.15-.41,1.64.11-.35.26-.97.41-1.64Z"/>
      <path class="cls-1" d="m49.79,848.85l.36,3.19c-.12-1.25-.25-2.27-.36-3.19Z"/>
      <path class="cls-1" d="m59.38,920.48l.48,4.69c-.12-1.86-.29-3.31-.48-4.69Z"/>
      <path class="cls-1" d="m39.73,1301.65l.03-.16c.02-.26.04-.47.06-.74l-.08.9Z"/>
      <path class="cls-1" d="m56.79,1065.33c-.11.71-.22,1.51-.33,2.6.09-.13.2-1.1.33-2.6Z"/>
      <path class="cls-1" d="m59.29,919.61c0,.12,0,.19,0,.29.03.18.06.38.09.58l-.09-.86Z"/>
      <path class="cls-1" d="m48.23,817.04c-.12-.68-.23-1.3-.36-2.03.15.96.26,1.54.36,2.03Z"/>
      <path class="cls-1" d="m46.46,821.84c-.12-.73-.24-1.43-.35-1.97l.35,1.97Z"/>
      <path class="cls-1" d="m32.23,711.89l-.73-4.25c.31,2.09.54,3.34.73,4.25Z"/>
      <path class="cls-1" d="m45.47,810.44c-.07-.24-.14-.49-.2-.65.11.59.19.86.2.65Z"/>
      <path class="cls-1" d="m24.61,1365.78c.02-.1.04-.2.05-.26l-.07-.13.02.38Z"/>
      <path class="cls-1" d="m23.67,1376.28c-.23,1.21-.46,2.47-.69,3.71.29-1.37.54-2.72.69-3.71Z"/>
      <path class="cls-1" d="m51.78,1127.83c-.19,1.13-.49,3.8-.56,2.54.05,2.19.49,2.07.56-2.54Z"/>
      <path class="cls-1" d="m23.89,1344.11c-.03.69-.13,1.55-.23,2.4.22-1.58.41-2.97.23-2.4Z"/>
      <path class="cls-1" d="m23.66,1346.52c-.1.78-.22,1.62-.31,2.32.12-.81.22-1.6.31-2.32Z"/>
      <path class="cls-1" d="m46.46,1098.41c.07-.28.15-.72.2-1.31-.13.17-.18.64-.2,1.31Z"/>
      <path class="cls-1" d="m22.26,1382.96c.04.35-.61,4.58-.92,7.02-.14,1.22-.2,2-.07,1.63.12-.38.43-1.9,1.11-5.28.27.32-.11,2.5-.53,5.06-.42,2.56-.97,5.5-1.21,7.32.59-2.6.18,1.37.53.61.23-1.8.42-3.96.97-6.91.52-1.31-.06,3.21-.77,6.69.53-2.13.42-.74.34.42-.05,1.16-.11,2.1.51-.93,1.92-13.07,3.69-22.31,4.74-31.68-1.47,7.47-2.95,15.82-4.33,21.88l-.04-2.67c.89-3.41,1.45-6.19,2.02-8.97.55-2.78,1.03-5.55,1.79-8.94-.6,2.53-1.17,5.06-1.74,7.59-.57,2.53-1.15,5.06-1.67,7.59-1.81,7.06-1.01,2.26,0-3.4-.29,1.38-.55,2.63-.71,2.97Z"/>
      <path class="cls-1" d="m19.67,1371.7l-.07.25c-.03.23-.07.51-.08.66l.15-.91Z"/>
      <path class="cls-1" d="m21.45,714.27l-.39-1.3c.25,1.1.36,1.43.39,1.3Z"/>
      <path class="cls-1" d="m24.19,1363.13h0c.02-.09.02-.12,0,0Z"/>
      <path class="cls-1" d="m26.29,747.32s-.04-.09-.07-.17c.03.12.05.11.07.17Z"/>
      <path class="cls-1" d="m39.2,754.42c.02-.07.04-.09.04-.23-.13-.7-.11-.36-.04.23Z"/>
      <path class="cls-1" d="m26.34,747.33s-.03.03-.05-.02c.02.02.05.08.05.02Z"/>
      <path class="cls-1" d="m48.38,907.88s.05-.52.07-1.33c-.08-.31-.11,0-.07,1.33Z"/>
      <path class="cls-1" d="m46.28,875.96c0-.2,0-.32,0-.59v.59Z"/>
      <path class="cls-1" d="m54.67,1120.4c.1-1.58.16-2.77.19-3.77-.08,1.15-.15,2.4-.19,3.77Z"/>
      <path class="cls-1" d="m26.22,747.15c-.11-.32-.23-.78-.42-1.55.2.84.33,1.29.42,1.55Z"/>
      <path class="cls-1" d="m53.72,956.43c-.03-.34-.06-.66-.09-.98v.59s.09.4.09.4Z"/>
      <path class="cls-1" d="m53.76,973.14c-.07-.57-.13-.83-.19-1.15.32,5.96.02,16.92.58,18.22.02-2.02.36-12.52.7-10.73-.16-4.16.2-10.32,0-12.56-.11,6.83-.47.75-.8-3.86.05-4.19.49.78.49-2.83l-.35-9.7.17,8.45-.63-2.55c.03.31.05.53.08.86.65,14.28-.72,1.23-.04,15.85Z"/>
      <path class="cls-1" d="m53.57,971.99c-.05-.89-.08-1.68-.17-2.29.04,1.35.09,1.87.17,2.29Z"/>
      <path class="cls-1" d="m51.64,1030.32c0,.73-.01,1.53-.02,2.53,0-.48.01-1.58.02-2.53Z"/>
      <path class="cls-1" d="m11.72,604.96c-.14.26.39,8.59.8,8.4-.21-2.47-.43-4.95-.64-7.44l-.16-.96Z"/>
      <path class="cls-1" d="m45.16,1189.32c.06-.93.12-1.86.17-2.78-.01-.2-.02-.39-.03-.55-.1.56-.13,2.4-.14,3.33Z"/>
      <path class="cls-1" d="m55.05,982.05c-.07-1.53-.13-2.21-.2-2.57.03.99.09,1.9.2,2.57Z"/>
      <path class="cls-1" d="m44.11,1189.79c-.19,1.17-.48,2.9-.66,3.14-.15,2.41-.02,4.12-.09,6.59.1-2.78.33-5.99.74-9.72Z"/>
      <path class="cls-1" d="m43.36,1199.71c0-.07,0-.14,0-.2,0,.07,0,.13,0,.2Z"/>
      <path class="cls-1" d="m11.46,600c-.09-.71-.18-1.45-.27-2.2l.21,1.14c-.12-1.92-.23-3.82-.34-5.73-.08-.69-.16-1.43-.26-2.35.05.37.11.65.18.82-.03-.62-.07-1.23-.1-1.84-.79-4.51-2.16-15.81-2.5-19.08-.44-4.32-.85-9.62-1-12.95.17,3.09.49,7.18.67,5.93-.05-3.14.06-5.48.03-8.38-.01-1.45-.06-3.04-.19-4.94-.15-1.9-.33-4.11-.54-6.81l.09,3.17.18,3.17c-.14-1.18-.31-2.37-.43-3.55l-.33-3.56-.67-7.12c.26-5.01.67,7.11,1.06,9.08-.77-11.09.23-20.34-.73-25.47.44-.73,1.29-1.95,1.29-9.23-.6,5.25-.32-4.36-.95-.06-.26-2.52.24-8.12-.12-8.54l.2.68c.88-12.42-.38-16.51-.48-21.85.22-7.45.48-12.88.74-17.96.13-2.54.25-5,.38-7.58.11-2.58.38-5.27.55-8.31.36-.46,1.5-3.69,1.82-8.55-.28-2.29.31-13.26-.17-14.43-.87,8.67-.04,7.15-.29,12.36-.91,4.29-.62.35-1.4,6.24.29-2.38.6-7.78.96-13.23.18-2.73.37-5.47.57-7.85.25-2.38.53-4.4.79-5.69l-.1,1.85c1.15-8.3,2.71-9.75,3.22-23.69.11-2.22.17-4.44.33-6.65.02.32.08.37.11.54,1.34-10.8,1.63-7.77,2.55-19.76-.07.93.06.36-.01,1.3,1.13-6.76,1.27-13.69,1.88-18.83.89-3.07.36.8.44,2.78,1.81-11.9,2.7-24.89,3.2-32.37l1.4-7.64c-.48,4.58-.8,10.22-.31,8.87.53-4.23.19-3.45,1.15-9.41.15,1.06.06,3.61.02,6.47,2.32-12.27-.66-2.91,1.53-11.42.58-3.88.47-6.19.17-6.67l1.51-6.96c-.36-.85.96-9.52,1.76-15.21-.09-.72-1.19,4.5-1.35,6.68-.3-.48.46-6.55,1.07-10.43,1.18-1.28,3.79-25.47,4.22-20.69,2.43-17.5,6.13-42.03,7.48-53.61.87-3.76,2.02-11.5,1.79-6.79,2.05-14.07,2.19-21.45,4.41-35.38.28-1.14-.85,6.32-.48,5.86.89-9.18,2.67-16.56,4.33-30.77-.3,2.39-.2,3.11-.14,3.45-.21.22.49-5.85.75-9.54.33-2.05-.21,2.76.05,1.62,3.78-27.38,4.88-48.44,6.95-75.81-.58,7.82-.15,10.83.11,10.94l.56-7.67c-.11-2.98.31-8.73.41-13.56.16-.58.46-2.92.44-.52.43-3.78.71-7.15.83-10.37.06-3.23.03-6.3,0-9.49-.07-6.37-.16-13.15.4-22.43l.36,22.55.69-5.55.18,9.94c.61-5.9,0-11.09.52-11.78.09,1.26-.09,4.27.18,4.38.43-5.68.08-6.14.17-10.42.26,5.65.16,14-.05,22.42-.39,8.41-.99,16.9-1.28,22.84-.06,1.87-.12-1.62-.2-1.95-.33,4.84-.81,7.73-1.13,13.83.03,1.91.17,1.19.36-.37.18-1.57.31-3.99.45-5.49.33.44.21,1.96,0,5.3-.56.68-1.96,18.31-2.98,22.56-.79,8.92-.41,8.25-.07,7.51.17-.37.33-.75.33.04.01.8-.17,2.77-.75,7.11l-1.17,5.13c-.78,10.13-1.87,23.24-3.61,34.6l.31-2.4c-.02-1.63-.52.99-.8,2.15-1.41,8.57-1.76,16.4-3.04,21.53-.87,9.87-2.77,26.28-4.2,37.51-.6,1.45-.19-2.22.4-6.84.56-4.63,1.29-10.22,1.4-12.58l-1.49,10.19c.92-6.3,1-8.83,1.14-12.67-1.46,8.91-1.21,11.95-2.33,20.43-.1-.69-.39.42-1,4.32l.31,1.18c-.05.07-.15.49-.37,1.69l-2.02,15.09c.7-3.16,1.14-3.25,1.75-7.14-.5,1.34-.04-1.96.56-5.85-.21,3.46.85-3.75,1.1-3.63-1.21,7.8-2.62,17.39-3.28,22.53l-.7,1.59c-1.27,7.41-2.25,15.29-3.17,20.31v-1.62c-1.52,8.89-2.59,17.71-4.24,25.55-.71,8.03-1.86,18.1-2.26,24.68.03,1.78-1.01,7.59-2.12,14.08-1.12,6.5-2.3,13.68-2.47,18.23-.13.6.37-6.23.63-9.31-.96,5.95-.84,10.8-1.71,12.59,2.02-13.37-.58.65.06-5.41-.84,6.28-1.62,12.91-1.82,16.01,1.37-10.15.35,3.72,1.48-6.59-.55,8.03-1.9,18.91-3.16,28.4-.25-.13-.51,1.03-1.04,4.56l.04,2.9c-.6,4.44.57-8.65-.63.28-.11,2.32-.4,5.21-.75,8.31-.35,3.1-.8,6.4-1.09,9.55-.64,6.29-1.15,11.95-.74,14.03-1.17,6.99.83-13.43-.79-2.89.19-6.21,1.46-14.67,1.15-16.76-.51,6.06-.75,2.15-1.16,6.05l-.29,6.78.17-1.49c-.27,5.69-.91,13-1.65,20.71-.2,1.92-.35,3.88-.48,5.84-.14,1.96-.29,3.92-.43,5.87-.27,3.9-.55,7.73-.8,11.35-.41,12.3.29,20.79-.44,35.48-.17-4.36-.86,12.2-1.12,2.92-.15,1.7-.26,3.4-.33,4.99-.07,1.59-.02,3.08,0,4.35.07,2.55.21,4.27.34,4.34.14-5.99.1-2.11.27-7.15.29,3.41.22,11.26-.02,14.48.03-1.49-.03-.93-.13-1.26-.27,7.15.29,3.43.38,8.6-.46,1.64-.28,11.41-.26,16.13l.83,6.83c-.52-3.75.03,6.56-.33,7.65.24,2.44.45,4.7.7,7.26.29,2.57.56,5.45.72,9.19-.4-3.07.07,6.83-.34,6.98.21,12.82,2.62,21.07,2.99,33.21-.13-.37-.61-2.78-.43.76.34,2.77.69,7.65,1.09,10.62l-.02-.09c.01.06.02.09.03.15.18,1.45.32,2.36.43,2.39.95,5.05,1.65,7.63,3.04,17.6.41-.79-.66-9.22-1.2-12.86l-.81-3.12c.43-3.1-1.1-9.02-1-11.35.63,2.97,1.47,8.77,2.24,15.13.81,6.36,1.54,13.27,2.44,18.42-.08-3.2-.35-8.24-.86-13.97-.48-5.74-1.2-12.17-1.8-18.17.03,1.77.15,3.54.23,5.31-.22-2.09-.46-4.18-.61-6.28-.02,2.04.02,4.09.07,6.13-.29-2.98-.53-5.75-.76-8.45-.23-2.7-.46-5.33-.7-8.02.53,6.3.07,8.82-.12,5.24-.11-7.07-.92-7.29-1.34-12.67.2,2.99.52,6.88.03,4.4-.15-5.32-.38-8.69-.59-11.93-.14-3.25-.25-6.38-.22-11.22-.74,1.24-.77-12.03-1.52-13.45l.19,4.48c-.33-3.16-.73-6.31-1-9.47.42-8.79.89,7.73.99-5.62-.25-12.29-1.11-11.96-1.42-21.63.55,3.18,1.19,10.84,1.38,18.64l.1-4.73c.17,1.24.32,4.56.44,8.24.05,1.84.1,3.77.15,5.58.06,1.81.17,3.49.23,4.83-1.06-8.86.07,4.17-.13,8.24.51.72.11-4.98.87,1.73-.35-6.31-.5-7.23-.71-15.27.32,8.68,1,12.56,1.57,16.16.61,3.6,1.1,6.92,1.41,14.5-.38-3.48-.46-2.86-.55-1.26-.04,1.6,0,4.17-.07,4.6.33,3.28.99,9.93,1.33,12.65l.47-2.53c1.04,8.78-.22,11.98,1.58,22.07.54,1.28-.8-8.95-.53-7.13.94,6.93,1.27,11.67,1.46,16.24.22,4.56.19,8.95.73,15.15.29.67.69.48,1.57,4.75-.57-1.31-.38,1.91-1.27-2.91.33,4.15,1.22,9,1.82,12.62-.81-8.62,1,3.44,1.44,4.99.47,4.46-.57-1.3-1.02-4.03.34,3.58.23,7.91,1.13,9.85-.45.2-2.35-9.84-3.27-16.45l.48,4.47c-.59-3.05-.6-3.63-1.07-8.08.2,4.38-.21,4-.64,3.02,0-.58.14.3.13-.25-.33-3.58-.78-6.31-.9-5.46-.96-3.15.25,5,.26,7.45.26,1.82.52,3.65.78,5.44l2.06,9.16,2.16,9.15c1.28,7.89,1.33,11.51,1.85,17.49l.72,1.56c.94,6.89,1.72,13.42.47,9.09.13-.27-.04-1.18-.23-2.67-.09-.19-.19-.53-.29-.96-.06-.14-.09-.21-.13-.33,1.23,7.35,1.99,11.95,2.06,12.37-2.51-12.43-.97-.5-2.14-2.47l2.1,12.62c-.83-7.71.39-.2.92,2.5-.37.82,1.51,10.19,2.11,14.64l-.15-.31c.44,4.13,1.56,11.33,2.45,16.44.13-.26,1.9,6.2,2.84,9.29-1.12-8.83-.16-3.63.04-4.38.11.92.34,2.55.43,2.73.32,1.24-.07-1.74.05-2.01-1.62-9.33-3.1-18.93-4.34-22.64.12,2.91,1.02,4.85,1.29,8.09-1.14-4.56-1.94-10.55-3.07-18.32l.03-2.6-1.36-7.78c.69,3.23.81,1.2,2.11,9.39.22-1.1-1.29-8.12-1.88-13.15l-.91-2.49c.44.94-1.04-9.8.46-2.23l2.23,12.35-.13-3.5,1.65,10.48-.65-2.44c2.87,16.81-.34,5.13,2.82,22.02,1.44,5.22,2.36,10.93,3.75,21.37-1.26-7.52-.57-.71-1.37-3.49.86,7.73,1.8,10.24,2.63,14.2-.06,2.01-.14,3.45-1.09-3.44-.84-.76,1.43,9.03.78,9.76,3.32,22.77,5.04,17.92,7.74,44.75l-.44-.96c1.32,8.46,2.08,15.17,2.89,21.72.4,3.27.79,6.51,1.21,9.91.37,3.41.77,6.98,1.25,10.92l.55,12.51c-.41-2.77-1.78-10.18-1.78-6.65.12-6.12-.78-12.52-1.13-19.06-.29-.64-.09,2.02-.1,3.19-.45-3.92-.36-5.93-1.13-11.09-.13.27.37,5.94-.24,1.69l-.39-7.1c-1.4-9.39-1.67-4.5-2.89-15.58.72,1.99,1.85,6.11,2.48,10.39-.53-5.07,1.09,6.71.77,2.06-.76-3.6-1.13-6.3-1.5-9.3-.41-2.99-.83-6.29-1.68-11.09.24,1.12.41,1.41.77,3.78l-1.64-14.05c.11,3.52-1.98-11.52-2.37-10.14,1.85,14.95,1.55,10.53,3.56,27.59-.78-4.8-2.18-10.94-3.08-13.78,0-.15-.01-.4-.08-.92-.89-2.53-.68.14-1.63.22,1.71,7.67,1.92,12.93,3.46,22.05.74,1.66,0-5.41-.77-9.94.47,2.68.98,5.34,1.42,8.03l-.43-1.56,2.35,20.54c-.51-3.88-.97-5.17-1.44-7.17.3,2.65.49,5.29.68,8.09.42-.64.82-.32,1.13,2.27.18,1.65.35,3.21.51,4.69.13,1.48.24,2.88.36,4.19.21,2.63.37,4.96.49,7.02.24,4.13.31,7.21.29,9.68.07.51.14,1.08.2,1.54.14-1.13.61,1.19,1.18,4.31.56,3.12,1.08,7.04,1.53,9.07-.54-.16.26,6.87.32,10.72.78,1.99,1.38-.79,1.48-5.5-1.31-8.94-.98-4.99-2.12-9.16l-.44-3.59-.51-3.58-1.02-7.15.82,3.16c-.55-7.19-1.91-14.01-1.23-13.55.82,3.74,1.23,10.03,2.04,13.74l-.27-4.77c1.48,8.31-.08,4.34,1.31,14.45.21-3.79.12.92.84,5.24.02-1.76-.34-6.24-.7-9.89-.36-3.65-.56-6.49.05-5.01,1.05,5.23.58,17.87,2.09,24.79l-.13-.33c.37,5.17.78,8.64,1.15,11.32.31,2.68.64,4.54.91,6.47-.03,4.43.74,10.48,1.06,15.26l-.27-.1.5,6.73c-.66-3.19-.45-7.9-.86-13.68l-.45.75c.18-6.71-.95-11.11-1.7-16.24.9,7.49,1.15,21.25,2.21,22.97l-.22,4.68c.1.74.21,1.48.28,2.22-.29,3.49-.88-.04-1.44-6.75.05-1.17.08-1.76.2-1.41-.4-3.11-.95-5.95-1.29-13.5l.5,4.01c-.27-4.7-.53-9.19-.92-12.89-.42-3.7-.83-6.62-1.21-8.2.24,3.39.48,6.76.71,10.11.17,3.36.35,6.69.52,10.01.34,6.62.79,13.13,1.08,19.51,1.22,3.72,1.97,8.16,3.06,10.06.22,4.29.45,9.35.61,14.27.1,2.46.08,4.89.07,7.16,0,2.28-.07,4.41-.17,6.27l-.2-.68c-.09,3.64-.06,6.99.03,9.78-.3,3.84-.53-2.63-.69.04.09,4.09.13,8.19.17,12.28-.43-.76-.28-11.09-.3-16,.03.93.1,2.8.16,2.2.26-5.71-.61-16.35.02-18.85-.2-2.78.65,5.65.42-3.78.07-6.32-.6-8.36-.82-9.01-.27-.1-.07,9.9-.49,6.44.09,2.45.23,4.17.35,6.05.1,1.89.12,3.95.03,7.09-.05-2.43-.18-5.3-.34-7.88-.16-2.58-.26-4.88-.09-6.18-.78-9.6-1.98-8.18-1.91-3.66.36-1.09,1,17.5,1.13,4.9.75,5.64.78,16,1.06,23.4l-.1-.34.03,9.19c-.12-1.3-.2-4.08-.47-4.17.19,4.24.37,8.49.5,12.74-.33-7.17-.41,4.43-.73,7.68.37,1.37.52,6.35.89,1.59.44-5.35-.12-3.12-.04-8l.46,6.92-.08.59.4,4.17c-.35,9.4-1.06-4.14-.98,7.91l.77-1.54c-.6,13.94-2.32,31.75-2.54,41.57-.25-2.73-.84-3.96-1.43-.26.36-4.22.78-12.73,1.02-18.8.18-1.16.47,7.63-.05,14.21,1.34-3.13.16-16.62,1.36-17.35,1.16-16.81-.56-12.6.63-26.87-.51-.21-.14-4.08-.58-4.84-.95,4.21-.58,19.11-1.32,28.36,0-.91,0-2.74-.08-3.1-.45,6.61-.47,9.35-.51,13.98l.09-.58c.1,8.1-.65,4.98-1.13,9.71-.02,1.85-.54,8.44-.09,7.4l-.99,8.57.61-.38c-.25,4.85-.7,5.89-.59,10.3l.51.23.88-12.02c-.18,6.11.41,1.73.13,8.44-.14-7.52-.6,5.28-1.13,5.99v4.94s-.06-1.27-.06-1.27c-.5,3.85-.08,4.61-.41,9.12.61-5.31,1.18-8.77,1.21-15.57,0,4.96-.24,14.77-.37,17.17-.08,5.2-.7,8.79-1.04,13.64.34-9.32-1.79,3.17-.31-15.47.08.35-.03,1.86-.13,2.44.82-2.45.62-11.18.6-15.24-.45,1.02-.3-3.22-.93,3.94.39-2.34.51,6.09-.21,12.9l-.76-1.25-.68,9.93.02-.93c-.75,3.71-.52,10.6-1.24,17.43,0,4.96-1.34,23.89,0,15.79-.88,6.11-.54,11.54-.82,18.24l.83-8.33c.01,9.91-.2,7.04.27,15-.27.79-.56,2.54-.71.92-.82,13.26-2.17,32.19-1.95,40.01-.59,9.35-1.64,10.75-2.05,23.91-.06,2.78.91-2.11.13,6.58-.1.58-.08-8.42-.63,1.28.19,6.95-1.44,16.2-1.66,25.24-.63,4.73-1.36,12.98-1.7,11.21.89-7.51,1.64-18.16,1.51-19.8.22,1.06.71-5.33.51.23,1.22-11.34.24-7.4,1.18-17.57-.15-.71-.89,5.2-.87,7.4-.66,0,.95-20.09-.44-11.1-.75,10.86.46,14.2-.99,23.59-.12-3.81.68-9.7.27-14.55l-.82,7.73.07,5.66-.08-.34c-.85,6.82-.97,9.99-.94,13.01.01,3.01.17,5.86-.32,12.01,1.23-7.05,1.01,1.77,1.87-3.54-.77,8.23-1.68,14.25-2.36,14.21.7-7.7.49-7.94.32-8.04-.2-.1-.37-.05.03-7.17-.49,2.3-.64-3.47-1.62,4.95-.62,9.55.92-2.78.01,6.72-.13.55-.27,1.12-.33.78-.19,4.4-.78,5.06-1.13,10.37l.05-1.27c-1.38,6.42-.59,7.17-1.99,12.66.9-2.13-.26,3.8-.57,7.3,1.19-5.6,2.58-8.51,4.18-19.73-.21-1.41-.55-.62-.11-5.25-.32,2.43-.62,4.86-.98,7.28.17-1.58.24-2.79.35-4.24.4-2.32.78-4.64,1.13-6.96-.86,8.9.08,4.89,0,8.72-1.37,8.09-.9,6.71-1.85,11.79-.24-.3-1.2,3.54-2.34,8.61-1.2,5.05-2.65,11.3-3.82,15.84.31-1.42.7-3.26.92-4.25,1.01-6.75-1.44,4.49-1.66,4.7l-.74,4.91c.16-.92.3-2.21-.23-.16-1.31,6.57-.65,6.33-1.97,12.88-.43.42.29-5.2-.76-1.18-.59,1.34-2.31,5.64-3.88,14.37-.01.64-.4,2.9-.88,5.52.06-.37.14-.82.15-.99l-1.53,5.69c.45-5.02,2.28-9.88,2.8-14.93l-.43-.53c.81-3.84,1.74-9.1,1.99-11.56-1.37,5.83-1.51,7.1-2.8,13.67-.52.85.22-3.82.33-4.49l.09,1.04c2.11-7.72,2.05-11.78,4.25-21.49.33-1.47.18-.56.21-.21,1.15-7.99,3.48-15.59,4.17-23.43l-.18,2.56c.76-5.29,2.04-15.64,2.82-26.02l-.19-.11c-.27,1.13.24-2.74.56-4.81h0c.36-5.19.66-10.2.87-14.29-.26,1.29-.51,2.95-.75,4.86.09,1.65-1.19,11.1-.5,9.87-.86,4.33-1.32,11.44-2.04,14.61,1.22-5.78-.07,4.14.02,5.21-.63,1.91-1.47,8.63-1.79,7.78-.33,1.12.83-2.8.98-5.32.27-3.09-.24-.3-.81,2.27-.56,2.58-1.08,4.97-.6,1.15-1.33,9.7-4.14,22.3-5.89,32.29l1.39-5.5c-1.02,4.38-3.18,14.81-3.58,15.55.66-3.28,1.5-7.1,2.32-11.3-.47-.32-2.18,10.05-2.61,10.44l-1.77,12.35,1.17-5.32c-.42,3.42-3.15,14.48-4.75,22.79.11-2.45.68-5.59,1.45-9.2.8-3.61,1.71-7.71,2.52-12.07,1.09-6.37-1.52,3.75-.4-2.26-.49,1.52-1.33,5.41-1.53,7.38l-.61,2.34c.43-5.49,3.2-17.4,4.37-25.45-.08.71-.14,1.33-.11,1.57,1.59-6.05,2.9-12.25,3.96-18.24-.86,3.11-.99,4.38-1.29,6.19-.21.19.93-5.44,1.16-7.6-1.31,5.5-.58.95-1.42,4.43.62-3.63,1.21-6.54,2.15-10.92.69-2.23-.04,1.95.37,1.55.36-2.28.81-3.9,1.27-5.8.46-1.89.98-4.05,1.35-7.4-.82,4.41-.92,3.79-.72,1.7.2-2.09.53-5.68.67-7.22l-.25,1.48c.05-2.86.4-5.24,1.01-7.13-.37,3.65-1.01,7.13-.47,6.16.34-2.4.7-4.78.95-7.52l-.06,2.51c.54-3.98,1.03-7.96,1.49-11.95-.12-1.94-.22-5.15-.56-6.86.62-2.84.76-6.87.91-9.61l.02,1.28c.82-5.26,1.51-17.09,1.27-18.11.59-3.78-.23,26.97,1.64.12.74-10.21-.51-6.43-.45-12.28,0,0,.08.34.18-.24.36-4.47.02-4.94.09-8.63-.31,2.68-.56,6.56-.51,7.82-.31-1.37.63-9.32.51-12.77.36,4.5.75-8.65.87-5.17.93-8.9.99-18.47.81-23.18,1.14-6.01.52-10.63,1.46-20.43-.11,1.51-.16,4.26-.36,6.37.17,5.63.86-10.17.8-1.52.03-1.85-.25-.15-.29,1.75-.14,3.31-.11,6.44.17,5.62l.91-7.98-.04,2.8,1.32-12.12c-.08-.34-.27.8-.37,1.38,1.1-14.08,1.71-30.22,2.51-42.57-1.26-2.4,1.19-30.44.92-40.47.24,2.7.86,4.2,1.25,2.57-.07,2.23.22,6.82-.19,11.86-.27.79-.89,7.01-.91,2.98-.66,13.96.72-1.85,1,2.3.77-15.46.49-24.58.73-34.35l.18-.24.11-7.38c-.44,6.01-1.21,5.67-.49-2.07v.94c.58-4.4.69-13.62,1.1-20.52l-.22-4.7c.39-6.91,1.25-7.17,1.86-9.39.54-10.84.05-17.12-.14-24.82.51-3.47.89-19.69,1.18-11.08-.19-9.78-2.12-7.82-1.03-24.55l.37,4.34c-.02-4-.09-8.42-.26-12.93-.21-4.5-.42-9.08-.62-13.38-.18-4.31-.35-8.34-.49-11.76-.13-3.42-.33-6.22-.33-8.07,1.62,5.84.16-20.04,1.19-22.98-.22.81-.83-5.19-1.05-6.05.04-1.33,0-3.53-.46-5.83.27,6.25-1.68-4.27-.16,7.6-.69-2.98-1.36-6.39-2-10.71-.32-2.16-.63-4.54-.93-7.21-.28-2.67-.59-5.62-.94-8.91l.55.15c.34,3.48.57,6.96.81,10.45.3-1.09.72,4.29,1.09,6.47-.67-9.72-.31-9.12,0-8.56.16.28.3.55.29-.5-.01-1.04-.12-3.4-.69-8.36-.54-1.88-.27-.66-.95-5.8.27,2.42.68,2.82.27-1.09l-.82-3.71c.14-7.02,1.78,11.41,1.77,5.44,1.32,7.62,2.61,20.91,3.07,18.37-.79-12.58-2.3-11.16-3.34-24.29l.14-1.42c-.68-4.59-1.22-5.28-1.77-7.77.13-.25.15-1.43-.15-4.39-1.63-7.68-2.39-12.82-4.01-19.88,2.87,18.98,1.6,16.33,4.14,35.96-.56-3.06-2.13-16.9-3.03-17.66l.55.12c-1.06-6.36-2.11-12.71-2.93-20.75l.9,4.86c-1.63-10.59-1.5-17.78-3.49-26.05.36,2.97.7,5.37,1.03,7.19-.98-5.44-1.85-12.31-2.57-18.26l-2.63-12.17c.27.07-.83-7.72.12-4.02-.88-8.91-2.25-12.96-3.15-18.06-.8-9.14,1.42,7.81,2.25,8.6-1.58-12.52-3.79-25.72-5.29-32.7.27,2.56.37,3.81.22,3.7.11-.4-.68-5.43-1.09-8.24l-.63-1.88c-.46-4.71-.17-4.08.68-.14-.6-4.48-2.04-9.71-2.23-14.38,1.54,7.57,2.62,17.35,3.47,21.28-2.68-15.9-1.39-16.19-4.73-36.36.13-.27.93,3.11.38-.79-1.42-9.01-1.04-2.26-1.82-5.03,1.21,6.92,1.47,10.19,1.62,14.29l-.54-1.82c.1-.3-.52-4.67-.56-5.98l-.72-1.04c.7.43.16-6.63-.86-12.08.35,5.61.16,4.11-.34,5.72-1.76-7.63-.64-8.8-2.5-17.38.29.62,1.46,8.17.73,1.61-.7-5.42-1.09-4.63-1.74-8.24,1.07,4.02,1.31,2.92,2.53,7.27,1.37,9.61.53,3.88,2.09,13.24l-.7-8.01c1.25,8.12,1.44,5.83,1.74,6.47-.75-6.98-1.3-9.57-1.8-11.54-.52-1.97-1-3.31-1.53-7.79-.94-4.27,1.06,8.4-.23,1.7-1.05-8.38-.6-1.86-2.09-11.23l.45,1.54c-.07-2.91-.85-5.7-1.33-9.03-.6-3.65-1.3,4.39-3.17-10.69.23.72.36.98.42.97,2.07,4.72,4.06,9.45,6.2,14.14-1.95-15.23-4.04-32.82-5.49-50.55.42-4.25,2.02,12.55,2.3,11.43.23,2.69.42,5.39.69,8.08-.45-.41-1.89-16.88-1.78-9.53.42,3.56.77,6.63,1.1,9.44.35,2.81.67,5.37.98,7.91.64,5.07,1.33,10.05,2.52,16.74.35-4.3-2.33-17.74-2.71-26.59.37,3.69.86,6.79,1.34,9.79-.96-8.24-1.71-17.09-2.56-26.48l-.43-2.09c.57,6.33.95,10.72.98,11.29-.8-8.39-2.02-15.42-2.7-15.92l.13,1.49-.51-3.01c-.18-1.97-.31-3.95-.42-5.91ZM59.03,56.6c.02.52.06.92.13,1.23-.07-.31-.15.03-.13-1.23Zm-23.9,706.87c-1.54-11.14-3.09-22.38-4.56-33.09,1.63,19.48,2.71,33.18-2.04.97l-.4-2.1c.47,4.23,1.53,11.49,2.63,18.31.65,2.73,2.03,8.49,3.24,13.55.63,2.52,1.21,4.87,1.63,6.58.43,1.7.72,2.76.75,2.71.05-2.01-.75-4.81-1.17-8.38l-.08,1.44Zm-.89,8.21c.78,6.33.84,4.85,1.23,5.8-.35-2.22-.71-4.43-1.06-6.62.06.85.04,1.27-.17.82Zm1.42,5.38c-.1-.71-.17-1.32-.19-1.64l.19,1.64Zm-17.22-122.79c.04.28.06.38.09.65-.16-1.5-.33-3-.5-4.56.03.61.14,1.77.4,3.92Zm1.06,12.91l.65,1.44c-.17-1.39-.35-2.82-.52-4.27-.14.51-.25,1.03-.13,2.83Zm4.26,41.41c.91,2.52,2.19,11.21,2.9,11.65.24.53.03-1.31-.22-3.36-.31-2.29-.65-4.74-1-7.33-.1-.08-.26-.58-.47-1.43.29,2.57.38,4.3-.15,3.32-.11-6.7-1.44-5.81-2.25-12.96-.76-2.2.7,7.98,1.19,10.12Zm16.12,549.92c-.07.2-.26.89-.52,1.86l.07-5.07c.78-8.99,2.13-16.15,1.84-24.31.42-3.79.95-5.79,1.41-7.72-.13,1.86-.27,3.59-.41,5.04-.11,11.41-.61,14.36-1.11,16.75-.51,2.4-1,4.24-1.28,13.45Zm7.4-103.56c-.02.93.07,1.27.07,1.27.03-20.21.67-36.81,1.36-47.67-.58,2.08-1.51,11.8-1.97,16.41l-.28-4.13.56-2.54-.06-7.14c-.47,1.97-.73,7.72-1.23,11.54.08.34-.04,12.68.08,16.13l.94-9.81c-.3,2.64-.95,15.69-1.12,20.87.26.12,1.18-8.77.68-9.92.45-1.04-.15,9.23.65,2.76-.04,7.72-1.1,19.95-1.63,25.62l-.71.92c-.62,6.22.54,4.26-.28,11.64.41-9.11-.8,1.5-.43-5.75-.38,2.3-.69,0-1.07,7.27.51,6.09-.99,7.62-.57,13.37-.49,3.8-.28-4.14-.83,3.37-.05,8.64.3,8.16.9,8.73.65-8.04-.28-9.1.26-15.67l.3,13.16c.29-2.41.41-4.19.46-5.69-.09,2.64-.07,4.88.04,6.81.05,1.1.1,2.11.14,3.04.44-7.42.85-14.02,1.18-15.17l.24,1.04c.43-2.61.47-6.91.36-8.9.36-6.65.32-13.32.8-14.74l.13,2.54c.39-8.18.41-9.1,1.01-19.38Zm3.86-268.21c-.35,2.53-.65,5.17-.6,10.07.03,2.45.14,5.46.38,9.29.12,1.92.27,4.04.46,6.41.15,2.37.32,4.98.51,7.87l-.18-1.81c-.05,11.68,2.44,22.65,1.93,36.87-.63-6.87-.56-6.5-1.78-14.05.21,2.45.36,4.91.55,7.36-.67-2.02-.14,5.32,0,10.73l-.86-4.75c.11-3.25-.06-11.67-.22-11.41.25,1.84.29-11.14-.33-18.17-.45.76.63,15.58-.56,9,.66,5.82.31,6.56.63,12.66-.52-5.84-.68-1.42-1.22-5.76.21,3.33.32,6.66.49,9.99-.16.26-.79-14.55-1.15-6.33.37,3.99.37,14.7.9,14.88l-.15.25c.09,7.49.89,3.28.77,12.49.26.11.46-1.65.29-4.95-.2-2.79-.58-3.21-.82-8.94.34-2.59.15,6.93.73,2.92.29-1.99-.75-15.15.16-10.98l.11,7.49c.53.18.66,5.61,1.09,5.44.17,2.29.13,4.52.13,6.76-.04,2.24-.06,4.49.19,6.83.35,1.94.98-1.46.71,6.3-.39,3.03-.58,9.01-.73,15.06-.11,6.06-.22,12.19-.28,15.54l.15,5.86c.36-.49.29-11.19.6-7.42l-.16,9.14-.18-.71c-.14,3.02-.05,6.13-.04,8.89-.27-2.86.13-9.43-.47-8.14-.26,4.28-.5,4.93-.54,8.87,0-.86-.03-1.6-.11-1.5-.59,8.66.26,8.4.35,10.58.32,8.76,1.06-8.76,1.56-7.63-.25,8.5-.57,17-.91,25.49-.06-2.18-.12-4.38-.39-3.57-.59,6.23-.43.12-.88,8.89.79-.58-.14,11.07-.08,17.29-.48,2.88-.57,3.47-.21-2.86-.53.7-.84,9.2-1.06,12.22.02,1.76-.09,4.75-.09,6.64.39-2.52.63-1.42.52,4.08l.08.33c.66-8.98,2.02-22.93,1.84-28.6l.15,1.61c1.02-10.39.36-22.71,1.52-27.47.34.46.18-2.09.7-1.88l-.06-7.69.17,1.61.41-13.07.09.35c-.25-6.23-.49-11.1-.71-14.99-.23-.02-.31.38-.42-1.69-.07-2.08-.05-3.65,0-5.06,0-.01,0-.01,0-.01h0c.14-3.2.49-5.33.69-9.28-.03,4.05-.08,8.1-.16,12.15.37,1,.8-.02,1.2-5.98-.03,2.44.25,3.46.36.45-.09-.33-.13-7.97-.49-5.07.01-5.77.29-13.33.35-21.65.08-4.16-.06-8.5-.19-12.9-.14-4.4-.35-8.86-.66-13.23.82,12.59.22-10.12.8,3.87.17-4.9-.05-6.99-.33-9.11-.3-2.11-.74-4.24-.98-9.21.17-.86.29,5.41.87,7.67-.36-8.27-1.03-15.23-1.7-22.12-.17-1.72-.33-3.44-.5-5.17-.2-1.73-.39-3.47-.6-5.25-.39-3.56-.74-7.25-1.04-11.24l.43-.72c-.32-3.01-.67-6.36-1.04-9.84Zm-3.93-31.41c-.43-3.05-.87-6.14-1.31-9.28.03.31.06.59.1.92l-1.52-9.13c.5,5.66.43,9.44-.79,1.58.28.64.24-1.7.7,1.03-.18-2.66-.56-6.9-.93-10.09-.38-3.19-.81-5.31-.96-3.75,2,10.06-.62,2.49.88,10.4-1-4.22-1.29-8.49-2.08-12.5.97,4.15.77-1.1.1-7.44-.49-2.73-1.39-10.19-2.2-14.73-.22,1.69-1.02-2.25-.12,5.21-.49-2.71-1.14-6.93-1.61-11.69.35,1.86.87,5.13,1,4.89-.03-3.11-.56-6.68-.67-8.68-.25-1.57-.5-3.15-.75-4.69.03.47.03.87.01,1.17l-1.15-5.17c1.21,6.93.26,3.25-.02,3.2.55.11-.58-4.49-.94-6.87l.2,5.25c-.64-2.46-.88-8.89-1.23-7.5,1.36,11.01,2.08,15.21,3.65,25.12l-.14-4.09c1.87,11.17.21,7.02,1.95,19.59.55,2.59,1.2,7.32,1.81,11.42.56,4.11,1.1,7.58,1.51,7.67-.43-1.55.27,7.93,1.15,12.2.63,2.34,1.49,7.12,2,10.77.54,3.65.92,6.16.85,3.95-.2-1.95-.54-4.24-.81-6.43-.29-2.19-.54-4.29-.5-5.88.35,2.52.75,5.03,1.04,7.56-.03-1.67-.1-3.35-.18-5.02.17,2.58.53,2.29.96,1.04Zm-19.38-169.68c0-.08-.02-.19-.03-.29.01.11.03.22.04.32v-.03Z"/>
      <path class="cls-1" d="m23.6,1370.14c-.28,2.18-1.39,7.48-.8,6.52-.45.04,1.9-9.48.8-6.52Z"/>
      <path class="cls-1" d="m21.89,1376.4c.02.39.24.17-.24,2.55l1.24-6.58-1,4.03Z"/>
      <path class="cls-1" d="m17.7,1382.5c-.32,3.47-.62,5.64-1.54,11.01-.68.92-.38-1.29.03-4.06.45-2.76,1.03-6.06.79-7.37-.49,2.45-.84,4.48-1.11,6.28-.26,1.8-.4,3.38-.55,4.9-.15,1.52-.29,2.98-.45,4.58-.17,1.59-.32,3.32-.61,5.36.85-4.01,4.14-20.26,3.45-20.7Z"/>
      <path class="cls-1" d="m17.26,1377.9c-.31,1.82-.56,3.67-.83,5.5l.16-.53c.27-1.84.54-3.67.84-5.5l-.17.53Z"/>
      <path class="cls-1" d="m45.73,1261.01c.36-.47.31-3.95.36-5.81-.13,1.5-.37,3.6-.36,5.81Z"/>
      <path class="cls-1" d="m51.09,180.93c.96-6.98,1.98-13.94,2.88-20.92l2.67-20.97c-1.56,12.06-2.93,23.21-5.55,41.89Z"/>
      <path class="cls-1" d="m52.07,1121.12c-.36,11.32-.09,16.37-.63,27.9,1.54-15.1.16-20.06,1.57-32.74l-.94,4.84Z"/>
      <path class="cls-1" d="m54.42,1125.26c-.72,1.84-.2-8.76-.75-7.15-.3,7.63.37,3.58-.09,10.49l.83-3.34Z"/>
      <polygon class="cls-1" points="41.31 1175.88 41.19 1172.44 41.15 1175.2 41.31 1175.88"/>
      <polygon class="cls-1" points="56.9 1073.71 56.96 1074.97 57.48 1069.3 56.9 1073.71"/>
      <path class="cls-1" d="m57.03,1076.22l-.07-1.26.07,1.26Z"/>
      <polygon class="cls-1" points="40.26 1171.4 39.83 1176.49 39.96 1179.02 40.26 1171.4"/>
      <path class="cls-1" d="m46.18,1126.64l-.07,4.57c.02-.91.63-7.13.07-4.57Z"/>
      <polygon class="cls-1" points="58.97 1039.03 58.97 1033.45 58.89 1034.02 58.88 1039.58 58.97 1039.03"/>
      <path class="cls-1" d="m46.59,1090.87c-.65,3.12.41-9.1-.39-2.65-.27,5.77.12,3.44.39,2.65Z"/>
      <path class="cls-1" d="m53.21,1024.15c.03-.75.04-1.54.01-2.3,0,.91,0,1.67-.01,2.3Z"/>
      <path class="cls-1" d="m53.21,1024.15c-.09,2.42-.37,4.82-.29,6.49.33-3,.29-4.1.29-6.49Z"/>
      <path class="cls-1" d="m53.82,996.46l-.07,2.19c-.2-2.24-.18-1.18-.02.82-.02,2.32.12,2.19.22,2.47.05.47.1.93.15,1.43-.05-.72-.09-1.36-.13-1.91.07-3.6.07-5.8-.15-5.01Z"/>
      <path class="cls-1" d="m57.55,893.02c.51,8.13.61,10.24.21,9.83.53,7.71,1.08,6.47,1.58,11.11-.76-8.72-.78-10.51-1.78-20.94Z"/>
      <path class="cls-1" d="m59.34,913.96c.07.98.13,1.91.21,3.05-.06-1.27-.14-2.21-.21-3.05Z"/>
      <polygon class="cls-1" points="48.93 1028.66 48.57 1023.62 48.58 1025.47 48.93 1028.66"/>
      <path class="cls-1" d="m56.64,880.96c.13,1.5.42,3.91.38,5.11.44.39-.51-6.61-.38-5.11Z"/>
      <path class="cls-1" d="m52.23,912.79c-.14.83.28,6,.32,8.11-.14-3.02.41-5.54-.32-8.11Z"/>
      <path class="cls-1" d="m52.68,857.91c.14,1.5.14,3.83-.27,2.87.41,2.16,1.36,5.04.27-2.87Z"/>
      <polygon class="cls-1" points="51.04 898.03 51.02 899.2 51.72 904.7 51.04 898.03"/>
      <path class="cls-1" d="m47.23,918.12c.8,6.17.47-9.9,1.47.75-.16-6.91-.38-6.63-.5-5.9-.14.73-.29,1.91-.69-3.16.09,1.49.14,2.79.16,3.89,0,1.11-.04,2.01-.09,2.72-.1,1.41-.24,2-.35,1.7Z"/>
      <path class="cls-1" d="m47.51,909.8c-.05-.87-.12-1.8-.2-2.82.08,1.12.14,2.03.2,2.82Z"/>
      <path class="cls-1" d="m40.86,822.45c.17.89.3,1.5.43,2.06-.13-.7-.27-1.37-.43-2.06Z"/>
      <path class="cls-1" d="m44.23,877.45c.53,3.07,1.11,6.13,1.61,9.2-1.05-6.15-2.7-21.72-3.24-20.68.4,5.05,1.22,11.1,1.76,13.56l-.14-2.08Z"/>
      <path class="cls-1" d="m42.2,769.58l.84,3.96-.66-5c.12,1.44-.74-1.07-.18,1.04Z"/>
      <path class="cls-1" d="m42.25,767.57l.13.97c-.02-.21-.05-.52-.13-.97Z"/>
      <path class="cls-1" d="m43.41,839.93c.32,3,.63,5.39,1.09,8.11-.02-1.15-.82-8.62-1.09-8.11Z"/>
      <polygon class="cls-1" points="37.09 741.59 38.17 748.16 37.06 740.98 37.09 741.59"/>
      <polygon class="cls-1" points="33.65 710.69 33.6 709.54 32.59 704.11 32.63 705.28 33.65 710.69"/>
      <path class="cls-1" d="m26.91,752.78c.59,4.48,1.69,7.88,1.64,6.69l-1.31-8.66c-.18,2.28.37,2.4.99,7.44l-1.32-5.48Z"/>
      <path class="cls-1" d="m14.83,482.22c.15,1.95-.07,11.45-.4,11.95-.13-1.28-.23-6.44-.46-3.2l.78,7.54c-.6,10.01-1.05-7.62-1.3-12.58-.19,10.21.34,13.24.25,24.09.1-3.2.33-5.22.52-6.91.3-.18.36,2.25.35,5.64-.02,1.69-.04,3.62-.06,5.58-.01,1.96-.08,3.94.01,5.75.18-4.6.41-1.94.74,1.4.03.6.08,1,.13,1.28.04.39.08.76.11,1.13l-.02-.87c.07.06.14-.13.24-.76-.08-1.51-.14-2.94-.13-4.28.03-1.35.09-2.61.15-3.82.12-2.4.26-4.53.28-6.48-.99,3.85-.12-13.27-.38-18.17-.02-1.89-.05-3.77.02-5.66l.09-2.12c.12-.42.23.18.28,3.42-.07-2.7.37-11.68.03-10.86l.86-20.51c.08-.64.18-1.27.28-1.74,0-.71-.05-.83-.11-.74,1.11-14.88,1.97-29.77,3.59-44.63l1.09-11.15.54-5.57c.19-1.86.43-3.71.65-5.57l2.64-22.27c-.6,4.38-1.27,8.16-1.91,12.68.18-6.88-1,7.42-1.36,5.35.15-3.08.75-7.55,1.21-10.2-.18-1.03-.9,2.74-1.21,2.26-.86,5.6-.98,8.88-1.07,12.12-.04,1.62-.1,3.23-.21,5.13-.09,1.9-.25,4.07-.57,6.82-.32-.47-.3-3.91-.96,3.3l.1-1.84c-.73,11.58-1.7,8.92-1.42,16.27l-.51-.24c-.03,1.32-.11,2.94-.23,4.73-.06.89-.13,1.83-.2,2.78-.05.96-.11,1.93-.16,2.92-.24,3.93-.49,7.92-.67,10.79l-.08-.35c-.28,8.08-.42,10.35-.61,12.86-.18,2.51-.53,5.26-.73,14.33l-.26-8.37c-.53,6.24.09,7.69-.18,12.17-.09-.33-.52.7-.43-3.55v22.03c.19,5.25.43-1.05.69-1.86Z"/>
      <path class="cls-1" d="m13.7,510.01c-.04,1.16-.06,2.49-.05,4.05.02-1.51.04-2.8.05-4.05Z"/>
      <path class="cls-1" d="m26.36,355.85c-.29,2.08-.5,4.17-.76,6.26.27-1.93.49-3.96.76-6.26Z"/>
      <path class="cls-1" d="m15.41,541.47c.17-3.82.46,2.84.68,3.49l-.38-13.62c-.2.07-.47-1.28-.64-1l.35,11.13Z"/>
      <path class="cls-1" d="m15.99,527.39c-.15-.46-.32-1.9-.48-3.51l.21,7.46c.15-.05.27-.89.27-3.95Z"/>
      <polygon class="cls-1" points="5.19 529.08 5.11 526.63 4.85 522.95 5.19 529.08"/>
      <path class="cls-1" d="m6.01,490.92c-.33,2.91-.14,8.44-.08,10.29.04-6.37.14-3.61.08-10.29Z"/>
      <polygon class="cls-1" points="2.65 498.75 2.52 492.59 2.46 493.16 2.65 498.75"/>
      <path class="cls-1" d="m30.74,309.35c.13-.99.26-1.96.4-2.96-.2,1.35-.32,2.24-.4,2.96Z"/>
      <path class="cls-1" d="m24.1,361.36c2.31-14.38-.64,9.53.65,5.08l.69-7.89.12.69c.34-3.2.8-6.39,1.2-9.59-.61,1.92-.83,3.4-1.14,2.92,1.87-12.77.98-3.98,2.7-13.3l1.87-14.3-.05,1.17c.15-1.21.18-1.74.19-2.16,2.29-16.06,4.52-32.12,6.97-48.18,1.06-8.8-1.4,4.74-.93-1.8-.81,5.07-1.82,11.38-2.65,16.52-.79,5.15-1.27,9.15-.98,9.64-.05-.36-.15-1.06-.54.99l-.27,5.96,1.01-5.57c-.25,5.99-3.27,25.03-4.02,28.44.62-5.44.6-6.82.73-8.73.12-1.91.4-4.33,1.7-11.86-.28.65-1.01,3.37-.61-.05-.62,4.43-1.23,8.75-1.83,13.01-.62,4.27-1.16,8.49-1.73,12.73-.56,4.24-1.12,8.5-1.65,12.86-.52,4.36-1.07,8.8-1.43,13.41Z"/>
      <path class="cls-1" d="m50.12,183.61l.04.15c.01-.33,0-.43-.04-.15Z"/>
      <path class="cls-1" d="m49.16,189.56l-.58,8.76,1.94-13.5-.35-1.05c-.05,1.21-.49,5.98-.96,7.79l-.05-1.99Z"/>
      <path class="cls-1" d="m47.46,208.41c.86-6.99.22-6.7-.63-2.95.71-6.43,1.15-3.28,1.21-7.77-.44.08-1.41,7.99-1.61,9.81l1.03.9Z"/>
      <polygon class="cls-1" points="39.18 259.67 39.24 257.67 38.43 262.48 39.18 259.67"/>
      <path class="cls-1" d="m39.24,257.67l.81-4.77c-.23.3-.46.6-.7,1.36l-.11,3.41Z"/>
      <path class="cls-1" d="m42.18,240.39c.36-2.02.74-4.25,1.18-6.97l-1.18,6.97Z"/>
      <path class="cls-1" d="m41.18,245.83l.1-.15.9-5.29c-.36,1.95-.68,3.69-1,5.44Z"/>
      <path class="cls-1" d="m40.05,252.9c.53-.71,1.1-1.55,2.07-8.48l-.84,1.26-1.23,7.22Z"/>
      <path class="cls-1" d="m4.72,454.02c0-1.86.1-3.7.14-5.56l-.11.58c-.04,1.85-.15,3.7-.12,5.55l.09-.58Z"/>
      <path class="cls-1" d="m7.38,422.09c.02-1.37.04-2.42.06-3.36-.11,1.44-.12,2.59-.06,3.36Z"/>
      <path class="cls-1" d="m6.86,398.11c1.05-6.46-.33,9.03,1.03-3,.49-1.02.43,4.67-.32,10.32-.32-.48.31-5.55-.4-2.1.05,3.81-.38,5.21.3,3.95-.28,6.37.04,7.11-.03,11.43.53-7.67,2.59-23.69,2.95-33.46-.02-5.41-1.3-2.28-2.25-2.4-.14.39-.73,4.04-1.03,7.69-.33,3.65-.56,7.27-.27,7.56Z"/>
      <path class="cls-1" d="m4.91,408.26c-.34,3.01-.39,3.93-.5,5.79.37-.47.27-3.35.5-5.79Z"/>
      <path class="cls-1" d="m20.06,340.17c-.06-.59.51-6.01.12-4.88l-.94,8.21c.28-1.92.54-2.57.82-3.33Z"/>
      <path class="cls-1" d="m18.83,347.1l.41-3.6c-.13.9-.26,2.01-.41,3.6Z"/>
      <path class="cls-1" d="m20.2,339.79c-.05.13-.09.24-.14.38.01.12.05.1.14-.38Z"/>
      <path class="cls-1" d="m45.49,220.62c.24.16.65-3.51.85-5.35-.25,1.48-.66,3.56-.85,5.35Z"/>
      <path class="cls-1" d="m62.82,82.84l.52-3.23c-.24,1.14-.35,1.72-.52,3.23Z"/>
      <path class="cls-1" d="m59.73,32.27c-.05-.1-.08-.34-.11-.66.02.33.05.55.11.66Z"/>
      <path class="cls-1" d="m59.63,31.61c-.12-2.23.5-9.05.27-11.52l.09.32v-4.58c-.16,4.29-.57,13.29-.36,15.79Z"/>
    </g>
  </g>
</svg>