<?xml version="1.0" encoding="UTF-8"?>
<svg id="Layer_2" data-name="Layer 2" xmlns="http://www.w3.org/2000/svg" viewBox="0 0 48.27 1472.88">
  <defs>
    <style>
      .cls-1 {
        fill: #ffa520;
      }
    </style>
  </defs>
  <g id="Layer_1-2" data-name="Layer 1">
    <g>
      <path class="cls-1" d="m6.44,1436.56c-.26,3.33-.85,6.21-.87,4.94-.27,6.81-.71,6.92-.07,7.87-.06,4.38-.99,8.98-.82,4l-.75,12.59.83-7.49c.41,2.1-1.32,11.97-.85,14.41l1.23-13.59.14.7c.08-3.11.74-9.11,1.03-11.2.07.34.25.14.04,2.54,1.61-16.39-.64-4.52.46-18.14-.07.85-.18,1.91-.37,3.36Z"/>
      <path class="cls-1" d="m9.24,1422.77l-.21-5.79,1.11-9.58c-.25-.13.2-7.14-.48-2.43-.05.93-.14,2.77-.31,4.24-.46-1.12.93-12.79.09-10.02-.57,7.6-.81,8.76-.79,13.47-.72,6.95-1.33,12.01-1.84,15.23-.11,2.07.21,2.4.03,5.03.05-.58.09-1.11.15-1.78l.88-.2c.03-2.21.31-4.27.52-6.7l-.08,11.33c1.14-3.55,1.72-14.63,2.47-19-1.24,5.4.06-4.39-1.54,6.21Z"/>
      <path class="cls-1" d="m6.84,1432.92c0,.07-.02.19-.02.28,0-.08.02-.2.02-.28Z"/>
      <path class="cls-1" d="m11.84,593.01c.16-2.4,0-3.12-.07-3.47-.61,9-1.22,18.01-1.63,27.02.27-.84.94-8.61.81-3.4.34-2.31.56-9.38.33-10.42l.22,1.98c-.04-6.25,1.09-10.44,1.09-6.37l.03-.52c-.22-5.78-.32-11.56-.44-17.34-.59,6.32.19,4.91-.34,12.53Z"/>
      <path class="cls-1" d="m35.05,39.52c.22,3.49.31,3.92.38,3.52-.11-1.25-.23-2.44-.38-3.52Z"/>
      <path class="cls-1" d="m12.12,576.42l-.07-5.44c-.05,2.17-.01,4.08.07,5.44Z"/>
      <path class="cls-1" d="m17.6,614.26s.05.07.09-.07l-.15-2.43s0,.05,0,.06c.02.89.04,1.69.06,2.43Z"/>
      <path class="cls-1" d="m21.85,454.24c.04-.58.07-1.08.11-1.77-.04.64-.08,1.22-.11,1.77Z"/>
      <path class="cls-1" d="m19.01,687.09c-.24-3.98-.37-7.95-.55-11.93.24,1.59.17-4.17.45-1.65-.04-.91-.13-5.17-.25-4.01v2.44c-.68-6.3-.95-2.49-1.36-12.94-.5,6.48-.18,9.33.16,12.77.04,1.17.07,2.14.1,3.13.33,3.31.63,6.62.99,9.93l.47,2.28Z"/>
      <path class="cls-1" d="m41.66,206.77l.05.13c-.02-.12-.04-.14-.05-.13Z"/>
      <path class="cls-1" d="m41.93,207.43l-.22-.53c.11.65.2,3.12.22.53Z"/>
      <path class="cls-1" d="m12.41,578.44c-.12-.17-.22-.88-.29-2.02l.06,4.06c.06-.57.15-1.32.22-2.04Z"/>
      <path class="cls-1" d="m13.22,587.71c-.22,3.37-.42,6.74-.59,10.11l.13,3.75c.13-3.88.28-8.41.47-13.86Z"/>
      <path class="cls-1" d="m19.99,470.09c1.83-20.84.34,5.19,1.43-4.36.44-5.79.25-7.87.42-11.49-1.13,16.56-1.05-2.35-2.38,14.33-.48-2.43.37-12.08,1-17.72,1.21-6.34.03,5.64.57,7.15.45-6.7.23-5.53.09-8.4,1.02-10.49,1.03-21.79,2.39-28,.41-7.62.05-7.14.02-11.54-.66-.92-1.22,11.28-2,14.06.1-.58.31-1.71.39-1.37-.22,2.19-.41,4.38-.66,6.56.76-6.22.66.92.43,4.26-.19,2.43-.56,7.25-.7,6.57l.15-3.68c-.62,4.71-.34,10.47-1.15,15.43-.19.25-.1-1.65-.18-1.94.01,2.82-.09,5.57-.26,8.66-.19,3.09-.43,6.51-.64,10.66l-.27-4.86c.16,6.69-1.39,21.66-2.88,31.99.24-1.14.53-3.21.54-1.95-.44,6.12-1.4,10.68-1.49,7.81,0,6.02-2.83,22.67-2.87,30.89-.04,12.6-.04,25.22.11,37.84.03-1.41.08-2.92.19-4.48.94-3.35,1.03-5.19,1.09.83.2-5.89-.53-3.7.27-12.51,0,3.48.63,4.42,1.51-4,1.4-21.13,1.11-35.26,2.16-54.98.58-.67,1.91-16.1,2.71-23.58.26,2.91-.11,8.48-.54,14.26.35-3.62.97-9.85,1.42-14.47l-.85-1.98Z"/>
      <path class="cls-1" d="m16.84,519.06c.1-.52.18-1.06.26-1.62-.07.29-.15.78-.26,1.62Z"/>
      <path class="cls-1" d="m19.25,488.3c.01.07.03.05.05.08.04-.61.09-1.21.13-1.83-.06.62-.13,1.32-.18,1.76Z"/>
      <path class="cls-1" d="m13.92,573.59c.01,1.26.02,2.19.04,3.46.03-.77.06-1.75.09-2.68,0-.89-.02-1.32-.13-.78Z"/>
      <path class="cls-1" d="m12.71,577.74l-.15-.69c-.06.54-.1.91-.16,1.39.1.15.2,0,.3-.7Z"/>
      <path class="cls-1" d="m30.76,390.71l.02-2.01c-.07,1.21-.06,1.73-.02,2.01Z"/>
      <path class="cls-1" d="m22.88,446.95c-.56,7.25.65.93-.2,11.19l.3-3.01c-.32,7.39-1.71,20.3-2.48,29.04-.2-1.01-.85,5.27-1.2,4.2-.48,5.98-.98,11.91-.82,15.03-.53,3.68-.69,9.35-1.37,14.04.47-1.96.23,6.8,1.07-4.69-.06.93.06.35,0,1.27,1.13-7.34.79-10.36,1.42-16.72.65-3.77-.19,6.26.28,2.68.58-7.96,2.71-24.87,1.66-24.44.47-5.78.76-6.56,1.11-8.26-.06-2.31.14-5.58.45-9.19.27-3.61.65-7.56,1-11.22.69-7.32,1.25-13.5.56-13.51-.22,3.34-.71,8.78-.82,13.7l-.95-.11Z"/>
      <path class="cls-1" d="m14.92,561.38c.05-.45.11-1.04.14-1.41-.04.42-.09.94-.14,1.41Z"/>
      <path class="cls-1" d="m5.63,653.23l-.82-3.08c.08-4.36.15-8.03.21-11.31.1-3.28.24-6.18.36-9.01.22-5.66.56-11.05.94-18.67.18-1.16.17.7.16,1.64.44-10.72,1.73-26.72,1.99-34.52.28-3.4,1.34-12.29,1.31-8.89.06-1.66.15-3.55.35-5.45.37-.47-.29,4.25-.03,4.39.15-1.5.27-2.08.2-2.44.06,2.56,1.32-2.53.29,9.28-1.14,4.51.6-8.2-.45-5.57-.34,3.92.02,3.49.09,3.83-.43,4.99-.63,4.85-.8,4.56.1,1.94-.76,8.2-.55,10.87-.64,9.74-.6-.58-1.03,5.78l.61,3.72-.82,10.57c-.48,15.33,1.56-2.11,1.17,15.41-.35-2.32-1.37,4.67-1.86,12.81.17-4.88-.1-13.92.52-20.2-1.12,8.84.54-12.22-.45-7.65.16,4.41-.23,11.72-.63,17.42v-1.87c-.17,3.03-.07,5.71-.02,8.67.03,1.48.04,3.03.01,4.74,0,1.7-.07,3.56-.2,5.65-.08,4.16-.3,3.38-.48,2.64.04,3.53.12,6.68-.07,6.69Zm.06-9.08l.23-5.57c-.17,1.32-.22,3.4-.23,5.57Z"/>
      <path class="cls-1" d="m16.49,1345.56c-.07.55-.16,1.18-.23,1.67.07-.36.15-1,.23-1.67Z"/>
      <path class="cls-1" d="m28.92,854.8l.44,3.18c-.15-1.24-.3-2.26-.44-3.18Z"/>
      <path class="cls-1" d="m42.18,925.81l.8,4.66c-.25-1.85-.51-3.29-.8-4.66Z"/>
      <path class="cls-1" d="m20.18,1307.44l.02-.16c0-.26.02-.46.03-.74l-.05.9Z"/>
      <path class="cls-1" d="m43.57,1071.33c-.13.71-.26,1.51-.4,2.6.09-.12.23-1.1.4-2.6Z"/>
      <path class="cls-1" d="m42.04,924.95c0,.12.01.19.02.29.04.18.08.38.13.57l-.15-.86Z"/>
      <path class="cls-1" d="m27.1,823.12c-.11-.68-.22-1.29-.34-2.02.14.95.24,1.54.34,2.02Z"/>
      <path class="cls-1" d="m25.28,827.89c-.11-.73-.23-1.42-.33-1.96l.33,1.96Z"/>
      <path class="cls-1" d="m17.97,717.58l-.28-4.29c.09,2.11.19,3.37.28,4.29Z"/>
      <path class="cls-1" d="m24.42,816.51c-.07-.24-.13-.49-.19-.65.09.59.17.86.19.65Z"/>
      <path class="cls-1" d="m11.37,1372.67c0-.1.02-.2.02-.26l-.09-.12.07.38Z"/>
      <path class="cls-1" d="m11.6,1383.26c-.09,1.24-.19,2.52-.29,3.79.14-1.4.24-2.77.29-3.79Z"/>
      <path class="cls-1" d="m36.44,1133.81c-.23,1.13-.63,3.79-.65,2.53-.03,2.2.41,2.09.65-2.53Z"/>
      <path class="cls-1" d="m8.08,1351.19c.05.7.05,1.56.06,2.42.03-1.61.06-3.01-.06-2.42Z"/>
      <path class="cls-1" d="m8.14,1353.61c-.01.79-.02,1.64-.03,2.35.02-.83.03-1.62.03-2.35Z"/>
      <path class="cls-1" d="m32.19,1104.15c.08-.28.17-.71.25-1.31-.13.16-.2.64-.25,1.31Z"/>
      <path class="cls-1" d="m10.88,1390.09c.14.7-.99,17.18.43,3.36.57.59-.56,8.9-.75,12.6.4-2.66.27,1.37.58.58.1-1.84.13-4.03.46-7.05.42-1.36.18,3.24-.27,6.82.75-4.38-.04,5.65.81-.58,1.05-13.37,1.72-22.83,1.7-32.31-.57,7.62-1.2,16.16-2.05,22.37l-.29-2.68c1.15-7.01,1.21-11.4,1.92-18.33l-1.77,15.56c-1.15,7.26-.78,2.36-.33-3.4-.14,1.41-.3,2.69-.43,3.04Z"/>
      <path class="cls-1" d="m7.13,1379.13l-.04.26c0,.23-.02.51,0,.66l.05-.92Z"/>
      <path class="cls-1" d="m7,718.76l-.26-1.34c.13,1.12.21,1.47.26,1.34Z"/>
      <path class="cls-1" d="m10.64,1370.08h0c0-.09,0-.12,0,0Z"/>
      <path class="cls-1" d="m8.61,752.32s-.04-.09-.06-.18c.02.12.04.12.06.18Z"/>
      <path class="cls-1" d="m20.9,760.46c.02-.06.04-.08.06-.23-.08-.71-.08-.36-.06.23Z"/>
      <path class="cls-1" d="m8.66,752.35s-.03.02-.05-.02c.02.02.04.08.05.02Z"/>
      <path class="cls-1" d="m30.38,913.92s.02-.52,0-1.33c-.09-.3-.11.02,0,1.33Z"/>
      <path class="cls-1" d="m26.47,882.05c-.01-.21-.02-.33-.03-.59l.03.59Z"/>
      <path class="cls-1" d="m39.59,1126.48c.16-1.58.26-2.77.33-3.77-.12,1.15-.24,2.4-.33,3.77Z"/>
      <path class="cls-1" d="m8.55,752.15c-.08-.33-.17-.81-.29-1.59.13.86.22,1.32.29,1.59Z"/>
      <path class="cls-1" d="m38.86,962.14c-.05-.34-.1-.66-.15-.98l.03.59.12.39Z"/>
      <path class="cls-1" d="m39.72,978.87c-.09-.57-.17-.82-.25-1.14.26,2.97.54,7.2.72,10.85.17,3.65.36,6.71.67,7.36-.04-1.01-.07-4.15-.04-6.81.05-2.66.06-4.85.29-3.96-.36-4.16-.31-10.34-.61-12.58.19,6.85-.43.77-.97-3.82-.14-4.2.53.75.35-2.87l-.94-9.69.68,8.45-.79-2.52c.05.31.08.52.13.86.77,7.12.51,7.45.37,7.81-.18.36-.28.76.37,8.06Z"/>
      <path class="cls-1" d="m39.48,977.73c-.08-.89-.18-1.67-.29-2.28.11,1.35.19,1.86.29,2.28Z"/>
      <path class="cls-1" d="m38.97,1036.12c0,.73-.01,1.53-.02,2.53,0-.48.01-1.58.02-2.53Z"/>
      <path class="cls-1" d="m12.2,608.75c-.18.24-.94,8.57-.5,8.45.17-2.48.34-4.97.52-7.47v-.97Z"/>
      <path class="cls-1" d="m27.57,1195.18c.09-.93.18-1.85.28-2.78,0-.2-.01-.4-.01-.55-.12.56-.21,2.4-.26,3.33Z"/>
      <path class="cls-1" d="m41.45,987.73c-.12-1.53-.25-2.21-.33-2.57.09.99.2,1.9.33,2.57Z"/>
      <path class="cls-1" d="m26.51,1195.6c-.23,1.17-.59,2.89-.77,3.12-.23,2.41-.17,4.13-.33,6.59.2-2.78.55-5.98,1.1-9.71Z"/>
      <path class="cls-1" d="m25.4,1205.52c0-.07,0-.14.01-.2,0,.07,0,.13-.01.2Z"/>
      <path class="cls-1" d="m12.69,603.79c.02-.72.03-1.46.05-2.22l.04,1.16c.17-1.92.33-3.82.5-5.73.02-.69.05-1.44.08-2.37,0,.37.02.66.05.84.06-.62.11-1.23.17-1.83-.14-4.6.43-15.98.46-19.28.17-4.35.54-9.66.88-12.99-.29,3.08-.57,7.18-.21,5.97.82-6.24,1.81-9.21,2.23-20.06l-.6,6.33.44-14.32c.89-4.94-.23,7.15-.08,9.16.61-11.11,2.8-20.18,2.5-25.39.56-.67,1.49-1.8,2.19-9.06-1.09,5.17.09-4.38-.94-.15-.02-2.53,1-8.07.68-8.53l.13.7c2.02-12.31,1.22-16.48,1.31-21.82.59-7.43,1.13-12.83,1.64-17.9.26-2.53.51-4.98.77-7.55.24-2.57.46-5.27.7-8.3.37-.45,1.54-3.67,1.91-8.53-.25-2.3.46-13.27-.02-14.44-.95,8.67-.12,7.14-.42,12.36-.95,4.28-.62.34-1.47,6.22.63-4.75,1.51-21.57,2.4-26.76l-.06,1.85c.96-8.32,2.47-9.82,2.66-23.78l.08-6.66c.04.32.1.36.14.54.76-10.87,1.21-7.86,1.48-19.89-.02.93.08.35.06,1.3.79-6.82.47-13.76.64-18.94.65-3.13.42.78.66,2.75.42-6.02.61-12.29.67-17.99.05-5.7-.09-10.84-.2-14.59l.63-7.75c-.01,4.61.23,10.27.58,8.87.1-4.28-.16-3.46.21-9.5.26,1.04.42,3.59.67,6.45,1.07-12.47-.94-2.84.38-11.54.19-3.93-.16-6.22-.52-6.67l.73-7.1c-.44-.81-.15-9.59,0-15.35-.18-.71-.66,4.62-.56,6.8-.35-.44-.3-6.57-.15-10.51,1.06-1.41.56-25.79,1.59-21.1.05-4.43.1-9.3.15-14.3.03-5,.06-10.14.09-15.08.01-4.94.03-9.7.04-13.95-.04-4.25-.09-7.99-.17-10.92.3-3.85.37-11.7.79-6.99.16-14.25-.95-21.6-.68-35.73.12-1.17.02,6.39.34,5.89-.21-4.62-.1-8.82,0-13.67.07-4.84.14-10.32-.07-17.49.04,2.41.25,3.11.36,3.45-.16.25-.4-5.87-.6-9.58.06-2.09.15,2.77.26,1.6.07-6.93-.09-13.44-.27-19.74-.19-6.3-.43-12.39-.7-18.48-.31-6.08-.63-12.16-.95-18.44-.27-6.28-.55-12.76-.84-19.64.31,7.86,1.04,10.81,1.3,10.89-.06-2.57-.16-5.14-.26-7.7-.44-2.96-.67-8.74-1.1-13.57.1-.6.14-2.96.38-.56.1-15.25-2.27-23.71-2.82-42.35l2.41,22.5.18-5.61,1.08,9.9c.07-5.95-1.01-11.06-.56-11.8.2,1.25.3,4.27.57,4.35-.09-5.7-.48-6.13-.78-10.41.77,5.61,1.44,13.95,1.99,22.37.46,8.43.92,16.93,1.24,22.88.15,1.87-.3-1.59-.42-1.92.22,4.86.06,7.78.4,13.89.53,3.79.23-2.91.17-5.93.39.4.41,1.92.57,5.28-.47.75.38,18.44-.08,22.79.59,17.94,1.22-2.9,1.39,14.62l-.45,5.25c.31,5.08.67,10.91.88,16.91.2,6,.34,12.17.34,17.92l-.05-2.43c-.26-1.61-.37,1.06-.48,2.24-.11,8.7.57,16.52.01,21.79.31,4.96.58,11.58.81,18.37.15,6.8.3,13.77.42,19.45-.76,3.05-.51-14.81-.94-19.53l-.07,10.33c.03-6.38-.2-8.91-.64-12.73-.15,9.05.43,12.03.56,20.61-.2-.67-.33.48-.36,4.43l.48,1.13c-.04.07-.08.51-.12,1.73.08,5.09.08,10.18.09,15.27.27-3.24.69-3.39.77-7.33-.31,1.4-.29-1.94-.27-5.89.29,3.46.3-3.85.56-3.76-.03,7.92-.2,17.64-.13,22.83l-.48,1.68c-.24,7.54-.12,15.51-.41,20.62l-.2-1.62c-.38,9.04-.32,17.96-.99,25.98.22,8.08.29,18.25.59,24.87.51,3.56-1.78,23.64-1.36,32.77-.09.61-.15-6.27-.23-9.38-.37,6.04.14,10.89-.57,12.75.84-13.56-.52.7-.41-5.42-.25,6.36-.57,13.05-.51,16.18.56-10.28.64,3.7.95-6.73.06,8.09-.3,19.11-1.09,28.71-.26-.11-.46,1.07-.8,4.64l.2,2.91c-.36,4.49.11-8.72-.61.32.03,4.68-.52,11.68-.95,18.03-.46,6.35-.86,12.05-.4,14.13-1,7.06.52-13.53-.86-2.88,0-3.12.31-6.82.53-10,.2-3.18.35-5.84.11-6.88-.22,6.11-.65,2.19-.91,6.12l-.12,6.82.13-1.5c-.14,5.72-.61,13.09-1.17,20.86-.53,7.77-1.33,15.91-1.86,23.19-.38,12.38-.33,20.94-1.77,35.71.05-4.4-1.49,12.24-1.27,2.87-.93,6.81-1.27,13.58-1.01,13.74.69-6,.3-2.1.93-7.15-.02,3.45-.82,11.33-1.36,14.54.18-1.5.06-.93,0-1.27-.94,7.15-.03,3.47-.43,8.66-.61,1.6-1.29,11.42-2,16.13l-.06,6.92c-.04-3.81-.81,6.55-1.3,7.59-.19,4.94-.08,9.11-.88,16.58.06-3.11-.94,6.8-1.37,6.89-1.52,12.78-.65,21.3-2.01,33.39-.08-.38-.2-2.85-.53.69-.05,2.8-.44,7.69-.53,10.69v-.09c0,.06,0,.09,0,.16-.05,1.47-.05,2.39.06,2.43.17,5.14.4,7.8.39,17.89.52-.72.62-9.23.69-12.92l-.32-3.21c.88-3,.33-9.09.75-11.39.21,3.04.09,8.91-.12,15.32-.22,6.41-.34,13.37-.29,18.6.46-3.17.85-8.21,1.17-13.96.39-5.75.69-12.22,1.02-18.25-.22,1.76-.41,3.53-.59,5.29.09-2.1.22-4.21.36-6.31-.31,2.02-.61,4.05-.87,6.08.36-5.98.68-11.14,1.01-16.55-.39,6.32-1.22,8.75-.89,5.17.92-7.02.17-7.37.59-12.76-.26,3-.55,6.9-.65,4.36,1.37-10.58,1.23-13.48,2.69-23.09-.93,1.13,1.01-12.08.49-13.59l-.49,4.48.41-9.56c1.51-8.72-.09,7.84,1.68-5.48,1.3-12.32.43-12.09,1.36-21.8.15,3.25-.22,10.99-1.01,18.81l.7-4.71c.02,2.53-1.1,13.35-1.64,18.74.3-8.97-.57,4.16-1.36,8.18.4.79.84-4.94.6,1.85.56-6.33.61-7.26,1.56-15.3-1.86,17.4.13,15.8-1.53,30.95.36-7.01-.87,2.39-1.15,3.21-.21,3.3-.59,9.99-.63,12.74l.83-2.44c-.25,8.86-1.95,11.84-1.75,22.1.34,1.35.59-8.98.58-7.14-.31,13.99-1.61,18.98-2.52,31.39.18.71.61.58.86,4.93-.37-1.38-.66,1.84-.83-3.06-.27,4.15-.13,9.08-.02,12.75.38-8.65.52,3.55.76,5.14-.13,4.48-.39-1.37-.47-4.13-.16,3.59-.81,7.86-.23,9.91-.41.14-1.04-10.07-.96-16.75l-.18,4.5c-.16-3.11-.07-3.68.11-8.15-.44,4.36-.8,3.93-1.07,2.9.08-.57.09.32.17-.23.2-3.6.16-6.36-.09-5.53-.49-3.25-.49,4.98-.83,7.42-.02,1.85-.02,3.69,0,5.5.54,6.25,1.03,12.49,1.67,18.72.19,7.99-.2,11.58-.4,17.58l.51,1.64c.01,6.95.1,13.51-.66,9.07.16-.25.1-1.17.08-2.68-.07-.2-.13-.54-.18-.98-.04-.14-.06-.22-.09-.34.35,7.44.57,12.09.59,12.51-1.02-12.62-.91-.61-1.83-2.7.18,4.26.46,8.51.7,12.77-.01-7.75.42-.16.64,2.59-.5.78.46,10.28.62,14.76l-.12-.32c0,4.16.55,11.41.99,16.57.13-.24,1.39,6.32,2.13,9.46-.48-8.86.11-3.62.36-4.35.04.92.16,2.56.24,2.75.23,1.25.06-1.73.2-1.99-.88-9.38-1.54-19.05-2.39-22.86-.17,2.91.53,4.91.54,8.16-.78-4.64-.93-10.66-1.32-18.49l.31-2.58-.51-7.87c.34,3.28.69,1.29,1.08,9.54.35-1.07-.39-8.19-.45-13.25l-.62-2.57c.33.99.12-9.84.72-2.16.23,4.17.56,8.33.86,12.5l.24-3.49.5,10.56-.38-2.48c.56,8.48.39,9.74.2,11.02-.15,1.28-.38,2.57.5,11.09.5,2.65.85,5.41,1.14,8.82.32,3.4.61,7.45.92,12.69-.71-7.55-.52-.74-1.12-3.56.28,7.74,1.1,10.3,1.7,14.28-.17,1.99-.34,3.42-.89-3.48-.8-.8.92,9.05.23,9.75,1.14,11.41,2.19,15.91,3.26,20.9.53,2.49,1.04,5.11,1.55,8.77.54,3.66,1.12,8.35,1.71,15.02l-.43-.96c2.59,16.8,3.74,26.58,6.33,42.19l1.11,12.45c-.53-2.75-2.23-10.07-2.07-6.55-.14-6.12-1.38-12.43-1.93-18.95-.3-.63-.05,2.02,0,3.18-.57-3.89-.52-5.9-1.41-11.02-.13.27.52,5.91-.21,1.69l-.53-7.06c-1.55-9.32-1.79-4.45-3.06-15.47.68,1.99,1.88,6.08,2.55,10.31-.61-5.03,1.19,6.65.8,2.04-1.63-7.14-1.62-10.69-3.21-20.26.23,1.12.39,1.4.73,3.76-.49-4.66-1.02-9.32-1.44-13.99.02,3.5-1.71-11.5-2.11-10.14,1.47,14.93,1.23,10.52,3.07,27.51-.72-4.78-2.08-10.9-2.93-13.75,0-.15,0-.4-.05-.92-.84-2.53-.68.13-1.63.19.77,3.85,1.25,7.07,1.66,10.48.42,3.41.82,7,1.66,11.54.76,1.65-.09-5.39-.77-9.92.45,2.67.9,5.34,1.39,8l-.45-1.55c.86,6.82,1.76,13.63,2.7,20.45-.6-3.87-1.07-5.14-1.59-7.12.36,2.64.59,5.27.86,8.07.41-.66.81-.34,1.18,2.23,1.84,13.16,2.53,20.54,2.7,25.48.09.5.19,1.07.27,1.53.17-2.28,2.33,9.21,3.44,13.22-.55-.12.7,6.84.97,10.69.89,1.94,1.33-.88,1.15-5.59-1.87-8.84-1.29-4.92-2.7-9.01l-2.68-14.2.96,3.12c-.88-7.15-2.54-13.9-1.84-13.47.98,3.7,1.68,9.95,2.66,13.62l-.49-4.75c1.88,8.22.06,4.35,2.01,14.36-.03-3.78.18.91,1.17,5.18-.13-3.53-2.83-17.72-1.47-14.83,1.19,5.18,1.62,17.79,3.5,24.62l-.15-.33c1.37,10.27,2.33,13.83,3.18,17.64.27,4.43,1.47,10.43,2.04,15.2l-.28-.09c.29,2.24.62,4.47.87,6.72-.81-3.16-.88-7.89-1.65-13.66l-.4.78c-.27-6.72-1.71-11.04-2.85-16.11,1.5,7.41,2.62,21.16,3.76,22.82l.05,4.71.41,2.21c-.03,3.51-.91.02-1.82-6.67-.01-1.18-.02-1.77.12-1.43-.57-3.09-1.3-5.9-2.16-13.43l.77,3.98c-1.15-9.37-2.56-17.82-3.49-20.94,1.73,13.48,3.42,26.76,4.8,39.49,1.5,3.64,2.58,8.04,3.76,9.88,1.06,8.56,1.93,20.29,1.93,27.82l-.24-.68c.06,3.67.21,7.05.43,9.86-.13,3.88-.64-2.64-.69.07.23,4.12.42,8.26.53,12.38-.45-.76-.54-11.19-.82-16.13.07.93.22,2.81.26,2.21.06-5.78-1.35-16.43-.85-18.97-.32-2.79.91,5.64.25-3.82-.19-6.36-1.02-8.36-1.28-9-.14-.04.01,2.44.07,4.51.05,2.07.07,3.71-.21,1.99.39,4.92.92,6.85.99,13.18-.26-4.9-1.31-11.47-1.09-14.1-1.29-9.59-2.45-8.08-2.1-3.56.36-1.12,1.79,17.51,1.37,4.85.45,2.82.92,6.82,1.22,11.05.17,2.12.34,4.29.5,6.4.14,2.11.28,4.16.4,6.02l-.11-.33.23,4.63.15,4.63c-.16-1.3-.33-4.1-.59-4.19l.46,6.41.38,6.41c-.25-3.61-.33-2.49-.37-.06-.04,2.43-.12,6.17-.23,7.81.38,1.38.56,6.39.9,1.59.38-5.4-.18-3.15-.16-8.06l.57,6.97-.08.6.43,4.2c-.3,9.48-1.06-4.17-.94,7.98l.76-1.55c-.54,14.07-2.61,31.96-3.1,41.82-.18-2.75-.73-3.99-1.42-.3.48-4.23,1.09-12.77,1.41-18.87.21-1.17.35,7.68-.32,14.29,1.43-3.12.49-16.71,1.68-17.42.71-8.45.54-11.63.41-14.48-.13-2.85-.23-5.38.29-12.58-.53-.21-.16-4.1-.63-4.87-.47,2.13-.53,6.94-.65,12.38-.1,5.44-.26,11.52-.66,16.17,0-.91.03-2.75-.05-3.12-.51,6.65-.57,9.4-.69,14.05l.1-.58c-.04,8.15-.75,4.99-1.33,9.74-.05,1.85-.75,8.46-.28,7.43l-1.23,8.57.62-.36c-.4,4.86-.88,5.89-.93,10.31l.51.25,1.26-12.04c-.36,6.13.35,1.75-.13,8.48.1-7.55-.77,5.28-1.33,5.97l-.17,4.96-.02-1.27c-.63,3.84-.24,4.62-.74,9.13.8-5.29,1.5-8.75,1.75-15.57-.15,4.98-.76,14.8-.97,17.21-.27,5.2-1.02,8.78-1.54,13.63.68-9.33-1.9,3.11.25-15.5.07.35-.1,1.86-.22,2.44.91-2.42,1.02-11.19,1.14-15.26-.48,1.01-.18-3.23-1.07,3.92.47-2.33.29,6.13-.68,12.92l-.71-1.28-1.04,9.92.05-.93c-.89,3.68-.91,10.6-1.87,17.41-.18,4.96-2.21,23.88-.57,15.81-1.1,6.09-.96,11.54-1.48,18.24l1.13-8.31c-.35,9.92-.46,7.05-.27,15.03-.3.78-.65,2.52-.74.89-1.31,13.25-3.34,32.16-3.41,40.01-.93,9.34-2.04,10.72-2.91,23.86-.15,2.77.98-2.08-.09,6.58-.12.58.18-8.42-.67,1.26-.02,6.95-1.89,16.14-2.19,25.15-.68,4.71-1.37,12.92-1.71,11.16.83-7.48,1.73-18.09,1.65-19.73.2,1.06.8-5.3.51.24,1.46-11.29.39-7.38,1.62-17.51-.13-.72-1.05,5.17-1.08,7.36-.69-.02,1.58-20.06-.11-11.11-1.09,10.85.03,14.21-1.59,23.55-.06-3.81.86-9.67.59-14.53l-1.01,7.7-.04,5.66-.07-.34c-1.93,13.59-.5,12.7-1.32,24.95,1.15-7.03,1.03,1.75,1.83-3.55-.69,8.18-1.35,14.17-2.05,14.16.9-15.34-.64-.94.02-15.13-.47,2.3-.68-3.46-1.56,4.95-.41,9.53.84-2.78.17,6.7-.11.55-.23,1.13-.3.79-.06,4.38-.61,5.07-.72,10.37l-.02-1.26c-1.04,6.45-.2,7.15-1.19,12.69.72-2.19.06,3.79.05,7.29.73-5.65,1.76-8.64,2.78-19.83-.27-1.39-.58-.59-.33-5.2l-.64,7.27c.08-1.57.09-2.78.15-4.22l.87-6.96c-.55,8.88.26,4.86.32,8.66-.95,8.08-.53,6.69-1.14,11.77-.54-.57-2.5,15.52-3.77,24.8.15-1.45.33-3.31.44-4.32.27-6.81-.94,4.61-1.12,4.85l-.17,4.96c.05-.93.03-2.23-.25-.13-.53,6.69.1,6.36-.43,13.04-.37.47-.33-5.22-.9-1.09-.42,1.4-1.61,5.89-2.17,14.78.07.64-.08,2.94-.28,5.61.02-.37.05-.84.04-1.01l-.92,5.85c-.08-5.07,1.23-10.12,1.15-15.21l-.49-.48c.37-3.92.65-9.27.61-11.75-.66,5.97-.64,7.25-1.17,13.94-.42.9-.22-3.83-.19-4.51l.21,1.03c1.2-7.93.63-11.97,1.67-21.89.16-1.5.12-.58.18-.24.25-8.09,1.71-15.91,1.78-23.78l.04,2.57c.25-5.34.75-15.79,1.24-26.23l-.2-.1c-.23,1.14.15-2.76.43-4.84h0c.26-5.22.51-10.25.71-14.37-.25,1.3-.52,2.96-.73,4.88.09,1.65-1.02,11.19-.35,9.93-.75,4.38-.95,11.54-1.47,14.76.91-5.87.13,4.16.33,5.22-.53,1.95-.81,8.75-1.2,7.93-.23,1.15.58-2.87.55-5.41.16-6.23-1.46,11.29-1.14,3.54-.61,9.83-1.98,22.73-2.51,32.88l.73-5.64c-.5,4.49-1.41,15.13-1.71,15.9.26-3.34.64-7.25.95-11.53-.51-.26-.97,10.26-1.34,10.71l-.31,12.49.55-5.43c0,3.45-1.47,14.78-2.35,23.19-.26-4.9,1.19-12.7,1.75-21.59.34-6.46-1.07,3.91-.66-2.2-.32,1.56-.68,5.54-.68,7.52l-.36,2.39c-.14-5.5,1.17-17.66,1.38-25.82,0,.72.02,1.35.07,1.58.85-6.22,1.44-12.56,1.85-18.66-.51,3.2-.49,4.49-.59,6.33-.18.21.29-5.54.32-7.73-.73,5.64-.49,1.02-.93,4.59.2-3.7.53-6.68,1.02-11.17.47-2.31.16,1.96.52,1.52.25-4.65,1.22-6.69,1.49-13.5-.99,9-.48-2.44-.4-5.56l-.17,1.51c-.11-2.89.11-5.32.64-7.26-.2,3.7-.64,7.26-.16,6.25.22-2.44.43-4.87.58-7.64l.04,2.53,1.07-12.11c-.16-1.95-.33-5.19-.67-6.92.58-2.87.71-6.94.86-9.71l.02,1.29c.8-5.31,1.69-17.21,1.48-18.24.63-3.79-.65,27.14,1.64.16.97-10.25-.35-6.47-.13-12.36,0,0,.07.34.18-.24.5-4.48.18-4.96.37-8.66-.4,2.68-.78,6.57-.76,7.84-.27-1.39.93-9.34.94-12.81.19,4.52,1.06-8.65,1.05-5.15,1.25-8.88,1.67-18.47,1.66-23.2,1.35-5.98.91-10.62,2.2-20.41-.17,1.51-.31,4.26-.6,6.36-.04,5.65,1.23-10.15.86-1.49.1-1.85-.25-.16-.35,1.74-.26,3.31-.34,6.45-.04,5.64l1.2-7.96-.15,2.81,1.76-12.09c-.07-.34-.3.79-.42,1.37,1.61-14.07,2.81-30.21,4.06-42.55-1.17-2.45,2.3-30.45,2.39-40.51.15,2.71.71,4.24,1.16,2.61-.15,2.23-.02,6.84-.62,11.87-.3.78-1.15,6.99-1.02,2.96-1.17,13.96.79-1.83.92,2.34,1.33-15.46,1.4-24.6,1.95-34.37l.19-.23.34-7.38c-.62,6-1.37,5.63-.43-2.08l-.04.94c.73-4.39,1.07-13.61,1.6-20.49l-.14-4.7c.48-6.9,1.35-7.14,1.97-9.36.63-10.83.12-17.11-.14-24.8.48-3.46.51-19.66.98-11.08-.44-9.76-2.28-7.73-1.93-24.44l.59,4.31c-.44-7.98-1.23-17.64-2.2-26.22-.43-4.29-.93-8.31-1.3-11.72-.36-3.41-.68-6.2-.8-8.05.97,2.86.76-2.15.31-8.25-.43-6.11-1.09-13.3-.67-14.81-.17.83-1.09-5.14-1.38-5.99-.04-1.33-.21-3.54-.8-5.82.64,6.25-1.92-4.18.28,7.62-1.72-5.89-3.49-13.52-5.45-26.68l.55.12,1.41,10.43c.23-1.11.99,4.25,1.5,6.42-2.59-19.41,1.62,2.36-1.43-17.44-.63-1.86-.3-.64-1.22-5.77.39,2.42.81,2.8.22-1.1l-.99-3.69c-.18-7.05,2.31,11.37,2.02,5.37,1.58,7.59,3.78,20.81,4.07,18.24-1.62-12.53-2.93-11.05-4.61-24.16l.07-1.43c-.89-4.57-1.46-5.24-2.12-7.72.13-.25.07-1.44-.32-4.4-1.83-7.67-2.71-12.81-4.45-19.9,1.62,9.52,2.1,13.62,2.59,17.8.48,4.18.98,8.43,2.71,18.23-.69-3.05-2.94-16.88-3.78-17.63l.55.11c-1.22-6.37-2.43-12.74-3.37-20.84l.98,4.89c-1.87-10.65-1.58-17.9-3.51-26.25.33,2.99.65,5.42.96,7.25-.46-2.75-.92-5.85-1.29-9.02-.36-3.18-.7-6.42-.99-9.42-.78-4.11-1.45-8.23-2.17-12.35.27.08-.5-7.81.29-4.04-.45-9-1.57-13.16-2.15-18.34-.07-4.62.15-2.63.47.61.37,3.24.87,7.75,1.27,8.17-.92-12.67-2.01-26.09-2.92-33.22.05,2.59.04,3.86-.09,3.73.14-.4-.22-5.5-.39-8.35l-.44-1.94c0-4.76.23-4.1.69-.08-.15-4.54-1.1-9.92-.81-14.62.77,7.73.89,17.63,1.44,21.64-.35-4.04-.49-7.08-.54-9.7-.05-2.61-.04-4.79-.03-7.1,0-2.31.01-4.76-.03-7.91-.05-3.15-.21-7.01-.47-12.14.16-.26.56,3.21.47-.75-.35-9.16-.76-2.38-1.22-5.23.37,7.05.29,10.34.02,14.45l-.35-1.87c.14-.29-.03-4.72.08-6.03l-.59-1.13c.64.51.94-6.6.57-12.17-.32,5.64-.33,4.12-1.01,5.67-.89-7.84.48-8.86-.35-17.65.21.66.45,8.33.53,1.7-.03-5.49-.53-4.76-.68-8.44.52,4.15.92,3.08,1.59,7.57.2,9.75,0,3.93.42,13.46.07-2.69.19-5.38.3-8.07.18,8.26.71,5.99.9,6.67.33-14.09-.97-10.61-.88-19.68-.37-4.37-.06,8.5-.45,1.66.08-8.49-.34-1.93-.56-11.46l.24,1.6c.3-2.91-.06-5.79-.06-9.16-.1-3.71-1.89,4.18-1.69-11.08.13.75.21,1.03.27,1.03l4.19,14.92c.11-15.4.69-33.15,1.88-50.95.54-2.08.55,1.11.49,4.68-.06,3.57-.12,7.53.08,6.99l-.49,8.11c-.35-.47.54-17.02-.38-9.71-.2,7.18-.34,12.39-.48,17.52-.06,2.56-.09,5.1-.09,7.85.02,2.75.1,5.71.24,9.12.88-4.22.15-17.94,1.14-26.77-.22,3.71-.17,6.85-.14,9.9.08-2.08.16-4.19.25-6.34.11-2.15.22-4.33.34-6.55.23-4.44.45-9.02.78-13.74l-.1-2.13c-.41,6.36-.69,10.76-.73,11.33.4-8.44.36-15.58-.26-16.18l-.1,1.5-.04-3.06c.13-1.98.32-3.96.48-5.93ZM36.56,56.83c.08.51.17.91.27,1.21-.1-.31-.15.04-.27-1.21Zm-20.39,712.35c-.37-5.62-.76-11.26-1.01-16.86-.14-2.8-.29-5.58-.43-8.34-.12-2.76-.23-5.5-.34-8.2-.08,4.89-.13,9.42-.15,12.96-.04,3.54-.12,6.08-.26,6.99-.14.91-.34.19-.63-2.79-.27-2.98-.72-8.23-1.09-16.38l-.2-2.13c.03,2.13.13,5.04.28,8.28.17,3.24.42,6.8.68,10.25.21,1.39.53,3.55.89,6.01.41,2.45.86,5.21,1.29,7.78.44,2.57.85,4.96,1.15,6.69.33,1.73.55,2.81.59,2.75.16-2-.44-4.85-.6-8.45l-.18,1.44Zm-1.43,8.16c.42,6.38.57,4.91.9,5.88-.23-2.24-.46-4.47-.68-6.68.01.85-.04,1.28-.22.81Zm1.12,5.47c-.06-.72-.1-1.33-.09-1.65l.09,1.65Zm-4.28-124.17c0,.29,0,.39,0,.66.04-1.51.08-3.02.12-4.6-.05.61-.09,1.78-.13,3.94Zm-.74,12.97l.45,1.52c.02-1.41.04-2.84.05-4.31-.21.48-.39.99-.51,2.79Zm-.95,41.75c.64,2.61.99,11.42,1.64,11.93.18.55.17-1.3.15-3.38-.07-2.32-.14-4.79-.22-7.42-.09-.09-.21-.61-.31-1.48,0,2.59-.08,4.33-.5,3.3.61-6.69-.77-5.96-.74-13.18-.5-2.29-.24,8.04-.01,10.22Zm10.08,550.98c-.07.2-.28.89-.55,1.85l.17-5.08c.99-9,2.58-16.13,2.58-24.32.56-3.78,1.16-5.77,1.68-7.68-.2,1.86-.4,3.59-.59,5.03-1.03,22.85-2.32,11.74-3.3,30.19Zm10.97-103.5c-.05.93.02,1.28.02,1.28.77-20.24,2.01-36.85,3.09-47.7-.66,2.06-1.94,11.76-2.57,16.37l-.13-4.15.65-2.52.21-7.16c-.54,1.96-1.01,7.71-1.65,11.52.07.34-.5,12.7-.51,16.17l1.3-9.79c-.4,2.64-1.52,15.68-1.88,20.86.25.13,1.5-8.74,1.04-9.92.49-1.02-.49,9.24.55,2.79-.32,7.73-1.83,19.94-2.56,25.6l-.74.9c-.85,6.21.38,4.28-.7,11.65.74-9.11-.86,1.47-.22-5.77-.47,2.29-.69-.02-1.33,7.24.28,6.12-1.27,7.6-1.05,13.38-.63,3.79-.13-4.15-.96,3.34-.37,8.65,0,8.18.58,8.78.94-8.03.05-9.12.83-15.69l-.18,13.2c.38-2.4.57-4.18.67-5.69-.19,2.64-.24,4.89-.21,6.82.01,1.1.02,2.12.03,3.05.71-7.42,1.36-14.01,1.73-15.15l.21,1.05c.53-2.6.72-6.91.68-8.9.6-6.65.81-13.33,1.34-14.74l.04,2.55c.69-8.18.74-9.1,1.72-19.37Zm.89-268.22c-.4,5.09-.44,10.64,2.87,33.6l-.32-1.8c.83,11.67,3.8,22.51,4.32,36.76-1.02-6.83-1-6.47-2.74-13.93l1.08,7.32c-.41-.99-.33.34-.12,2.6.22,2.25.53,5.44.79,8.13l-1.15-4.7c-.04-3.26-.88-11.65-1.01-11.39.29,1.83-.29-11.18-1.43-18.15-.35.78,1.59,15.55.01,9.04,1.03,5.78.62,6.56,1.42,12.63-.94-5.8-.82-1.38-1.62-5.68l1.2,9.95c-.12.27-1.88-14.48-1.62-6.25.72,3.96,1.34,14.66,1.88,14.8l-.14.26c.46,7.48,1.02,3.23,1.36,12.44.28.09.36-1.67.05-4.96-.34-2.77-.68-3.18-1.25-8.89.09-1.3.23.43.4,1.98.15,1.55.3,2.92.5.9.19-2.01-1.67-15.1-.5-10.98l.56,7.48c.27.07.52,1.46.76,2.81.21,1.35.41,2.66.62,2.57.27,2.28.33,4.52.43,6.76.09,2.24.16,4.5.52,6.82.43,1.93.93-1.5,1.01,6.27-.29,3.05-.2,9.03-.18,15.09,0,6.06,0,12.2,0,15.55l.21,5.87c.35-.49.19-11.2.54-7.43-.03,3.05-.03,6.1-.09,9.15l-.18-.71c-.15,3.03-.02,6.14-.04,8.9-.23-2.86.11-9.45-.48-8.15-.25,4.29-.47,4.93-.54,8.88,0-.86-.02-1.61-.11-1.5-.61,8.66.2,8.41.28,10.6.22,8.77,1.16-8.77,1.62-7.63-.29,8.52-.73,17.03-1.26,25.54,0-2.19-.03-4.4-.32-3.59-.72,6.23-.43.11-1.07,8.89.81-.57-.42,11.09-.57,17.32-.57,2.87-.68,3.46-.12-2.87-.55.68-1.13,9.19-1.46,12.21-.04,1.76-.25,4.75-.32,6.65.48-2.51.69-1.4.37,4.1l.07.33c1-8.97,2.82-22.91,2.79-28.6l.1,1.62c1.34-10.39.93-22.75,2.14-27.51.34.47.21-2.09.73-1.88.03-2.57.03-5.15.02-7.72l.15,1.61c.2-4.37.35-8.74.47-13.11l.09.35c-.26-6.25-.54-11.14-.82-15.04-.23-.02-.3.39-.45-1.69-.09-2.08-.1-3.66-.08-5.07,0-.01,0-.01,0-.01h0c.06-3.21.39-5.35.44-9.31.11,4.06.14,8.12.15,12.18.38.99.81-.04,1.06-6.02.02,2.45.33,3.47.37.44-.07-.33-.36-8-.62-5.07-.32-11.57-.21-30.42-2.82-47.86.85,6.26.73,3.73.6,1.38-.16-2.35-.3-4.54.47,2.44-.38-9.81-1.42-8.33-2.49-18.25.12-.87.62,5.4,1.3,7.63-1.59-16.54-4.42-27.66-6.54-43.55l.38-.75c-.51-2.99-1.07-6.32-1.66-9.77Zm-5.34-31.25c-.5-3.04-1.02-6.13-1.54-9.26.04.31.08.59.12.92l-1.7-9.12c.62,5.66.62,9.45-.76,1.6.29.64.21-1.71.72,1.02-.48-5.33-1.74-16.98-2.07-13.85,2.07,10.08-.61,2.5.99,10.42-1.05-4.23-1.45-8.5-2.16-12.53.93,4.17.78-1.1.17-7.47-.5-2.74-1.23-10.24-1.94-14.81-.26,1.69-.97-2.29-.24,5.22-.42-2.73-1.02-6.98-1.29-11.77.25,1.89.71,5.18.83,4.93.05-3.12-.32-6.72-.34-8.72-.18-1.58-.37-3.18-.55-4.74,0,.47,0,.88-.04,1.17l-.92-5.23c.92,7,.12,3.27-.15,3.2.55.14-.4-4.53-.61-6.93-.03,1.76-.07,3.52-.07,5.28-.55-2.5-.4-8.96-.84-7.59.35,5.56.74,9.4,1.12,13.1.39,3.7.79,7.27,1.46,12.26l-.03-4.11c.79,5.63.8,7.39.8,9.33,0,1.94-.05,4.06.78,10.39.54,2.61,1.11,7.37,1.73,11.49.62,4.12,1.2,7.61,1.61,7.68-.47-1.55.42,7.96,1.41,12.23,1.41,4.67,3.69,19.08,3.36,14.66-.59-3.9-1.76-9.09-1.76-12.29l1.27,7.54-.35-5.02c.24,2.59.58,2.28.98,1.02Zm-9.78-170.33c0-.08,0-.19,0-.29,0,.11,0,.22,0,.33v-.03Z"/>
      <path class="cls-1" d="m10.87,1377.14c-.03,2.21-.57,7.61-.09,6.59-.44.09.86-9.67.09-6.59Z"/>
      <path class="cls-1" d="m9.84,1383.57c.07.39.25.14.04,2.57l.53-6.7-.57,4.13Z"/>
      <path class="cls-1" d="m6.29,1390.08c-.01,3.48-.04,5.68-.59,11.09-1.23,1.93.55-8.89-.18-11.43-1.04,9.91-.43,13.04-1.12,21.21.82-4,2.64-20.49,1.88-20.86Z"/>
      <polygon class="cls-1" points="5.41 1385.55 5.11 1391.08 5.23 1390.55 5.52 1385 5.41 1385.55"/>
      <path class="cls-1" d="m25.78,1266.93c.37-.47.38-3.93.48-5.78-.16,1.5-.45,3.59-.48,5.78Z"/>
      <path class="cls-1" d="m45.42,181.38c-.15-14.12-.2-28.23-.52-42.34.27,12.18.3,23.43.52,42.34Z"/>
      <path class="cls-1" d="m36.96,1127.11c-.77,11.33-.69,16.4-1.65,27.92,2.09-15.07.89-20.09,2.77-32.74l-1.12,4.81Z"/>
      <path class="cls-1" d="m39.16,1131.34c-.79,1.81.12-8.79-.49-7.19-.58,7.63.24,3.6-.47,10.51l.95-3.32Z"/>
      <polygon class="cls-1" points="24.22 1181.58 24.23 1178.12 24.08 1180.89 24.22 1181.58"/>
      <polygon class="cls-1" points="43.44 1079.74 43.47 1081.01 44.15 1075.33 43.44 1079.74"/>
      <path class="cls-1" d="m43.5,1082.27l-.03-1.27.03,1.27Z"/>
      <polygon class="cls-1" points="23.33 1177.05 22.72 1182.13 22.76 1184.67 23.33 1177.05"/>
      <path class="cls-1" d="m30.88,1132.42l-.24,4.57c.05-.91.89-7.11.24-4.57Z"/>
      <polygon class="cls-1" points="46.23 1044.92 46.29 1039.31 46.2 1039.88 46.14 1045.47 46.23 1044.92"/>
      <path class="cls-1" d="m32.59,1096.61c-.76,3.1.72-9.09-.3-2.66-.47,5.76,0,3.45.3,2.66Z"/>
      <path class="cls-1" d="m40.54,1029.95c.02-.75.03-1.54,0-2.3,0,.91,0,1.67,0,2.3Z"/>
      <path class="cls-1" d="m40.54,1029.95c-.07,2.42-.37,4.83-.3,6.5.34-3.01.32-4.11.3-6.5Z"/>
      <path class="cls-1" d="m40.75,1002.21v2.2c-.27-2.24-.2-1.18,0,.82.02,2.33.17,2.19.27,2.47.06.47.12.93.19,1.43-.07-.72-.13-1.36-.18-1.91,0-3.61-.09-5.81-.28-5.01Z"/>
      <path class="cls-1" d="m38.65,898.51c1.03,8.07,1.22,10.19.8,9.8.99,7.67,1.43,6.4,2.21,11.01-.6-4.34-.97-6.95-1.36-9.78-.39-2.82-.81-5.86-1.65-11.03Z"/>
      <path class="cls-1" d="m41.65,919.31c.14.97.28,1.9.44,3.03-.16-1.26-.31-2.2-.44-3.03Z"/>
      <path class="cls-1" d="m36.27,1034.46c-.11-1.68-.23-3.35-.37-5.03l.02,1.84.35,3.19Z"/>
      <path class="cls-1" d="m37.04,886.54c.2,1.49.58,3.88.63,5.07.43.37-.84-6.56-.63-5.07Z"/>
      <path class="cls-1" d="m34.48,918.6c-.12.85.74,5.98.92,8.09-.34-3.01-.03-5.55-.92-8.09Z"/>
      <path class="cls-1" d="m32.06,863.74c.2,1.49.3,3.81-.14,2.87.5,2.13,1.58,4.96.14-2.87Z"/>
      <polygon class="cls-1" points="32.46 903.9 32.51 905.06 33.53 910.53 32.46 903.9"/>
      <path class="cls-1" d="m29.88,924.24c1.28,6.11-.3-9.93,1.52.65-1.42-13.78-.47,1.13-1.78-8.99.66,5.94.51,8.92.26,8.34Z"/>
      <path class="cls-1" d="m29.62,915.9c-.1-.86-.22-1.8-.36-2.81.15,1.12.26,2.03.36,2.81Z"/>
      <path class="cls-1" d="m19.68,828.48c.16.9.29,1.51.41,2.07-.13-.7-.25-1.38-.41-2.07Z"/>
      <path class="cls-1" d="m24.49,883.65l2.05,9.16c-1.36-6.11-3.71-21.68-4.2-20.61.63,5.06,1.73,11.1,2.38,13.54l-.23-2.09Z"/>
      <path class="cls-1" d="m22.82,775.73l.61,3.98-.36-5.01c.03,1.44-.68-1.11-.25,1.02Z"/>
      <path class="cls-1" d="m23,773.74l.07.97c0-.21-.02-.52-.07-.97Z"/>
      <path class="cls-1" d="m22.35,846.01c.39,3,.74,5.4,1.25,8.11-.04-1.15-1-8.63-1.25-8.11Z"/>
      <polygon class="cls-1" points="19.85 747.54 20.38 754.16 19.88 746.93 19.85 747.54"/>
      <path class="cls-1" d="m19.51,716.54l.08-1.15c-.16-1.83-.27-3.66-.4-5.49l-.09,1.17c.11,1.83.26,3.65.41,5.47Z"/>
      <path class="cls-1" d="m8.76,757.86c.25,4.54,1.11,8.04,1.14,6.84-.22-2.93-.47-5.86-.65-8.79-.37,2.27.16,2.44.42,7.54l-.91-5.6Z"/>
      <path class="cls-1" d="m30.84,486.65c.18,1.99-.98,11.55-1.36,12.01,0-1.3.37-6.5-.16-3.26l.08,7.65c-1.54,10.01-.32-7.76-.13-12.77-1.12,10.25-.89,13.34-2,24.24.4-3.21.82-5.22,1.17-6.9.63-.31-.67,9.82-1.37,17.08.73-4.59.67-1.9.56,1.49-.04.61-.05,1.01-.04,1.3-.01.39-.02.77-.03,1.15l.09-.87c.06.07.16-.12.33-.73.45-6.1,1.42-10.71,1.83-14.63-1.35,3.78,1.14-13.38,1.33-18.36l.46-5.71.2-2.14c.15-.42.22.2.11,3.48.06-2.74.98-11.79.59-10.98l1.9-20.69c.09-.64.2-1.28.3-1.75,0-.72-.04-.85-.1-.76,2.61-30.06,4.73-60.15,6.55-90.26-.32,4.45-.82,8.29-1.21,12.88-.19-6.93-.6,7.52-1.07,5.46-.02-3.11.34-7.64.66-10.33-.24-1.02-.76,2.81-1.09,2.34-1.13,11.36.24,13.2-.73,24.31-.33-.47-.4-3.93-.89,3.36l.06-1.86c-.46,11.69-1.5,9.02-1.04,16.43l-.51-.23c0,2.66-.19,6.56-.42,10.52-.29,3.96-.58,7.98-.79,10.88l-.07-.35c-.38,8.15-.54,10.43-.76,12.96-.24,2.53-.47,5.31-1.21,14.44l.16-8.45c-.81,6.27-.3,7.75-.78,12.26-.07-.33-.55.68-.25-3.59l-1.13,22.21c-.11,5.32.49-1.03.79-1.84Z"/>
      <path class="cls-1" d="m27.27,514.53c-.15,1.17-.3,2.49-.44,4.06.16-1.51.3-2.81.44-4.06Z"/>
      <path class="cls-1" d="m41.49,358.9l-.35,6.35c.14-1.96.26-4.01.35-6.35Z"/>
      <path class="cls-1" d="m25.22,546.25c.65-3.79.1,2.9.24,3.58l1.34-13.68c-.21.04-.3-1.34-.51-1.08l-1.07,11.18Z"/>
      <path class="cls-1" d="m27.58,532.23c-.09-.48-.07-1.94-.03-3.58l-.75,7.5c.16-.03.38-.86.78-3.92Z"/>
      <polygon class="cls-1" points="16.65 532.59 16.88 530.16 17.09 526.47 16.65 532.59"/>
      <path class="cls-1" d="m21.39,494.73c-.6,2.87-.92,8.39-1.03,10.23.63-6.34.47-3.58,1.03-10.23Z"/>
      <polygon class="cls-1" points="17.32 502.23 17.76 496.11 17.65 496.67 17.32 502.23"/>
      <path class="cls-1" d="m41.76,311.88c.03-1.01.07-1.99.1-3-.06,1.37-.09,2.27-.1,3Z"/>
      <path class="cls-1" d="m39.6,364.6c1.4-14.61-.04,9.63.95,5.07.1-2.66.14-5.33.21-7.99l.17.69.47-9.73c-.46,1.98-.56,3.47-.9,3.02.86-12.97.66-4.07,1.64-13.57.26-4.84.45-9.68.65-14.52l.06,1.18c.05-1.22.03-1.77-.01-2.19.32-8.16.71-16.31.96-24.47l.77-24.48c0-8.91-.82,4.9-1.14-1.68-.37,10.32-1.31,25.63-.62,26.54-.09-.35-.26-1.04-.43,1.05l.35,5.99.43-5.68c.37,6.03-.68,25.39-1.2,28.88.3-11.03-.67-5.53.42-20.86-.22.68-.67,3.48-.61.02-.31,8.99-.71,17.51-1.1,26.12-.45,8.6-.86,17.28-1.06,26.61Z"/>
      <path class="cls-1" d="m44.85,184.18l.06.14c-.03-.32-.06-.43-.06-.14Z"/>
      <path class="cls-1" d="m44.72,190.22l.65,8.78.05-13.68-.49-.99c.12,1.21.33,6.01.13,7.86l-.33-1.97Z"/>
      <path class="cls-1" d="m45.72,209.19c-.16-7.07-.75-6.69-1.05-2.84-.22-6.49.66-3.42.07-7.89-.43.14-.24,8.14-.17,9.98l1.15.75Z"/>
      <polygon class="cls-1" points="44.41 261.29 44.21 259.3 44.02 264.19 44.41 261.29"/>
      <path class="cls-1" d="m44.21,259.3l.19-4.85c-.19.33-.38.66-.52,1.45l.33,3.41Z"/>
      <path class="cls-1" d="m44.89,241.71c.08-2.06.15-4.33.21-7.1l-.21,7.1Z"/>
      <path class="cls-1" d="m44.62,247.26l.08-.16.19-5.39c-.08,1.99-.16,3.77-.27,5.55Z"/>
      <path class="cls-1" d="m44.41,254.45c.43-.78.89-1.69.96-8.72l-.67,1.37-.29,7.35Z"/>
      <polygon class="cls-1" points="22.17 457.9 22.39 452.37 22.28 452.94 22.05 458.48 22.17 457.9"/>
      <path class="cls-1" d="m25.19,426.1c.03-1.37.03-2.41.02-3.36-.06,1.44-.08,2.59-.02,3.36Z"/>
      <path class="cls-1" d="m24.13,402.21c.9-6.46-.11,8.99.96-3.01.46-1.03.54,4.64-.07,10.29-.33-.48.18-5.53-.45-2.08.14,3.79-.25,5.2.39,3.93-.13,6.35.21,7.08.25,11.41.16-3.83.68-9.76,1.16-15.94.24-3.09.47-6.25.64-9.24.15-3,.23-5.83.21-8.27-.31-5.4-1.42-2.21-2.37-2.3-.26.79-1.28,14.65-.73,15.21Z"/>
      <path class="cls-1" d="m22.42,412.35c-.27,3-.3,3.92-.36,5.77.36-.47.19-3.34.36-5.77Z"/>
      <path class="cls-1" d="m33.97,343.68c-.1-.58.03-6.04-.27-4.88l-.28,8.27c.13-1.94.33-2.61.55-3.39Z"/>
      <path class="cls-1" d="m33.29,350.69l.13-3.63c-.06.91-.1,2.03-.13,3.63Z"/>
      <path class="cls-1" d="m34.08,343.29c-.04.13-.07.25-.11.39.02.12.05.1.11-.39Z"/>
      <path class="cls-1" d="m45.47,221.58c.26.12.17-3.58.12-5.43-.05,1.51-.17,3.63-.12,5.43Z"/>
      <path class="cls-1" d="m43.49,82.47l.11-3.27c-.09,1.16-.13,1.75-.11,3.27Z"/>
      <path class="cls-1" d="m34.56,32.5c-.05-.09-.11-.33-.16-.65.05.32.1.55.16.65Z"/>
      <path class="cls-1" d="m34.4,31.85c-.3-2.21-.32-9.09-.77-11.54l.12.31-.42-4.58c.24,4.3.66,13.34,1.07,15.82Z"/>
    </g>
  </g>
</svg>