<?xml version="1.0" encoding="UTF-8"?>
<svg id="Layer_2" data-name="Layer 2" xmlns="http://www.w3.org/2000/svg" viewBox="0 0 62.23 1409.68">
  <defs>
    <style>
      .cls-1 {
        fill: #ffa520;
      }
    </style>
  </defs>
  <g id="Layer_1-2" data-name="Layer 1">
    <g>
      <path class="cls-1" d="m9.92,1375.19c-.56,3.17-1.4,5.86-1.31,4.64-.88,6.5-1.35,6.55-.8,7.52-.48,4.19-1.85,8.49-1.19,3.74l-2.02,11.96,1.59-7.07c.21,2.06-2.55,11.3-2.35,13.69l2.65-12.86.06.68c.4-2.97,1.63-8.64,2.11-10.61.04.33.23.16-.2,2.44,3.12-15.53-.19-4.39,2.11-17.33-.14.81-.34,1.81-.66,3.18Z"/>
      <path class="cls-1" d="m13.86,1362.24l.25-5.57,1.83-9.09c-.24-.15.71-6.83-.3-2.37-.11.89-.34,2.64-.62,4.04-.37-1.11,1.84-12.18.81-9.6-1.11,7.24-1.43,8.33-1.77,12.85-1.23,6.6-2.27,11.38-3.04,14.43-.29,1.98,0,2.31-.4,4.82.1-.55.19-1.06.3-1.69l.89-.11c.22-2.11.67-4.06,1.08-6.37l-1.03,10.85c1.45-3.29,2.95-13.86,4.03-17.99-1.66,5.07.42-4.2-2.03,5.82Z"/>
      <path class="cls-1" d="m10.62,1371.74c-.01.07-.03.18-.05.26.01-.08.04-.19.05-.26Z"/>
      <path class="cls-1" d="m14.75,568.54c.1-2.3-.06-2.99-.15-3.33l-.66,12.97c-.23,4.32-.34,8.65-.52,12.97.25-.81.82-8.27.76-3.27.33-2.22.37-9.01.15-10l.24,1.89c-.13-5.99.94-10.03,1-6.12l.02-.5-.81-16.63c-.45,6.07.33,4.71-.04,12.02Z"/>
      <path class="cls-1" d="m51.37,37.92c.24,3.35.34,3.76.4,3.37-.12-1.2-.25-2.34-.4-3.37Z"/>
      <path class="cls-1" d="m14.64,552.62l-.2-5.21c0,2.08.08,3.92.2,5.21Z"/>
      <path class="cls-1" d="m20.84,588.87s.05.07.09-.07l-.18-2.33s0,.05,0,.06c.03.86.06,1.63.09,2.34Z"/>
      <path class="cls-1" d="m22.49,435.08c.04-.56.08-1.03.13-1.7-.05.62-.09,1.18-.13,1.7Z"/>
      <path class="cls-1" d="m22.87,658.78l-.67-11.44c.24,1.53.18-4,.45-1.59-.03-.87-.11-4.97-.24-3.85v2.34c-.67-6.04-.95-2.38-1.43-12.41-.45,6.22-.08,8.96.22,12.25.03,1.12.06,2.05.08,3l1.11,9.52.47,2.18Z"/>
      <path class="cls-1" d="m52.69,198.51l.05.13c-.01-.12-.03-.14-.05-.13Z"/>
      <path class="cls-1" d="m52.93,199.16l-.19-.52c.07.63.03,3,.19.52Z"/>
      <path class="cls-1" d="m14.97,554.55c-.12-.17-.24-.84-.33-1.93l.15,3.89c.05-.55.12-1.27.18-1.96Z"/>
      <path class="cls-1" d="m16,563.44l-.4,9.71.18,3.59c.05-3.72.19-8.07.22-13.3Z"/>
      <path class="cls-1" d="m20.58,450.32c1.83-20.05.34,5,1.43-4.19.44-5.58.26-7.57.48-11.05-1.25,15.92-1.09-2.29-2.44,13.77-.5-2.35.36-11.64,1.11-17.05,1.3-6.09-.04,5.43.48,6.89.54-6.44.3-5.32.19-8.09,1.16-10.08,1.3-20.97,2.86-26.9.61-7.32.23-6.87.31-11.11-.64-.91-1.51,10.82-2.36,13.47.12-.55.35-1.63.42-1.31l-.81,6.3c.87-5.97.64.91.36,4.12-.23,2.33-.67,6.97-.8,6.31l.2-3.55c-.7,4.52-.48,10.08-1.36,14.84-.19.23-.08-1.59-.16-1.87-.04,5.43-.61,10.61-1.02,18.61l-.28-4.69c.2,6.45-1.47,20.85-2.76,30.83.22-1.1.49-3.09.52-1.88-.36,5.9-1.26,10.29-1.39,7.54.04,5.79-2.37,21.87-2.25,29.77.32,12.12.6,24.23,1.11,36.33,0-1.36.01-2.81.08-4.3.84-3.24.88-5.01,1.11.78.04-5.66-.66-3.54-.07-12.01.07,3.34.74,4.23,1.41-3.87.22-5.08.33-9.73.39-14.16.07-4.43.12-8.62.14-12.77.03-4.15.05-8.27.08-12.53.07-4.26.19-8.67.38-13.42.28-.33.71-4.2,1.18-8.9.48-4.69,1.05-10.2,1.42-13.8.26,2.8-.11,8.17-.54,13.73.35-3.48.96-9.48,1.41-13.92l-.85-1.91Z"/>
      <path class="cls-1" d="m17.93,497.46c.09-.5.15-1.02.22-1.56-.06.28-.13.75-.22,1.56Z"/>
      <path class="cls-1" d="m19.85,467.84c.01.07.03.05.05.07.04-.58.08-1.17.12-1.77-.06.6-.13,1.27-.17,1.69Z"/>
      <path class="cls-1" d="m16.37,549.87c.04,1.21.07,2.1.11,3.31.01-.74.02-1.68.04-2.57-.01-.86-.05-1.27-.15-.74Z"/>
      <path class="cls-1" d="m15.26,553.87l-.16-.66c-.05.52-.08.88-.13,1.34.1.15.2,0,.29-.68Z"/>
      <path class="cls-1" d="m32.79,374.28l.09-1.93c-.11,1.16-.12,1.66-.09,1.93Z"/>
      <path class="cls-1" d="m23.61,428.08c-.65,6.97.64.91-.34,10.76l.34-2.89c-.42,7.1-1.73,19.52-2.52,27.92-.2-.98-.84,5.07-1.19,4.04-.41,5.76-.83,11.46-.63,14.47-.48,3.55-.55,9-1.11,13.51.43-1.89.38,6.53.97-4.53-.04.89.07.34.04,1.22.98-7.07.62-9.97,1.16-16.09.6-3.63-.11,6.02.31,2.58.41-7.66,2.54-23.92,1.5-23.51.46-5.56.76-6.3,1.1-7.94-.23-8.89,3.72-32.53,2.35-32.59-.28,3.21-.84,8.43-1.01,13.16l-.95-.12Z"/>
      <path class="cls-1" d="m17.05,538.13c.03-.43.07-1,.1-1.36-.03.4-.07.9-.1,1.36Z"/>
      <path class="cls-1" d="m9.26,626.36c-.3-.98-.58-1.97-.86-2.95.08-8.37.22-14.07.37-19.5.22-5.43.43-10.59.73-17.9.17-1.11.18.67.18,1.57.08-2.57.16-5.46.3-8.46.15-3,.31-6.12.46-9.14.31-6.06.5-11.77.56-15.51.22-3.26,1.05-11.81,1.11-8.55.02-1.59.06-3.41.2-5.23.36-.46-.17,4.09.09,4.21.11-1.44.21-2,.13-2.34.12,2.45,1.26-2.45.52,8.89-1.04,4.35.41-7.88-.59-5.34-.25,3.77.11,3.35.19,3.68-.32,4.8-.53,4.66-.7,4.39.12,1.85-.56,7.87-.29,10.44-.42,9.34-.6-.54-.91,5.56l.67,3.56c-.22,3.38-.48,6.75-.64,10.14-.26,14.71,1.54-2.04,1.39,14.76-.35-2.22-1.4,4.48-1.71,12.31.04-2.34-.05-5.68-.05-9.18.02-3.5.09-7.18.33-10.19-.99,8.49.36-11.72-.56-7.33.2,4.22-.02,11.24-.42,16.71v-1.8c-.35,5.82.52,10.26-.02,18.28-.06,3.99-.28,3.24-.47,2.54.05,3.38.15,6.41-.02,6.41Zm0-8.71l.2-5.34c-.17,1.27-.21,3.26-.2,5.34Z"/>
      <path class="cls-1" d="m25.89,1288.63c-.1.52-.21,1.12-.3,1.59.09-.35.2-.95.3-1.59Z"/>
      <path class="cls-1" d="m40.71,818.22l.62,3.03c-.22-1.19-.43-2.16-.62-3.03Z"/>
      <path class="cls-1" d="m55.79,886.23l.82,4.48c-.26-1.78-.53-3.16-.82-4.48Z"/>
      <path class="cls-1" d="m30.68,1252.08l.02-.15c.01-.25.02-.45.04-.71l-.06.86Z"/>
      <path class="cls-1" d="m58.3,1026c-.13.68-.27,1.45-.42,2.5.1-.12.24-1.06.42-2.5Z"/>
      <path class="cls-1" d="m55.64,885.4c0,.12.01.18.02.27.04.17.09.36.13.55l-.15-.82Z"/>
      <path class="cls-1" d="m36.47,787.88c-.17-.64-.33-1.22-.52-1.9.22.9.38,1.45.52,1.9Z"/>
      <path class="cls-1" d="m35.09,792.65c-.18-.69-.35-1.34-.51-1.85l.51,1.85Z"/>
      <path class="cls-1" d="m21.98,688.02l-.27-4.12c.09,2.03.17,3.23.27,4.12Z"/>
      <path class="cls-1" d="m33.2,781.82c-.09-.23-.18-.45-.25-.6.15.55.26.81.25.6Z"/>
      <path class="cls-1" d="m19.43,1314.37c.01-.09.03-.19.04-.25l-.08-.12.04.37Z"/>
      <path class="cls-1" d="m19.03,1324.54c-.17,1.18-.35,2.41-.52,3.61.22-1.34.41-2.64.52-3.61Z"/>
      <path class="cls-1" d="m49.1,1086.01c-.3,1.08-.89,3.58-.82,2.37-.19,2.08.26,2.05.82-2.37Z"/>
      <path class="cls-1" d="m17.25,1293.58c.02.67-.02,1.49-.05,2.32.1-1.53.2-2.88.05-2.32Z"/>
      <path class="cls-1" d="m17.2,1295.9c-.05.76-.1,1.57-.14,2.25.06-.79.11-1.55.14-2.25Z"/>
      <path class="cls-1" d="m46.49,1057.3c.1-.26.2-.67.3-1.23-.14.15-.23.6-.3,1.23Z"/>
      <path class="cls-1" d="m17.88,1331.04c.1.68-2.14,16.41.2,3.26.54.62-1.16,8.5-1.63,12.03.59-2.52.18,1.34.53.6.23-1.76.41-3.85.96-6.72.51-1.27-.06,3.13-.76,6.52,1.06-4.14-.44,5.42.85-.48,2.02-12.75,3.27-21.79,3.8-30.89-1,7.29-2.17,15.43-3.44,21.33l-.11-2.59c1.62-6.64,1.94-10.85,3.06-17.46l-2.73,14.81c-1.62,6.88-.94,2.21-.11-3.29-.23,1.35-.47,2.56-.63,2.89Z"/>
      <path class="cls-1" d="m14.83,1320.27l-.06.25c-.02.22-.05.49-.05.63l.1-.88Z"/>
      <path class="cls-1" d="m11.01,689.27l-.25-1.29c.13,1.08.21,1.41.25,1.29Z"/>
      <path class="cls-1" d="m18.85,1311.83h0c.01-.09.01-.11,0,0Z"/>
      <path class="cls-1" d="m13.05,721.52s-.04-.09-.06-.17c.03.12.04.11.06.17Z"/>
      <path class="cls-1" d="m25.45,729.04c.02-.06.04-.08.06-.22-.09-.68-.08-.34-.06.22Z"/>
      <path class="cls-1" d="m13.1,721.54s-.03.02-.05-.02c.02.02.04.08.05.02Z"/>
      <path class="cls-1" d="m43.95,874.97s.02-.5-.01-1.28c-.1-.29-.11.02.01,1.28Z"/>
      <path class="cls-1" d="m39.48,844.55c-.02-.2-.03-.31-.05-.56l.05.56Z"/>
      <path class="cls-1" d="m52.75,1079.18c.27-1.52.45-2.66.59-3.62-.2,1.11-.4,2.3-.59,3.62Z"/>
      <path class="cls-1" d="m12.99,721.35c-.08-.32-.18-.77-.32-1.53.15.83.24,1.27.32,1.53Z"/>
      <path class="cls-1" d="m52.37,921.17c-.05-.33-.09-.63-.14-.94l.02.56.12.37Z"/>
      <path class="cls-1" d="m53.19,937.23c-.1-.54-.18-.79-.26-1.09.15,1.43.29,3.15.43,4.96.1,1.81.21,3.7.31,5.45.2,3.5.42,6.44.74,7.05-.1-1.94-.23-12.05.19-10.35-.34-3.99-.38-9.92-.6-12.07.11,6.58-.42.74-.95-3.67-.18-4.03.53.72.34-2.75l-.88-9.3.63,8.11-.77-2.41c.05.3.08.5.12.82.72,6.84.54,7.15.37,7.49-.17.35-.32.73.33,7.74Z"/>
      <path class="cls-1" d="m52.93,936.14c-.09-.86-.18-1.61-.28-2.19.1,1.29.19,1.79.28,2.19Z"/>
      <path class="cls-1" d="m53.17,992.21c.01.7.02,1.47.04,2.43,0-.46-.03-1.52-.04-2.43Z"/>
      <path class="cls-1" d="m15.37,583.63c-.17.23-.81,8.24-.38,8.11.13-2.38.27-4.77.41-7.18l-.03-.93Z"/>
      <path class="cls-1" d="m37.76,1144.26c.1-.89.2-1.78.3-2.67,0-.19,0-.38-.01-.53-.12.54-.23,2.3-.29,3.19Z"/>
      <path class="cls-1" d="m54.91,945.72c-.13-1.47-.23-2.12-.32-2.47.08.95.17,1.82.32,2.47Z"/>
      <path class="cls-1" d="m36.7,1144.65c-.24,1.12-.61,2.77-.79,2.99-.25,2.32-.21,3.96-.35,6.33.19-2.67.58-5.74,1.15-9.32Z"/>
      <path class="cls-1" d="m35.54,1154.16c0-.07,0-.13.01-.19,0,.07,0,.12-.01.19Z"/>
      <path class="cls-1" d="m15.75,578.87c0-.69.01-1.4.02-2.13l.06,1.11c.14-1.84.28-3.67.41-5.5.01-.67.03-1.39.05-2.27,0,.36.03.64.07.81.05-.6.09-1.18.14-1.76-.11-2.2-.1-6.04-.08-9.72.03-3.68.14-7.2.1-8.79.08-4.18.29-9.28.53-12.48-.2,2.96-.36,6.91-.04,5.74.32-3,.71-5.22,1.02-7.99.33-2.77.61-6.09.68-11.3l-.44,6.09.07-13.76c.75-4.76-.03,6.87.17,8.79.17-5.34.71-10.2,1.19-14.34.5-4.14.89-7.58.68-10.08.54-.65,1.45-1.75,1.98-8.73-.97,4.98,0-4.21-.95-.14-.09-2.44.86-7.76.53-8.2l.14.67c1.85-11.83.98-15.84,1.07-20.97,1.17-14.27,2.1-20.78,3.2-32.4.37-.42,1.58-3.5,2.02-8.16-.23-2.21.66-12.74.2-13.87-1.09,8.3-.23,6.86-.61,11.86-1.01,4.09-.62.32-1.55,5.95.67-4.55,1.81-20.7,2.88-25.65l-.1,1.78c1.16-7.96,2.72-9.34,3.27-22.75l.32-6.39c.02.31.09.35.12.52,1.15-10.4,1.49-7.49,2.19-19.03-.05.89.07.34.01,1.25,1.01-6.51,1.05-13.18,1.43-18.14.78-2.97.39.76.54,2.67,1.38-11.5,1.83-24.01,1.97-31.22l1.02-7.4c-.25,4.42-.29,9.85.13,8.54.31-4.09.02-3.33.68-9.09.21,1.02.24,3.47.35,6.22,1.7-11.9-.8-2.77.94-11.05.37-3.75.14-5.98-.19-6.42l1.13-6.76c-.38-.8.37-9.2.79-14.71-.14-.69-.89,4.39-.9,6.49-.33-.44.03-6.32.38-10.08.54-.65,1.09-6.81,1.53-12.25.44-5.44.84-10.15,1.23-7.87.29-4.24.61-8.9.93-13.7.3-4.79.61-9.71.91-14.44.63-9.47,1.01-18.23,1.18-23.83.51-3.67,1.01-11.19,1.17-6.65.4-6.83.4-12.01.47-17.19.03-2.59.07-5.17.16-7.95.06-2.78.16-5.76.37-9.15.17-1.12-.24,6.13.11,5.66-.02-4.44.25-8.46.55-13.1.15-2.32.33-4.79.45-7.54.1-2.75.18-5.79.21-9.23-.04,2.31.14,2.99.23,3.32-.17.24-.19-5.65-.26-9.21.14-2,.05,2.67.2,1.55.14-3.32.27-6.54.34-9.69.02-3.15.04-6.22.06-9.25-.01-3.02-.03-6-.04-8.95-.01-1.47-.03-2.94-.04-4.41-.04-1.46-.09-2.93-.13-4.39-.18-5.84-.35-11.68-.53-17.71-.23-6.02-.51-12.24-.67-18.84.19,7.54.92,10.38,1.18,10.45l-.19-7.39c-.41-2.84-.5-8.39-1.01-13.01.09-.57.12-2.84.38-.54-.04-7.31-.56-13-1.25-19.08-.77-6.08-1.6-12.55-2.06-21.49l2.83,21.52.07-5.38c.41,3.16.88,6.32,1.2,9.48.07-2.86-.27-5.51-.51-7.53-.24-2.03-.43-3.43-.21-3.79.22,1.19.38,4.09.65,4.16-.2-5.47-.59-5.88-.98-9.98,1.88,10.73,2.97,31.99,3.51,43.43.13,1.8-.28-1.53-.39-1.85.16,4.67-.07,7.48.26,13.35.52,3.64.23-2.79.2-5.69.38.39.39,1.85.54,5.07-.26.36-.09,4.79-.15,9.65-.02,4.86-.05,10.16-.33,12.24.15,8.62.44,7.93.72,7.19.26-.74.52-1.53.32,6.89l-.61,5.03c.42,9.78.42,22.43.02,33.48l.04-2.33c-.2-1.56-.41,1-.56,2.13-.53,8.34-.19,15.87-.94,20.91.14,4.78,0,11.13-.11,17.66-.07,3.27-.14,6.57-.21,9.74-.11,3.17-.22,6.21-.32,8.93-.46,1.44-.39-2.11-.22-6.6.16-4.49.33-9.91.23-12.18l-.52,9.9c.32-6.12.17-8.56-.06-12.25-.6,8.67-.07,11.56-.44,19.79-.16-.65-.35.44-.6,4.23l.42,1.11c-.04.07-.11.48-.22,1.65-.22,4.88-.42,9.77-.7,14.64.43-3.09.89-3.21,1.15-6.98-.37,1.33-.22-1.88.03-5.66.1,3.34.51-3.67.77-3.57-.24,3.79-.5,8.02-.74,11.92-.26,3.9-.48,7.47-.6,9.96l-.57,1.58c-.33,3.61-.57,7.32-.79,10.74-.25,3.42-.48,6.55-.75,8.99l-.11-1.56c-.86,8.64-1.26,17.19-2.42,24.83-.18,7.76-.63,17.52-.72,23.87.13,1.71-.6,7.35-1.36,13.66-.78,6.3-1.61,13.27-1.63,17.66-.12.58.16-6.01.24-9-.67,5.77-.41,10.44-1.2,12.19,1.51-12.95-.56.65-.14-5.21-.59,6.07-1.14,12.48-1.23,15.48,1.01-9.82.48,3.58,1.24-6.4-.29,7.76-1.16,18.3-2.32,27.45-.25-.12-.49,1-.96,4.41l.09,2.8c-.52,4.29.42-8.35-.62.28-.28,8.97-3.17,26.75-2.38,30.77-1.19,6.73.87-12.95-.78-2.79.19-5.99,1.54-14.14,1.15-16.16-.44,5.84-.73,2.07-1.13,5.83l-.31,6.54.17-1.43c-.58,10.96-2.65,28.2-3.96,42.14-.59,11.85-.52,20.06-1.93,34.2.05-4.21-1.47,11.72-1.27,2.75-.94,6.52-1.13,13.02-.88,13.17.61-5.75.27-2.02.84-6.86.02,3.3-.67,10.85-1.16,13.94.15-1.44.04-.89-.03-1.22-.83,6.86.01,3.32-.29,8.31-.58,1.54-1.03,10.97-1.64,15.49l.09,6.64c-.15-3.65-.62,6.3-1.08,7.31-.05,4.75.16,8.74-.47,15.93-.03-2.99-.73,6.54-1.17,6.64-.59,6.15-.65,11.27-.67,16.3,0,5.04,0,9.99-.62,15.81-.08-.37-.24-2.74-.52.67,0,1.35-.09,3.2-.17,5.07-.06,1.87-.12,3.77-.17,5.21v-.09c0,.06,0,.09,0,.15-.03,1.41-.01,2.3.09,2.34.25,4.94.52,7.49.59,17.18.46-.7.59-8.87.57-12.42l-.37-3.08c.85-2.89.18-8.74.55-10.95.28,2.92.26,8.56.14,14.72-.06,3.08-.11,6.29-.17,9.36,0,3.07.02,6,.1,8.51.74-6.1,1.38-19.38,1.74-30.98l-.49,5.1.23-6.07-.75,5.85c.28-5.75.46-10.72.74-15.92-.3,6.08-1.1,8.42-.82,4.99.83-6.76.05-7.08.35-12.27-.19,2.88-.4,6.64-.55,4.2,1.09-10.19.94-12.98,2.15-22.23-.89,1.1.65-11.62.13-13.06l-.39,4.31.19-9.19c1.29-8.39.12,7.52,1.54-5.29.95-11.84.13-11.6.82-20.93.25,3.11-.03,10.53-.57,18.05l.57-4.53c.1,2.43-.73,12.82-1.14,18.01.1-8.61-.51,4-1.15,7.87.42.75.7-4.76.66,1.76.37-6.09.41-6.98,1.16-14.72-.75,8.36-.57,12.16-.41,15.68.16,3.52.31,6.77-.35,14.07.23-6.75-.84,2.31-1.08,3.11-.11,3.17-.33,9.61-.35,12.26l.8-2.36c-.07,4.26-.51,7.12-.9,10.14-.38,3.02-.66,6.21-.5,11.14.35,1.29.46-8.63.47-6.86-.08,13.46-1.41,18.26-2.14,30.19.19.68.62.55.88,4.73-.38-1.32-.65,1.77-.84-2.94-.24,3.99-.11,8.73.07,12.25.28-8.3.56,3.4.8,4.93-.09,4.3-.4-1.31-.5-3.96-.13,3.45-.74,7.55-.15,9.52-.41.14-1.11-9.66-1.11-16.08-.06,1.44-.11,2.88-.13,4.32-.22-2.98-.1-3.54.05-7.83-.42,4.19-.78,3.78-1.06,2.79.07-.55.09.31.17-.22.19-3.46.13-6.11-.12-5.31-.5-3.12-.46,4.79-.8,7.13-.02,1.77.04,3.54.06,5.28l1.75,17.96c.32,7.66-.07,11.11-.27,16.87l.51,1.57c0,3.33.09,6.57.03,8.44-.06,1.87-.23,2.38-.62.26.16-.24.09-1.12.06-2.57-.07-.19-.13-.52-.19-.94-.04-.14-.06-.21-.1-.33.42,7.13.68,11.58.7,11.99-1.14-12.09-.91-.57-1.85-2.57.26,4.08.44,8.17.75,12.24-.06-7.44.38-.15.69,2.47-.45.75.58,9.85.76,14.14l-.12-.31c.02,1,.05,2.18.12,3.47.1,1.29.21,2.68.33,4.11.25,2.85.54,5.82.81,8.28.15-.25,1.46,6.05,2.23,9-.56-8.44.08-3.47.32-4.16.05.88.17,2.45.25,2.63.24,1.2.05-1.66.19-1.91-.49-4.48-.98-9.03-1.4-12.92-.23-1.94-.46-3.72-.69-5.23-.19-1.52-.4-2.78-.63-3.69-.07,1.39.07,2.57.23,3.78.19,1.21.39,2.46.42,4.02-.9-4.42-1.04-10.2-1.5-17.69l.27-2.48c-.21-2.51-.47-5.02-.61-7.53.33,3.14.66,1.23,1.21,9.13.33-1.03-.58-7.83-.56-12.69l-.63-2.46c.34.94.03-9.44.7-2.08.31,3.99.54,7.99.9,11.97.05-1.11.13-2.23.22-3.35.15,3.38.44,6.74.66,10.11l-.42-2.37c.66,8.11.46,9.33.3,10.55-.13,1.22-.39,2.48.65,10.61.54,2.53.95,5.16,1.3,8.41.18,1.63.34,3.41.5,5.41.07,1.02.18,2.02.3,3.09.11,1.07.22,2.21.35,3.41-.95-6.92-.54-.66-1.23-3.23.24,3.57.7,5.97,1.12,7.91.4,1.94.9,3.45,1.35,5.29-.02,1.89-.08,3.25-1.15-3.19-.86-.69,1.59,8.44,1.02,9.18,2.1,10.71,3.72,14.89,5.22,19.54,1.54,4.66,3.07,9.77,5.48,22.5l-.51-.88c4,15.96,5.7,25.34,8.96,40.3l1.53,11.99c-.6-2.63-2.57-9.63-2.28-6.24-.34-5.9-1.86-11.94-2.75-18.19-.33-.59.06,1.95.17,3.07-.78-3.72-.84-5.66-2.02-10.55-.1.27.85,5.67-.1,1.65l-.99-6.77c-2.19-8.87-2.09-4.14-4.23-14.64.86,1.84,2.35,5.68,3.36,9.7-.97-4.8,1.67,6.32.95,1.9-2.16-6.75-2.42-10.18-4.88-19.22.33,1.05.51,1.31,1.06,3.54l-2.73-13.28c.36,3.34-2.83-10.81-3.08-9.46,2.88,14.11,2.3,9.9,5.64,26.05-1.16-4.53-3.03-10.27-4.16-12.9-.01-.14-.05-.38-.15-.88-1.08-2.33-.67.2-1.6.36,2.32,7.19,2.9,12.21,5.23,20.8.88,1.52-.48-5.18-1.59-9.45l2.06,7.56-.57-1.45c1.4,6.48,2.79,12.96,4.13,19.46-.81-3.68-1.4-4.86-2.04-6.74.53,2.51.95,5.02,1.36,7.7.37-.66.79-.38,1.3,2.07,1.3,6.27,2.12,11.2,2.73,15.13.56,3.94.88,6.9,1.05,9.27.1.48.22,1.02.31,1.46.1-2.21,2.57,8.78,3.73,12.62-.56-.1.82,6.57,1.12,10.27.89,1.85,1.36-.88,1.07-5.41-2-8.48-1.35-4.71-2.84-8.62-1.02-4.53-1.98-9.07-3.06-13.59l1.07,2.96c-.56-3.43-1.31-6.75-1.84-9.17-.54-2.41-.86-3.92-.5-3.73,1.17,3.51,2.04,9.51,3.16,13.01l-.65-4.56c2.16,7.85.21,4.19,2.41,13.78-.14-3.65.23.86,1.27,4.96-.17-3.41-3.24-17.01-1.81-14.27.67,2.48,1.17,6.76,1.78,11.23.55,4.48,1.22,9.15,2.2,12.42l-.15-.31c.71,4.95,1.33,8.27,1.87,10.81.51,2.55.97,4.32,1.39,6.15.33,4.25,1.44,10.04,2.04,14.62l-.28-.08c.32,2.15.58,4.3.84,6.46-.77-3.04-.86-7.59-1.61-13.13l-.4.75c-.08-3.24-.55-5.89-1.09-8.34-.55-2.45-1.18-4.71-1.75-7.15.72,3.57,1.41,8.65,2.04,13.04.58,4.4,1.14,8.1,1.72,8.89.03,1.51.04,3.02.02,4.53l.4,2.12c-.04,3.38-.92.02-1.79-6.41-.01-1.13-.02-1.7.12-1.37-.29-1.48-.62-2.9-.97-4.85-.34-1.95-.72-4.44-1.18-8.05l.79,3.82c-.62-4.5-1.23-8.79-1.86-12.32-.65-3.53-1.25-6.31-1.73-7.8,1.89,12.95,3.5,25.73,4.83,37.95,1.48,3.49,2.57,7.72,3.73,9.48.95,8.23,1.91,19.46,1.87,26.67l-.23-.65c.06,3.51.26,6.74.5,9.43-.1,3.71-.66-2.52-.69.07.27,3.95.44,7.9.67,11.85-.52-.72-.66-10.7-.99-15.43.08.89.24,2.69.28,2.11-.03-2.76-.36-6.69-.62-10.24-.31-3.54-.56-6.7-.3-7.93-.3-2.67.86,5.41.29-3.67-.2-6.1-1.02-8.02-1.26-8.63-.27-.08.46,9.54-.15,6.23.37,4.72.82,6.58.97,12.63-.36-4.68-1.27-11-1.09-13.52-1.29-9.2-2.41-7.75-2.1-3.41.14-.53.66,3.66.98,6.47.32,2.82.57,4.25.41-1.82.44,2.7.82,6.54,1.19,10.6.4,4.05.6,8.33.94,11.89l-.11-.32.27,4.43.17,4.43c-.17-1.25-.35-3.92-.62-4l1.02,12.27c-.32-3.46-.38-2.38-.37-.05,0,2.33-.04,5.92-.13,7.49.41,1.31.72,6.12.94,1.51.28-5.19-.23-3.02-.27-7.73l.66,6.67-.06.57.53,4.02c-.11,9.1-1.1-3.98-.8,7.68l.74-1.51c-.15,13.52-2.09,30.78-2.45,40.31-.21-2.66-.78-3.86-1.42-.29.21-2.04.43-5.12.66-8.42.22-3.3.47-6.83.53-9.77.08-.56.24,1.29.25,4.07-.01,2.78-.12,6.51-.41,9.7.68-1.51.78-5.54.86-9.27.05-3.74-.02-7.18.6-7.53.27-4.07.39-6.87.38-9-.03-2.12-.14-3.57-.24-4.94-.1-1.37-.19-2.66-.19-4.47,0-1.81.1-4.15.24-7.61-.53-.19-.27-3.93-.74-4.66-.79,4.09-.01,18.48-.75,27.44,0-.88,0-2.65-.09-2.99-.44,6.4-.4,9.05-.45,13.53l.1-.56c-.01,7.84-.72,4.81-1.26,9.38-.02.89-.18,2.93-.27,4.62-.13,1.69-.2,3.03.04,2.53l-1.26,8.25.62-.34c-.2,2.34-.41,3.76-.6,5.13-.21,1.36-.37,2.68-.44,4.81l.5.26.76-5.8.63-5.81c-.39,5.92.4,1.7-.18,8.19.25-7.29-.88,5.08-1.46,5.74l-.26,4.79v-1.23c-.35,1.85-.43,2.97-.5,4.16-.09,1.19-.18,2.47-.52,4.64,1.07-5.07,1.75-8.41,2.17-15.01-.13,2.4-.4,5.98-.66,9.25-.28,3.27-.66,6.21-.8,7.37-.25,2.51-.6,4.63-.98,6.7-.19,1.03-.39,2.06-.58,3.11-.22,1.05-.44,2.14-.65,3.3.66-4.48.12-3.76-.15-4.15-.27-.39-.31-1.89,1.16-10.83.05.35-.18,1.8-.32,2.35.5-1.15.88-3.84,1.16-6.73.21-2.9.33-6.01.43-7.97-.5.96-.12-3.13-1.14,3.76.26-1.12.3.36.14,2.94-.16,2.58-.65,6.24-1.27,9.5l-.66-1.27c-.5,3.17-.95,6.35-1.49,9.51l.11-.89c-1.13,3.48-1.62,10.15-3.04,16.61-.25,2.36-1.26,7.99-1.82,12.11-.56,4.12-.81,6.7.23,2.91-1.46,5.73-1.51,10.95-2.29,17.31l1.45-7.87c-.75,9.44-.74,6.7-.78,14.32-.32.73-.72,2.38-.76.82-1.66,12.59-3.71,30.67-3.72,38.19-.88,8.94-1.97,10.26-2.7,22.88-.12,2.66.95-2-.02,6.32-.11.55.1-8.08-.66,1.21.05,6.67-1.72,15.51-1.99,24.18-.64,4.53-1.35,12.43-1.69,10.74.85-7.19,1.68-17.4,1.58-18.98.21,1.02.76-5.1.51.23,1.37-10.85.33-7.09,1.45-16.83-.14-.69-1,4.97-1,7.08-.69-.02,1.37-19.27-.22-10.67-.98,10.42.18,13.65-1.37,22.63-.09-3.66.79-9.3.46-13.97l-.94,7.4v5.44s-.06-.33-.06-.33c-1.85,13.06-.42,12.21-1.27,23.99,1.16-6.76,1.03,1.7,1.84-3.4-.7,7.87-1.46,13.64-2.14,13.61,1.02-14.76-.6-.91.12-14.57-.47,2.2-.68-3.33-1.57,4.75-.5,9.16.87-2.67.11,6.45-.12.53-.24,1.08-.31.75-.09,4.22-.66,4.86-.86,9.96v-1.22c-1.15,6.18-.32,6.88-1.45,12.18.77-2.08-.02,3.65-.16,7.02.47-2.7.95-4.77,1.5-7.5.56-2.73,1.15-6.13,1.75-11.51-.25-1.34-.56-.59-.25-5.02l-.77,6.99c.11-1.51.14-2.67.22-4.06l.96-6.68c-.63,8.54.2,4.69.21,8.35-1.1,7.77-.63,6.44-1.38,11.32-.51-.56-2.91,14.86-4.6,23.72.2-1.38.46-3.17.61-4.14.54-6.53-1.12,4.39-1.31,4.61l-.4,4.76c.09-.89.13-2.14-.25-.14-.83,6.4-.2,6.12-1.06,12.51-.4.43-.06-5.03-.84-1.1-.48,1.32-1.91,5.55-2.98,14.04.03.62-.26,2.82-.63,5.36.04-.36.1-.8.1-.96l-1.28,5.55c.23-4.87,1.87-9.62,2.06-14.51l-.46-.49c.6-3.74,1.16-8.85,1.24-11.23-.96,5.69-1.01,6.91-1.92,13.3-.47.84,0-3.69.06-4.34l.15,1c1.63-7.53,1.28-11.44,2.77-20.9.23-1.43.14-.55.2-.22.61-7.74,2.34-15.18,2.65-22.74l-.04,2.47c.23-2.56.51-6.34.84-10.73.28-4.4.65-9.4.93-14.4l-.2-.1c-.24,1.09.17-2.64.47-4.64h0c.28-5.01.54-9.83.76-13.77-.25,1.24-.52,2.84-.74,4.68.1,1.59-1.07,10.71-.4,9.52-.4,2.09-.65,4.86-.89,7.48-.26,2.62-.48,5.1-.77,6.64,1.01-5.61.06,3.99.23,5.02-.58,1.85-1.03,8.37-1.4,7.57-.26,1.1.66-2.73.68-5.17.32-5.96-1.75,10.77-1.23,3.36-.87,9.4-2.73,21.69-3.75,31.39l.98-5.36c-.68,4.27-2.14,14.41-2.48,15.14.43-3.19,1.01-6.9,1.53-10.98-.48-.27-1.49,9.77-1.88,10.18l-1.01,11.94.86-5.17c-.18,3.31-2.34,14.05-3.78,22.04.07-4.71,2.03-12.07,3.09-20.54.7-6.17-1.29,3.67-.54-2.15-.4,1.48-.98,5.26-1.12,7.15l-.5,2.26c.23-5.26,2.18-16.82,2.79-24.62-.03.69-.05,1.29,0,1.51,1.14-5.9,2.02-11.94,2.65-17.77-.64,3.04-.67,4.27-.84,6.03-.19.19.51-5.29.62-7.38-.95,5.36-.52.95-1.11,4.35.34-3.53.79-6.37,1.42-10.64.54-2.19.09,1.88.47,1.47.4-4.44,1.45-6.35,1.88-12.86-1.23,8.57-.39-2.35-.28-5.34l-.19,1.44c-.06-2.77.2-5.08.77-6.93-.26,3.54-.77,6.93-.26,5.97.26-2.33.51-4.65.71-7.29v2.43c.44-3.85.82-7.71,1.21-11.57-.14-1.87-.29-4.98-.63-6.63.59-2.75.72-6.64.87-9.28l.02,1.24c.79-5.08,1.61-16.49,1.38-17.48.62-3.63-.48,26.02,1.64.15.89-9.83-.41-6.21-.25-11.85,0,0,.07.33.18-.23.45-4.3.12-4.76.28-8.32-.37,2.57-.71,6.31-.68,7.53-.29-1.33.83-8.97.8-12.3.24,4.34.98-8.31,1-4.96,1.16-8.54,1.52-17.76,1.53-22.32,1.35-5.75.91-10.23,2.34-19.65-.2,1.45-.38,4.1-.67,6.13-.09,5.44,1.32-9.77.87-1.42.11-1.78-.25-.15-.37,1.67-.29,3.19-.39,6.21-.08,5.43l1.26-7.65-.17,2.7c.6-3.87,1.28-7.74,1.93-11.61-.06-.33-.31.75-.44,1.31,1.84-13.51,3.72-29,5.85-40.78-.25-.61-.09-2.74.29-5.74.38-2.99.96-6.8,1.61-10.85.32-2.02.66-4.1.99-6.15.27-2.06.54-4.1.79-6.03.48-3.87.87-7.32.99-9.71.05,2.58.54,4.07,1.06,2.54-.24,2.12-.3,6.52-1.11,11.3-.29.74-1.54,6.59-1.16,2.76-2.08,13.21.91-1.69.76,2.29.63-3.66.94-6.97,1.29-10,.33-3.03.6-5.79.84-8.38.35-5.19.59-9.7.97-14.36l.19-.22c.15-2.35.23-4.71.35-7.06-.62,5.73-1.38,5.37-.43-2l-.04.9c.34-2.09.68-5.34.89-8.89.19-3.55.36-7.41.61-10.7-.05-1.5-.1-3-.2-4.5.34-6.61,1.2-6.86,1.8-8.99.15-2.6.17-4.92.14-7.06-.02-2.14-.08-4.1-.15-5.96-.11-3.72-.42-7.07-.64-10.76.16-1.67.33-6.39.34-9.67.04-3.28.13-5.11.46-.99-.28-4.68-.91-6.54-1.38-9.23-.49-2.69-.9-6.21-.72-14.26l.56,4.14c-.16-3.84-.55-8.07-.9-12.38-.32-4.31-.83-8.68-1.25-12.8-.39-4.12-.9-7.97-1.25-11.24-.35-3.27-.62-5.95-.75-7.72.99,2.74.73-2.06.33-7.92-.45-5.85-1.09-12.74-.69-14.19-.17.8-1.15-4.91-1.43-5.72-.06-1.28-.21-3.39-.85-5.56.7,5.97-1.93-3.96.34,7.3-.87-2.8-1.75-6.03-2.73-10.1-.49-2.04-.97-4.3-1.48-6.83-.53-2.53-1.08-5.32-1.64-8.45l.55.09,1.63,9.93c.21-1.07,1.05,4.04,1.58,6.11-1.41-9.26-1.03-8.7-.67-8.2.36.51.67.97-1.09-8.45-.67-1.76-.3-.61-1.39-5.47.46,2.3.9,2.64.19-1.07l-1.1-3.48c-.42-6.75,2.68,10.77,2.19,5.05.94,3.59,1.96,8.55,2.85,12.29.86,3.74,1.5,6.29,1.64,5.05-.87-6-1.74-8.61-2.52-11.31-.79-2.69-1.64-5.44-2.7-11.69l.02-1.38c-1.08-4.33-1.68-4.94-2.44-7.27.11-.25.02-1.38-.53-4.19-2.22-7.22-3.42-12.06-5.64-18.67,2.27,8.95,2.97,12.83,3.67,16.79.7,3.96,1.41,7.98,3.49,17.27-.74-2.89-3.62-15.97-4.52-16.62l.55.06c-1.55-6-3.13-11.98-4.66-19.61l1.33,4.57c-2.6-9.99-2.99-16.91-5.65-24.67.59,2.82,1.13,5.1,1.6,6.82-1.41-5.13-2.83-11.66-4.01-17.34-1.13-3.85-2.28-7.7-3.37-11.58.14.02-.18-1.83-.38-3.26-.19-1.43-.27-2.43.29-.65-.64-4.31-1.33-7.43-1.95-10.13-.66-2.68-1.2-4.93-1.64-7.44-.21-2.25-.16-2.91-.07-2.59.09.32.31,1.59.59,3.16.52,3.16,1.39,7.46,1.82,7.83-.24-1.52-.47-3.06-.71-4.59-.22-1.54-.44-3.08-.66-4.61-.25-1.52-.38-3.06-.58-4.55-.19-1.5-.38-2.96-.49-4.35-.55-5.6-1.14-10.52-1.67-13.94.1,2.49.11,3.71-.03,3.59.13-.38-.32-5.29-.54-8.02-.17-.62-.33-1.24-.48-1.86-.04-4.58.2-3.95.69-.09-.19-4.36-1.15-9.52-.92-14.04.42,3.71.68,7.94.9,11.73.18,3.79.51,7.12.78,9.05-.42-3.88-.64-6.8-.68-9.31-.07-2.51-.07-4.6-.07-6.83.03-4.45-.18-9.4-.67-19.25.16-.25.59,3.08.46-.72-.44-8.79-.79-2.27-1.26-5.01.45,6.77.35,9.93.07,13.89l-.35-1.8c.13-.28,0-4.54.09-5.8l-.61-1.08c.64.48.88-6.35.46-11.69-.26,5.42-.29,3.96-.95,5.46-.97-7.52.4-8.52-.44-16.95.21.63.47,8,.53,1.63-.05-5.27-.53-4.56-.73-8.1.58,3.98.95,2.95,1.63,7.26.1,4.68.12,5.62.14,6.54.04.92.05,1.81.34,6.38l.09-3.88.17-3.88c.08,3.96.29,5.4.48,5.93.18.53.35.15.46.47.24-13.53-.97-10.18-.98-18.89-.42-4.2.04,8.16-.43,1.59-.02-4.07-.11-4.54-.24-5.13-.13-.59-.33-1.3-.4-5.87l.23,1.53c.32-2.79-.04-5.56-.08-8.79-.14-3.56-1.84,4.02-1.8-10.62.14.72.23.98.29.98l4.32,14.29c.05-7.39.04-15.35.35-23.59.13-4.12.27-8.31.41-12.55.17-4.23.42-8.5.65-12.77,1.01-3.99.25,12.23.67,11.19l-.35,7.79c-.18-.22-.11-4.31-.11-7.46.05-3.15.04-5.37-.42-1.86-.07,6.89-.19,11.9-.29,16.82-.04,2.46-.08,4.9-.05,7.54.06,2.64.16,5.48.33,8.75.46-2.03.39-6.33.42-11.19.05-4.86.08-10.27.51-14.51-.14,3.57-.11,6.58-.05,9.51.14-3.99.29-8.11.45-12.38.13-4.26.43-8.66.64-13.19l-.13-2.05c-.33,6.11-.56,10.34-.61,10.88.38-8.1.17-14.96-.44-15.53l-.08,1.44-.08-2.94c.12-1.9.21-3.8.36-5.69ZM52.82,54.53c.07.49.15.88.25,1.16-.1-.29-.15.04-.25-1.16Zm-31.9,682.96l-.43-4.01c-.12-1.34-.2-2.7-.31-4.04-.19-2.7-.39-5.39-.58-8.07-.19-2.68-.39-5.34-.58-7.99-.2-2.64-.28-5.27-.42-7.86-.02,2.35-.04,4.61-.05,6.71.02,2.1.05,4.03.06,5.73.02,3.39,0,5.83-.13,6.71-.12.88-.33.19-.68-2.66-.17-1.43-.38-3.4-.62-5.99-.12-1.3-.26-2.74-.38-4.36-.1-1.62-.2-3.4-.32-5.35l-.21-2.04c.04,2.05.16,4.84.34,7.94.25,3.1.55,6.52.87,9.82.23,1.33.59,3.4.99,5.75.44,2.35.83,4.99,1.4,7.43.26,1.22.52,2.39.75,3.47.25,1.07.51,2.04.72,2.86.42,1.63.7,2.64.73,2.59.09-1.92-.78-4.59-1.03-8.01l-.13,1.38Zm-.98,7.9c.92,6.08.95,4.66,1.36,5.55-.39-2.13-.82-4.24-1.18-6.35.06.82.04,1.23-.18.8Zm1.54,5.15c-.11-.68-.2-1.26-.22-1.57l.22,1.57Zm-6.22-119.03c0,.27,0,.37.01.63.03-1.45.05-2.9.08-4.42-.04.59-.08,1.71-.09,3.79Zm-.67,12.45l.45,1.45c.02-1.35.05-2.73.07-4.14-.21.47-.39.95-.52,2.69Zm-.67,40.08c.32,1.25.56,3.99.8,6.48.29,2.49.59,4.72.92,4.96.19.53.15-1.25.09-3.24-.14-2.22-.15-4.6-.23-7.12-.09-.08-.2-.58-.31-1.41,0,2.49-.09,4.16-.51,3.17.62-6.43-.8-5.71-.83-12.65-.52-2.19-.17,7.72.08,9.81Zm16.64,526.58c-.07.19-.27.85-.53,1.78l.13-4.88c.91-8.64,2.42-15.49,2.33-23.35.52-3.63,1.11-5.54,1.61-7.38-.19,1.78-.37,3.45-.54,4.83-.8,21.94-2.19,11.28-2.99,29Zm11.44-99.2c-.09.89-.03,1.22-.03,1.22.36-4.85.92-9.45,1.39-13.82.53-4.36,1.12-8.47,1.67-12.3.54-3.83,1.06-7.37,1.57-10.61.26-1.61.51-3.15.74-4.61.21-1.46.41-2.84.6-4.13-.66,1.95-2.61,11.13-3.54,15.48l.15-3.97.82-2.36c.21-2.28.48-4.54.64-6.82-.6,1.84-1.5,7.28-2.37,10.87.02.17-.31,3.18-.68,6.58-.39,3.42-.81,7.2-.94,8.87l1.98-9.29c-.29,1.25-.95,4.98-1.62,9.02-.68,4.04-1.25,8.4-1.59,10.87.25.13,1.97-8.29,1.6-9.45.52-.95-1,8.84.38,2.72-.78,7.39-2.83,19.01-3.67,24.43l-.76.84c-1.02,5.94.25,4.13-.95,11.17.89-8.74-.88,1.39-.12-5.56-.5,2.19-.69-.04-1.46,6.93.18,5.89-1.34,7.28-1.18,12.85-.65,3.64-.12-4-.96,3.2-.37,8.32,0,7.87.58,8.44.95-7.71.02-8.77.86-15.07-.11,4.23-.15,8.46-.21,12.68.38-2.3.57-4.01.67-5.46-.19,2.53-.24,4.69-.21,6.55.01,1.06.03,2.03.04,2.93.69-7.12,1.34-13.44,1.74-14.53l.2,1.01c.55-2.49.77-6.61.75-8.53.7-6.36,1.02-12.77,1.61-14.11l-.03,2.44c.93-7.82.95-8.7,2.36-18.5Zm3.11-256.96c-.11,2.45-.2,5.01.22,9.71.22,2.34.57,5.22,1.04,8.89.49,3.67,1.16,8.12,1.95,13.63l-.32-1.72c.89,11.18,3.75,21.58,4.23,35.26-.97-6.56-.99-6.2-2.68-13.37l1.05,7.02c-.41-.95-.34.33-.12,2.49.2,2.16.49,5.22.73,7.81l-1.12-4.51c0-3.13-.85-11.18-.97-10.93.13.88.09-1.8-.13-5.54-.27-3.73-.68-8.53-1.23-11.87-.38.76,1.54,14.91-.02,8.68,1.04,5.54.56,6.29,1.36,12.11-.92-5.56-.81-1.32-1.6-5.44l1.17,9.55c-.14.26-1.82-13.89-1.6-5.99.31,1.9.72,5.41.98,8.47.28,3.06.56,5.66.83,5.73l-.14.25c.51,7.18,1.02,3.1,1.33,11.95.27.09.34-1.61.08-4.77-.29-2.67-.68-3.05-1.24-8.54.2-2.5.52,6.63.89,2.76.09-.96-.3-4.59-.57-7.48-.25-2.89-.49-5.04.13-3.07l.52,7.18c.54.14.96,5.34,1.37,5.16.53,4.38.18,8.58.95,13.04.46,1.85.92-1.45.99,6.02-.42,5.85.19,22.99.21,29.42l.35,5.63c.32-.48-.08-10.75.36-7.14.04,2.93.14,5.86.12,8.78l-.19-.68c-.1,2.91.06,5.89.12,8.54-.33-2.74-.05-9.07-.62-7.82-.19,4.12-.41,4.74-.38,8.53-.02-.83-.06-1.54-.14-1.44-.19,4.16-.09,6.18.05,7.41.15,1.24.39,1.7.44,2.75.35,8.41,1.05-8.43,1.49-7.34,0,2.05-.06,4.09-.13,6.13l-.19,6.13c-.09,4.09-.33,8.18-.56,12.26-.04-2.1-.07-4.22-.35-3.44-.66,5.98-.44.11-.97,8.53.88-.54-.46,10.63-.57,16.62-.29,1.37-.5,2.2-.52,1.92-.02-.27.13-1.65.39-4.68-.29.32-.51,2.53-.85,5.01-.29,2.48-.62,5.23-.79,6.68-.08,1.69-.34,4.55-.45,6.38.26-1.2.44-1.53.5-.9.07.63,0,2.22-.29,4.85l.06.32c1.34-8.57,3.34-21.94,3.27-27.41l.1,1.55c.34-2.49.57-5.11.76-7.69.15-2.59.21-5.16.3-7.55.18-4.79.35-8.89.88-11.19.35.45.17-2.01.69-1.81l-.09-7.42.17,1.55.11-3.15.03-3.15.06-6.3.09.33c-.31-5.99-.81-10.68-1.11-14.42-.23-.01-.3.38-.47-1.61-.11-2-.15-3.51-.16-4.86,0-.01,0,0,0,0h0c0-3.08.27-5.14.31-8.94l.33,11.69c.39.95.83-.05.94-5.79.07,2.35.4,3.32.38.42-.11-.32-.44-7.67-.68-4.86-.08-2.78-.18-5.99-.29-9.5-.11-3.51-.14-7.34-.37-11.34-.34-8-.98-16.71-2.19-25.08,1.68,12.03-.47-9.73,1.06,3.66-.16-4.71-.54-6.71-.97-8.72-.43-2.01-.91-4.04-1.47-8.8.11-.84.63,5.18,1.27,7.33-1.54-15.88-4.34-26.55-6.66-41.77l.37-.73c-.56-2.86-1.14-6.05-1.83-9.35Zm-6.46-29.77c-.67-2.89-1.36-5.81-2.05-8.78.06.29.11.56.18.87l-2.29-8.61c.99,5.38,1.24,9.01-.65,1.6.33.58.1-1.65.78.92-.81-5.07-3.02-16.1-3.09-13.08,2.84,9.46-.41,2.45,1.79,9.88-1.38-3.95-2.06-8.01-3.15-11.78,1.3,3.89.68-1.13-.49-7.15-.71-2.58-2.19-9.65-3.35-13.94-.09,1.64-1.19-2.07.28,5.01-.7-2.56-1.69-6.55-2.43-11.1.46,1.77,1.2,4.87,1.31,4.62-.22-2.99-1-6.38-1.21-8.3-.33-1.49-.67-3-1-4.47.05.45.08.84.07,1.12-.48-1.63-.95-3.27-1.39-4.91,1.52,6.61.42,3.11.12,3.08.54.08-.77-4.3-1.23-6.58l.41,5.06c-.75-2.34-1.22-8.54-1.52-7.19.86,5.3,1.56,8.95,2.31,12.44.73,3.51,1.55,6.85,2.66,11.56l-.42-3.93c2.65,10.58.72,6.73,3.44,18.65,1.52,4.87,4.08,17.91,4.9,17.99-.57-1.44.96,7.57,2.19,11.59,1.7,4.36,4.61,18.05,4.07,13.83-.74-3.71-2.17-8.61-2.35-11.67l1.66,7.15-.6-4.79c.38,2.46.71,2.15,1.04.91Zm-18.08-162.13c0-.08,0-.18,0-.28,0,.11,0,.21,0,.31v-.03Z"/>
      <path class="cls-1" d="m18.68,1318.62c-.16,2.11-1.04,7.26-.49,6.31-.44.06,1.45-9.22.49-6.31Z"/>
      <path class="cls-1" d="m17.26,1324.71c.04.38.24.15-.12,2.47l.94-6.38-.82,3.91Z"/>
      <path class="cls-1" d="m13.31,1330.68c-.25,3.33-.4,5.43-1.33,10.56-1.35,1.75,1.17-8.46.6-10.95-1.69,9.4-1.31,12.44-2.6,20.19,1.14-3.75,4.08-19.39,3.33-19.81Z"/>
      <polygon class="cls-1" points="12.72 1326.28 12.07 1331.55 12.22 1331.05 12.87 1325.77 12.72 1326.28"/>
      <path class="cls-1" d="m36.38,1213.13c.37-.45.35-3.78.43-5.56-.15,1.44-.42,3.45-.43,5.56Z"/>
      <path class="cls-1" d="m57.72,174.35l.46-10.16c.15-3.39.23-6.78.35-10.17l.33-10.17.16-5.09.09-5.09c-.07,5.86-.33,11.48-.53,17.92-.1,3.22-.22,6.64-.34,10.39-.16,3.75-.34,7.83-.53,12.37Z"/>
      <path class="cls-1" d="m50.08,1079.59c-.76,5.43-1.22,9.37-1.7,13.26-.25,1.95-.5,3.91-.78,6.07-.26,2.16-.57,4.51-.96,7.23,1.42-7.12,2.01-11.86,2.54-16.34.52-4.48.98-8.77,2.35-14.78l-1.44,4.55Z"/>
      <path class="cls-1" d="m51.99,1083.84c-.91,1.69.71-8.49,0-6.98-1.09,7.32,0,3.5-1.18,10.11l1.18-3.13Z"/>
      <polygon class="cls-1" points="34.61 1131.1 34.7 1127.77 34.48 1130.43 34.61 1131.1"/>
      <polygon class="cls-1" points="58.13 1034.11 58.15 1035.34 58.85 1029.86 58.13 1034.11"/>
      <path class="cls-1" d="m58.18,1036.56l-.03-1.22.03,1.22Z"/>
      <path class="cls-1" d="m33.83,1126.71c-.26,1.63-.51,3.26-.73,4.88v2.46c.23-2.45.46-4.9.73-7.34Z"/>
      <path class="cls-1" d="m43.67,1084.19l-.55,4.36c.12-.88,1.37-6.73.55-4.36Z"/>
      <path class="cls-1" d="m60.6,1000.54c-.01-1.8.03-3.6-.03-5.4l-.07.55c.03,1.79.01,3.59.02,5.38l.08-.53Z"/>
      <path class="cls-1" d="m47.07,1050.11c-.82,2.94.89-8.66-.25-2.55-.57,5.49-.07,3.29.25,2.55Z"/>
      <path class="cls-1" d="m54.62,986.26c.01-.72.01-1.48-.03-2.21.01.87.02,1.6.03,2.21Z"/>
      <path class="cls-1" d="m54.62,986.26c-.05,2.32-.27,4.64-.17,6.24.27-2.89.21-3.95.17-6.24Z"/>
      <path class="cls-1" d="m54.33,959.63l.02,2.11c-.29-2.15-.23-1.13,0,.79.07,2.23.22,2.1.33,2.37.07.45.14.89.22,1.37-.08-.69-.15-1.31-.22-1.83-.08-3.46-.16-5.57-.35-4.81Z"/>
      <path class="cls-1" d="m52.03,859.94c1.16,7.78,1.38,9.8.94,9.44,1.02,7.39,1.48,6.15,2.29,10.58-1.36-8.34-1.4-10.08-3.24-20.02Z"/>
      <path class="cls-1" d="m55.27,879.96c.14.94.27,1.83.44,2.92-.16-1.22-.3-2.12-.44-2.92Z"/>
      <polygon class="cls-1" points="50.43 990.66 49.97 985.85 50.01 987.61 50.43 990.66"/>
      <path class="cls-1" d="m50.16,848.43c.24,1.44.67,3.73.76,4.88.44.35-1-6.32-.76-4.88Z"/>
      <path class="cls-1" d="m48.1,879.38c-.09.81.72,5.74.92,7.76-.36-2.89,0-5.34-.92-7.76Z"/>
      <path class="cls-1" d="m44.33,826.64c.27,1.43.48,3.66-.01,2.78.6,2.03,1.8,4.7.01-2.78Z"/>
      <path class="cls-1" d="m45.93,865.3l.06,1.12c.38,1.74.74,3.48,1.08,5.23-.35-2.12-.75-4.23-1.15-6.35Z"/>
      <path class="cls-1" d="m43.5,884.87c1.26,5.85-.27-9.52,1.52.6-.68-6.6-.84-6.32-.93-5.61-.09.71-.17,1.86-.88-2.98.76,5.68.53,8.54.29,7.99Z"/>
      <path class="cls-1" d="m43.21,876.88c-.1-.83-.23-1.72-.38-2.69.15,1.07.27,1.94.38,2.69Z"/>
      <path class="cls-1" d="m29.58,793.78c.24.84.42,1.41.59,1.93-.19-.66-.38-1.29-.59-1.93Z"/>
      <path class="cls-1" d="m37.55,846.17c.79,2.89,1.51,5.78,2.27,8.68-1.45-5.81-4.34-20.57-4.82-19.52.85,4.8,2.1,10.52,2.85,12.83l-.3-1.98Z"/>
      <path class="cls-1" d="m27.89,743.24c.25,1.22.59,2.46.88,3.69-.25-1.56-.5-3.12-.69-4.66.1,1.34-.73-.99-.19.98Z"/>
      <path class="cls-1" d="m27.97,741.36l.12.9c-.01-.2-.05-.49-.12-.9Z"/>
      <path class="cls-1" d="m33.61,810.29c.58,2.84,1.1,5.11,1.77,7.67-.11-1.1-1.55-8.19-1.77-7.67Z"/>
      <polygon class="cls-1" points="24.2 716.69 24.85 723.02 24.22 716.11 24.2 716.69"/>
      <polygon class="cls-1" points="23.52 687.01 23.61 685.9 23.19 680.64 23.1 681.76 23.52 687.01"/>
      <path class="cls-1" d="m13.3,726.83c.3,4.37,1.17,7.71,1.19,6.56l-.73-8.44c-.33,2.19.21,2.34.49,7.25l-.95-5.37Z"/>
      <path class="cls-1" d="m31.44,466.27c.16,1.9-.86,11.05-1.23,11.5-.03-1.24.29-6.22-.2-3.12l.18,7.32c-1.39,9.6-.44-7.43-.3-12.22-.99,9.82-.73,12.78-1.64,23.23.32-3.08.72-5.01,1.05-6.62.6-.3-.49,9.41-1.01,16.38.62-4.41.63-1.83.59,1.42-.03.58-.03.97-.01,1.25,0,.38,0,.74,0,1.1l.07-.83c.06.07.16-.11.32-.71.31-5.85,1.18-10.28,1.5-14.04-1.3,3.63.93-12.82,1.06-17.57l.4-5.46.19-2.04c.15-.4.21.19.12,3.32.04-2.61.95-11.27.57-10.5l1.91-19.77c.1-.61.21-1.22.33-1.67,0-.69-.03-.81-.09-.73,2.84-28.71,5.89-57.43,8.86-86.18-.52,4.25-1.12,7.9-1.69,12.28.05-6.65-.87,7.18-1.27,5.18.09-2.98.61-7.3,1.03-9.87-.2-.99-.86,2.65-1.17,2.19-1.52,10.83-.24,12.65-1.58,23.25-.32-.46-.29-3.78-.97,3.18l.11-1.78c-.76,11.18-1.73,8.59-1.46,15.71l-.51-.24c-.13,5.09-1.14,14.92-1.64,20.47l-.07-.34c-.96,15.6-.76,8.73-2.24,26.2l.18-8.09c-.86,5.99-.32,7.42-.81,11.73-.07-.32-.55.65-.25-3.45l-1.1,21.26c-.06,5.09.47-.99.78-1.76Z"/>
      <path class="cls-1" d="m28.25,492.98c-.12,1.12-.24,2.39-.34,3.9.13-1.45.24-2.7.34-3.9Z"/>
      <path class="cls-1" d="m44.71,344.26l-.62,6.06c.23-1.87.44-3.83.62-6.06Z"/>
      <path class="cls-1" d="m26.97,523.42c.54-3.65.18,2.78.33,3.43l.97-13.15c-.21.04-.33-1.28-.54-1.03l-.76,10.74Z"/>
      <path class="cls-1" d="m28.96,509.93c-.1-.46-.11-1.86-.1-3.43l-.59,7.2c.15-.03.36-.83.69-3.77Z"/>
      <polygon class="cls-1" points="18.03 510.46 18.21 508.12 18.35 504.58 18.03 510.46"/>
      <path class="cls-1" d="m22.07,474.03c-.56,2.76-.8,8.07-.89,9.84.54-6.09.42-3.44.89-9.84Z"/>
      <polygon class="cls-1" points="18.1 481.27 18.46 475.37 18.35 475.92 18.1 481.27"/>
      <path class="cls-1" d="m47.17,299.24c.08-.96.16-1.9.24-2.87-.13,1.31-.2,2.17-.24,2.87Z"/>
      <path class="cls-1" d="m42.57,349.63c2.04-13.93-.46,9.22.75,4.9l.54-7.64.14.67.89-9.29c-.54,1.87-.71,3.3-1.03,2.85,1.42-12.38.83-3.86,2.23-12.91l1.33-13.87v1.13c.11-1.17.11-1.69.09-2.1l2.17-23.38c.73-7.79,1.39-15.6,2.06-23.4.48-8.54-1.08,4.65-1.05-1.68-.48,4.93-1.07,11.06-1.56,16.06-.49,5-.77,8.88-.45,9.33-.07-.34-.21-1.01-.48.98l.05,5.76.71-5.42c.07,5.8-1.91,24.29-2.62,27.6.84-10.54-.37-5.33,1.45-19.95-.25.64-.83,3.29-.61-.02-1.47,17.2-3.37,32.55-4.6,50.39Z"/>
      <path class="cls-1" d="m57.01,177.01l.06.14c-.02-.31-.04-.42-.06-.14Z"/>
      <path class="cls-1" d="m56.61,182.8c.1,2.82.15,5.64.21,8.45.28-4.37.49-8.75.7-13.12l-.45-.98c.07,1.17.07,5.78-.22,7.56l-.24-1.91Z"/>
      <path class="cls-1" d="m56.61,201.05c.23-6.79-.39-6.46-.89-2.78.13-6.23.85-3.24.5-7.56-.43.11-.68,7.79-.72,9.56l1.11.78Z"/>
      <polygon class="cls-1" points="52.51 250.93 52.42 249.01 51.97 253.69 52.51 250.93"/>
      <path class="cls-1" d="m52.42,249.01l.45-4.64c-.21.31-.41.61-.6,1.36l.15,3.28Z"/>
      <path class="cls-1" d="m54.05,232.19c.19-1.97.39-4.14.6-6.79l-.6,6.79Z"/>
      <path class="cls-1" d="m53.47,237.49l.09-.15.49-5.15c-.21,1.9-.4,3.6-.58,5.3Z"/>
      <path class="cls-1" d="m52.87,244.37c.47-.72.98-1.57,1.43-8.3l-.74,1.27-.68,7.03Z"/>
      <polygon class="cls-1" points="22.76 438.61 23.06 433.29 22.94 433.84 22.64 439.16 22.76 438.61"/>
      <path class="cls-1" d="m26.24,408.08c.06-1.32.09-2.32.1-3.23-.1,1.38-.14,2.49-.1,3.23Z"/>
      <path class="cls-1" d="m25.8,385.07c1.07-6.18-.35,8.65,1.04-2.86.49-.98.42,4.48-.34,9.89-.32-.47.32-5.31-.4-2.01.04,3.65-.39,4.99.29,3.79-.29,6.1.03,6.82-.04,10.98.51-7.36,2.69-22.7,2.96-32.08-.12-5.2-1.34-2.18-2.29-2.3-.3.75-1.8,14.04-1.23,14.6Z"/>
      <path class="cls-1" d="m23.83,394.77c-.35,2.88-.4,3.76-.5,5.54.37-.44.27-3.21.5-5.54Z"/>
      <path class="cls-1" d="m37.87,329.3c-.07-.56.29-5.79-.06-4.7l-.64,7.92c.21-1.85.45-2.49.7-3.22Z"/>
      <path class="cls-1" d="m36.88,336l.28-3.47c-.1.87-.19,1.94-.28,3.47Z"/>
      <path class="cls-1" d="m37.99,328.93c-.04.12-.08.23-.12.37.02.11.05.1.12-.37Z"/>
      <path class="cls-1" d="m55.73,212.93c.25.13.37-3.42.4-5.21-.11,1.45-.35,3.47-.4,5.21Z"/>
      <path class="cls-1" d="m59.4,79.24l.18-3.14c-.12,1.11-.17,1.68-.18,3.14Z"/>
      <path class="cls-1" d="m50.84,31.2c-.06-.09-.11-.32-.16-.62.05.31.1.52.16.62Z"/>
      <path class="cls-1" d="m50.67,30.57c-.32-2.12-.27-8.72-.82-11.06l.12.29-.51-4.38c.15,2.06.39,5.25.61,8.22.18,2.98.38,5.74.59,6.92Z"/>
    </g>
  </g>
</svg>