<?xml version="1.0" encoding="UTF-8"?>
<svg id="Layer_2" data-name="Layer 2" xmlns="http://www.w3.org/2000/svg" viewBox="0 0 461.25 65.85">
  <defs>
    <style>
      .cls-1 {
        fill: #ffa520;
      }
    </style>
  </defs>
  <g id="Layer_1-2" data-name="Layer 1">
    <g>
      <path class="cls-1" d="m451.12,31.04c.99.79,1.26,2.03.74,1.88,2.27,1.35,1.66,1.96,2.97,1.27,1.62.82,1.96,2.8.31,1.73.63.5,1.23,1.03,1.81,1.58.58.55,1.21,1.08,1.76,1.67-.47-.84-1-1.63-1.51-2.45.71-.05,1.35.92,1.97,1.92.6,1.01,1.22,2.02,2.07,2.03-1-1.46-2.01-2.91-3.12-4.28l.48-.03c-1.04-.74-2.41-2.61-2.8-3.36.23-.03.43-.31,1.06.39-2.06-2.49-2.8-2.39-3.41-2.21-.62.19-1.21.53-3.17-1.12.25.2.52.5.83.97Z"/>
      <path class="cls-1" d="m449.17,25.24l-2.68-.21c-.88-.86-1.8-1.67-2.72-2.51-.34.4-2.78-.71-1.55.66.33.13,1,.37,1.42.75-.97.65-4.28-2.19-4.02-.65,2.5,1.28,2.7,1.73,4.64,2.02,2.02,1.64,3.29,3.08,3.9,4.19.68.39,1.25-.07,2.05.51-.17-.14-.32-.27-.52-.43l1.08-1.32c-.87-.3-1.35-.95-2.07-1.55,1.5.46,3.07.91,4.57,1.5.12-2.23-3.89-4.43-4.87-6.01.8,2.5-1.76-.51.76,3.05Z"/>
      <path class="cls-1" d="m450.21,30.01s.05.05.08.07c-.02-.02-.06-.05-.08-.07Z"/>
      <path class="cls-1" d="m181.4,43.08c-.76.31-.85.77-.89,1,2.88-1.06,5.76-2.11,8.66-3.13-.42-.33-3.11.03-1.52-.81-.91-.2-3.05.99-3.17,1.69l.4-.87c-1.7,1.55-3.65.42-2.52-.53l-.17.07c-1.47,1.72-2.92,3.45-4.36,5.19,2.09-.56,1.15-1.68,3.58-2.6Z"/>
      <path class="cls-1" d="m7.68,24.35c.45-.83.45-1.01.24-1.05-.13.35-.25.67-.24,1.05Z"/>
      <path class="cls-1" d="m176.81,46.9l-1.34,1.63c.58-.53,1.05-1.11,1.34-1.63Z"/>
      <path class="cls-1" d="m183.45,27.43c-.02-.05-.01-.11-.08-.16l-.62.79s.02,0,.02,0c.25-.22.48-.42.68-.62Z"/>
      <path class="cls-1" d="m131.4,60.43c-.3-.06-.55-.1-.9-.17.32.08.62.13.9.17Z"/>
      <path class="cls-1" d="m205.97,13.7l-3.74,2.22c.4-.63-1.51.12-.83-.68-.29.17-1.67.8-1.2.91l.81-.29c-1.71,2-.26,2.1-3.44,4.25,2.43.09,3.15-.94,4.11-1.91.36-.22.68-.36.99-.51l2.77-2.91.51-1.08Z"/>
      <path class="cls-1" d="m60.81,8.12l.05-.11s-.05.07-.05.11Z"/>
      <path class="cls-1" d="m61.06,7.57l-.2.44c.24-.22,1.12-.41.2-.44Z"/>
      <path class="cls-1" d="m177.12,45.81c.04.26-.07.64-.31,1.08l1.01-1.22c-.19.05-.45.09-.69.13Z"/>
      <path class="cls-1" d="m179,41.86l3.19-1.37.96-1.12c-1.15.71-2.55,1.41-4.14,2.49Z"/>
      <path class="cls-1" d="m139.17,62.26c-1.24.03-2.22-.11-2.85-.18-.65-.09-1-.18-1.15-.27-.31-.2.23-.34.9-.53,1.37-.37,3.31-.79,1.07-1.16-.69,0-1.26.03-1.78.08-.53.02-.99.07-1.42.12-.87.09-1.61.27-2.54.12,2.1.34,3.02.48,3.41.78.38.27.21.57.02.89-.38.59-.72,1.41,3.59,1.5-.64.66-2.23.97-4.1.88-.95-.07-1.94-.22-2.89-.42-.96-.26-1.86-.58-2.61-.89-3.05-2.34,3.35.02,4.29-1.35-.86-.09-1.48-.16-1.95-.23-.47-.06-.78-.06-1.04-.04-.52.05-.8.23-1.67.37-1.35-.58-2.79-1.03-4.17-1.58-1.37-.59-2.77-1.1-4-1.8-2.48-1.35-4.27-2.9-4.75-4.64-.73-.58-1.27-.99-1.7-1.27-.44-.29-.8-.46-1.1-.59-.62-.25-1.2-.36-2.08-.83-.68.33-.03,1.39.94,2.64.97,1.26,2.32,2.69,2.55,3.64-.16-.31-.46-.9-.19-.93.41.44.81.87,1.25,1.3l1.38,1.3c-2.45-2.63,1.22-.8,2.93.15,1.19.81,3.76,2.03,3.23,2.21-.7-.24-1.39-.5-2.09-.77,1.14.87,2.65,1.44,4.18,1.82,1.55.39,3.06.8,4.35,1.52.06.36-1.05.2-1.28.34,1.74-.02,3.35.22,5.08.28,1.75.14,3.6.14,5.77-.11-.82.48-1.74.86-2.65,1.27.94-.33,2.15-.47,3.42-.66.64-.08,1.33-.14,2.03-.18.68-.07,1.38-.13,2.1-.18,1.47-.06,2.84-.22,4.27-.26,1.33-.11,2.7-.14,3.85-.2-.54-.12-1.49-.11-1-.49,1.27-.46,2.43-.57,3.17-.44.71.12,1.01.49.52,1.02.54-.46,1.4-.78,2.45-1.06.99-.3,2.2-.53,3.36-.81,2.34-.56,4.66-1.24,5.79-2.51.89-.99,1.69-1.97,2.52-2.95l2.28-2.87c1.52-1.92,3.06-3.81,4.61-5.72-.38.34-.81.66-1.28.91-1.53-.77-2.07-.4-.59-2.25-1.63,1.35-.55,2.01-3.33,3.15.86-1.02.62-2.49-2.12-1.58-3.08,1.88-5.56,4.2-8.11,6.47-2.58,2.27-5.28,4.58-9.17,6.39-.24-.44-1.97-.26-4.09-.02-1.09.1-2.23.26-3.41.29-.58.02-1.14.05-1.66.07-.53,0-1.05-.03-1.49-.05.34-.26.75-.48,1.22-.66.45-.2.96-.38,1.5-.53,1.11-.29,2.3-.56,3.51-.84-1.54.16-4.24.42-6.37.33-.29.69-.59,1.37-.91,2.06Z"/>
      <path class="cls-1" d="m158.61,55.42c-.21-.02-.42,0-.63.02.13.04.32.04.63-.02Z"/>
      <path class="cls-1" d="m147.21,59.81s0-.07.01-.11c-.25.06-.51.12-.77.18.27-.03.57-.05.75-.07Z"/>
      <path class="cls-1" d="m174.76,44.34c.3-.42.57-.6.88-1.01-.21.18-.5.37-.77.56-.24.23-.33.41-.11.45Z"/>
      <path class="cls-1" d="m176.72,45.44l-.07.46c.19-.02.31-.06.48-.09-.03-.22-.14-.37-.4-.37Z"/>
      <path class="cls-1" d="m115.08,38.14l-.59-.39c.27.3.45.39.59.39Z"/>
      <path class="cls-1" d="m128.06,58.51c1.75.64,1.97.22,2.35-.01.19-.13.42-.25.9-.25.48-.01,1.21.14,2.4.32-.46-.12-.91-.2-1.37-.37.89.06,1.9.1,3,.23,1.09.08,2.25.14,3.42.2,2.31.04,4.65-.02,6.44-.29-.35.63,2.3.41,2.01,1.36,2.44-.63,4.73-1.37,5.65-2.59,1.49-.07,3.32-1.47,5.11-1.67-.88-.29,1.79-2.53-2.06-.58.31-.17.06-.23.37-.4-1.43.05-2.31.45-3.16.92-.83.48-1.63,1.01-2.84,1.3-1.55-.19,2.15-1.39.74-1.29-1.42.6-3.82.96-5.88,1.21-1.01.17-1.96.28-2.62.51-.66.23-1.05.56-.98,1.07-2.5.16-2.83-.28-3.56-.72-2.03,1.02-5.99.19-9.14-1.23-3.19-1.35-5.51-3.11-6.28-1.95.36.21.77.44,1.22.7.46.24.97.48,1.5.73.54.24,1.09.48,1.68.66.59.16,1.2.28,1.8.36l-.69,1.78Z"/>
      <path class="cls-1" d="m170.91,45.96c-.15.04-.34.12-.46.15.14-.04.31-.09.46-.15Z"/>
      <path class="cls-1" d="m203,43.05l-.41,2.04c-5.4,2.25-7.56,2.44-12.35,4.2-.45-.1.08-.46.35-.64-3.32,1.37-8.49,2.87-10.65,4.56-1.08.38-4.08.91-3.21.01-.46.35-1,.72-1.62.89-.39-.55,1.27-.68,1.12-1.19-.49.14-.72.09-.76.33.6-.83-1.62-1.74,2.13-3.12,1.98.87-2.53,1.14-1.08,2.39,1.24-.46.87-1.01.9-1.24,1.59-.55,1.7-.14,1.75.25.42-.71,2.66-.77,3.22-1.82,3.04-1.24.26,1.24,2.27.5l.58-2.01,3.46-.9c4.67-2.27-1.68-2.53,3.6-5.38-.45,1.09,2.28,1.72,4.99,1.18-1.54.59-4.05,2.61-6.22,2.83,3.25.26-3.82,1.51-1.86,2.43,1.15-1.17,3.44-2.08,5.38-2.33l-.54.35c1.98-.49,2.87-2.68,5.77-2.91,1.31-.49,1.21.04,1.1.5,1.04-.62,1.94-1.26,2.06-.9Zm-2.78,1.29l-1.83.43c.51.12,1.17-.1,1.83-.43Z"/>
      <path class="cls-1" d="m422.71,11.61c.19.1.41.22.58.31-.11-.12-.34-.22-.58-.31Z"/>
      <path class="cls-1" d="m270.56,13.08l1.14.71c-.43-.31-.8-.53-1.14-.71Z"/>
      <path class="cls-1" d="m294.36,22.69c.47.16.95.28,1.43.41-.49-.27-.96-.35-1.43-.41Z"/>
      <path class="cls-1" d="m408.25,8.91l-.06-.02c-.1.02-.18.05-.29.07l.35-.06Z"/>
      <path class="cls-1" d="m331.99,37.13c.21.11.45.2.75.25-.07-.16-.35-.23-.75-.25Z"/>
      <path class="cls-1" d="m294.1,22.61s.04.05.06.07c.06,0,.14,0,.21,0l-.26-.08Z"/>
      <path class="cls-1" d="m256.78,3.95c-.4.03-.74.07-1.15.14.53-.03.86-.08,1.15-.14Z"/>
      <path class="cls-1" d="m258.77,8.94c-.37-.01-.72.02-.99.06.33-.02.66-.06.99-.06Z"/>
      <path class="cls-1" d="m217.26,13.92l-1.39.65c.71-.23,1.11-.44,1.39-.65Z"/>
      <path class="cls-1" d="m253.25,7.67c-.11.08-.23.17-.3.25.28-.07.41-.18.3-.25Z"/>
      <path class="cls-1" d="m430.57,19.82s-.07-.03-.09-.03l-.12.16.2-.13Z"/>
      <path class="cls-1" d="m435.1,19.25c.43.18.87.37,1.31.55-.46-.26-.93-.46-1.31-.55Z"/>
      <path class="cls-1" d="m349.38,32.26c.44,0,1.33-.26,1.15.2.39-.7-.14-1.38-1.15-.2Z"/>
      <path class="cls-1" d="m420.29,27.23c.27-.15.57-.24.87-.32-.54.08-1.01.14-.87.32Z"/>
      <path class="cls-1" d="m421.16,26.92c.27-.04.55-.08.81-.13-.28.02-.55.07-.81.13Z"/>
      <path class="cls-1" d="m347.75,49.46c-.15-.06-.34-.07-.56,0,.16.18.35.14.56,0Z"/>
      <path class="cls-1" d="m437.28,20.58c.41-.27,6.21,2.23,1.82-.67.4-.49,1.21-.17,2.09.33.87.51,1.78,1.25,2.46,1.51-.7-.82.89-.38.88-.92-.69-.28-1.6-.45-2.53-1.18-.15-.79,1.58-.12,2.64.85-1.09-1.53,2.43.43.64-1.39-4.72-2.65-8.35-3.99-12.42-3.83,2.79.94,5.95,2.15,7.76,3.89l-1.43.41c-1.87-2.2-3.73-2.33-6.07-3.56l2.56,1.57,2.49,1.67c.98,1.09,1.02,1.46.6,1.42-.42-.05-1.34-.46-2.34-.87.46.26.85.55.87.78Z"/>
      <path class="cls-1" d="m429.61,27.33l.06.06c.08,0,.18.01.24,0l-.3-.06Z"/>
      <path class="cls-1" d="m223.58,35.02l-.32.52c.31-.28.39-.44.32-.52Z"/>
      <path class="cls-1" d="m428.98,21.24h0s-.05,0,0,0Z"/>
      <path class="cls-1" d="m234.51,32.09s-.02.07-.03.11c.03-.04.02-.07.03-.11Z"/>
      <path class="cls-1" d="m231.54,8.62s-.05-.09-.11-.12c-.23.12-.1.14.11.12Z"/>
      <path class="cls-1" d="m234.5,31.99s.02.06.02.1c0-.04,0-.08-.02-.1Z"/>
      <path class="cls-1" d="m279.6,37.13s-.05-.26-.18-.57c-.15.02-.12.18.18.57Z"/>
      <path class="cls-1" d="m271.39,29.18c-.03-.07-.04-.13-.09-.21l.09.21Z"/>
      <path class="cls-1" d="m344.73,29.44c-.4.23-.68.43-.91.62.3-.15.61-.34.91-.62Z"/>
      <path class="cls-1" d="m234.48,32.2c-.08.14-.21.3-.43.51.24-.23.36-.38.43-.51Z"/>
      <path class="cls-1" d="m297.3,41.1c-.12-.02-.24-.03-.36-.04.05.05.11.09.16.14l.2-.09Z"/>
      <path class="cls-1" d="m302.3,44.23c-.24.05-.37.12-.51.18,1.06.19,2.45.71,3.68,1.09,1.22.4,2.33.5,2.71.04-.34-.11-1.34-.54-2.11-1.12-.78-.56-1.35-1.14-.95-1.35-.72-.12-1.5-.55-2.19-.97-.68-.45-1.27-.88-1.66-.95,1.89,1.52-.15,1-1.78.71-1.19-.89.64-.74-.41-1.43l-3.03-1.36,2.53,1.43-1.28.61c.11.01.19.02.31.04,4.72,1.61-.31,1.68,4.68,3.09Z"/>
      <path class="cls-1" d="m301.78,44.41c-.32-.06-.6-.09-.85-.07.44.17.66.14.85.07Z"/>
      <path class="cls-1" d="m321.66,51.27c.27-.01.57-.04.94-.09-.18.02-.59.06-.94.09Z"/>
      <path class="cls-1" d="m185.52,38.72c.19.28,3.11-.03,2.78-.82-.83.2-1.67.4-2.51.6l-.27.23Z"/>
      <path class="cls-1" d="m370.13,24.91c-.28.16-.56.33-.83.52-.04.07-.07.15-.09.22.23,0,.68-.49.91-.73Z"/>
      <path class="cls-1" d="m306.07,43c-.53-.06-.8-.02-.96.07.34.06.67.06.96-.07Z"/>
      <path class="cls-1" d="m371.38,26.53c.48,0,1.18,0,1.42.23.7-.42.95-1.12,1.6-1.66-.77.56-1.72,1.09-3.02,1.43Z"/>
      <path class="cls-1" d="m374.45,25.06l-.05.05s.03-.03.05-.05Z"/>
      <path class="cls-1" d="m183.79,38.94c-.21.15-.43.29-.66.43l.3-.35c-.65.14-1.29.28-1.94.43-.2.13-.43.27-.72.4.11-.07.17-.19.2-.3-.21.04-.42.08-.63.12-1.18,1.36-4.6,3.34-5.47,4.21-1.26.89-2.88,1.73-3.97,2.08.99-.36,2.24-1.03,1.67-1.33-2.19.28-3.7-.71-6.7,1.82l2.02-.81-3.88,3.56c-1.91-.1,1.97-1.79,2.33-2.67-3.21,2.28-7.13,1.09-8.26,3.24-.57-.84-1.5-2.22-3.86-1.36,2.09.52-1.24,1.13.56,1.82-.68.82-2.85.49-2.81,1.22l.13-.45c-1.16-.07-2.08,0-2.85.2-.76.21-1.36.51-1.89.87-1.04.73-1.78,1.65-2.74,2.16-2.78.52-4.93.5-6.92.25-.5-.07-.99-.13-1.48-.19-.49-.1-.99-.2-1.49-.31-1.01-.17-2.06-.5-3.25-.79,0-.33-.17-1.03-.52-1.74-.35-.72-.9-1.33-1.7-1.72-.28.1-.73.08-1.28,0-.27-.04-.57-.1-.87-.16-.3-.09-.6-.18-.91-.27-1.22-.37-2.38-.81-2.91-.52,1.21,1.28,2,1.48,2.62,1.49.63.02,1.16-.17,2.12.18.47.92.4,1.21.4,1.48,0,.27.1.53,1.12,1.3-.42-.29-1.18-.59-2.04-1.05-.44-.22-.91-.45-1.41-.69-.48-.26-.98-.56-1.46-.86-1.93-1.23-3.54-2.77-3.85-3.88l.63.38c-.94-1.37-.91-2.64-1.23-3.87-.33-1.23-.98-2.45-3.14-3.8l-1.96-1.34c.16.01.27-.06.38-.08-2.23-2.89-.61-3.01-4.1-5.22.28.16.23-.06.5.11-.58-1.03-1.54-1.71-2.51-2.23-1.01-.48-1.99-.85-2.74-1.27-.25-1.36.79-.61,1.71-.69-.71-.74-1.59-1.3-2.47-1.84-.9-.51-1.86-.88-2.78-1.21-.94-.3-1.87-.49-2.71-.65-.85-.14-1.65-.19-2.32-.23-.64-.58-1.33-1.09-2.02-1.63,1.54.27,3.65.31,3.51-.42-1.36-.53-1.31,0-3.07-1.03.57-.39,1.59-.54,2.82-.77-3.48-2.8-1.76,1.48-3.74-1.44-1.25-.54-2.3-.04-2.7.6l-1.93-1.74c-.57.79-3.39-.12-5.31-.48-.33.33,1.22,1.38,2.02,1.24-.36.65-2.39.41-3.65.07.01-.99-2.1-1.48-3.97-1.82-1.87-.37-3.51-.63-2.53-1.64-3.02-.21-6.62-.46-9.98-.5-3.36-.03-6.46.1-8.44.48-1.29-.58-3.96-.6-2.36-1.51-4.88-.01-7.31,2.07-12.12,1.78-.41-.22,2.17-.14,1.97-.77-3.1.94-5.78-.52-10.63.42.82-.11,1.03-.53,1.12-.74.11.31-1.95.84-3.18,1.27-.73-.1.92-.32.5-.53-4.75-.04-8.93.84-12.94,1.88-3.98,1.09-7.67,2.47-10.91,4.49,1.86-1.11,2.28-2.56,2.11-3.08-.77.29-1.51.65-2.23,1.03-.25.52-.74,1-1.24,1.54-.47.53-.95,1.11-1.22,1.78-.28-.05-.94.31-.71-.42-1,.63-1.62,1.54-1.92,2.49-.3.95-.34,1.93-.18,2.85.15.92.43,1.78.76,2.54.34.77.66,1.41,1.04,2.24-.78-.33-1.54-.93-2.12-1.82-.59-.89-.99-2.04-1.16-3.3-.23.26-.42.53-.6.81-.2.28-.38.58-.53.9-.34-1.15-.52-2.43-.47-3.73-.72.94-.7,2.09-.58,2.9.12.82.3,1.35-.19,1.5-.29-.48-.13-1.66-.62-1.76-.32,1.13-.21,1.8,0,2.35.18.55.5.99.77,1.8-.75-.97-1.3-2.45-1.39-4.11-.1-1.66.22-3.46.87-5.14.65-1.68,1.61-3.23,2.72-4.54.57-.64,1.15-1.24,1.75-1.76.59-.51,1.11-.94,1.61-1.31.58-.54-.32.75-.3,1.01,1.64-1.14,2.94-1.13,5-2.29,1.11-1.29-1.29-.24-2.43.26-.16-.73.43-.98,1.67-1.58.31.41,2.08-.18,3.98-.51,1.9-.35,3.92-.52,4.77-.05,6.26-1.12-1.29-2.42,4.87-2.72l1.93.91c3.41-1.24,7.9-2.45,11.94-2.52l-.84.1c-.52.52.43.74.86.95,3.05.24,5.71-1.27,7.61-.24,3.4-1.37,9.24-2.37,13.33-2.88,1.05,1.47-5.29,1.18-6.93,2.16,1.21,0,2.42-.05,3.64-.03-2.25.02-3.13.6-4.45,1.46,3.16.22,4.19-1.07,7.23-1.41-.24.4.16.65,1.55.7l.43-.97c.02.08.18.16.61.23,1.81-.12,3.63-.24,5.46-.3-1.12-.49-1.13-1.36-2.55-1.45.47.59-.73.65-2.14.57,1.26-.58-1.36-.6-1.31-1.11,2.84.11,6.35.19,8.26.11l.53.95c2.69.46,5.62.36,7.44.91l-.65.39c3.19.77,6.53.82,9.17,2.42,3.11-.28,7.01.02,9.76-.04.84-.32,2.87.86,5.07,2.23,1.1.69,2.25,1.39,3.35,2.01.55.3,1.1.55,1.63.75.52.21,1.03.36,1.52.42.07.12-.57-.02-1.38-.2-.81-.18-1.81-.36-2.44-.46,1.96,1.22,4.3,1.03,4.29,2.43-4.28-3.08-.27.98-2.46.06,2.09,1.19,4.31,2.47,5.54,2.83-3.26-2.28,2.17-.59-1.49-2.45,1.61.43,3.35,1.29,5.03,2.37.82.57,1.62,1.19,2.39,1.85.76.67,1.43,1.41,2.07,2.14-.41.36-.2.83.6,2.02l1.34.31c1.11,1.39-3.01-1.88-.77.9,1.77.88,3.35,3.14,4.67,4.86,1.33,1.76,2.53,3.05,3.84,2.71.31,1.08-.5.54-1.29,0-.78-.52-1.53-.96-.89.73-1.91-.91-3-3.93-4.42-3.74,1.62,1.47-.29,1.26.55,2.33.68.46,1.35.9,2.02,1.32l-.28-.41c1.64,1.11,3.22,2.79,4.78,4.21.78.71,1.56,1.35,2.34,1.88.38.27.79.49,1.2.68.4.21.8.42,1.22.53.4-.01.78-.02,1.14-.06.37-.08.73-.15,1.09-.22l.51-.11.52-.17c.34-.11.67-.2.99-.29,1.36-.47,2.64-.75,4.55-.88-.52.38.25.54.96.67.68.16,1.26.41.04,1.23.5.09.99.11,1.45.05.46-.08.88-.21,1.24-.36.7-.29,1.14-.75,1.1-1-1.76.21-.64-.04-2.12-.01.83-.79,3.02-1.23,4.09-1.12-.45.08-.25.15-.3.37,2.22-.17.83-.87,2.27-1.59.74.73,3.46-.87,5.07-.98l1.65-1.99c-.87,1.24,2.14-.5,2.77.08,1.38-1.17,2.35-2.68,4.89-3.42-.86.8,2.47-.27,2.82.51,4.48-.84,6.16-4.8,10.6-5.11-.06.23-.68,1.05.57.83.84-.56,2.49-1.04,3.45-1.47l-.02.03s.03-.02.04-.04c.47-.21.74-.42.68-.62,1.42-1.39,2.01-2.5,5.15-4.31-.56-.84-3.28.49-4.4,1.21l-.74,1.28c-1.5-1.03-2.93,1.3-3.87,1.11,1.42-2.35,7.37-3.97,10.53-6.15-2.57-.58-7.29.82-11.26,2.41l1.97-.07-2.11.76,2.39.26c-2.06.52-3.69,1.41-5.51,2,2.1-.78,3.37.19,2.11.42-2.67-.05-2.23,1.46-4.03,2.07,1.02-.29,2.32-.74,1.68.09-3.92.21-4.61,1.25-8.24,1.31.98,1.37-3.93,1.67-3.92,3.11l1.52-.45-2.76,2.14c-3.37-.1,2.06-2.26-2.67-1.41-1.96.69-2.71,1.39-3.37,2.09-.67.71-1.2,1.38-2.62,1.96.63-1.24,2.59-2.83,5.03-3.77l-1.63.14c.28-.41,1.25-.91,2.41-1.4,1.2-.51,2.56-.99,3.46-1.31-2.53,2.19,1.49-.23,3.15.07-.09-.97-1.93-.11.04-1.66-2.09.81-2.37,1.01-5.15,1.72,5.89-1.85,4.01-5.03,9.36-6.21-2.19,1.26,1.28.96,1.72,1.28,1.05-.52,3.21-1.54,4.05-2.09l-1.29-.97c2.77-1.62,4.75.69,7.71-1.82.18-.92-3.11.8-2.54.44,4.41-2.45,6.82-.98,11.31-1.42.11-.46-.21-1.25,1.03-2.42-.2.92,1.01.95-.45,2.06,1.5-.14,2.97-1.26,4.11-1.95-3.07.49.83-1.49,1.23-2.13,1.56-.36-.21.92-1.07,1.44,1.28-.19,3.08.48,3.41-.89.3.8-2.71,3.22-4.87,4.16l1.55-.36c-.91.75-1.14.7-2.67,1.07,1.67.14,1.75.88,1.6,1.57-.23-.05.04-.23-.18-.28-1.27.19-2.12.72-1.69,1.06-.72,1.44,1.89.13,2.88.4.59-.27,1.18-.54,1.76-.81,1.7-1.84,3.42-3.68,5.15-5.5,2.56-1.25,4.04-.78,6.22-.86l.27-1.11c2.38-.62,4.68-.95,3.53.68-.18-.29-.46-.12-.99-.02-.03.15-.12.27-.25.39-.03.07-.04.13-.07.2,2.42-1.04,3.93-1.7,4.07-1.78-3.87,2.62.29,1.77.06,3.66l4.14-1.78c-2.76.21-.28-.81.58-1.3.52.86,3.47-.98,5.02-1.26l-.06.22c1.49-.06,3.93-.81,5.61-1.53-.17-.3,1.68-2.44,2.53-3.65-3.12.42-1.42-.42-1.82-.95.33-.03.9-.16.93-.3.36-.38-.68-.21-.85-.5-3.11,1.29-6.39,2.29-7.33,3.98,1.15.33,1.52-1.04,2.73-.93-1.35,1.31-3.44,1.7-6.11,2.41l-1.09-.54-2.55,1.19c1-.73.09-1.37,2.85-2.32-.57-.64-2.74.96-4.53,1.2l-.57,1.3c.17-.68-3.54.28-1.16-1.28l4.01-2.08-1.39-.38,3.56-1.23-.7.78c5.61-2.33,2.28,1.6,7.79-1.22,1.49-1.76,3.44-2.43,7.12-3.03-2.53.95-.04.97-.83,1.96,2.79-.15,3.42-1.42,4.68-2.26.85.51,1.46.94-.94,1.43.06,1.49,3.06-1.02,3.64.39,1.93-.49,3.36-1.14,4.57-1.84,1.21-.69,2.17-1.43,3.29-2.09,1.13-.66,2.4-1.27,4.43-1.57,1.01-.15,2.24-.21,3.73-.1,1.49.1,3.31.43,5.25,1.05l-.7.48c2.53.28,4.67.83,6.54,1.47,1.83.65,3.44,1.39,4.87,2.15,2.89,1.53,5.27,3.17,8,4.83,1.05,1.38,1.99,2.73,2.83,4.02-.9-.39-3.83-1.14-3.23.23-.87-2.59-3.29-3.66-5.32-5.88-.47.19.41,1.06.67,1.53-1.43-.91-1.8-1.98-4.12-2.89,0,.34,2.09,1.93.27,1.15l-1.26-1.19-1.37-1.17c-2.3-.73-3.12-.35-3.91-.15-.4.1-.83.19-1.49.13-.65-.08-1.56-.27-2.98-.67,1.2-.64,3.83-1.34,6.06-.72-1.25-.53-.36-.36.59-.21.92.17,1.88.35.84-.36-1.01-.07-1.92-.17-2.71-.35-.84-.14-1.6-.36-2.43-.55-1.65-.37-3.61-.83-6.42-.56.65-.14.84-.39,2.25-.33-2.76-.48-5.41-.6-7.81-.54.93.29-.58.61-2.02,1.07-1.46.46-2.83,1.04-2.46,1.53,3.23-.37,4.6-.52,6.03-.66.74-.06,1.51-.11,2.7-.07,1.17.04,2.84.17,5.16.72-1.34-.1-2.94.06-4.28.47-1.34.4-2.46.97-3.11,1.53-.07-.04-.19-.07-.44-.07-1.11,1.18.14,1.38.23,3.28,1.63-.79,3.16-.84,4.77-.68,1.61.18,3.27.52,5.4.76.54-.39.04-.88-.9-1.32-.48-.2-1.08-.37-1.69-.51-.62-.12-1.27-.17-1.83-.19,1.36-.06,2.73-.03,4.07.09-.29.08-.58.17-.87.27,3.24.89,6.09,2.28,8.59,3.77-1.5-.74-2.3-.44-3.29-.39,1.03.51,1.9,1.26,2.74,2.08.28-.99.74-1.53,1.68-.98,2.31,1.5,3.76,2.88,4.77,4.09,1.01,1.22,1.58,2.28,1.92,3.25.16.09.33.19.47.27,0-.64.94-.51,2.07-.23,1.13.27,2.43.64,3.28.62-.68.83,1.43,1.83,2.15,2.97,1.23-.62,1.45-2.5.81-4.15-2.97-.79-1.95-.04-3.99.41-1.45-.61-2.99-1.37-4.58-2.12l1.5-.08c-1.76-1.88-4.71-2.39-3.82-3.3,1.71.16,3.29,1.97,4.85,2.09l-1.1-1.4c1.61.43,1.71.88,1.87,1.44.08.28.16.57.43.88.27.32.73.65,1.5.95-.33-1.57.29.11,1.83.36-.24-.64-1.4-1.39-2.35-2.18-.95-.79-1.67-1.57-.68-1.96,1.01.27,1.88,1.6,2.81,2.78.95,1.21,2.05,2.35,3.48,2.22l-.21.11c2.54,2.08,4.09,1.74,5.42,1.86.83,1.23,2.86,1.45,4.13,2.14l-.29.44,1.88.78c-1.31.38-2.07-1.15-3.64-1.95l-.32.96c-1.15-2.02-3.22-1.28-5.06-1.46,2.42.61,5.52,3.72,6.95,2.32l.76,1.54h.77c.57,1.18-.92,1.69-2.87.87-.2-.39-.29-.59-.09-.71-1.05-.13-2.23.08-4.15-1.37.45.09.91.15,1.36.22-2.48-1.61-4.95-2.81-6.34-2.62,3.37,2.81,6.96,5.18,10.53,7.02,2.09-1.35,3.87-1.89,5.29-3.48.61.19,1.26.42,1.92.67.66.21,1.34.46,1.98.73,1.29.58,2.49,1.11,3.34,1.85l-.32.31c.44.28.9.49,1.34.61.44.1.88.15,1.28.15.85.83-1.03.82-.41,1.32l1.75.19c.58.07,1.15.05,1.72.08-.21.41-1.01.51-1.93.35-.92-.16-1.96-.47-2.63-.64.28,0,.83.01.71-.16-.71-.39-1.9-.54-2.97-.75-1.06-.2-1.98-.5-2.05-1.29-.83-.11,1.89-.26-.58-1.42-1.46-1.17-2.51-.36-2.87-.09-.27.5,2.37,1.88,1.16,2.04.69.26,1.23.3,1.79.42.28.06.56.14.87.29.31.12.64.31,1.03.59-.34-.11-.73-.17-1.14-.22-.41-.07-.82-.14-1.21-.21-.78-.15-1.44-.37-1.62-.9-3.04-.33-3.79,2.01-2.55,2.8.04-.8,5.37,1.32,2.22-1.16,1-.13,2.2.19,3.45.43,1.25.23,2.53.61,3.65.62l-.16.16,2.61.56c-.43.15-1.27.13-1.45.63.66-.05,1.32-.06,1.97-.13l1.92-.26c-1.09.22-.83.45-.19.72.64.27,1.66.56,2.07.81.54-.73,1.95-1.09.77-1.76-1.3-.81-.91.32-2.24.04.72-.25,1.42-.52,2.1-.86l.13.15,1.25-.84c1.19.25.85.81.6,1.24-.12.22-.22.4-.08.51.14.12.52.12,1.33-.07l-.23-1.45c.86.11,1.78.39,2.71.6.93.19,1.88.38,2.79.56.9.09,1.79.16,2.6.18.8-.04,1.49-.23,2.04-.47-.48.9-.62,2.25.49,2.84-.58-.04-1.39.1-2.29.2-.9.06-1.86.18-2.67.32-.16-.11.33-.58,1.05-.99.71-.43,1.67-.69,2.5-.74-.29-.55-.65-.65-1.08-.64-.43.01-.91.22-1.38.43-.47.21-.93.43-1.29.44-.37-.02-.63-.24-.69-.83-1.07-.23-1.79-.19-2.36-.04-.57.1-.98.32-1.38.54-.79.39-1.52.88-3.36-.2-.23,1.03-1.19.32-1.58,1.19.42.92,1.8,1.22,3.34,1.23.77,0,1.57-.04,2.35-.02.77.03,1.49-.03,2.13.15-.25.07-.76.23-.86.43.92.16,1.57.19,2.16.13.58-.06,1.07-.3,1.68-.53l-.17-.11c1.05-.6,1.39-.42,1.66-.06.27.37.45.93,1.13,1.03.48-.25,2.34-.26,1.89-.96l.63.15.62.08,1.28.16-.43-1.1c1.23-.41,1.78.28,2.66-.84l-.32-1.01c-1.02.3-2.08.4-3.11.57,1.42-.76.15-1.08,1.7-1.75-.72.81-.36.87.26.81.61-.1,1.46-.3,1.74.12.33-.32.66-.72.99-1.06l-.2.39c1.18.08.97-.83,2.14-1.28-.79.08-1.47.04-2.11.12-.64.1-1.24.38-1.92,1,.98-.92,3-2.64,3.55-2.97.51-.48,1.08-.74,1.68-.88.6-.14,1.24-.26,1.87-.58-1.04.88-.44,1.46-.2,2.07.12.31.15.62-.18.99-.33.35-1.01.83-2.28,1.22,0-.22.4-.37.6-.34-.63-.45-1.31-.07-1.95.52-.64.54-1.25,1.38-1.68,1.8.28.31.16.61.22.8.06.18.31.29,1.34.06-.79-.2.86-2.23,2.89-2.59l.46,1.63c.92-.42,1.83-.85,2.75-1.32l-.21.22c.77.15,1.47-.33,2.23-.92.76-.64,1.59-1.33,2.69-1.73.5-.69,2.09-1.85,3.17-2.84,1.08-1.01,1.63-1.8.01-1.69,2.29-.38,2.99-2.55,4.78-4.13l-2.76,1.18c1.01-1.48,1.48-1.95,1.79-2.42.32-.47.51-.96,1.14-2.57.5.2,1.24.13,1.04.86,1.99-1.37,4.55-2.97,7-4.51,2.4-1.55,4.72-3.01,5.91-4.34,3.62-1.57,4.84-.08,9.65-2.45.5-.28.18-.59.17-.9,0-.31.31-.65,2.11-.87.25.06-2.97,2.07.8.92.6-.5,1.31-.79,2.1-.96.79-.17,1.64-.28,2.52-.33.88-.05,1.78-.09,2.67-.23.9-.12,1.79-.29,2.66-.68,1.95.24,5.22-.09,4.58.96-2.98-.12-7.18.59-7.72,1.22.32-.67-2.2-.24-.09-1.06-1.15,0-1.91.06-2.46.17-.54.13-.88.29-1.19.45-.63.35-1.19.61-3.24.91-.08.23.49.37,1.18.37.69.01,1.5-.05,1.88-.33.15.67-1.74,1.24-3.16,1.85-1.43.58-2.37,1.14-.46,1.43,1.02-.24,1.81-.62,2.5-1.03.69-.39,1.28-.82,1.87-1.21,1.16-.81,2.37-1.33,4.29-.91-1.32,1.05-3.73.73-5.22,2.57,1.01-.02,2-.08,3-.05l1.95-1.33-.1.22c2.67.28,3.8-.19,4.91-.86.55-.34,1.08-.74,1.78-1.11.7-.35,1.56-.67,2.76-.87-2.83-.89.63-2.41-1.53-2.94,1.67-.15,3.13-.11,4.15.11,1.03.21,1.62.65,1.59,1.34-3.08.44-3.15.85-3.19,1.23-.03.41-.02.78-2.74,1.55.89.47-1.2,2.05,1.96,2.12,3.58-.92-1.08-1.17,2.53-1.56.21.13.43.26.29.46,1.69-.63,1.91.35,3.97-.28l-.5.23c2.36,1.1,2.81-.68,4.8.55-.69-1.13,1.55-.65,2.99-.98-1.04-.41-1.8-1-2.86-1.57-1.05-.59-2.42-1.09-4.64-1.28-.6.77-.32,1.24-2.14,1.51.94.04,1.89.03,2.83.12-.62.06-1.1.23-1.67.36-.89-.19-1.78-.41-2.69-.58,3.48-.39,1.96-1.33,3.52-2.08,3.19.7,2.7.02,4.69.59-.19.59,1.29,1.25,3.17,2.12.95.41,2,.84,3.02,1.31,1.02.45,2,.9,2.81,1.35-.53-.19-1.22-.38-1.6-.49-1.36.06-.98.4-.27.78.71.37,1.73.84,1.73,1,.65-.01,1.32-.04,1.97-.04-.36-.04-.91.09-.2.49,2.47.6,2.73-.6,5.23.13-.07.67-2.42.84-1.07,1.72.32.73,1.32,2.71,4.5,3.58.32-.12,1.15.12,2.09.47-.14-.04-.31-.08-.38-.07.55.54,1.07,1.11,1.59,1.66-2.13.09-3.09-2.2-5.25-1.96l-.57.91c-.65-.28-1.46-.51-2.23-.63-.78-.1-1.52-.12-2.02-.01,1.92.91,2.42.84,4.69,1.59.02.74-1.7.53-1.95.51l.56-.41c-1.11-.98-2.21-1.13-3.38-1.21-1.17-.11-2.46-.06-4.07-.69-.49-.19-.16-.17.01-.33-1.5.1-2.79-.38-4.12-.73-1.32-.4-2.68-.64-4.12-.24l.97-.38c-1.91.1-5.62.56-9.13,1.44l-.05.41c.37.26-.92.19-1.61.02h0c-.87.22-1.71.46-2.5.71-.79.25-1.52.45-2.17.68.44.21.99.41,1.61.46.25-.24,1.16-.3,1.94-.4.78-.08,1.46-.24,1.26-.8.72.33,1.65.3,2.55.27.9-.06,1.76-.12,2.27.16-1.87-.92,1.45-.89,1.89-1.45.56.79,2.92.39,2.51,1.27.35.3-.85-.76-1.77-.33-2.13.56,3.56,1.32.93,1.75,3.27-.15,7.29,1.14,10.7,1.44l-1.66-.96c.68.31,1.89.66,2.91,1.08,1.02.42,1.89.81,1.92,1.07-1.08-.28-2.26-.8-3.66-1.05-.4.94,3.17,1.14,3.07,1.82,1.45,0,2.96-.04,4.44.07-.54-.28-1.07-.57-1.62-.82.67-.08,1.77.51,3.01,1.26,1.22.8,2.57,1.78,3.71,2.59-1.06.2-1.95-.33-2.98-.98-1-.69-2.18-1.46-3.62-1.83-2.16-.34.61,1.78-1.35,1.31.34.49,1.48,1.01,2.21.96l.57.57c-2.12.37-5.5-1.45-8.27-1.18.25-.06.49-.14.6-.26-1.67-1.11-3.6-1.7-5.53-1.81.88.62,1.32.49,1.91.49-.02.32-1.78-.03-2.52.19,1.6.78.13.82,1.13,1.3-1.16.04-2-.29-3.31-.69-.6-.62.71-.56.71-1.22-1.47.11-1.84-1.58-4.06-1.14,2.72.71-.94,1.24-1.9,1.63l.45.09c-.94.67-1.64.6-2.18-.13,1.13-.22,2.18.13,1.95-.68-.74-.04-1.48-.12-2.33.08l.81-.51c-1.24-.01-2.47-.08-3.7-.02-.6.67-1.56,1.61-2.02,2.65-.86-.6-2.02-.06-2.79.26l.35-.31c-1.6-.55-4.97.44-5.13,1.1-.58-.16,1.15-1.47,2.2-2.39.52-.48.84-.9.53-1.1-.31-.18-1.29-.26-3.28.25-1.54.23-1.9.87-2.09,1.47-.18.62-.19,1.27-.92,1.79,0,0,.04-.22-.15-.3-1.28.21-1.23.92-2.13,1.52.8.05,1.87-.19,2.14-.56-.09.44-.72.59-1.43.74-.71.16-1.48.37-1.84.81.4-.78-.22-.71-.85-.55-.61.19-1.24.46-.9-.01-1.34.04-2.52.65-3.47,1.34-.92.78-1.57,1.58-1.94,2.35-1.14-.25-1.8.16-2.51.8-.36.32-.73.66-1.2,1-.47.36-1.03.7-1.77.96.42-.22,1-.88,1.63-1.1.92-1.78-2.93,1.3-1.18-.93-.4.45.25.46.66,0,.8-.63,1.38-1.49.93-1.75-.85.19-1.72.36-2.59.59l.62-.69c-1.3.37-2.62.74-3.95,1.18.02.23.47.22.7.21-4.11,2.17-8.13,6.11-11.86,8.54.47,1.38-1.61,3.23-4.27,5.11-2.64,1.9-6,3.67-7.49,5.31.67-1.19.52-2.73-.3-2.96.74-.49,1.79-2.27,3.53-3.01.5.26,2.76-.53,1.73.7,4.32-3.01-1.24-.68-.46-2.38-4.7,3.16-7.29,6.06-10.86,7.99l-.2-.29-2.71,1.41c2.42-.49,2.79,1.06-.51,1.4l.36-.18c-.49-.05-1.07.07-1.72.16-.66.1-1.38.26-2.13.44-.76.18-1.54.37-2.32.56-.78.13-1.55.21-2.27.25l-1.9,1.06c-.73.04-1.28-.09-1.72-.29-.43-.19-.75-.45-1-.74-.5-.57-.75-1.26-1.18-1.77-4.26-.24-6.84.77-10.05,1.04-.31-.25-.95-.49-1.64-.79-.69-.3-1.45-.63-2.08-.9-1.24-.56-1.88-1-.15-1.04-1.92-.11-2.94.74-4.24,1.18-1.28.43-2.91.45-5.55-1.78l1.83-.08c-2.93-.99-6.53-2.07-9.59-3.29-3.1-1.17-5.64-2.47-6.69-3.45.81-.29.87-.8.55-1.46-.32-.66-1.03-1.47-1.82-2.32-1.61-1.68-3.39-3.69-3.14-5.01-.08.65-2-.39-2.42-.33-.22-.52-.71-1.2-1.69-1.25,1.56,1.7-2.81,1.24,1.33,2.87-1.39.09-2.87,0-4.51-.47-.8-.25-1.64-.6-2.52-1.07-.88-.47-1.82-1.07-2.7-1.78l.69-.8c.88.81,1.87,1.66,2.84,2.51.15-.86,1.7.36,2.57.53-2.71-2.33-2.13-2.69-1.66-2.99.5-.29.84-.55-1.98-2.59-.93.15-.44.17-1.99-.66.67.46,1.23-.03.18-.83l-1.5-.06c-.4-1.38.52-1.06,1.46-.65.94.42,1.88.93,1.45-.16,2.55.91,6.68,3.38,6.74,1.76-3.25-2.97-4.72-.39-7.91-3.5l-.04-.74c-1.48-.58-2.21.06-3.18.08.12-.31-.06-.72-.8-1.3-1.4-.07-2.43-.18-3.42-.21-.98-.02-1.93.03-3,.44,1.18.14,2.04.46,2.69.84.65.36,1.09.78,1.53,1.2.89.86,1.73,1.72,4.6,3.21-.54-.12-1.76-.79-2.92-1.19-1.17-.42-2.28-.57-2.75,0l.59-.88c-1.83-.47-3.43-.67-4.88-1.52.39-.06.78-.17,1.2-.19-1.25-.1-1.96-.68-2.73-1.1-.74-.42-1.57-.59-2.48.31.66.07,1.12.06,1.48-.08-1.05.38-2.54.36-4.19.46l-3.19,2.43c-.05-.53-2.62.06-1.58-1.05-3.14-.05-4.16,1.81-5.79,2.5-3.29-.32,2.48-1.15,2.44-2.62-4.29.55-8.58,2.14-10.67,3.68.9-.02,1.36.05,1.38.31-.21-.29-1.86.24-2.79.48l-.46.84c-1.66-.02-1.56-.47-.38-1.33-1.52.28-2.92,2.03-4.71,1.5,2.3-1.49,5.71-1.69,6.9-2.53-5.1,2.08-5.88-.58-12.33,2.17-.17-.29.78-1.23-.51-.87-2.91,1.12-.38,1.58-1.1,2.59,2.17-1.09,3.35-.99,4.92-.53l-.46.71c-.17-.25-1.61.14-2.11,0l-.05,1.2c-.18-1.26-2.74-1.5-4.42-.52,2.08.34,1.58.44,2.48,1.66-2.14,2.04-3.24-.43-5.65,1.8.09-.45,2.48-1.49.25-1.14-1.78.49-1.26,1.34-2.35,2.01,1.02-1.41.45-2.04,1.54-3.67,3.12-1.08,1.27-.38,4.23-1.73l-2.87-.07c2.63-.98,1.61-1.73,1.71-2.18-4.9.36-3,2.56-6.02,3.19-1.2,1.12,2.8-.7.8.69-2.79.71-.42.85-3.36,2.24l.37-.62c-1.13-.3-1.83.72-2.87,1.17-1.09.68,2.45,3.03-2.4,4.67.15-.35.18-.56.14-.67.68-3.29,1.38-6.6,2.1-9.9-5.01,1.62-10.84,3.29-16.8,4.74-1.93-1.15,3.66-2.77,3.06-3.37l2.76-.57c.08.74-5.46,2.1-2.66,2.5,4.49-2.09,6.87-1.99,10.85-4.85-1.92-1.2-5.76,2.19-9.07,1.9,1.25-.3,2.21-.82,3.13-1.38-2.78.71-5.76,1.47-8.93,2.27l-.55.64c2.13-.55,3.62-.89,3.83-.9-2.81.79-4.8,2.52-4.56,3.77l.5-.13-.86.72c-.67.15-1.34.3-2,.45ZM10.43,19.9c.09-.18.13-.37.14-.57,0,.21.15.26-.14.57Zm226.6-1.62c-3.82.78-7.71,1.45-11.36,2.31,7.18.62,12.19,1.25,1.37,4.11l-.66.37c1.49-.1,3.93-.73,6.18-1.5,1.62-1.36,6.85-6.03,6.72-6.29-.84-.51-1.62.48-2.88.58l.62.43Zm3.69,3.36c2.19-.26,1.58-.67,1.79-1.23-.73.25-1.47.49-2.19.73.31.05.5.19.4.5Zm1.54-1.68c-.24.05-.45.08-.58.04l.58-.04Zm-41.27,11.08c.09-.04.12-.06.21-.1-.51.12-1.01.25-1.54.38.23.01.63-.05,1.34-.28Zm4.62-.2l.22-1.02c-.47.11-.95.23-1.45.34.28.34.56.63,1.22.68Zm14.53-1.27c.56-1.29,3.45-2.16,3.28-3.43.1-.36-.55-.31-1.26-.21-.77.19-1.6.38-2.48.6.02.19-.1.4-.35.64.9-.09,1.56.05,1.42.89-2.66-.99-1.63,1.72-4.11,2-.5,1.07,2.88.07,3.49-.48Zm172.92-11.48c.09.1.37.34.75.63l-1.57.89c-1.49.16-2.94-.1-4.3-.01-1.37.04-2.65.38-3.7,1.54-1.33.04-2.26-.46-3.14-.86.62-.18,1.21-.33,1.71-.41,3.37-2.37,4.64-1.97,5.58-1.53.48.22.93.52,1.61.55.68.05,1.58-.18,3.06-.8Zm-32.82,13.55c.21-.25.18-.49.18-.49-2.12,2.99-4.22,5.46-6.28,7.39-2.06,1.92-4.03,3.33-5.73,4.2,1.1.47,4.45-.72,6.02-1.34l-.66,1.68-1.22-.2c-.57.71-1.12,1.44-1.72,2.15.98.24,2.74-.97,4.18-1.29.03-.23,3.02-3.71,3.58-4.94-1.07.48-2.17.93-3.25,1.39.95-.28,4.55-3.12,5.82-4.41-.28-.44-3.25.73-2.91,1.87-.74-.41,2.14-2.51-.18-1.86,1.67-2.23,5.47-4.19,7.29-5.02l1.03.87c2.02-.83.26-2.13,2.78-2.95-2.41,1.98,1.24.88-.73,2.36.93-.04.8,1.12,2.75-.34.36-1.27,1.05-1.4,1.72-1.49.68-.08,1.36-.11,1.76-1.26,1.34-.18-.61,1.57,1.6.53,1.95-2.16,1.55-2.6,1.12-3.82-1.28.42-1.73,1.22-2.12,1.89-.4.69-.7,1.39-1.71,1.82.84-1.38,1.74-2.71,2.7-4.07-.86.13-1.4.41-1.81.73.72-.54,1.21-1.22,1.6-1.9.22-.39.44-.73.64-1.04-2.33,1.13-4.28,2.32-4.91,2.08v-.71c-1.09,0-2.16,1.18-2.48,1.94-1.92,1.33-3.3,3.36-4.17,3.01l.39-.97c-2.21,1.8-2.43,2.05-5.29,4.16Zm-81.3-6.09c.03,2.75.31,5.63,7.3,9.68l-.61-.21c1.32,1.71,3.3,2.31,5.31,2.98,2.05.62,4.13,1.31,6.01,3.07-2.53-.32-2.38-.29-5.65.1.87.23,1.73.49,2.6.69-1.22.75,1.43,1.37,3.14,2.28l-2.17.54c-.44-.45-1.32-1.04-2.1-1.49-.76-.47-1.43-.79-1.46-.62.33.09-.33-.79-1.36-1.8-1.04-.99-2.37-2.21-3.56-2.66-.3.97,4.48,3.35,1.63,3.52,2.17.46,1.94,1.42,4.05,2.19-2.19-.43-1.09.93-2.84.78,1.14.49,2.25,1.01,3.43,1.44-.09.39-5.11-1.92-3,.61,1.53.29,4.91,2.61,5.41,1.71l-.06.33c2.51,1.37,1.75-.85,4.68,1.09.24-.48-.22-1.08-1.39-1.47-1.04-.21-1.51.42-3.52-.37-.25-.59.31-.27.86-.06.56.2,1.07.3.68-.64-.37-.92-5.29-1.94-3.2-2.65l2.36,1.42c.51-.9,2.28-.03,2.59-.84,1.67.29,2.63,2.08,4.58,1.8.9-.39.22-2,2.61-.51.74,1.12,2.73,2.05,4.82,2.78,2.13.62,4.33,1.06,5.58,1.11l2.22-.3c-.08-.67-4-.61-2.51-1.2l3.26.31-.3.36c1.07.24,2.24-.12,3.23-.25-1.07.66-3.42.13-3.09,1.26,1.53.38,1.74.8,3.21.73-.32.05-.61.13-.58.29.79.19,1.39.24,1.85.17.46-.09.79-.27,1.03-.47.49-.41.67-.92,1.07-1.09,1.58-.7.77-1.04-.33-1.35-.55-.15-1.19-.3-1.65-.48-.46-.21-.75-.45-.64-.72,1.47.02,2.93-.14,4.38-.2,1.45-.15,2.89-.41,4.31-.61-.69.41-1.42.82-1.09,1.25,2.24.3.15.95,3.22.38-.23-.72.68-1.12,1.88-1.49,1.18-.44,2.65-.96,3.54-1.65,1.14.32,1.4.37-.72.99.25.43,1.09.38,1.97.13.87-.28,1.8-.7,2.32-.84.48-.47,1.38-1.02,1.89-1.48-1.02-.11-.88-.76.59-1.97v-.23c-.69.29-1.53.54-2.39.78-.86.26-1.76.46-2.61.68-.84.25-1.67.41-2.37.64-.7.23-1.28.52-1.67.89l.39-.61c-.44,0-.86.09-1.29.18-.43.06-.86.16-1.29.28-.85.24-1.68.58-2.46.88-1.6.44-3.03.74-3.85-.12.12-.72-.69-.17-.65-1.22l-2.48.79.53-.47c-1.4.12-2.82-.02-4.24-.05l.13-.19c-1.06.41-2.02.66-2.9.91-.9.25-1.69.47-2.39.67-.1.44,0,.64-.76.79-.75.05-1.29-.05-1.75-.22h0s0,0,0,0c-1.05-.41-1.6-1.17-2.8-1.86,1.32.42,2.69.63,4.03.95.5-.68.33-1.56-1.43-2.56.79.16,1.25-.35.33-.67-.08.08-.74.06-1.29.09-.54.01-.98.12-.61.56-.93-.22-1.97-.63-3.08-1.11-1.1-.53-2.26-1.19-3.5-1.8-1.22-.65-2.48-1.36-3.83-1.91-1.33-.6-2.71-1.15-4.2-1.46,4.16,1.07-2.51-2.43,1.78-.64-1.16-1.25-1.89-1.34-2.72-1.29-.82.04-1.74.22-3.14-.7-.03-.52,1.55.95,2.65.53-.57-.39-1.14-.72-1.71-1.01-.56-.31-1.12-.58-1.68-.82-1.12-.49-2.26-.85-3.37-1.28-1.11-.42-2.24-.81-3.34-1.34-1.09-.54-2.18-1.19-3.24-2.04l.38-.93c-.9-.51-1.89-1.07-2.93-1.65Zm-9.72-5.45c-.99-.49-2.02-.94-3.09-1.35.09.06.18.12.28.18-1.09-.29-2.21-.49-3.31-.65.86.54,1.45,1.22,1.49,1.66.04.45-.45.61-1.75.34.36-.29-.18-1.04.78-.91-.71-.63-2.01-1.41-3.1-1.72-1.09-.3-1.86-.21-1.49.61.91-.17,1.41-.1,1.65.08.25.17.25.42.23.68-.04.52-.21,1.04,1.19.98-1.62.41-2.77-.32-4.08-.1.7-.3.74-.76.29-1.23-.44-.48-1.36-.98-2.45-1.19-.48.11-1.35.1-2.3.19-.95.08-1.97.25-2.72.57.67.82-.53,1.48,1.89,1.41-.86.32-2.16.7-3.8.57.59-.28,1.64-.58,1.51-.89-1.15-.65-2.36-.35-3.1-.55-.52.17-1.05.34-1.56.51.17.04.33.11.46.21l-1.58,1.2c2.25-.98,1.18.14,1.27.66-.18-1.04-1.54.23-2.33.47l2.01.65c-.71.75-3.16-.05-2.46.91,3.81-.47,5.15-1.05,8.19-1.9-.46-.22-.94-.43-1.42-.63,1.75-.63,2.35-.3,2.98.07.62.4,1.29.8,3.02.83.74-.37,2.03-.24,3.19-.07,1.15.17,2.19.34,2.51-.39-.31.14.13.68.8,1.18.67.51,1.57,1.02,2.34,1.03,1-.27,2.57.16,3.76.6,1.19.42,2.02.74,1.6.05-1.09-.79-2.99-1.05-3.43-2.38.79.34,1.57.7,2.35,1.09-.33-.53-.67-1.06-1.03-1.58.61.7.95.01,1.2-1.2Zm-60.56-2.29s-.07,0-.11,0c.04,0,.08-.02.11-.03v.02Z"/>
      <path class="cls-1" d="m431.97,20.62c.86.01,2.59.93,2.6.08-.34.76-3.21-1.43-2.6-.08Z"/>
      <path class="cls-1" d="m433.67,22.39c.21-.12.28-.45,1.06-.06-.73-.33-1.47-.62-2.22-.9.39.32.79.63,1.16.96Z"/>
      <path class="cls-1" d="m432.91,28.6c1.27.02,2.1.06,3.55,1.07-.56,2.08-2.76-1.05-4.41.26,2.57,1.74,4.36.73,6.62,2.15-.25-.76-1.45-1.98-2.72-2.85-1.3-.82-2.61-1.31-3.05-.63Z"/>
      <polygon class="cls-1" points="430.42 30.24 432.15 30.65 432.06 30.46 430.33 30.05 430.42 30.24"/>
      <path class="cls-1" d="m391.94,6.05c-.3-.61-1.61.25-2.32.53.62-.06,1.49-.03,2.32-.53Z"/>
      <path class="cls-1" d="m51.69.9c-5.14.32-10.2.82-15.19,1.44,4.32-.5,8.32-.88,15.19-1.44Z"/>
      <path class="cls-1" d="m347.7,33.61c2.7-2.48,3.36-4.35,6.33-6.86-1.23.49-2.1,1.08-2.77,1.69-.68.63-1.18,1.28-1.66,1.92-.48.64-.94,1.26-1.54,1.77-.6.52-1.34.95-2.35,1.16.65.11,1.32.24,1.99.32Z"/>
      <path class="cls-1" d="m345.92,28.58c1.15.72-1.44,2.64-.55,3.12,1.8-1.49.28-1.56,2.11-2.63-.53-.15-1.05-.32-1.57-.49Z"/>
      <polygon class="cls-1" points="371.61 35.07 371.06 36.23 371.67 35.52 371.61 35.07"/>
      <path class="cls-1" d="m333.84,35.54l.23-.35c-.49,0-.97.03-1.45,0,.41.14.81.23,1.22.35Z"/>
      <path class="cls-1" d="m334.3,34.83l-.23.36.23-.36Z"/>
      <path class="cls-1" d="m371.95,38.04c.51-.26,1-.5,1.49-.73l.34-.92-1.83,1.65Z"/>
      <path class="cls-1" d="m355.44,41.82c.39-.41.75-.83,1.12-1.24-.21.25-2.34,1.07-1.12,1.24Z"/>
      <path class="cls-1" d="m325.02,36.03c-.48.15-.97.32-1.47.45.05.04.1.09.15.13l1.47-.46-.14-.12Z"/>
      <path class="cls-1" d="m345.3,51.25c.76.18-.04.62-.73.94-.69.31-1.24.55.16.48,2.12-1.04,1.03-1.13.57-1.41Z"/>
      <path class="cls-1" d="m319.68,48.41c-.26-.03-.54-.02-.82.06.32,0,.6-.03.82-.06Z"/>
      <path class="cls-1" d="m319.68,48.41c.84.08,1.66.52,2.27.3-1.02-.52-1.41-.4-2.27-.3Z"/>
      <path class="cls-1" d="m310.11,46.69c.24.1.48.19.72.27-.89.26-.51.28.28.09.8.17.83-.13.98-.31.19-.08.37-.15.57-.24-.27.06-.52.12-.73.17-1.22-.29-1.97-.48-1.82.01Z"/>
      <path class="cls-1" d="m287.69,17.41c1.84,1.78,2.3,2.25,1.77,2.78,1.85,1.57,2.25.31,3.6.84-1.16-.65-1.8-1.16-2.51-1.69-.7-.54-1.48-1.05-2.86-1.92Z"/>
      <path class="cls-1" d="m293.06,21.03c.26.15.51.29.81.46-.31-.23-.57-.36-.81-.46Z"/>
      <polygon class="cls-1" points="320.61 56.73 318.44 57.65 319.22 57.57 320.61 56.73"/>
      <path class="cls-1" d="m284.82,14.83c.39.35,1.05.81,1.18,1.22.27-.26-.08-.6-.51-.9-.42-.29-.87-.49-.68-.31Z"/>
      <path class="cls-1" d="m284.92,32.45c0,.53,1.63,1.27,2.15,1.81-.83-.65-.8-2.23-2.15-1.81Z"/>
      <path class="cls-1" d="m275.78,12.05c.52.39,1.02,1.32.34,1.59.9.19,2.69-.18-.34-1.59Z"/>
      <polygon class="cls-1" points="280.8 29.48 280.98 29.91 282.81 30.61 280.8 29.48"/>
      <path class="cls-1" d="m280.6,42.35c2.39.51-1.9-3.73,1.79-2.22-3.72-3.5-.35,1.25-3.4-.9,1.67,1.44,1.99,2.95,1.61,3.13Z"/>
      <path class="cls-1" d="m279,39.22c-.23-.22-.5-.43-.81-.65.32.27.58.48.81.65Z"/>
      <path class="cls-1" d="m257.35,20.11c.28-.05.47-.12.66-.2-.22.04-.44.1-.66.2Z"/>
      <path class="cls-1" d="m269.09,32.95l3.37.9c-1.17-.32-2.79-1.31-4.14-1.98-1.35-.68-2.44-1.05-2.69-.44,1.09,1.09,2.89,2.01,3.92,2.08l-.46-.56Z"/>
      <path class="cls-1" d="m236.44,5.84l1.26-.84-1.77.28c.54.07-.12,1.22.51.56Z"/>
      <path class="cls-1" d="m235.6,5.34l.34-.06c-.08-.01-.19,0-.34.06Z"/>
      <path class="cls-1" d="m262.73,20.94c.85.45,1.55.76,2.46.97-.2-.42-2.34-1.67-2.46-.97Z"/>
      <polygon class="cls-1" points="227.22 10.19 229.43 9.37 226.98 10.12 227.22 10.19"/>
      <polygon class="cls-1" points="216.06 10.99 215.6 10.86 213.86 11.85 214.32 11.97 216.06 10.99"/>
      <path class="cls-1" d="m236.41,31.98c1.51-.26,2.38-1.68,1.93-1.82l-2.86.8c.99.8.79-.25,2.52-.42l-1.59,1.44Z"/>
      <path class="cls-1" d="m142.98,37.38c.31-.68,2.71-.76,3.02-.19-.28.38-1.54.88-.63,1.13.54-.69,1.08-1.4,1.59-2.09,1.47.13,1.12.81.21,1.56-.44.35-1.02.73-1.57,1.07-.53.31-1.03.59-1.33.8.69-.08,1.23-.19,1.73-.38.5-.19.93-.41,1.36-.64.88-.49,1.75-.99,3.31-1.49-.96.14-1.65-.08-2.2-.31-.44-1.08,2.47-1.4,4.56-2.25-1.49-.03-.88-.68-.06-1.48.16-.1.26-.2.31-.31.09-.09.18-.18.27-.28l-.25.09c-.03-.13-.14-.26-.39-.4-1.64.96-3.22.43-4.24.73.81.74-.09,1.18-1.24,1.42-.29.06-.6.12-.91.19-.29.05-.59.09-.87.14-.56.11-1.03.24-1.28.42-.42.13-.87.31-1.27.42l-.46.06c-.12-.2-.02-.48.6-.94-.26.23-.86.36-1.38.53-.47.11-.85.27-.76.57-1.31.07-2.44.06-3.22-.13-.07-.09-.13-.19-.14-.35-.1.09-.14.18-.15.28-.85-.17-1.41-.47-2.06-.87-.67-.45-1.69-1.37-2.97-2.85-1.28-1.46-2.81-3.45-4.72-5.74-.95-1.15-2.07-2.42-3.21-3.61-1.11-1.22-2.33-2.35-3.54-3.48.66.73,1.22,1.47,1.77,2.21.54.76,1.04,1.55,1.65,2.35-1.49-.65-.97-.02-.28.8.71.81,1.5,1.83.77,1.9-1.15-.7-2.4-2.17-2.97-3.21-.72.12,0,1.67-.66,2.03,1.35,1.96,2.6,2.63,3.85,3.23,1.23.58,2.48,1.16,3.45,2.73-.66.34-1.85-.12-.3,1.65l-.49-.36c1.49,1.19,1.56,1.89,1.69,2.44.11.53.27.89,1.62.85l-.79.7c.75.23,1.53.67,2.19,1.07.68.39,1.2.72,1.65.84l-.15.15c.37.01.65.03.87.07.25-.01.43-.01.59,0,.3.02.46.11.67.15.19.07.4.14.73.25.18.04.41.05.69.08.14.01.29.03.46.04.18,0,.39-.02.6-.04-.59.4-1.13.67-1.75,1,1.11.73,1.6-.62,2.46-.4-.08.2.12,1-.8,1.1,1.62-.5,3.27-1.18,4.99-2.09,1.17-1-.4-.71-.62-1.16Z"/>
      <path class="cls-1" d="m150.66,37.17c.35-.05.73-.14,1.18-.34-.44.13-.81.23-1.18.34Z"/>
      <path class="cls-1" d="m118.99,17.17c.7.61,1.44,1.18,2.1,1.83-.57-.66-1.27-1.23-2.1-1.83Z"/>
      <path class="cls-1" d="m159.31,31.54c-1.46-.01.66-1.08.74-1.54l-4.31,1.7c.16.37-.08.95.14,1.27l3.43-1.43Z"/>
      <path class="cls-1" d="m154.29,31.43c-.04.32-.38.72-.76,1.11.71-.25,1.47-.56,2.2-.84-.12-.28-.47-.44-1.45-.27Z"/>
      <path class="cls-1" d="m162.41,51.54l-.8.34-1.14.75c.66-.36,1.3-.72,1.93-1.09Z"/>
      <path class="cls-1" d="m148.62,53.91c1.19.37,3.09-.55,3.68-.9-2.25.62-1.33.12-3.68.9Z"/>
      <path class="cls-1" d="m153.1,59.65l-2.37.92.26.06c.71-.33,1.43-.65,2.12-.98Z"/>
      <path class="cls-1" d="m100.13,10.28c-.38-.14-.75-.27-1.13-.41.5.22.84.33,1.13.41Z"/>
      <path class="cls-1" d="m118.79,21.17c-1.91-2.47-1.03-2,.36-1.2,1.33.84,3.09,2.08,2.9.85-.96-.67-1.88-1.38-2.88-1.98l.49-.11c-1.11-.87-2.18-1.79-3.33-2.59.26,1.07.72,1.5.12,1.96-2.08-1.8-2.31-2.22-2.34-2.62-.03-.4.15-.74-1.29-2.28-.87-.58-1.76-1.13-2.66-1.64-.9-.52-1.79-1.05-2.71-1.51l.55.05c-.47-.24-.71-.26-.93-.25-6.17-3.22-12.6-5.39-18.95-6.89-3.57-.29,1.56,1.74-1.22,2.16.98.23,2.06.58,3.14.95,1.08.35,2.16.75,3.14,1.09,1.96.63,3.52,1.11,3.95.47-.2.14-.6.42.12.87.89-.1,1.78-.13,2.69-.19-.66-.41-1.33-.86-2-1.25,1.35-.1,3.88.68,6.15,1.83,2.27,1.13,4.26,2.54,4.69,3.26-2.09-1.02-2.84-.82-3.67-.94-.84-.11-1.8-.41-4.48-2.07.11.45.87,1.49-.48,1.12,3.38,1.28,6.42,2.97,9.42,4.82,2.99,1.89,5.93,3.91,9.24,6.07Z"/>
      <path class="cls-1" d="m52.73,2.03l.05-.13c-.12.07-.15.12-.05.13Z"/>
      <path class="cls-1" d="m54.92,2.19l3.22-1.41c-1.68.02-3.36.05-5.02.12l-.35,1.01c.44-.26,2.18-.79,2.86-.39l-.72.68Z"/>
      <path class="cls-1" d="m61.94,0c-2.64.35-2.51,1.54-1.12,2.11-2.39.49-1.24-1.31-2.89-.09.04.83,2.97.42,3.65.28l.35-2.31Z"/>
      <path class="cls-1" d="m81.57,2.74l-.85.35c.61.15,1.22.31,1.83.49l-.99-.83Z"/>
      <path class="cls-1" d="m80.73,3.08l-1.82-.46c.07.38.14.75.39,1.05l1.43-.59Z"/>
      <path class="cls-1" d="m74.12,1.6c-.77-.18-1.62-.36-2.66-.49.89.15,1.78.33,2.66.49Z"/>
      <path class="cls-1" d="m76.19,2.17l-.04-.16c-.68-.15-1.35-.29-2.02-.42.74.18,1.4.36,2.06.58Z"/>
      <path class="cls-1" d="m78.9,2.63c-.16-.87-.38-1.78-3.11-1.95l.35,1.34c.92.21,1.84.39,2.76.62Z"/>
      <path class="cls-1" d="m133.43,59.59c-.91.02-1.83-.07-2.77-.17l.25.2,1.4.13h1.37s-.25-.16-.25-.16Z"/>
      <path class="cls-1" d="m119.74,52.27c-.57-.3-1.02-.5-1.45-.67.56.37,1.04.62,1.45.67Z"/>
      <path class="cls-1" d="m108.6,48.71c-.91-2.44,3,1.94.42-1.81.38-.78,2.36.15,3.61,2.18-.7.32-1.79-1.4-1.46.15,1.65.63,1.63,1.46,2.08.32,1.15.77,1.95,1.09,2.69,1.3.72.21,1.41.35,2.34.74-1.46-1-3.14-2.99-4.62-4.85-1.51-1.88-2.93-3.6-4.45-4.34-2.08-.45-2.81,1.5-4.3,2.68-.09.24.45,1.17,1.26,2.1.8.93,1.87,1.84,2.43,1.53Z"/>
      <path class="cls-1" d="m109.94,53.22c.87,1.1,1.26,1.39,2.01,1.93.29-.63-1.25-1.11-2.01-1.93Z"/>
      <path class="cls-1" d="m104.34,26.94c-.32.11-1.98-.62-1.92,0,.8.41,1.62.81,2.42,1.25-.48-.42-.49-.8-.5-1.24Z"/>
      <path class="cls-1" d="m105.87,28.78l-1.03-.6c.22.2.54.39,1.03.6Z"/>
      <path class="cls-1" d="m104.33,26.73c0,.07,0,.14.01.21.06-.03.09-.08-.01-.21Z"/>
      <path class="cls-1" d="m66.58.41c.08-.51-1.34-.31-2.04-.18.56.06,1.35.29,2.04.18Z"/>
      <path class="cls-1" d="m16.16,5.26c-.47-.06-.96-.09-1.45-.14.54.15.83.2,1.45.14Z"/>
      <path class="cls-1" d="m7.06,26.13c.08.07.13.16.16.27-.02-.1-.07-.19-.16-.27Z"/>
      <path class="cls-1" d="m7.22,26.39c.02.17-.02.37-.1.6-.09.22-.22.47-.3.73-.11.25-.18.52-.19.76-.03.24.02.45.18.6l-.19-.1.13.51.18.47c-.04-.41.06-1.1.16-1.79.14-.69.27-1.37.14-1.79Z"/>
    </g>
  </g>
</svg>