<?xml version="1.0" encoding="UTF-8"?>
<svg id="Layer_2" data-name="Layer 2" xmlns="http://www.w3.org/2000/svg" viewBox="0 0 53.81 1409.68">
  <defs>
    <style>
      .cls-1 {
        fill: #ffa520;
      }
    </style>
  </defs>
  <g id="Layer_1-2" data-name="Layer 1">
    <g>
      <path class="cls-1" d="m10.78,1374.72c-.29,3.21-.94,5.96-.94,4.75-.37,6.56-.88,6.64-.26,7.58-.22,4.24-1.33,8.62-.97,3.83-.18,2.02-.46,4.03-.71,6.05-.28,2.01-.47,4.04-.82,6.05.53-2.38.89-4.78,1.35-7.17.12,1.03-.35,3.91-.93,6.81-.61,2.9-1.21,5.85-1.09,7.06.84-4.34,1.72-8.69,2.36-13.05l.09.69c.33-3.01,1.2-8.78,1.56-10.78.06.33.24.15-.06,2.46.58-3.95.78-6.2.83-7.56.06-1.36-.03-1.82-.14-2.2-.1-.38-.23-.68-.24-1.7,0-1.02.08-2.77.34-6.05-.07.82-.18,1.84-.37,3.24Z"/>
      <path class="cls-1" d="m13.52,1361.44l-.3-5.58.88-9.23c-.25-.12,0-6.87-.55-2.33-.02.89-.05,2.66-.19,4.08-.48-1.07.56-12.3-.2-9.63-.35,7.31-.54,8.42-.42,12.95-.53,6.69-1.13,11.56-1.59,14.66-.11,2,.21,2.31.03,4.84.05-.56.09-1.07.15-1.72l.88-.19c.04-2.13.3-4.11.48-6.45.05,3.64-.01,7.28-.03,10.93.56-1.71,1.02-5.24,1.37-8.87.33-3.63.64-7.36.95-9.48-1.13,5.22,0-4.23-1.44,6Z"/>
      <path class="cls-1" d="m11.18,1371.22c0,.07-.02.18-.02.27,0-.08.02-.2.02-.27Z"/>
      <path class="cls-1" d="m6.36,567.98c.1-2.3-.06-2.99-.15-3.33-.44,8.64-.91,17.27-1.19,25.92.25-.8.81-8.26.76-3.26.32-2.22.38-9,.16-9.99l.24,1.89c-.13-5.99.94-10.02,1-6.12l.02-.5c-.27-5.53-.58-11.07-.8-16.62-.46,6.06.32,4.71-.04,12.01Z"/>
      <path class="cls-1" d="m42.95,37.88c.24,3.34.34,3.75.4,3.37-.12-1.2-.25-2.33-.4-3.37Z"/>
      <path class="cls-1" d="m6.26,552.08l-.2-5.21c0,2.08.08,3.91.2,5.21Z"/>
      <path class="cls-1" d="m12.45,588.29s.05.07.09-.07l-.18-2.33s0,.05,0,.06c.03.86.06,1.62.09,2.33Z"/>
      <path class="cls-1" d="m14.12,434.65c.04-.56.08-1.03.13-1.7-.05.62-.09,1.18-.13,1.7Z"/>
      <path class="cls-1" d="m14.44,658.14l-.66-11.43c.23,1.52.19-4,.46-1.59-.03-.87-.11-4.96-.24-3.85v2.34c-.67-6.04-.95-2.38-1.43-12.4-.45,6.22-.08,8.95.22,12.24.03,1.12.06,2.05.08,3l1.1,9.51.47,2.18Z"/>
      <path class="cls-1" d="m44.29,198.32l.05.13c-.01-.12-.03-.14-.05-.13Z"/>
      <path class="cls-1" d="m44.53,198.97l-.19-.52c.07.63.03,3,.19.52Z"/>
      <path class="cls-1" d="m6.59,554.01c-.12-.17-.24-.84-.33-1.93l.15,3.88c.05-.55.12-1.27.18-1.96Z"/>
      <path class="cls-1" d="m7.61,562.88l-.4,9.7.18,3.59c.05-3.72.18-8.06.22-13.29Z"/>
      <path class="cls-1" d="m12.2,449.88c1.83-20.03.34,5,1.43-4.18.44-5.57.26-7.56.49-11.04-1.25,15.9-1.09-2.28-2.44,13.75-.5-2.35.37-11.63,1.11-17.04,1.3-6.08-.04,5.42.48,6.88.54-6.43.3-5.31.19-8.08,1.16-10.07,1.3-20.95,2.85-26.87.6-7.31.23-6.87.31-11.1-.64-.91-1.51,10.81-2.36,13.45.12-.55.35-1.63.42-1.31l-.8,6.29c.87-5.96.64.91.36,4.11-.23,2.33-.67,6.96-.8,6.3l.2-3.54c-.7,4.52-.48,10.07-1.36,14.83-.19.23-.08-1.59-.16-1.87-.04,5.42-.61,10.6-1.02,18.59l-.28-4.68c.2,6.45-1.47,20.83-2.76,30.8.22-1.1.49-3.09.52-1.88-.36,5.89-1.25,10.28-1.39,7.53.04,5.78-2.38,21.84-2.26,29.74.32,12.11.59,24.2,1.1,36.29,0-1.35.01-2.8.07-4.3.84-3.23.88-5,1.11.78.04-5.65-.66-3.54-.07-12,.07,3.34.74,4.23,1.41-3.86.22-5.07.33-9.72.38-14.15.08-4.42.12-8.61.14-12.76.02-4.15.02-8.26.08-12.52.07-4.26.19-8.66.38-13.4.28-.33.71-4.2,1.18-8.89.48-4.69,1.05-10.19,1.42-13.79.26,2.8-.11,8.16-.53,13.71.35-3.48.96-9.47,1.41-13.91l-.85-1.91Z"/>
      <path class="cls-1" d="m9.56,496.97c.09-.5.15-1.02.22-1.56-.06.28-.13.75-.22,1.56Z"/>
      <path class="cls-1" d="m11.47,467.38c.01.07.03.05.05.07.04-.58.08-1.17.13-1.76-.06.6-.13,1.27-.17,1.69Z"/>
      <path class="cls-1" d="m7.99,549.33c.04,1.21.07,2.1.11,3.31.01-.74.02-1.67.04-2.57-.01-.85-.05-1.27-.15-.74Z"/>
      <path class="cls-1" d="m6.88,553.33l-.16-.65c-.05.52-.08.88-.13,1.34.1.15.2,0,.29-.68Z"/>
      <path class="cls-1" d="m24.42,373.91l.09-1.93c-.11,1.15-.12,1.66-.09,1.93Z"/>
      <path class="cls-1" d="m15.24,427.66c-.65,6.96.64.9-.34,10.75l.33-2.89c-.42,7.09-1.73,19.5-2.52,27.9-.2-.98-.84,5.06-1.19,4.04-.41,5.76-.83,11.45-.63,14.45-.48,3.54-.56,8.99-1.11,13.5.43-1.89.39,6.52.97-4.52-.04.89.07.34.04,1.22.98-7.06.62-9.96,1.16-16.07.6-3.63-.11,6.01.31,2.58.41-7.65,2.55-23.9,1.5-23.49.46-5.55.76-6.3,1.1-7.93-.23-8.88,3.72-32.5,2.35-32.56-.28,3.2-.84,8.42-1.01,13.15l-.95-.12Z"/>
      <path class="cls-1" d="m8.67,537.6c.03-.43.07-1,.1-1.36-.03.4-.07.9-.1,1.36Z"/>
      <path class="cls-1" d="m.85,625.74l-.85-2.95c.08-8.36.22-14.05.37-19.48.22-5.42.44-10.58.74-17.88.17-1.11.18.67.18,1.56.11-5.14.47-11.54.77-17.59.3-6.05.51-11.76.57-15.5.21-3.26,1.05-11.8,1.11-8.54.02-1.59.06-3.41.2-5.23.36-.46-.17,4.09.09,4.21.11-1.44.21-2,.13-2.34.12,2.45,1.26-2.45.52,8.89-1.04,4.34.41-7.87-.59-5.33-.25,3.76.11,3.34.19,3.67-.32,4.79-.53,4.65-.7,4.39.12,1.85-.57,7.86-.3,10.42-.42,9.33-.6-.54-.91,5.55l.67,3.56c-.22,3.38-.49,6.75-.64,10.13-.26,14.69,1.54-2.03,1.39,14.75-.35-2.22-1.41,4.48-1.71,12.29.05-2.34-.06-5.67-.04-9.18.02-3.5.09-7.17.33-10.18-.99,8.48.36-11.71-.56-7.33.2,4.22-.02,11.23-.42,16.69v-1.8c-.36,5.81.52,10.24-.03,18.26-.06,3.99-.28,3.24-.47,2.53.06,3.38.14,6.4-.03,6.41Zm0-8.7l.2-5.34c-.17,1.26-.21,3.26-.2,5.34Z"/>
      <path class="cls-1" d="m18.56,1287.23c-.07.52-.14,1.12-.2,1.6.07-.35.14-.95.2-1.6Z"/>
      <path class="cls-1" d="m32.13,817.43l.62,3.03c-.22-1.19-.43-2.15-.62-3.03Z"/>
      <path class="cls-1" d="m47.26,885.35l.82,4.47c-.26-1.77-.53-3.16-.82-4.47Z"/>
      <path class="cls-1" d="m22.41,1250.84l.02-.15c.01-.25.02-.45.04-.71l-.06.86Z"/>
      <path class="cls-1" d="m49.95,1024.98c-.11.69-.25,1.45-.4,2.5.09-.12.26-1.05.4-2.5Z"/>
      <path class="cls-1" d="m47.1,884.53c0,.12.01.18.02.27.04.17.09.36.13.55l-.15-.82Z"/>
      <path class="cls-1" d="m27.89,787.12c-.17-.64-.33-1.22-.52-1.9.22.9.38,1.45.52,1.9Z"/>
      <path class="cls-1" d="m26.5,791.89c-.18-.69-.35-1.34-.51-1.85l.51,1.85Z"/>
      <path class="cls-1" d="m13.54,687.34l-.27-4.11c.09,2.02.17,3.23.27,4.11Z"/>
      <path class="cls-1" d="m24.62,781.07c-.09-.23-.18-.45-.25-.6.15.55.26.81.25.6Z"/>
      <path class="cls-1" d="m14.18,1313.29c0-.09.01-.2.01-.25l-.09-.11.08.36Z"/>
      <path class="cls-1" d="m14.78,1323.42c-.05,1.19-.1,2.42-.16,3.64.09-1.35.14-2.67.16-3.64Z"/>
      <path class="cls-1" d="m40.87,1084.94c-.31,1.07-.88,3.59-.82,2.38-.19,2.09.27,2.06.82-2.38Z"/>
      <path class="cls-1" d="m10.27,1292.74c.07.67.09,1.5.12,2.33,0-1.54-.01-2.9-.12-2.33Z"/>
      <path class="cls-1" d="m10.39,1295.07c0,.76.02,1.58.02,2.26,0-.79,0-1.56-.02-2.26Z"/>
      <path class="cls-1" d="m38.22,1056.27c.09-.26.21-.67.3-1.23-.13.15-.23.6-.3,1.23Z"/>
      <path class="cls-1" d="m14.3,1329.99c.16.66-.42,16.51.54,3.21.6.55-.26,8.56-.36,12.12.32-2.57.32,1.31.59.54.04-1.77,0-3.87.25-6.78.38-1.32.27,3.11-.07,6.56.62-4.23.13,5.43.79-.57.67-12.89.96-21.97.62-31.05-.32,7.31-.63,15.52-1.27,21.51l-.38-2.56c.92-6.76.81-10.97,1.28-17.63l-1.23,14.97c-.9,7-.7,2.29-.45-3.25-.09,1.36-.2,2.59-.32,2.93Z"/>
      <path class="cls-1" d="m10.17,1319.6l-.03.25c0,.22,0,.49.02.64l.02-.89Z"/>
      <path class="cls-1" d="m2.57,688.59l-.25-1.29c.13,1.08.21,1.41.25,1.29Z"/>
      <path class="cls-1" d="m13.37,1310.82h0c0-.09,0-.11,0,0Z"/>
      <path class="cls-1" d="m4.57,720.8s-.04-.09-.06-.17c.03.11.04.11.06.17Z"/>
      <path class="cls-1" d="m16.97,728.33c.02-.06.04-.08.06-.22-.09-.68-.08-.34-.06.22Z"/>
      <path class="cls-1" d="m4.62,720.82s-.03.02-.05-.02c.02.02.04.08.05.02Z"/>
      <path class="cls-1" d="m35.4,874.11s.02-.5-.01-1.28c-.1-.29-.11.02.01,1.28Z"/>
      <path class="cls-1" d="m30.9,843.73c-.02-.2-.03-.31-.05-.56l.05.56Z"/>
      <path class="cls-1" d="m44.51,1078.12c.27-1.52.45-2.66.59-3.62-.2,1.1-.4,2.3-.59,3.62Z"/>
      <path class="cls-1" d="m4.51,720.63c-.08-.32-.18-.77-.32-1.52.15.83.24,1.27.32,1.52Z"/>
      <path class="cls-1" d="m43.87,920.27c-.05-.32-.09-.63-.14-.94l.02.56.12.37Z"/>
      <path class="cls-1" d="m44.71,936.31c-.1-.54-.18-.79-.26-1.09.69,5.7.84,16.23,1.5,17.45-.1-1.94-.23-12.04.19-10.34-.38-3.98-.39-9.91-.62-12.06.1,6.58-.4.74-.97-3.66-.18-4.03.53.72.34-2.75-.3-3.1-.55-6.2-.89-9.29.26,2.7.43,5.4.65,8.1l-.77-2.41c.05.3.08.5.12.82,1.4,13.67-.62,1.22.71,15.22Z"/>
      <path class="cls-1" d="m44.45,935.22c-.09-.86-.18-1.6-.28-2.18.1,1.29.19,1.79.28,2.18Z"/>
      <path class="cls-1" d="m44.77,991.23c.01.7.02,1.47.04,2.43,0-.46-.03-1.52-.04-2.43Z"/>
      <path class="cls-1" d="m6.97,583.06c-.17.23-.81,8.23-.38,8.1.13-2.37.27-4.77.41-7.17l-.03-.93Z"/>
      <path class="cls-1" d="m29.46,1143.13c.1-.89.2-1.77.3-2.66,0-.19,0-.38,0-.52-.13.53-.24,2.3-.29,3.19Z"/>
      <path class="cls-1" d="m46.45,944.79c-.13-1.46-.23-2.11-.32-2.46.08.95.17,1.82.32,2.46Z"/>
      <path class="cls-1" d="m28.4,1143.52c-.24,1.12-.61,2.76-.79,2.98-.25,2.31-.22,3.96-.36,6.32.2-2.67.59-5.73,1.16-9.31Z"/>
      <path class="cls-1" d="m27.23,1153.02c0-.07,0-.13.01-.19,0,.07,0,.12-.01.19Z"/>
      <path class="cls-1" d="m7.37,578.3c0-.69.01-1.4.02-2.13l.06,1.11c.14-1.84.28-3.67.41-5.5.01-.67.03-1.38.05-2.27,0,.36.03.64.07.81.05-.6.09-1.18.14-1.76-.11-2.2-.1-6.04-.08-9.71.05-3.68.14-7.2.1-8.78.08-4.17.29-9.28.53-12.47-.2,2.96-.36,6.9-.04,5.73.32-3,.71-5.21,1.02-7.98.34-2.77.61-6.08.68-11.29l-.44,6.08.07-13.74c.75-4.76-.03,6.86.17,8.78.17-5.33.7-10.19,1.19-14.33.5-4.14.89-7.57.68-10.07.54-.65,1.45-1.75,1.98-8.72-.97,4.98,0-4.21-.95-.14-.09-2.43.87-7.76.53-8.19l.14.67c1.85-11.82.97-15.83,1.07-20.95,1.17-14.25,2.1-20.76,3.2-32.37.37-.42,1.58-3.49,2.02-8.15-.23-2.21.66-12.72.2-13.85-1.09,8.29-.23,6.85-.61,11.85-1.01,4.09-.62.32-1.55,5.94.67-4.55,1.81-20.68,2.88-25.63l-.1,1.77c1.16-7.95,2.72-9.33,3.27-22.73l.32-6.38c.02.31.09.35.12.52,1.15-10.39,1.49-7.48,2.19-19.01-.05.89.07.34.01,1.24,1.01-6.51,1.04-13.17,1.42-18.13.78-2.97.39.76.54,2.67,1.38-11.49,1.82-23.99,1.96-31.19l1.02-7.39c-.24,4.42-.29,9.84.13,8.53.31-4.09.02-3.32.68-9.08.21,1.01.24,3.46.35,6.21,1.69-11.88-.8-2.77.94-11.04.37-3.75.14-5.97-.19-6.42l1.13-6.75c-.38-.8.37-9.19.79-14.7-.14-.69-.89,4.38-.9,6.48-.33-.44.03-6.31.38-10.07.54-.65,1.09-6.81,1.53-12.24.44-5.43.84-10.14,1.23-7.86.29-4.23.6-8.9.93-13.68.3-4.79.61-9.7.91-14.43.63-9.46,1-18.21,1.18-23.81.51-3.67,1.01-11.18,1.17-6.65.4-6.82.4-12,.47-17.17.03-2.58.07-5.16.16-7.94.06-2.78.16-5.76.37-9.14.17-1.12-.24,6.12.11,5.65-.02-4.43.25-8.46.55-13.09.15-2.32.33-4.78.45-7.53.1-2.75.18-5.78.21-9.22-.04,2.31.14,2.99.23,3.32-.17.24-.19-5.64-.26-9.2.14-2,.05,2.66.2,1.54.14-3.32.27-6.54.34-9.68.02-3.15.04-6.22.06-9.24-.01-3.02-.03-5.99-.04-8.94-.02-1.47-.03-2.94-.05-4.4-.04-1.46-.09-2.92-.13-4.38-.18-5.84-.35-11.67-.53-17.69-.24-6.02-.51-12.22-.67-18.82.19,7.53.91,10.36,1.18,10.44l-.19-7.39c-.41-2.84-.5-8.38-1.02-13,.09-.57.12-2.83.38-.54-.04-7.3-.56-12.99-1.25-19.06-.77-6.07-1.6-12.54-2.06-21.46l2.83,21.5.07-5.38c.41,3.16.88,6.31,1.2,9.48.07-2.86-.27-5.5-.51-7.53-.24-2.02-.43-3.42-.21-3.78.22,1.19.38,4.09.65,4.16-.2-5.47-.59-5.87-.98-9.97,1.87,10.72,2.97,31.96,3.51,43.39.13,1.8-.28-1.53-.39-1.85.16,4.66-.07,7.47.26,13.34.52,3.64.23-2.79.2-5.68.38.39.39,1.85.54,5.07-.12.18-.16,1.37-.16,3.13.01,1.76.03,4.08,0,6.51-.02,4.86-.05,10.15-.33,12.23.15,8.61.45,7.92.72,7.18.26-.74.52-1.53.33,6.88l-.61,5.02c.42,9.77.42,22.4.02,33.45l.04-2.33c-.2-1.56-.41,1-.56,2.13-.52,8.33-.18,15.85-.94,20.89.14,4.77,0,11.12-.1,17.64-.07,3.26-.14,6.57-.21,9.74-.11,3.17-.22,6.2-.32,8.92-.46,1.44-.39-2.11-.22-6.59.16-4.48.33-9.9.23-12.17l-.52,9.89c.32-6.12.17-8.55-.06-12.23-.61,8.66-.07,11.55-.44,19.77-.16-.65-.35.44-.6,4.23l.42,1.11c-.04.07-.11.48-.22,1.65-.22,4.88-.42,9.76-.7,14.63.43-3.08.89-3.2,1.15-6.98-.37,1.33-.22-1.88.03-5.66.1,3.33.51-3.67.77-3.57-.24,3.79-.5,8.01-.74,11.91-.26,3.89-.48,7.47-.6,9.95l-.57,1.58c-.33,3.6-.57,7.31-.79,10.73-.25,3.42-.48,6.55-.75,8.99l-.11-1.56c-.86,8.63-1.26,17.18-2.41,24.81-.18,7.75-.63,17.5-.72,23.84.13,1.71-.6,7.35-1.36,13.65-.77,6.3-1.61,13.26-1.63,17.64-.12.58.16-6.01.24-8.99-.67,5.76-.41,10.43-1.2,12.18,1.5-12.93-.56.65-.14-5.21-.59,6.07-1.13,12.47-1.23,15.47,1.01-9.81.48,3.57,1.24-6.39-.28,7.75-1.16,18.28-2.31,27.43-.25-.12-.49,1-.96,4.41l.09,2.8c-.52,4.28.42-8.34-.62.28-.28,8.96-3.17,26.72-2.37,30.74-1.18,6.72.87-12.94-.78-2.79.19-5.98,1.54-14.12,1.15-16.14-.44,5.84-.73,2.07-1.13,5.82l-.31,6.53.17-1.43c-.57,10.95-2.65,28.18-3.95,42.1-.59,11.84-.52,20.04-1.93,34.16.05-4.21-1.47,11.7-1.27,2.75-.95,6.51-1.13,13.01-.89,13.16.61-5.75.27-2.02.83-6.85.02,3.3-.67,10.84-1.16,13.92.15-1.43.04-.89-.03-1.22-.83,6.85.01,3.32-.29,8.3-.58,1.54-1.03,10.96-1.64,15.47l.09,6.63c-.14-3.65-.63,6.29-1.08,7.3-.05,4.74.17,8.73-.47,15.91-.03-2.98-.73,6.54-1.17,6.63-.59,6.14-.64,11.26-.68,16.29,0,5.03,0,9.98-.62,15.79-.08-.37-.24-2.73-.52.67,0,1.35-.09,3.19-.18,5.06-.06,1.87-.12,3.76-.17,5.2v-.09c0,.06,0,.09,0,.15-.03,1.41-.01,2.29.09,2.33.25,4.93.53,7.48.58,17.17.46-.7.61-8.86.58-12.4l-.37-3.07c.86-2.89.18-8.73.56-10.94.27,2.92.26,8.55.13,14.71-.06,3.08-.12,6.29-.18,9.36,0,3.07.02,5.99.09,8.5.74-6.09,1.39-19.36,1.75-30.95l-.49,5.09c.08-2.02.13-4.04.24-6.06-.28,1.95-.5,3.9-.76,5.85.27-5.75.5-10.71.75-15.9-.3,6.08-1.1,8.42-.81,4.98.83-6.75.05-7.08.35-12.26-.19,2.88-.4,6.63-.55,4.2,1.08-10.18.95-12.96,2.15-22.21-.89,1.1.65-11.61.13-13.04l-.39,4.3.19-9.18c1.29-8.38.12,7.52,1.54-5.28.94-11.83.14-11.59.83-20.91.25,3.11-.02,10.52-.57,18.03l.57-4.53c.1,2.43-.73,12.81-1.14,17.99.1-8.6-.51,4-1.15,7.87.42.75.7-4.76.66,1.76.37-6.08.42-6.98,1.16-14.7-.36,4.18-.52,7.21-.55,9.65-.02,2.43.06,4.26.14,6.02.16,3.52.31,6.77-.35,14.05.22-6.74-.83,2.31-1.09,3.1-.11,3.17-.33,9.6-.35,12.25l.8-2.36c-.15,8.52-1.76,11.41-1.41,21.25.35,1.29.46-8.63.47-6.86-.07,13.44-1.42,18.24-2.15,30.16.19.68.62.55.88,4.73-.38-1.32-.65,1.77-.84-2.93-.24,3.98-.11,8.72.05,12.23.29-8.29.56,3.4.8,4.93-.09,4.3-.4-1.31-.5-3.96-.13,3.45-.74,7.55-.15,9.51-.4.14-1.12-9.65-1.1-16.06-.05,1.44-.12,2.88-.14,4.32-.2-2.98-.09-3.53.06-7.82-.42,4.19-.78,3.77-1.06,2.79.07-.55.09.31.17-.22.19-3.45.13-6.1-.12-5.31-.5-3.12-.46,4.78-.8,7.12-.01,1.77.02,3.54.05,5.27l1.75,17.94c.29,7.65-.08,11.09-.28,16.85l.51,1.57c0,3.33.06,6.56.01,8.44-.06,1.87-.23,2.38-.62.26.16-.24.09-1.12.06-2.57-.07-.19-.13-.52-.19-.94-.04-.14-.06-.21-.1-.33.42,7.12.68,11.57.7,11.98-1.14-12.08-.91-.57-1.85-2.57.25,4.08.46,8.16.74,12.23-.02-7.43.37-.15.69,2.47-.45.75.58,9.84.76,14.13l-.12-.31c0,3.99.71,10.92,1.24,15.84.15-.24,1.47,6.02,2.21,9.01-.53-8.47.09-3.47.34-4.18.05.88.17,2.45.25,2.63.24,1.2.05-1.66.19-1.91-.95-8.96-1.89-18.18-2.7-21.82-.15,2.79.56,4.7.63,7.79-.21-1.1-.39-2.29-.55-3.57-.13-1.28-.24-2.65-.34-4.12-.2-2.93-.37-6.24-.59-9.99l.27-2.48c-.23-2.51-.45-5.01-.59-7.53.34,3.14.64,1.23,1.19,9.12.16-.51.03-2.47-.17-4.9-.2-2.43-.34-5.35-.38-7.78l-.63-2.46c.34.94.03-9.43.7-2.08.3,3.99.56,7.98.89,11.96.05-1.11.16-2.23.23-3.34.12,3.37.43,6.73.64,10.1l-.42-2.37c.66,8.1.46,9.32.3,10.54-.08.61-.16,1.23-.11,2.71.03.74.07,1.7.18,2.98.13,1.28.31,2.88.56,4.91.54,2.53.95,5.16,1.3,8.4.37,3.23.6,7.2,1.13,11.92-.95-6.92-.54-.66-1.23-3.23.14,1.79.29,3.27.46,4.55.21,1.29.42,2.37.63,3.34.41,1.94.87,3.44,1.33,5.29-.02,1.89-.09,3.24-1.14-3.19-.87-.69,1.57,8.43.99,9.16,2.08,10.69,3.7,14.88,5.2,19.52,1.54,4.65,3.06,9.76,5.47,22.48l-.51-.88c3.99,15.94,5.7,25.31,8.97,40.25l1.55,11.97c-.62-2.63-2.57-9.62-2.29-6.23-.17-2.95-.63-5.93-1.18-8.95-.54-3.03-1.12-6.1-1.58-9.22-.33-.59.06,1.95.17,3.07-.79-3.71-.83-5.66-2.03-10.53-.1.27.85,5.66-.1,1.65l-.99-6.76c-2.2-8.85-2.09-4.14-4.23-14.62.86,1.84,2.35,5.67,3.36,9.69-.98-4.8,1.67,6.31.95,1.9-2.16-6.74-2.42-10.17-4.88-19.2.33,1.05.51,1.3,1.06,3.54l-2.73-13.27c.36,3.34-2.82-10.8-3.07-9.45,2.87,14.1,2.3,9.89,5.63,26.02-1.16-4.53-3.03-10.26-4.16-12.89-.01-.14-.05-.38-.15-.88-1.08-2.33-.66.2-1.6.36,2.32,7.18,2.9,12.2,5.23,20.78.88,1.51-.48-5.18-1.59-9.44l2.06,7.55-.57-1.45c1.4,6.47,2.78,12.95,4.13,19.44-.82-3.68-1.4-4.86-2.04-6.73.53,2.51.95,5.01,1.36,7.69.37-.66.79-.38,1.3,2.07,2.56,12.54,3.45,19.63,3.79,24.37.11.48.22,1.02.32,1.46.11-2.21,2.56,8.77,3.75,12.6-.56-.1.81,6.57,1.13,10.26.9,1.85,1.34-.88,1.06-5.41-2.01-8.47-1.34-4.71-2.85-8.6-1.01-4.53-1.99-9.06-3.07-13.57l1.07,2.96c-1.09-6.86-3.05-13.26-2.34-12.88,1.17,3.5,2.06,9.5,3.17,12.99l-.65-4.55c2.15,7.84.23,4.18,2.42,13.76-.13-3.64.22.86,1.28,4.95-.19-3.4-3.25-16.99-1.83-14.25.69,2.47,1.17,6.76,1.79,11.22.58,4.47,1.21,9.14,2.22,12.41l-.15-.31c.71,4.94,1.32,8.26,1.88,10.8.53,2.54.98,4.31,1.4,6.14.14,2.13.54,4.63.94,7.18.38,2.55.81,5.14,1.11,7.43l-.28-.08c.31,2.15.61,4.3.86,6.45-.77-3.03-.89-7.58-1.62-13.12l-.4.75c-.08-3.24-.58-5.88-1.11-8.33-.55-2.45-1.17-4.71-1.77-7.14.76,3.56,1.4,8.64,2.06,13.03.58,4.4,1.14,8.09,1.72,8.88.01,1.51.05,3.01.03,4.52l.4,2.12c-.04,3.37-.9.02-1.8-6.4-.01-1.13-.02-1.7.12-1.37-.61-2.96-1.24-5.67-2.16-12.89l.79,3.81c-.62-4.49-1.21-8.78-1.87-12.3-.65-3.52-1.25-6.3-1.73-7.79,1.9,12.94,3.51,25.7,4.87,37.9,1.47,3.49,2.58,7.71,3.74,9.46.43,4.12,1,8.97,1.32,13.7.31,4.74.62,9.33.58,12.94l-.23-.65c.06,3.51.26,6.74.5,9.42-.1,3.71-.66-2.51-.69.07.31,3.94.45,7.89.69,11.83-.5-.72-.68-10.69-1.01-15.41.08.89.24,2.69.28,2.11-.04-2.75-.35-6.69-.63-10.23-.33-3.54-.57-6.69-.31-7.92-.3-2.67.86,5.41.29-3.67-.23-6.09-1.03-8.01-1.28-8.62-.27-.07.46,9.53-.15,6.23.41,4.71.83,6.57.99,12.62-.36-4.68-1.26-10.99-1.11-13.5-1.29-9.19-2.41-7.74-2.1-3.4.14-.53.64,3.65,1,6.47.31,2.81.59,4.25.39-1.82.9,5.4,1.6,15.34,2.17,22.46l-.11-.32c.18,2.95.37,5.9.46,8.85-.17-1.25-.35-3.92-.63-4l1.03,12.25c-.32-3.45-.38-2.38-.37-.05.04,2.33-.02,5.91-.11,7.49.41,1.31.72,6.11.94,1.51.27-5.18-.21-3.01-.29-7.72l.67,6.66-.06.57.53,4.02c0,4.55-.31,3.55-.55,2.88-.25-.67-.36-1.03-.23,4.79l.74-1.51c-.16,13.51-2.03,30.76-2.39,40.27-.23-2.65-.8-3.85-1.42-.29.2-2.04.43-5.12.65-8.42.11-1.65.22-3.36.32-5.02.09-1.66.13-3.28.18-4.75.09-.56.22,1.28.27,4.07,0,2.78-.12,6.5-.41,9.69.68-1.5.78-5.53.86-9.26,0-3.73-.03-7.17.58-7.52.6-8.14.31-11.19.12-13.92-.1-1.37-.19-2.66-.19-4.47,0-.91.02-1.94.06-3.18.02-1.24.07-2.69.15-4.42-.53-.19-.27-3.93-.74-4.65-.21,1.02-.31,2.69-.35,4.75,0,2.06-.02,4.52-.03,7.13-.05,5.22.07,11.06-.33,15.53,0-.88,0-2.64-.09-2.99-.43,6.39-.42,9.04-.43,13.52l.09-.56c0,7.83-.71,4.8-1.25,9.37-.03,1.78-.64,8.15-.2,7.15l-1.26,8.25.62-.34c-.39,4.68-.85,5.67-1.01,9.93l.5.25c.55-3.85.94-7.73,1.36-11.6-.38,5.91.37,1.69-.16,8.18.08-3.65-.12-2.37-.41-.11-.33,2.26-.76,5.52-1.05,5.84l-.26,4.79v-1.23c-.72,3.69-.28,4.47-.99,8.8.26-1.27.5-2.43.73-3.56.2-1.13.4-2.23.57-3.38.35-2.29.64-4.77.84-8.06-.13,2.4-.39,5.97-.66,9.24-.23,3.27-.65,6.21-.78,7.37-.25,2.51-.6,4.63-.97,6.69-.39,2.06-.77,4.09-1.21,6.41.34-2.24.34-3.18.24-3.61-.09-.43-.29-.35-.43-.54-.27-.39-.31-1.89,1.16-10.82.05.34-.18,1.79-.32,2.35.49-1.15.91-3.83,1.14-6.73.21-2.9.33-6,.43-7.96-.5.96-.12-3.12-1.14,3.75.51-2.24.23,5.93-1.1,12.43l-.66-1.27-1.46,9.51.09-.9c-1.08,3.49-1.6,10.14-3.01,16.61-.25,2.36-1.24,7.99-1.84,12.1-.56,4.12-.81,6.69.23,2.91-1.46,5.72-1.53,10.93-2.31,17.29l1.46-7.86c-.74,9.43-.76,6.68-.79,14.3-.32.73-.72,2.38-.76.82-1.68,12.58-3.74,30.63-3.75,38.14-.87,8.94-1.97,10.25-2.71,22.86-.12,2.66.95-2-.02,6.31-.11.56.09-8.07-.66,1.21.05,6.67-1.72,15.5-1.98,24.16-.65,4.52-1.34,12.42-1.69,10.73.84-7.19,1.67-17.38,1.56-18.96.21,1.02.76-5.09.51.23,1.37-10.84.32-7.08,1.45-16.82-.14-.69-1,4.96-1,7.07-.69-.02,1.36-19.25-.22-10.66-.98,10.41.18,13.63-1.36,22.6-.09-3.66.78-9.29.46-13.95l-.94,7.4v5.43s-.06-.33-.06-.33c-1.85,13.05-.41,12.19-1.25,23.97,1.16-6.75,1.03,1.7,1.84-3.39-.68,7.87-1.46,13.63-2.13,13.6,1.01-14.75-.59-.91.1-14.56-.47,2.2-.68-3.33-1.57,4.74-.48,9.16.87-2.66.12,6.44-.12.53-.24,1.08-.31.75-.1,4.22-.64,4.86-.85,9.96v-1.21c-1.14,6.17-.34,6.9-1.39,12.15.76-2.06,0,3.61-.02,6.94.77-5.39,1.82-8.13,3.05-18.9-.26-1.34-.55-.58-.26-5.01-.23,2.33-.5,4.65-.75,6.98.11-1.51.14-2.67.22-4.06l.94-6.68c-.63,8.53.22,4.68.22,8.34-1.08,7.74-.66,6.47-1.34,11.28-.26-.28-.96,3.39-1.69,8.24-.34,2.44-.71,5.16-1.08,7.83-.33,2.68-.66,5.3-.93,7.52.12-1.38.28-3.17.37-4.13.17-6.51-.87,4.41-1.05,4.64l-.07,4.75c.03-.89-.02-2.13-.25-.12-.37,6.41.24,6.08-.08,12.48-.36.46-.49-4.98-.93-1.02-.38,1.35-1.43,5.67-1.68,14.21.09.61.02,2.82-.09,5.39,0-.36.02-.81,0-.97l-.71,5.64c-.26-4.86.87-9.74.62-14.61l-.5-.45c.23-3.77.35-8.9.24-11.27-.48,5.74-.42,6.96-.72,13.39-.39.88-.35-3.66-.35-4.32l.24.98c.94-7.64.23-11.49,1.05-21.02.13-1.44.1-.56.18-.23.04-3.88.42-7.69.77-11.48.41-3.78.73-7.55.83-11.32v2.47c.33-5.12.98-15.13,1.62-25.13l-.2-.1c-.24,1.09.17-2.64.47-4.63h0c.27-5,.53-9.82.75-13.76-.25,1.24-.52,2.84-.74,4.67.1,1.59-1.05,10.7-.39,9.51-.77,4.19-1.06,11.04-1.65,14.11,1.01-5.6.05,3.99.24,5.02-.57,1.86-.93,8.39-1.31,7.6-.25,1.1.62-2.75.62-5.19.24-5.99-1.61,10.83-1.19,3.38-.75,9.45-1.95,21.86-2.2,31.61l.6-5.43c-.41,4.31-1,14.55-1.27,15.3.18-3.21.39-6.97.62-11.08-.53-.24-.68,9.87-1.04,10.31l.11,11.99.36-5.22c.1,3.31-.95,14.21-1.55,22.29-.42-4.69.75-12.21,1-20.74.12-6.21-.94,3.78-.74-2.09-.26,1.51-.49,5.33-.42,7.23l-.27,2.3c-.33-5.26.55-16.97.55-24.82.02.69.05,1.29.11,1.51.68-5.99,1.14-12.1,1.48-17.98-.47,3.08-.43,4.32-.5,6.1-.18.21.22-5.33.21-7.44-.65,5.44-.47.98-.87,4.43.13-3.57.44-6.45.94-10.78.46-2.22.16,1.89.53,1.47.22-4.48,1.23-6.44,1.6-13-1.12,8.67-.45-2.4-.31-5.35l-.19,1.44c-.06-2.77.2-5.08.77-6.92-.26,3.53-.77,6.92-.26,5.97.26-2.32.51-4.64.71-7.28v2.42c.44-3.85.8-7.71,1.2-11.56-.13-1.86-.3-4.97-.64-6.63.58-2.74.73-6.63.86-9.28l.02,1.24c.79-5.08,1.6-16.47,1.37-17.46.62-3.63-.46,26,1.64.15.88-9.82-.42-6.21-.25-11.84,0,0,.07.33.18-.23.45-4.29.12-4.76.28-8.31-.37,2.57-.71,6.31-.68,7.52-.29-1.33.82-8.96.8-12.29.24,4.34.98-8.31,1-4.95,1.16-8.53,1.54-17.74,1.54-22.3,1.35-5.74.92-10.22,2.36-19.63-.19,1.45-.39,4.1-.68,6.12-.04,2.72.28.28.57-1.8.3-2.08.55-3.79.3.38.11-1.78-.25-.15-.37,1.67-.29,3.18-.39,6.2-.08,5.43l1.26-7.65-.17,2.7c.6-3.87,1.3-7.73,1.94-11.6-.06-.33-.31.75-.44,1.3,1.85-13.49,3.75-28.97,5.91-40.73-.25-.61-.09-2.74.29-5.74.37-2.97.96-6.78,1.6-10.82.31-2.02.68-4.09.96-6.15.27-2.06.53-4.1.79-6.03.47-3.87.9-7.31.96-9.7.1,2.59.55,4.06,1.08,2.54-.24,2.12-.3,6.52-1.11,11.29-.17.37-.52,2.02-.8,3.1-.31,1.07-.52,1.58-.34-.34-2.06,13.19.91-1.68.77,2.28.59-3.66.91-6.97,1.27-9.99.32-3.03.62-5.78.81-8.37.34-5.19.58-9.69.96-14.35l.19-.22.33-7.05c-.62,5.73-1.38,5.36-.43-1.99l-.04.9c.33-2.09.7-5.33.86-8.89.19-3.55.36-7.4.61-10.69-.04-1.5-.14-3-.23-4.5.34-6.6,1.2-6.85,1.8-8.99.36-10.38-.22-16.39-.7-23.76.46-3.33.13-18.88.78-10.65-.28-4.68-.9-6.53-1.38-9.22-.54-2.69-.89-6.2-.76-14.24.23,1.38.39,2.76.58,4.14-.43-7.66-1.28-16.93-2.18-25.16-.39-4.12-.93-7.96-1.27-11.23-.34-3.27-.64-5.94-.77-7.71.98,2.73.73-2.06.34-7.91-.49-5.84-1.09-12.73-.71-14.18-.17.8-1.15-4.91-1.43-5.71-.05-1.28-.21-3.39-.86-5.55.38,2.98-.12,1.99-.42,1.66-.29-.33-.36,0,.76,5.63-.86-2.8-1.76-6.02-2.74-10.09-.94-4.08-2-9.01-3.13-15.26l.55.09,1.64,9.92c.21-1.07,1.05,4.04,1.58,6.1-1.41-9.25-1.05-8.69-.68-8.19.36.51.66.97-1.09-8.45-.67-1.76-.32-.6-1.39-5.47.46,2.29.9,2.64.19-1.07l-1.1-3.48c-.42-6.74,2.67,10.76,2.19,5.04,1.85,7.18,4.26,19.79,4.5,17.32-1.87-11.97-3.13-10.5-5.24-22.97l.02-1.38c-1.08-4.32-1.68-4.93-2.44-7.26.11-.25.02-1.38-.54-4.19-2.22-7.21-3.42-12.05-5.65-18.65,2.28,8.94,2.98,12.82,3.67,16.77.71,3.95,1.41,7.98,3.5,17.25-.75-2.89-3.63-15.96-4.53-16.6l.55.06c-1.55-5.99-3.13-11.96-4.67-19.59l1.33,4.57c-2.61-9.98-2.99-16.89-5.65-24.65.59,2.82,1.12,5.09,1.6,6.81-1.41-5.13-2.83-11.65-4-17.33-1.14-3.84-2.27-7.69-3.36-11.58.25.06-1.2-7.45-.08-3.91-.31-2.15-.65-4.01-.99-5.66-.31-1.66-.63-3.12-.94-4.46-.66-2.67-1.17-4.94-1.62-7.45-.19-2.25-.13-2.92-.05-2.6.1.32.27,1.6.56,3.16.28,1.57.59,3.44.92,4.97.35,1.51.67,2.68.89,2.87-.5-3.03-.9-6.15-1.35-9.19-.36-3.06-.79-6.12-1.02-8.89-.55-5.59-1.14-10.51-1.67-13.93.1,2.49.11,3.7-.03,3.59.13-.38-.32-5.28-.54-8.02-.17-.62-.31-1.24-.46-1.86-.04-4.58.2-3.95.69-.09-.19-4.36-1.15-9.51-.92-14.03.86,7.41.99,16.92,1.66,20.76-.2-1.94-.36-3.63-.49-5.16-.09-1.53-.14-2.89-.18-4.14-.07-2.51-.07-4.6-.07-6.82.01-4.44-.16-9.39-.66-19.24.16-.25.59,3.07.46-.72-.44-8.78-.79-2.27-1.26-5,.45,6.77.35,9.92.06,13.87l-.34-1.8c.13-.28,0-4.54.09-5.79l-.61-1.07c.64.48.88-6.34.46-11.68-.26,5.42-.29,3.96-.95,5.45-.97-7.51.42-8.51-.42-16.93.21.63.47,7.99.53,1.63-.05-5.27-.53-4.56-.73-8.09.58,3.98.95,2.95,1.63,7.25.1,4.67.12,5.62.14,6.53.05.92.03,1.81.33,6.37.03-2.58.15-5.16.27-7.74.09,3.96.27,5.39.47,5.92.18.53.35.15.46.47.27-13.52-.96-10.17-.96-18.87-.42-4.19.04,8.15-.43,1.59-.02-4.07-.11-4.53-.24-5.12-.14-.59-.31-1.3-.39-5.87l.23,1.53c.32-2.79-.04-5.55-.08-8.78-.14-3.56-1.84,4.02-1.79-10.61.13.72.23.98.29.98l4.32,14.28c.04-7.39.05-15.33.36-23.57.13-4.12.27-8.31.41-12.54.19-4.23.43-8.49.66-12.76,1.01-3.99.25,12.22.67,11.18l-.36,7.79c-.17-.22-.12-4.31-.1-7.45.06-3.15.04-5.36-.41-1.86-.12,6.88-.21,11.89-.3,16.8-.04,2.46-.07,4.89-.06,7.53.05,2.64.16,5.48.33,8.74.46-2.02.38-6.32.43-11.18.05-4.85.08-10.26.51-14.5-.14,3.56-.11,6.57-.05,9.5.14-3.98.29-8.11.45-12.37.15-4.26.43-8.65.65-13.18l-.13-2.04c-.33,6.1-.56,10.33-.61,10.87.38-8.1.17-14.95-.44-15.51l-.08,1.44-.08-2.94c.11-1.9.22-3.8.37-5.69ZM44.4,54.48c.07.49.15.88.25,1.16-.1-.29-.15.04-.25-1.16ZM12.42,736.78c-.14-1.34-.3-2.67-.42-4.01l-.3-4.04c-.19-2.69-.39-5.38-.58-8.06-.19-2.68-.39-5.34-.58-7.98-.14-2.64-.27-5.27-.41-7.86-.02,2.35-.04,4.61-.06,6.7.02,2.1.04,4.03.05,5.72.02,3.39,0,5.83-.13,6.7-.12.88-.33.19-.68-2.66-.31-2.86-.92-7.87-1.3-15.69l-.21-2.04c.04,2.05.16,4.83.33,7.94.22,3.1.54,6.51.86,9.82.46,2.66,1.39,8.28,2.37,13.18.53,2.44,1,4.7,1.45,6.33.42,1.63.7,2.64.73,2.59.07-1.92-.75-4.59-1-8.01l-.13,1.37Zm-1,7.89c.88,6.09.94,4.66,1.34,5.55-.38-2.13-.84-4.23-1.16-6.35.06.82.03,1.23-.18.79Zm1.52,5.15c-.11-.68-.2-1.26-.22-1.57l.22,1.57Zm-6.09-118.92c0,.27,0,.37.01.63.03-1.45.05-2.9.08-4.41-.04.59-.08,1.71-.09,3.78Zm-.67,12.44l.45,1.45c.02-1.35.05-2.73.07-4.14-.21.47-.39.95-.52,2.68Zm-.7,40.04c.32,1.25.56,3.99.8,6.47.26,2.48.58,4.71.9,4.96.19.53.15-1.25.09-3.24-.1-2.22-.14-4.6-.22-7.11-.09-.08-.2-.58-.31-1.41,0,2.49-.09,4.16-.51,3.17.62-6.43-.8-5.71-.83-12.63-.52-2.19-.17,7.71.08,9.8Zm16.77,526.06c-.07.19-.27.85-.53,1.78l.13-4.87c.91-8.63,2.41-15.48,2.33-23.33.52-3.63,1.11-5.54,1.61-7.37-.19,1.78-.37,3.44-.54,4.83-.8,21.92-2.19,11.27-2.99,28.97Zm11.49-99.09c-.09.89-.03,1.22-.03,1.22.39-4.84.93-9.44,1.41-13.81.56-4.35,1.13-8.46,1.67-12.29,1.04-7.65,2.19-14.15,2.87-19.33-.39.97-.92,3.77-1.64,6.84-.67,3.08-1.4,6.46-1.87,8.63l.14-3.97.82-2.35c.22-2.27.47-4.54.61-6.82-.56,1.84-1.47,7.28-2.34,10.87.02.17-.31,3.18-.68,6.57-.38,3.4-.81,7.19-.93,8.85l1.98-9.28c-.28,1.24-.94,4.97-1.62,9-.71,4.03-1.26,8.39-1.6,10.86.26.14,1.95-8.29,1.62-9.44.52-.95-1.03,8.83.36,2.71-.78,7.38-2.85,18.99-3.7,24.4l-.76.84c-1.01,5.93.23,4.12-.97,11.16.9-8.73-.89,1.39-.11-5.55-.51,2.19-.69-.04-1.46,6.92.17,5.88-1.35,7.28-1.19,12.83-.66,3.63-.11-3.99-.97,3.2-.37,8.31,0,7.86.58,8.43.95-7.7.03-8.76.87-15.06-.1,4.22-.16,8.45-.22,12.67.38-2.3.57-4.01.67-5.45-.19,2.53-.24,4.69-.21,6.54.01,1.06.02,2.03.03,2.93.7-7.11,1.35-13.43,1.75-14.51l.2,1.01c.55-2.49.77-6.61.75-8.52.7-6.36,1.04-12.76,1.63-14.09l-.03,2.44c.91-7.81.96-8.69,2.37-18.48Zm2.81-256.71c-.11,2.45-.18,5.01.23,9.7.21,2.34.58,5.21,1.05,8.88.48,3.66,1.18,8.11,1.97,13.61l-.32-1.72c.92,11.17,3.76,21.56,4.27,35.22-.99-6.55-1-6.2-2.69-13.35l1.05,7.01c-.4-.95-.34.33-.12,2.49.21,2.16.53,5.21.74,7.8l-1.11-4.5c-.03-3.13-.86-11.17-.98-10.92.12.88.11-1.8-.15-5.54-.28-3.73-.67-8.52-1.24-11.86-.35.75,1.55,14.9,0,8.67,1.03,5.53.59,6.28,1.38,12.1-.92-5.56-.81-1.31-1.6-5.44l1.17,9.54c-.14.26-1.82-13.87-1.6-5.98.32,1.9.7,5.41.99,8.46.28,3.06.56,5.65.83,5.72l-.14.25c.5,7.17,1.05,3.09,1.35,11.93.27.09.34-1.61.08-4.77-.28-2.66-.72-3.04-1.25-8.53.2-2.5.52,6.63.89,2.76.09-.96-.3-4.58-.57-7.47-.27-2.89-.5-5.03.11-3.06.23,2.39.35,4.78.54,7.17.54.14.96,5.34,1.37,5.16.56,4.38.19,8.57.96,13.03.44,1.85.95-1.45,1.01,6.01-.27,2.93-.09,8.66-.04,14.48.07,2.91.14,5.83.2,8.43.04,2.6.07,4.88.1,6.48l.35,5.62c.32-.48-.08-10.74.36-7.13l.14,8.77-.19-.68c-.1,2.91.06,5.88.12,8.54-.33-2.74-.05-9.06-.62-7.81-.19,4.11-.41,4.73-.37,8.52-.02-.83-.06-1.54-.14-1.44-.38,8.32.4,8.06.51,10.15.18,4.2.43,2.1.71-.92.31-3.02.46-6.96.75-6.42.01,4.09-.19,8.17-.29,12.26l-.2,6.13-.34,6.12c-.04-2.1-.07-4.21-.35-3.44-.66,5.98-.44.11-.97,8.53.38-.27.38,2.39.11,5.86-.24,3.47-.6,7.75-.65,10.75-.57,2.74-.68,3.31-.13-2.76-.28.32-.53,2.53-.82,5-.29,2.48-.62,5.23-.79,6.67-.08,1.69-.34,4.55-.44,6.37.26-1.2.44-1.53.5-.9.05.63.03,2.22-.26,4.85l.06.32c.36-2.14.7-4.58,1.06-7.12.35-2.54.72-5.19,1.08-7.73.37-2.54.61-5,.79-7.15.18-2.16.29-4.02.29-5.38l.1,1.55c.33-2.49.59-5.1.75-7.69.13-2.59.2-5.15.29-7.54.08-2.39.17-4.61.31-6.52.1-1.91.26-3.51.54-4.66.35.44.17-2.01.69-1.81l-.09-7.41.17,1.55c.14-4.19.11-8.39.18-12.58l.09.33c-.09-1.5-.18-2.91-.26-4.25-.11-1.34-.22-2.6-.32-3.79-.21-2.38-.39-4.49-.55-6.35-.23-.01-.3.38-.47-1.61-.1-1.99-.18-3.51-.18-4.86,0-.01,0,0,0,0h0c0-3.08.27-5.14.31-8.94l.35,11.67c.41.95.8-.05.92-5.79.07,2.34.4,3.32.38.42-.11-.32-.44-7.66-.68-4.85-.09-2.78-.19-5.98-.31-9.49-.1-3.51-.16-7.33-.39-11.32-.35-7.99-1-16.69-2.23-25.05,1.71,12.01-.49-9.72,1.07,3.66-.18-4.71-.54-6.7-.98-8.71-.22-1-.45-2.01-.69-3.37-.26-1.35-.53-3.04-.79-5.42.11-.84.64,5.17,1.28,7.32-1.56-15.87-4.38-26.52-6.71-41.72l.37-.73c-.55-2.86-1.15-6.04-1.84-9.34Zm-6.48-29.74c-.68-2.88-1.36-5.8-2.06-8.77.06.29.11.56.18.87l-2.29-8.6c.99,5.38,1.24,9-.65,1.59.33.58.1-1.65.78.92-.81-5.06-3.02-16.08-3.09-13.06,2.84,9.45-.41,2.44,1.79,9.87-1.38-3.94-2.06-8-3.14-11.77,1.29,3.89.68-1.13-.49-7.15-.71-2.57-2.19-9.64-3.34-13.93-.09,1.64-1.19-2.07.28,5-.7-2.56-1.68-6.55-2.42-11.09.46,1.77,1.2,4.87,1.31,4.62-.22-2.99-.99-6.37-1.2-8.29-.33-1.49-.67-3-1-4.46.05.45.08.84.07,1.12-.48-1.63-.93-3.27-1.38-4.91,1.5,6.61.41,3.11.12,3.08.55.08-.76-4.3-1.22-6.57l.41,5.06c-.37-1.17-.68-3.31-.93-4.98-.23-1.68-.41-2.89-.57-2.22.84,5.3,1.54,8.94,2.29,12.44.73,3.5,1.54,6.85,2.65,11.55l-.41-3.92c2.64,10.57.71,6.73,3.43,18.64,1.52,4.86,4.08,17.9,4.9,17.97-.56-1.44.96,7.57,2.19,11.58.83,2.18,2.02,6.68,2.88,10.12.86,3.44,1.46,5.8,1.19,3.7-.73-3.71-2.18-8.59-2.36-11.66l1.67,7.14-.61-4.79c.38,2.46.71,2.15,1.04.91Zm-17.92-161.98c0-.08,0-.18,0-.28,0,.11,0,.21,0,.31v-.03Z"/>
      <path class="cls-1" d="m13.84,1317.58c.05,2.11-.31,7.31.14,6.32-.43.1.52-9.3-.14-6.32Z"/>
      <path class="cls-1" d="m13.04,1323.77c.08.37.26.13.13,2.46l.29-6.43-.42,3.97Z"/>
      <path class="cls-1" d="m9.72,1330.11c.1,3.33.16,5.45-.22,10.64-1.16,1.88.28-8.53-.55-10.95-.71,9.52,0,12.5-.47,20.33.75-3.84,2.02-19.69,1.25-20.03Z"/>
      <polygon class="cls-1" points="8.68 1325.79 8.58 1331.11 8.67 1330.59 8.77 1325.27 8.68 1325.79"/>
      <path class="cls-1" d="m28.07,1211.94c.37-.45.35-3.78.43-5.56-.15,1.44-.42,3.45-.43,5.56Z"/>
      <path class="cls-1" d="m49.31,174.18l.46-10.15c.15-3.38.23-6.77.35-10.16.19-6.78.51-13.54.58-20.33-.07,5.85-.32,11.47-.53,17.9-.1,3.22-.22,6.63-.34,10.38-.16,3.75-.34,7.82-.53,12.36Z"/>
      <path class="cls-1" d="m41.84,1078.53c-.77,5.42-1.21,9.38-1.7,13.26-.25,1.95-.51,3.91-.78,6.06-.29,2.15-.58,4.5-.97,7.23,1.41-7.11,2.04-11.84,2.55-16.32.52-4.51.98-8.76,2.34-14.78l-1.44,4.55Z"/>
      <path class="cls-1" d="m43.75,1082.78c-.91,1.69.71-8.48,0-6.97-1.09,7.31,0,3.49-1.18,10.1l1.18-3.13Z"/>
      <polygon class="cls-1" points="26.32 1129.99 26.42 1126.66 26.2 1129.32 26.32 1129.99"/>
      <polygon class="cls-1" points="49.8 1033.09 49.83 1034.31 50.53 1028.84 49.8 1033.09"/>
      <path class="cls-1" d="m49.86,1035.53l-.03-1.22.03,1.22Z"/>
      <path class="cls-1" d="m25.56,1125.59l-.75,4.88v2.46c.22-2.45.48-4.89.75-7.34Z"/>
      <path class="cls-1" d="m35.43,1083.14l-.54,4.35c.12-.87,1.36-6.72.54-4.35Z"/>
      <path class="cls-1" d="m52.23,999.54c0-1.8,0-3.59-.06-5.39l-.07.55c.06,1.79.04,3.58.04,5.37l.08-.53Z"/>
      <path class="cls-1" d="m38.77,1049.08c-.82,2.93.89-8.65-.25-2.55-.57,5.48-.07,3.29.25,2.55Z"/>
      <path class="cls-1" d="m46.22,985.28c.01-.72.01-1.48-.03-2.21.01.87.02,1.6.03,2.21Z"/>
      <path class="cls-1" d="m46.22,985.28c-.05,2.32-.27,4.64-.17,6.24.27-2.89.21-3.95.17-6.24Z"/>
      <path class="cls-1" d="m45.89,958.68l.02,2.11c-.29-2.14-.23-1.13,0,.79.07,2.23.22,2.1.33,2.37.07.44.14.89.22,1.37-.08-.69-.15-1.3-.22-1.83-.08-3.46-.16-5.57-.35-4.8Z"/>
      <path class="cls-1" d="m43.47,859.09c1.15,7.77,1.39,9.79.95,9.43,1.03,7.38,1.47,6.14,2.31,10.57-1.37-8.33-1.42-10.07-3.26-19.99Z"/>
      <path class="cls-1" d="m46.73,879.09c.14.94.27,1.83.44,2.91-.16-1.22-.3-2.12-.44-2.91Z"/>
      <polygon class="cls-1" points="42.03 989.69 41.57 984.88 41.61 986.64 42.03 989.69"/>
      <path class="cls-1" d="m41.59,847.6c.24,1.44.67,3.73.76,4.88.44.35-1-6.31-.76-4.88Z"/>
      <path class="cls-1" d="m39.55,878.53c-.08.81.73,5.73.93,7.75-.37-2.88,0-5.34-.93-7.75Z"/>
      <path class="cls-1" d="m35.75,825.84c.27,1.43.47,3.66-.01,2.78.6,2.03,1.8,4.69.01-2.78Z"/>
      <path class="cls-1" d="m37.37,864.46l.06,1.12c.37,1.74.76,3.48,1.09,5.22-.35-2.12-.77-4.23-1.16-6.34Z"/>
      <path class="cls-1" d="m34.96,884.01c1.25,5.84-.27-9.51,1.52.6-1.46-13.18-.42,1.09-1.82-8.58.75,5.67.55,8.53.31,7.98Z"/>
      <path class="cls-1" d="m34.66,876.03c-.1-.83-.23-1.72-.38-2.68.15,1.07.27,1.94.38,2.68Z"/>
      <path class="cls-1" d="m20.99,793.01c.24.84.42,1.41.59,1.93-.19-.66-.38-1.29-.59-1.93Z"/>
      <path class="cls-1" d="m28.98,845.35c.8,2.88,1.52,5.78,2.28,8.67-1.44-5.81-4.36-20.55-4.83-19.5.86,4.79,2.1,10.5,2.85,12.81l-.3-1.98Z"/>
      <path class="cls-1" d="m19.37,742.53c.26,1.22.56,2.45.86,3.68-.26-1.56-.47-3.11-.67-4.65.1,1.34-.73-.99-.19.97Z"/>
      <path class="cls-1" d="m19.45,740.66l.12.9c-.01-.2-.05-.48-.12-.9Z"/>
      <path class="cls-1" d="m25.02,809.51c.58,2.84,1.09,5.1,1.77,7.66-.11-1.1-1.56-8.18-1.77-7.66Z"/>
      <polygon class="cls-1" points="15.73 716 16.37 722.32 15.74 715.41 15.73 716"/>
      <polygon class="cls-1" points="15.08 686.33 15.17 685.23 14.75 679.98 14.66 681.09 15.08 686.33"/>
      <path class="cls-1" d="m4.83,726.12c.3,4.36,1.16,7.71,1.19,6.56l-.73-8.43c-.33,2.19.21,2.34.49,7.24l-.95-5.36Z"/>
      <path class="cls-1" d="m23.06,465.81c.15,1.9-.86,11.04-1.23,11.49-.03-1.24.28-6.22-.2-3.12l.18,7.32c-1.39,9.59-.44-7.42-.3-12.21-.99,9.81-.72,12.77-1.64,23.21.32-3.07.73-5,1.05-6.61.6-.3-.5,9.4-1.01,16.36.62-4.41.63-1.83.59,1.42-.03.58-.03.97-.01,1.25,0,.38,0,.73,0,1.1l.07-.83c.06.07.16-.11.32-.7.31-5.85,1.18-10.27,1.5-14.02-1.29,3.63.93-12.81,1.07-17.55l.4-5.46.19-2.04c.15-.4.21.19.12,3.32.05-2.61.96-11.26.57-10.49l1.91-19.75c.1-.61.21-1.22.33-1.67,0-.69-.03-.81-.09-.72,2.84-28.69,5.89-57.38,8.86-86.1-.52,4.24-1.12,7.89-1.69,12.27.05-6.64-.87,7.17-1.26,5.18.09-2.98.61-7.3,1.03-9.86-.2-.99-.86,2.65-1.17,2.19-1.52,10.82-.24,12.64-1.57,23.23-.32-.46-.29-3.77-.97,3.18l.11-1.77c-.76,11.17-1.73,8.58-1.46,15.69l-.51-.24c-.13,5.09-1.14,14.91-1.64,20.45l-.07-.34c-.96,15.58-.76,8.72-2.24,26.18l.19-8.08c-.86,5.99-.32,7.41-.81,11.72-.07-.32-.55.64-.25-3.44l-1.1,21.24c-.06,5.08.47-.99.78-1.75Z"/>
      <path class="cls-1" d="m19.87,492.49c-.12,1.12-.24,2.39-.34,3.89.13-1.45.24-2.7.34-3.89Z"/>
      <path class="cls-1" d="m36.33,343.93l-.62,6.05c.23-1.87.44-3.83.62-6.05Z"/>
      <path class="cls-1" d="m18.59,522.91c.54-3.65.18,2.77.33,3.43l.97-13.13c-.21.04-.33-1.28-.53-1.03l-.76,10.73Z"/>
      <path class="cls-1" d="m20.58,509.43c-.1-.46-.11-1.86-.1-3.42l-.59,7.19c.16-.03.36-.83.7-3.77Z"/>
      <polygon class="cls-1" points="9.66 509.96 9.83 507.62 9.97 504.08 9.66 509.96"/>
      <path class="cls-1" d="m13.7,473.57c-.56,2.76-.8,8.06-.88,9.83.54-6.09.42-3.44.88-9.83Z"/>
      <polygon class="cls-1" points="9.73 480.79 10.09 474.91 9.98 475.45 9.73 480.79"/>
      <path class="cls-1" d="m38.78,298.95c.08-.96.16-1.9.24-2.87-.13,1.31-.2,2.17-.24,2.87Z"/>
      <path class="cls-1" d="m34.19,349.29c2.03-13.91-.46,9.21.75,4.89l.54-7.63.14.67.89-9.28c-.54,1.87-.71,3.3-1.03,2.84,1.42-12.37.83-3.86,2.23-12.9l1.33-13.86v1.13c.11-1.17.11-1.69.09-2.09l2.17-23.36c.73-7.79,1.39-15.58,2.05-23.38.48-8.53-1.08,4.65-1.05-1.68-.48,4.93-1.07,11.05-1.55,16.04-.49,4.99-.77,8.87-.45,9.32-.07-.34-.21-1.01-.48.98l.05,5.75.71-5.41c.07,5.79-1.9,24.27-2.62,27.57.84-10.53-.37-5.32,1.45-19.93-.25.64-.83,3.29-.61-.02-1.46,17.18-3.37,32.52-4.59,50.34Z"/>
      <path class="cls-1" d="m48.6,176.84l.06.14c-.02-.31-.04-.42-.06-.14Z"/>
      <path class="cls-1" d="m48.2,182.62c.1,2.82.15,5.63.21,8.45.28-4.37.49-8.74.7-13.11l-.45-.98c.07,1.17.07,5.78-.22,7.55l-.24-1.9Z"/>
      <path class="cls-1" d="m48.21,200.85c.23-6.78-.39-6.45-.89-2.78.13-6.23.84-3.24.5-7.55-.43.11-.68,7.78-.72,9.55l1.11.78Z"/>
      <polygon class="cls-1" points="44.11 250.69 44.03 248.77 43.57 253.44 44.11 250.69"/>
      <path class="cls-1" d="m44.03,248.77l.45-4.64c-.21.31-.41.61-.6,1.36l.15,3.28Z"/>
      <path class="cls-1" d="m45.65,231.96c.19-1.96.39-4.14.6-6.79l-.6,6.79Z"/>
      <path class="cls-1" d="m45.07,237.26l.09-.15.49-5.15c-.18,1.9-.39,3.59-.58,5.3Z"/>
      <path class="cls-1" d="m44.48,244.13c.47-.72.98-1.57,1.43-8.29l-.74,1.27-.68,7.02Z"/>
      <polygon class="cls-1" points="14.39 438.18 14.69 432.86 14.57 433.41 14.27 438.73 14.39 438.18"/>
      <path class="cls-1" d="m17.87,407.68c.06-1.32.09-2.31.1-3.22-.1,1.38-.14,2.49-.1,3.22Z"/>
      <path class="cls-1" d="m17.42,384.7c1.07-6.18-.35,8.64,1.04-2.86.49-.98.42,4.48-.34,9.88-.32-.47.32-5.31-.4-2.01.04,3.65-.39,4.99.29,3.79-.29,6.1.03,6.81-.04,10.96.51-7.36,2.69-22.68,2.96-32.05-.12-5.19-1.34-2.18-2.29-2.3-.3.75-1.8,14.02-1.23,14.59Z"/>
      <path class="cls-1" d="m15.45,394.39c-.35,2.87-.4,3.76-.5,5.53.37-.44.27-3.21.5-5.53Z"/>
      <path class="cls-1" d="m29.49,328.98c-.07-.56.28-5.79-.06-4.69l-.64,7.91c.21-1.85.45-2.49.7-3.22Z"/>
      <path class="cls-1" d="m28.5,335.67l.28-3.47c-.1.86-.19,1.94-.28,3.47Z"/>
      <path class="cls-1" d="m29.61,328.61c-.04.12-.08.23-.12.37.02.11.05.1.12-.37Z"/>
      <path class="cls-1" d="m47.33,212.72c.25.13.37-3.42.4-5.2-.11,1.45-.34,3.47-.4,5.2Z"/>
      <path class="cls-1" d="m50.98,79.16l.18-3.14c-.12,1.11-.17,1.68-.18,3.14Z"/>
      <path class="cls-1" d="m42.42,31.17c-.06-.09-.11-.31-.16-.62.05.31.1.52.16.62Z"/>
      <path class="cls-1" d="m42.25,30.54c-.32-2.12-.27-8.71-.82-11.05l.12.29-.51-4.38c.15,2.06.39,5.24.61,8.22.18,2.97.38,5.73.59,6.92Z"/>
    </g>
  </g>
</svg>