<?xml version="1.0" encoding="UTF-8"?>
<svg id="Layer_2" data-name="Layer 2" xmlns="http://www.w3.org/2000/svg" viewBox="0 0 349.08 34.34">
  <defs>
    <style>
      .cls-1 {
        fill: #ffa520;
      }
    </style>
  </defs>
  <g id="Layer_1-2" data-name="Layer 1">
    <g>
      <path class="cls-1" d="m340.45,10.73c.79-.1,1.47.53,1.17.8,1.62-.73,1.64.13,1.87-1.33,1.04-.7,2.13.3.95.88l2.99-.85-1.78-.25c.5-1.21,2.84.4,3.43-1l-3.23.07.17-.4c-.74.42-2.17.22-2.66.05.08-.2.04-.52.61-.55-3.9-.15-1.08,2.11-4.32,2.47.2-.03.45,0,.8.12Z"/>
      <path class="cls-1" d="m337.18,7.72l-1.38,1.5-2.28-.42c-.03.52-1.7.93-.58,1.4.22-.08.66-.23,1.01-.18-.27,1.13-3.04.52-2.38,1.68,1.81-.28,2.08-.02,3.2-.93,1.65.13,2.85.41,3.62.83.49-.17.57-.86,1.2-.99-.14.02-.26.03-.42.04l-.04-1.71c-.52.35-1.01.18-1.59.2l2.7-1.96c-.84-1.61-3.48-.71-4.52-1.38,1.28,1.45-1.04.7,1.47,1.91Z"/>
      <path class="cls-1" d="m339.58,10.62s.05,0,.07,0c-.02,0-.05,0-.07,0Z"/>
      <path class="cls-1" d="m140.46,21.6c-.57.04-.72.45-.8.66l6.37-.19c-.21-.44-2.06-.95-.84-1.25-.56-.48-2.22-.02-2.44.59l.45-.69c-1.45.91-2.49-.78-1.55-1.32h-.12s-3.98,3.48-3.98,3.48c1.5.16,1.12-1.19,2.92-1.27Z"/>
      <path class="cls-1" d="m9.52,24.74c.82-.2.91-.36.81-.52-.29.14-.56.3-.81.52Z"/>
      <path class="cls-1" d="m136.61,23.68l-1.25,1.08c.5-.3.94-.69,1.25-1.08Z"/>
      <path class="cls-1" d="m145.06,7.44c0-.06.01-.11-.02-.18l-.56.55s.01,0,.01,0c.21-.12.4-.25.57-.37Z"/>
      <path class="cls-1" d="m107.83,28.45c-.14.03-.25.05-.42.09.15-.01.29-.05.42-.09Z"/>
      <path class="cls-1" d="m162.25,1.03l-2.82,1.07c.37-.49-1-.32-.41-.89-.22.08-1.23.29-.95.53l.58-.04c-1.47,1.43-.55,1.95-3.01,3.06,1.56.8,2.22.03,3.03-.63.28-.1.51-.15.74-.21l2.32-2,.53-.9Z"/>
      <path class="cls-1" d="m48.66,14.99l.03-.11s-.03.08-.03.11Z"/>
      <path class="cls-1" d="m48.79,14.43l-.11.45c.14-.23.72-.47.11-.45Z"/>
      <path class="cls-1" d="m137.06,22.77c-.03.26-.19.58-.45.92l.93-.81c-.14-.01-.31-.06-.49-.1Z"/>
      <path class="cls-1" d="m139.14,19.66l2.38-.26.86-.75c-.91.3-1.97.51-3.25,1Z"/>
      <path class="cls-1" d="m111.62,29.16c-4.93.35,1.16-1.68-1.12-2.01-1.37.23-1.83,1.03-2.67,1.3,3.9-.79-.45,2.59,3.48,2.06-.52,1.43-2.8,1.62-4.15,1.29-1.56-1.31,1.29-1.04,1.6-2.39-1.58.27-1.29.51-1.94,1.29-2.5-.23-5.09,1.84-6.64,0-1.79.36-1.65,1.01-2.66,1.76-.16,1.46,2.7.68,3.41,1.8-.14-.12-.42-.36-.35-.56l1.57.26c-1.49-.46.16-1.46.94-1.6.57-.05,1.71-.15,1.57.26l-.86.34c1.13.42,2.44-1.14,3.64-.39.07.33-.37.49-.43.7,1.29-1.04,2.57-1.02,4.51-1.78l-1.09,1.48c1.52-1.64,5.09-1.29,7.57-.52-.28-.24-.78-.4-.49-.68,1.44-.39,2.56.57,1.91,1.35,1.38-1.24,5.41.86,7.29-.76l8.66-7.58c-.33.19-.68.35-1.04.42-.84-1.25-1.27-1.08.11-2.32-1.37.7-.81,1.71-2.89,1.81.8-.66.97-2.12-1.03-2.22-4.96,1.41-8.16,5.11-12.76,7.09-.2-.97-3.85-.6-5.63-.77.65-1.07,1.96-1.41,3.32-1.66-.86-.04-2.34-.03-3.44-.04l-.39,2.07Z"/>
      <path class="cls-1" d="m123.09,25.54c-.13-.08-.26-.13-.39-.17.07.08.19.14.39.17Z"/>
      <path class="cls-1" d="m115.86,27.15s0-.07.01-.11c-.14.03-.29.06-.43.09.15,0,.31.01.42.02Z"/>
      <path class="cls-1" d="m135.83,20.59c.29-.29.51-.37.8-.66-.18.1-.41.18-.63.27-.21.14-.3.27-.17.39Z"/>
      <path class="cls-1" d="m136.87,22.28l-.15.41c.13.04.22.05.33.08.03-.22-.01-.4-.18-.48Z"/>
      <path class="cls-1" d="m92.45,20.92l-.47.23c.28-.03.4-.12.47-.23Z"/>
      <path class="cls-1" d="m106.06,27.67c1.71-.15.16-1.47,2.59-1.55l-.72-.07c1.72-.68,4.8-.48,6.87-.59-.22.59,1.28.67,1.06,1.58,1.41-.25,2.81-.49,3.51-1.45.89.28,2.2-.58,3.32-.22-.49-.53,1.54-1.89-1.16-1.15.22-.08.08-.2.29-.28-1.77-.71-2.44.6-3.94.66-.92-.51,1.45-.91.59-1.1-1.87.56-5.93-.48-5.74,1.54-1.37.18-1.57-.26-1.99-.62-2.1,2.22-8.07-.67-7.96,2.09.79-.13,2.08-.12,3.22-.75l.05,1.9Z"/>
      <path class="cls-1" d="m132.95,20.8c-.11-.01-.25,0-.34-.02.1.01.22.02.34.02Z"/>
      <path class="cls-1" d="m154.83,28.29l-.68,1.82c-4.08.52-5.57.06-9.14.21-.28-.24.15-.41.37-.49-2.51.27-6.28-.02-8.09.86-.8,0-2.91-.52-2.13-1.07-.39.17-.83.33-1.27.29-.14-.65,1-.21,1.01-.74-.36-.03-.5-.16-.57.05.58-.57-.68-2.19,2.11-2.21,1.12,1.49-1.93.22-1.25,1.88.92-.01.8-.66.87-.86,1.18,0,1.16.43,1.1.81.44-.53,1.94.16,2.54-.65,2.29-.19-.09,1.26,1.4,1.2l.82-1.72,2.49.26c3.59-.68-.58-2.92,3.51-3.97-.52.9,1.16,2.34,3.09,2.65-1.14.09-3.24,1.25-4.73.78,2.12,1.28-2.87.23-1.75,1.72,1.01-.74,2.73-.88,4.08-.53l-.44.17c1.43.15,2.47-1.65,4.45-1.02.98-.08.8.41.64.81.82-.27,1.55-.62,1.56-.24Zm-2.12.4l-1.31-.14c.32.27.8.25,1.31.14Z"/>
      <path class="cls-1" d="m318.82,7.72c.13.05.28.09.4.14-.09-.08-.24-.12-.4-.14Z"/>
      <path class="cls-1" d="m202.36,7.23l.76.05c-.3-.05-.54-.06-.76-.05Z"/>
      <path class="cls-1" d="m219.37,1.43l1.11-.4c-.44.03-.78.19-1.11.4Z"/>
      <path class="cls-1" d="m309.76,7.52h-.04c-.06.02-.11.05-.18.08l.21-.08Z"/>
      <path class="cls-1" d="m253.63,5.2c.17.14.36.27.62.37-.03-.17-.26-.29-.62-.37Z"/>
      <path class="cls-1" d="m219.16,1.51s.04.02.07.03c.04-.03.09-.07.14-.11l-.2.08Z"/>
      <path class="cls-1" d="m194.78,2.37c-.16.06-.31.1-.48.18.23-.04.37-.1.48-.18Z"/>
      <path class="cls-1" d="m195.91,7.16c-.17.05-.34.1-.47.18l.47-.18Z"/>
      <path class="cls-1" d="m169.57,4.3l-1.02.26c.5-.04.8-.14,1.02-.26Z"/>
      <path class="cls-1" d="m193.19,6.1c-.06.08-.12.16-.16.23.14-.05.21-.16.16-.23Z"/>
      <path class="cls-1" d="m325.27,12.84s-.05,0-.06,0l-.03.2.09-.2Z"/>
      <path class="cls-1" d="m327.78,10.39c.29-.04.6-.09.9-.13-.33-.01-.66.03-.9.13Z"/>
      <path class="cls-1" d="m268.5,7.91c.27.25.91.54.61.82.52-.35.48-1.21-.61-.82Z"/>
      <path class="cls-1" d="m320.18,23.4c.16-.23.37-.4.57-.57-.38.24-.71.44-.57.57Z"/>
      <path class="cls-1" d="m320.75,22.83c.19-.12.39-.25.56-.38-.2.11-.38.23-.56.38Z"/>
      <path class="cls-1" d="m261.62,21.97c-.07-.12-.17-.21-.31-.24.04.23.15.28.31.24Z"/>
      <path class="cls-1" d="m329.41,10.55c.17-.4,4.08-1.23.8-1.48.14-1.25,2.12-.55,3-.85-.63-.3.33-.8.14-1.26-.44.15-.96.5-1.68.4-.32-.58.77-.95,1.62-.73-1.04-.68,1.34-.98-.13-1.51-3.18.4-5.43.82-7.68,2.64,1.81-.29,3.84-.63,5.32-.11l-.64,1.08c-1.67-.98-2.71-.28-4.36-.4l3.7.62c1.72.93.56,1.12-.81,1.3.34.02.64.09.72.28Z"/>
      <path class="cls-1" d="m326.8,20.06l.06.03c.05-.04.12-.06.16-.11l-.22.08Z"/>
      <path class="cls-1" d="m170.17,26.31l-.31.42c.26-.19.34-.32.31-.42Z"/>
      <path class="cls-1" d="m324.65,14.77h0s-.03.01,0,0Z"/>
      <path class="cls-1" d="m178.07,26.25s-.02.06-.04.09c.03-.03.03-.07.04-.09Z"/>
      <path class="cls-1" d="m179.78,2.76s-.02-.1-.06-.15c-.17.06-.09.11.06.15Z"/>
      <path class="cls-1" d="m178.07,26.15s0,.07,0,.1c0-.04.02-.07,0-.1Z"/>
      <path class="cls-1" d="m216.4,21.64s-.12-.19-.32-.36c-.07.1,0,.22.32.36Z"/>
      <path class="cls-1" d="m208.8,20.11s-.08-.08-.14-.12l.14.12Z"/>
      <path class="cls-1" d="m266.7,3.01c-.38-.02-.66.01-.9.06.27.03.57.02.9-.06Z"/>
      <path class="cls-1" d="m178.02,26.35c-.08.12-.19.24-.37.39.2-.16.31-.28.37-.39Z"/>
      <path class="cls-1" d="m227.92,16.05c-.08.04-.16.08-.23.12.05.02.09.03.14.05l.09-.17Z"/>
      <path class="cls-1" d="m231.88,16.82c-.13.12-.2.25-.27.37,1.41-.46,4.01,0,4.31-1.15-.48.03-2.97-.63-2.55-1.31-.98.3-2.45-.5-2.98-.31,1.62.62.18.98-.91,1.37-1-.33.18-.93-.68-1.14l-2.3.15,2,.14-.6,1.12c.07-.04.12-.07.2-.11,3.38-.54.3,1.63,3.76.88Z"/>
      <path class="cls-1" d="m231.61,17.18c-.21.07-.4.16-.54.28.32-.02.44-.13.54-.28Z"/>
      <path class="cls-1" d="m245.45,18.94c.17-.04.36-.09.6-.18-.11.04-.37.1-.6.18Z"/>
      <path class="cls-1" d="m144.09,18.8c.07.33,2.05.95,2,.1-.59-.07-1.18-.15-1.77-.23l-.23.13Z"/>
      <path class="cls-1" d="m283.13,13.94c-.22-.03-.44-.04-.66-.02-.05.04-.09.09-.13.13.13.13.57-.03.79-.11Z"/>
      <path class="cls-1" d="m233.98,14.32c-.36.13-.52.27-.61.41.23-.07.45-.18.61-.41Z"/>
      <path class="cls-1" d="m283.25,15.97c.28.24.69.62.75.95.57.01.98-.44,1.56-.59-.66.12-1.42.03-2.31-.35Z"/>
      <path class="cls-1" d="m285.6,16.31l-.05.02s.03-.01.05-.02Z"/>
      <path class="cls-1" d="m142.91,18.46c-.17.07-.34.13-.52.19l.27-.23-1.36-.23c-.16.06-.34.11-.56.15.09-.03.15-.12.19-.22-.15-.03-.29-.06-.44-.09-1.06.91-3.73,1.62-4.49,2.16-1.02.41-2.27.65-3.06.6.73,0,1.69-.2,1.39-.68-1.49-.47-2.25-1.93-4.78-.6l1.5-.06-3.32,2c-1.2-.76,1.66-1,2.11-1.69-2.6,1.01-4.85-1.43-6.02.25-.2-.97-.53-2.59-2.25-2.45,1.27,1.08-1.01.74.04,1.91-.58.58-1.93-.3-2.01.44l.15-.41c-2.98-1.46-3.88.99-5.11,1.82-3.51.5-5.14-.09-8.01.17-.13-.65-.97-2.42-2.12-2.32-.51.9-3.09,1.4-3.32,2.54,2.07.41,1.65-1.01,2.88-1.31,1.06,1.15.13,1.17,1.55,1.84-1.15-.43-5.09.79-6.36-.29l.43-.17c-2-.61-2.47-3.4-5.71-1.6l-1.55.75c.07-.12.08-.25.11-.35-2.58-.03-1.92-1.35-4.72-.24.22-.09.07-.21.29-.29-1.64-.58-3.23.76-4.44,1.07-.78-.92.14-.94.58-1.64-2.86-.26-5.88,1.47-7.6,2.69l-1.86-.49c1.07-.43,2.37-1.48,2.01-2.03-1,.23-.79.67-2.23.54.22-.61.8-1.2,1.44-1.98-2.99-.9-.58,2.17-2.72.39-.93.02-1.43.93-1.51,1.66l-1.72-.89c-.15.94-2.22,1.07-3.58,1.26-.15.41,1.13.95,1.63.57-.07.73-1.51,1.13-2.44,1.15-.42-1.94-6.08.53-5.07-1.81-4.15.81-10.01,1.24-12.74,2.17-.93-.5-2.79-.45-1.71-1.41-3.36.12-5.01,2.22-8.37,1.83-.29-.23,1.51-.09,1.36-.73-2.15.88-4.01-.65-7.37.03.57-.06.72-.47.79-.68.07.32-1.36.73-2.22,1.09-.5-.15.64-.26.36-.5-6.58-.66-11.44,2.23-17.94,2.47,1.86-.07,2.5-1.39,2.49-1.92l-1.82.07c-.67.68-2.04.74-3.15,1.28-.15-.24-.72-.47-.17-.8-3.66-1.13-5.49,2.63-9.93,2.18l5.2-2.87-1.37-.84,2.29-1.3c-1.44-.65-2.57,1.07-2.79.1.28-.29,1-.24,1-.77-1.36-.32-1.43.42-2.43.66,2.56-2.12,7.79-2.35,10.58-2.98.43-.18-.36.5-.42.7,1.14-.12,1.86.46,3.29.05.86-.88-.71-.58-1.43-.64.06-.74.42-.71,1.21-.86.22.97,4.37.13,5.45,1.27,4.22-.51-.8-2.5,3.36-2.26l1.29,1.06c2.36-.97,5.43-1.88,8.16-1.76l-.57.06c-.36.49.28.76.57.99,2.08.38,3.86-1.05,5.15,0,2.29-1.3,6.16-2.35,8.81-3.06.79,1.44-3.44,1.39-4.52,2.36l2.44-.11c-1.51.08-2.08.66-2.94,1.54,2.15.18,2.8-1.13,4.81-1.59-.14.41.14.64,1.08.62l.22-.99c.02.08.13.15.42.2l3.58-.74c-.78-.39-.85-1.24-1.79-1.21.36.56-.43.7-1.36.72.79-.67-.93-.5-.93-1.03,1.87-.05,4.16-.28,5.38-.59l.44.88c1.79.15,3.65-.42,4.87-.21l-.36.49c2.15.19,4.23-.48,6.16.32,1.87-1.1,4.23-2.04,5.75-3.18.79-1.19,5.65,1.25,7.74-.46.15.12-1.45.93-2.16,1.39,1.44.13,2.52-1.36,3.01-.15-3.22-.29.21.97-1.22,1.37,1.5-.08,3.08-.36,3.8-.82-2.43.1.8-1.72-1.64-1.1,1.87-1.1,4.46-1.61,6.75-1.29,0,.53.28.77,1.14.96l.66-.79c1.07.1-2.03.97.12,1.18,2.16-1.38,6.66.53,7.55-1.93,1.71.9-3.16,1.07-.59,2.16-1.44.92-3.51-.01-3.95,1.21,1.43-.39.56,1,1.49.99l1.58-.8-.36-.03c2.66-1.23,6.96-.82,10.4-1.13,2.88-1.32,4.84-3.13,8.35-3.1-1.01.74,2.93.6.76,1.98,1.64.58,3.22-.21,3.24-.74-1.43-.14-.51-.16-1.72-.38.79-.66,2.66-.69,3.44-.29-.36-.04-.22.08-.29.29,1.72.38.8-.66,2.02-.96.42.88,2.73.16,3.86.59l1.6-1.32c-.87.87,1.57.26,1.85,1.03,1.15-.62,2.11-1.7,3.89-1.51-.72.46,1.64.59,1.69,1.44,3.07.74,4.99-2.45,7.91-1.3-.08.2-.65.78.2.97.66-.25,1.83-.18,2.54-.29l-.02.02s.02-.02.04-.02c.35-.05.56-.17.57-.37,1.2-.86,1.81-1.73,4.19-2.5-.2-.97-2.21-.54-3.08-.21l-.74.98c-.76-1.45-2.16.31-2.72-.18,1.4-1.76,5.55-1.44,8.01-2.56-1.55-1.32-4.85-1.46-7.73-1.22l1.28.55-1.51.06,1.48,1c-1.43-.15-2.66.15-3.95.12,1.51-.06,2.13,1.28,1.27,1.08-1.7-.92-1.74.67-3.02.64.72.07,1.65.07,1.06.64-2.56-1.11-3.23-.33-5.56-1.53.33,1.62-2.88.23-3.19,1.57l1.07.11-2.24,1.04c-2.13-1.27,1.82-1.4-1.39-2.25-2.94-.08-2.82,1.63-5.13,1.82.73-.98,2.54-1.86,4.41-1.89l-1.14-.43c.58-.57,3.16-.53,4.45-.51-2.1,1.16,1,.31,1.99,1.16.15-.94-1.21-.76.39-1.54-1.51.06-1.73.13-3.66-.16,4.17.32,3.65-3.33,7.3-2.63-1.66.46.62,1.33.83,1.78.78-.13,2.37-.39,3.02-.64l-.63-1.33c2.1-.63,2.9,2.2,5.31.75.3-.81-2.15-.22-1.72-.39,3.32-.93,4.57,1.21,7.56,2.16.16-.41.1-1.26,1.13-2-.31.82.47,1.21-.68,1.83,1,.32,2.16-.3,3.03-.63-2.07-.43.82-1.18,1.19-1.67,1.07.12-.31.81-.96,1.06.86.2,1.91,1.37,2.37.15.05.85-2.35,2.29-3.93,2.54l1.07.12c-.73.45-.87.33-1.94.22,1.06.64.97,1.37.74,1.98-.14-.12.07-.2-.06-.32-.86-.2-1.51.05-1.3.5-.74,1.16,1.2.69,1.8,1.25.44-.09.87-.17,1.3-.26l4.37-3.76c1.89-.46,2.76.4,4.2.92l.37-.99c1.66.07,3.22.35,2.19,1.61-.07-.33-.28-.24-.64-.28-.04.13-.13.23-.23.31-.03.06-.05.12-.08.17,1.76-.35,2.87-.58,2.97-.62-2.98,1.49-.12,1.79-.59,3.54l3.02-.63c-1.85-.52-.05-.85.6-1.1.2.98,2.44-.06,3.51.06l-.07.2c.99.32,2.72.2,3.94-.08-.06-.33,1.49-1.95,2.23-2.93-2.12-.33-.87-.75-1.05-1.35.22.05.61.06.66-.07.3-.28-.42-.36-.48-.69-2.24.49-4.54.66-5.43,2.04.7.61,1.16-.61,1.94-.21-1.1.94-2.53.78-4.4.79l-.63-.81-1.87.48c.78-.45.29-1.3,2.25-1.5-.27-.77-1.95.21-3.16-.02l-.6,1.1c.23-.61-2.36-.68-.54-1.54l2.97-.95-.84-.73,2.52-.26-.58.58c4.04-.83,1.23,2.14,5.29.79,1.25-1.34,2.62-1.5,5.13-1.22-1.8.32-.17.93-.84,1.71,1.85.52,2.46-.57,3.41-1.1.48.69.82,1.25-.83,1.18-.18,1.46,2.16-.29,2.34,1.21,5.46-.13,4.3-4.92,10.71-3.14l-.23.61c4.04-.8,6.39-.1,10.14-.63l2.97,1.51c-.66.24-2.42,1.42-1.58,2.15-1.45-1.54-2.97-.98-4.53-1.8-.15.41.48.69.76.94-.93,0-1.41-.7-2.64-.41.06.32,1.41.69.4.89l-1.69-.94c-2.24.48-1.08,2.31-3.72,1.9.48-.86,1.46-2.11,2.48-2.33-1.21-.17,1.6-.54.49-1.03-1.72,1.29-2.57.29-4.87,1.12.27-.18.34-.43.9-.52l-3.36-.48c.84.73-2.76.86-2.43,1.95,3.58.4,2.52-.25,6.59.31-1.15.26-2.62,1.41-3.3,2.45-.04-.04-.1-.08-.22-.1-.61,1.1.03,1.38.05,3.29,1.84-1.38,3.09-.29,5.27-1.09.4-1.05-1.29-1.32-2.37-1.03l1.92-.71-.37.48,4.9.29c-.93.07-1.23.67-1.71,1.14.63.03,1.26.3,1.93.6-.15-.99-.07-1.7.54-1.69,3.15.2,4.91,1.07,6.09,2.2.12-.02.26-.05.37-.07-.54-1.01,2.22-1.86,3.18-2.92-.04,1.06,1.63.61,2.54,1.14.47-1.22-.19-2.88-1.31-3.86-2.12,1.13-1.18,1.13-2.17,2.71l-3.4,1.09.75-.97c-1.71-.41-3.33.89-3.22-.37.89-.85,2.38-.36,3.27-1.21l-1.13-.45c1.98-1.26,1.03,1.18,3.43.29-.9-1.06.22-.08,1.24-.81-.84-.73-4.24.35-3.54-1.47,1.25-.81,4.24,2.08,5.88.25l-.08.21c2.45.21,3.3-.84,4.21-1.5,1.05.58,2.48-.26,3.61-.33l-.02.53,1.59-.23c-.75.97-1.87-.01-3.23.14l.18.98c-1.59-1.15-2.62.62-3.84,1.48,1.77-.87,5.03.2,5.43-1.72l1.11.98.52-.36c.83.74,0,1.91-1.59,2.14-.28-.25-.42-.37-.34-.57-.73.44-1.4,1.21-3.19,1l.95-.53c-2.22-.06-4.24.35-4.99,1.32,3.21.37,6.37.44,9.38.37.87-2.22,1.92-3.48,2.35-5.54,2.02-.4,4.77-.7,6.53.04l-.16.41c.86.21,1.65.09,2.31-.15.91.53-.61,1.09.02,1.38l2.89-.71c-.17.93-2.61.96-3.77,1.03.22-.08.66-.24.52-.36-1.35-.37-3.85,1.23-4.45-.11-.65.24,1.33-1.01-.9-1.06-1.49-.5-1.97.72-2.12,1.12-.02.53,2.34.71,1.53,1.35,1.16-.08,1.61-.76,3.1-.26-1.15.07-2.7,1.16-3.31.34-2.26,1-1.92,3.48-.85,3.61-.26-.78,4.13-.99,1.15-1.98,1.33-1.01,3.77-1.03,5.51-1.67l-.08.2,2.17-.27c-.3.28-.96.52-.98,1.05l3-1.44c-1.69.96,1.05.65,1.82,1.07.32-.81,1.49-1.41.36-1.86-1.27-.58-.74.44-1.89.51l1.62-1.28.14.12.98-1.05c2.22.07-.96,2.43,1.88,1.4l-.38-1.42c3.3.2,7.54,1.78,9.86,1.12-.64.81-.92,2.11-.03,2.88-1-.24-3.02-.18-4.46-.05-.28-.25,1.79-1.69,3.36-1.39-.77-2.33-3.93,1.42-4.12-.94-3.99-.81-2.96,2.28-6.35.91-.04,1.05-.96.52-1.13,1.45,1.01,1.72,4.52-.07,6.72.52-.21.08-.65.24-.73.44,1.57.3,2.22.07,3.31-.33l-.14-.12c1.91-1.04,1.19.78,2.32,1.24.44-.16,2,.14,1.75-.63l2.04.99-.1-1.18c1.15-.07,1.4.7,2.45-.02l.05-1.05-2.86-.36c1.45-.35.4-1.01,1.99-1.24-1.78,1.16,1.26.58,1.44,1.56l1.17-.6-.3.28c.92.54,1.09-.4,2.17-.26-1.27-.59-2.1-1.32-3.71-.57,1.17-.59,3.5-1.26,4.07-1.29,1.23-.44,2.09.36,3.25.48-2.21.42.78,3.2-3.66,2.43.08-.2.44-.16.58-.03-.59-1.35-2.66.09-3.62.61.25.77-.76.97.95,1.39-.56-.49,1.43-1.74,3.06-1.1l-.28,1.66,2.36.2-.22.08c.89,1.07,2.52-.2,4.14.43,1.17-.59,5.67-.12,3.74-1.85,1.46,1.04,2.74-.28,4.33-.5l-1.98-.68c2.35-1.18,1.67-.42,3.55-2.3.19.45.61.83.22,1.3,3.15.08,7.65.57,9.51-.77,2.22.08,2.56,2.04,5.68,1.29.66-.23-.5-1.55,1.56-1.07.14.12-1.99,1.22.31,1.1,1.64-1.27,3.84.72,5.98-.37,1.12.47,3.07.3,2.66,1.31-1.78-.24-4.3-.04-4.69.44.25-.61-1.26-.6.05-1.06-2.69-.78-1.75.62-4.16.08-.17.4,1.24,1.12,1.76.76,0,1.38-4.76.64-2.63,2.31,2.58.13,3.36-2.74,5.59-1.28-.9.83-2.3.12-3.45,1.56l1.83.56,1.34-.99-.08.2c3.24,1.28,3.01-1.41,5.92-2.08-1.68-.97.41-2.39-.86-2.99,1.94-.16,3.37.04,3.37,1.42-3.64,1.09-.22,1.46-3.59,2.8.55.5-.81,2.01,1.19,2.18,2.26-.96-.67-1.15,1.59-1.59.13.12.27.25.19.45,1.04-.71,1.2.27,2.46-.51l-.3.27c1.54.85,1.7-.93,3.02,0-.52-1.03.9-.83,1.73-1.46-1.34-.4-2.06-1.88-4.72-1.82-.33.81-.14,1.26-1.23,1.64l1.73-.08c-.37.13-.66.33-1,.49l-1.66-.43c2.11-.56,1.15-1.43,2.05-2.27,1.92.37,1.59-.21,2.8.07-.13,1.19,3.69,2.06,5.9,2.85-.34-.05-.79-.02-1.03-.06-1.62.74,1.1,1,1.15,1.33l1.18-.58c-.22.08-.53.35-.03.53,1.59-.21,1.51-1.38,3.1-1.59.11.65-1.24,1.64-.26,1.99.33.57,1.4,2.1,3.51,1.54.15-.25.7-.39,1.33-.48-.09.03-.2.06-.24.1l1.39.73c-1.2,1.1-2.4-.56-3.61.55l-.11,1.06c-.93,0-2.2.44-2.79.99,1.42.19,1.72-.08,3.31-.29.21.67-.91,1.16-1.07,1.23l.24-.6c-1.88-.9-2.84.99-5.2.77-.36-.05-.14-.12-.06-.32-1.92,1.01-3.78-.42-5.64.92l.61-.55c-1.27.44-3.74,1.46-6.22,2.45l-.02.41c.27.25-.65.23-1.15.06h0c-1.24.49-2.43.94-3.41,1.28.31.26.7.47,1.16.53.39-.48,2.65-.06,2.35-1.17,1.04.67,2.74-.26,3.5.16-1.39-.72.98-1.03,1.23-1.63.46.7,2.08-.03,1.88.9.27.25-.68-.63-1.28-.07-1.47.86,2.68.79.84,1.6,2.33-.63,5.39-.32,7.8-1.16l-1.34-.39c1.06.15,3.59-.04,3.77.42-.79.1-1.72.08-2.73.26-.06,1.05,2.43.02,2.54.67l2.96-1.72-1.29-.07c.82-.64,3.51.17,5.5.35-1.16,1.43-3.01,0-5.12.55-1.53.53.93,1.4-.52,1.73.37.34,1.31.31,1.78-.05l.57.27c-1.3,1.3-4.19.98-6.12,2.09.17-.14.32-.29.37-.44-1.47-.52-2.98-.52-4.42-.18.76.42,1.06.14,1.5,0,.05.32-1.31.45-1.83.81,1.34.4.24.78,1.09,1-.88.3-1.58.21-2.65.06-.55-.5.46-.68.36-1.33-1.1.38-1.59-1.18-3.2-.44,2.13.29-.57,1.41-1.31,1.84l.36.05c-.68.76-1.26.78-1.72.08.88-.3,1.72-.08,1.48-.86-.58.03-1.15.05-1.81.28l.6-.55-2.87.14c-.46.68-1.22,1.64-1.63,2.64-.68-.63-1.64-.11-2.3.12l.31-.28c-1.26-.59-4.08-.12-4.32.49-.9-.54,6.41-3.82.02-3.29-2.43,0-1.52,1.92-2.91,2.58,0,0,.08-.2-.06-.32-1.06-.15-1.17.59-2.05.89.64.3,1.56.31,1.86.04-.32.81-2.21-.08-3.03.55,1.06-1.24-2.05-.49-1.23-1.12-2.11-.81-4.37.16-5.49,1.07-1.43-1.57-2.51.19-4.84-.53.36.05,1.01-.19,1.51-.02,1.33-.99-2.41-.52-.37-1.42-.44.15-.03.53.42.37.78-.11,1.52-.54,1.33-.99l-1.89-.88.66-.24-2.88-1.22c-.08.2.19.45.33.57-3.34-.54-7.16.13-10.09-.03-.55,2.8-7.2,1.19-9.57,2.91.63-.8.98-2.22.58-2.8.53-.12,1.61-1.25,2.8-1.01.19.45,1.67.96.72,1.47,3.3-.32-.45-1.23.53-2.27-3.66.26-5.81,1.91-8.12,2.58l-.06-.33-1.74.63c1.43.18,1.36,1.77-.48,1.22l.22-.08c-1.05-.66-3.23.13-4.87.03l-1.11.92c-1.64-.1-1.72-1.8-2.25-2.82-2.57-.11-4.05,1.29-5.87,2.13-.83-.75-4.68-.89-2.65-1.81-2.32.67-1.82,4.65-5.81,2.48l1.03-.73c-3.8.18-9.21,1.65-10.97.9,1.38-2.59-4.77-2.59-5.47-5.11.19.58-1.23.78-1.44,1.1-.32-.29-.84-.57-1.39-.05,1.49.49-1.02,2.64,1.81,1.58-1.42,1.75-3.25,3.12-6.39,3.07l.04-1.06,2.49.29c-.26-.78,1.02-.73,1.54-1.1-4.63-.54.58-2.48-4.15-2.28-.45.69-.16.4-1.38.69.58-.04.67-.77-.26-.77l-.88.85c-1.67-1.74,2.72-1.18,1.3-2.39,1.82-.85,4.98-1.33,4.37-2.67-2.99-.45-2.66,2.55-5.78,1.98l-.34-.57c-1.09.4-1.26,1.33-1.85,1.9-.06-.32-.34-.57-1.05-.65-1.84,1.38-3.06,1.66-4.75,3.15,4.53-1.16,3.9.99,8.58-.06-.73.45-4.03.81-4.21,2.26l.03-1.06c-1.52.57-3.04,1.13-4.96.8l1.16-.61c-2.53.76-4.24-1.55-6.22.24.71.08,1.28.04,1.72-.13-1.3.49-2.94.41-4.36.25l-2.91,1.79c.02-.52-1.84-.53-.96-1.38-2.13-.77-3.1.82-4.32,1.1-2.18-1.09,1.87-.53,2.06-1.99-2.99-.44-6.15.05-7.82,1.03.61.2.91.38.88.64-.1-.33-1.3-.23-1.97-.23l-.45.69c-1.12-.45-.97-.85-.03-1.38-1.07-.12-2.32,1.23-3.44.26,1.81-.86,4.14-.18,5.08-.71-3.8.73-3.87-2.02-8.69-1.06-.07-.33.74-.98-.19-.97-2.15.3-.54,1.42-1.19,2.2,1.65-.46,2.43-.06,3.41.79l-.43.57c-.07-.29-1.11-.28-1.43-.56l-.25,1.14c.1-1.26-1.59-2.18-2.89-1.68,1.34.88.98.84,1.37,2.26-1.81,1.39-2.1-1.29-4.14.19.15-.41,1.94-.74.38-1.02-1.29-.03-1.1.94-1.96,1.27.95-1.06.69-1.84,1.72-3.1,2.29-.18.92,0,3.16-.51l-1.91-.85c1.94-.21,1.39-1.22,1.54-1.63-3.34-1-2.47,1.64-4.61,1.41-1.01.74,2,.11.41.89-2-.11-.44.69-2.67,1.19l.36-.49c-.7-.61-1.36.17-2.15.29-.86.33,1.06,3.61-2.51,3.76.17-.3.23-.48.23-.6l3.31-8.85c-3.63.09-7.82-.06-12.04-.54-1.03-1.69,2.97-1.49,2.7-2.25l1.93.3c-.09.73-4.02.32-2.25,1.57,3.38-.61,4.93.19,8.11-1.37-1.04-1.7-4.23.39-6.35-.89.88.09,1.62-.12,2.33-.38-1.97-.18-4.08-.37-6.32-.57l-.49.43c1.51.16,2.56.28,2.69.34-2-.1-3.66.89-3.77,2.15l.36.04-.71.41-1.41-.21ZM13.54,22.89c.12-.13.2-.27.27-.45-.06.19.02.3-.27.45Zm168.4-9.43c-2.67-.14-5.36-.44-7.93-.55,4.67,2.41,7.94,4.24.24,4.32l-.5.19c1.01.28,2.75.3,4.38.09,1.31-.9,5.52-4.21,5.47-4.5-.48-.69-1.15.08-2.01-.12l.34.57Zm1.96,4.14c1.51.25,1.16-.29,1.39-.79-.53.07-1.06.14-1.58.21.2.12.3.3.2.58Zm1.29-1.29c-.17,0-.31-.03-.39-.09l.39.09Zm-29.37-.09c.07-.01.09-.02.15-.03-.36-.03-.72-.06-1.09-.09.15.08.42.13.94.13Zm3.09,1.15l.34-.92c-.33-.03-.67-.06-1.02-.08.12.41.25.76.68,1Zm9.9,2.79c.6-1.1,2.68-1.19,2.78-2.45.13-.33-.31-.44-.81-.53-.55-.02-1.13-.04-1.75-.07-.02.18-.14.36-.34.52.62.15,1.03.45.8,1.23-1.61-1.65-1.39,1.23-3.1.83-.52.9,1.91.84,2.42.48Zm130.75-4.12c.05.11.21.39.44.75l-1.2.62c-2.14-.28-3.84-2.1-5.77-.56-.9-.4-1.38-1.22-1.83-1.91.44.05.85.12,1.2.23,5.41-2.25,2.8,2.42,7.17.88Zm-24.58-2.31c.22-.08.3-.28.3-.28-4.78,2.3-8.72,2.97-11.29,2.88.5.92,2.81,1.63,3.91,2.01l-.97,1.04-.61-.82-1.69.95c.47.7,1.83.56,2.74,1.1.08-.2,3-1.41,3.81-2.05l-2.33-.72c.63.29,3.72.05,4.95-.21.02-.52-2.09-1.33-2.35-.2-.25-.78,2.19-.78.65-1.61,1.83-.83,4.73-.13,6.08.25l.23,1.3c1.48.51,1-1.57,2.76-.81-2.16.25.36,1.43-1.36,1.53.55.49,0,1.38,1.73,1.28,1.44-1.72,1.81,1.08,3.17-.43.9.54-.98,1.03.8,1.27,2.04-.9,1.93-1.55,2.06-2.8-1.91-.36-2.15,1.62-3.71,1.31l3.11-2.14c-.57-.31-1-.34-1.35-.26.62-.12,1.16-.44,1.61-.87.26-.25.5-.46.72-.64-1.76-.02-3.33-.06-3.6-.6l.25-.61c-.62-.56-1.64-.13-2.11.32-1.58.06-3.16.91-3.5.12l.6-.56c-1.94.17-2.16.25-4.6.26Zm-63.6-1.09c1.2,2.22,2.52,4.17,7.99,3.73l-.43.16c2.77,1.38,5.37-1.89,8.75-.36-1.62.85-1.54.78-3.32,2.72l1.74-.64c-.48,1.22,1.26.58,2.55.63l-1.12,1.45c-.77-.41-2.77-.55-2.71-.22.44-.16-2.65-1.81-4.32-1.37.18.98,3.7.56,2.14,2.17,1.38-.68,1.56.29,3.01-.06-1.38.68-.33,1.34-1.36,2.06l2.37-.35c.06.33-3.45.75-1.5,1.94.95-.52,3.49.11,3.53-.95l.06.32c1.78.22.77-1.5,2.96-.91.02-.53-.4-.89-1.18-.78-.66.24-.76.97-2.12,1.12-.62-.82,1.65.09.69-1.3-.48-.69-3.6.63-2.61-.95l1.78.21c.04-1.06,1.33-1.01,1.28-1.86,1.09-.4,2.12.79,3.22-.14.46-.69-.36-1.95,1.49-1.41,1.45,1.55,5.68,1.21,7.26.99l1.38-.68c-.12-.65-2.65.1-1.76-.75l2.16-.26-.17.41c.72.09,1.45-.35,2.1-.58-.67.76-2.23.46-1.92,1.56,1.02.21,1.17.62,2.11.41-.2.08-.38.19-.35.34,2.06.47,1.98-1.24,2.5-1.6,2.06-1.44-2.09-1.32-1.83-2.46l6.04-.62c-.51.36-1.03.72-.84,1.17,1.48.5.04.85,2.12.79-.15-1.5,2.62-.95,4.08-1.82.69.61.83.74-.67.76.17.98,2.19.59,2.91.68.41-.24,1.12-.39,1.57-.61-.6-.48-.35-1.1.96-1.52l.08-.2c-2.13-.26-5.45-1.32-6.79-.31l.38-.48c-2.47-.84-5.37,1.77-6.52-.07.1-.73-.5-.17-.46-1.22l-1.82.83.38-.48-3.09.25.08-.2c-1.47.96-2.62,1.74-3.53,2.38,0,.46.1.6-.39.94-.49.23-.86.27-1.2.21h0s0,0,0,0c-.76-.13-1.27-.79-2.21-1.05l2.88-.14c.23-.78-.02-1.59-1.43-2.13.58-.03.81-.65.1-.73-.08.2-1.88.51-1.19,1.13-2.73.3-7.17-1.71-11.31-.2,2.98-.92-2.4-1.03.91-1.37-2.32-1.23-1.98,1.24-4.34,1.07-.2-.45,1.28.05,1.82-.84-3.92-.47-6.59,2.06-10.38,1.73l-.17-.97c-.72.13-1.51.28-2.34.43Zm-7.48,1.3c-.73.12-1.47.24-2.22.36.07,0,.14.02.22.03l-2.18.81c1.35.37,2.25,1.43.37,1.95.15-.4-.4-.89.25-1.14-1.27-.57-4.05-1.1-3.3.36,2.41-1.42.59,1.87,2.48.81-1.01.97-2.03.55-2.99.99.99-.81-.26-1.82-1.77-2.18-.65.25-2.44.05-3.52.45.4.89-.54,1.42,1.24,1.62-.65.25-1.66.45-2.79,0,.45-.16,1.23-.29,1.17-.61-.74-.82-1.6-.77-2.07-1.11-.38.05-.75.11-1.12.16.11.08.21.18.28.3l-1.24.81c1.66-.45.78.4.76.93.03-1.05-1.07-.12-1.64-.08l1.26,1.09c-.59.57-2.12-.77-1.79.33,2.63.4,3.64.19,6.01-.17l-.98-.85c2.67-.66,1.67,1.46,4.68,1.37,1.24-.81,4.52-.11,4.56-1.7-.37.49,1.89,1.39,2.91.66,1.12-1.46,4.56-1.69,3.51-2.34-.93,0-2.17.8-2.93-.13l1.8-.32-1.19-.77c.62.28.55-.49.25-1.65Zm-40.62-8.22s-.05-.01-.07-.02c.03,0,.05,0,.08,0v.02Z"/>
      <path class="cls-1" d="m326.33,12.99c.52-.36,1.81-.28,1.57-1.06.02.85-2.3.11-1.57,1.06Z"/>
      <path class="cls-1" d="m327.86,13.84c.09-.2.03-.53.61-.55l-1.59.2.98.36Z"/>
      <path class="cls-1" d="m329.4,19.68c.83-.63,1.35-.98,2.63-.9.46,2.08-2.11.55-2.71,2.48,2.35.23,3.09-1.58,5.03-1.73-.95-.88-4.86-1.43-4.95.15Z"/>
      <polygon class="cls-1" points="328.32 22.29 329.63 21.84 329.51 21.72 328.19 22.17 328.32 22.29"/>
      <path class="cls-1" d="m300.12,3.99c-.11-.65-.94-.02-1.37.14.36.04.85.22,1.37-.14Z"/>
      <path class="cls-1" d="m42.35,8.07l-9.97,1.08c2.87-.29,5.52-.5,9.97-1.08Z"/>
      <path class="cls-1" d="m266.91,8.13c2.68-.61,3.88-1.73,6.62-2.01-3.6-1.31-4.75,2.04-7.78.7l1.16,1.32Z"/>
      <path class="cls-1" d="m267.85,2.95c.44,1.22-2.07,1.43-1.68,2.33,1.81-.3.84-1.16,2.49-1.06l-.8-1.27Z"/>
      <polygon class="cls-1" points="279.98 23.19 279.17 23.82 279.82 23.59 279.98 23.19"/>
      <polygon class="cls-1" points="255.61 4.05 255.9 3.77 254.55 3.39 255.61 4.05"/>
      <path class="cls-1" d="m256.2,3.49l-.3.28.3-.28Z"/>
      <polygon class="cls-1" points="278.94 25.81 280.14 26.07 280.74 25.51 278.94 25.81"/>
      <path class="cls-1" d="m268.29,19.24l1.08-.39c-.21.08-1.69-.43-1.08.39Z"/>
      <polygon class="cls-1" points="247.37 3.55 246.06 4.03 246.19 4.15 247.51 3.67 247.37 3.55"/>
      <path class="cls-1" d="m259.84,22.61c.75.94-2.15.26-.62,1.09,1.36-.15.81-.64.62-1.09Z"/>
      <path class="cls-1" d="m243.96,16.28c-.18,0-.36.03-.54.14.21-.04.39-.09.54-.14Z"/>
      <path class="cls-1" d="m243.96,16.28c.57,0,1.15.36,1.54.08-.72-.42-.98-.26-1.54-.08Z"/>
      <path class="cls-1" d="m237.4,16.53l.52.06c-.53.47-.28.4.19.02.55-.04.52-.33.58-.54.11-.12.22-.24.34-.37-.17.13-.32.24-.45.34-.85,0-1.37.05-1.18.48Z"/>
      <path class="cls-1" d="m212.87.88c1.93.33,2.43.49,2.33,1.22,1.83.21,1.53-1.04,2.63-1.35-2.06.16-2.49-.17-4.96.12Z"/>
      <path class="cls-1" d="m217.82.76c.23-.02.45-.04.72-.06-.3-.02-.52.01-.72.06Z"/>
      <polygon class="cls-1" points="245.11 24.48 243.92 25.6 244.36 25.44 245.11 24.48"/>
      <path class="cls-1" d="m210.01.55c.36.04.93,0,1.21.25.09-.73-1.57-.29-1.21-.25Z"/>
      <path class="cls-1" d="m217.56,14.78c.2.44,1.42.17,1.93.34-.72-.09-1.31-1.43-1.93-.34Z"/>
      <path class="cls-1" d="m204.52,3.62c.36.04.91.53.68,1.13.51-.36,1.2-1.66-.68-1.13Z"/>
      <polygon class="cls-1" points="214.06 14.69 214.33 14.93 215.64 14.45 214.06 14.69"/>
      <path class="cls-1" d="m218.84,25.42c1.47-.88-2.36-2.08.17-2.84-3.28-.88.26,1.23-2.15,1.11,1.42.28,2.12,1.37,1.98,1.73Z"/>
      <path class="cls-1" d="m216.86,23.69c-.21-.04-.43-.07-.67-.07.27.04.48.06.67.07Z"/>
      <path class="cls-1" d="m196.04,18.42c.21-.1.36-.2.49-.3-.17.07-.33.17-.49.3Z"/>
      <path class="cls-1" d="m209.15,24.5l2.19-1.33c-1.47.89-5.18.88-4.93,2.18,1.2.25,2.65-.11,3.23-.68l-.5-.16Z"/>
      <path class="cls-1" d="m183.42,1.23l.95-.53-1.2-.13c.35.19-.26,1.16.25.66Z"/>
      <path class="cls-1" d="m182.94.54l.23.02c-.05-.03-.13-.04-.23-.02Z"/>
      <path class="cls-1" d="m200.21,17.74c.72.08,1.29.04,1.94-.2-.27-.24-2.06-.45-1.94.2Z"/>
      <polygon class="cls-1" points="176.7 3.23 178.28 2.98 176.55 3.11 176.7 3.23"/>
      <polygon class="cls-1" points="169.28 1.15 169 .91 167.7 1.41 167.98 1.65 169.28 1.15"/>
      <path class="cls-1" d="m179.37,26.61c1.07.12,1.88-1.06,1.6-1.3l-2.07.08c.54,1.02.57-.04,1.78.2l-1.31,1.02Z"/>
      <path class="cls-1" d="m114.54,4.39c.44-.7,2.73-.37,2.87.28-.3.29-1.52.6-.74.99l1.75-1.73c2.42.98-1.76,2.26-2.92,2.88,2.44.15,3.13-.98,5.73-1.04-.77-.13-1.26-.53-1.68-.88-.12-1.18,2.31-.73,4.03-.87-1.11-.48-.49-.93.3-1.42.14-.04.24-.11.3-.19.09-.06.18-.12.27-.17h-.21c.01-.13-.04-.28-.19-.5-1.44.38-2.58-.57-3.51-.56.98,1.9-3.17.54-4.32,1.16l-1.35.23-.51.02c-.11-.21.03-.48.79-.88-.63.4-2.79.33-2.57.94l-4.91.17c-.16-.07-.31-.17-.43-.3-.17.13-.19.23-.17.32l-21.38.83c1.06.11,1.99.52,3.08.7-1.59,1.33,1.79.17,1.35,1.39-.72.46-1.8.36-2.45.09-.22.62.71,1.13.63,1.86,2.72.68,3.03-2.25,5.69-1.89-.08.73-.87,1.4.85,1.24l-.43.17c2.73-.91,2.21,1.58,3.88-.48v1.06c1.22-.83,3.65-.92,5.02-1.11l-.08.21c3.82-1.33,2.15-.33,6.47-.97l-1.95,1.29c1.51.46,1.8-.88,2.88-.78-.07.21.2.97-.81,1.19l5.19-2.02c1.23-.83-.28-.77-.49-1.21Z"/>
      <path class="cls-1" d="m121.23,5.77c.28.05.6.06.97.01-.36-.02-.67-.02-.97-.01Z"/>
      <path class="cls-1" d="m84.19,3.72l1.5-.06c-.47-.05-.95-.05-1.5.06Z"/>
      <path class="cls-1" d="m128.69,3.25c-.93-.52.66-.78.81-1.19l-3.26.11c.03.41-.29.87-.21,1.24l2.66-.16Z"/>
      <path class="cls-1" d="m125.27,1.44c-.1.29-.44.55-.82.8l1.79-.06c-.02-.3-.23-.58-.97-.74Z"/>
      <polygon class="cls-1" points="126.21 23.1 125.63 23.15 124.77 23.49 126.21 23.1"/>
      <path class="cls-1" d="m117.16,21.57c.71.6,2,.09,2.43-.08-1.5.06-.86-.19-2.43.08Z"/>
      <polygon class="cls-1" points="119.2 28.11 117.77 28.5 117.91 28.62 119.2 28.11"/>
      <path class="cls-1" d="m73.24,8.28c-.24.03-.47.06-.71.09.33,0,.54-.05.71-.09Z"/>
      <path class="cls-1" d="m85.67,6.82c-3.51-1.06,2.24-1.07,1.1-2.54l-1.87.57.15-.41-2.3.22c.5.68.85.71.78,1.44-3.08-.17-1-.83-3.29-1.67l-3.43.26.27-.23c-.29.03-.41.12-.51.25l-11.55.88c-2.08.67,1.21,1.27-.3,2.4,2.44-.1,6.09.55,6.24-.92-.07.2-.22.61.28.77l1.37-1.25-1.36-.33c1.37-1.25,5.97-1.15,6.82-.44-2.59.5-1.23,1.89-4.89,1.25.18.36.87.99.06,1.22,4.24-.58,8.07-.06,12.43-1.46Z"/>
      <path class="cls-1" d="m43.06,9.18l.03-.13c-.07.07-.1.13-.03.13Z"/>
      <path class="cls-1" d="m44.5,9.3l2.01-1.51-3.23.25-.19,1.01c.27-.27,1.39-.82,1.84-.45l-.43.7Z"/>
      <path class="cls-1" d="m48.88,6.83c-1.65.49-1.51,1.67-.58,2.17-1.51.61-.86-1.23-1.86.05.07.85,1.94.27,2.36.1l.08-2.32Z"/>
      <polygon class="cls-1" points="61.21 6.94 60.76 7.45 61.92 7.53 61.21 6.94"/>
      <path class="cls-1" d="m60.76,7.45l-1.15-.08c.09.36.19.71.38.95l.77-.87Z"/>
      <path class="cls-1" d="m56.59,7.15c-.49-.07-1.03-.11-1.68-.12l1.68.12Z"/>
      <path class="cls-1" d="m57.91,7.4l-.05-.15-1.28-.09c.47.07.9.16,1.32.25Z"/>
      <path class="cls-1" d="m59.61,7.37c-.22-.82-.47-1.68-2.12-1.38l.38,1.26,1.75.12Z"/>
      <polygon class="cls-1" points="108.64 27.17 107.35 27.68 107.49 27.8 108.78 27.29 108.64 27.17"/>
      <path class="cls-1" d="m101.08,26.66c-.32.16-.56.32-.78.48.34-.1.6-.25.78-.48Z"/>
      <path class="cls-1" d="m95.66,32.49c-1.56-.78,2.08-1.17-.77-1.44-.28-.77,1.02-1.81,2.38-1.47-.08.73-1.29.51-.44,1.23.86-.87,1.22-.31.87-1.4,1.47-.73,1.62-1.52,2.61-2.27-1.79.54-5.63-.46-7.88,1.02-1.22,1.36-.39,3.14-.33,5.04.21.44,3.49.55,3.57-.72Z"/>
      <path class="cls-1" d="m98.14,34.31c.71.07.93-.01,1.36-.18-.14-.65-.79.14-1.36.18Z"/>
      <path class="cls-1" d="m81.29,20.52c-.13.28-1.4.66-1.11,1.12l1.94-.41c-.46-.03-.63-.35-.83-.7Z"/>
      <path class="cls-1" d="m82.98,21.05l-.85.18c.22.02.48-.03.85-.18Z"/>
      <path class="cls-1" d="m81.19,20.36c.03.06.06.11.1.17.03-.06.02-.12-.1-.17Z"/>
      <path class="cls-1" d="m51.81,6.87c0-.52-.85-.18-1.29,0,.36.03.87.18,1.29,0Z"/>
      <path class="cls-1" d="m19.05,10.39l-.79-.38c.28.23.43.35.79.38Z"/>
      <path class="cls-1" d="m7.88,25.25c-.02.1-.07.19-.14.27.07-.07.12-.16.14-.27Z"/>
      <path class="cls-1" d="m7.74,25.52c-.5.46-2.16-.14-2.71.56l.06-.21-1.06.45c1.01-.11,3.15-.13,3.71-.8Z"/>
    </g>
  </g>
</svg>