<?xml version="1.0" encoding="UTF-8"?>
<svg id="Layer_2" data-name="Layer 2" xmlns="http://www.w3.org/2000/svg" viewBox="0 0 56.25 1400.91">
  <defs>
    <style>
      .cls-1 {
        fill: #ffa520;
      }
    </style>
  </defs>
  <g id="Layer_1-2" data-name="Layer 1">
    <g>
      <path class="cls-1" d="m18.22,1366.13c.48,3.14.48,5.93.16,4.77.63,3.18.89,4.81,1.08,5.73.19.93.32,1.16.82,1.5,1.08,4.02,1.2,8.48.1,3.89.41,1.95.79,3.91,1.24,5.85l1.39,5.82-1.2-7.04c1.05,1.78,1.93,11.24,3.18,13.29l-2.51-12.66.36.59c-.78-2.84-1.54-8.51-1.77-10.49.17.29.33.06.71,2.31-1.25-7.68-1.58-8.7-2.06-9.36-.45-.66-.89-.99-1.86-7.4.12.8.25,1.8.36,3.19Z"/>
      <path class="cls-1" d="m18.45,1352.76l-1.47-5.32-.5-9.13c-.32-.08-1.11-6.7-1.03-2.18.12.88.35,2.61.44,4.01-.38-.48-.72-3.51-.99-6.08-.23-2.57-.44-4.68-.71-3.31.27,3.62.47,5.7.66,7.43.19,1.73.41,3.11.86,5.31.11,1.66.22,3.2.32,4.63.11,1.43.22,2.75.32,3.96.18,2.42.29,4.4.32,5.96.32,1.95.72,2.18,1.14,4.65-.08-.55-.16-1.05-.25-1.68l.99-.39c-.43-2.05-.54-4.02-.8-6.31.77,3.5,1.51,7,2.42,10.47.12-.88.1-2.19-.02-3.71-.09-1.53-.23-3.29-.41-5.06-.34-3.55-.79-7.19-.77-9.29-.35,5.25-.87-4.08-.52,6.06Z"/>
      <path class="cls-1" d="m17.82,1362.68c0,.07.03.18.04.26-.01-.08-.03-.19-.04-.26Z"/>
      <path class="cls-1" d="m16.86,562.39c.01-2.27-.22-2.95-.33-3.28-.02,4.26-.24,8.53-.37,12.8-.22,4.27-.4,8.54-.69,12.82.33-.79,1.09-8.16.97-3.21.43-2.19.5-8.91.19-9.9l.32,1.88c-.26-5.93.87-9.93,1.06-6.07v-.5s-.35-4.11-.35-4.11l-.44-4.1c-.3-2.73-.58-5.46-.97-8.17-.02,2.99.13,4.14.3,5.45.17,1.31.36,2.77.32,6.38Z"/>
      <path class="cls-1" d="m34.12,37.76c.02,3.38.2,3.79.27,3.4-.1-1.21-.17-2.35-.27-3.4Z"/>
      <path class="cls-1" d="m15.73,546.76c-.21-1.7-.49-3.38-.77-5.07.26,2.02.54,3.81.77,5.07Z"/>
      <path class="cls-1" d="m24.41,582.71s.06.07.11-.06l-.19-2.35s0,.05,0,.06c.03.86.05,1.63.08,2.35Z"/>
      <path class="cls-1" d="m2.77,430.23c0-.57,0-1.05,0-1.72-.01.63,0,1.2,0,1.72Z"/>
      <path class="cls-1" d="m23.48,652.38c-.05-3.76-.15-7.51-.12-11.3.21,1.52.41-3.93.62-1.54,0-.86.11-4.91-.1-3.82l-.11,2.31c-.49-6.02-1.03-2.42-1.01-12.39-.91,6.14-.65,8.88-.44,12.15-.02,1.11-.03,2.03-.04,2.97.2,3.16.47,6.31.75,9.44l.45,2.17Z"/>
      <path class="cls-1" d="m51.29,197.06l.05.13c-.01-.12-.03-.14-.05-.13Z"/>
      <path class="cls-1" d="m51.56,197.72l-.22-.53c.08.63-.01,3.04.22.53Z"/>
      <path class="cls-1" d="m16.29,548.62c-.16-.15-.35-.81-.56-1.86l.51,3.8c.01-.54.03-1.25.05-1.93Z"/>
      <path class="cls-1" d="m18.12,557.31v4.81s-.11,4.81-.11,4.81l.31,3.56c-.04-3.69.03-8.01-.21-13.19Z"/>
      <path class="cls-1" d="m2.57,445.82c-.59-20.44,1.1,4.98,1.13-4.41-.22-5.65-.8-7.65-.93-11.18.66,16.2-1.62-2.2-1.03,14.19-.45-1.15-.75-4.1-.92-7.47-.09-1.68-.14-3.47-.16-5.18.01-1.71.12-3.35.2-4.74.48-3.14.6-1.76.69.58.05,1.17.08,2.58.17,3.78.13,1.21.29,2.21.5,2.57-.18-3.29-.12-4.63-.24-5.51-.09-.88-.23-1.29-.43-2.69.11-2.58.13-5.2.13-7.78,0-.65,0-1.29,0-1.93.02-.64.04-1.27.06-1.9.04-1.26.09-2.49.13-3.69.09-2.4.2-4.68.39-6.73.09-1.02.2-1.99.34-2.89.16-.9.36-1.72.58-2.47.58-7.41.14-6.96.16-11.27-.78-.95-1.6,10.97-2.56,13.66.12-.57.39-1.66.48-1.33-.29,2.13-.43,4.29-.65,6.43.71-6.1.82.92.67,4.19-.14,2.38-.42,7.1-.59,6.45-.03-1.21.02-2.41.03-3.61-.13,1.16-.24,2.37-.24,3.63,0,1.26.05,2.56.09,3.86.07,2.61.12,5.24-.18,7.69-.2.26-.25-1.61-.37-1.89.35,5.52.61,10.85,1.17,19l-.97-4.71c.28,1.63.49,3.78.65,6.24.25,2.47.41,5.27.65,8.16.42,5.76.88,11.98,1.26,17.08,0-1.13-.13-3.16.18-1.97.91,5.89.93,10.4.12,7.74,1.44,5.69,2.46,21.83,4.38,29.32,3.01,11.54,5.74,22.96,7.53,34.68-.16-1.32-.3-2.73-.4-4.18.33-1.62.41-2.86.56-3,.15-.14.4.82.85,3.62-.29-2.76-.63-3.6-.91-4.78-.29-1.18-.52-2.71-.9-6.85.64,3.21,1.63,3.98.98-4-1.37-9.92-3.26-18.08-5.17-26.11-1.91-8.02-3.9-15.9-5.6-25.33.25-.38-.12-4.3-.54-9.05-.45-4.75-.84-10.38-.97-14.07.78,2.78,1.29,8.22,2,13.81-.33-3.51-.79-9.6-.99-14.14-.45-.6-.89-1.19-1.31-1.79Z"/>
      <path class="cls-1" d="m9.65,492.8c-.02-.51-.06-1.03-.11-1.56,0,.29.02.76.11,1.56Z"/>
      <path class="cls-1" d="m5.02,463.46c.03.07.04.04.07.06-.07-.59-.14-1.17-.22-1.77.05.6.11,1.28.15,1.71Z"/>
      <path class="cls-1" d="m17.55,543.91c.22,1.18.25,2.07.44,3.25-.05-.73-.12-1.65-.18-2.54-.11-.84-.21-1.24-.26-.72Z"/>
      <path class="cls-1" d="m16.58,547.93l-.25-.63c-.02.51-.03.87-.04,1.32.13.14.24-.01.29-.69Z"/>
      <path class="cls-1" d="m12.86,369.09l.18-1.92c-.18,1.14-.21,1.65-.18,1.92Z"/>
      <path class="cls-1" d="m3.44,423.08c-.06,3.54.16,3.75.36,4.33.1.29.19.67.25,1.61.05.93.05,2.42.13,4.92,0-.98-.02-1.96,0-2.94.24,3.59.42,8.53.53,13.64.01.64.03,1.28.04,1.92l.11,1.93c.07,1.28.14,2.56.21,3.8.2,2.48.35,4.87.57,6.99-.44-.93.07,5.18-.56,4.24.74,5.77,1.57,11.46,2.52,14.33.28,3.58,1.52,8.87,1.92,13.38.06-1.94,2,6.22.06-4.62.17.87.16.31.33,1.17-.53-7.09-1.69-9.81-2.45-15.92-.13-3.68,1.25,5.9.96,2.44-.62-3.79-1.26-9.78-1.71-14.78-.48-4.99-.86-8.98-1.44-8.69-.45-5.63-.09-6.41.07-8.1-.37-2.21-.57-5.38-.68-8.9-.02-.88-.06-1.78-.06-2.69.03-.91.05-1.83.08-2.75.07-1.84.13-3.69.2-5.48.16-7.13.75-13.09-.11-13.11-.08,1.62-.2,3.75-.32,6.07-.03,2.33,0,4.85.12,7.23l-1.14-.05Z"/>
      <path class="cls-1" d="m16.94,532.33c-.02-.42-.05-.99-.07-1.34.02.4.05.89.07,1.34Z"/>
      <path class="cls-1" d="m9.09,619.33l-.87-2.99c.98-16.56,1.82-22.48,2.62-36.8.2-1.08.22.65.2,1.54.12-2.51.25-5.34.38-8.28.14-2.94.22-5.97.32-8.93.12-5.9.11-11.45-.21-15.06.06-3.17.02-11.44.47-8.33-.16-1.53-.3-3.28-.36-5.05.39-.49.27,3.94.6,4.03-.03-1.4.03-1.95-.11-2.27.41,2.35,1.25-2.53,1.59,8.53-.45,2.15-.45.23-.56-1.9-.12-2.13-.26-4.47-.71-3.2.13,3.65.5,3.22.64,3.52.06,4.67-.22,4.56-.45,4.31.16.89.15,2.81.16,4.81-.02,2.01-.06,4.1.17,5.34-.07,9.12-.72-.52-.85,5.44l.9,3.47c-.16,3.31-.4,6.62-.63,9.94-.2,7.22.21,6.74.71,6.51.47-.23.99-.21.72,8.09-.39-2.21-1.71,4.36-2.52,12.07.31-4.63.3-13.2.95-19.11-.66,4.16-.5,1.28-.33-2.11.19-3.39.29-7.25-.26-5.12.22,4.14-.16,11.04-.78,16.41l.03-1.77c-.51,5.72.22,10.14-.79,18.05-.27,3.95-.5,3.19-.68,2.48-.11,3.35-.12,6.37-.35,6.36Zm.44-8.63l.5-5.27c-.26,1.24-.41,3.2-.5,5.27Z"/>
      <path class="cls-1" d="m15.35,1279.37c-.03.52-.07,1.12-.1,1.6.05-.35.07-.95.1-1.6Z"/>
      <path class="cls-1" d="m42.25,810.65l.35,3.07c-.11-1.2-.23-2.18-.35-3.07Z"/>
      <path class="cls-1" d="m51.34,879.57c.14,1.51.29,3.01.39,4.52-.05-1.79-.21-3.19-.39-4.52Z"/>
      <path class="cls-1" d="m16.71,1243.02l.02-.15c0-.25-.01-.44-.02-.71v.85Z"/>
      <path class="cls-1" d="m42.21,1018.27c-.16.67-.32,1.43-.49,2.46.11-.11.29-1.04.49-2.46Z"/>
      <path class="cls-1" d="m51.26,878.74c0,.12,0,.18,0,.27.03.18.06.37.09.56l-.08-.83Z"/>
      <path class="cls-1" d="m40.59,779.97c-.15-.65-.28-1.24-.44-1.94.18.92.32,1.48.44,1.94Z"/>
      <path class="cls-1" d="m38.49,784.75c-.15-.7-.3-1.36-.43-1.88l.43,1.88Z"/>
      <path class="cls-1" d="m21.65,680.91c-.15-1.3-.23-2.65-.32-3.99.07,1.98.18,3.15.32,3.99Z"/>
      <path class="cls-1" d="m37.25,773.79c-.09-.23-.17-.46-.25-.61.13.56.24.82.25.61Z"/>
      <path class="cls-1" d="m12.41,1305.5c0-.09,0-.19,0-.25l-.12-.1.13.35Z"/>
      <path class="cls-1" d="m14.2,1315.46c.07,1.18.14,2.4.21,3.6-.04-1.34-.12-2.64-.21-3.6Z"/>
      <path class="cls-1" d="m33.56,1077.72c-.28,1.07-.77,3.59-.79,2.38-.05,2.1.48,2.03.79-2.38Z"/>
      <path class="cls-1" d="m5.91,1285.38c.13.66.24,1.49.34,2.31-.14-1.54-.26-2.89-.34-2.31Z"/>
      <path class="cls-1" d="m6.25,1287.69c.07.76.15,1.57.22,2.25-.06-.79-.14-1.55-.22-2.25Z"/>
      <path class="cls-1" d="m28.55,1049.1c.1-.26.21-.67.29-1.24-.16.15-.24.6-.29,1.24Z"/>
      <path class="cls-1" d="m14.37,1321.98c.28.64,1.69,16.26,1.07,3.09.39.23.6,2.34.76,4.82.15,2.48.26,5.34.52,7.08-.03-2.55.58,1.23.79.44-.24-1.73-.62-3.77-.71-6.65.29-1.34.7,3,.88,6.4.06-4.2,1.02,5.25.85-.68-.36-3.15-.51-6.08-.77-8.83-.25-2.75-.49-5.33-.72-7.79-.4-4.93-.94-9.39-1.59-13.85.39,7.24.86,15.33.96,21.27l-.79-2.46c.07-3.37.02-6.08-.1-8.79-.12-2.7-.31-5.39-.39-8.69.07,4.95.09,9.9.2,14.86-.13,6.97-.58,2.34-.93-3.15.03,1.35.05,2.57-.04,2.92Z"/>
      <path class="cls-1" d="m8.28,1312.14v.25c.02.22.05.49.08.63l-.08-.88Z"/>
      <path class="cls-1" d="m8.51,682.46l-.33-1.31c.18,1.1.28,1.44.33,1.31Z"/>
      <path class="cls-1" d="m11.21,1303.13h0c0-.09,0-.11,0,0Z"/>
      <path class="cls-1" d="m12.82,714.87s-.05-.08-.09-.16c.04.11.06.11.09.16Z"/>
      <path class="cls-1" d="m28.29,720.51c.02-.06.04-.09.04-.23-.17-.65-.14-.33-.04.23Z"/>
      <path class="cls-1" d="m12.89,714.89s-.03.03-.06-.01c.03.02.06.07.06.01Z"/>
      <path class="cls-1" d="m38.67,867.32s.08-.49.15-1.27c-.08-.29-.13,0-.15,1.27Z"/>
      <path class="cls-1" d="m37.37,836.8c0-.2.01-.31.02-.56l-.02.56Z"/>
      <path class="cls-1" d="m37.37,1070.88c.2-1.51.32-2.64.41-3.6-.15,1.1-.29,2.29-.41,3.6Z"/>
      <path class="cls-1" d="m12.74,714.71c-.13-.31-.28-.75-.51-1.48.25.81.4,1.23.51,1.48Z"/>
      <path class="cls-1" d="m42.97,913.87c-.02-.33-.04-.63-.06-.94l-.04.56.1.38Z"/>
      <path class="cls-1" d="m42.17,929.84c-.06-.55-.13-.8-.19-1.11.1,5.71-.65,16.17-.07,17.44.15-1.93.93-11.95,1.28-10.23.03-3.98.64-9.86.58-12.01-.55,6.53-.6.69-.73-3.72.28-4.01.56.77.73-2.69v-9.29s-.16,8.09-.16,8.09l-.65-2.47c.02.3.03.5.06.83.11,6.84-.22,7.13-.44,7.45-.24.33-.46.69-.42,7.7Z"/>
      <path class="cls-1" d="m41.98,928.73c-.02-.86-.05-1.61-.11-2.19-.02,1.29.03,1.79.11,2.19Z"/>
      <path class="cls-1" d="m37.32,984.37c-.03.7-.07,1.46-.12,2.42.02-.46.07-1.51.12-2.42Z"/>
      <path class="cls-1" d="m17.89,577.34c-.11.11-.35,2.15-.53,4.15-.19,1.99-.28,3.95-.02,3.89.2-2.36.41-4.73.58-7.11l-.03-.93Z"/>
      <path class="cls-1" d="m22.73,1135.96c.12-.88.23-1.76.33-2.65,0-.19-.01-.38-.02-.52-.14.53-.26,2.29-.31,3.17Z"/>
      <path class="cls-1" d="m43.33,938.43c-.02-1.46-.07-2.12-.14-2.47,0,.95.03,1.82.14,2.47Z"/>
      <path class="cls-1" d="m21.46,1136.31c-.28,1.11-.7,2.74-.92,2.95-.27,2.3-.19,3.95-.37,6.3.23-2.65.63-5.7,1.29-9.25Z"/>
      <path class="cls-1" d="m20.15,1145.75c0-.07,0-.13.01-.19,0,.07,0,.12-.01.19Z"/>
      <path class="cls-1" d="m18.35,572.62c0-.69-.01-1.39-.02-2.12l.1,1.11c.12-1.83.23-3.65.35-5.47,0-.66-.02-1.38,0-2.26,0,.35.05.63.1.8.04-.59.08-1.17.12-1.75-.23-2.19-.4-5.99-.56-9.63-.24-3.64-.45-7.12-.62-8.68-.4-4.11-.66-9.14-.87-12.29.21,2.92.44,6.8.69,5.62.03-5.95.76-8.94-1.05-19.12l.61,6.01c-.81-4.47-1.67-8.93-2.61-13.37-.06-2.39.29-.73.74,1.77.42,2.49.94,5.81,1.23,6.73-1.68-10.43-1.47-19.35-3.12-24.09.48-.77,1.29-2.05.26-8.94.04,5.06-1.01-4.07-1.14.1-.67-2.34-.86-7.73-1.34-8.07l.33.61c-.63-11.92-2.45-15.63-3.41-20.69-.74-7.13-1.03-12.38-1.02-17.28-.03-2.45-.06-4.82-.09-7.3,0-1.24-.08-2.52-.03-3.84.03-1.33.05-2.71.08-4.17.4-.46,1.56-3.61,1.63-8.27-.29-1.1-.25-4.28-.26-7.33-.01-3.05-.05-5.97-.35-6.53-.84,8.34.12,6.88-.05,11.88-.83,4.14-.72.34-1.29,6.04.1-1.15.15-3.03.2-5.27.09-2.24.26-4.85.4-7.48.15-2.62.32-5.26.51-7.55.23-2.29.55-4.22.83-5.46l-.09,1.78c1.26-7.96,2.92-9.29,3.77-22.64.15-2.12.28-4.25.51-6.37.02.31.09.36.12.53.88-5.14,1.39-6.98,1.84-8.96.23-.99.44-2.02.67-3.52.24-1.49.56-3.45.93-6.3-.12.88.06.35-.06,1.24.79-3.19,1.29-6.44,1.7-9.51.43-3.07.8-5.94,1.21-8.39,1.16-2.85.4.82.43,2.73,1.25-5.63,2.26-11.53,3.15-16.91.85-5.39,1.49-10.26,1.95-13.83l1.95-7.18c-.74,4.35-1.33,9.73-.7,8.5.78-4.01.35-3.3,1.72-8.91.14,1.04-.06,3.48-.21,6.23,3.21-11.52-.68-2.89,2.25-10.79.84-3.66.8-5.9.47-6.4l2.06-6.5c-.38-.86,1.44-9.05,2.55-14.44-.08-.71-1.54,4.19-1.79,6.27-.34-.5.75-6.25,1.55-9.92.71-.55,2.01-6.57,3.1-11.88,1.08-5.32,2.03-9.91,2.26-7.6.79-4.15,1.57-8.73,2.37-13.44.4-2.35.81-4.73,1.22-7.11.36-2.38.72-4.76,1.07-7.09.35-2.33.69-4.62,1.02-6.82.3-2.2.5-4.32.73-6.32.33-4.01.56-7.55.55-10.32.13-.91.26-2.05.38-3.19.09-1.14.18-2.27.24-3.15.16-1.76.31-2.51.54-.26.19-6.78-.29-11.92-.71-17.02-.51-5.11-1.01-10.18-1.45-16.9.02-.56.16.95.33,2.54.17,1.59.34,3.26.52,3.01-1.14-8.73-.89-16.01-2.88-29.55.3,2.28.63,2.92.78,3.22-.16.26-1.08-5.51-1.74-9-.16-1.99.48,2.61.48,1.48-1.43-13.15-3.35-24.65-5.13-36.16-1.78-11.51-3.48-23.07-4.11-36.32.37,7.57,1.43,10.34,1.74,10.39-.21-2.45-.35-4.91-.49-7.37-.57-2.82-.79-8.37-1.09-13.02.14-.57.27-2.83.48-.53.41-7.31.39-13,.68-19.18.12-1.54.24-3.11.37-4.73.15-1.63.44-3.3.7-5.07.12-.89.31-1.78.53-2.7.22-.92.44-1.87.67-2.84.21-.98.56-1.96.89-2.98.35-1.01.7-2.06,1.07-3.14-2.02,7.14-3.01,14.42-3.34,21.65l1.29-5.22-.32,4.74c-.11,1.58-.09,3.16-.13,4.74.24-1.39.39-2.75.49-4,.15-1.25.25-2.41.34-3.41.13-2.02.33-3.4.68-3.68-.11,1.19-.55,4.02-.24,4.15.45-2.66.74-4.07.88-5.35.16-1.28.2-2.41.68-4.38-.74,5.31-1.7,13.12-1.94,21.07-.29,7.95-.01,16,.39,21.62.18,1.77-.36-1.5-.48-1.81.25,4.6.04,7.39.72,13.17.8,3.55.14-2.77-.01-5.63.45.36.55,1.8.86,4.96-.28.37.05,4.73.48,9.52.44,4.79.98,10,.88,12.09,2.36,16.94,1.12-2.9,3.05,13.68v5.04c1.83,9.54,4.03,21.94,5.14,32.92l-.29-2.31c-.47-1.5-.34,1.06-.36,2.2.7,8.3,2.18,15.7,1.89,20.8.71,4.72,1.43,11.06,1.83,17.61.39,6.55.57,13.32.38,18.85-.26.73-.39.19-.44-1.09-.02-.64-.03-1.47-.02-2.42-.01-.95-.02-2.02-.04-3.16,0-1.13-.01-2.32-.02-3.51-.02-1.18-.07-2.36-.11-3.46-.09-2.21-.18-4.14-.37-5.27.07,1.66.05,3.32.06,4.98,0,1.66.04,3.32-.02,4.98.05-6.16-.33-8.59-.96-12.25.06,8.69.81,11.55.68,19.85-.2-.66-.41.44-.64,4.26l.49,1.13c-.05.07-.14.49-.28,1.66l-.25,3.69-.39,3.69c-.23,2.48-.58,4.89-.93,7.3.74-3.04,1.34-3.06,1.83-6.89-.26.66-.3.18-.21-.95.08-1.12.34-2.89.49-4.8.07,3.39.67-3.7.97-3.6-.18,1.92-.37,3.96-.57,6.01-.26,2.05-.51,4.11-.76,6.08-.6,3.86-1.13,7.4-1.46,9.87l-.8,1.51c-.64,3.56-1.3,7.22-1.9,10.59-.6,3.37-1.13,6.47-1.69,8.85l.02-1.57c-1.88,8.46-3.25,16.88-5.43,24.27-1.01,7.68-2.69,17.25-3.43,23.54-.07,3.44-5.87,21.84-6.74,30.5-.21.55.75-5.92,1.16-8.87-1.38,5.6-1.48,10.26-2.59,11.87,2.98-12.58-.72.55.31-5.18-1.26,5.92-2.51,12.18-2.84,15.14,2.02-9.58.24,3.61,2.02-6.15-.53,3.82-1.22,8.3-2.05,12.94-.41,2.32-.88,4.68-1.34,7.02-.44,2.34-.9,4.66-1.37,6.89-.29-.15-.65.93-1.4,4.25l-.05,2.78c-.84,4.18.96-8.21-.76.21-.16,2.21-.54,4.95-1,7.88-.43,2.93-1.07,6.05-1.44,9.03-.82,5.96-1.53,11.32-1.02,13.31-.6,3.3-.5.11-.26-2.65.21-2.76.35-5.11-.68-.14.29-5.91,1.91-13.9,1.59-15.92-.37,2.87-.59,3.37-.8,3.62-.21.24-.42.23-.68,2.08l-.43,6.46.22-1.41c-.1,1.35-.22,2.8-.37,4.33-.16,1.53-.33,3.13-.45,4.8-.28,3.33-.62,6.9-.99,10.56-.21,1.83-.32,3.69-.44,5.55-.13,1.86-.25,3.73-.37,5.58-.12,1.85-.24,3.69-.36,5.49-.06,1.81-.08,3.58-.11,5.3.11,2.92.25,5.61.39,8.22.04,1.3.18,2.59.31,3.87.12,1.28.24,2.56.36,3.85.23,2.59.44,5.25.6,8.13.22,2.87.46,5.96.73,9.41-.36-2.03-.27.85-.2,3.17.07,2.31.05,4.06-.76-.28.19,6.47,1.46,12.8,1.78,12.88-.58-5.68-.14-2.01-.52-6.79.71,3.17,1.61,10.59,1.78,13.68-.16-1.42-.16-.87-.32-1.17.65,6.81.82,3.2,1.64,8.08-.32,1.63,1.4,10.87,1.74,15.43l1.64,6.46c-.97-3.55.64,6.33.27,7.44.9,4.7,1.97,8.63,2.4,15.95-.47-3.01.09,6.71-.49,6.86.08,12.5,1.83,20.72.69,32.5-.11-.37-.36-2.76-.61.68.07,2.72-.28,7.44-.35,10.34v-.09c0,.06,0,.09,0,.15-.04,1.42-.05,2.31.08,2.35.19,4.97.56,7.55.27,17.27.63-.67,1.02-8.86,1.04-12.44l-.38-3.11c1.09-2.88.32-8.8.74-11.03.37,2.95.29,8.65.02,14.85-.26,6.2-.66,12.9-.73,17.93,1.28-6.03,2.43-19.36,2.89-31.13l-.61,5.15.3-6.14-.92,5.91c.2-2.9.33-5.61.43-8.26.07-2.65.13-5.23.24-7.87-.2,6.18-1.09,8.55-.84,5.06.83-6.86-.15-7.18-.04-12.45-.1,2.93-.16,6.75-.46,4.28.21-2.59.35-4.71.44-6.59.07-1.87.07-3.5.1-5.1.03-1.6.06-3.17.09-4.93,0-1.77.05-3.73.14-6.12-.48.61-.56-2.36-.81-5.66-.18-3.31-.52-6.9-.96-7.58l.29,4.4c-.45-3.09-.9-6.17-1.43-9.23-.11-8.62,1.63,7.47.77-5.57-.65-5.98-1.28-8.84-1.87-11.37-.59-2.54-1.18-4.74-1.87-9.36,1,2.96,2.55,10.24,3.45,17.81l-.3-4.61c.66,2.36,1.86,12.87,2.25,18.18-1.48-8.67.25,4.09-.12,8.15.61.7.16-4.95,1.03,1.7-.44-6.24-.5-7.15-1.07-15.09.74,8.52,1.42,12.39,2.08,15.97.3,1.79.59,3.52.81,5.74.25,2.23.32,4.94.23,8.7-.32-6.92-.78,2.42-1.05,3.25.03,3.24.08,9.8.1,12.51l.89-2.42c.06,8.7-1.77,11.63-1.53,21.6.2.66.38-1.52.51-3.64.1-2.13.15-4.2.15-3.3-.26,13.64-1.96,18.41-3.46,30.29.19.69.71.59.82,4.78-.38-1.34-.87,1.72-.86-2.99-.51,3.96-.51,8.7-.57,12.2.89-8.23.45,3.43.63,4.96-.36,4.25-.41-1.33-.34-3.97-.39,3.42-1.36,7.43-.76,9.42-.26.05-.44-2.36-.52-5.58-.06-3.23,0-7.27.16-10.46l-.4,4.29c-.05-2.97.07-3.52.47-7.79-.71,4.15-1.12,3.71-1.41,2.7.12-.54.1.31.21-.2.39-3.43.45-6.08.12-5.3-.45-3.15-.79,4.74-1.31,7.04-.08,1.76-.16,3.52-.24,5.25l.49,8.98c.16,2.99.36,5.97.58,8.94-.1,3.79-.25,6.52-.49,9.02-.13,1.25-.26,2.44-.39,3.67-.11,1.23-.22,2.5-.34,3.91l.56,1.56c-.13,3.28-.13,6.44-.28,8.28-.14,1.83-.37,2.33-.75.24.2-.24.14-1.1.17-2.52-.08-.19-.14-.51-.19-.93-.04-.14-.07-.21-.1-.32.13,3.5.17,6.35.31,8.36.13,2.01.21,3.2.22,3.4-1.21-11.84-1.1-.57-2.2-2.52l.37,6.02c.15,2,.34,3.96.54,5.94-.13-7.22.44-.17.87,2.37-.6.76,1.04,9.56,1.65,13.73l-.17-.29c.35,3.89,1.64,10.65,2.74,15.44.14-.25,2.32,5.73,3.53,8.57-1.5-8.29-.25-3.45-.03-4.18.14.86.46,2.39.57,2.56.41,1.14-.11-1.65.03-1.92-2.11-8.7-3.74-17.63-5.05-21.06.04,2.74,1.06,4.51,1.35,7.55-1.32-4.23-2.13-9.84-2.93-17.08.07-.81.14-1.62.24-2.42l-.46-3.61-.37-3.61c.48,3.01.76,1.15,1.6,8.72.16-.51-.02-2.38-.31-4.72-.15-1.17-.24-2.44-.36-3.72-.12-1.27-.18-2.56-.17-3.75l-.73-2.39c.38.92.15-9.2.86-2.03l.46,5.82c.18,1.92.4,3.8.63,5.7.06-1.07.16-2.13.23-3.19.12,1.6.24,3.2.43,4.8.16,1.6.33,3.21.56,4.82l-.6-2.25c.54,3.88.8,6.11.92,7.53.11,1.42.03,2.02-.02,2.62-.07,1.21-.23,2.43,1.56,10.27,1.69,4.81,2.81,10.1,4.73,19.91-1.69-7.03-.7-.61-1.72-3.17,1.22,7.28,2.42,9.6,3.55,13.29,0,1.95-.04,3.32-1.41-3.17-1.04-.63,2.03,8.5,1.28,9.29,2.37,10.79,3.96,15.06,5.45,19.79,1.51,4.73,2.99,9.97,4.53,22.91l-.51-.91c3.07,16.25,3.85,25.78,5.79,40.97.15,4.03.2,8.06.25,12.08-.38-2.67-1.74-9.81-1.86-6.4.3-5.91-.62-12.06-.94-18.37-.32-.61-.18,1.96-.19,3.09-.47-3.77-.26-5.73-1.08-10.69-.13.26.3,5.73-.32,1.65l-.37-6.85c-1.55-9.02-1.98-4.26-3.38-14.9.81,1.89,2.2,5.8,2.94,9.9-.58-4.88,1.22,6.44.9,1.96-.85-3.45-1.34-6.03-1.79-8.91-.46-2.88-.9-6.06-1.97-10.65.29,1.07.49,1.33.94,3.61-.69-4.5-1.32-9.01-2.07-13.51.2,3.4-2.61-10.99-3.02-9.61,2.46,14.33,2.13,10.05,4.54,26.45-.88-4.61-2.64-10.44-3.72-13.11,0-.15-.02-.38-.1-.89-1.12-2.36-.8.2-1.94.36,1.05,3.63,1.63,6.73,2.19,9.99.57,3.26,1.02,6.71,1.96,11.06.88,1.56-.01-5.22-.87-9.56l1.63,7.67-.52-1.48c1,6.55,1.82,13.13,2.64,19.71-.51-3.73-1.08-4.95-1.62-6.85.32,2.54.55,5.07.68,7.78.52-.64.99-.34,1.28,2.15.35,3.18.66,6,.87,8.54.19,2.53.33,4.77.42,6.75.21,3.96.17,6.94.03,9.31.06.49.12,1.04.18,1.48.21-1.09.69,1.14,1.24,4.14.56,3,1.07,6.77,1.55,8.72-.64-.15.12,6.6-.03,10.3.84,1.92,1.69-.75,2.02-5.29-1.3-8.6-1.03-4.8-2.27-8.81-.52-4.6-1.22-9.18-1.83-13.77l.86,3.04c-.1-1.73-.24-3.44-.42-5.02-.21-1.58-.4-3.03-.56-4.25-.33-2.45-.49-3.97-.09-3.76.89,3.59,1.25,9.63,2.04,13.21l-.14-4.6c1.45,8-.3,4.2,1.03,13.92.37-3.65.11.88.85,5.04.08-1.7-.23-6.01-.53-9.52-.28-3.52-.42-6.26.26-4.84.97,5.05.18,17.21,1.62,23.88l-.14-.32c.47,9.95,1.14,13.43,1.71,17.14-.14,4.25.42,10.1.59,14.7l-.32-.11c.09,2.16.13,4.33.2,6.49-.3-1.54-.31-3.44-.27-5.66.01-2.21.08-4.74-.03-7.52l-.57.71c.58-6.44-.73-10.69-1.42-15.64.38,3.61.62,8.72.75,13.13.15,4.42.37,8.14.96,8.98l-.55,4.49.23,2.14c-.42,3.34-1.14-.06-1.34-6.53.12-1.12.18-1.69.31-1.35-.35-3-.82-5.74-.94-13,.16,1.29.32,2.57.45,3.86-.12-4.52-.37-8.83-.63-12.39-.29-3.56-.68-6.37-1.05-7.9.29,6.51.44,12.98.66,19.34.12,6.36.29,12.63.31,18.75.68,1.8,1.22,3.78,1.73,5.53.49,1.76.98,3.3,1.59,4.22.09,4.13.15,8.99.01,13.72-.06,2.36-.12,4.69-.23,6.88-.14,2.18-.3,4.22-.48,6.01l-.22-.67c-.28,3.49-.32,6.71-.36,9.4-.54,3.67-.51-2.56-.83,0-.11,3.93-.15,7.88-.31,11.8-.47-.75.1-10.67.32-15.37.01.89-.01,2.69.1,2.12.51-5.47-.03-15.71.8-18.09-.07-2.68.46,5.45.73-3.6.48-6.06-.3-8.04-.52-8.68-.16-.05-.29,2.32-.42,4.29-.17,1.97-.33,3.53-.48,1.86-.09,4.71.32,6.6-.21,12.61.15-4.67-.38-11.02.19-13.5-.48-9.24-2-7.92-2.11-3.58.56-1.03.19,16.81,1.11,4.74.23,2.72.29,6.56.3,10.62-.05,4.05-.13,8.31-.09,11.87l-.1-.33-.36,8.82c-.09-1.25-.08-3.92-.39-4.03.04,4.08.11,8.18.07,12.24-.07-6.88-.7,4.21-1.18,7.31.4,1.34.37,6.11,1.01,1.58.72-5.1-.04-3,.26-7.66l.28,6.66-.12.56.31,4.02c-.8,8.97-1.12-4.04-1.47,7.51l.98-1.42c-1.24,13.31-3.9,30.27-4.55,39.67-.2-2.64-.85-3.86-1.7-.36.6-4.02,1.39-12.14,1.9-17.94.26-1.1.28,7.34-.56,13.62,1.72-2.91.78-15.93,2.25-16.53,2-16.03-.23-12.11,1.74-25.7-.6-.24,0-3.91-.51-4.67-1.31,3.97-1.44,18.26-2.66,27.07.03-.87.1-2.62.02-2.97-.76,6.31-.89,8.93-1.11,13.36l.13-.55c-.17,7.77-.95,4.72-1.7,9.23-.1,1.77-.96,8.04-.39,7.08l-1.5,8.13.75-.32c-.49,4.63-1.07,5.59-1.12,9.82l.61.27,1.53-11.46c-.46,5.84.42,1.69-.18,8.1.13-7.22-.93,5.01-1.59,5.65l-.2,4.74-.02-1.22c-.76,3.65-.29,4.42-.88,8.71.95-5.04,1.8-8.3,2.1-14.83-.18,4.76-.92,14.14-1.16,16.44-.33,4.97-1.24,8.36-1.87,12.98.83-8.9-2.27,2.87.33-14.85.08.34-.12,1.78-.26,2.33,1.08-2.27,1.22-10.67,1.37-14.56-.58.94-.21-3.11-1.28,3.7.56-2.21.35,5.88-.81,12.34l-.85-1.26-1.27,9.45.06-.89c-1.07,3.48-1.12,10.11-2.3,16.57-.23,4.75-2.77,22.73-.76,15.11-1.35,5.76-1.2,10.99-1.86,17.37l1.39-7.89c-.46,9.48-.58,6.72-.38,14.36-.36.73-.79,2.37-.89.81-1.62,12.6-4.02,30.57-4.02,38.06-1.03,8.88-2.36,10.15-3.19,22.67-.12,2.64,1.11-1.95.03,6.27-.13.55.03-8.02-.78,1.18.11,6.62-1.86,15.35-1.92,23.93-.62,4.48-1.12,12.3-1.6,10.63.34-3.56.68-7.87.9-11.48.26-3.61.41-6.53.33-7.31.28,1.02.8-5.04.62.24,1.39-10.73.25-7.03,1.48-16.66-.18-.69-1.15,4.91-1.13,7-.84-.03,1.45-19.11-.38-10.61-1.07,10.34.34,13.56-1.29,22.44-.18-3.64.7-9.22.3-13.86-.35,2.44-.7,4.89-1.01,7.34l.13,5.4-.09-.33c-.96,6.47-.95,9.5-.82,12.37.16,2.87.4,5.57.24,11.4,1.01-6.7,1.33,1.66,2.01-3.39-.4,7.78-.88,13.48-1.71,13.48.28-14.59-.83-.87-.76-14.4-.45,2.19-1-3.3-1.62,4.73,0,9.09.86-2.66.55,6.38-.11.53-.22,1.08-.32.75.15,4.17-.43,4.84-.23,9.89l-.1-1.2c-.82,6.17.19,6.8-.54,12.11.69-2.11.37,3.6.63,6.92.46-5.39,1.35-8.28,1.89-18.92-.42-1.31-.73-.55-.73-4.94l-.3,6.93c0-1.5-.07-2.64-.09-4.02.2-2.21.39-4.43.63-6.64-.16,8.45.61,4.62.91,8.22-.6,7.7-.23,6.37-.56,11.21-.35-.26-.79,3.45-1.25,8.33-.45,4.88-.77,10.94-1.11,15.38.04-1.38.09-3.16.12-4.12-.31-6.47-.69,4.43-.89,4.67l.33,4.71c-.05-.89-.21-2.11-.32-.11.13,6.38.75,6.01.98,12.36-.38.48-1.06-4.89-1.21-.93-.3,1.36-1.23,5.73-.64,14.19.17.6.33,2.78.49,5.32-.03-.35-.06-.8-.1-.95l-.23,5.64c-.82-4.76-.06-9.69-.83-14.49l-.64-.4c-.06-3.75-.41-8.85-.77-11.19-.03,5.73.16,6.93.38,13.33-.39.91-.75-3.6-.81-4.25l.38.95c.21-3.83.01-6.68-.23-9.77-.21-3.09-.44-6.42-.36-11.18.03-1.44.08-.56.19-.24-.32-3.86-.11-7.67-.02-11.46.06-1.89.1-3.78.11-5.67.03-1.88,0-3.76-.14-5.64l.24,2.45c-.05-2.56-.13-6.33-.22-10.72-.04-4.39-.08-9.39-.12-14.39l-.24-.1c-.22,1.1.03-2.64.26-4.64h0c.02-5,.05-9.83.17-13.76-.25,1.24-.5,2.84-.68,4.68.17,1.58-.65,10.73.09,9.51-.71,4.21-.47,11.06-.88,14.16.72-5.64.42,3.98.73,4.98-.49,1.89-.28,8.4-.82,7.63-.19,1.11.48-2.77.23-5.19-.3-5.96-.87,10.86-1.09,3.44.01,2.36-.02,4.9-.07,7.54-.02,2.64-.05,5.38-.07,8.13-.09,5.5,0,11.03.24,15.89l.25-5.44c-.05,2.16-.06,5.79-.08,8.98.02,3.19.03,5.94-.1,6.32-.04-1.6-.09-3.34-.14-5.2-.03-1.85-.06-3.82-.09-5.87-.32-.1-.33,2.37-.31,4.92.06,2.55.16,5.18-.03,5.41.43,3.97.76,7.94,1.29,11.9-.05-1.74-.11-3.48-.11-5.22.19,1.64.32,5.19.38,9.34.03,2.08.06,4.3.09,6.52.09,2.21.17,4.41.25,6.43-.54-2.29-.79-5.34-.84-8.88-.06-3.54-.09-7.56-.4-11.81-.42-6.18-.78,3.84-1.07-2.01-.21,1.52-.04,5.35.24,7.23l-.08,2.32c-1.02-5.21-1.07-16.95-1.72-24.77.08.69.17,1.28.26,1.5.33-6.02.31-12.13.28-17.99-.32,3.1-.17,4.33-.12,6.1-.2.22-.16-5.32-.33-7.42-.35,5.45-.49,1.01-.69,4.46-.11-3.56,0-6.44.19-10.77.37-2.24.35,1.87.76,1.42-.1-4.47.93-6.47.72-13-.47,8.67-.81-2.32-.86-5.32l-.1,1.45c-.31-2.77-.21-5.11.31-6.99,0,3.56-.31,6.99.21,6,.1-2.34.2-4.68.2-7.34l.21,2.43c.16-3.88.34-7.77.58-11.64-.29-1.87-.67-4.98-1.16-6.64.53-2.77.56-6.67.61-9.33l.08,1.24c.71-5.11,1.41-16.53,1.14-17.52.63-3.62.07,26.05,1.97.17.86-9.82-.59-6.22-.47-11.87,0,0,.09.33.22-.22.5-4.29.09-4.76.27-8.31-.44,2.56-.8,6.29-.75,7.51-.37-1.34.91-8.95.89-12.27.3,4.35,1.15-8.27,1.18-4.91,1.39-8.48,1.81-17.66,1.8-22.19,1.6-5.67,1.05-10.15,2.61-19.47-.2,1.44-.38,4.07-.72,6.07-.05,5.41,1.48-9.67,1.03-1.39.12-1.77-.3-.16-.42,1.65-.32,3.16-.4,6.16-.04,5.4l1.43-7.57-.18,2.68,2.12-11.49c-.08-.33-.36.74-.5,1.29,1.96-13.39,3.47-28.78,5.04-40.51-1.38-2.42,2.89-29.01,2.97-38.62.18,2.6.85,4.09,1.39,2.56-.18,2.13-.02,6.54-.75,11.32-.36.73-1.39,6.63-1.23,2.77-1.43,13.29.95-1.71,1.09,2.29,1.64-14.72,1.69-23.46,2.35-32.78l.22-.21.43-7.05c-.77,5.71-1.67,5.32-.51-2.02l-.05.9c.84-4.17,1.36-12.97,2.07-19.54l-.09-4.51c.73-6.58,1.74-6.76,2.56-8.85,1.06-10.33.67-16.37.78-23.74.69-3.28,1.91-18.76,1.86-10.52.14-4.68-.49-6.57-.8-9.29-.16-1.36-.25-2.92-.18-5.13.05-2.21.27-5.08.77-9.06l.26,4.16c.15-3.82.25-8.04.25-12.34,0-2.15.02-4.32.03-6.46-.03-2.15-.05-4.27-.08-6.33-.02-2.06-.04-4.05-.06-5.94-.04-1.89-.07-3.67-.1-5.3-.05-3.27-.02-5.95.05-7.71.84,2.8,1.12-1.97,1.37-7.8.26-5.83.29-12.71,1.01-14.11-.29.77-.72-4.97-.96-5.79.11-1.27.16-3.38-.28-5.58.04,5.98-1.81-4.09-.55,7.26-.69-2.85-1.32-6.12-1.92-10.24-.32-2.06-.61-4.33-.89-6.88-.25-2.55-.52-5.36-.82-8.5l.65.13c.26,3.32.44,6.64.62,9.97.39-1.04.74,4.09,1.11,6.18-.51-9.28-.09-8.71.26-8.17.18.27.34.52.37-.48.03-1-.07-3.25-.53-7.99-.57-1.8-.3-.62-.91-5.54.23,2.31.7,2.69.37-1.04-.27-1.18-.58-2.35-.87-3.53.17-3.36.63-.64,1.07,2.2.41,2.85.76,5.83.88,2.96.56,3.64,1.27,8.63,1.75,12.42.51,3.79.97,6.36,1.28,5.14-.3-6.02-.86-8.69-1.5-11.43-.64-2.73-1.18-5.53-1.67-11.81l.2-1.37c-.71-4.38-1.33-5.03-1.93-7.39.17-.24.18-1.37-.12-4.2-1.69-7.31-2.56-12.19-4.4-18.87.8,4.5,1.3,7.73,1.65,10.32.33,2.6.48,4.57.65,6.55.16,1.99.33,3.99.63,6.66.26,2.68.65,6.03,1.3,10.7-.29-1.46-.83-5.48-1.43-9.23-.6-3.75-1.34-7.21-1.81-7.56l.65.1c-1.05-6.05-2.24-12.06-3.15-19.71.37,1.53.69,3.06,1.03,4.6-1.91-10.02-1.65-16.92-4.1-24.67.43,2.81.85,5.08,1.25,6.79-.59-2.56-1.15-5.47-1.68-8.44-.56-2.96-1.11-5.99-1.59-8.8-1.07-3.81-2.2-7.57-3.37-11.35.34.04-1.23-7.3.02-3.87-1.34-8.44-3.16-12.18-4.37-17-1.22-8.74,1.92,7.39,2.97,8.02-2.35-11.85-5.27-24.43-7.03-31.15.33,2.48.45,3.69.28,3.6.12-.4-.83-5.25-1.27-7.98l-.71-1.81c-.44-4.61-.1-3.99.81-.17-.63-4.34-2.13-9.47-2.03-14.09,1.26,7.48,2.43,16.97,3.43,20.75-1.59-7.66-1.8-11.65-2.11-16.12-.1-2.25-.28-4.62-.46-7.69-.11-1.53-.24-3.23-.35-5.18-.16-1.96-.26-4.13-.4-6.6.19-.25.68,3.09.56-.73-.24-4.42-.44-4.99-.68-4.81-.25.19-.53,1.14-.77-.24.44,6.83.28,9.99.06,14.06l-.45-1.83c.08-.14.04-1.31.02-2.59,0-1.27,0-2.67.06-3.3l-.72-1.08c.38.24.66-1.36.79-3.7.15-2.33.24-5.39.07-8.09-.52,5.45-.5,3.98-1.35,5.47-.87-7.62.77-8.57.11-17.08.19.64.26,8.06.56,1.66.21-5.28-.38-4.6-.44-8.15.47,4.02.98,3.01,1.56,7.35-.05,4.7-.06,5.64-.07,6.56.01.92,0,1.81.18,6.41l.25-3.89.34-3.88c-.04,3.97.16,5.42.36,5.95.2.53.41.16.53.48.77-13.53-.82-10.23-.34-18.93-.27-4.22-.4,8.15-.6,1.57.43-8.14-.34-1.87-.14-11.02l.21,1.54c.51-2.77.25-5.54.39-8.76.06-3.54-2.49,3.84-1.47-10.68.12.72.21.99.29,1,1.4,4.85,2.83,9.7,4.28,14.52.88-14.7,2.54-31.55,3.96-48.48.64-1.96.66,1.07.59,4.48-.1,3.41-.3,7.18-.03,6.68l-.79,7.72c-.38-.47,1.05-16.22-.22-9.29-.67,13.68-1.72,19.84-1.72,32.88,1.29-3.96,1.07-17.09,2.51-25.46-.34,3.54-.45,6.53-.52,9.44.73-7.91,1.54-16.37,2.27-25.38l-.12-2.04c-.48,6.07-.9,10.27-.97,10.81.68-8.05.49-14.88-.23-15.46l-.1,1.43-.08-2.92c.14-1.89.29-3.77.43-5.65ZM35.53,54.41c.1.49.21.87.33,1.15-.13-.29-.18.05-.33-1.15Zm-11.89,675.21c-2.16-10.53-4.09-21.19-5.44-31.37.55,9.29,1.51,17.21,1.38,18.99-.06.89-.39.24-1.05-2.54-.64-2.79-1.69-7.72-2.81-15.45l-.39-2.01c.34,4.08,1.44,11.05,2.81,17.52.76,2.58,2.48,8.01,4.08,12.73.8,2.36,1.56,4.56,2.13,6.14.57,1.59.94,2.57.97,2.52,0-1.94-1.04-4.53-1.63-7.92l-.05,1.39Zm-.81,8.01c1.15,6,1.18,4.57,1.67,5.43-.5-2.09-1-4.17-1.49-6.24.1.81.09,1.22-.18.81Zm1.88,5.01c-.14-.67-.25-1.24-.28-1.55l.28,1.55Zm-8.78-117.73c-.01.27-.02.37-.03.63.13-1.44.26-2.87.39-4.38-.09.58-.21,1.69-.36,3.75Zm-1.53,12.32l.47,1.48c.1-1.34.19-2.71.29-4.11-.28.45-.52.92-.76,2.63Zm-2.44,39.92c.62,2.5,1.36,10.97,2.19,11.4.24.52.15-1.26.03-3.25-.09-1.11-.13-2.25-.2-3.44-.07-1.18-.13-2.4-.15-3.66-.11-.08-.23-.58-.36-1.41-.02,2.48-.12,4.16-.64,3.17.39-3.22.17-4.64-.16-6.13-.16-.74-.35-1.51-.49-2.52-.13-1.01-.19-2.26-.13-4-.27-1.1-.39.83-.42,3.3.02,2.47.19,5.47.33,6.52Zm2.55,524.74c-.08.19-.31.84-.6,1.77l.05-4.86c.96-8.6,2.69-15.39,2.58-23.22.61-3.6,1.31-5.49,1.9-7.29-.21,1.77-.43,3.42-.63,4.8-.47,10.91-1.06,13.71-1.7,15.98-.61,2.27-1.32,4.01-1.6,12.84Zm12.33-98.61c-.06.89.02,1.22.02,1.22,1.01-19.34,2.6-35.16,3.9-45.49-.79,1.94-2.34,11.15-3.12,15.53l-.14-3.98.79-2.37.26-6.84c-.65,1.84-1.23,7.32-2,10.93.08.33-.65,12.12-.68,15.44l1.59-9.3c-.48,2.5-1.89,14.92-2.35,19.86.3.13,1.84-8.28,1.3-9.43.59-.95-.63,8.82.64,2.7-.42,7.38-2.29,18.98-3.18,24.36l-.89.82c-1.03,5.9.44,4.12-.87,11.12.9-8.69-1.04,1.36-.25-5.54-.56,2.17-.84-.06-1.61,6.86.34,5.88-1.53,7.21-1.26,12.76-.74,3.6-.16-3.99-1.13,3.15-.41,8.27.03,7.84.72,8.43,1.1-7.65.02-8.73.94-14.99l-.17,12.63c.45-2.28.66-3.98.78-5.41-.22,2.52-.27,4.67-.22,6.52.02,1.05.04,2.03.05,2.92.81-7.07,1.57-13.35,2.02-14.42l.25,1.02c.62-2.46.86-6.57.81-8.48.71-6.33.99-12.71,1.63-14.04l.04,2.44c.85-7.79.91-8.67,2.12-18.45Zm15.91-256.17c-1.04,4.86-1.56,10.14-.41,32.25l-.16-1.74c-.15,5.59.19,11.01.61,16.75.3,5.74.68,11.79.1,18.57-.44-6.59-.4-6.24-1.62-13.49l.43,7.05c-.71-1.95-.39,5.08-.47,10.26l-.83-4.57c.13-1.55.27-4.34.27-6.71.01-2.37-.03-4.32-.13-4.2.05.88.31-1.78.51-5.5.17-3.72.22-8.51.02-11.87-.57.71.01,14.91-1.1,8.59.52,5.58-.11,6.28.15,12.12-.45-5.6-.81-1.38-1.27-5.54.08,3.19.21,6.37.24,9.56-.13.25-.53-13.92-1.18-6.08.4,3.83-.15,14.04.5,14.23l-.2.23c-.26,7.15.83,3.17.26,11.95.32.11.58-1.56.59-4.71-.1-2.67-.45-3.08-.5-8.57.52-2.45-.13,6.62.75,2.82.43-1.89-.23-14.5.67-10.48l-.2,7.16c.64.19.55,5.38,1.04,5.24.1,4.39-.66,8.51-.3,13,.33,1.87,1.23-1.34.59,6.06-.55,2.88-1.1,8.57-1.49,14.35-.43,5.78-.81,11.64-.97,14.84l-.06,5.62c.21-.22.42-2.89.6-5.05.16-2.16.29-3.81.42-2-.15,2.91-.37,5.82-.55,8.73l-.19-.69c-.3,2.88-.28,5.86-.37,8.5-.22-2.75.48-9.02-.28-7.82-.48,4.08-.76,4.68-.97,8.45.03-.82.03-1.54-.07-1.44-1.05,8.24,0,8.05.02,10.15.08,8.4,1.58-8.31,2.15-7.19l-.96,12.17-1.05,12.16c0-2.1,0-4.21-.35-3.45-.92,5.92-.5.08-1.36,8.44.95-.5-.56,10.58-.74,16.54-.68,2.72-.82,3.27-.14-2.76-.66.63-1.36,8.74-1.75,11.61-.05,1.68-.31,4.53-.39,6.35.58-2.38.82-1.31.45,3.95l.09.32c1.19-8.54,3.36-21.79,3.35-27.23l.12,1.55c.79-4.94,1.13-10.37,1.43-15.12.29-4.76.59-8.83,1.38-11.07.39.47.31-1.99.91-1.75l.19-7.37.14,1.55c.34-4.16.69-8.31.98-12.48l.09.34c-.08-5.98-.14-10.65-.27-14.39-.27-.03-.39.34-.45-1.65,0-1.99.1-3.5.23-4.83,0-.01,0-.01,0-.01h0c.32-3.05.82-5.06,1.2-8.83l-.31,5.81-.39,5.8c.4.98.96.03,1.7-5.64-.15,2.33.14,3.33.41.45-.08-.32.15-7.64-.38-4.88.56-11.03,2.51-28.92,1.56-45.75.25,6.04.4,3.62.55,1.36.09-2.25.2-4.34.26,2.37.43-4.68.16-6.7-.1-8.73-.3-2.03-.59-4.09-.66-8.86.12-.41.15.89.21,2.56.04,1.67.11,3.72.39,4.82.1-15.88-1.83-26.72-2.58-42.02l.53-.69c-.29-2.89-.61-6.1-.94-9.44Zm-3.8-30.09c-.44-2.92-.84-5.88-1.33-8.88.04.29.07.57.11.88l-1.7-8.7c.53,5.42.39,9.05-.96,1.56.33.6.31-1.64.82.95-.3-5.11-1.8-16.2-2.19-13.18,2.34,9.55-.73,2.42,1.03,9.93-1.16-4-1.58-8.07-2.43-11.88,1.09,3.93.98-1.12.12-7.16-.3-1.3-.72-3.72-1.2-6.36-.51-2.63-1.09-5.47-1.61-7.62-.23,1.65-1.26-2.06-.04,5.01-.65-2.56-1.49-6.54-2.12-11.07.47,1.75,1.11,4.85,1.27,4.6-.05-2.99-.79-6.37-.96-8.28-.34-1.48-.69-2.98-1.03-4.43.05.44.07.84.05,1.12l-1.53-4.84c1.68,6.52.41,3.09.09,3.07.65.04-.84-4.25-1.36-6.49l.42,5.03c-.84-2.29-1.36-8.44-1.73-7.06,2.01,10.43,3.02,14.36,5.02,23.72l-.22-3.92c1.2,5.27,1.3,6.95,1.38,8.8.1,1.84.14,3.86,1.19,9.83.33,1.22.7,2.95,1.07,4.87.33,1.92.7,4.02,1.04,5.97.69,3.9,1.32,7.2,1.8,7.26-.51-1.46.24,7.59,1.2,11.65.71,2.22,1.53,6.78,2.15,10.26.58,3.48.95,5.88.93,3.76-.36-3.74-1.51-8.7-1.3-11.77l1.08,7.22-.12-4.81c.14,2.48.57,2.18,1.12.97Zm-18.39-161.01c0-.08.01-.18.02-.28,0,.11,0,.21,0,.31v-.03Z"/>
      <path class="cls-1" d="m12.44,1309.78c.29,2.09.43,7.26.86,6.23-.51.14-.4-9.24-.86-6.23Z"/>
      <path class="cls-1" d="m12.15,1315.99c.14.36.32.1.42,2.42l-.35-6.39-.07,3.97Z"/>
      <path class="cls-1" d="m8.92,1322.65c.57,3.3.9,5.38,1.16,10.58-1.13,2.03-.83-8.49-2.13-10.8.21,4.78.63,7.89,1.07,10.78.43,2.89,1,5.55,1.35,9.47.05-.98.03-2.71-.05-4.75-.09-2.04-.2-4.4-.3-6.64-.23-4.49-.62-8.52-1.11-8.64Z"/>
      <path class="cls-1" d="m7.17,1318.47c.15,1.77.31,3.54.52,5.31l.04-.53c-.21-1.77-.36-3.54-.51-5.31l-.05.53Z"/>
      <path class="cls-1" d="m21.56,1204.44c.43-.44.33-3.74.39-5.5-.15,1.42-.43,3.41-.39,5.5Z"/>
      <path class="cls-1" d="m56.11,172.4c-.5-13.79-1.99-27.37-3.73-40.82.75,5.81,1.42,11.41,2.06,17.86.66,6.44,1.27,13.74,1.67,22.97Z"/>
      <path class="cls-1" d="m34.22,1071.33c-.97,10.8-.9,15.67-2.1,26.64,2.58-14.31,1.16-19.18,3.45-31.19l-1.35,4.55Z"/>
      <path class="cls-1" d="m36.83,1075.51c-.95,1.69.18-8.41-.55-6.91-.72,7.27.28,3.46-.6,10.04l1.16-3.12Z"/>
      <polygon class="cls-1" points="18.73 1122.75 18.75 1119.44 18.57 1122.09 18.73 1122.75"/>
      <polygon class="cls-1" points="42.03 1026.3 42.06 1027.51 42.89 1022.12 42.03 1026.3"/>
      <path class="cls-1" d="m42.09,1028.73l-.03-1.21.03,1.21Z"/>
      <polygon class="cls-1" points="17.68 1118.37 16.93 1123.2 16.97 1125.64 17.68 1118.37"/>
      <path class="cls-1" d="m26.91,1076.07l-.31,4.36c.06-.87,1.1-6.76.31-4.36Z"/>
      <polygon class="cls-1" points="45.76 993.21 45.97 987.87 45.85 988.41 45.64 993.73 45.76 993.21"/>
      <path class="cls-1" d="m29.02,1041.9c-.91,2.93.86-8.66-.35-2.56-.56,5.49,0,3.3.35,2.56Z"/>
      <path class="cls-1" d="m39.41,978.57c.06-.71.1-1.47.1-2.2-.04.87-.07,1.59-.1,2.2Z"/>
      <path class="cls-1" d="m39.41,978.57c-.2,2.3-.59,4.59-.58,6.19.52-2.85.49-3.91.58-6.19Z"/>
      <path class="cls-1" d="m41.26,952.13l-.16,2.09c-.15-2.16-.17-1.14-.06.78-.13,2.22.05,2.11.15,2.38.04.45.08.89.12,1.38-.03-.69-.05-1.31-.07-1.83.25-3.44.31-5.54.02-4.8Z"/>
      <path class="cls-1" d="m50.27,853.11c.2,3.92.27,6.39.23,7.82-.02,1.44-.14,1.85-.37,1.65.28,7.43,1,6.24,1.35,10.72-.21-4.21-.34-6.74-.48-9.48-.15-2.74-.26-5.69-.74-10.71Z"/>
      <path class="cls-1" d="m51.49,873.3c.05.94.1,1.84.16,2.94-.04-1.22-.09-2.13-.16-2.94Z"/>
      <polygon class="cls-1" points="34.14 982.6 33.87 977.76 33.82 979.52 34.14 982.6"/>
      <path class="cls-1" d="m49.57,841.48c.1,1.45.35,3.77.27,4.93.5.38-.38-6.38-.27-4.93Z"/>
      <path class="cls-1" d="m43.03,872.08c-.24.8.13,5.75.11,7.77-.06-2.89.65-5.29-.11-7.77Z"/>
      <path class="cls-1" d="m45.48,819.3c.16,1.44.1,3.69-.36,2.78.43,2.07,1.54,4.82.36-2.78Z"/>
      <polygon class="cls-1" points="42.32 857.92 42.24 859.03 42.82 864.32 42.32 857.92"/>
      <path class="cls-1" d="m36.83,877.09c.76,5.9.88-9.45,1.74.74,0-13.19-.67,1.04-1.03-8.67.1,5.69-.48,8.5-.7,7.93Z"/>
      <path class="cls-1" d="m37.54,869.16c-.02-.83-.06-1.72-.11-2.69.04,1.07.08,1.94.11,2.69Z"/>
      <path class="cls-1" d="m31.81,785.74c.2.84.34,1.42.49,1.95-.15-.66-.3-1.3-.49-1.95Z"/>
      <path class="cls-1" d="m34.85,838.26l1.58,8.78c-.51-2.94-1.12-8.12-1.66-12.44-.62-4.32-1.18-7.77-1.52-7.27.18,2.41.48,5.05.8,7.38.29,2.34.61,4.36.88,5.54l-.08-1.99Z"/>
      <path class="cls-1" d="m32.23,734.65l1.13,3.7-.95-4.72c.18,1.37-.91-.94-.19,1.02Z"/>
      <path class="cls-1" d="m32.23,732.72l.18.91c-.02-.2-.08-.49-.18-.91Z"/>
      <path class="cls-1" d="m34.75,802.36c.35,2.86.69,5.14,1.19,7.73,0-1.1-.87-8.24-1.19-7.73Z"/>
      <path class="cls-1" d="m25.71,708.54l1.29,6.13c-.45-2.24-.89-4.47-1.31-6.71l.02.57Z"/>
      <path class="cls-1" d="m23.48,679.91c.02-.35.05-.7.1-1.06l-.45-5.11-.11,1.09c.16,1.69.28,3.41.47,5.08Z"/>
      <path class="cls-1" d="m13.62,720.15c.78,4.31,2.18,7.48,2.08,6.34-.59-2.75-1.17-5.51-1.72-8.28-.18,2.23.46,2.31,1.31,7.13l-1.67-5.19Z"/>
      <path class="cls-1" d="m18.37,459.5c.53,1.77,1.33,10.74,1.02,11.27-.33-1.19-1.04-6.03-.94-2.95l1.88,6.98c.63,9.55-2.31-7.03-3.08-11.65.94,9.65,1.99,12.41,3.42,22.72-.34-3.06-.35-5.01-.36-6.64.65-.44,1.67,9.17,2.71,16.09-.32-4.44.3-1.94,1.03,1.24.1.58.2.95.28,1.22.09.37.17.72.25,1.08l-.12-.83c.09.05.16-.15.2-.77-1.02-5.79-1.07-10.29-1.57-13.99-.32,1.91-.82-1.24-1.36-5.42-.53-4.18-1.04-9.39-1.47-11.66-.22-1.76-.49-3.54-.68-5.3l-.19-1.98c.09-.41.3.14.82,3.13-.23-1.25-.55-3.98-.79-6.28-.24-2.31-.46-4.2-.61-3.8-.5-6.34-.48-12.77-.67-19.17.04-.6.07-1.2.16-1.64-.06-.67-.11-.78-.17-.69.19-6.99.21-13.99.8-20.99.34-7,1.18-14,1.88-21.01,1.75-14,3.91-27.98,6.62-41.94-.86,4.12-1.79,7.65-2.7,11.89.22-3.27-.17-1.53-.58.79-.41,2.31-.9,5.19-1.11,4.19.11-1.46.35-3.25.64-4.98.32-1.73.7-3.4,1.02-4.64-.19-1-1.17,2.52-1.52,2.03-1.19,5.26-1.3,8.39-1.48,11.47-.08,1.54-.15,3.08-.32,4.87-.16,1.79-.35,3.85-.78,6.44-.38-.47-.32-3.74-1.19,3.07l.14-1.74c-.49,5.48-1.06,7.57-1.35,9.18-.32,1.6-.51,2.72-.27,6.21l-.61-.24c0,1.25-.08,2.79-.18,4.48-.06.85-.12,1.73-.18,2.63-.04.9-.08,1.83-.12,2.76-.2,3.71-.39,7.48-.54,10.2l-.1-.33c-.07,1.91,0,3.47.02,4.79.02,1.31.03,2.37.04,3.26.01,1.78-.01,2.91-.05,4.1-.04,1.19-.07,2.43-.13,4.44.05,2.01.13,4.8.3,9.06l-.91-7.85c-.17,5.91.66,7.22.67,11.45-.13-.3-.57.7-.77-3.3l.39,5.18.57,5.14c.43,3.43.9,6.85,1.44,10.28.98,4.88.35-1.05.56-1.84Z"/>
      <path class="cls-1" d="m20.68,485.87c.12,1.11.29,2.37.52,3.85-.19-1.44-.36-2.67-.52-3.85Z"/>
      <path class="cls-1" d="m28.58,340.62c-.41,1.96-.79,3.92-1.14,5.89.37-1.82.75-3.71,1.14-5.89Z"/>
      <path class="cls-1" d="m26.09,516c-.11-3.75.79,2.73,1.07,3.37-.46-4.46-1.01-8.89-1.58-13.3-.23.09-.68-1.18-.86-.88.49,3.59.96,7.19,1.38,10.81Z"/>
      <path class="cls-1" d="m25.52,502.2c-.23-.42-.56-1.8-.93-3.33l.98,7.21c.18-.07.23-.9-.06-3.88Z"/>
      <polygon class="cls-1" points="12.81 505.31 12.48 503.02 11.81 499.56 12.81 505.31"/>
      <path class="cls-1" d="m8.98,469.04c-.04,2.82.91,8.05,1.24,9.78-.81-6.05-.33-3.44-1.24-9.78Z"/>
      <polygon class="cls-1" points="5.99 477.04 5.04 471.19 5.04 471.74 5.99 477.04"/>
      <path class="cls-1" d="m35.57,296.55c.2-.94.39-1.85.59-2.8-.29,1.28-.47,2.12-.59,2.8Z"/>
      <path class="cls-1" d="m25.68,345.64c.79-3.37,1.2-4.49,1.26-4.34.08.15-.15,1.57-.37,3.29-.46,3.43-1.12,8.03-.27,5.97l1.09-7.46.11.68,1.76-9.04c-.79,1.77-1.1,3.15-1.44,2.66,2.65-12.02,1.23-3.7,3.68-12.42l2.86-13.48-.12,1.12c.25-1.14.3-1.65.32-2.05,3.27-15.14,6.73-30.34,9.97-45.62,1.47-8.41-1.77,4.44-1.07-1.84-2.08,9.67-5.81,23.83-5.13,24.84-.04-.35-.14-1.04-.68.89l-.56,5.71,1.43-5.24c-.58,5.75-4.79,23.7-5.92,26.85,2.03-10.28.04-5.33,3.71-19.49-.36.59-1.34,3.12-.72-.12-3.53,16.77-7.26,31.64-9.9,49.09Z"/>
      <path class="cls-1" d="m55.51,175.15l.08.14c-.05-.32-.09-.42-.08-.14Z"/>
      <path class="cls-1" d="m55.43,181.05c.29,2.86.47,5.74.68,8.63l.14-6.73-.05-6.71-.61-.96c.17,1.18.5,5.87.25,7.7-.11-.65-.27-1.29-.4-1.93Z"/>
      <path class="cls-1" d="m55.95,199.79c.22-3.52.05-5.18-.19-5.5-.24-.32-.52.71-.84,2.59.08-6.4.97-3.33.46-7.76-.52.12-.59,7.98-.76,9.8l1.32.86Z"/>
      <polygon class="cls-1" points="47.07 249.52 47.17 247.59 46.15 252.17 47.07 249.52"/>
      <path class="cls-1" d="m47.17,247.59l1.01-4.55c-.28.27-.55.54-.85,1.26l-.16,3.29Z"/>
      <path class="cls-1" d="m50.7,231.05c.41-1.94.87-4.08,1.36-6.7l-1.36,6.7Z"/>
      <path class="cls-1" d="m49.54,236.27l.12-.14,1.05-5.08c-.42,1.87-.79,3.54-1.17,5.22Z"/>
      <path class="cls-1" d="m48.18,243.04c.62-.65,1.37-1.4,2.47-8.07l-.99,1.16c-.47,2.31-.95,4.62-1.48,6.91Z"/>
      <path class="cls-1" d="m3.55,433.75c-.06-.9-.14-1.8-.19-2.7l-.08-2.69-.09.57c.03.9.04,1.79.09,2.69l.2,2.69.06-.57Z"/>
      <path class="cls-1" d="m5.19,402.78c-.01-1.33-.02-2.34,0-3.26-.11,1.39-.08,2.51,0,3.26Z"/>
      <path class="cls-1" d="m4.32,379.5c1.35-6.2-.52,8.73,1.27-2.84.61-.95.42,4.55-.48,9.98-.44-.49.43-5.35-.48-2.05.06,3.7-.38,5.05.39,3.85-.23,6.17.17,6.9.17,11.09.26-3.7.87-9.44,1.62-15.39.42-2.97.82-6,1.15-8.88.17-1.44.31-2.84.43-4.18.14-1.33.27-2.6.35-3.77.05-5.24-1.52-2.31-2.65-2.51-.17.37-.92,3.86-1.36,7.38-.45,3.52-.76,7.02-.42,7.32Z"/>
      <path class="cls-1" d="m1.97,389.27c-.36,2.92-.41,3.83-.5,5.63.44-.45.27-3.26.5-5.63Z"/>
      <path class="cls-1" d="m21.61,324.84c-.04-.57.87-5.71.35-4.68l-1.46,7.78c.39-1.82.75-2.41,1.11-3.1Z"/>
      <path class="cls-1" d="m19.9,331.36l.61-3.42c-.19.85-.38,1.9-.61,3.42Z"/>
      <path class="cls-1" d="m21.79,324.49c-.06.12-.11.22-.18.35.01.12.05.1.18-.35Z"/>
      <path class="cls-1" d="m54.29,211.99c.15.08.32-.77.48-1.86.15-1.11.25-2.52.33-3.44-.22,1.5-.6,3.59-.81,5.29Z"/>
      <path class="cls-1" d="m45.02,78.17l-.09-3.09c-.03,1.1-.05,1.66.09,3.09Z"/>
      <path class="cls-1" d="m34.1,30.96c-.06-.09-.09-.33-.12-.65.02.32.06.54.12.65Z"/>
      <path class="cls-1" d="m33.97,30.31c-.08-1.08.07-3.29.34-5.51.12-1.11.23-2.24.31-3.23.12-.99.19-1.86.18-2.47l.08.32c.15-1.49.22-2.99.45-4.48-.74,4.16-1.75,12.94-1.35,15.37Z"/>
    </g>
  </g>
</svg>