<?xml version="1.0" encoding="UTF-8"?>
<svg id="Layer_2" data-name="Layer 2" xmlns="http://www.w3.org/2000/svg" viewBox="0 0 54.94 1400.91">
  <defs>
    <style>
      .cls-1 {
        fill: #ffa520;
      }
    </style>
  </defs>
  <g id="Layer_1-2" data-name="Layer 1">
    <g>
      <path class="cls-1" d="m18.23,1366.12c.48,3.14.48,5.93.16,4.77.63,3.18.89,4.81,1.08,5.74.19.93.32,1.16.82,1.5,1.09,4.02,1.2,8.48.1,3.89.41,1.95.79,3.91,1.24,5.85l1.39,5.82-1.2-7.04c1.05,1.78,1.93,11.25,3.18,13.3l-2.51-12.66.36.59c-.78-2.85-1.54-8.51-1.77-10.49.17.29.33.06.71,2.31-1.25-7.68-1.58-8.7-2.06-9.36-.45-.66-.89-.99-1.86-7.41.12.8.25,1.8.36,3.19Z"/>
      <path class="cls-1" d="m18.47,1352.75l-1.47-5.32-.5-9.13c-.32-.08-1.11-6.7-1.03-2.18.12.88.35,2.61.44,4.01-.38-.48-.72-3.51-.99-6.08-.23-2.57-.44-4.68-.71-3.32.27,3.62.47,5.7.66,7.43.19,1.73.41,3.11.86,5.31.11,1.66.22,3.2.32,4.63.11,1.43.22,2.75.32,3.96.18,2.42.29,4.4.32,5.96.32,1.95.72,2.18,1.14,4.65-.08-.55-.16-1.05-.25-1.68l.99-.39c-.43-2.05-.54-4.02-.8-6.31.77,3.5,1.51,7,2.42,10.47.12-.88.1-2.19-.02-3.71-.09-1.53-.23-3.29-.41-5.06-.34-3.55-.79-7.19-.77-9.29-.35,5.25-.87-4.08-.52,6.06Z"/>
      <path class="cls-1" d="m17.84,1362.67c0,.07.03.18.04.26-.01-.08-.03-.19-.04-.26Z"/>
      <path class="cls-1" d="m16.91,562.17c.03-2.27-.22-2.95-.33-3.28-.14,8.53-.54,17.07-1.09,25.62.32-.79,1.11-8.16.97-3.21.45-2.19.51-8.91.2-9.9l.31,1.88c-.24-5.93.87-9.93,1.07-6.07v-.5c-.23-2.74-.46-5.48-.79-8.21-.31-2.73-.57-5.46-.97-8.16,0,2.99.12,4.14.3,5.45.17,1.31.37,2.77.32,6.38Z"/>
      <path class="cls-1" d="m32.89,37.5c-.16,3.37,0,3.79.08,3.41-.03-1.21-.04-2.36-.08-3.41Z"/>
      <path class="cls-1" d="m15.77,546.54c-.21-1.69-.49-3.38-.78-5.06.13,1.01.27,1.96.41,2.81.12.86.24,1.62.37,2.24Z"/>
      <path class="cls-1" d="m24.43,582.5s.06.07.11-.06l-.18-2.35s0,.05,0,.06c.03.86.05,1.63.07,2.35Z"/>
      <path class="cls-1" d="m2.77,429.95c-.02-.57,0-1.06,0-1.73,0,.63-.02,1.2,0,1.73Z"/>
      <path class="cls-1" d="m23.51,652.19c-.05-3.76-.15-7.52-.12-11.3.21,1.52.41-3.94.62-1.54,0-.86.1-4.91-.1-3.82l-.11,2.31c-.5-6.02-1.03-2.42-1.02-12.4-.9,6.14-.65,8.88-.43,12.16-.02,1.11-.03,2.03-.04,2.97.2,3.16.48,6.31.75,9.45l.45,2.17Z"/>
      <path class="cls-1" d="m49.48,196.68l.07.12c-.03-.11-.05-.13-.07-.12Z"/>
      <path class="cls-1" d="m49.85,197.29l-.29-.49c.16.61.41,2.98.29.49Z"/>
      <path class="cls-1" d="m16.34,548.4c-.16-.15-.36-.8-.57-1.86l.52,3.79c.01-.54.03-1.25.05-1.93Z"/>
      <path class="cls-1" d="m18.17,557.09v4.81s-.11,4.81-.11,4.81l.31,3.57c-.05-3.69.05-8.01-.2-13.19Z"/>
      <path class="cls-1" d="m2.57,445.61c-.44-10.27-.1-9.01.25-6.37.39,2.64.87,6.64.82,1.94-.19-2.84-.33-4.75-.48-6.41-.16-1.65-.32-3.04-.4-4.82.23,8.13-.16,7.58-.57,7.06-.38-.53-.93-1.04-.48,7.19-.45-1.15-.85-4.12-.97-7.51-.1-3.38-.13-7.18.11-9.98.49-3.16.61-1.77.69.59.04,2.35.26,5.68.65,6.39-.09-3.3-.15-4.66-.22-5.54-.09-.89-.23-1.3-.42-2.71.44-10.35.28-21.52,2.17-27.52.36-3.72.49-5.46.49-6.83,0-1.36-.07-2.34.06-4.49-.78-.99-2.09,10.96-2.98,13.67.14-.57.41-1.67.5-1.33-.29,2.15-.62,4.29-.88,6.45.45-3.06.68-2.82.7-1.41.03,1.41,0,4-.11,5.64-.23,2.39-.44,7.16-.64,6.49l.03-3.65c-.29,2.33-.26,4.92-.28,7.54,0,2.62.08,5.27-.24,7.74-.2.26-.25-1.62-.36-1.91.12,1.39.17,2.77.25,4.18.09,1.41.16,2.86.23,4.39.09,3.06.32,6.45.68,10.54l-1.04-4.73c.3,1.64.54,3.8.73,6.27.26,2.47.42,5.26.68,8.17.45,5.83,1.03,12.13,1.51,17.21-.01-1.14-.19-3.19.14-1.99,1.04,5.92,1.17,10.37.29,7.75.79,2.81,1.51,8.2,2.19,13.78.71,5.58,1.31,11.38,2.21,15.13,1.36,5.75,2.68,11.54,3.84,17.38,1.19,5.83,2.33,11.74,3.27,17.55-.17-1.31-.31-2.72-.41-4.17.33-1.61.39-2.88.55-3.02.14-.14.4.84.87,3.63-.3-2.75-.65-3.61-.93-4.8-.29-1.2-.54-2.75-.85-6.92.6,3.25,1.58,4.02,1.04-4-1.18-9.98-2.82-18.18-4.67-26.14-1.83-7.97-3.99-15.67-5.92-25.09.25-.4-.22-4.32-.72-9.11-.5-4.8-.93-10.44-1.06-14.13.8,2.77,1.31,8.22,2.09,13.85-.36-3.54-.88-9.66-1.08-14.19-.46-.59-.89-1.19-1.32-1.79Z"/>
      <path class="cls-1" d="m10.27,492.5c-.02-.5-.06-1.02-.11-1.55,0,.29.02.75.11,1.55Z"/>
      <path class="cls-1" d="m5.16,463.3c.03.07.04.04.07.06-.08-.59-.17-1.18-.25-1.78.06.61.14,1.29.18,1.72Z"/>
      <path class="cls-1" d="m17.59,543.69c.22,1.18.25,2.06.44,3.25-.05-.73-.12-1.65-.18-2.54-.11-.84-.21-1.24-.26-.71Z"/>
      <path class="cls-1" d="m16.63,547.71l-.25-.63c-.01.51-.02.87-.04,1.32.13.14.24-.01.29-.69Z"/>
      <path class="cls-1" d="m14.58,368.96l.25-1.91c-.22,1.14-.27,1.64-.25,1.91Z"/>
      <path class="cls-1" d="m3.45,422.77c-.07,3.56.15,3.77.34,4.36.21.59.32,1.53.37,6.55l.04-2.95c.27,7.2.54,19.84,1.53,28.36-.46-.93.13,5.21-.5,4.28.81,5.82,1.82,11.48,2.82,14.32.36,3.56,1.7,8.79,2.11,13.26.04-1.92,2.03,6.16.03-4.59.18.87.17.31.34,1.16-.6-7.05-1.85-9.72-2.76-15.82-.22-3.68,1.4,5.87,1.02,2.42-.74-3.76-1.47-9.78-1.99-14.79-.54-5.01-.91-9-1.5-8.71-.46-5.63-.13-6.42,0-8.11-.2-1.11-.36-2.46-.49-3.97-.11-1.51-.14-3.19-.17-4.95-.1-3.52.1-7.38.25-10.95.17-3.57.45-6.85.49-9.25.11-2.39.05-3.9-.37-3.91-.25,3.25-.59,8.56-.43,13.35l-1.14-.07Z"/>
      <path class="cls-1" d="m16.94,532.1c-.02-.43-.05-.99-.07-1.35.02.4.05.89.07,1.35Z"/>
      <path class="cls-1" d="m9.11,619.13l-.87-3c.98-16.57,1.82-22.49,2.64-36.82.21-1.08.21.66.2,1.54.23-5.04.57-11.3.72-17.21.14-5.9.13-11.45-.2-15.05.06-3.17-.01-11.41.45-8.31-.17-1.53-.31-3.26-.38-5.04.39-.48.3,3.95.62,4.03-.03-1.4.02-1.95-.12-2.26.42,2.34,1.25-2.53,1.62,8.5-.44,2.15-.45.23-.57-1.9-.13-2.12-.28-4.46-.72-3.19.15,3.64.52,3.2.65,3.51.06,4.67-.21,4.55-.44,4.3.17.89.16,2.8.17,4.8-.04,2.01-.06,4.1.16,5.34-.01,4.55-.24,4.43-.41,3.91-.18-.53-.35-1.45-.45,1.53l.9,3.47c-.15,3.3-.42,6.62-.64,9.94-.51,14.46,1.93-1.98,1.42,14.61-.38-2.21-1.72,4.36-2.53,12.07.31-4.63.3-13.2.96-19.12-1.31,8.31.62-11.52-.58-7.23.21,4.15-.17,11.05-.8,16.42l.03-1.77c-.51,5.72.21,10.14-.79,18.06-.27,3.95-.5,3.19-.68,2.48-.11,3.35-.12,6.37-.35,6.36Zm.43-8.64l.5-5.28c-.26,1.24-.41,3.21-.5,5.28Z"/>
      <path class="cls-1" d="m15.37,1279.34c-.03.52-.07,1.12-.1,1.6.05-.35.07-.95.1-1.6Z"/>
      <path class="cls-1" d="m42.25,810.5l.35,3.07c-.11-1.2-.23-2.18-.35-3.07Z"/>
      <path class="cls-1" d="m51.35,879.43c.14,1.51.29,3.01.39,4.52-.05-1.79-.21-3.19-.39-4.52Z"/>
      <path class="cls-1" d="m16.73,1242.98l.02-.15c0-.25-.01-.44-.02-.71v.85Z"/>
      <path class="cls-1" d="m42.24,1018.17c-.16.67-.32,1.43-.49,2.46.11-.11.29-1.04.49-2.46Z"/>
      <path class="cls-1" d="m51.27,878.6c0,.12,0,.18,0,.27.03.18.06.37.09.56l-.08-.83Z"/>
      <path class="cls-1" d="m40.58,779.81c-.15-.65-.28-1.24-.44-1.94.18.92.32,1.48.44,1.94Z"/>
      <path class="cls-1" d="m38.48,784.59c-.15-.7-.3-1.36-.43-1.88l.43,1.88Z"/>
      <path class="cls-1" d="m21.66,680.73c-.15-1.3-.22-2.66-.32-4,.08,1.98.18,3.16.32,4Z"/>
      <path class="cls-1" d="m37.24,773.63c-.09-.23-.17-.46-.25-.61.13.56.24.82.25.61Z"/>
      <path class="cls-1" d="m12.43,1305.48c0-.09,0-.19,0-.25l-.12-.1.13.35Z"/>
      <path class="cls-1" d="m14.22,1315.43c.07,1.18.14,2.4.21,3.6-.04-1.34-.12-2.64-.21-3.6Z"/>
      <path class="cls-1" d="m33.58,1077.64c-.28,1.07-.77,3.59-.79,2.38-.05,2.1.48,2.03.79-2.38Z"/>
      <path class="cls-1" d="m5.93,1285.35c.13.66.24,1.49.34,2.31-.14-1.54-.26-2.89-.34-2.31Z"/>
      <path class="cls-1" d="m6.27,1287.67c.07.76.15,1.57.22,2.25-.06-.79-.14-1.55-.22-2.25Z"/>
      <path class="cls-1" d="m28.58,1049c.1-.26.21-.67.29-1.24-.16.15-.24.6-.29,1.24Z"/>
      <path class="cls-1" d="m14.39,1321.96c.28.64,1.69,16.26,1.07,3.09.39.23.6,2.34.76,4.82.15,2.48.26,5.35.52,7.09-.03-2.55.58,1.23.79.44-.24-1.73-.62-3.77-.71-6.65.29-1.34.7,3,.88,6.4.06-4.21,1.02,5.25.85-.68-.35-3.15-.51-6.08-.77-8.83-.25-2.75-.49-5.33-.72-7.8-.4-4.93-.94-9.39-1.59-13.85.39,7.24.86,15.33.96,21.28l-.79-2.46c.07-3.37.02-6.09-.1-8.79-.12-2.7-.31-5.39-.39-8.69.07,4.95.09,9.91.2,14.86-.13,6.98-.58,2.34-.93-3.15.03,1.35.05,2.57-.04,2.92Z"/>
      <path class="cls-1" d="m8.29,1312.12v.25c.02.22.05.49.08.63l-.08-.88Z"/>
      <path class="cls-1" d="m8.52,682.27l-.33-1.31c.18,1.1.28,1.44.33,1.31Z"/>
      <path class="cls-1" d="m11.23,1303.11h0c0-.09,0-.11,0,0Z"/>
      <path class="cls-1" d="m12.81,714.69s-.05-.08-.09-.16c.04.11.06.11.09.16Z"/>
      <path class="cls-1" d="m28.27,720.34c.02-.06.04-.09.04-.23-.17-.65-.14-.33-.04.23Z"/>
      <path class="cls-1" d="m12.87,714.71s-.03.03-.06-.01c.03.02.06.07.06.01Z"/>
      <path class="cls-1" d="m38.68,867.19s.08-.49.15-1.27c-.08-.29-.13,0-.15,1.27Z"/>
      <path class="cls-1" d="m37.37,836.66c0-.2.01-.31.02-.56l-.02.56Z"/>
      <path class="cls-1" d="m37.4,1070.79c.2-1.51.32-2.64.41-3.6-.15,1.1-.29,2.29-.41,3.6Z"/>
      <path class="cls-1" d="m12.72,714.53c-.13-.31-.28-.75-.51-1.48.25.81.4,1.23.51,1.48Z"/>
      <path class="cls-1" d="m42.99,913.74c-.02-.33-.04-.63-.06-.94l-.04.56.1.38Z"/>
      <path class="cls-1" d="m42.2,929.72c-.06-.55-.13-.8-.19-1.11.09,2.86-.13,6.9-.22,10.39-.08,3.49-.15,6.42.15,7.06.15-1.93.92-11.96,1.27-10.23.03-3.99.64-9.86.58-12.01-.55,6.53-.6.69-.73-3.72.28-4.01.56.77.73-2.69v-9.3s-.16,8.09-.16,8.09l-.65-2.47c.02.3.03.5.06.83.11,6.84-.22,7.13-.43,7.46-.24.33-.46.69-.42,7.7Z"/>
      <path class="cls-1" d="m42,928.61c-.02-.86-.05-1.61-.11-2.19-.02,1.29.03,1.79.11,2.19Z"/>
      <path class="cls-1" d="m37.34,984.26c-.03.7-.07,1.46-.12,2.42.02-.46.07-1.51.12-2.42Z"/>
      <path class="cls-1" d="m17.92,577.12c-.18.23-1.08,8.15-.56,8.04.19-2.36.42-4.73.59-7.11l-.03-.93Z"/>
      <path class="cls-1" d="m22.76,1135.89c.12-.88.23-1.76.33-2.65,0-.19-.01-.38-.02-.52-.14.53-.26,2.29-.31,3.17Z"/>
      <path class="cls-1" d="m43.35,938.3c-.02-1.47-.07-2.12-.14-2.47,0,.95.03,1.82.14,2.47Z"/>
      <path class="cls-1" d="m21.49,1136.24c-.28,1.11-.7,2.74-.92,2.95-.27,2.3-.19,3.95-.37,6.3.23-2.65.63-5.71,1.29-9.25Z"/>
      <path class="cls-1" d="m20.18,1145.68c0-.07,0-.13.01-.19,0,.07,0,.12-.01.19Z"/>
      <path class="cls-1" d="m18.38,572.4c0-.69,0-1.39,0-2.12l.09,1.11c.12-1.83.24-3.65.35-5.47-.01-.66-.02-1.38,0-2.26,0,.35.05.63.1.8.04-.59.08-1.17.12-1.75-.2-2.19-.4-5.99-.55-9.63-.24-3.64-.46-7.12-.63-8.67-.4-4.11-.7-9.12-.91-12.3.21,2.94.47,6.82.71,5.64.05-2.98.14-5.22.14-7.99,0-2.77-.24-6.08-1.03-11.19l.49,6.03c-.71-4.5-1.5-8.98-2.32-13.44-.02-2.39.32-.72.69,1.78.36,2.5.81,5.84,1.08,6.76-1.43-10.48-1.02-19.39-2.67-24.12.49-.76,1.33-2.05.24-8.93.09,5.06-1.05-4.06-1.14.12-.68-2.32-.98-7.7-1.47-8.03l.34.61c-.92-11.89-2.81-15.58-3.81-20.65-.82-7.14-1.06-12.39-1.15-17.29-.03-1.23-.05-2.43-.08-3.64,0-1.21.01-2.43.02-3.67,0-1.24,0-2.52,0-3.85,0-1.33.06-2.71.08-4.18.43-.45,1.49-3.6,1.76-8.26-.48-2.2.14-12.75-.37-13.89-.57,4.16-.52,5.89-.45,7.2.09,1.31.25,2.19.2,4.7-.94,4.13-.74.33-1.46,6.02.11-1.15.25-3.03.36-5.28.06-1.12.12-2.34.18-3.61.09-1.26.19-2.57.29-3.89.11-1.31.21-2.63.32-3.91.15-1.27.3-2.5.43-3.64.3-2.29.58-4.23.93-5.45-.05.59-.11,1.18-.14,1.78.74-3.97,1.55-6.27,2.36-9.24.41-1.48.8-3.14,1.16-5.25.36-2.12.77-4.68,1.1-8.02l.83-6.34c0,.32.08.36.1.54,2.22-10.2,2.35-7.25,4.39-18.59-.17.88.04.35-.13,1.24,1.91-6.28,2.79-12.88,3.9-17.72,1.32-2.78.36.84.28,2.75,3.11-11.1,5.46-23.35,6.62-30.43l2.21-7.09c-.87,4.32-1.7,9.67-1.01,8.46.93-3.98.49-3.28,2.04-8.84.1,1.04-.17,3.48-.43,6.22,3.62-11.41-.56-2.9,2.61-10.72.92-3.64.94-5.88.61-6.38l2.14-6.47c-.36-.86,1.47-9.04,2.46-14.44-.1-.7-1.49,4.2-1.7,6.28-.37-.5.7-6.23,1.36-9.91.35-.28.8-1.93,1.29-4.18.43-2.25.92-5.1,1.33-7.77.37-2.68.74-5.17,1.04-6.72.27-1.55.52-2.14.73-1,.9-8.39,1.59-18.5,1.53-27.9-.07-9.39-.74-18.09-1.33-23.62.12-3.68-.48-11.15.42-6.71-1.07-13.56-3.02-20.4-4.18-33.85.03-1.13.69,6.06,1.02,5.54-1.42-8.72-1.31-16.01-3.19-29.59.29,2.29.6,2.93.76,3.23-.17.26-1.05-5.53-1.63-9.03-.12-1.99.44,2.62.46,1.49-1.22-13.18-2.69-24.76-3.92-36.36-1.23-11.6-2.26-23.25-2.12-36.51-.07,7.57.83,10.41,1.14,10.48-.07-2.46-.07-4.92-.06-7.38-.41-2.85-.3-8.4-.34-13.07.17-.56.43-2.81.51-.5.81-7.27,1.08-12.96,1.62-19.11.18-1.53.36-3.09.54-4.71.21-1.62.53-3.28.84-5.03.3-1.76.82-3.56,1.31-5.5.51-1.93,1.26-3.93,2.01-6.08-2.01,7.1-3.19,14.33-3.82,21.54l1.48-5.17-.49,4.73c-.17,1.57-.22,3.16-.34,4.73.31-1.38.5-2.73.67-3.98.2-1.25.34-2.4.46-3.4.21-2.01.45-3.39.81-3.66-.14,1.19-.68,4-.39,4.15.56-2.64.88-4.05,1.06-5.33.19-1.28.27-2.41.78-4.38-.84,5.31-2.07,13.1-2.71,21.04-.68,7.94-.87,16-.79,21.64.08,1.78-.27-1.52-.37-1.84-.02,4.61-.39,7.38-.04,13.19.59,3.59.3-2.76.31-5.62.43.39.44,1.83.58,5.01-.3.35-.22,4.73-.06,9.53.17,4.8.46,10.03.25,12.12.76,8.51,1.1,7.79,1.36,7.04.27-.76.45-1.56,1.08,6.75l-.18,5.02c1.46,9.59,3.35,21.99,4.48,32.92l-.29-2.3c-.46-1.5-.34,1.05-.36,2.19.67,8.28,2.33,15.61,2.21,20.7,1.76,9.34,3.85,25.06,4.86,35.95-.36,1.5-.73-2.05-1.23-6.51-.47-4.46-1.07-9.84-1.55-12.07.3,3.28.6,6.57.85,9.86-.51-6.1-1.06-8.47-1.92-12.07.65,8.63,1.66,11.4,2.45,19.6-.28-.62-.36.48-.12,4.27l.64,1.04c-.04.07-.07.5-.05,1.67.19,2.44.36,4.88.49,7.32.17,2.44.24,4.9.31,7.37.21-3.13.79-3.32.65-7.11-.31,1.37-.44-1.86-.62-5.65.55,3.31.14-3.72.46-3.65.09,1.9.19,3.92.29,5.94.08,2.03.16,4.07.24,6.04.05,3.96.21,7.59.17,10.11l-.58,1.62c-.11,3.66-.37,7.41-.52,10.87-.28,3.45-.47,6.62-.86,9.07l-.1-1.58c-1.08,8.68-2.08,17.24-4.02,24.75-.8,7.76-2.43,17.42-3.32,23.73-.05,1.74-1.62,7.22-3.4,13.31-1.77,6.1-3.73,12.81-4.38,17.13-.23.54,1.05-5.9,1.55-8.84-1.59,5.56-1.96,10.23-3.13,11.78,3.6-12.46-.75.52.57-5.17-1.57,5.87-3.1,12.08-3.6,15.01,2.52-9.47.08,3.63,2.33-6.05-1.4,7.6-3.85,17.78-6.23,26.57-.28-.16-.71.89-1.62,4.17l-.17,2.77c-1.05,4.13,1.33-8.15-.77.17-.63,4.39-2.13,10.85-3.31,16.74-.58,2.95-1.06,5.75-1.38,8.07-.28,2.32-.37,4.15-.16,5.16-.81,3.25-.45.1-.18-2.66.13-1.38.26-2.65.21-2.96-.05-.31-.32.33-.88,2.8.18-2.95.88-6.39,1.39-9.35.58-2.96,1.05-5.43.88-6.46-.93,5.71-1.02,1.95-1.76,5.61l-.72,6.43.28-1.4c-.68,5.36-1.56,12.28-2.49,19.57-.88,7.28-1.5,14.96-1.78,21.83.09,2.91.23,5.6.36,8.2.2,2.6.4,5.11.6,7.7.23,2.58.5,5.23.69,8.1.23,2.86.49,5.95.77,9.4-.37-2.02-.28.86-.17,3.16.09,2.3.08,4.04-.77-.27.25,6.44,1.65,12.71,1.98,12.79-.67-5.65-.2-2-.65-6.75.75,3.14,1.83,10.51,2.08,13.62-.19-1.42-.18-.87-.35-1.16.8,6.83.89,3.19,1.8,8.1-.27,1.64,1.49,10.97,1.75,15.57.51,2.17,1.06,4.35,1.53,6.53-.89-3.59.51,6.37.1,7.46.8,4.71,1.76,8.65,2.11,15.9-.47-2.96.08,6.61-.48,6.8.13,12.53,1.88,20.76.72,32.54-.11-.37-.36-2.76-.61.68.05,2.72-.28,7.44-.37,10.34v-.09c0,.06,0,.09,0,.15-.06,1.41-.05,2.3.07,2.35.19,4.97.55,7.56.26,17.27.64-.66,1.01-8.87,1.04-12.44l-.38-3.11c1.09-2.88.34-8.8.75-11.03.82,5.93-.57,22.74-.73,32.78,1.28-6.03,2.44-19.35,2.91-31.13l-.61,5.16.3-6.15-.92,5.91c.2-2.91.33-5.62.44-8.26.08-2.65.13-5.24.24-7.88-.2,6.18-1.09,8.56-.84,5.07.4-3.43.38-5.23.26-6.82-.14-1.6-.35-3-.29-5.63-.09,2.94-.16,6.76-.46,4.29.21-2.6.34-4.72.44-6.59.09-1.87.07-3.51.1-5.11.03-1.6.05-3.17.08-4.94,0-1.77.03-3.74.12-6.14-.86,1.17-.77-11.76-1.72-13.11.09,1.45.16,2.9.22,4.35-.38-3.06-.85-6.12-1.27-9.17.07-8.58,1.47,7.48.89-5.54-.24-3-.53-5.22-.8-7.01-.27-1.79-.54-3.16-.83-4.44-.56-2.56-1.1-4.8-1.77-9.47,1,3,2.46,10.4,3.19,18l-.21-4.63c.64,2.4,1.54,12.93,1.87,18.17-1.33-8.61.13,4.07-.18,8.04.61.69.16-4.86,1.03,1.67-.42-6.15-.48-7.04-.9-14.9.56,8.48,1.23,12.23,1.92,15.77.57,3.58,1.29,6.95,1.08,14.48-.34-6.94-.77,2.43-1.05,3.26.02,3.24.07,9.81.09,12.52l.89-2.42c.06,8.71-1.78,11.64-1.55,21.6.2.66.38-1.52.51-3.64.12-2.12.15-4.2.16-3.3-.27,13.64-1.98,18.4-3.48,30.28.19.69.71.59.82,4.78-.39-1.34-.87,1.72-.87-2.99-.51,3.96-.51,8.7-.57,12.21.89-8.23.44,3.43.64,4.96-.36,4.25-.41-1.32-.34-3.97-.39,3.43-1.35,7.43-.76,9.43-.26.05-.44-2.36-.52-5.58-.07-3.23,0-7.27.16-10.46l-.4,4.29c-.05-2.98.06-3.52.47-7.79-.71,4.15-1.12,3.71-1.41,2.71.12-.54.1.31.21-.2.39-3.43.45-6.08.12-5.3-.45-3.15-.79,4.74-1.31,7.04-.08,1.76-.16,3.52-.24,5.25.31,6,.64,11.98,1.07,17.93-.1,3.8-.25,6.52-.49,9.02-.13,1.25-.26,2.44-.39,3.67-.11,1.23-.22,2.5-.35,3.91l.56,1.56c-.13,3.28-.14,6.45-.28,8.28-.14,1.83-.37,2.33-.75.24.2-.24.14-1.1.17-2.52-.08-.19-.14-.51-.19-.93-.04-.14-.07-.21-.1-.33.12,3.5.18,6.36.3,8.37.13,2.01.21,3.2.22,3.4-1.19-11.84-1.11-.57-2.2-2.52l.37,6.02c.14,2,.35,3.96.53,5.94-.12-7.22.44-.17.87,2.37-.6.76,1.03,9.56,1.63,13.74l-.17-.29c.36,3.89,1.63,10.66,2.74,15.44.14-.25,2.32,5.73,3.52,8.57-1.5-8.3-.25-3.45-.03-4.18.14.86.46,2.39.57,2.56.41,1.14-.11-1.65.03-1.92-2.12-8.7-3.73-17.64-5.04-21.07.05,2.74,1.06,4.51,1.35,7.55-1.32-4.24-2.12-9.85-2.93-17.08.07-.81.14-1.62.24-2.42l-.46-3.62-.37-3.61c.48,3.01.76,1.15,1.59,8.72.16-.51-.02-2.38-.3-4.72-.23-2.34-.55-5.08-.52-7.47l-.73-2.39c.2.46.23-1.84.3-3.36.03-.76.11-1.32.19-1.25.08.08.18.79.37,2.58l.46,5.82c.17,1.93.4,3.8.62,5.7l.24-3.19c.12,1.6.24,3.2.42,4.8.17,1.6.33,3.21.55,4.82l-.59-2.25c.54,3.88.8,6.11.92,7.53.11,1.42.03,2.02-.03,2.62-.07,1.21-.23,2.43,1.55,10.27,1.69,4.81,2.8,10.1,4.72,19.91-1.69-7.03-.7-.61-1.72-3.17,1.22,7.28,2.42,9.6,3.55,13.29,0,1.95-.04,3.32-1.41-3.17-1.04-.63,2.03,8.5,1.28,9.3,2.37,10.79,3.97,15.06,5.45,19.79,1.51,4.73,2.99,9.97,4.54,22.92l-.51-.91c3.07,16.26,3.86,25.79,5.8,40.98.15,4.03.21,8.06.25,12.08-.37-2.67-1.74-9.81-1.86-6.4.3-5.91-.62-12.06-.95-18.38-.32-.61-.18,1.96-.19,3.09-.47-3.77-.26-5.73-1.08-10.69-.13.26.3,5.74-.32,1.65l-.38-6.85c-1.55-9.02-1.99-4.26-3.38-14.91.81,1.89,2.2,5.8,2.95,9.9-.59-4.88,1.23,6.44.9,1.96-.85-3.46-1.34-6.03-1.79-8.92-.46-2.88-.9-6.06-1.97-10.65.29,1.07.49,1.33.94,3.61-.7-4.5-1.32-9.02-2.08-13.51.2,3.4-2.61-10.99-3.02-9.61,2.47,14.33,2.14,10.05,4.55,26.45-.89-4.61-2.64-10.44-3.72-13.12,0-.15-.02-.39-.1-.89-1.12-2.36-.81.2-1.94.36,2.1,7.28,2.34,12.35,4.15,21.05.88,1.56,0-5.22-.87-9.56l1.64,7.67-.53-1.48c1,6.56,1.82,13.14,2.65,19.71-.52-3.73-1.08-4.95-1.62-6.86.32,2.54.55,5.07.69,7.78.52-.64.99-.34,1.28,2.15.35,3.18.66,6.01.87,8.54.19,2.53.33,4.77.42,6.75.21,3.97.17,6.94.04,9.32.06.49.12,1.04.18,1.48.21-1.09.69,1.14,1.24,4.14.56,3,1.08,6.77,1.55,8.72-.64-.15.13,6.6-.02,10.31.84,1.92,1.69-.75,2.02-5.29-1.3-8.6-1.03-4.8-2.27-8.81-.53-4.6-1.22-9.19-1.83-13.77l.86,3.04c-.17-3.47-.65-6.83-.99-9.28-.33-2.45-.49-3.97-.09-3.76.89,3.59,1.25,9.63,2.04,13.21l-.14-4.6c1.46,8-.3,4.2,1.03,13.92.37-3.65.11.88.85,5.04.08-1.7-.23-6.01-.53-9.52-.28-3.52-.42-6.26.26-4.84.97,5.05.19,17.22,1.62,23.89l-.14-.32c.47,9.96,1.15,13.43,1.71,17.15-.14,4.25.42,10.1.6,14.7l-.32-.11c.1,2.16.13,4.33.2,6.49-.3-1.54-.31-3.44-.27-5.66.01-2.21.08-4.74-.03-7.52l-.57.71c.58-6.45-.74-10.7-1.42-15.64.38,3.61.62,8.72.76,13.14.15,4.42.37,8.14.96,8.99l-.55,4.49.23,2.14c-.42,3.34-1.14-.06-1.34-6.53.12-1.13.18-1.69.31-1.35-.35-3-.82-5.74-.94-13,.15,1.29.32,2.57.45,3.86-.12-4.52-.37-8.83-.64-12.4-.29-3.56-.68-6.37-1.05-7.9.3,6.52.44,12.98.66,19.34.11,6.37.29,12.63.31,18.75.68,1.8,1.22,3.78,1.73,5.53.49,1.76.98,3.3,1.59,4.22.08,4.13.15,8.99.01,13.72-.05,2.36-.12,4.69-.23,6.88-.14,2.18-.3,4.22-.48,6.01l-.22-.67c-.28,3.49-.32,6.71-.36,9.4-.54,3.67-.51-2.56-.83,0-.11,3.93-.15,7.89-.31,11.8-.47-.75.1-10.67.32-15.38.02.89-.01,2.69.1,2.12.5-5.47-.03-15.72.79-18.09-.07-2.68.46,5.45.73-3.61.48-6.06-.3-8.05-.52-8.68-.16-.05-.29,2.32-.42,4.29-.16,1.97-.33,3.53-.48,1.87-.09,4.71.32,6.6-.21,12.61.15-4.67-.38-11.03.19-13.5-.48-9.24-2-7.92-2.12-3.58.56-1.03.19,16.81,1.11,4.74.23,2.72.29,6.56.3,10.62-.05,4.05-.13,8.31-.09,11.88l-.11-.33-.36,8.83c-.09-1.25-.08-3.93-.39-4.03.04,4.08.11,8.18.07,12.24-.07-6.88-.7,4.21-1.18,7.31.4,1.34.37,6.11,1.01,1.58.72-5.1-.04-3,.26-7.67l.28,6.66-.12.56.31,4.02c-.8,8.98-1.12-4.04-1.47,7.51l.98-1.42c-1.24,13.32-3.9,30.28-4.55,39.68-.2-2.64-.85-3.86-1.7-.36.6-4.02,1.39-12.14,1.9-17.95.26-1.1.28,7.35-.56,13.62,1.71-2.91.78-15.93,2.25-16.53,2-16.04-.23-12.11,1.74-25.71-.6-.24,0-3.91-.51-4.67-1.31,3.97-1.43,18.27-2.66,27.08.03-.87.1-2.62.02-2.97-.76,6.31-.89,8.93-1.11,13.37l.13-.55c-.17,7.77-.95,4.72-1.7,9.23-.1,1.77-.96,8.05-.39,7.08l-1.5,8.14.75-.32c-.49,4.63-1.07,5.59-1.12,9.83l.61.27,1.53-11.46c-.46,5.84.42,1.69-.18,8.1.13-7.23-.93,5.02-1.59,5.65l-.2,4.74-.02-1.22c-.76,3.65-.29,4.42-.88,8.71.95-5.04,1.8-8.31,2.1-14.84-.18,4.76-.92,14.14-1.16,16.44-.33,4.98-1.24,8.37-1.87,12.98.83-8.91-2.27,2.88.33-14.85.08.34-.12,1.78-.26,2.33,1.08-2.28,1.22-10.67,1.37-14.57-.58.94-.21-3.11-1.28,3.7.56-2.21.35,5.88-.81,12.34l-.85-1.26-1.27,9.45.06-.89c-1.07,3.48-1.12,10.11-2.3,16.57-.23,4.75-2.77,22.74-.76,15.11-1.35,5.77-1.2,10.99-1.86,17.38l1.39-7.89c-.46,9.48-.58,6.72-.38,14.37-.36.73-.79,2.37-.89.81-1.62,12.6-4.02,30.58-4.02,38.07-1.03,8.88-2.36,10.15-3.19,22.67-.12,2.64,1.11-1.95.02,6.27-.13.55.03-8.03-.78,1.18.11,6.62-1.86,15.35-1.92,23.94-.62,4.48-1.12,12.3-1.6,10.63.34-3.56.68-7.87.9-11.48.26-3.61.41-6.53.33-7.31.28,1.02.8-5.04.62.24,1.39-10.74.25-7.03,1.48-16.67-.18-.69-1.15,4.91-1.13,7-.84-.03,1.46-19.11-.38-10.61-1.07,10.34.34,13.56-1.29,22.45-.18-3.64.7-9.22.3-13.86l-1.01,7.34.13,5.4-.09-.33c-.96,6.47-.96,9.51-.82,12.37.16,2.87.4,5.57.24,11.41,1.01-6.7,1.33,1.66,2.01-3.39-.4,7.78-.88,13.48-1.71,13.48.28-14.6-.83-.88-.76-14.4-.45,2.19-1-3.3-1.62,4.73,0,9.09.86-2.66.55,6.38-.11.53-.22,1.08-.32.75.15,4.18-.43,4.84-.23,9.89l-.1-1.2c-.82,6.17.19,6.8-.55,12.11.69-2.11.37,3.6.63,6.92.46-5.4,1.35-8.28,1.89-18.93-.42-1.31-.73-.55-.73-4.94l-.3,6.93c0-1.5-.07-2.64-.09-4.02.2-2.21.39-4.43.63-6.64-.16,8.45.61,4.62.91,8.22-.6,7.7-.23,6.37-.56,11.21-.35-.26-.79,3.45-1.25,8.33-.46,4.88-.77,10.94-1.11,15.39.04-1.38.09-3.16.12-4.13-.31-6.47-.69,4.43-.89,4.67l.33,4.71c-.05-.89-.21-2.11-.32-.11.13,6.38.76,6.01.98,12.36-.38.48-1.06-4.89-1.21-.93-.3,1.36-1.22,5.73-.65,14.19.17.6.33,2.79.49,5.32-.03-.35-.06-.8-.1-.95l-.23,5.64c-.82-4.77-.06-9.7-.83-14.49l-.64-.4c-.06-3.75-.41-8.85-.77-11.19-.03,5.73.16,6.94.38,13.34-.39.91-.75-3.6-.81-4.25l.38.95c.21-3.83.01-6.68-.23-9.77-.21-3.09-.44-6.42-.36-11.18.03-1.44.08-.56.19-.24-.32-3.86-.11-7.67-.02-11.46.06-1.89.1-3.78.11-5.67.03-1.88,0-3.76-.14-5.64l.24,2.45c-.05-2.56-.13-6.33-.22-10.72-.04-4.39-.08-9.39-.12-14.39l-.24-.1c-.22,1.1.03-2.64.26-4.64h0c.02-5.01.05-9.83.17-13.77-.25,1.24-.5,2.84-.68,4.68.17,1.58-.65,10.73.09,9.52-.71,4.21-.47,11.07-.88,14.16.72-5.65.42,3.98.73,4.98-.49,1.89-.28,8.4-.82,7.64-.19,1.11.48-2.77.23-5.19-.3-5.96-.87,10.86-1.09,3.44,0,2.36-.02,4.9-.07,7.54-.02,2.64-.05,5.38-.07,8.13-.09,5.5,0,11.04.24,15.9l.25-5.44c-.05,2.16-.06,5.79-.08,8.98.01,3.19.03,5.94-.1,6.32-.04-1.61-.09-3.35-.14-5.2-.03-1.85-.06-3.82-.09-5.87-.32-.1-.33,2.37-.31,4.92.06,2.55.16,5.18-.03,5.41.43,3.97.76,7.95,1.29,11.91-.05-1.74-.11-3.48-.11-5.22.19,1.64.32,5.19.38,9.34.03,2.08.06,4.3.09,6.52.09,2.21.17,4.41.25,6.43-.54-2.3-.79-5.35-.84-8.89-.06-3.54-.09-7.56-.4-11.82-.42-6.18-.78,3.84-1.07-2.01-.21,1.52-.04,5.35.24,7.23l-.08,2.32c-1.02-5.21-1.07-16.96-1.72-24.77.08.69.17,1.28.26,1.5.33-6.02.31-12.13.28-18-.32,3.1-.17,4.33-.12,6.1-.2.22-.16-5.32-.33-7.42-.35,5.45-.49,1.01-.69,4.46-.11-3.56,0-6.44.19-10.78.37-2.24.35,1.87.76,1.42-.1-4.47.93-6.47.72-13.01-.47,8.67-.81-2.32-.86-5.32l-.1,1.45c-.31-2.77-.21-5.11.31-6.99,0,3.56-.31,6.99.21,6,.1-2.34.2-4.68.2-7.34l.21,2.43c.16-3.88.34-7.77.58-11.65-.29-1.87-.67-4.98-1.16-6.64.54-2.77.56-6.67.61-9.33l.08,1.24c.71-5.11,1.41-16.53,1.14-17.52.63-3.62.07,26.05,1.97.17.86-9.83-.59-6.22-.47-11.87,0,0,.09.33.22-.22.5-4.29.09-4.77.27-8.31-.44,2.56-.8,6.29-.75,7.51-.37-1.34.91-8.95.89-12.28.3,4.35,1.15-8.27,1.18-4.91,1.39-8.48,1.82-17.66,1.8-22.2,1.6-5.67,1.05-10.15,2.61-19.47-.2,1.44-.38,4.07-.72,6.07-.05,5.41,1.48-9.67,1.03-1.39.12-1.77-.3-.16-.42,1.65-.32,3.16-.4,6.16-.04,5.4l1.43-7.57-.18,2.68,2.12-11.5c-.08-.33-.36.74-.5,1.29,1.96-13.39,3.47-28.79,5.04-40.53-1.38-2.42,2.89-29.01,2.97-38.63.18,2.6.85,4.09,1.39,2.56-.18,2.13-.02,6.54-.76,11.33-.36.73-1.39,6.63-1.23,2.77-1.43,13.29.95-1.71,1.09,2.29,1.64-14.73,1.69-23.47,2.35-32.79l.22-.21.43-7.05c-.77,5.71-1.66,5.32-.51-2.02l-.05.9c.85-4.17,1.36-12.97,2.07-19.54l-.09-4.51c.73-6.58,1.74-6.77,2.56-8.85,1.06-10.33.67-16.37.78-23.75.69-3.28,1.91-18.76,1.86-10.52.13-4.68-.49-6.57-.81-9.29-.16-1.36-.25-2.92-.18-5.13.05-2.21.27-5.08.77-9.06l.26,4.16c.06-1.91.12-3.92.19-5.99.05-2.07.04-4.2.06-6.35,0-2.15.02-4.32.03-6.47-.03-2.15-.05-4.27-.08-6.33-.02-2.06-.04-4.05-.06-5.94-.04-1.89-.07-3.67-.1-5.3-.05-3.27-.01-5.95.05-7.71.84,2.8,1.12-1.97,1.37-7.8.26-5.83.29-12.72,1.01-14.12-.29.77-.72-4.97-.96-5.8.11-1.27.16-3.38-.28-5.58.04,5.98-1.81-4.09-.55,7.26-.69-2.85-1.32-6.12-1.92-10.24-.32-2.06-.61-4.34-.89-6.88-.25-2.55-.52-5.36-.82-8.5l.65.13c.26,3.32.45,6.65.62,9.97.39-1.04.74,4.09,1.11,6.18-.51-9.28-.1-8.71.26-8.18.18.27.34.52.37-.48.03-1-.07-3.25-.54-7.99-.57-1.8-.3-.62-.91-5.54.23,2.32.7,2.69.37-1.05l-.88-3.53c.17-3.36.63-.64,1.07,2.2.41,2.85.76,5.83.88,2.97.56,3.65,1.27,8.63,1.75,12.42.51,3.79.97,6.36,1.28,5.15-.29-6.02-.87-8.7-1.51-11.43-.64-2.73-1.18-5.54-1.67-11.81l.2-1.37c-.71-4.38-1.33-5.03-1.93-7.39.17-.24.17-1.37-.12-4.2-1.69-7.32-2.57-12.19-4.4-18.87.8,4.5,1.3,7.73,1.65,10.33.34,2.6.48,4.57.65,6.55.16,1.99.33,3.99.63,6.66.26,2.68.65,6.03,1.3,10.71-.29-1.46-.83-5.48-1.43-9.23-.6-3.75-1.34-7.21-1.81-7.56l.65.1c-1.05-6.05-2.24-12.06-3.15-19.71.37,1.53.7,3.06,1.04,4.6-1.91-10.03-1.66-16.93-4.1-24.68.43,2.81.85,5.08,1.25,6.8-.59-2.56-1.16-5.47-1.68-8.44-.56-2.96-1.11-5.99-1.59-8.8-1.07-3.81-2.21-7.57-3.37-11.35.34.04-1.24-7.3.02-3.87-1.35-8.44-3.16-12.19-4.37-17.01-1.22-8.75,1.92,7.39,2.97,8.03-2.35-11.86-5.27-24.44-7.02-31.16.33,2.48.45,3.69.27,3.6.12-.4-.83-5.25-1.27-7.98l-.71-1.81c-.44-4.61-.1-3.99.81-.17-.64-4.34-2.12-9.48-2.03-14.09,1.26,7.49,2.42,16.98,3.42,20.76-1.59-7.66-1.79-11.66-2.1-16.13-.1-2.25-.28-4.62-.45-7.69-.06-.77-.12-1.57-.18-2.43-.05-.86-.11-1.78-.17-2.75-.16-1.96-.25-4.12-.39-6.6.19-.25.68,3.09.56-.73-.24-4.42-.43-4.99-.67-4.81-.25.19-.53,1.14-.77-.24.43,6.83.27,9.99.05,14.07l-.45-1.83c.08-.14.04-1.31.03-2.59,0-1.27,0-2.67.06-3.3l-.72-1.09c.38.24.66-1.36.79-3.7.16-2.33.24-5.39.08-8.09-.52,5.45-.5,3.98-1.35,5.47-.87-7.62.78-8.57.12-17.08.19.64.26,8.06.56,1.66.21-5.28-.38-4.6-.44-8.15.47,4.02.98,3.01,1.55,7.35-.05,4.7-.06,5.64-.07,6.56.02.92,0,1.81.17,6.41l.25-3.89.34-3.88c-.04,3.97.15,5.42.36,5.95.2.53.41.16.53.48.78-13.53-.81-10.23-.34-18.93-.27-4.22-.41,8.15-.6,1.57.43-8.14-.34-1.87-.14-11.02l.21,1.54c.51-2.77.24-5.54.39-8.76.06-3.54-2.49,3.85-1.48-10.69.12.72.21.99.29,1,1.4,4.85,2.84,9.7,4.29,14.52.88-14.7,2.53-31.56,3.96-48.49.64-1.96.67,1.08.58,4.48-.1,3.41-.3,7.18-.03,6.68l-.79,7.72c-.39-.47,1.05-16.22-.22-9.29-.68,13.68-1.72,19.85-1.71,32.89,1.28-3.96,1.06-17.09,2.5-25.47-.33,3.54-.45,6.53-.52,9.45.73-7.91,1.54-16.37,2.28-25.39l-.12-2.04c-.48,6.08-.91,10.27-.97,10.81.69-8.05.49-14.89-.22-15.46l-.11,1.43-.07-2.92c.14-1.89.29-3.77.43-5.65ZM33.35,54.2c.07.49.16.88.27,1.16-.11-.3-.18.04-.27-1.16Zm-9.73,675.24c-2.16-10.54-4.09-21.19-5.43-31.38.54,9.29,1.5,17.22,1.37,18.99-.06.89-.39.24-1.05-2.55-.64-2.79-1.68-7.72-2.8-15.45l-.39-2.01c.34,4.08,1.44,11.05,2.8,17.53.76,2.59,2.47,8.01,4.08,12.73.8,2.36,1.55,4.56,2.12,6.15.57,1.59.94,2.57.97,2.52,0-1.94-1.04-4.53-1.63-7.92l-.05,1.39Zm-.81,8.01c1.15,6,1.18,4.57,1.67,5.43-.5-2.09-1-4.18-1.49-6.24.1.81.09,1.22-.18.81Zm1.88,5.01c-.14-.67-.25-1.25-.28-1.55l.28,1.55Zm-8.74-117.77c-.01.27-.02.37-.03.63.13-1.44.25-2.88.39-4.38-.09.58-.21,1.69-.36,3.75Zm-1.52,12.32l.47,1.48c.09-1.34.19-2.71.29-4.11-.28.45-.52.92-.76,2.63Zm-2.45,39.92c.62,2.5,1.34,10.98,2.17,11.41.24.52.15-1.26.03-3.25-.06-1.11-.13-2.26-.2-3.44-.08-1.18-.13-2.4-.14-3.66-.11-.08-.23-.58-.36-1.41-.02,2.48-.13,4.16-.64,3.17.4-3.22.17-4.64-.15-6.13-.16-.75-.35-1.51-.49-2.52-.12-1.01-.18-2.27-.13-4-.27-1.1-.39.83-.42,3.3,0,2.47.19,5.48.32,6.52Zm2.56,524.88c-.08.19-.31.84-.6,1.77l.05-4.87c.96-8.6,2.69-15.39,2.59-23.23.61-3.6,1.31-5.49,1.9-7.3-.21,1.77-.43,3.42-.63,4.8-.47,10.92-1.06,13.71-1.7,15.98-.61,2.27-1.32,4.01-1.6,12.84Zm12.33-98.63c-.06.89.02,1.22.02,1.22,1.01-19.34,2.6-35.17,3.9-45.5-.79,1.94-2.34,11.16-3.12,15.53l-.14-3.98.79-2.37.26-6.84c-.65,1.84-1.23,7.32-2,10.93.08.33-.65,12.13-.68,15.45l1.59-9.3c-.48,2.5-1.89,14.93-2.35,19.87.3.13,1.84-8.28,1.3-9.43.59-.95-.63,8.82.64,2.7-.42,7.39-2.29,18.99-3.18,24.37l-.89.82c-1.03,5.9.44,4.12-.87,11.12.9-8.69-1.04,1.36-.25-5.54-.56,2.17-.84-.06-1.61,6.87.34,5.88-1.53,7.21-1.26,12.76-.74,3.6-.16-3.99-1.13,3.16-.41,8.27.03,7.84.72,8.44,1.1-7.65.02-8.74.94-14.99l-.17,12.63c.45-2.28.66-3.98.78-5.41-.22,2.52-.27,4.67-.22,6.52.02,1.06.04,2.03.05,2.93.82-7.07,1.57-13.35,2.02-14.42l.25,1.02c.62-2.46.86-6.57.82-8.49.71-6.33.99-12.72,1.63-14.04l.04,2.44c.85-7.79.91-8.67,2.13-18.45Zm15.89-256.24c-1.04,4.86-1.56,10.14-.4,32.25l-.16-1.74c-.15,5.59.19,11.01.62,16.75.3,5.74.68,11.79.11,18.58-.44-6.59-.41-6.24-1.62-13.49l.43,7.05c-.71-1.95-.38,5.08-.47,10.26l-.83-4.58c.32-3.1.35-11.15.14-10.91.05.88.31-1.78.51-5.5.17-3.72.22-8.51.02-11.87-.57.71.01,14.91-1.1,8.59.53,5.58-.11,6.28.16,12.12-.45-5.6-.81-1.38-1.27-5.54.08,3.19.21,6.37.25,9.56-.14.25-.53-13.92-1.18-6.09.4,3.83-.15,14.04.5,14.23l-.2.23c-.25,7.16.83,3.17.27,11.96.32.11.58-1.56.59-4.71-.1-2.67-.45-3.09-.5-8.57.52-2.45-.13,6.62.75,2.82.43-1.89-.23-14.5.67-10.48l-.2,7.16c.64.19.55,5.38,1.04,5.25.11,4.39-.66,8.51-.3,13,.33,1.87,1.23-1.34.59,6.06-.55,2.88-1.1,8.57-1.49,14.35-.43,5.78-.81,11.64-.97,14.84l-.06,5.62c.21-.22.43-2.89.6-5.05.16-2.16.29-3.82.42-2-.15,2.91-.37,5.82-.55,8.73l-.19-.69c-.3,2.88-.28,5.86-.37,8.51-.22-2.75.48-9.02-.28-7.83-.48,4.08-.76,4.68-.96,8.45.03-.83.03-1.54-.08-1.44-1.05,8.24,0,8.06.02,10.15.08,8.4,1.58-8.31,2.15-7.19l-.95,12.17-1.05,12.17c0-2.1,0-4.21-.35-3.45-.92,5.92-.5.08-1.36,8.45.95-.5-.56,10.59-.74,16.54-.68,2.72-.82,3.27-.14-2.76-.66.63-1.36,8.74-1.75,11.62-.05,1.68-.31,4.54-.39,6.35.58-2.38.82-1.31.45,3.95l.09.32c1.19-8.54,3.36-21.8,3.35-27.24l.12,1.55c.79-4.94,1.13-10.37,1.43-15.12.29-4.76.59-8.83,1.38-11.07.39.47.3-1.99.91-1.75l.19-7.37.14,1.55c.34-4.16.69-8.32.98-12.48l.09.34c-.08-5.98-.14-10.66-.27-14.4-.27-.03-.39.34-.45-1.65,0-1.99.1-3.5.23-4.84,0-.01,0-.01,0-.01h0c.32-3.05.82-5.07,1.2-8.83l-.31,5.81-.39,5.8c.4.98.96.03,1.7-5.64-.15,2.33.14,3.33.41.45-.08-.32.15-7.64-.38-4.88.56-11.04,2.51-28.93,1.55-45.76.26,6.04.4,3.62.55,1.37.08-2.25.19-4.34.26,2.37.42-4.68.16-6.7-.1-8.74-.3-2.04-.59-4.09-.67-8.86.12-.41.15.89.21,2.56.05,1.67.11,3.72.39,4.82.1-15.89-1.84-26.73-2.59-42.03l.53-.69c-.29-2.89-.61-6.1-.94-9.44Zm-3.81-30.1c-.44-2.92-.84-5.88-1.34-8.88.04.29.07.57.11.88l-1.7-8.71c.53,5.42.4,9.05-.96,1.56.33.6.31-1.65.82.95-.09-1.27-.24-2.93-.41-4.64-.19-1.71-.43-3.48-.66-5-.46-3.04-.92-5.06-1.13-3.55,2.34,9.55-.73,2.42,1.03,9.94-1.16-4-1.58-8.07-2.43-11.88,1.1,3.93.97-1.11.11-7.16-.3-1.3-.72-3.72-1.2-6.36-.51-2.63-1.09-5.47-1.62-7.62-.23,1.65-1.26-2.06-.04,5.01-.65-2.56-1.49-6.54-2.13-11.07.47,1.75,1.11,4.85,1.27,4.6-.05-3-.79-6.37-.96-8.28-.34-1.48-.69-2.98-1.03-4.43.05.44.07.84.05,1.12l-1.53-4.84c1.68,6.52.41,3.09.09,3.07.65.04-.84-4.25-1.36-6.49l.42,5.03c-.84-2.29-1.36-8.44-1.73-7.07,2.01,10.43,3.02,14.36,5.02,23.73l-.22-3.92c1.2,5.27,1.3,6.95,1.38,8.8.1,1.84.14,3.86,1.19,9.83.33,1.22.7,2.95,1.07,4.87.33,1.92.7,4.02,1.04,5.97.69,3.9,1.33,7.2,1.8,7.26-.51-1.46.24,7.59,1.2,11.65.71,2.22,1.53,6.78,2.15,10.26.58,3.48.95,5.88.93,3.76-.35-3.75-1.51-8.7-1.31-11.77l1.08,7.22-.12-4.81c.14,2.48.57,2.18,1.12.97Zm-18.36-161.05c0-.08.01-.18.02-.28,0,.11,0,.21,0,.31v-.03Z"/>
      <path class="cls-1" d="m12.46,1309.76c.29,2.09.43,7.26.86,6.23-.51.14-.4-9.24-.86-6.23Z"/>
      <path class="cls-1" d="m12.17,1315.97c.14.36.32.1.42,2.42l-.35-6.39-.07,3.97Z"/>
      <path class="cls-1" d="m8.94,1322.62c.57,3.3.9,5.38,1.16,10.58-1.13,2.03-.83-8.49-2.13-10.8.21,4.78.63,7.89,1.07,10.78.43,2.89,1,5.56,1.35,9.47.05-.98.03-2.71-.05-4.75-.09-2.04-.2-4.4-.3-6.65-.23-4.49-.63-8.52-1.11-8.64Z"/>
      <path class="cls-1" d="m7.18,1318.45c.15,1.77.31,3.54.52,5.31l.04-.53c-.21-1.77-.35-3.54-.51-5.31l-.05.53Z"/>
      <path class="cls-1" d="m21.59,1204.39c.43-.44.33-3.74.39-5.5-.15,1.42-.43,3.41-.39,5.5Z"/>
      <path class="cls-1" d="m51.89,171.99c-1.41-13.5-3.12-26.89-4.79-40.23,1.41,11.53,2.8,22.17,4.79,40.23Z"/>
      <path class="cls-1" d="m34.25,1071.24c-.97,10.81-.9,15.67-2.1,26.65,2.58-14.31,1.16-19.19,3.45-31.2l-1.35,4.55Z"/>
      <path class="cls-1" d="m36.86,1075.42c-.95,1.69.18-8.41-.55-6.91-.72,7.28.28,3.46-.6,10.04l1.16-3.13Z"/>
      <polygon class="cls-1" points="18.76 1122.68 18.78 1119.37 18.6 1122.01 18.76 1122.68"/>
      <polygon class="cls-1" points="42.06 1026.2 42.09 1027.42 42.91 1022.02 42.06 1026.2"/>
      <path class="cls-1" d="m42.12,1028.63l-.03-1.21.03,1.21Z"/>
      <polygon class="cls-1" points="17.71 1118.29 16.96 1123.13 17 1125.57 17.71 1118.29"/>
      <path class="cls-1" d="m26.94,1075.98l-.31,4.36c.06-.87,1.1-6.76.31-4.36Z"/>
      <polygon class="cls-1" points="45.79 993.1 46 987.76 45.88 988.3 45.66 993.62 45.79 993.1"/>
      <path class="cls-1" d="m29.05,1041.81c-.91,2.93.86-8.66-.35-2.56-.56,5.49,0,3.3.35,2.56Z"/>
      <path class="cls-1" d="m39.44,978.46c.06-.71.1-1.47.1-2.2-.04.87-.07,1.59-.1,2.2Z"/>
      <path class="cls-1" d="m39.44,978.46c-.2,2.31-.59,4.59-.58,6.19.52-2.85.49-3.91.58-6.19Z"/>
      <path class="cls-1" d="m41.29,952.02l-.16,2.09c-.15-2.16-.17-1.14-.06.78-.13,2.22.05,2.11.15,2.38.04.45.08.89.12,1.38-.03-.69-.05-1.31-.07-1.83.25-3.44.31-5.54.02-4.8Z"/>
      <path class="cls-1" d="m50.28,852.96c.2,3.92.27,6.39.24,7.83-.02,1.44-.14,1.85-.37,1.65.28,7.44,1,6.24,1.35,10.72-.21-4.21-.34-6.74-.48-9.48-.14-2.74-.27-5.69-.74-10.71Z"/>
      <path class="cls-1" d="m51.51,873.16c.05.94.1,1.84.16,2.94-.04-1.22-.09-2.13-.16-2.94Z"/>
      <polygon class="cls-1" points="34.17 982.49 33.9 977.65 33.84 979.41 34.17 982.49"/>
      <path class="cls-1" d="m49.57,841.34c.1,1.45.35,3.77.27,4.93.5.38-.38-6.38-.27-4.93Z"/>
      <path class="cls-1" d="m43.04,871.94c-.24.8.13,5.75.11,7.77-.06-2.9.65-5.29-.11-7.77Z"/>
      <path class="cls-1" d="m45.48,819.15c.16,1.44.11,3.7-.36,2.78.42,2.07,1.54,4.82.36-2.78Z"/>
      <polygon class="cls-1" points="42.32 857.78 42.25 858.89 42.83 864.18 42.32 857.78"/>
      <path class="cls-1" d="m36.85,876.95c.76,5.9.88-9.45,1.74.74,0-13.19-.67,1.04-1.04-8.67.11,5.69-.48,8.5-.7,7.93Z"/>
      <path class="cls-1" d="m37.55,869.02c-.02-.83-.06-1.72-.11-2.69.04,1.07.08,1.94.11,2.69Z"/>
      <path class="cls-1" d="m31.8,785.58c.21.84.34,1.42.49,1.95-.15-.66-.3-1.3-.49-1.95Z"/>
      <path class="cls-1" d="m34.86,838.12l1.58,8.78c-.52-2.94-1.12-8.12-1.66-12.44-.62-4.32-1.18-7.77-1.52-7.27.18,2.41.47,5.05.8,7.38.29,2.34.61,4.37.88,5.54l-.08-1.99Z"/>
      <path class="cls-1" d="m32.21,734.48l1.13,3.7-.95-4.72c.18,1.37-.91-.94-.19,1.02Z"/>
      <path class="cls-1" d="m32.21,732.55l.18.91c-.02-.2-.08-.49-.18-.91Z"/>
      <path class="cls-1" d="m34.74,802.21c.35,2.86.69,5.15,1.2,7.73,0-1.1-.87-8.24-1.2-7.73Z"/>
      <path class="cls-1" d="m25.69,708.36l1.28,6.13c-.44-2.24-.9-4.47-1.31-6.71l.02.57Z"/>
      <path class="cls-1" d="m23.49,679.73c.02-.35.07-.71.1-1.06l-.45-5.11-.11,1.09.46,5.09Z"/>
      <path class="cls-1" d="m13.6,719.97c.78,4.31,2.18,7.49,2.08,6.34-.59-2.75-1.17-5.51-1.72-8.28-.18,2.23.46,2.31,1.31,7.14l-1.67-5.19Z"/>
      <path class="cls-1" d="m18.45,459.17c.28.88.65,3.53.91,6.03.29,2.51.46,4.87.31,5.13-.36-1.18-1.16-5.97-1-2.91.64,2.3,1.35,4.61,2.03,6.92.43,4.79-.18,3.04-1.03-.49-.83-3.51-1.86-8.76-2.28-11.04,1.07,9.56,2.3,12.28,3.87,22.7-.38-3.1-.43-5.06-.47-6.71.64-.47,1.88,9.25,2.86,16.29-.29-4.51.31-1.96,1.02,1.26.1.58.19.97.27,1.24.08.38.16.73.24,1.1l-.1-.85c.09.05.16-.15.21-.77-.97-5.89-1.07-10.46-1.63-14.23-.29,1.94-.84-1.25-1.47-5.46-.63-4.21-1.26-9.37-1.73-11.62-.28-1.75-.51-3.49-.77-5.23l-.21-1.96c.1-.41.28.13.86,3.09-.28-1.23-.58-3.92-.87-6.21-.24-2.29-.48-4.17-.63-3.77-.23-3.17-.43-6.36-.51-9.54-.05-1.59-.13-3.18-.16-4.78l-.02-4.78c.04-.6.1-1.19.18-1.63-.08-.66-.14-.77-.19-.69.13-6.95.37-13.9,1.03-20.84.25-3.47.71-6.94,1.07-10.41.49-3.46.88-6.93,1.47-10.39,2.14-13.85,5.19-27.63,8.61-41.42-1.09,4.06-2.23,7.53-3.31,11.71.71-6.5-1.73,6.88-1.98,4.87.34-2.91,1.43-7.05,2.17-9.49-.14-1.01-1.28,2.45-1.61,1.94-2.86,10.39-1.49,12.36-3.71,22.56-.36-.48-.16-3.74-1.32,3.01l.22-1.73c-.38,2.72-.69,4.59-.96,5.98-.27,1.39-.52,2.3-.73,3.1-.43,1.58-.64,2.68-.51,6.17l-.6-.26c-.13,2.49-.42,6.12-.75,9.81-.19,1.84-.27,3.71-.42,5.44-.11,1.74-.28,3.35-.31,4.7l-.1-.33c-.04,3.8-.07,6.23-.09,8,0,1.77-.02,2.9-.06,4.07-.08,2.36-.23,4.95.1,13.45-.38-2.6-.57-5.21-.84-7.82-.32,5.89.58,7.2.65,11.4-.13-.3-.56.7-.82-3.28.54,6.89,1.42,13.73,2.57,20.5,1.08,4.83.32-1.05.54-1.83Z"/>
      <path class="cls-1" d="m21.26,485.5c.14,1.12.32,2.4.55,3.9-.19-1.46-.37-2.71-.55-3.9Z"/>
      <path class="cls-1" d="m31.8,341.39l-1.48,5.82c.5-1.79.99-3.67,1.48-5.82Z"/>
      <path class="cls-1" d="m26.33,515.94c-.02-3.75.73,2.74,1,3.37-.38-4.44-.8-8.88-1.29-13.33-.24.09-.65-1.2-.84-.91.41,3.62.8,7.24,1.13,10.86Z"/>
      <path class="cls-1" d="m26.06,502.07c-.22-.43-.54-1.82-.88-3.39.28,2.43.61,4.86.86,7.3.17-.07.28-.9.02-3.91Z"/>
      <polygon class="cls-1" points="13.3 504.96 13.01 502.67 12.4 499.23 13.3 504.96"/>
      <path class="cls-1" d="m9.22,468.84c0,2.84,1.1,8.03,1.46,9.76-.94-6.02-.42-3.43-1.46-9.76Z"/>
      <polygon class="cls-1" points="6.41 476.92 5.32 471.08 5.33 471.64 6.41 476.92"/>
      <path class="cls-1" d="m40.86,297.47c.22-.94.44-1.86.67-2.81-.33,1.28-.51,2.13-.67,2.81Z"/>
      <path class="cls-1" d="m28.62,346.24c2.06-6.64,1.64-4.4.95-1-.69,3.4-1.57,7.95-.62,5.94.49-2.46,1-4.92,1.53-7.38l.08.68c.72-2.98,1.47-5.96,2.23-8.94-.88,1.73-1.27,3.09-1.59,2.59,3.3-11.88,1.49-3.63,4.35-12.23l3.52-13.4-.16,1.12c.29-1.13.38-1.64.41-2.05,3.93-15.11,7.79-30.4,10.66-46.05,1.27-8.58-1.67,4.56-1.11-1.84-.46,2.46-1.01,5.22-1.63,7.96-.59,2.75-1.22,5.5-1.79,7.96-1.1,4.94-1.97,8.74-1.62,9.26-.04-.35-.12-1.05-.69.89l-.7,5.75,1.56-5.26c-.35,2.89-1.7,8.86-3.18,14.46-1.48,5.59-3.05,10.84-3.7,12.39,1.25-5.12,1.32-6.46,1.61-8.28.29-1.82.81-4.11,2.88-11.19-.38.59-1.44,3.1-.72-.14-4.05,16.79-8.66,31.48-12.24,48.76Z"/>
      <path class="cls-1" d="m51.47,174.73l.09.13c-.07-.31-.11-.41-.09-.13Z"/>
      <path class="cls-1" d="m51.87,180.53l1.51,8.37c-.34-4.39-.71-8.77-1.13-13.14l-.68-.9c.25,1.14.96,5.72.87,7.52l-.57-1.85Z"/>
      <path class="cls-1" d="m54.48,198.71c-.29-3.42-.64-5.02-.91-5.3-.27-.28-.45.76-.51,2.63-.71-6.23.55-3.35-.47-7.61-.51.18.32,7.85.46,9.63l1.42.65Z"/>
      <polygon class="cls-1" points="51.88 249.69 51.87 247.73 51.11 252.45 51.88 249.69"/>
      <path class="cls-1" d="m51.87,247.73c.27-1.56.44-3.14.67-4.7-.25.3-.5.6-.74,1.35.04,1.12.08,2.24.08,3.35Z"/>
      <path class="cls-1" d="m53.93,230.61c.17-2.02.35-4.25.51-6.96l-.51,6.96Z"/>
      <path class="cls-1" d="m53.29,236.02l.11-.15c.17-1.75.4-3.5.53-5.26-.17,1.95-.43,3.68-.64,5.42Z"/>
      <path class="cls-1" d="m52.53,243.02c.29-.35.59-.74.91-1.9.33-1.15.62-3.09.84-6.54l-.88,1.28c-.13,1.2-.24,2.39-.39,3.59l-.48,3.57Z"/>
      <path class="cls-1" d="m3.53,433.5c-.09-1.8-.23-3.61-.25-5.42l-.09.57c.04,1.8.18,3.61.27,5.41l.07-.57Z"/>
      <path class="cls-1" d="m5.63,402.43c.06-1.33.08-2.35.09-3.27-.1,1.4-.14,2.52-.09,3.27Z"/>
      <path class="cls-1" d="m5.55,379.01c1.62-6.17-.91,8.74,1.4-2.8.66-.93.19,4.57-.86,10.01-.36-.5.57-5.38-.4-2.08-.08,3.72-.64,5.04.21,3.88-.26,3.09-.24,4.83-.23,6.31.02,1.49.07,2.72.06,4.83.11-1.87.44-4.22.81-6.86.34-2.65.85-5.55,1.34-8.52.99-5.94,2.14-12.09,2.68-16.8.3-5.25-1.4-2.39-2.53-2.65-.23.35-1.03,3.86-1.7,7.35-.66,3.5-1.1,7.02-.78,7.33Z"/>
      <path class="cls-1" d="m2.8,388.74c-.46,2.93-.54,3.84-.69,5.66.45-.43.38-3.27.69-5.66Z"/>
      <path class="cls-1" d="m25.7,325.23c-.02-.58,1.14-5.66.58-4.65l-1.85,7.69c.51-1.79.87-2.37,1.27-3.04Z"/>
      <path class="cls-1" d="m23.63,331.65l.8-3.38c-.24.84-.5,1.88-.8,3.38Z"/>
      <path class="cls-1" d="m25.9,324.9c-.07.11-.12.21-.2.34,0,.12.04.1.2-.34Z"/>
      <path class="cls-1" d="m54.77,210.8c.16.06.18-.83.15-1.96-.04-1.12-.17-2.46-.24-3.37.03,1.47,0,3.53.08,5.32Z"/>
      <path class="cls-1" d="m41.5,78.44l.07-3.08c-.08,1.09-.14,1.65-.07,3.08Z"/>
      <path class="cls-1" d="m33.22,30.72c-.05-.1-.08-.33-.09-.65,0,.32.04.54.09.65Z"/>
      <path class="cls-1" d="m33.12,30.07c-.03-1.09.24-3.27.6-5.48.17-1.11.32-2.22.45-3.21.15-.99.26-1.85.27-2.46l.07.32c.21-1.48.33-2.97.6-4.44-.86,4.12-2.23,12.82-1.98,15.27Z"/>
    </g>
  </g>
</svg>