<?xml version="1.0" encoding="UTF-8"?>
<svg id="Layer_2" data-name="Layer 2" xmlns="http://www.w3.org/2000/svg" viewBox="0 0 48.66 1462.31">
  <defs>
    <style>
      .cls-1 {
        fill: #ffa520;
      }
    </style>
  </defs>
  <g id="Layer_1-2" data-name="Layer 1">
    <g>
      <path class="cls-1" d="m10.32,1426.05c.18,3.31-.02,6.21-.2,4.97.14,1.68.25,2.95.33,3.93.09.97.16,1.65.2,2.14.1.98.2,1.23.6,1.65.68,4.29.53,8.93-.13,4.04l1.38,12.41-.44-7.45c.76,1.98.71,11.91,1.59,14.2l-1.07-13.46.25.66c-.45-3.05-.8-9.01-.87-11.09.12.32.27.1.47,2.47-.64-8.12-.77-9.21-1.14-9.95-.32-.74-.67-1.12-1.03-7.89.05.85.08,1.9.07,3.35Z"/>
      <path class="cls-1" d="m11.27,1412.15c-.32-1.89-.67-3.77-.96-5.66l.14-9.55c-.26-.1-.51-7.06-.72-2.35.05.92.13,2.74.12,4.21-.57-1.06-.35-12.7-.91-9.9.19,7.56.08,8.72.56,13.37,0,1.73-.02,3.35-.03,4.85.03,1.5.05,2.88.08,4.14.03,2.53.03,4.6-.01,6.22.16,2.05.52,2.33.69,4.94-.03-.58-.06-1.11-.09-1.77l.84-.31c-.26-2.17-.26-4.23-.37-6.64l1.42,11.12c.68-3.63-.27-14.56-.03-18.94-.59,5.45-.54-4.32-.74,6.28Z"/>
      <path class="cls-1" d="m10.23,1422.42c0,.07,0,.19.01.27,0-.08,0-.2-.01-.27Z"/>
      <path class="cls-1" d="m4.74,587.75c-.11-2.39-.29-3.1-.41-3.44.24,8.99.64,17.98,1.33,26.95.17-.86-.09-8.63.4-3.46.05-2.32-.52-9.35-.87-10.35l.44,1.93c-.39-3.09-.4-5.71-.24-7.04.15-1.34.42-1.39.62.62l-.02-.52c-.79-5.7-1.48-11.42-2.08-17.16-.04,6.33.63,4.86.83,12.47Z"/>
      <path class="cls-1" d="m34.72,39.22c.38,3.45.5,3.87.55,3.47-.17-1.24-.35-2.41-.55-3.47Z"/>
      <path class="cls-1" d="m3.51,571.26c-.19-1.8-.35-3.6-.5-5.41.1,2.17.29,4.07.5,5.41Z"/>
      <path class="cls-1" d="m12.78,608.1s.06.06.09-.08l-.43-2.37s0,.05,0,.06c.13.87.24,1.66.34,2.38Z"/>
      <path class="cls-1" d="m15.28,449.31c.11-.57.2-1.06.33-1.74-.13.63-.24,1.2-.33,1.74Z"/>
      <path class="cls-1" d="m24.71,679.37l-2.35-11.67c.48,1.53-.46-4.13.19-1.69-.18-.89-.91-5.07-.86-3.91l.38,2.39c-1.62-6.09-1.35-2.3-3.34-12.49.48,6.44,1.29,9.18,2.12,12.51.21,1.14.39,2.1.57,3.06l2.5,9.62.8,2.18Z"/>
      <path class="cls-1" d="m44.34,205.3l.05.13c-.02-.12-.04-.14-.05-.13Z"/>
      <path class="cls-1" d="m44.62,205.95l-.23-.52c.11.64.23,3.1.23.52Z"/>
      <path class="cls-1" d="m3.96,573.24c-.13-.16-.29-.86-.46-1.98l.41,4.03c.01-.57.03-1.33.05-2.05Z"/>
      <path class="cls-1" d="m5.6,582.37c.08,3.36.24,6.72.39,10.08.17,1.23.32,2.47.51,3.7-.17-1.92-.28-4.01-.44-6.3-.16-2.28-.31-4.77-.47-7.48Z"/>
      <path class="cls-1" d="m11.68,464.87c4.02-20.57-.22,5.2,1.87-4.2,1.06-5.72,1.11-7.8,1.73-11.37-3.05,16.32-.84-2.49-3.97,13.99-.25-2.49,1.65-12.02,3.03-17.52,2.01-6.14-.69,5.59-.32,7.16,1.27-6.6.91-5.46,1.13-8.32,2.37-10.27,3.79-21.42,6-27.33,1.41-7.43.98-7.01,1.49-11.34-.53-.99-2.62,10.92-3.79,13.54.18-.56.54-1.64.57-1.29l-1.52,6.37c1.56-6.03.53,1-.12,4.26-.5,2.37-1.49,7.09-1.55,6.4l.63-3.62c-1.23,4.57-1.69,10.31-3.12,15.13-.22.22.11-1.65.07-1.95-.69,5.59-1.84,10.89-3.12,19.15l.24-4.89c-.28,3.35-1.19,8.72-2.28,14.56-1.1,5.85-2.29,12.17-3.26,17.35.29-1.14.68-3.21.63-1.94-.72,6.14-1.88,10.7-1.85,7.81-.09,3.04-1.01,8.73-1.75,14.72-.41,2.99-.74,6.06-1,8.9-.27,2.84-.41,5.44-.37,7.51.21,12.69.87,25.32,1.96,37.88-.07-1.41-.13-2.92-.14-4.48.33-1.7.52-3.02.66-3.15.15-.14.22.9.49,3.9-.23-5.88-.78-3.65-.51-12.49.07,1.74.32,2.83.56,2.44.23-.4.52-2.28.75-6.5.22-10.56.26-19.38.5-28.03.25-8.65.54-17.16,1.59-27.04.27-.33,1.01-4.34,1.85-9.2.85-4.86,1.91-10.54,2.68-14.24-.03,2.93-.92,8.46-1.79,14.22.63-3.6,1.77-9.78,2.68-14.34l-.65-2.06Z"/>
      <path class="cls-1" d="m5.85,513.78c.1-.52.19-1.06.27-1.62-.07.29-.16.78-.27,1.62Z"/>
      <path class="cls-1" d="m9.35,483.02c0,.08.02.05.04.08.09-.61.17-1.21.26-1.83-.11.62-.23,1.31-.3,1.75Z"/>
      <path class="cls-1" d="m5.06,568.29c.13,1.25.18,2.18.32,3.43-.04-.77-.09-1.74-.13-2.67-.07-.89-.12-1.31-.19-.76Z"/>
      <path class="cls-1" d="m4.21,572.51l-.2-.67c-.02.54-.03.92-.04,1.4.11.15.2-.01.24-.73Z"/>
      <path class="cls-1" d="m31.99,387.77l.23-1.98c-.18,1.18-.24,1.7-.23,1.98Z"/>
      <path class="cls-1" d="m17.22,442.22c-1.47,7.11.52.99-1.6,11.05l.66-2.94c-1.23,7.27-3.94,19.97-5.4,28.66-.13-1.03-1.24,5.21-1.51,4.12-.9,5.96-1.62,11.89-1.61,15.02-.63,3.68-.97,9.34-1.66,14.04.49-1.96.17,6.8,1.12-4.69-.07.93.06.36,0,1.27,1.27-7.32,1.02-10.35,1.94-16.68.82-3.74-.47,6.25.16,2.7.42-3.97,1.49-10.14,2.35-15.27.87-5.12,1.55-9.19,1-9.03,1-5.72,1.41-6.45,1.92-8.12.69-9.24,7.5-33.13,6.13-33.32-.65,3.27-1.83,8.57-2.58,13.42l-.93-.23Z"/>
      <path class="cls-1" d="m5.22,556.08c.02-.45.04-1.04.06-1.41-.02.42-.04.94-.06,1.41Z"/>
      <path class="cls-1" d="m6.34,648.11l-1.3-2.91c-1.21-8.62-1.88-14.52-2.39-20.17-.28-2.82-.48-5.58-.72-8.59-.26-3-.46-6.26-.73-10.07.04-1.17.25.67.35,1.61-.23-2.68-.4-5.69-.56-8.82-.19-3.13-.3-6.39-.41-9.55-.14-3.16-.19-6.24-.29-9.01-.11-2.77-.17-5.24-.28-7.2-.05-3.42.39-12.38.6-8.99-.05-1.66-.12-3.56-.04-5.47.32-.5.02,4.28.29,4.39.04-1.51.11-2.1.02-2.45.26,2.55,1.11-2.62.98,9.24-.37,2.29-.41.24-.43-2.06,0-2.29,0-4.82-.44-3.47-.06,3.94.27,3.48.37,3.82-.01,5.02-.22,4.89-.41,4.62.14.96.1,3.02.12,5.17.03,2.15.08,4.39.31,5.72.33,9.75-.67-.51-.45,5.86l.98,3.64c.07,3.53.24,7.06.36,10.59.67,7.64,1,7.07,1.37,6.77.39-.3.72-.32,1.72,8.36-.32-1.12-.51.07-.56,2.57,0,2.49.1,6.3.49,10.35-.32-2.42-.78-5.86-1.26-9.48-.43-3.63-.84-7.44-.96-10.59.02,4.45-.27,1.41-.53-2.17-.29-3.58-.59-7.7-.83-5.37.33,2.18.63,5.1.88,8.18.28,3.08.53,6.33.67,9.19l-.24-1.86c.46,6.06,1.8,10.54,2.47,18.88.53,4.12.2,3.38-.08,2.68.55,3.47,1.15,6.56.96,6.6Zm-1.32-8.95c-.2-1.84-.4-3.69-.57-5.54,0,1.33.25,3.39.57,5.54Z"/>
      <path class="cls-1" d="m12.25,1335.38c-.05.54-.1,1.17-.15,1.66.06-.36.1-.99.15-1.66Z"/>
      <path class="cls-1" d="m39.94,847.14l.13,3.2c-.03-1.25-.08-2.27-.13-3.2Z"/>
      <path class="cls-1" d="m45.4,918.83l.29,4.68c-.04-1.85-.16-3.29-.29-4.68Z"/>
      <path class="cls-1" d="m14.68,1297.5l.02-.15c0-.26,0-.46.01-.74l-.03.89Z"/>
      <path class="cls-1" d="m39.51,1062.98c-.13.71-.25,1.5-.39,2.58.09-.12.23-1.09.39-2.58Z"/>
      <path class="cls-1" d="m45.35,917.97c0,.12,0,.19,0,.28.02.18.04.38.06.58l-.05-.86Z"/>
      <path class="cls-1" d="m40.5,815.39c-.08-.69-.15-1.31-.23-2.04.09.96.16,1.55.23,2.04Z"/>
      <path class="cls-1" d="m38.4,820.06c-.07-.74-.15-1.44-.22-1.98l.22,1.98Z"/>
      <path class="cls-1" d="m27.87,709.71l-.8-4.24c.35,2.09.59,3.33.8,4.24Z"/>
      <path class="cls-1" d="m38.16,808.64c-.06-.25-.11-.49-.16-.66.07.59.14.87.16.66Z"/>
      <path class="cls-1" d="m8.68,1362.52c0-.1,0-.2,0-.26l-.1-.11.09.37Z"/>
      <path class="cls-1" d="m9.67,1372.98c0,1.23-.01,2.51-.02,3.77.04-1.4.04-2.76.02-3.77Z"/>
      <path class="cls-1" d="m32.37,1125.15c-.24,1.12-.66,3.77-.67,2.51-.05,2.19.39,2.09.67-2.51Z"/>
      <path class="cls-1" d="m4.12,1341.37c.08.69.13,1.55.17,2.41-.05-1.6-.08-3-.17-2.41Z"/>
      <path class="cls-1" d="m4.29,1343.78c.03.79.06,1.63.08,2.34-.02-.82-.04-1.61-.08-2.34Z"/>
      <path class="cls-1" d="m28.26,1095.63c.08-.27.17-.71.24-1.3-.13.16-.2.63-.24,1.3Z"/>
      <path class="cls-1" d="m9.46,1379.79c.21.68.74,17.04.76,3.28.63.53.34,8.83.52,12.49.13-2.66.41,1.32.63.51-.09-1.82-.28-3.98-.25-6.98.28-1.38.5,3.18.41,6.74.31-4.39.53,5.56.75-.65-.18-6.63-.33-12.29-.47-17.45-.08-5.17-.26-9.85-.61-14.53-.02,3.79-.05,7.8-.07,11.64-.03,1.92-.07,3.8-.1,5.58,0,1.78-.03,3.48-.09,5.03l-.56-2.61c.18-3.51.34-6.34.37-9.17.04-2.82.03-5.63.14-9.09l-.63,15.51c-.21,3.63-.34,4.23-.44,3.21-.09-1.02-.2-3.67-.15-6.54-.04,1.41-.11,2.68-.2,3.04Z"/>
      <path class="cls-1" d="m4.92,1369.23l-.02.26c.01.23.02.51.04.66l-.02-.92Z"/>
      <path class="cls-1" d="m17.12,712.21l-.41-1.29c.27,1.09.38,1.42.41,1.29Z"/>
      <path class="cls-1" d="m7.77,1360h0c0-.09,0-.12,0,0Z"/>
      <path class="cls-1" d="m21.82,745s-.04-.09-.07-.17c.03.12.05.11.07.17Z"/>
      <path class="cls-1" d="m34.56,752.38c.02-.07.04-.09.05-.23-.11-.71-.1-.36-.05.23Z"/>
      <path class="cls-1" d="m21.87,745.02s-.03.02-.05-.02c.02.02.05.08.05.02Z"/>
      <path class="cls-1" d="m35,905.78s.08-.51.15-1.32c-.06-.31-.11,0-.15,1.32Z"/>
      <path class="cls-1" d="m34.71,873.87c.01-.2.02-.32.04-.58l-.04.58Z"/>
      <path class="cls-1" d="m35.58,1117.88c.17-1.57.28-2.76.36-3.76-.13,1.15-.26,2.39-.36,3.76Z"/>
      <path class="cls-1" d="m21.75,744.83c-.1-.32-.22-.78-.39-1.55.19.84.3,1.28.39,1.55Z"/>
      <path class="cls-1" d="m38.43,954.38c-.02-.34-.04-.66-.06-.98l-.03.58.09.4Z"/>
      <path class="cls-1" d="m37.94,971.03c-.06-.57-.12-.83-.17-1.15.18,5.95-.28,16.86.26,18.17.05-2.02.57-12.47.87-10.68-.07-4.15.39-10.27.31-12.51-.37,6.81-.49.73-.66-3.86.18-4.18.46.79.58-2.81l-.07-9.67-.07,8.42-.55-2.56c.02.31.03.53.05.86.22,14.25-.8,1.21-.54,15.8Z"/>
      <path class="cls-1" d="m37.77,969.88c-.03-.89-.06-1.67-.12-2.28,0,1.34.05,1.87.12,2.28Z"/>
      <path class="cls-1" d="m34.97,1027.98c-.02.73-.04,1.52-.06,2.52.01-.47.04-1.57.06-2.52Z"/>
      <path class="cls-1" d="m6.78,603.3c-.17.26.08,8.59.49,8.41-.12-2.47-.25-4.95-.38-7.45l-.12-.96Z"/>
      <path class="cls-1" d="m22.6,1186.03c.11-.92.22-1.84.32-2.76,0-.2,0-.39,0-.54-.13.55-.25,2.38-.32,3.31Z"/>
      <path class="cls-1" d="m39.06,979.94c-.04-1.52-.1-2.2-.16-2.57.02.99.06,1.9.16,2.57Z"/>
      <path class="cls-1" d="m21.53,1186.43c-.25,1.16-.63,2.86-.82,3.09-.27,2.4-.24,4.1-.43,6.55.25-2.76.65-5.94,1.25-9.64Z"/>
      <path class="cls-1" d="m20.27,1196.27c0-.07.01-.14.01-.2,0,.07,0,.13-.01.2Z"/>
      <path class="cls-1" d="m6.71,598.35c-.07-.71-.13-1.45-.2-2.2l.17,1.14c-.07-1.91-.09-3.81-.11-5.72-.04-.69-.09-1.43-.15-2.35.03.37.08.65.14.83,0-.62-.01-1.23-.02-1.83-.33-2.27-.55-6.24-.81-10.05-.2-3.81-.34-7.47-.48-9.11-.14-4.33-.2-9.64-.03-12.97-.12,3.08-.08,7.18.18,5.95.39-6.26,1.18-9.26,1.08-20.07l-.29,6.32c-.04-2.38-.11-4.76-.13-7.14l-.03-7.14c.73-4.95,0,7.13.26,9.12.13-11.1,2.22-20.17,1.91-25.35.55-.67,1.47-1.8,2.24-9-1.14,5.13.13-4.36-.94-.17,0-2.53,1.2-8.02.88-8.48l.11.7c2.44-12.18,1.99-16.34,2.47-21.66,2.41-14.68,4.17-21.28,6.59-33.14.42-.4,1.99-3.43,2.98-8.17.05-2.3,2.16-13.03,1.84-14.24-2.06,8.42-1.03,7.03-2,12.13-1.5,4.1-.66.26-2.25,5.95,1.23-4.61,4.27-21.09,5.86-26.07l-.3,1.82c2.01-8.07,3.78-9.34,5.5-23.12.3-2.18.54-4.38.81-6.56,0,.32.06.37.08.55,1.82-10.65,2.01-7.64,3.15-19.54-.08.92.06.35-.02,1.29,1.2-6.71,1.34-13.61,1.69-18.74.77-3.08.39.79.55,2.76,1.41-11.91,1.46-24.88,1.24-32.33.25-2.56.44-5.13.65-7.69.01,4.58.19,10.2.55,8.82.14-4.25-.13-3.44.23-9.43.25,1.04.43,3.57.67,6.41,1.06-12.4-.92-2.82.35-11.48.14-3.91-.22-6.19-.57-6.62l.67-7.06c-.44-.8-.27-9.53-.28-15.25-.2-.7-.55,4.6-.42,6.77-.35-.43-.44-6.52-.38-10.44,1.02-1.42.03-25.64,1.14-21-.27-17.6-.35-42.33-.79-53.94.27-3.83.25-11.64.72-6.96-.06-14.17-1.1-21.46-1.02-35.52.11-1.16.1,6.35.41,5.85-.51-9.18.2-16.72-.38-30.97.08,2.4.29,3.09.4,3.42-.14.25-.47-5.83-.73-9.51.03-2.07.19,2.76.28,1.59-.27-27.55-2.49-48.46-4.47-75.74.59,7.79,1.39,10.7,1.67,10.76-.15-2.55-.32-5.1-.52-7.64-.56-2.92-.95-8.66-1.61-13.43.07-.6,0-2.94.36-.57-.33-7.57-1.14-13.43-2.15-19.69-.93-6.27-2.12-12.93-3.03-22.15,1.29,7.37,2.65,14.75,3.79,22.16l-.11-5.58,1.59,9.77c-.24-5.91-1.59-10.93-1.17-11.69.26,1.23.53,4.22.8,4.29-.37-5.66-.83-6.06-1.41-10.29,1.19,5.52,2.24,13.77,3.23,22.11.43,4.18.86,8.37,1.26,12.26.36,3.89.69,7.48.96,10.43.22,1.85-.36-1.57-.49-1.9.39,4.82.33,7.74.87,13.8.66,3.75.13-2.9-.02-5.9.39.39.47,1.9.73,5.23-.22.38.03,4.96.29,9.99.21,5.03.43,10.51.24,12.67.96,17.83,1.15-2.91,1.7,14.52l-.36,5.23c.79,10.1,1.57,23.17,1.66,34.63l-.07-2.41c-.27-1.6-.37,1.06-.47,2.23-.05,8.65.7,16.42.22,21.67.71,9.86,1.26,26.3,1.57,37.58-.72,3.04-.67-14.71-1.16-19.4l.05,10.26c-.04-6.35-.33-8.85-.77-12.65-.09,9,.58,11.95.78,20.48-.2-.66-.32.48-.32,4.41l.49,1.12c-.04.07-.08.51-.1,1.72l.3,15.17c.21-3.22.64-3.38.64-7.29-.29,1.4-.34-1.92-.34-5.85.33,3.44.26-3.83.53-3.74,0,7.87.06,17.53.19,22.68l-.45,1.67c-.12,7.49.12,15.41-.02,20.49l-.24-1.6c-.16,8.99.1,17.85-.42,25.84.43,8.03.69,18.16,1.02,24.75.25,1.77-.11,7.67-.55,14.26-.21,3.3-.43,6.77-.63,9.98-.17,3.21-.27,6.17-.23,8.46-.05.3-.06-1.26-.05-3.29-.02-2.03-.04-4.52-.05-6.07-.4,6.02-.03,10.87-.76,12.72,1.11-13.52-.54.69-.3-5.41-.38,6.33-.82,13.01-.86,16.13.82-10.25.55,3.71,1.12-6.69-.07,8.08-.95,19.1-2.37,28.63-.25-.13-.52,1.04-1.09,4.58l-.04,2.92c-.72,4.45.81-8.69-.64.27-.31,4.67-1.52,11.61-2.67,17.86-1.16,6.26-2.22,11.85-2.03,13.97-1.85,6.86,2.13-13.34-.51-2.96.8-6.17,2.77-14.54,2.52-16.67-.88,6.04-.88,2.1-1.57,5.98l-.88,6.75.3-1.47c-1.53,11.32-5.62,28.9-8.61,43.07-1.98,12.13-2.91,20.54-5.61,34.91.39-4.32-2.43,11.9-1.5,2.72-1.47,6.62-2.11,13.29-1.85,13.46.95-5.88.39-2.06,1.31-6.99-.26,3.39-1.39,11.1-2.03,14.24.21-1.47.08-.92.02-1.26-1.12,7.02-.12,3.42-.64,8.53-.32.78-.66,3.6-1.02,6.79-.37,3.2-.65,6.78-1,9.11-.02,2.27.05,4.55.08,6.83-.06-1.88-.23-.26-.44,1.96-.22,2.22-.39,5.04-.63,5.56,0,2.44.04,4.69.09,7.25.05,2.56-.03,5.44-.17,9.14-.12-3.07-.54,6.75-.93,6.88-.61,12.72,1.06,21.04.94,33.07-.11-.37-.48-2.79-.46.74.28,2.76.43,7.61.7,10.57l-.02-.09c0,.06.01.09.02.15.12,1.45.24,2.35.34,2.38.38,2.52.71,4.42,1.15,6.92.42,2.51.85,5.63,1.55,10.57.21-.39.05-2.67-.21-5.31-.23-2.64-.57-5.63-.8-7.44-.26-1.03-.47-2.07-.71-3.1.26-1.53.08-3.76-.16-5.91-.22-2.15-.47-4.21-.41-5.36.56,2.96,1.08,8.74,1.69,15.04.64,6.3,1.36,13.14,2.23,18.24-.07-6.34-1.27-19.92-1.96-31.81,0,1.75-.02,3.5.01,5.26-.16-2.07-.24-4.15-.36-6.23-.06,2.02-.16,4.04-.18,6.06-.27-5.91-.65-11-.79-16.35.22,6.25-.33,8.72-.37,5.17.23-6.99-.59-7.26-.65-12.6,0,2.97.09,6.84-.25,4.35.19-5.27.16-8.61.23-11.84.03-1.61.07-3.19.1-4.97.08-1.78.21-3.75.39-6.14-.88,1.17.19-11.95-.36-13.41-.1,1.48-.17,2.96-.23,4.44-.1-3.15-.06-6.29-.09-9.44,1.13-8.65.23,7.72,1.46-5.46.89-12.16.08-11.92.91-21.49.09,1.6.06,4.3-.1,7.57-.1,3.27-.33,7.1-.59,10.96.16-1.55.37-3.11.57-4.66.03,2.49-.66,13.16-.9,18.49-.15-8.84-.38,4.11-.87,8.12.44.75.54-4.91.71,1.78.18-6.26.13-7.18.69-15.13-.54,8.59-.17,12.48.09,16.08.35,3.6.59,6.91.45,14.41-.22-6.91-.68,2.41-.88,3.25.11,3.26.35,9.86.6,12.57l.59-2.48c.29,4.36.12,7.31.07,10.43-.03,1.56-.06,3.16.01,5,.09,1.84.28,3.91.62,6.42.49,1.28-.47-8.86-.26-7.05.33,3.44.55,6.32.68,8.92.17,2.59.25,4.89.3,7.14.12,4.51.17,8.84.61,14.98.28.67.69.48,1.56,4.7-.57-1.29-.38,1.9-1.27-2.88.32,4.11,1.24,8.91,1.89,12.5-.9-8.53,1.04,3.4,1.52,4.93.55,4.41-.59-1.28-1.09-3.98.38,3.55.39,7.84,1.3,9.76-.4.2-2.57-9.73-3.51-16.29l.52,4.43c-.61-3.02-.66-3.6-1.13-8,.2,4.34-.19,3.97-.63,3-.01-.57.14.3.13-.25-.33-3.56-.78-6.26-.9-5.41-.95-3.12.23,4.96.28,7.4.28,1.81.56,3.62.83,5.4,1.46,6.06,2.96,12.1,4.51,18.13,1.42,7.82,1.57,11.43,2.24,17.38l.75,1.54c1.06,6.86,1.96,13.36.63,9.06.12-.27-.06-1.17-.28-2.67-.1-.19-.2-.52-.31-.95-.06-.14-.09-.21-.14-.33,1.35,7.32,2.2,11.89,2.27,12.31-2.71-12.37-.98-.48-2.18-2.43l2.28,12.57c-.93-7.7.4-.21.94,2.5-.36.82,1.56,10.18,2.11,14.65l-.15-.31c.43,4.14,1.44,11.36,2.21,16.49.15-.26,1.74,6.25,2.59,9.38-.87-8.87-.05-3.64.17-4.39.08.92.27,2.57.36,2.75.29,1.25-.02-1.74.11-2.01-1.34-9.39-2.73-19.05-3.96-22.78.12,2.92.98,4.87,1.21,8.13-1.08-4.59-1.82-10.61-2.99-18.38l.02-2.61-1.44-7.77c.73,3.22.85,1.19,2.2,9.38.22-1.11-1.34-8.12-2.01-13.15l-.95-2.47c.46.94-1.21-9.78.43-2.24l2.41,12.33-.17-3.51,1.73,10.49-.65-2.44c1.47,8.42,1.36,9.72,1.31,11.02-.06,1.3-.05,2.6,1.41,11.1,1.35,5.26,2.18,11.02,3.18,21.53-.99-7.58-.55-.73-1.25-3.54.6,7.77,1.4,10.33,2.07,14.32-.15,2.01-.28,3.44-.95-3.48-.8-.79,1.06,9.09.36,9.79,1.1,11.46,2.06,16,2.96,21.05.88,5.04,1.71,10.59,2.11,24.05l-.37-.99c1.45,17.02,1.6,26.87,2.56,42.64l-.25,12.46c-.22-2.78-1.12-10.22-1.34-6.72.52-6.07-.04-12.47.05-19-.24-.65-.25,2-.32,3.16-.19-3.93.07-5.92-.35-11.1-.14.26-.04,5.93-.36,1.67l.1-7.08c-.78-9.43-1.4-4.58-1.88-15.68.55,2.03,1.45,6.21,1.8,10.5-.2-5.07.65,6.74.64,2.1-1.06-7.27-.77-10.82-1.83-20.5.17,1.13.31,1.43.51,3.81l-.74-14.11c-.09,3.51-1.32-11.61-1.78-10.25.97,15.02.99,10.59,1.85,27.71-.44-4.83-1.44-11.04-2.18-13.92.01-.15.01-.4-.02-.92-.73-2.57-.69.1-1.64.12,1.25,7.74,1.05,12.99,2.01,22.16.62,1.7.34-5.38-.11-9.94l.87,8.08-.34-1.58c.38,6.86.7,13.72,1.01,20.58-.24-3.9-.61-5.2-.95-7.22.12,2.65.13,5.29.13,8.09.47-.61.84-.26.96,2.33.55,13.24.4,20.62.03,25.53.03.51.07,1.08.1,1.54.43-2.24,1.29,9.36,1.94,13.45-.53-.18-.09,6.84-.25,10.66.67,2.01,1.42-.72,1.77-5.39-.84-8.95-.73-5-1.66-9.21l-1.08-14.34.61,3.19c-.08-7.18-1.03-14.03-.38-13.54.59,3.77.62,10.03,1.18,13.78l.03-4.75c.96,8.34-.41,4.31.4,14.43.4-3.75.07.92.58,5.25.27-3.5-.82-17.84.2-14.83.62,5.26-.39,17.78.71,24.73l-.11-.34c.18,10.3.77,13.91,1.17,17.76-.19,4.39.31,10.44.41,15.2l-.27-.11.18,6.71c-.52-3.19-.06-7.86-.23-13.62l-.48.72c.49-6.65-.51-11.06-1.05-16.2.62,7.48.3,21.15,1.26,22.9l-.45,4.64.2,2.22c-.34,3.46-.96-.07-1.14-6.76.11-1.16.17-1.75.27-1.4-.27-3.1-.68-5.95-.72-13.47l.34,4.01c-.14-9.36-.56-17.86-1.13-21.05.17,13.51.35,26.8.51,39.48,1.13,3.73,1.77,8.18,2.81,10.09.2,8.53.27,20.12-.25,27.52l-.19-.68c-.15,3.61-.18,6.95-.12,9.73-.35,3.81-.49-2.63-.69.03.04,4.07,0,8.15.01,12.23-.44-.77-.14-11.05-.09-15.93.02.92.06,2.78.13,2.19.34-5.68-.32-16.26.36-18.74-.09-2.77.45,5.62.56-3.74.3-6.27-.33-8.32-.52-8.97-.26-.1-.38,9.84-.69,6.39-.01,4.88.34,6.82,0,13.06.04-4.84-.46-11.41-.03-13.98-.48-9.56-1.72-8.18-1.79-3.68.42-1.07.38,17.43.98,4.9.46,5.63.37,15.92.51,23.29l-.09-.34-.09,9.15c-.1-1.29-.14-4.06-.41-4.16l.34,12.69c-.23-7.15-.48,4.41-.82,7.64.36,1.37.42,6.33.87,1.59.5-5.33-.1-3.12.05-7.97l.39,6.9-.08.59.34,4.16c-.47,9.37-1-4.14-1.08,7.87l.8-1.52c-.46,6.94-1.15,14.85-1.76,22.26-.15,1.85-.3,3.67-.45,5.43-.16,1.76-.32,3.47-.47,5.1-.28,3.26-.5,6.2-.61,8.65-.19-2.73-.75-3.97-1.42-.29.22-2.1.5-5.27.76-8.67.13-1.7.26-3.46.39-5.17.09-1.71.18-3.38.25-4.9.1-.58.19,1.33.2,4.2-.03,2.87-.2,6.7-.53,9.98.7-1.55.85-5.7.97-9.54.05-3.85.09-7.4.7-7.75.7-8.38.6-11.53.52-14.35-.08-2.83-.12-5.33.52-12.44-.52-.22-.08-4.06-.52-4.83-.5,2.09-.71,6.85-.89,12.24-.24,5.39-.45,11.41-.87,16.01.01-.91.04-2.73-.03-3.09-.54,6.59-.59,9.32-.66,13.95l.1-.58c-.08,8.08-.77,4.95-1.36,9.66-.06,1.84-.73,8.41-.26,7.38l-1.16,8.53.62-.36c-.32,4.84-.87,5.85-.9,10.26l.51.25c.43-3.99.87-7.98,1.22-11.98-.32,6.1.41,1.74-.09,8.43.12-7.51-.78,5.25-1.33,5.94l-.16,4.94-.02-1.27c-.63,3.83-.23,4.6-.71,9.1.78-5.28,1.47-8.72,1.72-15.51-.16,4.95-.74,14.74-.94,17.14-.24,5.19-1.06,8.75-1.6,13.57.72-9.29-1.86,3.09.31-15.44.07.35-.09,1.86-.21,2.43.9-2.41.99-11.15,1.1-15.2-.48,1-.19-3.22-1.06,3.9.46-2.32.3,6.1-.64,12.86l-.71-1.28c-.32,3.3-.73,6.58-1.09,9.87l.06-.93c-.92,3.66-.99,10.55-2,17.31-.19,4.94-2.54,23.72-.77,15.73-1.19,6.04-1.11,11.46-1.75,18.12l1.26-8.25c-.49,9.87-.57,7-.51,14.95-.32.77-.7,2.49-.75.87-1.54,13.16-3.88,31.91-4.07,39.7-1.09,9.27-2.17,10.61-3.2,23.66-.18,2.75,1-2.05-.16,6.53-.12.57.28-8.35-.69,1.24-.07,6.89-1.94,16.01-2.27,24.95-.73,4.67-1.28,12.82-1.66,11.08.69-7.43,1.72-17.95,1.61-19.58.2,1.06.81-5.26.51.24,1.49-11.19.38-7.32,1.68-17.37-.14-.72-1.1,5.12-1.12,7.3-.74-.02,1.75-19.9-.03-11.03-1.23,10.76-.03,14.11-1.7,23.37-.05-3.78.88-9.6.62-14.43l-1.03,7.65-.05,5.62-.07-.34c-1.98,13.49-.52,12.6-1.21,24.76,1.08-6.98,1.05,1.73,1.8-3.53-.6,8.11-1.2,14.05-1.9,14.05.73-15.21-.65-.92-.14-15.01-.44,2.28-.72-3.43-1.51,4.93-.31,9.47.81-2.77.24,6.65-.11.55-.22,1.12-.29.78,0,4.35-.61,5.03-.55,10.3l-.05-1.25c-.86,6.42-.01,7.09-.85,12.62.66-2.19.16,3.76.25,7.22.58-5.62,1.52-8.61,2.24-19.72-.3-1.37-.63-.58-.43-5.15-.21,2.41-.35,4.81-.49,7.22.04-1.56.02-2.76.04-4.19l.8-6.91c-.45,8.81.29,4.81.44,8.58-.73,8.03-.34,6.64-.82,11.69-.54-.55-2.17,15.43-2.87,24.69.08-1.44.18-3.3.23-4.3-.05-6.76-.72,4.61-.89,4.85l.06,4.92c0-.93-.07-2.21-.26-.12-.19,6.65.36,6.29.23,12.93-.37.49-.64-5.14-.97-1.02-.32,1.41-1.18,5.93-1.1,14.76.11.63.13,2.92.12,5.57,0-.37-.01-.83-.03-1l-.49,5.86c-.44-5.01.5-10.1.05-15.14l-.52-.44c.1-3.91-.06-9.23-.2-11.68-.3,5.96-.14,7.23-.2,13.9-.36.93-.5-3.78-.52-4.46l.28,1c.32-3.97.22-6.95.19-10.17-.02-3.22-.06-6.69.22-11.64.09-1.49.09-.58.17-.24-.07-4.02.17-7.99.39-11.93.19-3.94.54-7.85.45-11.76l.1,2.56c.06-2.66.14-6.59.24-11.15.1-4.56.15-9.77.38-14.96l-.2-.1c-.22,1.14.12-2.74.38-4.82h0c.2-5.2.4-10.21.56-14.3-.24,1.29-.49,2.95-.68,4.87.1,1.64-.91,11.14-.25,9.88-.72,4.37-.84,11.49-1.23,14.71.76-5.86.24,4.14.47,5.19-.48,1.95-.57,8.72-.98,7.92-.2,1.15.51-2.87.4-5.39-.01-6.2-1.16,11.27-1.04,3.56-.45,9.79-1.12,22.69-1.18,32.8l.46-5.64c-.12,2.24-.31,6.02-.48,9.33-.2,3.31-.21,6.17-.36,6.56.02-1.67.01-3.48.1-5.41.06-1.93.13-3.97.21-6.1-.26-.11-.38,2.45-.48,5.1-.13,2.65-.08,5.39-.27,5.62l.59,12.43.15-5.43c.12,1.71.02,5.41-.15,9.72-.09,2.16-.18,4.47-.28,6.77-.06,2.3-.06,4.59-.08,6.69-.84-4.84.1-12.7.01-21.56-.13-6.44-.79,3.96-.82-2.14-.2,1.58-.28,5.55-.14,7.52l-.19,2.4c-.27-2.72-.29-7.14-.3-11.88,0-2.37-.02-4.83-.02-7.2,0-2.37.04-4.66-.02-6.69.04.71.08,1.34.15,1.57.55-6.23.84-12.57.96-18.67-.36,3.21-.28,4.49-.29,6.33-.17.22.03-5.53-.04-7.71-.46,5.65-.44,1.03-.72,4.61.01-1.85.06-3.52.15-5.29.07-1.77.21-3.64.41-5.88.41-2.31.21,1.95.56,1.49.12-4.63,1.04-6.7,1.13-13.48-.75,8.99-.54-2.42-.55-5.54l-.13,1.51c-.18-2.88-.03-5.31.45-7.25-.1,3.7-.45,7.25,0,6.23.15-2.43.3-4.86.38-7.62l.1,2.53c.24-4.03.61-8.05.91-12.08-.18-1.94-.39-5.17-.74-6.89.56-2.87.64-6.93.76-9.69l.03,1.29c.74-5.3,1.71-17.14,1.49-18.17.64-3.77-.72,27.02,1.64.16,1-10.2-.34-6.45-.1-12.31,0,0,.06.34.19-.23.55-4.45.23-4.94.47-8.62-.43,2.66-.85,6.53-.85,7.8-.26-1.39,1.03-9.29,1.08-12.74.14,4.5,1.16-8.59,1.11-5.12,1.33-8.83,1.93-18.35,1.99-23.05,1.45-5.92,1.07-10.56,2.54-20.26-.19,1.5-.38,4.23-.7,6.31-.14,5.61,1.4-10.07.88-1.47.13-1.84-.25-.16-.38,1.73-.31,3.29-.44,6.41-.13,5.61l1.33-7.9-.19,2.79,1.97-11.99c-.06-.34-.31.78-.44,1.35,1.87-13.95,3.28-29.98,4.71-42.22-.55-1.22.06-8.78.86-17.28.39-4.25.81-8.73,1.18-12.78.31-4.05.53-7.66.54-10.15.15,2.69.72,4.21,1.16,2.6-.16,2.21.03,6.79-.62,11.79-.31.78-1.2,6.94-1.04,2.93-1.27,13.85.8-1.81.9,2.33.36-3.84.65-7.28.85-10.44.19-3.16.33-6.04.45-8.74.24-5.4.38-10.1.67-14.95l.19-.23c.14-2.45.2-4.89.29-7.34-.56,5.97-1.32,5.61-.45-2.07l-.03.94c.67-4.37.99-13.54,1.58-20.39-.02-1.56-.11-3.12-.16-4.69.46-6.87,1.33-7.11,1.97-9.32.35-5.39.44-9.65.45-13.53-.01-3.87-.16-7.36-.19-11.2.25-1.73.55-6.63.79-10.03.22-3.4.41-5.3.51-1.01-.06-9.75-2.05-7.83-.66-24.5l.29,4.34c.1-7.99-.02-17.68-.16-26.29-.15-8.61-.31-16.15-.17-19.83.68,2.94.96-2.05,1.17-8.15.22-6.09.38-13.28.97-14.72-.27.8-.52-5.21-.7-6.08.12-1.32.19-3.52-.14-5.84-.07,6.24-1.43-4.34-.58,7.56-1.03-6.01-1.93-13.75-2.4-26.96l.53.18.23,10.46c.35-1.07.52,4.31.76,6.51-.37-19.46,1.35,2.51.55-17.38-.42-1.91-.23-.67-.57-5.83.11,2.43.5,2.85.34-1.07l-.58-3.74c.58-6.98,1.07,11.47,1.43,5.52.74,7.66,1.42,20.96,2,18.46-.2-12.56-1.65-11.24-1.91-24.37l.23-1.41c-.39-4.61-.9-5.33-1.3-7.84.15-.24.22-1.41.12-4.38-1.07-7.75-1.47-12.91-2.64-20.04.84,9.53.91,13.62.98,17.79.07,4.17.15,8.41.82,18.26-.34-3.08-1.15-16.96-1.93-17.77l.54.16c-.59-6.4-1.21-12.78-1.52-20.83l.58,4.89c-.98-10.64-.29-17.77-1.78-26.11.17,2.97.36,5.38.56,7.2-.6-5.47-1.07-12.34-1.45-18.3l-1.92-12.22c.27.08-.42-7.7.34-3.99-.44-8.88-1.66-12.97-2.34-18.06-.23-4.55.05-2.6.49.59.43,3.19.99,7.62,1.4,8.03-1.01-12.5-2.84-25.67-4.25-32.61.24,2.55.29,3.79.15,3.68.13-.4-.58-5.39-.96-8.18l-.6-1.87c-.43-4.67-.14-4.05.68-.14-.56-4.45-1.98-9.63-2.19-14.27,1.58,7.51,2.56,17.21,3.33,21.13-1.23-7.9-1.55-11.91-1.98-16.46-.43-4.55-.96-9.63-2.78-19.63.12-.27.98,3.08.37-.79-1.57-8.94-1.07-2.23-1.9-4.97,1.32,6.87,1.62,10.11,1.83,14.17l-.57-1.8c.1-.3-.58-4.63-.65-5.93l-.74-1.03c.7.42.06-6.59-1.06-12.01.44,5.58.23,4.09-.24,5.7-1.91-7.56-.75-8.75-2.84-17.25.3.61,1.66,8.11.77,1.59-.84-5.38-1.2-4.59-1.93-8.17,1.16,3.99,1.37,2.88,2.69,7.18,1.6,9.53.61,3.85,2.35,13.14l-.84-7.96c1.39,8.07,1.54,5.78,1.85,6.41-1.71-13.88-2.47-10.27-3.74-19.19-1.03-4.23,1.24,8.35-.19,1.7-1.23-8.34-.65-1.84-2.31-11.16l.48,1.53c-.14-2.9-.92-5.68-1.47-8.99-.67-3.63-1.24,4.41-3.34-10.64.24.72.37.98.43.97,2.1,4.71,4.25,9.37,6.42,14.02-2.28-15.14-4.45-32.69-5.49-50.42.51-4.22,1.73,12.56,2.08,11.43.21,2.69.41,5.37.66,8.06-.5-.4-1.77-16.85-1.74-9.51,1.67,14.19,2.1,20.67,4.71,33.98.24-4.28-2.6-17.65-2.84-26.48.35,3.68.79,6.77,1.29,9.76-.9-8.21-1.7-17.02-2.31-26.4l-.35-2.09c.41,6.32.69,10.7.73,11.26-.7-8.37-1.62-15.41-2.28-15.93l.08,1.49-.4-3.02c-.06-1.97-.13-3.95-.19-5.91ZM36.91,56.35c.1.5.2.9.31,1.19-.11-.3-.15.05-.31-1.19Zm-6.72,704.95c-1.15-11.16-2.43-22.42-3.91-33.1.8,9.72,1.27,18.01,1.11,19.83-.19,1.83-.89-2.82-3.15-18.87l-.39-2.09c.46,4.22,1.47,11.45,2.42,18.26.58,2.73,1.8,8.51,2.87,13.58.53,2.54,1.03,4.9,1.39,6.62.37,1.72.6,2.78.63,2.73.15-2-.55-4.82-.84-8.4l-.13,1.44Zm-1.21,8.15c.52,6.33.64,4.86.99,5.82-.26-2.22-.52-4.44-.78-6.63.03.85-.02,1.27-.21.81Zm1.2,5.42c-.06-.71-.12-1.32-.12-1.64l.12,1.64Zm-17.15-122.35c.05.28.06.38.11.64-.19-1.49-.38-2.98-.57-4.54.04.61.17,1.76.47,3.89Zm1.26,12.85l.68,1.42c-.19-1.39-.39-2.8-.59-4.25-.13.51-.24,1.03-.09,2.83Zm5.06,41.17c.96,2.49,2.33,11.13,3.03,11.56.24.53.02-1.3-.24-3.35-.34-2.28-.71-4.71-1.1-7.29-.1-.08-.27-.57-.49-1.42.33,2.56.44,4.28-.1,3.31-.21-6.67-1.53-5.76-2.46-12.87-.8-2.18.84,7.94,1.35,10.05Zm-5.14,548.14c-.07.2-.28.88-.55,1.84l.18-5.05c.99-8.95,2.67-16.02,2.77-24.16.6-3.75,1.23-5.72,1.77-7.61-.22,1.84-.44,3.56-.65,5-1.28,22.7-2.5,11.64-3.52,29.99Zm12.33-102.74c-.06.93,0,1.27,0,1.27,1.1-20.11,2.44-36.61,3.59-47.39-.67,2.05-2.02,11.68-2.69,16.25l-.1-4.12.67-2.5.26-7.11c-.55,1.94-1.07,7.65-1.73,11.43.06.34-.57,12.61-.66,16.06.49-3.24.95-6.47,1.4-9.71-.39,2.62-1.71,15.57-2.14,20.71.25.13,1.62-8.67,1.18-9.84.5-1.01-.62,9.18.51,2.78-.43,7.68-2.1,19.8-2.94,25.41l-.76.88c-.95,6.16.31,4.27-.9,11.57.9-9.05-.88,1.45-.12-5.74-.5,2.27-.69-.03-1.46,7.18.18,6.09-1.4,7.53-1.27,13.28-.69,3.76-.06-4.13-1.01,3.31-.51,8.6-.13,8.14.44,8.74,1.07-7.97.19-9.07,1.08-15.59l-.39,13.12c.42-2.38.63-4.15.76-5.64-.23,2.62-.32,4.86-.32,6.78,0,1.1-.01,2.1-.02,3.04.83-7.37,1.58-13.9,1.97-15.03l.19,1.05c.57-2.58.83-6.85.83-8.84.71-6.6,1.04-13.23,1.59-14.63v2.53c.82-8.12.9-9.03,2.02-19.23Zm12.32-267.05c-.97,4.99-1.65,10.46-.94,33.52l-.12-1.81c-.46,11.63,1.34,22.65.57,36.8-.44-6.86-.39-6.49-1.41-14.06l.36,7.36c-.62-2.04-.25,5.3-.31,10.7l-.71-4.76c.2-3.24.24-11.64.07-11.39.1,1.84.81-11.1.47-18.12-.47.73-.06,15.56-.95,8.95.39,5.83-.07,6.56.13,12.65-.37-5.84-.67-1.44-1.07-5.79l.23,9.99c-.15.26-.45-14.55-.99-6.36.29,4-.02,14.69.49,14.88l-.16.25c-.13,7.48.74,3.3.37,12.49.26.11.46-1.64.43-4.94-.09-2.79-.45-3.21-.52-8.95.42-2.57-.06,6.92.64,2.94.37-1.98-.31-15.14.48-10.95l-.1,7.48c.53.19.49,5.61.91,5.46.16,4.58-.45,8.89-.07,13.57.31,1.95,1-1.43.61,6.3-.46,3.01-.71,8.97-.95,15-.2,6.04-.39,12.15-.46,15.48l.08,5.84c.36-.48.43-11.14.7-7.38l-.27,9.1-.17-.71c-.16,3.01-.17,6.1-.2,8.86-.2-2.85.31-9.39-.32-8.12-.31,4.26-.59,4.9-.7,8.83.01-.86,0-1.6-.08-1.49-.75,8.62.12,8.37.17,10.55.2,8.73,1.18-8.71,1.68-7.57l-.6,12.7-.3,6.35-.42,6.34c0-2.18-.02-4.37-.31-3.57-.74,6.2-.44.11-1.09,8.84.79-.57-.37,11.02-.45,17.22-.58,2.85-.66,3.44-.14-2.86-.51.68-1.13,9.14-1.44,12.14-.04,1.75-.24,4.72-.31,6.61.48-2.5.68-1.39.38,4.08l.07.33c.94-8.93,2.83-22.78,2.69-28.44l.12,1.61c.61-5.17.83-10.82,1.06-15.78.11-2.48.23-4.78.39-6.75.13-1.98.32-3.63.62-4.81.34.47.21-2.08.72-1.87l.04-7.67.14,1.6.65-13.01.08.35c-.16-6.21-.34-11.07-.52-14.95-.23-.02-.31.38-.41-1.69-.04-2.07,0-3.64.08-5.04,0-.01,0-.01,0-.01h0c.16-3.19.55-5.31.8-9.23-.11,4.03-.18,8.07-.32,12.1.34,1,.82-.01,1.26-5.94-.06,2.43.22,3.45.35.45-.09-.33-.02-7.94-.41-5.05.19-11.5,1.49-30.13.64-47.6.5,12.55.48-10.06.7,3.87.59-9.73-.66-8.37-.66-18.28.22-.85.03,5.4.5,7.67.08-16.49-1.43-27.79-1.74-43.73l.47-.7c-.17-3.01-.35-6.36-.54-9.84Zm-1.97-31.48c-.21-3.06-.43-6.17-.65-9.32.01.31.02.6.04.92l-.91-9.18c.14,5.66-.2,9.42-.89,1.52.24.65.35-1.67.63,1.07,0-5.32-.46-16.96-1-13.88,1.33,10.14-.77,2.43.22,10.4-.72-4.27-.78-8.53-1.26-12.57.68,4.19.85-1.04.6-7.39-.31-2.75-.75-10.22-1.31-14.79-.32,1.67-.89-2.3-.42,5.17-.33-2.73-.75-6.95-.93-11.71.24,1.87.57,5.16.71,4.92.15-3.09-.16-6.68-.16-8.67-.17-1.58-.34-3.16-.5-4.71,0,.46-.01.87-.05,1.16l-.88-5.2c.86,6.96.09,3.24-.18,3.18.55.14-.35-4.5-.6-6.88l-.05,5.23c-.52-2.48-.46-8.88-.88-7.52.86,11.01,1.31,15.23,2.3,25.16l.1-4.08c1.21,11.21-.16,6.98.77,19.59.77,5.22,1.26,18.97,2.05,19.19-.33-1.57-.25,7.9.34,12.21.98,4.75,1.76,19.22,1.88,14.82-.17-3.91-.82-9.16-.52-12.33l.53,7.58.15-5c-.01,2.58.36,2.31.88,1.1Zm-13.89-169.82c-.01-.08-.02-.19-.04-.29.02.11.03.22.05.32v-.03Z"/>
      <path class="cls-1" d="m8.51,1366.98c.13,2.19-.02,7.58.39,6.53-.43.12.16-9.64-.39-6.53Z"/>
      <path class="cls-1" d="m7.94,1373.42c.09.38.26.12.22,2.54l.05-6.67-.27,4.13Z"/>
      <path class="cls-1" d="m4.89,1380.17c.34,3.45.53,5.64.53,11.05-1.03,2.04-.34-8.86-1.32-11.33-.04,9.94.88,12.99,1.02,21.15.41-4.06.57-20.56-.22-20.87Z"/>
      <path class="cls-1" d="m3.66,1375.74c.04,1.84.04,3.68.16,5.53l.06-.54c-.1-1.85-.09-3.69-.14-5.53l-.07.55Z"/>
      <path class="cls-1" d="m20.01,1257.29c.37-.46.39-3.9.49-5.74-.17,1.48-.46,3.56-.49,5.74Z"/>
      <path class="cls-1" d="m47.84,180.03c-.22-14.03-.47-28.06-.88-42.1.33,12.12.55,23.3.88,42.1Z"/>
      <path class="cls-1" d="m32.95,1118.48c-.43,5.63-.63,9.71-.86,13.82-.25,4.1-.53,8.22-1.09,13.95,2.33-14.96,1.13-19.98,3.11-32.55l-1.15,4.78Z"/>
      <path class="cls-1" d="m35.11,1122.71c-.8,1.8.18-8.75-.43-7.16-.63,7.59.22,3.59-.55,10.46l.98-3.3Z"/>
      <polygon class="cls-1" points="19.48 1172.45 19.55 1169.01 19.36 1171.76 19.48 1172.45"/>
      <polygon class="cls-1" points="39.44 1071.34 39.48 1072.6 40.11 1066.95 39.44 1071.34"/>
      <path class="cls-1" d="m39.52,1073.86l-.04-1.26.04,1.26Z"/>
      <polygon class="cls-1" points="18.67 1167.93 17.97 1172.97 17.97 1175.5 18.67 1167.93"/>
      <path class="cls-1" d="m26.82,1123.7l-.27,4.54c.05-.9.94-7.06.27-4.54Z"/>
      <polygon class="cls-1" points="42.16 1036.77 42.25 1031.21 42.16 1031.77 42.07 1037.31 42.16 1036.77"/>
      <path class="cls-1" d="m28.64,1088.14c-.76,3.08.71-9.03-.3-2.64-.46,5.72,0,3.43.3,2.64Z"/>
      <path class="cls-1" d="m36.67,1021.86c.05-.74.07-1.53.05-2.29-.02.9-.03,1.66-.05,2.29Z"/>
      <path class="cls-1" d="m36.67,1021.86c-.14,2.4-.46,4.8-.42,6.46.39-2.99.37-4.08.42-6.46Z"/>
      <path class="cls-1" d="m37.62,994.27l-.1,2.18c-.17-2.24-.16-1.18-.04.82-.05,2.31.1,2.19.19,2.47.05.46.09.93.14,1.43-.04-.72-.08-1.36-.11-1.9.11-3.59.15-5.77-.09-4.99Z"/>
      <path class="cls-1" d="m44.97,891.48c.09,8.1.06,10.2-.32,9.77.1,7.69.69,6.48.96,11.11-.29-8.7-.17-10.48-.64-20.88Z"/>
      <path class="cls-1" d="m45.61,912.36c.03.97.06,1.91.09,3.04-.02-1.27-.05-2.2-.09-3.04Z"/>
      <polygon class="cls-1" points="32.3 1026.3 32.04 1021.28 32.01 1023.11 32.3 1026.3"/>
      <path class="cls-1" d="m44.71,879.47c.04,1.5.15,3.9.06,5.09.39.42-.1-6.59-.06-5.09Z"/>
      <path class="cls-1" d="m38.56,910.86c-.19.82.04,5.99,0,8.09-.02-3.01.61-5.49,0-8.09Z"/>
      <path class="cls-1" d="m42.2,856.33c.05,1.5-.09,3.81-.44,2.83.28,2.17,1.06,5.09.44-2.83Z"/>
      <polygon class="cls-1" points="38.21 896.11 38.12 897.27 38.52 902.78 38.21 896.11"/>
      <path class="cls-1" d="m33.35,915.93c.57,6.19.84-9.85,1.44.81.14-13.78-.58,1.07-.76-9.09.02,5.95-.49,8.88-.67,8.28Z"/>
      <path class="cls-1" d="m34.02,907.65c0-.87-.01-1.8-.04-2.82.01,1.12.03,2.03.04,2.82Z"/>
      <path class="cls-1" d="m32.78,820.3c.11.9.2,1.51.29,2.07-.08-.71-.17-1.38-.29-2.07Z"/>
      <path class="cls-1" d="m32.56,875.23l1.02,9.26c-.65-6.19-1.31-21.79-1.92-20.79.09,5.06.53,11.13.9,13.61v-2.09Z"/>
      <path class="cls-1" d="m37.02,767.67l.68,4-.45-5.04c.05,1.45-.69-1.1-.23,1.04Z"/>
      <path class="cls-1" d="m37.16,765.66l.09.97c0-.22-.03-.53-.09-.97Z"/>
      <path class="cls-1" d="m34.18,837.85c.13,3,.27,5.4.54,8.14.06-1.14-.23-8.63-.54-8.14Z"/>
      <polygon class="cls-1" points="32.72 739.47 33.68 746.09 32.7 738.86 32.72 739.47"/>
      <polygon class="cls-1" points="29.27 708.49 29.21 707.34 28.11 701.92 28.17 703.09 29.27 708.49"/>
      <path class="cls-1" d="m22.32,750.43c.46,4.45,1.46,7.86,1.44,6.68l-1.07-8.62c-.23,2.25.32,2.39.78,7.41l-1.16-5.47Z"/>
      <path class="cls-1" d="m21.02,482.21c.02,1.96-1.68,11.23-2.03,11.68.02-1.28.69-6.35-.02-3.21l-.25,7.51c-1.85,9.77-.12-7.64.49-12.52-1.72,9.99-1.57,13.05-2.91,23.73.43-3.15.93-5.11,1.32-6.75.32-.14.09,2.26-.32,5.59-.34,3.34-.94,7.59-1.23,11.16.69-4.51.65-1.86.57,1.46-.04.59-.04.99-.03,1.28,0,.39-.02.75-.02,1.13l.08-.85c.06.07.16-.11.33-.72.37-5.99,1.43-10.49,1.87-14.32-.72,1.83-.36-1.43.23-5.77.6-4.33,1.51-9.71,1.75-12.13l.81-5.55.34-2.07c.18-.4.19.21-.13,3.4.2-2.67,1.87-11.42,1.43-10.67,1.22-6.68,2.58-13.35,3.97-20.04.17-.62.35-1.23.51-1.68.09-.71.06-.83,0-.75,3.07-14.57,6.37-29.19,9.33-43.99,1.47-7.4,2.86-14.84,4.09-22.33,1.24-7.49,2.24-15.03,3.16-22.56-.65,4.45-1.29,8.28-2.09,12.85.37-6.97-1.2,7.5-1.51,5.39.23-3.12.98-7.63,1.47-10.3-.16-1.04-.94,2.76-1.25,2.26-1,5.64-1.22,8.94-1.48,12.21-.11,1.64-.24,3.26-.48,5.17-.23,1.91-.56,4.09-1.14,6.82-.28-.5.04-3.95-1.25,3.24l.27-1.84c-1.81,11.56-2.55,8.77-3.04,16.16l-.48-.3c-.67,5.26-2.84,15.3-4,20.95l-.03-.36c-1.42,7.97-1.86,10.19-2.4,12.65-.53,2.45-1.19,5.14-2.87,14.02l1.08-8.28c-1.53,6.06-1.15,7.57-2.09,11.95-.03-.33-.62.61.11-3.56-1.14,7.23-2.19,14.45-3.08,21.67-.44,5.2.55-.98.9-1.74Z"/>
      <path class="cls-1" d="m16.31,509.4c-.16,1.14-.32,2.45-.47,3.99.17-1.48.32-2.76.47-3.99Z"/>
      <path class="cls-1" d="m45.05,356.89l-.7,6.35c.25-1.96.49-4.02.7-6.35Z"/>
      <path class="cls-1" d="m14.72,540.61c.52-3.75.18,2.84.39,3.51.09-2.25.27-4.49.4-6.74.13-2.25.29-4.49.47-6.74-.21.04-.33-1.31-.54-1.05-.3,3.67-.51,7.34-.72,11.02Z"/>
      <path class="cls-1" d="m16.67,526.78c-.11-.47-.12-1.9-.08-3.51-.25,2.45-.41,4.91-.61,7.37.16-.03.36-.85.69-3.87Z"/>
      <path class="cls-1" d="m5.75,527.32l.17-2.43.19-3.69c-.14,2.04-.27,4.08-.36,6.12Z"/>
      <path class="cls-1" d="m11.08,489.59c-.71,2.83-1.31,8.32-1.45,10.16.86-6.3.61-3.55,1.45-10.16Z"/>
      <polygon class="cls-1" points="6.68 496.91 7.4 490.78 7.26 491.34 6.68 496.91"/>
      <path class="cls-1" d="m46.24,309.83c.02-1.01.05-1.98.07-3-.05,1.37-.07,2.27-.07,3Z"/>
      <path class="cls-1" d="m42.85,362.51c1.1-7.28.96-4.87.7-1.2-.24,3.67-.76,8.59-.07,6.34.27-2.67.5-5.33.7-8l.13.7c.35-3.24.67-6.49.94-9.74-.54,1.96-.7,3.46-1.02,2.99,1.36-12.97.85-4.05,2.09-13.54.2-2.42.34-4.85.49-7.27.15-2.42.31-4.84.42-7.27l.04,1.18c.06-1.22.04-1.77,0-2.19.85-16.32,1.15-32.62,1.27-48.88-.21-8.87-.7,4.9-1.18-1.65-.07,10.27-.85,25.56-.16,26.45-.09-.35-.27-1.03-.42,1.05l.4,5.98.39-5.68c.19,3.01.11,9.35-.19,15.38-.29,6.03-.74,11.75-1.06,13.49.26-5.52.06-6.9.02-8.82-.04-1.92-.01-4.37.51-12.03-.2.68-.65,3.47-.61.02-.51,17.96-1.88,34.04-3.39,52.68Z"/>
      <path class="cls-1" d="m47.28,182.81l.07.14c-.04-.32-.06-.43-.07-.14Z"/>
      <path class="cls-1" d="m47.22,188.81l.75,8.71-.12-13.59-.51-.98c.13,1.2.41,5.96.22,7.81l-.35-1.95Z"/>
      <path class="cls-1" d="m48.42,207.65c-.23-7.02-.82-6.63-1.08-2.81-.29-6.44.63-3.4,0-7.84-.43.15-.16,8.09-.08,9.91l1.16.73Z"/>
      <polygon class="cls-1" points="48.05 259.4 47.81 257.42 47.72 262.29 48.05 259.4"/>
      <path class="cls-1" d="m47.81,257.42l.08-4.83c-.18.33-.36.66-.49,1.45l.41,3.38Z"/>
      <path class="cls-1" d="m48.09,239.94c.05-2.04.08-4.3.1-7.05l-.1,7.05Z"/>
      <path class="cls-1" d="m47.93,245.45l.08-.16.08-5.35c-.06,1.97-.11,3.74-.16,5.51Z"/>
      <path class="cls-1" d="m47.89,252.6c.41-.78.86-1.7.75-8.68l-.64,1.37-.11,7.31Z"/>
      <polygon class="cls-1" points="15.15 452.98 16.06 447.52 15.88 448.08 14.97 453.54 15.15 452.98"/>
      <path class="cls-1" d="m22.2,421.94c.21-1.35.35-2.37.47-3.3-.25,1.41-.42,2.54-.47,3.3Z"/>
      <path class="cls-1" d="m24.15,398.34c1.6-6.23-1.12,8.81,1.28-2.84.58-.96.05,4.62-1.24,10.09-.26-.51.82-5.41-.2-2.1-.31,3.74-.89,5.07-.09,3.91-.91,6.22-.69,6.99-1.22,11.25,1.38-7.49,5.08-23.03,5.95-32.62.2-5.33-1.21-2.3-2.14-2.48-.16.37-.85,3.92-1.45,7.45-.62,3.53-1.14,7.04-.88,7.36Z"/>
      <path class="cls-1" d="m21.25,408.07c-.63,2.91-.79,3.81-1.09,5.61.42-.42.63-3.26,1.09-5.61Z"/>
      <path class="cls-1" d="m38.11,341.41c-.09-.58.18-6-.15-4.85l-.49,8.2c.18-1.92.4-2.58.64-3.35Z"/>
      <path class="cls-1" d="m37.21,348.35l.26-3.59c-.08.9-.18,2.01-.26,3.59Z"/>
      <path class="cls-1" d="m38.22,341.03c-.04.13-.07.24-.12.38.02.12.05.1.12-.38Z"/>
      <path class="cls-1" d="m48.34,219.96c.26.12.11-3.55.03-5.4-.02,1.5-.11,3.6-.03,5.4Z"/>
      <path class="cls-1" d="m44.6,81.64l.04-3.26c-.06,1.16-.09,1.75-.04,3.26Z"/>
      <path class="cls-1" d="m33.89,32.28c-.06-.09-.12-.32-.19-.64.06.32.12.54.19.64Z"/>
      <path class="cls-1" d="m33.7,31.64c-.4-2.18-.79-9-1.35-11.41l.13.3-.66-4.52c.45,4.25,1.36,13.19,1.88,15.63Z"/>
    </g>
  </g>
</svg>