<?xml version="1.0" encoding="UTF-8"?>
<svg id="Layer_2" data-name="Layer 2" xmlns="http://www.w3.org/2000/svg" viewBox="0 0 56.35 1641.95">
  <defs>
    <style>
      .cls-1 {
        fill: #ffa520;
      }
    </style>
  </defs>
  <g id="Layer_1-2" data-name="Layer 1">
    <g>
      <path class="cls-1" d="m7.34,1601.39c-.32,3.72-.96,6.94-.96,5.52-.39,7.61-.84,7.73-.21,8.79-.14,4.9-1.25,10.02-.91,4.47l-1.13,14.05,1.05-8.36c.35,2.35-1.68,13.36-1.28,16.09l1.64-15.17.11.78c.17-3.48,1.03-10.17,1.33-12.5.06.38.25.16,0,2.84,1.91-18.33-.55-5.05.79-20.27-.08.95-.21,2.13-.44,3.76Z"/>
      <path class="cls-1" d="m10.31,1585.96l-.17-6.47,1.16-10.72c-.25-.14.17-7.99-.49-2.71-.05,1.04-.12,3.09-.29,4.74-.46-1.25.87-14.31.05-11.2-.54,8.5-.74,9.8-.77,15.06-.76,7.78-1.41,13.43-1.95,17.04-.12,2.32.19,2.68-.04,5.61.06-.65.11-1.25.18-1.99l.88-.23c.06-2.46.35-4.77.58-7.49-.04,4.22-.11,8.44-.22,12.66,1.25-3.97,1.88-16.37,2.67-21.28-1.27,6.06.09-4.91-1.58,6.97Z"/>
      <path class="cls-1" d="m7.81,1597.32c0,.08-.02.21-.03.31,0-.09.02-.23.03-.31Z"/>
      <path class="cls-1" d="m18.63,660.29c-.23-2.67-.49-3.44-.62-3.82l2.41,30.07c.15-.96-.26-9.64.33-3.87.04-2.6-.79-10.45-1.19-11.56l.51,2.15c-.99-6.89-.51-11.69.11-7.2l-.05-.58-3.2-19.05c.46,7.05,1.01,5.38,1.7,13.86Z"/>
      <path class="cls-1" d="m45.01,44.12c.3,3.9.41,4.37.47,3.92-.14-1.39-.29-2.72-.47-3.92Z"/>
      <path class="cls-1" d="m16.17,641.98l-1-5.97c.33,2.4.69,4.5,1,5.97Z"/>
      <path class="cls-1" d="m27.47,682.98s.06.07.08-.09l-.48-2.68s0,.05,0,.07c.14.99.27,1.88.39,2.7Z"/>
      <path class="cls-1" d="m6.22,505.13c-.01-.65-.02-1.21-.03-1.99.01.73.02,1.38.03,1.99Z"/>
      <path class="cls-1" d="m36.95,764.2l-1.57-13.33c.38,1.76-.2-4.68.3-1.89-.12-1.02-.59-5.79-.61-4.47l.23,2.73c-1.26-6.99-1.19-2.7-2.65-14.35.16,7.29.79,10.44,1.42,14.26.14,1.3.26,2.39.37,3.49l1.86,11.04.65,2.52Z"/>
      <path class="cls-1" d="m50.75,230.92l.04.15c0-.14-.03-.16-.04-.15Z"/>
      <path class="cls-1" d="m50.98,231.67l-.18-.6c.06.73-.04,3.5.18.6Z"/>
      <path class="cls-1" d="m16.8,644.15c-.14-.17-.36-.93-.63-2.17l.75,4.45c-.03-.64-.08-1.48-.12-2.28Z"/>
      <path class="cls-1" d="m19.13,654.23l.99,11.25.69,4.12c-.48-4.3-.97-9.33-1.69-15.38Z"/>
      <path class="cls-1" d="m6.05,523.1c-.54-23.56.9,5.77.9-5.05-.16-6.54-.64-8.84-.73-12.92.2,9.35-.07,8.71-.43,8.11-.33-.61-.74-1.2-.45,8.23-.4-1.33-.65-4.73-.77-8.6-.15-3.87-.11-8.21,0-11.42.7-7.26.47,6.35,1.17,7.98-.14-7.57-.23-6.24-.62-9.46.23-11.89-.32-24.69,1.1-31.76.14-4.32.22-6.34.18-7.91-.03-1.57-.11-2.68-.11-5.18-.33-.53-.66,2.68-1.02,6.41-.4,3.73-.61,7.99-1.01,9.58.1-.66.29-1.95.37-1.57-.17,2.49-.41,4.98-.53,7.47.26-3.54.47-3.29.53-1.67.1,1.61.13,4.59.09,6.48-.05,1.38-.11,3.44-.17,5.06-.04,1.62-.11,2.8-.2,2.42-.02-1.39-.07-2.78-.06-4.18-.35,5.37.26,11.86-.11,17.52-.16.3-.24-1.85-.34-2.17.47,6.35.47,12.47,1.03,21.84-.29-1.8-.58-3.61-.84-5.42.21,1.88.42,4.34.58,7.17.16,2.83.26,6.02.4,9.34.22,6.65.41,13.82.5,19.69.04-1.31.02-3.66.23-2.26.55,6.87.36,12.1-.2,8.94.97,6.69,1.16,25.62,2.66,34.68l6.97,41.57c-.22-1.56-.42-3.23-.59-4.96.33-3.85.09-5.9,1.22.72-.85-6.52-1.16-3.98-1.97-13.8.63,3.83,1.43,4.75.76-4.68-2.49-23.49-5.51-38.98-7.66-61.05.21-.42.09-4.98-.14-10.48-.18-5.51-.46-11.97-.48-16.21.59,3.22.98,9.49,1.35,15.99-.12-4.09-.42-11.11-.5-16.34l-1.09-2.1Z"/>
      <path class="cls-1" d="m10.47,578c0-.59-.02-1.2-.04-1.83-.02.34-.01.88.04,1.83Z"/>
      <path class="cls-1" d="m7.72,543.52c.02.08.04.05.06.08-.05-.68-.09-1.36-.14-2.06.03.7.06,1.49.08,1.98Z"/>
      <path class="cls-1" d="m17.46,638.55c.23,1.39.4,2.41.62,3.8-.1-.86-.24-1.93-.36-2.97-.14-.98-.25-1.45-.26-.83Z"/>
      <path class="cls-1" d="m16.98,643.33l-.26-.73c.03.6.05,1.02.08,1.56.12.15.2-.03.18-.83Z"/>
      <path class="cls-1" d="m14.49,433.54l.2-2.24c-.18,1.34-.21,1.93-.2,2.24Z"/>
      <path class="cls-1" d="m6.66,496.84c.03,8.19.7.99.72,12.57,0-1.13.01-2.27.03-3.4.33,8.31.47,22.89.95,32.74-.35-1.1-.09,5.99-.59,4.85.41,6.73.9,13.38,1.56,16.81.1,4.17.9,10.46,1.09,15.76.12-2.25,1.44,7.46.23-5.38.1,1.04.12.38.23,1.4-.16-8.31-1.01-11.59-1.42-18.74.03-4.28.83,6.96.71,2.92-.4-4.45-.65-11.46-.92-17.27-.23-5.82-.53-10.44-1.01-10.13-.24-6.51-.04-7.41.09-9.36-.32-2.57-.46-6.25-.55-10.32-.05-4.07.02-8.53.07-12.66.12-4.14.2-7.94.21-10.72.03-2.77-.07-4.51-.41-4.5-.12,3.77-.24,9.92-.05,15.45l-.95-.04Z"/>
      <path class="cls-1" d="m16.31,624.93c-.04-.5-.08-1.16-.11-1.58.03.47.07,1.05.11,1.58Z"/>
      <path class="cls-1" d="m20.45,727.62l-1.17-3.32c-1.75-19.3-2.05-26.31-3.43-43.19.02-1.3.26.74.38,1.78-1.05-11.87-2.27-29.65-3.37-38.26-.29-3.78-.8-13.72-.23-9.99-.23-1.83-.47-3.93-.61-6.04.28-.59.47,4.72.74,4.82-.11-1.68-.1-2.34-.23-2.71.5,2.8.87-3.01,1.89,10.14-.35,5.15-.81-9.12-1.41-6.04.34,4.36.62,3.83.76,4.2.42,5.56.2,5.43-.01,5.15.43,2.11.62,9.13,1.25,12.04.92,10.81-.67-.54-.1,6.52l1.17,4,.77,11.75c1.65,16.97,1.27-2.55,3.29,16.84-.64-2.52-.77,5.33-.22,14.39-.46-5.41-1.81-15.36-2.11-22.37.12,9.9-1.16-13.54-1.51-8.37.75,4.84,1.44,12.95,1.75,19.29l-.24-2.07c.45,6.74,1.73,11.76,2.13,21.07.39,4.61.09,3.77-.18,2.97.44,3.89.88,7.37.69,7.4Zm-.98-10.04l-.41-6.18c-.02,1.48.16,3.78.41,6.18Z"/>
      <path class="cls-1" d="m16.62,1499.44c-.06.61-.13,1.32-.18,1.88.06-.41.12-1.12.18-1.88Z"/>
      <path class="cls-1" d="m45.75,952.89l.07,3.6c0-1.4-.04-2.55-.07-3.6Z"/>
      <path class="cls-1" d="m48.86,1033.7l.04,5.29c.05-2.08.02-3.72-.04-5.29Z"/>
      <path class="cls-1" d="m18.62,1456.65v-.18c0-.29,0-.52,0-.83v1Z"/>
      <path class="cls-1" d="m18.37,1192.3c-.16.76-.33,1.62-.47,2.81.1-.13.23-1.19.47-2.81Z"/>
      <path class="cls-1" d="m48.85,1032.72c0,.13-.02.21-.02.32.01.21.02.43.03.65v-.97Z"/>
      <path class="cls-1" d="m46.79,917.26c-.07-.77-.13-1.47-.2-2.3.07,1.08.14,1.75.2,2.3Z"/>
      <path class="cls-1" d="m44.64,922.44c-.06-.83-.12-1.62-.19-2.23l.19,2.23Z"/>
      <path class="cls-1" d="m37.96,798.43l-.5-4.8c.2,2.36.36,3.77.5,4.8Z"/>
      <path class="cls-1" d="m44.55,909.62c-.05-.28-.11-.56-.15-.74.06.67.13.98.15.74Z"/>
      <path class="cls-1" d="m12.18,1529.94c0-.11.01-.23.02-.29l-.09-.13.07.42Z"/>
      <path class="cls-1" d="m12.59,1541.75c-.07,1.38-.15,2.82-.23,4.24.12-1.57.2-3.11.23-4.24Z"/>
      <path class="cls-1" d="m17.26,1261.65c-.07,1.29-.08,4.29-.28,2.9.28,2.44.71,2.26.28-2.9Z"/>
      <path class="cls-1" d="m8.37,1506.13c.07.77.1,1.73.13,2.69-.02-1.79-.03-3.36-.13-2.69Z"/>
      <path class="cls-1" d="m8.5,1508.82c.01.88.02,1.83.03,2.62,0-.92-.01-1.81-.03-2.62Z"/>
      <path class="cls-1" d="m8.83,1229.42c.05-.32.08-.82.08-1.49-.11.2-.13.74-.08,1.49Z"/>
      <path class="cls-1" d="m11.95,1549.41c.14.77-.91,19.22.44,3.74.58.65-.51,9.96-.69,14.1.39-2.99.28,1.53.58.63.09-2.06.11-4.51.42-7.89.41-1.53.19,3.62-.24,7.63.73-4.92,0,6.32.81-.66.49-7.49.9-13.88,1.17-19.73.23-5.85.3-11.14.21-16.44-.44,8.54-.92,18.1-1.77,25.07l-.31-2.98c1.14-7.86,1.07-12.78,1.68-20.55-.52,5.82-.97,11.64-1.55,17.44-1.11,8.14-.77,2.66-.36-3.79-.13,1.58-.28,3.02-.41,3.41Z"/>
      <path class="cls-1" d="m8.05,1537.3l-.04.29c0,.26,0,.57,0,.74l.03-1.03Z"/>
      <path class="cls-1" d="m27.05,800.19l-.32-1.48c.19,1.24.29,1.62.32,1.48Z"/>
      <path class="cls-1" d="m11.41,1527.08h0c0-.11,0-.13,0,0Z"/>
      <path class="cls-1" d="m29.88,837.43c-.02-.05-.04-.1-.06-.2.03.13.04.13.06.2Z"/>
      <path class="cls-1" d="m42.32,846.53c.02-.07.04-.09.06-.26-.09-.8-.09-.41-.06.26Z"/>
      <path class="cls-1" d="m29.93,837.45s-.03.03-.05-.02c.02.03.04.09.05.02Z"/>
      <path class="cls-1" d="m39.07,1018.54s.1-.57.21-1.47c-.05-.35-.11,0-.21,1.47Z"/>
      <path class="cls-1" d="m39.92,982.74c.02-.23.03-.36.06-.66l-.06.66Z"/>
      <path class="cls-1" d="m19.31,1253.05c-.08-1.77-.16-3.1-.24-4.22.05,1.29.12,2.69.24,4.22Z"/>
      <path class="cls-1" d="m29.82,837.23c-.09-.37-.18-.9-.32-1.77.15.96.25,1.47.32,1.77Z"/>
      <path class="cls-1" d="m39.24,1073.17c.01-.38.03-.74.04-1.1l-.09.65.05.45Z"/>
      <path class="cls-1" d="m36.55,1091.67c.04-.64.02-.94.02-1.3-.2,1.65-.48,3.65-.79,5.73-.35,2.08-.72,4.25-1.06,6.25-.38,2-.7,3.85-.93,5.29-.25,1.43-.38,2.47-.32,2.85.26-1.1,1.05-4.51,1.73-7.41.68-2.89,1.24-5.27,1.24-4.25.36-2.3.84-5.15,1.32-7.73.44-2.58.83-4.9.96-6.15-1.38,7.54-.54.76-.16-4.39.7-4.64.38.93.92-3.07.37-3.6.69-7.22.97-10.83-.3,3.14-.59,6.28-.96,9.42l-.26-2.91c-.02.35-.03.59-.04.97-.69,7.97-1.03,8.27-1.24,8.64-.25.36-.41.78-1.4,8.9Z"/>
      <path class="cls-1" d="m36.57,1090.37c.1-1,.18-1.87.21-2.55-.2,1.49-.22,2.08-.21,2.55Z"/>
      <path class="cls-1" d="m19.74,1153.31c-.21.8-.45,1.66-.72,2.75.14-.52.45-1.72.72-2.75Z"/>
      <path class="cls-1" d="m21.36,677.62c-.14.29.26,9.62.67,9.42-.17-2.76-.35-5.55-.53-8.34l-.15-1.07Z"/>
      <path class="cls-1" d="m16.54,1330.93c0-1.04-.03-2.08-.06-3.12-.03-.22-.06-.44-.08-.61-.05.64.08,2.69.14,3.73Z"/>
      <path class="cls-1" d="m36.13,1101.71c.23-1.7.3-2.46.3-2.88-.16,1.1-.28,2.11-.3,2.88Z"/>
      <path class="cls-1" d="m15.53,1331.53c-.11,1.33-.27,3.28-.43,3.56.03,2.71.28,4.6.39,7.36-.1-3.11-.1-6.71.03-10.92Z"/>
      <path class="cls-1" d="m15.51,1342.67c0-.08,0-.15-.01-.22,0,.08,0,.14.01.22Z"/>
      <path class="cls-1" d="m21.1,672.08c-.09-.8-.19-1.62-.29-2.46l.22,1.28c-.13-2.14-.25-4.27-.38-6.41-.08-.77-.17-1.6-.28-2.63.05.41.12.73.18.92-.04-.69-.08-1.37-.11-2.05-.85-5.06-2.18-17.71-2.73-21.34-.57-4.82-1.15-10.73-1.41-14.45.26,3.44.72,8.01.85,6.61-.3-7.01.16-10.46-1.42-22.47l.57,7.07-2.2-15.83c-.04-5.61,1.09,7.91,1.61,10.09-1.45-12.33-.98-22.72-2.21-28.41.43-.84,1.14-2.26.54-10.38-.17,5.9-.68-4.85-.96,0-.46-2.79-.41-9.08-.8-9.53l.25.75c-.05-13.93-1.44-18.42-2.1-24.36-.84-16.66-.66-24.34-.71-37.95.16-.27.47-1.33.74-3,.28-1.67.55-3.96.58-6.68-.46-2.54-.2-14.85-.7-16.14-.61,9.75.14,8.01.13,13.85-.68,4.85-.6.43-1.07,7.07.18-2.68.14-8.75.37-14.87.13-6.13.58-12.31.99-15.23l-.04,2.08c.41-4.68,1.14-7.43,1.67-10.96.26-1.77.56-3.73.82-6.23.29-2.49.43-5.53.71-9.43.19-2.48.34-4.96.55-7.44,0,.36.07.41.09.61.87-6.04,1.31-8.21,1.79-10.54.49-2.33.83-4.83,1.71-11.51-.13,1.03.04.4-.1,1.45,1.54-7.51,2.33-15.22,3.28-20.94,1.12-3.39.3.91.23,3.12,2.66-13.21,4.82-27.61,5.94-35.92l2.03-8.45c-.85,5.08-1.63,11.35-1.03,9.87.87-4.7.47-3.84,1.92-10.43.06,1.19-.23,4.02-.5,7.21,3.31-13.58-.42-3.27,2.46-12.66.88-4.3.95-6.89.69-7.43l2.01-7.7c-.28-.96,1.57-10.59,2.61-16.93-.07-.81-1.38,5.01-1.68,7.43-.25-.54.79-7.29,1.57-11.61.59-.71,1.84-7.8,2.7-14.08.91-6.27,1.72-11.71,1.91-9.06.16-1.22.33-2.48.5-3.76.14-1.28.28-2.59.42-3.92.29-2.66.59-5.4.89-8.17.29-2.78.66-5.58.88-8.39.24-2.81.48-5.61.72-8.36.23-2.75.46-5.44.68-8.04.16-2.6.31-5.11.46-7.48.27-4.73.51-8.9.63-12.16.49-4.27.96-13.02,1.15-7.75.21-3.97.33-7.46.41-10.71,0-3.25,0-6.26,0-9.27,0-3.01,0-6.01.04-9.24,0-3.24.04-6.71.17-10.65.14-1.3-.1,7.13.23,6.58-.12-5.16.07-9.85.26-15.25.11-5.4.27-11.52.11-19.52.05,2.69.23,3.48.34,3.85-.09.14-.15-1.5-.26-3.69-.11-2.19-.24-4.93-.34-7,.05-2.33.16,3.1.27,1.79.05-30.94-2.28-54.44-3.86-85.16.45,8.77,1.26,12.06,1.53,12.14l-.44-8.6c-.49-3.3-.84-9.75-1.4-15.13.08-.67.06-3.3.37-.63-.32-17.02-2.77-26.44-3.74-47.27l2.88,25.11.07-6.26,1.27,11.04c-.05-6.64-1.22-12.34-.79-13.17.23,1.39.39,4.76.66,4.85-.2-6.36-.6-6.84-1-11.61,1.8,12.52,3.28,37.19,4.23,50.47.19,2.09-.33-1.78-.45-2.14.32,5.42.18,8.69.71,15.51.64,4.22.14-3.25,0-6.62.39.44.46,2.14.71,5.88-.44.84.81,20.59.36,25.45.88,20.03,1.17-3.25,1.63,16.32l-.4,5.86c.37,5.68.76,12.19.95,18.89.09,3.35.19,6.75.29,10.12.05,3.37.04,6.7.01,9.92l-.02-2.71c-.24-1.81-.39,1.18-.51,2.5-.18,9.72.3,18.47-.34,24.36.05,1.39.09,2.89.15,4.49.01,1.59.03,3.28.04,5.03,0,3.5,0,7.25,0,11.05-.06,7.61-.36,15.41-.52,21.77-.94,3.37.3-16.58,0-21.88-.09,3.85-.36,7.69-.54,11.54.18-3.57.24-6.06.23-8.19-.04-2.14-.17-3.92-.3-6.06-.12,2.53-.16,4.63-.21,6.51-.05,1.88-.07,3.55-.07,5.2,0,3.3.03,6.54-.12,11.34-.17-.76-.31.52-.66,4.93l.4,1.29c-.05.08-.12.57-.25,1.93-.35,5.68-.55,11.38-1.06,17.06.54-3.59,1.04-3.73,1.35-8.13-.4,1.55-.18-2.19.15-6.6.03,3.89.58-4.28.84-4.17-.31,4.42-.66,9.35-.98,13.9-.39,4.54-.75,8.71-.96,11.61l-.63,1.84c-.22,2.1-.44,4.23-.66,6.33-.24,2.1-.48,4.17-.71,6.16-.45,3.98-.86,7.62-1.27,10.46l-.02-1.82c-.31,2.51-.69,5.01-1.06,7.49-.36,2.48-.72,4.93-1.07,7.35-.36,2.42-.72,4.8-1.1,7.13-.43,2.32-.87,4.59-1.36,6.79-1.02,8.99-2.72,20.25-3.65,27.59-.17,4-6.01,25.79-7.25,35.88-.2.66.97-6.91,1.46-10.35-1.45,6.6-1.82,11.99-2.84,13.94,3.23-14.79-.65.7.55-6.02-1.42,6.95-2.77,14.3-3.22,17.74,2.21-11.24.03,4.16,2.03-7.27-1.27,8.92-3.39,20.98-5.36,31.46-.24-.15-.58,1.13-1.35,5.04l-.12,3.23c-.84,4.92,1.05-9.61-.64.3-.47,5.16-1.71,12.84-2.53,19.84-.21,1.75-.43,3.45-.59,5.06-.15,1.61-.27,3.13-.36,4.5-.18,2.74-.24,4.88-.03,6.04-.51,3.9-.42.16-.21-3.08.18-3.24.3-5.99-.57-.11.18-6.92,1.81-16.32,1.54-18.66-.69,6.74-.82,2.39-1.35,6.73l-.26,3.78-.18,3.78.19-1.66c-.37,6.34-1.03,14.49-1.49,23.11-.12,2.15-.24,4.34-.36,6.52-.08,2.19-.16,4.39-.25,6.56-.19,4.36-.23,8.65-.29,12.7.47,13.74,1.46,23.16,1.97,39.62-.55-4.85.19,13.69-.87,3.35,0,7.64.77,15.15,1.05,15.28-.27-6.71-.04-2.36-.19-8.02.48,3.8.97,12.58.97,16.21-.07-1.67-.1-1.03-.22-1.4.28,8.02.56,3.82,1.06,9.59-.34,1.86.75,12.78.92,18.09l1.21,7.62c-.75-4.18.42,7.36.13,8.6.73,5.48,1.61,10.05,2.17,18.44-.49-3.44.29,7.67-.12,7.85.73,14.38,3.05,23.67,3.52,37.31-.13-.41-.63-3.13-.42.85.37,3.12.75,8.6,1.06,11.95l-.02-.1c0,.06.02.1.03.17.15,1.64.29,2.66.39,2.7.87,5.7,1.53,8.62,2.78,19.87.42-.87-.52-10.37-1.01-14.48l-.76-3.53c.46-3.46-.94-10.16-.89-12.77,1.4,6.7,2.73,26.2,4.19,37.84.11-7.18-1.01-22.69-2.17-36.21l.18,5.98-.57-7.08.03,6.89c-.44-6.71-1.03-12.5-1.49-18.56.57,7.09.12,9.91-.09,5.89-.15-7.94-.97-8.21-1.42-14.26.22,3.37.56,7.74.06,4.94-.36-11.96-1-15.15-1.24-26.04-.7,1.41-1.16-13.53-1.95-15.1l.33,5.03-1.34-10.62c-.12-9.89,1.36,8.66.65-6.35-.99-13.81-1.82-13.39-2.67-24.23.73,3.54,1.78,12.11,2.45,20.86l-.18-5.32c.49,2.78,1.38,14.9,1.84,20.95-1.34-9.95.2,4.69.13,9.28.53.8-.05-5.61.92,1.94-.57-7.1-.7-8.14-1.24-17.18,1.34,19.54,3.01,17.43,3.97,34.51-.83-7.84-.45,2.79-.6,3.76.35,3.69,1.06,11.18,1.42,14.26l.45-2.85c1.08,9.91-.07,13.47,1.53,24.88.52,1.46-.66-10.09-.42-8.04,1.67,15.65,1.04,21.38,1.64,35.35.26.77.68.58,1.42,5.42-.53-1.5-.44,2.12-1.18-3.33.2,4.67.93,10.16,1.42,14.25-.53-9.71.89,3.92,1.28,5.68.33,5.03-.52-1.5-.89-4.58.21,4.04,0,8.87.78,11.12-.41.19-2.01-11.18-2.72-18.64l.33,5.04c-.49-3.45-.48-4.11-.81-9.11.06,4.92-.34,4.47-.73,3.35.01-.65.13.35.14-.27-.21-4.03-.57-7.11-.72-6.16-.86-3.58.09,5.61.02,8.36.2,2.06.4,4.12.6,6.13l3.49,20.77c.92,8.92.8,12.97,1.06,19.71l.64,1.8c.57,7.78,1,15.13-.02,10.2.14-.29.02-1.32-.09-3.01-.08-.22-.16-.6-.24-1.09-.05-.16-.08-.25-.12-.38.83,8.32,1.34,13.51,1.39,13.99-1.83-14.09-.95-.64-2-2.93l1.41,14.26c-.4-8.68.41-.19.77,2.87-.42.89.91,11.51,1.22,16.53l-.13-.36c.19,4.65.85,12.79,1.41,18.57.15-.28,1.49,7.09,2.22,10.63-.53-9.96.09-4.07.34-4.89.05,1.03.17,2.88.25,3.09.24,1.41.05-1.95.19-2.24-1-10.55-1.89-21.41-2.9-25.67-.06,3.27.72,5.5.79,9.15-.86-5.2-1.28-11.95-1.95-20.72l.18-2.91-.92-8.81c.51,3.67.76,1.42,1.57,10.67.29-1.21-.81-9.18-1.13-14.85l-.77-2.85c.39,1.09-.51-11.04.58-2.46l1.55,13.99.06-3.93,1.04,11.85-.5-2.78c1.86,19.03-.64,5.7,1.47,24.84,1.11,5.96,1.67,12.41,2.34,24.2-.75-8.51-.53-.84-1.14-4.02.35,8.71,1.07,11.61,1.64,16.1-.2,2.24-.38,3.83-.85-3.94-.8-.92.82,10.21.11,10.96.83,12.87,1.73,17.99,2.54,23.67.81,5.68,1.53,11.91,1.75,27.02l-.35-1.12c1.22,19.14,1.21,30.21,1.79,47.98-.17,4.67-.35,9.34-.58,14-.07-1.56-.26-4.45-.49-6.45-.24-2-.5-3.12-.65-1.15.65-6.81.29-14.03.47-21.36-.22-.74-.29,2.25-.38,3.55-.12-4.42.19-6.65-.13-12.48-.13.29-.16,6.66-.39,1.86l.2-7.95c-.61-10.61-1.32-5.19-1.64-17.66.52,2.3,1.37,7,1.65,11.83-.11-5.7.53,7.59.6,2.38-.93-8.19-.62-12.17-1.53-23.06.15,1.28.3,1.61.46,4.29l-.53-15.84c-.14,3.93-1.15-13.04-1.62-11.54.73,16.86.8,11.89,1.41,31.12-.34-5.44-1.3-12.42-1.97-15.68.01-.17.02-.45,0-1.04-.69-2.9-.69.09-1.64.09.56,4.36.78,8.01.97,11.86.17,3.85.3,7.9.72,13.06.61,1.92.4-6.03.04-11.16l.74,9.09-.32-1.78c.3,7.71.48,15.42.69,23.14-.16-4.38-.53-5.86-.84-8.14.08,2.98.07,5.94,0,9.09.48-.67.84-.27.91,2.64.07,3.72.11,7.03.12,9.99-.01,2.96-.05,5.56-.11,7.87-.11,4.62-.3,8.07-.58,10.82.02.57.03,1.22.05,1.73.47-2.5,1.04,10.57,1.5,15.19-.54-.23-.32,7.68-.65,11.98.56,2.29,1.49-.75,1.98-5.98-.52-10.09-.54-5.66-1.31-10.42l-.64-16.16.51,3.61c.14-8.07-.69-15.81-.03-15.23.48,4.26.4,11.3.82,15.53l.17-5.34c.72,9.42-.55,4.84-.03,16.24.5-4.2.06,1.03.38,5.92.45-3.93-.26-20.09.69-16.67.21,2.97.01,7.96-.19,13.2-.23,5.24-.37,10.71.04,14.64l-.1-.39c-.29,11.59.17,15.68.37,20.03-.43,4.93-.25,11.78-.49,17.16l-.26-.14-.31,7.59c-.25-3.64.53-8.89.7-15.4l-.52.79c.87-7.48.11-12.49-.22-18.29.16,4.22-.04,10.17-.18,15.33-.14,5.16-.26,9.52.18,10.54l-.78,5.21.02,2.52c-.64,3.88-.91-.15-.62-7.71.18-1.31.28-1.96.36-1.56-.06-3.52-.27-6.75.08-15.21l.12,4.53c.39-10.55.26-20.12-.14-23.73-.38,15.18-.8,30.14-1.72,44.45.84,4.29,1.05,9.37,1.87,11.62-.32,4.84-.88,10.54-1.58,16.08-.72,5.54-1.64,10.9-2.59,15.04l-.06-.8c-.4,2.03-.79,3.98-1.15,5.81-.34,1.84-.66,3.56-.96,5.13-1.2,4.22.11-3.04-.69-.09-.87,4.58-1.91,9.15-3.02,13.67-.11-.47.63-3.54,1.45-7.21.85-3.66,1.76-7.9,2.3-10.63-.15,1.04-.55,3.14-.33,2.48.78-3.16,1.51-7.75,2.12-11.89.6-4.14,1.12-7.82,1.63-9.18.31-3.14-.37,6.42,1.1-4.16,1.14-7.07.7-9.45.6-10.2-.13-.07-.51,2.7-.85,4.99-.37,2.29-.7,4.11-.62,2.15-.29,2.76-.49,4.69-.71,6.81-.22,2.12-.56,4.43-1.24,7.92.88-5.45,1.3-12.92,2.03-15.78.36-5.42.15-7.77-.21-8.13-.35-.36-.82,1.26-1.13,3.79.26-.58-.14,4.33-.43,7.64-.12,1.65-.25,2.9-.15,2.87.09-.04.39-1.36.93-4.88-.22,6.4-1.96,17.99-3.4,26.28l-.02-.39c-.68,3.42-1.38,6.83-2.19,10.22.22-1.47.85-4.56.59-4.73-.85,4.74-1.8,9.51-2.9,14.18.86-3.98.44-2.78-.34-.16-.79,2.61-2,6.62-2.63,8.34-.06,1.58-1.41,6.99.38,1.95,2.02-5.68.82-3.41,2.33-8.7-.51,2.56-1.05,5.11-1.6,7.64l-.25.62-.87,4.6c-3.13,9.99.19-4.71-3.28,8.23l1.19-1.45c-2.34,7.37-5.03,15.65-7.03,23.44-1.99,7.77-3.18,15.1-3.57,20.41-.07-2.95-.57-4.33-1.41-.35.3-2.29.75-5.72,1.36-9.38.58-3.66,1.36-7.53,2.06-10.76.21-.61-.06,1.46-.52,4.53-.45,3.07-1.05,7.17-1.57,10.7.8-1.64,1.28-6.07,1.95-10.17.64-4.1,1.43-7.9,2.09-8.16,2.47-8.82,3.29-12.21,3.91-15.27.67-3.07,1.27-5.76,3.97-13.3-.44-.36,1.09-4.44.89-5.38-2.16,4.34-6.44,20.4-9.28,30.12.21-.97.68-2.93.68-3.33-2.07,6.99-2.63,9.94-3.47,14.9l.18-.61c-.63,4.35-.87,5.68-1.24,6.54-.35.86-.71,1.26-1.18,3.82-.27,1.99-1.16,9.17-.64,8.05-.46,3.11-.85,6.24-1.19,9.38l.61-.42c-.21,5.33-.63,6.49-.35,11.34l.52.23c.03-2.21.16-4.41.23-6.62.14-2.2.22-4.4.42-6.59-.13,3.34.03,3.82.1,4.37.11.55.14,1.18.12,4.86-.38-8.24-.44,5.8-.87,6.63l.32,5.44-.15-1.39c-.22,4.28.25,5.09.33,10.1.12-5.92.4-9.77.09-17.24.18,5.43.76,16.25.89,18.92.42,5.74.22,9.79.42,15.21-.36-5.19-.71-4.26-1.05-4.64-.33-.37-.72-2.08-.88-12.46.11.38.14,2.06.1,2.71.55-2.79-.39-12.41-.6-16.88-.37,1.15-.51-3.54-.68,4.42.22-2.61.9,6.68.9,14.29l-.88-1.31c.1,3.69.23,7.39.37,11.09l-.09-1.04c-.35,4.2.72,11.85.72,19.54.27,2.76.58,9.46.88,14.32.31,4.86.54,7.88.82,3.29-.28,6.91.58,12.94.94,20.45l.02-9.39c.95,11.07.51,7.88,1.68,16.74-.21.9-.35,2.89-.63,1.09.13,7.45.35,16.5.45,24.77.12,8.28.35,15.78.71,20.15-.03,10.51-.94,12.16-.61,26.9.09,3.11.79-2.42.48,7.34-.07.66-.54-9.4-.56,1.47.28,3.87.19,8.42,0,13.25-.19,4.83-.39,9.96-.21,15-.29,5.31-.49,14.53-.94,12.6.2-4.21.3-9.29.33-13.55.04-4.26.01-7.69-.09-8.6.28,1.17.4-5.98.53.22.62-12.72-.18-8.26.19-19.68-.2-.79-.61,5.86-.44,8.31-.69.04-.15-22.51-1.06-12.37-.15,12.19,1.27,15.83.33,26.39-.35-4.24.16-10.86-.55-16.25-.12,2.89-.22,5.79-.38,8.68l.38,6.31-.09-.38c-.46,7.66-.34,11.21-.11,14.56.21,3.35.54,6.5.51,13.37.71-7.94,1.14,1.87,1.61-4.1-.18,9.19-.45,15.93-1.16,15.96-.05-17.19-.7-1-.92-16.89-.32,2.6-.9-3.8-1.25,5.65.19,10.67.67-3.17.59,7.46-.08.63-.16,1.27-.25.9.21,4.9-.34,5.7-.17,11.62l-.08-1.41c-.7,7.27.16,7.99-.54,14.25.62-2.49.24,4.23.35,8.13.53-6.35,1.38-9.76,1.83-22.32-.35-1.53-.61-.62-.6-5.78l-.27,8.16c0-1.76-.05-3.11-.07-4.72.16-2.61.36-5.22.5-7.83-.06,9.95.52,5.41.79,9.64-.53,9.09-.18,7.51-.54,13.23-.51-.6-1.85,17.49-2.76,27.93.12-1.62.2-3.72.27-4.85,0-7.62-.74,5.2-.95,5.47l-.03,5.55c.02-1.04-.03-2.49-.26-.14-.34,7.5.28,7.1-.06,14.59-.36.54-.48-5.82-.93-1.18-.36,1.59-1.47,6.64-1.89,16.59.08.71-.03,3.29-.19,6.28.01-.42.04-.94.03-1.13l-.83,6.57c-.14-5.66,1.07-11.34.91-17.03l-.5-.52c.15-2.2.28-4.79.35-7.18.06-2.39.06-4.58,0-5.96-.48,6.69-.47,8.11-.88,15.61-.41,1.02-.29-4.26-.27-5.03l.22,1.14c.55-4.45.63-7.8.67-11.42.05-3.62.07-7.52.45-13.08.12-1.68.1-.65.18-.27.04-9.03,1.1-17.84.88-26.62l.14,2.87c.12-5.97-.03-17.65-.05-29.32l-.2-.1c-.16,1.29-.03-3.08.12-5.43h0c-.07-5.84-.14-11.45-.2-16.05-.17,1.46-.33,3.34-.42,5.49.19,1.83-.32,12.53.28,11.08-.44,4.94-.32,12.91-.66,16.54.61-6.6.34,4.63.6,5.8-.42,2.21-.37,9.8-.81,8.92-.18,1.3.48-3.23.29-6.06-.08-3.47-.3-.31-.51,2.65-.22,2.95-.46,5.69-.45,1.37-.22,10.98-1.03,25.43-1.34,36.77l.57-6.32c-.37,5.02-.97,16.93-1.26,17.8.18-3.74.44-8.11.64-12.89-.51-.26-.68,11.48-1.04,12l-.1,13.93.46-6.08c.04,3.85-1.18,16.53-2.06,25.93-.15-2.73.15-6.28.51-10.38.34-4.11.77-8.78.97-13.74.23-7.21-1.01,4.39-.7-2.43-.29,1.75-.58,6.2-.56,8.4l-.32,2.68c-.23-6.12.91-19.72.84-28.82.02.8.06,1.5.12,1.75.65-6.97,1.13-14.05,1.26-20.87-.39,3.59-.3,5.02-.35,7.08-.16.25.09-6.18.03-8.62-.5,6.32-.44,1.16-.75,5.16.05-4.13.26-7.47.58-12.49.38-2.59.23,2.17.58,1.66.04-5.19,1-7.51.91-15.11-.53,10.08-.6-2.69-.69-6.17l-.09,1.69c-.26-3.21-.17-5.92.27-8.12,0,4.13-.27,8.12.16,6.96.09-2.73.18-5.44.18-8.53l.17,2.82c.15-4.52.31-9.03.39-13.55-.28-2.16-.66-5.75-1.11-7.64.4-3.24.28-7.77.25-10.86l.1,1.44c.44-5.97.41-19.27.14-20.39.35-4.27,1.37,30.22,1.64.03.2-11.48-.88-7.16-1.13-13.71,0,0,.1.37.16-.28.11-5.02-.25-5.53-.38-9.65-.17,3.01-.21,7.37-.08,8.78-.39-1.52.12-10.46-.17-14.3.62,4.99.22-9.7.54-5.83.38-9.99-.13-20.66-.69-25.9.35-3.39.28-6.36.16-9.86-.11-3.5-.3-7.52-.26-13.02.01,1.69.21,4.75.17,7.12.62,6.26.02-11.4.68-1.76-.13-2.06-.26-.14-.15,1.97.1,3.7.36,7.18.58,6.25.1-2.99.24-5.98.3-8.97l.18,3.13.3-13.62c-.11-.37-.2.91-.25,1.57-.02-3.95-.09-8.03-.18-12.16-.14-4.13-.29-8.29-.44-12.4-.16-4.1-.32-8.15-.47-12.03-.17-3.88-.33-7.6-.48-11.05-.77-1.27-1.24-9.75-1.82-19.33-.58-9.58-1.03-20.31-1.55-25.96.45,3.03,1.23,4.65,1.46,2.78.13,2.51.84,7.63.99,13.3-.19.92-.1,7.92-.58,3.43.93,15.63.5-2.14,1.25,2.45-.97-17.32-2.05-27.55-2.07-38.64l.17-.28c-.03-1.39,0-2.79,0-4.19,0-1.4.02-2.8.07-4.2-.27,3.42-.51,5.04-.69,4.7-.16-.34-.22-2.64.23-7.06l-.03,1.08c.63-5.02,1.28-15.57,2.94-23.39.19-1.8.4-3.59.66-5.37.9-3.88,1.65-5.82,2.27-7.1.62-1.28,1.13-1.89,1.72-3.06,3.35-11.83,4.94-18.71,7.03-27.07.75-1.81,2.44-7.03,3.57-10.64,1.13-3.62,1.78-5.63.77-.97,1.26-5.27,1.15-7.51,1.5-10.63.26-3.14,1.02-7.11,3.11-16.14l-.48,4.8c1.56-8.72,2.84-19.42,3.56-28.98.76-9.56,1.12-17.97,1.52-22.06.47,3.32,1.11-2.23,1.68-9.03.57-6.8,1.06-14.85,1.7-16.44-.3.88-.3-5.86-.43-6.85.16-1.48.37-3.94.11-6.55-.32,7-1.23-4.93-.91,8.45-.38-3.39-.69-7.27-.97-12.15-.25-4.88-.37-10.76-.44-18.17l.53.22c-.03,3.91-.03,7.82-.11,11.73.39-1.18.34,4.85.51,7.33.19-10.91.49-10.2.75-9.55.25.65.52,1.25.39-9.92-.36-2.15-.21-.76-.39-6.56.03,2.73.42,3.22.37-1.18l-.5-4.22c.76-7.81.77,12.9,1.29,6.24.24,4.31.45,10.21.66,14.67.18,4.47.39,7.51.73,6.12.17-7.05-.2-10.22-.53-13.47-.35-3.25-.62-6.58-.62-13.95l.26-1.57c-.29-5.18-.76-6.01-1.1-8.84.16-.26.24-1.58.2-4.91-.89-8.73-1.25-14.53-2.28-22.57.67,10.72.7,15.31.67,19.99,0,2.34-.01,4.7.05,7.86.04,3.16.13,7.12.36,12.65-.14-1.73-.32-6.5-.56-10.95-.26-4.45-.61-8.58-.98-9.05l.53.19c-.45-7.19-1-14.38-1.15-23.42l.5,5.51c-.82-11.97-.03-19.96-1.39-29.37.12,3.34.28,6.05.46,8.11-.55-6.16-.87-13.9-1.18-20.6l-1.69-13.81c.27.11-.27-8.68.42-4.47-.22-10.01-1.36-14.66-1.87-20.42-.16-10.26.86,8.84,1.64,9.79-.68-14.1-2.02-29.02-3.09-36.93.11,2.88.12,4.28-.02,4.15.13-.44-.33-6.11-.57-9.27l-.51-2.15c-.17-5.29.08-4.56.69-.1-.32-5.04-1.44-11-1.36-16.22,1.09,8.57,1.57,19.56,2.16,24.02-1.7-17.95-.34-18.17-2.57-40.93.14-.29.76,3.54.42-.85-.93-10.16-.91-2.6-1.55-5.75.83,7.81.92,11.48.84,16.05l-.44-2.07c.12-.33-.26-5.25-.24-6.71l-.67-1.22c.67.54.52-7.37-.2-13.54.04,6.29-.07,4.6-.64,6.35-1.37-8.64-.12-9.87-1.61-19.56.26.71,1.09,9.21.65,1.85-.46-6.09-.88-5.24-1.36-9.31.89,4.56,1.18,3.35,2.19,8.28.93,10.81.34,4.36,1.41,14.92l-.27-8.98c.81,9.16,1.13,6.62,1.39,7.36-.71-15.69-1.73-11.73-2.39-21.81-.74-4.83.67,9.44-.3,1.87-.67-9.42-.51-2.12-1.58-12.67l.38,1.75c.05-3.25-.58-6.42-.93-10.15-.48-4.1-1.44,4.8-2.82-12.1.21.82.33,1.11.39,1.11l5.69,16.14c-1.37-17.13-2.82-36.87-4.1-56.73.48-4.74,1.83,14.1,2.12,12.86l.54,9.06c-.4-.48-1.62-18.94-1.61-10.72,1.53,15.95,1.69,23.23,3.64,38.33.48-4.78-1.74-19.95-1.86-29.86.27,4.14.64,7.63,1.04,11.01-.62-9.27-1.29-19.18-2-29.72l-.4-2.35c.47,7.11.78,12.02.8,12.66-.67-9.42-1.78-17.32-2.46-17.89l.11,1.67-.47-3.39c-.14-2.21-.27-4.42-.41-6.62ZM46.92,63.43c.09.57.18,1.02.29,1.35-.11-.34-.15.05-.29-1.35Zm-9.28,792.82c-.79-12.57-1.57-25.25-2.43-37.32.43,21.88.62,37.25-2.1.91l-.27-2.37c.21,4.76.83,12.95,1.49,20.65.47,3.1,1.47,9.65,2.34,15.4.45,2.87.87,5.55,1.18,7.49.31,1.94.52,3.15.55,3.09.2-2.23-.4-5.43-.58-9.46l-.17,1.6Zm-1.46,9.07c.34,7.13.51,5.49.83,6.58-.2-2.5-.4-5-.6-7.47,0,.95-.05,1.42-.23.9Zm1.05,6.14c-.05-.8-.08-1.48-.07-1.84l.07,1.84Zm-10.3-138.42c.03.32.04.43.07.73-.11-1.68-.23-3.37-.35-5.13.01.69.09,1.99.28,4.4Zm.54,14.49l.59,1.65c-.11-1.57-.22-3.17-.33-4.8-.16.56-.3,1.13-.26,3.15Zm2.2,46.53c.78,2.88,1.57,12.68,2.25,13.23.21.61.11-1.45-.02-3.77-.19-2.58-.39-5.34-.6-8.26-.1-.09-.23-.67-.39-1.63.15,2.89.15,4.83-.33,3.69.25-7.49-1.12-6.6-1.55-14.64-.64-2.52.27,8.96.64,11.38Zm-14.09,614.56c-.06.23-.21,1.01-.41,2.11l-.21-5.67c.27-10.1,1.21-18.19.5-27.29.19-4.26.59-6.54.93-8.71-.02,2.08-.05,4.03-.1,5.66.55,12.76.16,16.08-.19,18.79-.18,1.35-.38,2.56-.49,4.71-.1,2.15-.13,5.25-.04,10.41Zm.02-116.22c.07,1.04.19,1.41.19,1.41-1.88-22.54-3.26-41.08-3.74-53.25-.38,2.38-.18,13.32-.11,18.5l-.75-4.56.27-2.89-.86-7.95c-.25,2.25.14,8.69.09,13,.14.37,1.34,14.11,1.83,17.94l-.12-11.02c-.04,2.98.79,17.57,1.09,23.35.13.05.22-2.42.18-5.06-.05-2.64-.22-5.45-.53-6.06.34-1.2.84,10.3.94,3.01.78,8.61.85,22.35.87,28.72l-.63,1.1c-.09,6.99.89,4.7.71,13.01-.36-10.2-.67,1.74-.91-6.37-.19,2.6-.69.07-.45,8.2,1.03,6.75-.35,8.58.49,14.96-.22,4.28-.58-4.59-.59,3.82.58,9.64.89,9.08,1.53,9.67.06-9.03-.95-10.13-.89-17.51l1.26,14.67c.12-2.71.11-4.71.04-6.39.1,2.95.29,5.46.54,7.6.13,1.22.25,2.35.36,3.39-.1-8.33-.18-15.72.07-17.03l.32,1.14c.24-2.95-.02-7.76-.32-9.97-.21-7.45-.8-14.89-.45-16.53l.34,2.82c-.33-9.17-.37-10.19-.78-21.71Zm28.13-297.13c-.53,2.78-1.09,5.7-1.47,11.16-.19,2.73-.33,6.1-.5,10.4-.16,4.3-.22,9.54-.35,16.02l-.03-2.04c-1.05,13.01.13,25.5-2.11,41.26.15-3.85.2-5.68.18-7.6,0-1.93-.1-3.96-.3-8.22-.08,2.75-.14,5.5-.26,8.25-.43-2.32-.71,5.9-1.41,11.9-.05-1.79-.1-3.58-.19-5.37.6-3.58,1.31-12.96,1.11-12.7-.02,2.07,1.69-12.35,1.67-20.24-.47.8-1.02,17.41-1.49,9.96.01,6.54-.52,7.32-.81,14.14.11-6.55-.55-1.66-.59-6.54-.17,3.72-.38,7.44-.63,11.15-.1.14.15-3.92.2-6.88.05-2.96-.03-4.82-.63-.28-.01,2.24-.34,6.32-.65,9.87-.29,3.55-.58,6.56-.32,6.7l-.19.26c-.49,4.14-.46,5.06-.43,6.23.03,1.17-.01,2.57-.87,7.62.25.16.7-1.75,1.15-5.39.14-1.55.12-2.45.17-3.76.05-1.31.14-3.02.43-6.21.72-2.81-.87,7.66.3,3.33.28-1.08.68-5.29.94-8.64.3-3.35.49-5.86.71-3.48-.26,2.77-.55,5.55-.87,8.31.51.27-.16,6.29.25,6.16-.39,5.11-1.68,9.8-2.04,15.03-.03,2.19,1.27-1.43-.54,7.04-1.02,3.25-2.5,9.74-4.22,16.26-1.73,6.51-3.66,13.09-4.7,16.69l-1.61,6.36c.49-.44,3.64-11.99,2.81-7.84l-2.89,9.81.04-.82c-1.05,3.23-1.86,6.61-2.64,9.61.55-3.17,2.88-10.18,1.92-8.94-1.52,4.56-1.94,5.2-3.11,9.48.24-.94.42-1.76.32-1.66-3,9.3-2.01,9.24-2.5,11.64-.88,4.85-.12,2.48.94-.9,1.06-3.38,2.49-7.75,2.58-7.07-2.59,9.15-4.86,18.41-6.24,27.81.23-2.43.47-4.88.1-4.01-.72,3.43-.83,3.46-.97,3.84-.14.38-.29,1.11-.93,6.01.21-.15.25.55.2,1.79-.06,1.24-.21,3.02-.33,5.04-.31,4.04-.51,9.05-.43,12.52-.2,1.62-.31,2.59-.36,2.28-.04-.32-.05-1.92.12-5.47-.25.39-.48,2.98-.55,5.89-.11,2.91-.07,6.14-.1,7.84.13,1.97.22,5.31.38,7.43.2-2.85.49-1.63.87,4.5l.11.36c-.08-5.04-.03-11.47.16-17.41.18-5.95.49-11.41.47-14.57l.13,1.79c.58-5.78,1.02-12.07,1.72-17.57.71-5.49,1.65-10.17,2.7-12.67.24.56.63-2.25,1.09-1.92.54-2.79,1.14-5.58,1.77-8.37l-.24,1.78c1.24-4.69,2.6-9.35,3.99-14.01l-.02.4c1.59-6.77,2.85-12.09,3.79-16.35-.22-.08-.41.33.09-1.94.54-2.26,1.02-3.96,1.46-5.47,0-.01,0-.01,0-.01h0c1.03-3.43,1.95-5.66,3.12-9.93-1.02,4.42-2.19,8.81-3.43,13.17.05,1.17.82.2,2.83-6.2-.69,2.65-.71,3.83.23.57-.01-.2.53-2.37.86-4.13.34-1.76.54-3.07,0-1.52,1.49-6.31,3.44-14.59,5-23.8,1.59-9.2,2.74-19.33,3.12-29.16-.67,14.13,1.42-11.26.34,4.41.76-5.44.76-7.81.69-10.2-.06-2.39-.2-4.81.11-10.38.28-.94-.32,6.06-.04,8.65,1.31-18.54.19-31.3.55-49.2l.49-.76c-.06-3.39-.12-7.16-.18-11.07Zm-1.16-35.41c-.15-3.44-.31-6.94-.47-10.48,0,.35.01.67.02,1.03l-.76-10.33c.04,6.36-.35,10.57-.92,1.68.23.74.38-1.87.61,1.22.12-5.97-.21-19.06-.79-15.62,1.19,11.42-.8,2.71.07,11.68-.65-4.81-.67-9.6-1.08-14.14.59,4.73.89-1.15.71-8.28-.28-3.1-.57-11.5-1.08-16.64-.34,1.86-.86-2.61-.49,5.79-.29-3.07-.66-7.83-.73-13.18.2,2.11.47,5.81.61,5.54.21-3.47-.02-7.5,0-9.74-.14-1.77-.27-3.56-.4-5.31,0,.52-.03.98-.07,1.3l-.77-5.87c.7,7.84.02,3.64-.25,3.56.54.18-.24-5.06-.44-7.75l-.18,5.88c-.45-2.8-.25-9.99-.7-8.48.58,12.4.99,17.16,1.78,28.35l.17-4.57c1.03,12.63-.28,7.84.46,22.03.7,5.88.99,21.34,1.77,21.6-.31-1.77-.37,8.87.13,13.72.43,2.68.79,8.08,1.06,12.21.26,4.12.39,6.96.52,4.49-.05-4.4-.65-10.31-.27-13.85l.38,8.53.24-5.61c-.06,2.9.31,2.61.86,1.26Zm-7.62-191.09c0-.09-.01-.21-.02-.33,0,.13.02.25.03.37v-.04Z"/>
      <path class="cls-1" d="m11.76,1534.94c0,2.46-.45,8.52.02,7.36-.44.12.7-10.83-.02-7.36Z"/>
      <path class="cls-1" d="m10.84,1542.16c.07.43.26.15.08,2.87l.42-7.49-.5,4.62Z"/>
      <path class="cls-1" d="m7.36,1549.53c0,3.88-.01,6.33-.53,12.38-1.22,2.19.51-9.92-.24-12.74-1,11.07-.33,14.55-1.04,23.66.86-4.47,2.55-22.91,1.8-23.3Z"/>
      <path class="cls-1" d="m6.44,1544.5l-.25,6.18.11-.6c.08-2.06.19-4.12.24-6.18l-.1.61Z"/>
      <path class="cls-1" d="m21.57,1410.99c.34-.55.09-4.42.05-6.5-.05,1.68-.18,4.04-.05,6.5Z"/>
      <path class="cls-1" d="m55.83,202.68l.31-11.86c.11-3.95.09-7.91.14-11.86.12-7.91.04-15.81-.01-23.71.02,6.82.14,13.38.02,20.88-.03,3.75-.07,7.74-.11,12.12-.11,4.38-.22,9.14-.35,14.44Z"/>
      <path class="cls-1" d="m16.8,1254.15c.9,12.66,1.71,18.27,2.38,31.19.01-8.51-.53-14.12-1-19.38-.47-5.26-.96-10.18-.99-17.31l-.39,5.49Z"/>
      <path class="cls-1" d="m19.61,1258.49c-.51,2.13-1.2-9.74-1.56-7.87.56,8.52.8,3.94,1.09,11.7l.47-3.83Z"/>
      <polygon class="cls-1" points="11.57 1316.28 11.17 1312.45 11.35 1315.53 11.57 1316.28"/>
      <path class="cls-1" d="m18.17,1201.42l.05,1.37c.2-2.06.38-4.12.64-6.16-.26,1.59-.49,3.18-.69,4.78Z"/>
      <path class="cls-1" d="m18.28,1204.17l-.06-1.37.06,1.37Z"/>
      <polygon class="cls-1" points="10.15 1311.38 10.15 1317.08 10.49 1319.89 10.15 1311.38"/>
      <path class="cls-1" d="m11.56,1260.96l.42,5.09c-.08-1.01-.14-8-.42-5.09Z"/>
      <path class="cls-1" d="m24.58,1164.38c.46-1.98.93-3.96,1.42-5.95l-.23.58c-.5,1.98-.95,3.95-1.41,5.93l.22-.57Z"/>
      <path class="cls-1" d="m8.38,1220.93c-.22,1.78-.28-.79-.3-2.89,0-2.11-.01-3.74-.25-.07.1,6.54.34,3.88.56,2.96Z"/>
      <path class="cls-1" d="m23.04,1147.01c.25-.8.49-1.65.69-2.48-.27.98-.5,1.8-.69,2.48Z"/>
      <path class="cls-1" d="m23.04,1147.01c-.8,2.59-1.76,5.13-2.15,6.95,1.17-3.18,1.45-4.37,2.15-6.95Z"/>
      <path class="cls-1" d="m31.63,1117.24c-.2.79-.4,1.58-.63,2.37.39-2.48.15-1.32-.25.88-.64,2.51-.47,2.41-.46,2.73-.08.52-.16,1.03-.25,1.59.15-.79.29-1.5.41-2.1,1.05-3.88,1.59-6.28,1.17-5.48Z"/>
      <path class="cls-1" d="m49.59,1002.91c-.19,9.12-.32,11.47-.68,10.97-.25,8.65.4,7.32.47,12.54.06-9.79.33-11.8.22-23.51Z"/>
      <path class="cls-1" d="m49.38,1026.42c-.01,1.1-.03,2.15-.04,3.42.04-1.42.06-2.48.04-3.42Z"/>
      <polygon class="cls-1" points="17.59 1150.84 18.71 1145.26 18.17 1147.26 17.59 1150.84"/>
      <path class="cls-1" d="m49.74,989.38c-.01,1.69.03,4.4-.09,5.73.37.48.1-7.42.09-5.73Z"/>
      <path class="cls-1" d="m42.4,1024.41c-.22.92-.22,6.72-.37,9.08.13-3.38.88-6.13.37-9.08Z"/>
      <path class="cls-1" d="m47.82,963.29c.03,1.69-.16,4.29-.49,3.17.21,2.45.95,5.75.49-3.17Z"/>
      <path class="cls-1" d="m42.67,1007.84l-.13,1.29c.08,2.07.14,4.14.17,6.21.01-2.5-.01-5-.05-7.5Z"/>
      <path class="cls-1" d="m36.97,1029.84c.28,6.96,1.3-11,1.4.98.76-15.44-.62,1.17-.36-10.22-.24,6.67-.88,9.92-1.04,9.24Z"/>
      <path class="cls-1" d="m38,1020.6c.03-.97.06-2.02.09-3.16-.03,1.26-.06,2.28-.09,3.16Z"/>
      <path class="cls-1" d="m39.01,922.56c.09,1.01.17,1.7.25,2.33-.07-.79-.15-1.55-.25-2.33Z"/>
      <path class="cls-1" d="m37.73,984.2l.73,10.42c-.25-3.48-.37-9.6-.58-14.72-.22-5.11-.45-9.22-.76-8.66-.03,5.67.27,12.5.54,15.3l.07-2.34Z"/>
      <path class="cls-1" d="m44.27,863.73l.56,4.5-.3-5.65c.01,1.62-.66-1.27-.26,1.15Z"/>
      <path class="cls-1" d="m44.47,861.49l.06,1.09c0-.24-.02-.59-.06-1.09Z"/>
      <path class="cls-1" d="m40.14,942.29c.08,3.38.19,6.07.42,9.15.08-1.28-.11-9.69-.42-9.15Z"/>
      <polygon class="cls-1" points="41.03 832.01 41.7 839.45 41.04 831.33 41.03 832.01"/>
      <polygon class="cls-1" points="39.44 797.2 39.46 795.91 38.74 789.76 38.72 791.07 39.44 797.2"/>
      <path class="cls-1" d="m30.15,843.57c.3,5.04,1.16,8.93,1.19,7.61l-.74-9.77c-.33,2.52.22,2.71.5,8.38l-.95-6.22Z"/>
      <path class="cls-1" d="m18.96,539.94c.45,2.16.75,12.81.49,13.39-.24-1.42-.65-7.19-.68-3.55l1.31,8.38c.14,11.25-1.64-8.46-2.14-13.99.21,5.72.53,9.42.87,13.21.33,3.79.73,7.67,1.11,13.75-.16-3.59-.09-5.87-.03-7.78.56-.45,1.02,10.89,1.66,18.99-.1-5.17.31-2.21.82,1.53.07.67.14,1.12.2,1.44.06.44.12.85.18,1.27l-.07-.97c.07.06.13-.16.19-.86-.66-6.78-.54-12.01-.81-16.38-.34,2.19-.64-1.53-.93-6.48-.25-4.95-.52-11.13-.78-13.86l-.4-6.33-.11-2.37c.09-.48.23.19.6,3.79-.37-3.01-.63-13.06-.92-12.12-.14-3.83-.21-7.65-.33-11.47l-.17-11.46c.04-.71.09-1.43.16-1.95-.06-.79-.11-.93-.16-.82-.03-16.63.52-33.23,1.89-49.72.39-4.12.77-8.24,1.21-12.35.49-4.11.95-8.22,1.55-12.32,1.1-8.21,2.44-16.42,3.89-24.62-.48,2.42-.93,4.67-1.39,6.94-.46,2.27-.94,4.56-1.36,7.06.52-7.63-1.37,8.21-1.63,5.91.32-3.42,1.1-8.37,1.77-11.29-.12-1.15-1.09,3.01-1.36,2.47-1.15,6.2-1.44,9.84-1.62,13.44-.23,3.6-.34,7.16-1.17,13.24-.15-.26-.2-1.34-.31-1.36-.11-.02-.34,1.03-.69,5.03l.12-2.04c-.87,12.85-1.75,9.93-1.4,18.09l-.51-.25c-.04,2.93-.12,7.24-.32,11.62-.12,4.38-.24,8.83-.32,12.04l-.09-.39c.13,9.02.12,11.54.12,14.35-.01,2.81-.12,5.89.16,16.02l-.73-9.32c-.15,7,.49,8.56.55,13.59-.1-.36-.48.82-.67-3.93l.78,12.29c.32,4.1.6,8.19.95,12.29.68,5.85.33-1.21.51-2.13Z"/>
      <path class="cls-1" d="m19.92,571.13c.05,1.3.15,2.79.29,4.54-.11-1.69-.2-3.14-.29-4.54Z"/>
      <path class="cls-1" d="m28.81,399.36l-1.24,6.91c.42-2.14.82-4.37,1.24-6.91Z"/>
      <path class="cls-1" d="m23.69,606.38c-.07-4.3.63,3.17.89,3.9l-1.21-15.32c-.2.08-.54-1.41-.7-1.09l1.02,12.51Z"/>
      <path class="cls-1" d="m23.42,590.51c-.18-.51-.43-2.12-.68-3.92l.64,8.38c.15-.06.21-1.02.05-4.46Z"/>
      <polygon class="cls-1" points="12.74 592.95 12.51 590.23 12.05 586.13 12.74 592.95"/>
      <path class="cls-1" d="m10.82,550.33c-.14,3.27.46,9.43.65,11.49-.41-7.11-.13-4.04-.65-11.49Z"/>
      <polygon class="cls-1" points="8.02 559.31 7.46 552.45 7.43 553.09 8.02 559.31"/>
      <path class="cls-1" d="m37.07,347.74c.21-1.11.42-2.18.64-3.3-.31,1.51-.49,2.49-.64,3.3Z"/>
      <path class="cls-1" d="m26.13,405.39c3.44-15.88-1.39,10.56.28,5.67.39-2.91.86-5.82,1.28-8.73l.07.78c.59-3.54,1.27-7.07,1.91-10.61-.75,2.11-1.08,3.74-1.35,3.2,2.86-14.13,1.28-4.38,3.77-14.67l3.16-15.84-.16,1.3c.27-1.34.34-1.93.38-2.4,3.6-17.82,7.26-35.72,10.33-53.81,1.38-9.93-1.57,5.35-.87-2.03-1.91,11.45-5.66,28.2-5.13,29.3-.03-.4-.07-1.19-.62,1.09l-.73,6.66,1.45-6.2c-.72,6.72-5.25,27.87-6.38,31.6,2.27-12.07.33-6.17,4.17-22.88-.34.72-1.29,3.73-.61-.08-3.81,19.72-7.93,37.21-10.94,57.65Z"/>
      <path class="cls-1" d="m55.15,205.79l.06.16c-.02-.36-.05-.48-.06-.16Z"/>
      <path class="cls-1" d="m54.74,212.55l.2,9.86.73-15.33-.46-1.13c.12,1.36.05,6.74-.24,8.82l-.23-2.22Z"/>
      <path class="cls-1" d="m54.62,233.85c.37-7.93-.25-7.53-.84-3.24.26-7.27.89-3.79.56-8.83-.22.07-.38,2.35-.5,4.86-.17,2.51-.29,5.27-.32,6.3l1.09.91Z"/>
      <polygon class="cls-1" points="48.05 292.03 48.13 289.79 47.26 295.22 48.05 292.03"/>
      <path class="cls-1" d="m48.13,289.79l.86-5.39c-.24.35-.47.7-.72,1.56l-.14,3.83Z"/>
      <path class="cls-1" d="m50.92,270.2c.3-2.29.71-4.82,1-7.92-.25,2.65-.67,5.28-1,7.92Z"/>
      <path class="cls-1" d="m50.02,276.38l.1-.17.8-6.01c-.32,2.21-.61,4.19-.9,6.18Z"/>
      <path class="cls-1" d="m48.99,284.4c.55-.82,1.11-1.79,1.94-9.65l-.82,1.46c-.38,2.73-.69,5.47-1.12,8.19Z"/>
      <path class="cls-1" d="m6.86,509.2c-.11-2.08-.16-4.16-.24-6.24l-.07.66c.08,2.08.13,4.16.25,6.23l.05-.65Z"/>
      <path class="cls-1" d="m7.95,473.24c.01-1.54,0-2.72-.02-3.78-.04,1.63-.05,2.92.02,3.78Z"/>
      <path class="cls-1" d="m7.15,446.24c1.13-7.31-.45,10.2,1.07-3.4.51-1.15.36,5.27-.43,11.65-.34-.54.37-6.26-.39-2.35.03,4.29-.33,5.89.31,4.45-.2,7.18.11,8,.22,12.87.06-2.16.18-4.92.45-8,.27-3.08.47-6.5.86-9.98.66-6.97,1.46-14.22,1.85-19.71.17-6.09-1.22-2.58-2.16-2.73-.41.86-2.44,16.54-1.76,17.21Z"/>
      <path class="cls-1" d="m5.16,457.75c-.31,3.41-.35,4.46-.43,6.56.37-.54.23-3.8.43-6.56Z"/>
      <path class="cls-1" d="m23.74,381.62c-.01-.66,1.04-6.67.54-5.43l-1.64,9.11c.44-2.13.75-2.85,1.1-3.67Z"/>
      <path class="cls-1" d="m21.93,389.29l.71-4c-.21.99-.43,2.23-.71,4Z"/>
      <path class="cls-1" d="m23.91,381.21c-.06.14-.11.26-.17.42,0,.13.04.11.17-.42Z"/>
      <path class="cls-1" d="m53.47,247.73c.12.08.25-.92.35-2.2.08-1.28.14-2.84.17-3.88-.15,1.69-.39,4.05-.53,6.08Z"/>
      <path class="cls-1" d="m54.41,91.97l.04-3.65c-.07,1.29-.1,1.96-.04,3.65Z"/>
      <path class="cls-1" d="m44.34,36.29c-.06-.1-.12-.37-.18-.73.05.36.11.61.18.73Z"/>
      <path class="cls-1" d="m44.17,35.56c-.37-2.47-.5-10.15-1-12.88l.12.34-.51-5.11c.33,4.8.9,14.89,1.39,17.66Z"/>
    </g>
  </g>
</svg>