<?xml version="1.0" encoding="UTF-8"?>
<svg id="Layer_2" data-name="Layer 2" xmlns="http://www.w3.org/2000/svg" viewBox="0 0 46.86 1423.76">
  <defs>
    <style>
      .cls-1 {
        fill: #ffa520;
      }
    </style>
  </defs>
  <g id="Layer_1-2" data-name="Layer 1">
    <g>
      <path class="cls-1" d="m8.72,1388.5c.11,3.22-.16,6.04-.32,4.83.66,6.54.31,6.7,1.07,7.51.6,4.18.37,8.69-.21,3.93l1.15,12.09-.31-7.25c.72,1.93.49,11.58,1.33,13.82l-.82-13.1.24.64c-.39-2.97-.64-8.77-.67-10.79.12.31.27.1.42,2.41-.22-3.95-.41-6.19-.59-7.53-.18-1.34-.28-1.79-.45-2.15-.31-.72-.64-1.1-.84-7.68.03.82.03,1.85,0,3.26Z"/>
      <path class="cls-1" d="m9.99,1375.01l-.85-5.52c.02-1.55,0-3.09.05-4.64l.2-4.64c-.26-.11-.33-6.87-.66-2.3.02.9.06,2.67,0,4.1-.54-1.04-.02-12.36-.65-9.64,0,7.35-.16,8.48.21,13.01.05,6.73,0,11.64-.16,14.79.12,2,.47,2.27.58,4.81-.02-.56-.03-1.08-.05-1.72l.85-.29c-.21-2.11-.16-4.11-.21-6.46l1.16,10.83c.74-3.52.11-14.15.38-18.41-.64,5.28-.42-4.21-.85,6.09Z"/>
      <path class="cls-1" d="m8.71,1384.97c0,.07,0,.19,0,.27,0-.08,0-.2,0-.27Z"/>
      <path class="cls-1" d="m4.53,573.25c0-2.32-.19-3.01-.29-3.35l-.1,13.08-.05,6.54.04,6.54c.22-.82.45-8.36.62-3.32.2-2.25.06-9.08-.23-10.08l.33,1.9c-.39-6.03.5-10.14.73-6.21v-.51s-.78-8.35-.78-8.35l-.68-8.36c-.21,6.13.44,4.73.41,12.11Z"/>
      <path class="cls-1" d="m41.89,38.07c-.18,3.38-.13,3.8-.02,3.42.03-1.21.05-2.37.02-3.42Z"/>
      <path class="cls-1" d="m3.81,557.23l-.42-5.24c.1,2.1.25,3.94.42,5.24Z"/>
      <path class="cls-1" d="m11.45,593.46s.05.07.09-.07l-.28-2.34s0,.05,0,.06c.07.86.13,1.63.19,2.35Z"/>
      <path class="cls-1" d="m7.51,438.58c.03-.56.05-1.04.08-1.71-.03.62-.06,1.19-.08,1.71Z"/>
      <path class="cls-1" d="m16.44,663.75l-1.13-11.49c.31,1.53-.03-4.03.36-1.61-.07-.88-.32-4.99-.4-3.87l.1,2.35c-.92-6.05-1.06-2.36-1.96-12.43-.18,6.28.3,9.02.74,12.32.09,1.12.16,2.06.23,3.02l1.5,9.54.56,2.18Z"/>
      <path class="cls-1" d="m33.46,199.71l.04.13c0-.12-.03-.14-.04-.13Z"/>
      <path class="cls-1" d="m33.69,200.36l-.18-.52c.06.63-.01,3.02.18.52Z"/>
      <path class="cls-1" d="m4.22,559.16c-.13-.16-.27-.84-.41-1.93l.32,3.91c.03-.55.06-1.28.1-1.98Z"/>
      <path class="cls-1" d="m5.57,568.06v9.79s.35,3.61.35,3.61c-.1-3.75-.21-8.13-.35-13.4Z"/>
      <path class="cls-1" d="m6.08,453.99c1.19-20.26.5,5.03,1.3-4.26.26-5.63.02-7.64.13-11.15-.76,16.08-1.16-2.27-2.01,13.95-.57-2.35-.02-11.74.57-17.22,1.11-6.17.12,5.47.69,6.92.34-6.5.14-5.37-.05-8.15.84-10.19.67-21.16,2.05-27.18.39-7.39.04-6.93,0-11.2-.67-.9-1.21,10.94-1.97,13.64.1-.56.31-1.66.38-1.33l-.62,6.37c.69-6.04.67.89.49,4.14-.16,2.36-.46,7.04-.62,6.38l.1-3.58c-.57,4.57-.17,10.17-.91,14.99-.18.24-.13-1.6-.21-1.88.12,5.47-.28,10.71-.43,18.78l-.42-4.71c.19,3.25,0,8.51-.38,14.22-.37,5.71-.87,11.88-1.38,16.93.19-1.12.39-3.13.46-1.91-.17,5.95-.92,10.41-1.15,7.64.31,5.84-1.67,22.11-1.17,30.07.68,12.19,1.53,24.38,2.45,36.54-.06-1.37-.11-2.83-.11-4.33.74-3.29.71-5.07,1.14.74-.16-5.7-.74-3.54-.49-12.09.21,3.36.91,4.23,1.25-3.95-.02-5.12-.03-9.81-.12-14.27-.08-4.46-.24-8.68-.36-12.87-.2-8.36-.55-16.57-.42-26.15.53-.68,1.24-15.68,1.85-22.96.36,2.81.13,8.22-.08,13.84.24-3.52.64-9.58.94-14.07l-.91-1.9Z"/>
      <path class="cls-1" d="m5.02,501.56c.07-.51.12-1.04.17-1.58-.06.29-.11.76-.17,1.58Z"/>
      <path class="cls-1" d="m5.93,471.66c.01.07.03.05.05.07.02-.59.04-1.18.07-1.78-.04.6-.09,1.28-.11,1.71Z"/>
      <path class="cls-1" d="m5.42,554.39c.09,1.22.16,2.11.25,3.33-.02-.75-.05-1.69-.07-2.59-.05-.86-.11-1.27-.18-.74Z"/>
      <path class="cls-1" d="m4.48,558.46l-.19-.65c-.03.52-.05.89-.07,1.35.11.14.2,0,.26-.7Z"/>
      <path class="cls-1" d="m16.04,377.02l.04-1.94c-.08,1.17-.08,1.67-.04,1.94Z"/>
      <path class="cls-1" d="m8.42,431.49c-.44,7.04.67.89-.01,10.85l.25-2.92c-.19,7.16-1.12,19.71-1.63,28.21-.24-.98-.65,5.13-1.04,4.11-.23,5.82-.46,11.57-.17,14.59-.33,3.59-.2,9.08-.62,13.65.37-1.92.59,6.56.82-4.59,0,.9.08.34.08,1.23.74-7.15.23-10.06.59-16.24.48-3.68.09,6.06.39,2.58.18-7.73,1.74-24.18.72-23.73.29-5.61.56-6.37.85-8.04-.53-8.95,2.71-32.88,1.34-32.9-.19,3.24-.59,8.51-.62,13.29l-.95-.09Z"/>
      <path class="cls-1" d="m5.66,542.54c.02-.43.04-1.01.06-1.37-.02.4-.04.91-.06,1.37Z"/>
      <path class="cls-1" d="m1.47,631.69l-.98-2.94c-.28-8.43-.4-14.17-.46-19.65,0-5.47.03-10.68-.03-18.05.12-1.13.21.66.25,1.57-.1-10.36.22-25.86,0-33.4.07-3.29.54-11.93.74-8.66-.05-1.6-.08-3.44,0-5.28.34-.48-.04,4.12.24,4.24.05-1.46.13-2.03.04-2.37.21,2.46,1.15-2.52.89,8.94-.85,4.42.07-7.95-.82-5.35-.08,3.8.25,3.37.34,3.69-.12,4.84-.33,4.71-.51,4.45.23,1.86-.27,7.95.09,10.52-.01,9.43-.62-.52-.66,5.64l.82,3.56-.24,10.23c.37,14.82,1.45-2.11,2.02,14.8-.43-2.22-1.23,4.57-1.2,12.46-.18-4.72-.75-13.43-.53-19.52-.62,8.59-.15-11.82-.88-7.36.38,4.25.47,11.32.31,16.84l-.09-1.81c-.09,5.87.93,10.3.75,18.4.11,4.02-.15,3.28-.36,2.57.19,3.4.43,6.44.26,6.46Zm-.38-8.76l-.03-5.39c-.11,1.28-.07,3.29.03,5.39Z"/>
      <path class="cls-1" d="m12.45,1300.4c-.06.53-.14,1.14-.2,1.61.07-.35.13-.96.2-1.61Z"/>
      <path class="cls-1" d="m31.19,825.9l.38,3.09c-.13-1.21-.25-2.19-.38-3.09Z"/>
      <path class="cls-1" d="m42.08,895.02l.61,4.53c-.18-1.79-.38-3.19-.61-4.53Z"/>
      <path class="cls-1" d="m15.72,1263.62l.02-.15c0-.25.02-.45.03-.72l-.05.87Z"/>
      <path class="cls-1" d="m42,1035.62c-.11.69-.23,1.46-.34,2.52.09-.12.21-1.06.34-2.52Z"/>
      <path class="cls-1" d="m41.97,894.19c0,.12,0,.18,0,.28.03.18.07.37.1.56l-.11-.83Z"/>
      <path class="cls-1" d="m29.54,795.13c-.12-.66-.22-1.25-.35-1.96.14.93.25,1.49.35,1.96Z"/>
      <path class="cls-1" d="m27.75,799.79c-.12-.71-.24-1.38-.34-1.9l.34,1.9Z"/>
      <path class="cls-1" d="m16.77,693.23c-.17-1.38-.31-2.76-.45-4.13.15,2.04.31,3.25.45,4.13Z"/>
      <path class="cls-1" d="m26.81,788.75c-.07-.24-.14-.47-.2-.63.1.57.19.83.2.63Z"/>
      <path class="cls-1" d="m8.34,1326.71c0-.1,0-.2.01-.25l-.09-.11.08.36Z"/>
      <path class="cls-1" d="m9.06,1336.89c0,1.2,0,2.44,0,3.66.03-1.36.04-2.68,0-3.66Z"/>
      <path class="cls-1" d="m35.3,1096.18c-.24,1.09-.65,3.66-.66,2.44-.04,2.13.4,2.04.66-2.44Z"/>
      <path class="cls-1" d="m4.15,1306.02c.05.67.1,1.51.14,2.35-.06-1.56-.03-2.92-.14-2.35Z"/>
      <path class="cls-1" d="m4.29,1308.37c.02.77.05,1.59.07,2.28-.01-.8-.04-1.57-.07-2.28Z"/>
      <path class="cls-1" d="m31.1,1067.46c.08-.27.16-.69.23-1.26-.13.16-.19.61-.23,1.26Z"/>
      <path class="cls-1" d="m8.85,1343.51c.19.67.28,16.58.68,3.21.62.53.11,8.59.18,12.16.2-2.59.38,1.29.62.51-.04-1.77-.17-3.87-.07-6.79.32-1.34.42,3.1.23,6.56.42-4.26.38,5.41.77-.62.09-12.89-.11-22-.41-31.12-.06,1.84-.12,3.73-.19,5.64-.07,1.9-.15,3.81-.15,5.67-.05,3.73-.14,7.3-.33,10.31l-.49-2.55c.31-3.41.4-6.16.44-8.91.05-2.74.17-5.48.36-8.83l-.54,7.53-.31,7.53c-.61,7.05-.61,2.32-.59-3.25-.04,1.37-.1,2.61-.2,2.95Z"/>
      <path class="cls-1" d="m4.39,1333.15l-.03.25c0,.22,0,.5.02.64v-.89Z"/>
      <path class="cls-1" d="m5.87,694.92l-.32-1.28c.19,1.08.28,1.41.32,1.28Z"/>
      <path class="cls-1" d="m7.5,1324.24h0c0-.09,0-.12,0,0Z"/>
      <path class="cls-1" d="m9.02,727.26s-.04-.09-.07-.17c.03.11.05.11.07.17Z"/>
      <path class="cls-1" d="m21.66,734.53c.02-.06.04-.08.05-.22-.11-.68-.1-.35-.05.22Z"/>
      <path class="cls-1" d="m9.07,727.28s-.03.02-.05-.02c.02.02.04.08.05.02Z"/>
      <path class="cls-1" d="m30.76,883.14s.04-.5.05-1.29c-.08-.3-.11.01-.05,1.29Z"/>
      <path class="cls-1" d="m28.04,852.24c0-.2,0-.32-.01-.57v.57Z"/>
      <path class="cls-1" d="m38.5,1089.11c.17-1.53.27-2.69.35-3.66-.13,1.12-.25,2.33-.35,3.66Z"/>
      <path class="cls-1" d="m8.95,727.09c-.09-.32-.21-.77-.36-1.52.17.83.28,1.26.36,1.52Z"/>
      <path class="cls-1" d="m37.42,930.03c-.04-.33-.08-.64-.11-.95v.57s.11.38.11.38Z"/>
      <path class="cls-1" d="m37.82,946.23c-.08-.55-.15-.8-.22-1.11.22,2.88.36,6.98.52,10.51.15,3.53.18,6.5.49,7.12-.03-.98.08-4.02.14-6.59.03-2.57.13-4.69.33-3.83-.29-4.03-.09-10-.27-12.17-.09,6.63-.4.73-.89-3.72-.06-4.07.51.74.42-2.76l-.6-9.39.39,8.19-.7-2.45c.04.3.06.51.1.83.52,6.91.33,7.21.16,7.56-.18.35-.28.73.13,7.81Z"/>
      <path class="cls-1" d="m37.6,945.12c-.07-.86-.14-1.62-.22-2.21.06,1.31.13,1.81.22,2.21Z"/>
      <path class="cls-1" d="m36.78,1001.64c0,.71,0,1.48.01,2.45,0-.46,0-1.53-.01-2.45Z"/>
      <path class="cls-1" d="m5.77,588.42c-.19.24-.46,8.33-.04,8.18.03-2.4.06-4.81.09-7.24l-.05-.94Z"/>
      <path class="cls-1" d="m25.27,1155.34c.12-.89.23-1.79.35-2.68,0-.19,0-.38,0-.53-.13.54-.27,2.31-.35,3.21Z"/>
      <path class="cls-1" d="m39.37,954.82c-.12-1.48-.21-2.14-.29-2.49.07.96.15,1.84.29,2.49Z"/>
      <path class="cls-1" d="m24.2,1155.71c-.26,1.12-.66,2.77-.85,2.99-.29,2.33-.28,3.99-.5,6.37.28-2.68.71-5.77,1.35-9.36Z"/>
      <path class="cls-1" d="m22.83,1165.26c0-.07.01-.13.02-.19,0,.07-.01.13-.02.19Z"/>
      <path class="cls-1" d="m5.99,583.61c-.02-.7-.05-1.41-.07-2.15l.11,1.12c.06-1.86.12-3.71.17-5.56-.01-.67-.03-1.4-.05-2.29.01.36.05.64.1.81.02-.6.04-1.19.06-1.78-.46-4.43-.5-15.45-.71-18.64-.05-2.1-.08-4.44-.08-6.66.01-2.22.07-4.31.14-5.92-.11,2.99-.14,6.97.15,5.78.44-6.07,1.27-8.99.97-19.49l-.19,6.14c-.18-4.62-.34-9.23-.45-13.85.61-4.82.16,6.91.47,8.84-.06-10.76,1.57-19.64.98-24.66.52-.68,1.4-1.82,1.7-8.86-.81,5.05-.14-4.24-.95-.1-.16-2.45.57-7.85.23-8.27l.17.67c1.43-11.98.47-15.98.37-21.15.71-14.41,1.43-21,2.17-32.73.36-.44,1.48-3.57,1.77-8.28-.3-2.22.28-12.85-.21-13.97-.85,8.4-.03,6.92-.26,11.96-.88,4.15-.61.34-1.36,6.04.53-4.61,1.19-20.9,2.11-25.92l-.05,1.79c.93-8.05,2.46-9.49,2.62-23.01l.15-6.44c.03.31.1.35.13.52.86-10.5,1.29-7.58,1.67-19.22-.03.9.08.34.04,1.25.82-6.59.7-13.3.95-18.31.71-3.01.41.76.6,2.67,1.08-11.62,1.23-24.23,1.21-31.5l.85-7.48c-.15,4.46-.07,9.93.32,8.6.22-4.13-.06-3.35.48-9.17.23,1.02.32,3.49.49,6.26,1.43-12.02-.86-2.78.71-11.15.3-3.79.03-6.02-.31-6.46l1-6.83c-.41-.8.22-9.27.58-14.83-.15-.69-.84,4.43-.82,6.55-.33-.44-.05-6.36.25-10.16,1.08-1.32,1.77-24.89,2.57-20.31.99-17.09,2.74-41.08,3.2-52.37.55-3.69,1.15-11.26,1.26-6.69,1.06-13.74.61-20.9,1.92-34.52.21-1.12-.46,6.17-.1,5.71.29-8.94,1.66-16.19,2.46-30.04-.16,2.33-.01,3.02.06,3.35-.18.23.1-5.69.22-9.28.24-2-.09,2.69.12,1.57,2.52-26.68,2.77-47.13,4.85-73.7-.6,7.59-.17,10.5.09,10.61l.58-7.43c-.1-2.89.33-8.47.45-13.16.17-.56.47-2.82.44-.5,1.78-14.64.59-23.03,2.3-41l-.37,21.89.87-5.36-.15,9.63c.8-5.7.35-10.74.9-11.39.05,1.22-.22,4.13.03,4.24.61-5.48.28-5.94.5-10.08.16,10.96-1.5,32.29-2.14,43.79-.06,1.81-.12-1.56-.2-1.89-.33,4.69-.85,7.48-1.13,13.39.14,3.69.52-2.77.79-5.67.33.43.2,1.89,0,5.13-.54.67-1.54,17.76-2.45,21.88-1.18,17.31,1.47-2.67-.04,14.2l-.94,5c-.32,9.84-.91,22.54-1.89,33.63l.16-2.34c-.12-1.57-.46.99-.67,2.12-.88,8.36-.78,15.95-1.73,20.99-.14,9.6-.93,25.58-1.46,36.53-.96,2.89.47-14.31.36-18.89l-.76,9.95c.46-6.15.37-8.6.24-12.32-.81,8.71-.38,11.63-.83,19.91-.15-.66-.36.44-.66,4.25l.4,1.12c-.05.07-.11.49-.24,1.66l-.83,14.73c.45-3.11.88-3.22,1.18-7.02-.39,1.33-.2-1.89.1-5.69.06,3.36.55-3.69.81-3.59-.6,7.62-1.25,16.99-1.5,22l-.57,1.59c-.67,7.26-1.01,14.95-1.52,19.87l-.12-1.57c-.81,8.71-1.18,17.31-2.21,25.02-.08,7.81-.41,17.64-.36,24.03.32,3.44-2.48,22.76-2.34,31.59-.11.59.03-6.05.04-9.06-.54,5.82-.17,10.52-.92,12.3,1.21-13.07-.54.67-.26-5.24-.46,6.13-.85,12.6-.86,15.62.76-9.92.57,3.59,1.08-6.47-.08,7.82-.69,18.45-1.61,27.7-.26-.11-.47,1.02-.84,4.47l.17,2.82c-.4,4.33.19-8.42-.61.3-.04,9.03-2.44,27.02-1.52,31.04-.99,6.81.5-13.06-.86-2.79.01-6.03,1.14-14.28.69-16.3-.28,5.9-.67,2.11-.97,5.9l-.12,6.59.13-1.45c-.27,11.05-1.84,28.48-2.72,42.54-.23,11.95.11,20.21-.86,34.49-.11-4.24-1.04,11.84-1.17,2.81-.7,6.59-.7,13.14-.45,13.29.43-5.81.2-2.04.62-6.93.13,3.33-.34,10.95-.71,14.07.1-1.45,0-.9-.08-1.23-.56,6.93.15,3.35.03,8.37-.51,1.57-.71,11.08-1.11,15.65l.36,6.67c-.27-3.67-.42,6.36-.85,7.39.09,4.78.52,8.79.17,16.05-.12-3-.53,6.61-.96,6.73-.66,12.43.68,20.61.02,32.37-.1-.37-.36-2.74-.49.7.11,2.71-.02,7.46.06,10.36v-.09c0,.06,0,.09,0,.15.03,1.42.09,2.31.19,2.35.45,4.96.87,7.52,1.31,17.27.46-.72.24-8.95.06-12.52l-.5-3.08c.36-1.47.32-3.67.21-5.78-.08-2.11-.21-4.14-.08-5.26.21,1.46.32,3.62.44,6.18.12,2.56.21,5.53.29,8.63.08,3.1.16,6.34.23,9.43.09,3.09.27,6.03.44,8.56.27-3.08.36-7.97.46-13.55.09-5.58,0-11.85.02-17.7-.11,1.72-.24,3.43-.31,5.15-.03-2.04.02-4.08.02-6.12-.18,1.97-.4,3.95-.55,5.92.1-5.8.04-10.81.1-16.05-.04,6.13-.73,8.52-.6,5.05.54-6.84-.27-7.13-.16-12.36-.11,2.91-.12,6.7-.39,4.25.73-10.3.45-13.1,1.26-22.46-.87,1.14.28-11.72-.34-13.15l-.21,4.35-.2-9.25c.94-8.5.41,7.57,1.34-5.38.59-11.96-.31-11.68.06-21.09.31,3.12.44,10.6.1,18.18l.42-4.58c.09,1.22,0,4.45-.12,8.04-.13,3.58-.26,7.51-.36,10.13-.28-8.67-.3,4.04-.86,7.97.44.74.55-4.82.71,1.75.19-6.14.18-7.04.6-14.85-.75,16.89,1.1,15.24.42,29.96-.07-6.8-.72,2.35-.96,3.17-.04,3.2.03,9.68.13,12.35l.69-2.41c.11,4.29-.2,7.18-.45,10.24-.13,1.53-.25,3.1-.29,4.9-.02,1.81.03,3.85.22,6.32.41,1.29.08-8.71.18-6.93.52,13.54-.65,18.43-.86,30.47.22.67.64.53,1.08,4.72-.43-1.31-.57,1.81-.97-2.92-.07,4.02.27,8.79.59,12.32-.07-8.37.71,3.4,1.01,4.93.09,4.33-.45-1.3-.67-3.97.02,3.48-.42,7.64.25,9.59-.4.15-1.52-9.68-1.78-16.14,0,1.45.01,2.9.05,4.35-.34-2.99-.25-3.56-.28-7.88-.24,4.24-.62,3.83-.94,2.85.05-.56.11.31.16-.23.04-3.49-.13-6.15-.34-5.34-.64-3.12-.26,4.84-.49,7.21.06,1.78.19,3.56.28,5.31l2.52,18c.63,7.7.38,11.19.42,17l.58,1.56c.42,6.7.74,13.03-.2,8.78.15-.25.04-1.13-.04-2.59-.08-.19-.15-.52-.22-.94-.05-.14-.07-.21-.11-.33.69,7.17,1.12,11.64,1.16,12.05-1.6-12.13-.93-.54-1.95-2.51l.59,6.15.69,6.14c-.4-7.49.41-.17.77,2.46-.42.77.88,9.91,1.3,14.23l-.13-.31c.26,4.01.99,11.01,1.73,15.97.14-.24,1.67,6.05,2.5,9.05-.8-8.55-.02-3.51.2-4.23.07.89.25,2.47.34,2.65.28,1.2,0-1.68.13-1.94-1.31-9.04-2.34-18.36-3.39-21.99-.02,2.82.79,4.72.91,7.86-.46-2.22-.82-4.79-1.16-7.74-.35-2.95-.67-6.29-.98-10.06l.19-2.51-.91-7.57c.5,3.15.76,1.21,1.56,9.16.31-1.05-.83-7.88-1.08-12.77l-.72-2.45c.37.94-.33-9.51.62-2.12l.66,6.01.76,6.01.07-3.38,1.02,10.17-.5-2.38c.91,8.16.82,9.39.7,10.64-.11,1.24-.18,2.5.99,10.7,1.22,5.08,1.93,10.61,2.97,20.72-1.04-7.28-.56-.69-1.27-3.4.64,7.48,1.5,9.93,2.23,13.76-.11,1.94-.22,3.33-1-3.33-.83-.74,1.21,8.74.56,9.44,2.9,22.06,4.72,17.34,7.28,43.27l-.43-.93c2.6,16.34,3.52,25.87,5.69,41.07l.73,12.1c-.45-2.67-1.92-9.82-1.87-6.4.06-5.94-1-12.09-1.42-18.42-.28-.61-.1,1.96-.07,3.09-.49-3.79-.39-5.74-1.18-10.72-.12.26.4,5.75-.24,1.64l-.44-6.86c-1.45-9.06-1.74-4.33-2.96-15.03.69,1.93,1.86,5.9,2.51,10.02-.57-4.89,1.13,6.47.79,1.98-1.57-6.95-1.54-10.41-3.2-19.69.24,1.08.4,1.36.75,3.65l-1.57-13.58c.08,3.4-1.91-11.13-2.28-9.8,1.72,14.46,1.46,10.17,3.39,26.68-.75-4.64-2.13-10.58-3.02-13.32,0-.15-.01-.39-.07-.89-.88-2.44-.68.14-1.63.22,1.68,7.42,1.82,12.52,3.4,21.33.74,1.6-.04-5.23-.77-9.62l1.4,7.76-.45-1.5,2.49,19.86c-.52-3.76-1-4.99-1.49-6.92.32,2.56.53,5.11.73,7.83.42-.63.81-.32,1.13,2.18,1.58,12.78,1.98,19.96,2.01,24.74.07.49.15,1.04.22,1.48.26-2.21,1.99,8.98,2.96,12.89-.55-.14.47,6.64.56,10.37.81,1.9,1.37-.81,1.38-5.37-1.56-8.61-1.12-4.8-2.37-8.8-.7-4.62-1.42-9.22-2.19-13.82l.87,3.04c-.65-6.95-2.11-13.52-1.43-13.1.87,3.61,1.37,9.68,2.24,13.26l-.34-4.61c1.61,8.01-.04,4.21,1.52,13.96.11-3.67.14.88.98,5.05-.01-1.71-.55-6.02-.93-9.55-.38-3.53-.65-6.27,0-4.86.53,2.52.75,6.85,1.07,11.37.32,4.52.74,9.24,1.52,12.58l-.14-.32c.93,9.99,1.83,13.45,2.47,17.17.08,4.29,1.08,10.12,1.46,14.75l-.27-.09.6,6.52c-.74-3.07-.5-7.66-1.12-13.24l-.43.74c-.02-6.5-1.25-10.73-2.19-15.67.61,3.6,1,8.75,1.46,13.18.22,2.22.44,4.26.68,5.85.22,1.59.44,2.73.72,3.14l-.16,4.55.34,2.14c-.12,3.39-.96,0-1.56-6.5.04-1.14.06-1.71.18-1.38-.44-3-1.11-5.73-1.65-13.04l.61,3.87c-.75-9.1-1.86-17.31-2.65-20.36.3,3.27.6,6.54.9,9.78.28,3.25.56,6.47.83,9.67.28,3.2.55,6.38.82,9.52.24,3.15.47,6.27.71,9.35,1.39,3.56,2.32,7.84,3.43,9.64.33,4.15.7,9.05.96,13.82.18,4.77.29,9.42.23,13.04l-.23-.66c.06,3.53.1,6.78.23,9.5-.25,3.73-.56-2.54-.69.06l.4,11.93c-.47-.74-.52-10.77-.58-15.53.04.9.13,2.71.19,2.13.03-1.39.04-3.07-.05-4.86-.11-1.78-.23-3.67-.34-5.45-.22-3.57-.36-6.75-.07-7.98-.22-2.7.71,5.46.38-3.68-.09-6.13-.81-8.08-1.05-8.71-.27-.08.18,9.6-.33,6.26.33,4.75.66,6.64.65,12.73-.1-2.36-.34-5.13-.52-7.64-.16-2.5-.37-4.72-.22-5.99-1.02-9.28-2.18-7.87-2-3.49.16-.53.52,3.7.82,6.54.16,1.42.25,2.49.34,2.45.09-.05.15-1.21.09-4.27.44,2.72.67,6.6.93,10.69.12,2.04.25,4.14.37,6.18.07,1.02.13,2.02.19,2.99.04.97.08,1.91.12,2.81l-.1-.32.17,8.92c-.14-1.26-.28-3.95-.54-4.04l.77,12.36c-.51-6.96-.31,4.31-.51,7.48.45,1.33.62,6.16.94,1.53.27-5.21-.23-3.04-.29-7.78l.67,6.72-.06.57c.2,1.35.3,2.7.44,4.05-.32,9.13-1.09-4.01-.94,7.7l.76-1.5c-.28,6.78-.69,14.51-1.16,21.74-.61,7.21-1.13,13.93-1.26,18.71-.24-2.66-.82-3.86-1.43-.27.37-4.1.85-12.37,1.14-18.27.19-1.13.39,7.41-.15,13.81,1.33-3.04.32-16.16,1.45-16.86.92-16.37-.76-12.25.36-26.13-.27-.1-.28-1.09-.33-2.14-.06-1.06-.12-2.18-.35-2.55-.36,2.06-.52,6.69-.61,11.95-.08,5.25-.12,11.12-.41,15.62-.01-.88-.04-2.66-.12-3.01-.18,3.22-.26,5.49-.28,7.52-.07,2.03-.11,3.82-.15,6.07l.1-.56c.04,7.87-.69,4.83-1.2,9.43-.03,1.79-.57,8.2-.12,7.19-.35,2.77-.65,5.55-1.03,8.32l.62-.36c-.37,4.7-.84,5.7-.85,9.99l.51.24c.38-3.89.81-7.77,1.15-11.67-.28,5.94.38,1.69-.06,8.21.04-7.31-.73,5.12-1.28,5.79l-.11,4.81-.04-1.24c-.59,3.73-.18,4.49-.63,8.86.73-5.14,1.39-8.5,1.58-15.12-.11,4.82-.6,14.37-.78,16.7-.22,5.06-1.04,8.52-1.57,13.21.36-4.52-.12-3.77-.4-4.14-.14-.19-.24-.66-.16-2.2.07-1.55.37-4.17.83-8.69.07.34-.08,1.81-.19,2.37.88-2.35.88-10.86.96-14.81-.47.98-.22-3.13-1.02,3.81.44-2.26.36,5.94-.52,12.53l-.73-1.24c-.32,3.21-.72,6.4-1.07,9.6l.05-.9c-.91,3.56-.96,10.27-1.96,16.85-.05,1.2-.21,3.25-.43,5.52-.23,2.27-.49,4.76-.7,6.85-.4,4.19-.55,6.82.34,2.93-1.21,5.87-1.16,11.15-1.81,17.63l1.28-8.03c-.54,9.6-.56,6.82-.58,14.55-.32.74-.72,2.42-.76.84-1.63,12.79-4.16,31.02-4.44,38.59-1.17,9-2.35,10.29-3.52,22.97-.21,2.67,1.02-1.98-.24,6.35-.13.56.38-8.12-.7,1.19-.09,3.35-.66,7.24-1.27,11.37-.59,4.13-1.19,8.51-1.41,12.86-.75,4.53-1.56,12.44-1.88,10.74.94-7.2,2-17.43,1.94-19.01.19,1.03.88-5.1.5.25,1.65-10.86.54-7.11,1.99-16.87-.12-.7-1.17,4.96-1.25,7.08-.69-.04,2.05-19.33.16-10.74-1.33,10.45-.35,13.72-2.09,22.7-.02-3.68,1.01-9.32.88-14.02l-1.19,7.41-.13,5.47-.06-.33c-2.13,13.09-.68,12.25-1.69,24.06,1.25-6.77,1.01,1.7,1.89-3.39-.81,7.88-1.39,13.65-2.11,13.63.45-7.39.29-7.62.1-7.71-.17-.09-.45-.05,0-6.89-.5,2.21-.64-3.35-1.63,4.76-.42,9.21.84-2.68.16,6.48-.11.53-.23,1.09-.3.76-.06,4.23-.62,4.89-.73,10l-.02-1.22c-1.04,6.22-.21,6.9-1.2,12.24.37-1.05.36-.14.31,1.46-.05,1.6-.17,3.89-.14,5.57.32-2.73.68-4.81,1.16-7.56.48-2.75.99-6.17,1.51-11.55-.27-1.34-.58-.58-.33-5.02l-.65,7.01c.08-1.52.1-2.68.15-4.07l.88-6.71c-.56,8.56.26,4.69.32,8.36-.95,7.79-.53,6.45-1.15,11.34-.63-.55-2.22,14.97-3.33,23.94.12-1.4.27-3.2.35-4.17.14-6.57-.85,4.46-1.03,4.69l-.08,4.79c.03-.9,0-2.15-.25-.12-.32,6.46.35,6.13.1,12.58-.35.47-.56-5.01-.94-1.01-.36,1.36-1.35,5.73-1.52,14.33.1.61.03,2.84-.02,5.42,0-.36-.02-.81-.02-.97l-.49,5.69c-.52-4.88.62-9.81.32-14.72l-.51-.44c.2-3.8.25-8.97.1-11.36-.4,5.79-.32,7.02-.56,13.51-.38.89-.39-3.69-.39-4.35l.25.98c.42-3.85.45-6.75.45-9.89,0-1.57-.01-3.2.02-5.04.02-.92.05-1.89.08-2.93.05-1.04.15-2.15.25-3.35.14-1.45.11-.56.18-.23.1-7.82,1.41-15.4,1.33-23.02l.08,2.49c.04-1.29.09-2.89.15-4.73.09-1.83.19-3.89.29-6.11.22-4.44.46-9.49.71-14.54l-.2-.1c-.23,1.1.15-2.67.43-4.69h0c.22-5.06.6-9.92.86-13.89-.27,1.25-.56,2.86-.8,4.71.04.8-.28,3.5-.47,5.85-.18,2.35-.3,4.36.04,3.75-.75,4.24-.96,11.16-1.48,14.28.92-5.68.12,4.03.32,5.06-.27.94-.47,3.06-.66,4.84-.16,1.78-.29,3.23-.49,2.84-.2,1.12.5-2.78.5-5.24.08-3.01-.29-.28-.63,2.26-.31,2.55-.58,4.92-.49,1.17-.21,4.77-.6,10.28-.98,15.82-.18,2.77-.36,5.56-.54,8.26-.07,1.35-.15,2.68-.22,3.99-.04,1.3-.06,2.58-.07,3.81.16-1.83.3-3.66.53-5.48-.4,4.35-.77,14.69-1.06,15.45.12-3.25.33-7.04.45-11.19-.52-.23-.53,9.97-.88,10.41l.23,12.09.31-5.27c.07,1.67-.14,5.25-.42,9.45-.16,4.2-.35,9-.51,13.09-.58-4.72.12-12.36.4-20.97.06-6.27-.9,3.83-.76-2.1-.25,1.53-.43,5.39-.35,7.31l-.26,2.33c-.37-5.31.4-17.15.26-25.07.03.7.08,1.31.14,1.53.26-3.03.52-6.08.78-9.12.25-3.03.44-6.05.59-9.01-.45,3.11-.41,4.36-.48,6.15-.18.21.19-5.37.18-7.5-.63,5.48-.47,1-.85,4.47.13-3.59.4-6.49.82-10.85.43-2.24.19,1.9.55,1.47.19-4.51,1.04-6.5,1.3-13.1-.99,8.71-.48-2.36-.39-5.39l-.17,1.46c-.1-2.8.11-5.16.65-7.04-.2,3.59-.65,7.04-.16,6.05.22-2.36.44-4.71.59-7.4l.04,2.46,1.09-11.73c-.15-1.89-.34-5.05-.64-6.72.63-2.77.82-6.71,1.01-9.39v1.25c.88-5.13,1.95-16.64,1.76-17.65.69-3.65-1.06,26.29,1.63.19,1.19-9.89-.21-6.28.15-11.96,0,0,.06.33.19-.22.6-4.32.29-4.8.58-8.38-.47,2.58-.94,6.34-.95,7.57-.24-1.35,1.15-9.01,1.24-12.37.09,4.38,1.27-8.34,1.17-4.96,1.48-8.55,2.16-17.8,2.28-22.37,1.52-5.74,1.19-10.24,2.73-19.66-.2,1.45-.42,4.1-.75,6.13-.18,5.45,1.48-9.77.89-1.41.14-1.78-.25-.16-.39,1.67-.34,3.19-.5,6.22-.18,5.45l1.4-7.66-.22,2.71,2.06-11.63c-.06-.33-.32.75-.45,1.31,2.01-13.54,3.42-29.11,4.91-41-.55-1.19.04-8.54.82-16.79.38-4.13.79-8.49,1.16-12.41.31-3.93.47-7.44.47-9.87.18,2.61.76,4.09,1.19,2.52-.13,2.15.09,6.61-.56,11.46-.3.76-1.18,6.74-1.03,2.85-1.24,13.46.8-1.76.9,2.26.35-3.73.62-7.08.84-10.15.17-3.08.27-5.87.37-8.5.18-5.25.28-9.82.52-14.54l.18-.23c.09-2.38.22-4.75.27-7.13-.24,2.9-.62,4.26-.76,3.97-.17-.3-.07-2.24.27-5.98l-.02.91c.59-4.25.74-13.16,1.2-19.83l-.18-4.55c.26-3.34.47-5.07.81-6.24.32-1.17.68-1.77.97-2.85.36-10.49-.08-16.57-.37-24.01.36-3.36.37-19.06.86-10.74-.19-4.73-.78-6.61-1.19-9.33-.44-2.72-.55-6.29-.35-14.39l.51,4.19c-.39-15.49-2.71-37.5-2.91-44.64,1.8,5.6-.35-19.43.55-22.31-.21.8-.91-5.01-1.15-5.84.01-1.29-.07-3.42-.56-5.65.38,6.06-1.75-4.1-.03,7.37-.74-2.87-1.45-6.17-2.2-10.33-.76-4.17-1.5-9.22-2.23-15.6l.55.13,1.01,10.11c.27-1.06.84,4.14,1.27,6.25-1.89-18.82,1.52,2.32-.79-16.88-.57-1.81-.28-.63-1.04-5.6.31,2.35.72,2.72.26-1.06l-.87-3.58c.04-6.82,1.95,11.03,1.85,5.23,1.37,7.36,3.01,20.21,3.42,17.74-1.16-12.16-2.5-10.77-3.78-23.47l.12-1.38c-.74-4.43-1.31-5.09-1.9-7.49.13-.24.11-1.39-.22-4.25-1.65-7.43-2.45-12.41-4.12-19.24,1.52,9.19,1.92,13.15,2.3,17.19.38,4.04.81,8.15,2.23,17.64-.57-2.96-2.47-16.35-3.31-17.08l.55.11c-1.07-6.16-2.18-12.31-3.06-20.11l.93,4.71c-1.75-10.26-1.53-17.25-3.5-25.27.34,2.88.68,5.21,1,6.98-.96-5.28-1.8-11.95-2.49-17.74l-2.45-11.85c.27.07-.7-7.51.19-3.91-.74-8.66-1.98-12.64-2.74-17.61-.54-8.9,1.2,7.62,2.03,8.4-1.3-12.19-3.01-25.08-4.23-31.92.15,2.5.21,3.72.07,3.61.11-.39-.45-5.3-.73-8.05l-.54-1.85c-.25-4.6.02-3.97.68-.11-.4-4.37-1.59-9.52-1.48-14.08.27,1.86.51,3.85.72,5.85.22,2,.44,4.01.64,5.9.39,3.8.71,7.15,1.04,9.08-1.96-15.55-.66-15.78-2.74-35.54.15-.26.71,3.07.43-.74-.77-8.83-.87-2.26-1.45-4.99.71,6.8.71,9.98.66,13.97l-.44-1.79c.06-.14,0-1.28-.08-2.55-.05-1.27-.12-2.65-.1-3.29l-.65-1.06c.66.46.64-6.42.01-11.79-.06,5.47-.14,4-.75,5.53-1.22-7.53-.01-8.59-1.16-17.04.24.63.79,8.03.59,1.61-.26-5.31-.71-4.57-1.06-8.12.74,3.98,1.07,2.93,1.93,7.24.58,9.41.16,3.8,1.05,12.98-.03-2.6-.1-5.21-.11-7.81.62,7.96,1.01,5.75,1.25,6.4-.26-6.81-.52-9.37-.89-11.31-.35-1.94-.72-3.28-.89-7.66-.59-4.21.37,8.21-.36,1.62-.35-8.2-.49-1.85-1.12-11.04l.3,1.53c.21-2.83-.28-5.59-.45-8.85-.29-3.58-1.67,4.13-2.24-10.62.17.72.27.98.34.98l4.92,14.2c-.27-7.44-.6-15.45-.65-23.76-.04-4.15-.08-8.38-.13-12.65.04-4.27.08-8.57.12-12.88.84-4.06.78,12.3,1.16,11.24-.06,2.62-.03,5.24-.04,7.86-.18-.22-.32-4.33-.4-7.51-.08-3.17-.19-5.41-.49-1.85.17,6.94.29,11.98.41,16.94.07,2.48.13,4.93.27,7.59.17,2.66.39,5.51.7,8.8.37-2.06.12-6.39-.05-11.28-.16-4.89-.36-10.34-.12-14.63.02,3.6.17,6.63.36,9.57-.03-4.02-.06-8.18-.08-12.48.03-4.3.07-8.74.1-13.31l-.22-2.05c-.06,6.16-.11,10.43-.14,10.98.03-8.17-.49-15.07-1.12-15.61v1.45s-.23-2.96-.23-2.96c.06-1.92.11-3.84.17-5.75ZM41.43,54.88c.02.5.06.9.13,1.19-.07-.31-.15.02-.13-1.19Zm-24.15,688.3c-.57-5.42-1.14-10.86-1.71-16.25-.51-5.39-1.02-10.73-1.52-15.94.16,4.73.32,9.11.43,12.53.09,3.42.17,5.88.07,6.76-.17,1.77-1-2.73-2.59-18.44l-.3-2.05c.29,4.12.97,11.2,1.8,17.85.53,2.67,1.7,8.29,2.75,13.22.55,2.46,1.07,4.75,1.44,6.41.39,1.66.64,2.69.67,2.64.11-1.94-.61-4.67-.94-8.14l-.12,1.39Zm-1.11,7.94c.63,6.15.73,4.72,1.09,5.64-.3-2.15-.6-4.31-.89-6.43.04.82,0,1.24-.2.79Zm1.29,5.24c-.08-.69-.14-1.28-.15-1.59l.15,1.59Zm-9.77-119.75c.02.28.02.37.04.63-.03-1.46-.07-2.92-.11-4.45-.02.59,0,1.72.07,3.81Zm-.15,12.56l.51,1.44c-.03-1.36-.07-2.75-.1-4.17-.19.48-.35.97-.41,2.72Zm1,40.37c.68,2.5,1.54,10.98,2.19,11.44.21.53.11-1.26-.02-3.27-.18-2.24-.41-4.62-.57-7.15-.1-.08-.22-.58-.36-1.41.09,2.51.09,4.19-.38,3.21.36-6.5-1.02-5.72-1.32-12.7-.6-2.18.13,7.78.46,9.88Zm7.41,532.4c-.08.19-.29.85-.58,1.78l.26-4.91c1.21-8.67,2.96-15.52,3.16-23.44.64-3.64,1.3-5.54,1.87-7.37-.26,1.79-.51,3.46-.72,4.85-1.56,22.06-2.62,11.28-3.99,29.1Zm13.48-99.74c-.07.9,0,1.23,0,1.23.28-4.89.59-9.56.91-13.98.33-4.42.64-8.58.92-12.47.58-7.77,1.2-14.4,1.77-19.64-.67,1.99-2,11.35-2.65,15.8l-.11-4.01.66-2.43.24-6.91c-.55,1.88-1.05,7.43-1.7,11.11.04.33-.52,12.27-.63,15.61.51-3.14.94-6.29,1.39-9.44-.36,2.55-1.71,15.13-2.17,20.13.25.13,1.66-8.42,1.22-9.56.51-.98-.65,8.92.5,2.71-.47,7.47-2.16,19.24-3.04,24.69l-.76.85c-1,5.97.27,4.15-.99,11.24.97-8.79-.89,1.39-.07-5.59-.52,2.2-.69-.04-1.51,6.96.13,5.93-1.46,7.3-1.39,12.9-.73,3.64-.01-4.02-1.05,3.2-.6,8.35-.22,7.91.34,8.51,1.16-7.73.3-8.82,1.25-15.14l-.53,12.75c.45-2.31.68-4.03.82-5.47-.26,2.54-.38,4.72-.39,6.59-.02,1.07-.04,2.05-.05,2.95.91-7.15,1.74-13.5,2.14-14.59l.18,1.03c.59-2.5.89-6.65.91-8.59.77-6.41,1.14-12.86,1.71-14.21l-.03,2.47c.9-7.89,1-8.77,2.12-18.69Zm3.61-259.63c-.58,4.91-.81,10.27,1.56,32.58l-.24-1.75c.35,11.31,2.91,21.88,2.95,35.67-.78-6.64-.77-6.28-2.27-13.55l.85,7.11c-.39-.97-.33.32-.21,2.51.14,2.19.34,5.27.5,7.89l-.98-4.58c.08-3.16-.49-11.3-.63-11.05.2,1.78.16-10.82-.74-17.6-.21.37.06,4.14.21,7.03.12,2.89.11,4.89-.53,1.71.76,5.62.32,6.36.94,12.26-.76-5.64-.77-1.35-1.44-5.54l.88,9.66c-.11.26-1.41-14.06-1.41-6.1.61,3.85.83,14.22,1.37,14.38l-.15.25c.15,3.63.38,4.42.6,5.41.23,1,.43,2.2.43,6.67.27.09.39-1.61.22-4.81-.27-2.69-.66-3.09-1.04-8.64.27-2.51.33,6.7.81,2.81.24-1.94-1.13-14.66-.12-10.64l.3,7.26c.54.16.81,5.41,1.22,5.24.49,4.43-.03,8.65.61,13.16.41,1.87.93-1.44.92,6.08-.68,5.89-.5,23.17-.34,29.66.1,1.89.12,3.78.19,5.68.17-.24.25-2.95.3-5.14,0-2.19,0-3.87.21-2.05l.04,2.21-.04,2.21-.07,4.43-.18-.69c-.13,2.93,0,5.93.02,8.61-.3-2.77.05-9.14-.54-7.88-.24,4.15-.46,4.77-.47,8.6-.01-.84-.05-1.55-.13-1.45-.5,8.39.37,8.13.48,10.25.46,8.49.93-8.5,1.46-7.4l-.23,12.36-.59,12.35c-.05-2.12-.1-4.25-.37-3.47-.62,6.04-.43.11-.92,8.61.39-.28.35,2.4.21,5.91-.07,1.75-.15,3.71-.23,5.61-.1,1.9-.2,3.73-.22,5.24-.55,2.78-.66,3.35-.14-2.78-.55.67-1.06,8.9-1.35,11.81-.02,1.7-.2,4.6-.25,6.44.45-2.43.67-1.36.42,3.97l.08.32c.46-4.34,1.05-9.89,1.6-15.04.52-5.15.97-9.89.84-12.65l.15,1.56c1.03-10.08.46-22.02,1.66-26.63.35.45.19-2.03.7-1.83l-.18-7.47.19,1.56.27-12.68.09.34c-.3-6.04-.49-10.76-.89-14.53-.23-.02-.3.37-.48-1.63-.12-2.01-.15-3.54-.12-4.9,0-.01,0-.01,0-.01h0c.05-3.1.37-5.18.49-9l.11,11.78c.39.96.8-.04,1.04-5.82.03,2.36.34,3.35.37.43-.1-.32-.29-7.73-.58-4.9-.05-2.8-.03-6.03.02-9.58.02-3.54-.08-7.39-.14-11.42-.04-2.02-.09-4.08-.13-6.17-.08-2.09-.2-4.21-.32-6.34-.27-4.26-.53-8.58-1.03-12.8.64,6.08.59,3.63.55,1.35-.09-2.28-.14-4.39.38,2.37-.02-9.49-1.21-8.09-1.82-17.72.16-.84.36,5.24.97,7.42-.94-16.03-3.35-26.88-4.81-42.31l.41-.71c-.4-2.91-.84-6.14-1.31-9.5Zm-4.41-30.36c-.44-2.95-.89-5.94-1.35-8.98.04.3.07.58.1.89l-1.58-8.83c.55,5.48.5,9.15-.78,1.55.29.62.23-1.65.7.99-.4-5.16-1.63-16.42-1.97-13.4,2.02,9.74-.62,2.42.94,10.08-1.03-4.08-1.37-8.22-2.12-12.11.95,4.02.77-1.07.13-7.22-.48-2.65-1.34-9.88-2.13-14.28-.23,1.64-1.01-2.18-.15,5.05-.47-2.63-1.12-6.72-1.5-11.34.32,1.81.8,4.99.93,4.74,0-3.02-.47-6.48-.54-8.42-.22-1.52-.45-3.06-.67-4.56.02.45.02.85,0,1.13l-1.06-5.03c1.09,6.74.2,3.15-.07,3.1.55.11-.5-4.36-.82-6.68l.1,5.1c-.6-2.39-.71-8.63-1.09-7.3,1.16,10.7,1.78,14.8,3.24,24.41l-.1-3.97c1.77,10.84.16,6.81,1.83,19.01,1.08,5.02,2.51,18.35,3.33,18.49-.45-1.5.33,7.69,1.24,11.82,1.32,4.53,3.25,18.5,3.02,14.22-.49-3.78-1.55-8.81-1.48-11.91l1.11,7.31-.24-4.86c.18,2.5.54,2.21.96,1Zm-14.33-164.57c0-.08,0-.19,0-.28,0,.11,0,.21.01.32v-.03Z"/>
      <path class="cls-1" d="m8.04,1331.04c.03,1.06-.03,2.91-.04,4.35-.03,1.45.08,2.51.27,2-.5.11.41-9.37-.23-6.36Z"/>
      <path class="cls-1" d="m7.33,1337.29c.09.37.26.12.23,2.48l.02-3.24.11-3.24c-.11,1.34-.29,2.67-.35,4.01Z"/>
      <path class="cls-1" d="m4.27,1343.79c.25,3.36.38,5.49.24,10.76-1.08,1.96-.1-8.63-1.02-11.04-.31,9.66.54,12.65.45,20.59.52-3.94,1.11-19.99.33-20.3Z"/>
      <polygon class="cls-1" points="3.05 1339.45 3.17 1344.84 3.24 1344.31 3.13 1338.92 3.05 1339.45"/>
      <path class="cls-1" d="m21.71,1224.62c.38-.44.43-3.79.57-5.57-.21,1.44-.51,3.45-.57,5.57Z"/>
      <path class="cls-1" d="m38.91,175.51l2.82-40.77c-.81,11.73-1.56,22.56-2.82,40.77Z"/>
      <path class="cls-1" d="m35.87,1089.69c-.42,5.48-.61,9.46-.83,13.45-.26,3.99-.56,8-1.14,13.57,2.41-14.55,1.15-19.45,3.11-31.68l-1.14,4.65Z"/>
      <path class="cls-1" d="m38.04,1093.82c-.8,1.75.16-8.52-.45-6.98-.62,7.39.22,3.5-.53,10.19l.97-3.21Z"/>
      <polygon class="cls-1" points="22.26 1142.08 22.36 1138.74 22.14 1141.41 22.26 1142.08"/>
      <polygon class="cls-1" points="42.08 1043.77 42.15 1045 42.67 1039.49 42.08 1043.77"/>
      <path class="cls-1" d="m42.19,1046.22l-.04-1.22.04,1.22Z"/>
      <polygon class="cls-1" points="21.49 1137.68 20.75 1142.56 20.72 1145.03 21.49 1137.68"/>
      <path class="cls-1" d="m29.76,1094.75l-.26,4.42c.05-.88.93-6.86.26-4.42Z"/>
      <polygon class="cls-1" points="44.21 1010.05 44.15 1004.63 44.07 1005.18 44.14 1010.58 44.21 1010.05"/>
      <path class="cls-1" d="m31.4,1060.18c-.73,3,.62-8.78-.33-2.57-.4,5.56.04,3.33.33,2.57Z"/>
      <path class="cls-1" d="m38.3,995.65c.02-.73.03-1.49,0-2.23,0,.88,0,1.61,0,2.23Z"/>
      <path class="cls-1" d="m38.3,995.65c-.07,2.34-.32,4.68-.24,6.29.3-2.91.26-3.98.24-6.29Z"/>
      <path class="cls-1" d="m38.39,968.81l-.02,2.12c-.24-2.17-.2-1.14,0,.8.03,2.25.17,2.12.28,2.39.06.45.12.9.19,1.38-.07-.69-.13-1.32-.18-1.85-.01-3.49-.05-5.62-.26-4.85Z"/>
      <path class="cls-1" d="m39.62,868.49c.75,7.85.81,9.9.42,9.51.67,7.46,1.17,6.24,1.79,10.72-.98-8.42-.92-10.18-2.21-20.23Z"/>
      <path class="cls-1" d="m41.83,888.71c.1.94.2,1.85.31,2.94-.1-1.23-.2-2.14-.31-2.94Z"/>
      <polygon class="cls-1" points="34.06 1000.06 33.65 995.19 33.67 996.97 34.06 1000.06"/>
      <path class="cls-1" d="m38.46,856.84c.15,1.45.43,3.78.44,4.94.41.37-.59-6.39-.44-4.94Z"/>
      <path class="cls-1" d="m34.69,887.8c-.12.81.49,5.8.58,7.85-.22-2.92.24-5.37-.58-7.85Z"/>
      <path class="cls-1" d="m34.14,834.62c.17,1.45.21,3.7-.21,2.78.45,2.08,1.46,4.84.21-2.78Z"/>
      <polygon class="cls-1" points="33.25 873.52 33.25 874.65 34.05 879.97 33.25 873.52"/>
      <path class="cls-1" d="m29.86,893.1c1,5.95.15-9.61,1.49.68-.87-13.36-.49,1.08-1.43-8.75.47,5.76.17,8.64-.06,8.07Z"/>
      <path class="cls-1" d="m29.92,885.03c-.06-.84-.15-1.74-.25-2.73.1,1.09.18,1.97.25,2.73Z"/>
      <path class="cls-1" d="m22.15,800.42c.16.86.29,1.45.42,1.99-.13-.68-.26-1.33-.42-1.99Z"/>
      <path class="cls-1" d="m26.01,853.74c.6,2.96,1.17,5.93,1.73,8.89-1.1-5.94-3.01-21.02-3.52-20,.48,4.9,1.38,10.74,1.96,13.12l-.17-2.02Z"/>
      <path class="cls-1" d="m24.18,749.23l.74,3.84-.53-4.84c.08,1.4-.71-1.05-.21,1Z"/>
      <path class="cls-1" d="m24.29,747.29l.1.94c0-.21-.04-.51-.1-.94Z"/>
      <path class="cls-1" d="m24.76,817.35c.34,2.9.68,5.22,1.14,7.85-.02-1.11-.88-8.35-1.14-7.85Z"/>
      <path class="cls-1" d="m20.04,722.08c.25,2.13.54,4.25.82,6.38-.29-2.32-.57-4.65-.82-6.97v.59Z"/>
      <polygon class="cls-1" points="18.26 692.15 18.28 691.03 17.66 685.75 17.62 686.88 18.26 692.15"/>
      <path class="cls-1" d="m9.44,732.59c.43,4.37,1.41,7.71,1.4,6.55l-1-8.45c-.26,2.21.29,2.34.72,7.26l-1.12-5.36Z"/>
      <path class="cls-1" d="m17.46,469.68c.23,1.91-.5,11.15-.85,11.61-.07-1.25.09-6.27-.3-3.13l.42,7.36c-1.06,9.71-.69-7.46-.69-12.29-.68,9.92-.32,12.89-.84,23.44.23-3.11.54-5.06.8-6.7.61-.33-.15,9.49-.45,16.52.48-4.46.56-1.86.64,1.41,0,.59.01.98.04,1.26.01.38.02.74.04,1.11l.03-.84c.06.06.15-.12.29-.72.1-5.9.84-10.38,1.03-14.18-.57,1.85-.47-1.38-.22-5.68.24-4.29.69-9.65.67-12.04l.22-5.51.12-2.06c.13-.41.23.19.24,3.34-.05-2.63.55-11.37.21-10.58l1.28-19.96c.08-.62.17-1.24.27-1.69-.01-.7-.05-.81-.11-.73,1.95-28.99,4.19-57.99,6.39-87.01-.41,4.29-.91,7.99-1.35,12.41-.13-6.69-.67,7.25-1.12,5.25.01-3,.41-7.37.76-9.96-.23-.99-.78,2.7-1.11,2.24-1.22,10.95.1,12.74-.94,23.46-.33-.45-.4-3.79-.88,3.23l.06-1.79c-.44,11.28-1.48,8.7-1.02,15.85l-.51-.22c.02,5.13-.7,15.05-1.03,20.65l-.08-.34c-.48,15.73-.5,8.81-1.43,26.45l-.08-8.15c-.68,6.06-.07,7.48-.43,11.83-.08-.32-.53.67-.36-3.46-.13,7.15-.32,14.29-.4,21.43.1,5.12.45-1.01.72-1.79Z"/>
      <path class="cls-1" d="m15.19,496.67c-.08,1.13-.16,2.42-.22,3.93.08-1.46.15-2.72.22-3.93Z"/>
      <path class="cls-1" d="m27.14,346.47l-.47,6.12c.18-1.89.34-3.87.47-6.12Z"/>
      <path class="cls-1" d="m14.97,527.35c.42-3.69.27,2.79.47,3.44.12-4.42.35-8.84.51-13.26-.21.05-.38-1.27-.58-1.01l-.41,10.84Z"/>
      <path class="cls-1" d="m16.5,513.7c-.12-.45-.19-1.86-.24-3.44l-.3,7.27c.15-.04.33-.85.54-3.82Z"/>
      <polygon class="cls-1" points="5.61 514.65 5.69 512.29 5.68 508.71 5.61 514.65"/>
      <path class="cls-1" d="m8.35,477.82c-.47,2.8-.56,8.15-.56,9.94.32-6.15.3-3.48.56-9.94Z"/>
      <polygon class="cls-1" points="4.62 485.24 4.79 479.29 4.69 479.84 4.62 485.24"/>
      <path class="cls-1" d="m28.54,301.11c.06-.97.12-1.91.19-2.89-.1,1.32-.16,2.19-.19,2.89Z"/>
      <path class="cls-1" d="m25.14,351.93c1.67-14.07-.22,9.29.88,4.91l.34-7.7.15.67.65-9.38c-.5,1.9-.63,3.34-.96,2.89,1.1-12.5.74-3.91,1.9-13.05l1.01-13.99.02,1.14c.08-1.18.08-1.7.05-2.11l3.39-47.14c.37-8.6-1.02,4.69-1.07-1.67-.76,9.94-2.28,24.67-1.62,25.57-.07-.34-.22-1.01-.47.99l.16,5.79.61-5.46c.15,5.82-1.41,24.47-2.04,27.82.61-10.63-.51-5.36,1.01-20.11-.24.65-.77,3.33-.61,0-1.12,17.34-2.64,32.84-3.4,50.83Z"/>
      <path class="cls-1" d="m38.14,178.16l.06.14c-.01-.32-.03-.42-.06-.14Z"/>
      <path class="cls-1" d="m37.6,183.97l.06,8.5.95-13.17-.43-.99c.04,1.17-.06,5.81-.4,7.58l-.2-1.92Z"/>
      <path class="cls-1" d="m37.34,202.3c.31-6.81-.31-6.49-.86-2.8.21-6.26.89-3.25.59-7.59-.44.11-.78,7.82-.83,9.6l1.1.8Z"/>
      <polygon class="cls-1" points="33.18 252.43 33.08 250.5 32.66 255.21 33.18 252.43"/>
      <path class="cls-1" d="m33.08,250.5l.42-4.67c-.21.31-.41.62-.59,1.37l.17,3.3Z"/>
      <path class="cls-1" d="m34.62,233.58c.2-1.98.4-4.16.62-6.83l-.62,6.83Z"/>
      <path class="cls-1" d="m34.06,238.91l.09-.15.47-5.18c-.2,1.91-.38,3.62-.56,5.33Z"/>
      <path class="cls-1" d="m33.51,245.83c.47-.73.97-1.58,1.38-8.35l-.74,1.28-.64,7.07Z"/>
      <polygon class="cls-1" points="7.89 442.12 8.03 436.75 7.93 437.31 7.79 442.68 7.89 442.12"/>
      <path class="cls-1" d="m10.45,411.26c.02-1.33.02-2.34,0-3.25-.06,1.4-.07,2.51,0,3.25Z"/>
      <path class="cls-1" d="m9.34,388.1c.89-6.26-.11,8.72.96-2.92.46-1,.55,4.5-.06,9.97-.33-.46.17-5.36-.45-2.02.15,3.67-.24,5.04.4,3.81-.12,6.15.22,6.87.27,11.06.3-7.43,2.04-22.95,2.05-32.4-.26-5.23-1.4-2.16-2.35-2.25-.29.76-1.42,14.19-.82,14.75Z"/>
      <path class="cls-1" d="m7.65,397.93c-.27,2.91-.3,3.8-.35,5.59.36-.46.19-3.24.35-5.59Z"/>
      <path class="cls-1" d="m19.92,331.58c-.09-.57.14-5.84-.18-4.73l-.44,7.99c.17-1.87.38-2.52.62-3.26Z"/>
      <path class="cls-1" d="m19.1,338.36l.2-3.51c-.08.87-.14,1.96-.2,3.51Z"/>
      <path class="cls-1" d="m20.03,331.21c-.04.12-.07.24-.11.37.02.11.05.1.11-.37Z"/>
      <path class="cls-1" d="m36.34,214.23c.25.13.37-3.44.43-5.23-.13,1.45-.38,3.48-.43,5.23Z"/>
      <path class="cls-1" d="m45.6,80.24l.45-3.13c-.21,1.1-.31,1.67-.45,3.13Z"/>
      <path class="cls-1" d="m42.2,31.27c-.04-.09-.07-.33-.08-.65,0,.32.03.54.08.65Z"/>
      <path class="cls-1" d="m42.12,30.62c-.05-2.16.79-8.77.65-11.17l.08.31.14-4.45c-.29,4.16-1,12.88-.87,15.32Z"/>
    </g>
  </g>
</svg>