<?xml version="1.0" encoding="UTF-8"?>
<svg id="Layer_2" data-name="Layer 2" xmlns="http://www.w3.org/2000/svg" viewBox="0 0 54.13 1406.73">
  <defs>
    <style>
      .cls-1 {
        fill: #ffa520;
      }
    </style>
  </defs>
  <g id="Layer_1-2" data-name="Layer 1">
    <g>
      <path class="cls-1" d="m9.65,1371.92c.48,3.15.56,5.94.26,4.77,1.26,6.38.86,6.57,1.69,7.3.46,2.03.72,4.17.75,5.21.09,1.04-.19,1.01-.65-1.32.75,3.93,1.67,7.83,2.5,11.74l-1.15-7.07c.94,1.82,1.84,11.31,2.93,13.4l-2.34-12.75.31.6c-.35-1.44-.81-3.56-1.1-5.59-.27-2.03-.5-3.95-.59-4.95.14.3.28.07.61,2.34-1.05-7.75-1.45-8.76-1.85-9.43-.2-.34-.39-.59-.66-1.57-.27-.97-.63-2.66-.98-5.9.1.81.19,1.82.27,3.21Z"/>
      <path class="cls-1" d="m9.79,1358.53c-.43-1.79-.9-3.57-1.24-5.37l-.41-9.16c-.27-.09-.92-6.74-.85-2.21.1.88.29,2.62.36,4.03-.32-.49-.59-3.53-.83-6.11-.27-2.58-.33-4.7-.6-3.34.53,7.25.55,8.37,1.28,12.8.3,6.66.8,11.48.87,14.6.28,1.96.66,2.2.98,4.69-.06-.55-.12-1.06-.19-1.69l.82-.36c-.39-2.06-.5-4.04-.75-6.34l2.06,10.56c.22-1.76-.04-5.24-.38-8.81-.32-3.57-.78-7.22-.7-9.33-.19,2.63-.34,1.6-.44,1.19-.08-.42-.22-.21.02,4.87Z"/>
      <path class="cls-1" d="m9.35,1368.45c0,.07.02.18.03.26,0-.08-.02-.19-.03-.26Z"/>
      <path class="cls-1" d="m7.79,566.34c.04-2.3-.14-2.98-.24-3.31l-.54,25.87c.23-.81.67-8.25.7-3.27.29-2.22.22-8.98-.06-9.97l.3,1.88c-.31-5.97.63-10.02.81-6.13v-.5s-1.28-16.55-1.28-16.55c-.25,6.06.47,4.68.31,11.98Z"/>
      <path class="cls-1" d="m43.73,37.58c.46,3.31.59,3.71.63,3.32-.2-1.18-.4-2.3-.63-3.32Z"/>
      <path class="cls-1" d="m7.18,550.49l-.38-5.19c.08,2.08.22,3.9.38,5.19Z"/>
      <path class="cls-1" d="m14.39,586.47s.05.07.09-.07l-.22-2.32s0,.05,0,.06c.05.85.09,1.62.13,2.33Z"/>
      <path class="cls-1" d="m10.65,432.99c.03-.56.05-1.04.09-1.7-.03.62-.06,1.18-.09,1.7Z"/>
      <path class="cls-1" d="m16.34,656.53l-.36-11.5c.22,1.54.22-4.01.47-1.58-.03-.88-.07-4.98-.2-3.87l-.02,2.35c-.62-6.07-.94-2.4-1.33-12.46-.5,6.23-.16,8.97.11,12.28.02,1.12.04,2.06.06,3.01l.85,9.57.42,2.2Z"/>
      <path class="cls-1" d="m45.94,197.51l.04.13c0-.12-.02-.14-.04-.13Z"/>
      <path class="cls-1" d="m46.15,198.17l-.17-.52c.05.63-.1,3,.17.52Z"/>
      <path class="cls-1" d="m7.59,552.4c-.13-.16-.27-.83-.41-1.91l.3,3.87c.03-.55.07-1.27.11-1.96Z"/>
      <path class="cls-1" d="m8.9,561.22l-.13,9.69.29,3.58c-.04-3.71-.1-8.05-.16-13.27Z"/>
      <path class="cls-1" d="m9.21,448.27c1.18-20.08.51,4.99,1.29-4.23.25-5.58,0-7.57.14-11.05-.77,15.94-1.17-2.25-2.01,13.83-.57-2.33-.04-11.64.58-17.08,1.13-6.12.1,5.43.67,6.87.36-6.45.15-5.32-.02-8.09.85-10.11.83-21,2.26-26.96.51-7.33.16-6.88.19-11.12-.64-.91-1.43,10.85-2.19,13.52.11-.56.32-1.64.4-1.32l-.68,6.32c.75-5.99.66.9.45,4.11-.18,2.34-.53,6.98-.68,6.33l.13-3.55c-.62,4.54-.22,10.09-.98,14.88-.18.24-.13-1.59-.21-1.87.05,2.71-.03,5.37-.15,8.35-.1,2.98-.22,6.28-.3,10.28l-.43-4.67c.2,3.22,0,8.44-.36,14.1-.32,5.67-.83,11.78-1.31,16.78.18-1.11.38-3.11.45-1.9-.16,5.9-.83,10.32-1.09,7.57.16,2.89-.22,8.36-.6,14.1-.34,5.74-.66,11.74-.44,15.67.76,12.06,1.59,24.11,2.48,36.15-.05-1.35-.09-2.8-.07-4.28.73-3.25.7-5.02,1.14.73-.17-5.64-.75-3.5-.51-11.96.21,3.33.9,4.19,1.26-3.91.03-20.27-1.16-33.77-1.14-52.75.55-.67,1.16-15.54,1.78-22.75.34,2.79.16,8.15-.03,13.72.22-3.49.57-9.49.9-13.95l-.91-1.88Z"/>
      <path class="cls-1" d="m8.34,495.4c.06-.5.11-1.03.16-1.56-.05.28-.1.75-.16,1.56Z"/>
      <path class="cls-1" d="m9.12,465.79c.01.07.03.05.05.07.02-.58.04-1.17.06-1.77-.04.6-.08,1.27-.11,1.69Z"/>
      <path class="cls-1" d="m8.82,547.69c.11,1.2.12,2.1.23,3.3-.03-.74-.04-1.67-.06-2.57-.04-.85-.1-1.26-.17-.73Z"/>
      <path class="cls-1" d="m7.85,551.71l-.19-.65c-.03.52-.05.88-.08,1.34.1.14.2,0,.26-.69Z"/>
      <path class="cls-1" d="m20.03,372.09l.1-1.93c-.11,1.15-.12,1.65-.1,1.93Z"/>
      <path class="cls-1" d="m11.58,425.97c-.46,6.98.67.89-.05,10.76l.26-2.89c-.12,3.55-.37,8.44-.69,13.48-.32,5.05-.69,10.26-.89,14.47-.24-.97-.64,5.09-1.03,4.08-.22,5.76-.43,11.47-.09,14.46-.32,3.56-.17,8.99-.58,13.52.37-1.9.62,6.49.81-4.55,0,.89.08.34.08,1.22.72-7.09.2-9.97.5-16.09.46-3.64.13,6.01.41,2.56.15-7.65,1.63-23.95.63-23.51.28-5.56.56-6.32.85-7.96-.58-8.87,2.8-32.58,1.46-32.61-.12,1.61-.27,3.72-.43,6.01-.13,2.3-.25,4.79-.27,7.16l-.95-.1Z"/>
      <path class="cls-1" d="m9.09,535.96c.02-.43.04-1,.05-1.36-.02.4-.04.9-.05,1.36Z"/>
      <path class="cls-1" d="m3.23,623.97l-.86-2.93c.03-16.63.39-22.64.63-37.18.15-1.11.19.66.21,1.55.09-10.23.63-25.52.42-32.97.08-3.25.63-11.79.8-8.55-.03-1.59-.06-3.4.02-5.22.34-.47-.03,4.08.24,4.19.06-1.44.14-2,.05-2.34.21,2.44,1.17-2.49.82,8.84-.89,4.36.14-7.86-.77-5.29-.12,3.76.22,3.33.31,3.65-.16,4.79-.35,4.66-.54,4.4.21,1.84-.29,7.85.04,10.39-.16,9.31-.62-.52-.76,5.56l.77,3.52-.37,10.1c0,14.64,1.49-2.06,1.67,14.66-.4-2.21-1.27,4.49-1.57,12.27.04-4.66-.35-13.27,0-19.28-.83,8.46.15-11.67-.69-7.28.27,4.2.19,11.18-.1,16.62l-.05-1.79c-.19,5.79.61,10.19.16,18.17-.03,3.97-.26,3.22-.45,2.52.08,3.36.2,6.37,0,6.37Zm-.05-8.65l.17-5.31c-.16,1.26-.18,3.24-.17,5.31Z"/>
      <path class="cls-1" d="m8,1284.85c-.05.52-.1,1.13-.14,1.6.05-.35.1-.96.14-1.6Z"/>
      <path class="cls-1" d="m28.68,815.8l.66,3.01c-.24-1.18-.46-2.14-.66-3.01Z"/>
      <path class="cls-1" d="m43.53,883.93c.26,1.5.47,3.01.65,4.52-.08-.9-.17-1.69-.27-2.43-.12-.74-.25-1.42-.38-2.08Z"/>
      <path class="cls-1" d="m10.26,1248.42l.02-.15c0-.25.01-.44.02-.71l-.03.86Z"/>
      <path class="cls-1" d="m39.87,1023.33c-.14.68-.27,1.44-.42,2.48.1-.12.24-1.05.42-2.48Z"/>
      <path class="cls-1" d="m43.39,883.1c0,.12.01.18.02.28.04.17.08.37.12.55l-.14-.83Z"/>
      <path class="cls-1" d="m24.42,785.69c-.16-.63-.31-1.21-.49-1.89.21.9.36,1.44.49,1.89Z"/>
      <path class="cls-1" d="m22.98,790.4c-.18-.68-.35-1.33-.49-1.84l.49,1.84Z"/>
      <path class="cls-1" d="m14.33,685.78l-.1-4.12c0,2.03.04,3.24.1,4.12Z"/>
      <path class="cls-1" d="m21.27,779.63c-.09-.23-.17-.45-.24-.6.14.55.24.81.24.6Z"/>
      <path class="cls-1" d="m5.05,1311c0-.09,0-.2,0-.25l-.1-.1.1.36Z"/>
      <path class="cls-1" d="m6.34,1321.02c.06,1.18.13,2.41.19,3.62-.04-1.34-.11-2.65-.19-3.62Z"/>
      <path class="cls-1" d="m31.25,1083.02c-.27,1.07-.77,3.6-.74,2.39-.11,2.11.33,2.03.74-2.39Z"/>
      <path class="cls-1" d="m0,1290.72c.1.67.17,1.49.24,2.32-.09-1.54-.16-2.9-.24-2.32Z"/>
      <path class="cls-1" d="m.24,1293.04c.05.76.1,1.58.14,2.26-.04-.79-.08-1.56-.14-2.26Z"/>
      <path class="cls-1" d="m27.89,1054.46c.09-.26.19-.68.27-1.24-.13.15-.21.6-.27,1.24Z"/>
      <path class="cls-1" d="m6.49,1327.57c.22.65,1.19,16.35.85,3.12.65.49.53,8.47,1,11.97-.02-2.56.49,1.25.66.46-.17-1.74-.55-3.79-.61-6.68.12-.67.26.09.39,1.44.16,1.35.31,3.29.37,5,.06-4.22.85,5.29.71-.66-.13-1.58-.26-3.11-.38-4.59-.08-1.48-.16-2.91-.24-4.29-.16-2.77-.33-5.36-.51-7.84-.43-4.95-.65-9.44-1.15-13.92.04,1.82.09,3.69.14,5.57.04,1.88.06,3.76.17,5.6.16,3.68.26,7.2.23,10.19l-.63-2.48c.13-3.38.06-6.1-.05-8.81-.09-2.71-.14-5.41-.14-8.73l-.11,7.45.1,7.45c-.22,6.99-.48,2.33-.76-3.17.04,1.35.05,2.58-.04,2.93Z"/>
      <path class="cls-1" d="m1.47,1317.58v.25c0,.22.02.49.04.63l-.04-.89Z"/>
      <path class="cls-1" d="m3.32,686.51l-.2-1.29c.09,1.08.15,1.41.2,1.29Z"/>
      <path class="cls-1" d="m4.07,1308.6h0c0-.09,0-.11,0,0Z"/>
      <path class="cls-1" d="m3.81,718.77s-.03-.09-.05-.17c.02.12.04.12.05.17Z"/>
      <path class="cls-1" d="m15.96,726.71c.02-.06.04-.08.06-.22-.07-.67-.08-.34-.06.22Z"/>
      <path class="cls-1" d="m3.86,718.79s-.03.02-.05-.02c.02.02.04.08.05.02Z"/>
      <path class="cls-1" d="m32,872.36s.04-.5.03-1.27c-.09-.29-.11.01-.03,1.27Z"/>
      <path class="cls-1" d="m27.78,842.07c-.02-.2-.03-.31-.05-.56l.05.56Z"/>
      <path class="cls-1" d="m34.66,1076.13c.21-1.51.34-2.65.45-3.61-.16,1.1-.31,2.3-.45,3.61Z"/>
      <path class="cls-1" d="m3.76,718.6c-.07-.32-.15-.78-.25-1.54.11.84.19,1.28.25,1.54Z"/>
      <path class="cls-1" d="m38.62,918.68c-.04-.33-.07-.63-.11-.94v.56s.11.38.11.38Z"/>
      <path class="cls-1" d="m38.59,934.72c-.07-.55-.14-.8-.2-1.1.08,1.43.15,3.16.19,4.97,0,1.81,0,3.7,0,5.45,0,3.5.06,6.44.35,7.07,0-1.94.44-12.01.76-10.3-.03-2-.03-4.47,0-6.72.03-2.25.07-4.26,0-5.34-.19,6.56-.48.72-.75-3.7.09-4.03.48.75.52-2.72-.1-3.1-.33-6.2-.49-9.31l.32,8.11-.68-2.44c.03.3.06.5.09.82.62,13.7-.76,1.19-.12,15.22Z"/>
      <path class="cls-1" d="m38.39,933.61c-.05-.86-.11-1.61-.18-2.19.03,1.29.1,1.79.18,2.19Z"/>
      <path class="cls-1" d="m35.86,989.51c-.02.7-.05,1.46-.08,2.42,0-.46.08-1.51.08-2.42Z"/>
      <path class="cls-1" d="m8.83,581.37c-.17.24-.67,8.23-.24,8.09.09-2.37.18-4.76.28-7.16l-.04-.93Z"/>
      <path class="cls-1" d="m19.88,1141.31c.13-.88.26-1.76.39-2.65,0-.19,0-.38,0-.52-.14.53-.31,2.29-.4,3.17Z"/>
      <path class="cls-1" d="m39.86,943.27c-.05-1.47-.11-2.12-.18-2.47.02.95.07,1.83.18,2.47Z"/>
      <path class="cls-1" d="m18.8,1141.67c-.28,1.11-.71,2.73-.9,2.95-.34,2.3-.34,3.94-.59,6.3.31-2.65.79-5.7,1.49-9.24Z"/>
      <path class="cls-1" d="m17.29,1151.1c0-.07.01-.13.02-.19,0,.07-.01.12-.02.19Z"/>
      <path class="cls-1" d="m9.11,576.61c-.01-.69-.03-1.4-.05-2.13l.09,1.11c.08-1.84.16-3.67.24-5.5-.01-.66-.02-1.38-.02-2.27,0,.36.04.63.09.8.03-.6.06-1.18.09-1.76-.33-4.39-.4-15.3-.57-18.45-.07-4.17-.03-9.26.1-12.46-.1,2.96-.12,6.89.16,5.72.43-6,1.23-8.9.97-19.29l-.2,6.08-.48-13.71c.56-4.78.24,6.85.51,8.76-.12-10.66,1.52-19.45.89-24.41.53-.67,1.35-1.8,1.64-8.78-.8,5-.16-4.2-.95-.1-.16-2.42.55-7.77.2-8.19l.17.66c1.32-11.87.41-15.83.27-20.95.27-7.14.69-12.34,1.03-17.21.36-4.87.69-9.41,1.11-15.22.36-.43,1.49-3.53,1.8-8.19-.3-2.2.4-12.72-.08-13.84-.93,8.31-.09,6.85-.38,11.85-.9,4.11-.61.33-1.38,5.98.51-4.56,1.36-20.71,2.34-25.67l-.08,1.77c1.09-7.96,2.59-9.36,3.07-22.74l.33-6.38c.02.31.09.35.12.52,1.16-10.38,1.48-7.47,2.3-18.98-.06.89.06.34,0,1.24,1.08-6.49,1.25-13.14,1.74-18.08.85-2.95.37.77.47,2.67,1.62-11.44,2.46-23.9,2.85-31.09l1.28-7.34c-.41,4.4-.63,9.82-.17,8.52.45-4.07.12-3.32,1-9.04.17,1.02.12,3.46.13,6.21,2.12-11.8-.7-2.8,1.35-10.98.52-3.73.38-5.95.07-6.41l1.4-6.69c-.36-.81.76-9.15,1.43-14.63-.11-.69-1.09,4.33-1.19,6.43-.3-.46.32-6.29.83-10.03,1.18-1.24,3.12-24.5,3.67-19.93.94-8.42,2.06-18.55,3.11-27.96.47-4.71.92-9.24,1.32-13.29.36-4.05.65-7.62.85-10.41.63-3.64,1.37-11.12,1.39-6.59,1.3-13.58.89-20.67,2.04-34.14.19-1.11-.38,6.1-.03,5.64.17-8.85,1.5-16.03,1.72-29.75-.07,2.31.11,2.99.2,3.31-.18.23-.1-5.63-.18-9.18.13-1.99.06,2.66.21,1.54.62-13.24.38-24.93-.17-36.56-.54-11.64-1.53-23.22-2.71-36.32.73,7.47,1.46,10.27,1.76,10.33-.18-2.45-.32-4.9-.57-7.35-.61-2.8-1.04-8.31-1.87-12.87.06-.58-.08-2.83.34-.56-.47-7.28-1.62-12.87-2.84-18.84-.67-2.98-1.36-6.05-2.05-9.48-.76-3.42-1.55-7.18-2.31-11.56l2.69,10.46,2.43,10.54-.43-5.35c.71,3.1,1.47,6.19,2.08,9.31-.19-2.85-.77-5.45-1.2-7.44-.43-1.99-.75-3.36-.56-3.74.33,1.16.77,4.03,1.04,4.08-.74-5.42-1.08-5.8-1.98-9.81.8,2.6,1.48,5.89,2.24,9.51.79,3.62,1.43,7.6,2.07,11.6.68,4,1.15,8.04,1.65,11.78.52,3.74.83,7.2,1.17,10.04.25,1.79-.38-1.51-.51-1.82.23,2.32.34,4.19.47,6.2.11,2.02.22,4.18.51,7.1.68,3.61.11-2.8-.05-5.69.39.37.48,1.83.76,5.04-.37.73.93,17.7.33,21.87.36,8.6.58,7.91.86,7.17.26-.75.48-1.54.47,6.88-.17,1.68-.32,3.35-.53,5.03.46,9.76.52,22.41-.09,33.45l.08-2.33c-.19-1.56-.41,1-.6,2.12-.34,4.16-.41,8.12-.55,11.67-.16,3.55-.33,6.68-.77,9.18-.06,9.53-.98,25.39-1.8,36.24-1.02,2.85.79-14.19.68-18.74-.29,3.29-.56,6.58-.89,9.86.59-6.09.47-8.53.39-12.22-.87,8.63-.52,11.52-1.13,19.73-.14-.66-.36.42-.77,4.19l.37,1.12c-.05.07-.13.48-.28,1.64-.4,4.86-.87,9.72-1.32,14.57.56-3.06,1-3.16,1.43-6.92-.44,1.31-.11-1.88.28-5.64-.03,3.33.66-3.64.91-3.53-.79,7.55-1.8,16.82-2.26,21.77l-.64,1.55c-.96,7.16-1.68,14.76-2.43,19.61l-.04-1.56c-1.25,8.58-2.08,17.07-3.55,24.63-.52,7.72-1.42,17.42-1.75,23.74.11,3.42-3.8,22.34-4.13,31.07-.14.57.36-5.98.54-8.95-.86,5.72-.76,10.38-1.59,12.1,1.91-12.84-.58.63.02-5.19-.79,6.03-1.52,12.4-1.67,15.38,1.26-9.75.38,3.57,1.41-6.33-.5,7.72-1.6,18.18-2.9,27.27-.25-.12-.5.99-1.01,4.38l.06,2.79c-.56,4.26.5-8.31-.63.27-.36,8.91-3.23,26.61-2.34,30.62-1.11,6.71.73-12.9-.81-2.77.08-5.97,1.5-14.08,1.09-16.09-.44,5.82-.73,2.06-1.14,5.81-.1,2.17-.22,4.34-.29,6.51l.16-1.43c-.22,5.46-.84,12.49-1.48,19.89-.58,7.41-1.35,15.18-1.77,22.14-.28,11.82.06,19.99-.86,34.12-.13-4.2-.99,11.72-1.15,2.78-.68,6.53-.66,13.01-.41,13.15.41-5.75.2-2.02.6-6.86.13,3.29-.29,10.84-.63,13.93.09-1.44,0-.89-.08-1.21-.54,6.87.16,3.31.06,8.29-.54,1.55-.61,10.97-1.02,15.5l.37,6.61c-.28-3.64-.4,6.3-.81,7.33.14,4.74.5,8.71.17,15.9-.13-2.98-.51,6.56-.94,6.67-.78,12.31.62,20.44-.26,32.1-.09-.36-.32-2.73-.5.68.06,2.69-.08,7.4-.1,10.27v-.09c0,.06,0,.09,0,.15,0,1.41.03,2.3.13,2.33.32,4.93.71,7.48.89,17.18.5-.7.45-8.89.36-12.43l-.43-3.07c.8-2.91.05-8.74.35-10.96.73,5.83.21,22.56.58,32.61.78-6.11,1.1-19.43,1.27-31.04l-.4,5.11.12-6.08-.64,5.87c.21-5.76.17-10.74.32-15.94-.13,6.09-.84,8.45-.67,5.01.62-6.78-.15-7.08,0-12.27-.12,2.89-.22,6.64-.44,4.22.84-10.22.51-12.99,1.42-22.28-.84,1.13.24-11.62-.35-13.04l-.21,4.31-.18-9.17c.95-8.42.42,7.5,1.33-5.33.49-11.85-.32-11.58-.02-20.9.36,3.09.45,10.5.17,18.01l.4-4.54c.18,2.42-.23,12.82-.44,18.01-.26-8.6-.32,4.01-.85,7.9.45.73.53-4.78.72,1.74.17-6.09.15-6.99.6-14.73-.77,16.75,1.14,15.11.34,29.73-.05-6.75-.73,2.33-.98,3.14-.02,3.18-.07,9.62-.02,12.27l.73-2.38c.1,8.53-1.38,11.47-.89,21.32.37,1.29.31-8.65.35-6.88.15,13.47-1.01,18.31-1.71,30.26.19.68.62.55.91,4.74-.38-1.32-.64,1.77-.86-2.94-.23,4,0,8.74.1,12.27.36-8.33.53,3.42.76,4.95-.13,4.31-.39-1.32-.47-3.98-.16,3.46-.81,7.57-.23,9.55-.42.13-1-9.7-1-16.12l-.13,4.33c-.17-2.99-.1-3.54.03-7.84-.39,4.2-.75,3.78-1.04,2.8.07-.55.1.31.17-.22.16-3.46.09-6.12-.15-5.32-.52-3.12-.43,4.79-.75,7.13.01,1.77.02,3.55.04,5.28l1.59,18.01c.11,7.69-.37,11.14-.72,16.91l.47,1.59c-.14,6.69-.36,12.98-.93,8.69.17-.24.14-1.12.18-2.57-.06-.19-.11-.53-.14-.95-.03-.14-.05-.22-.08-.33.09,7.15.15,11.61.16,12.02-.6-12.13-.89-.61-1.74-2.65l.22,12.25c.29-7.42.42-.13.55,2.5-.49.73.04,9.84.09,14.12l-.11-.31c-.1,3.97.16,10.9.55,15.82.08-.12.39,1.4.77,3.31.4,1.91.86,4.21,1.21,5.7-.35-8.41.16-3.44.42-4.13.03.87.12,2.43.19,2.61.21,1.19.08-1.64.23-1.89-.8-8.89-1.09-18.12-1.84-21.77-.27,2.77.41,4.69.29,7.78-.6-4.43-.65-10.18-.68-17.66l.4-2.46-.22-7.54c.22,3.15.62,1.26.74,9.16.38-1.01-.12-7.83.05-12.69l-.53-2.48c.29.96.45-9.44.79-2.05l.39,12,.38-3.33.12,10.11-.29-2.38c.24,8.11.01,9.3-.2,10.52-.21,1.21-.43,2.45.16,10.57.85,5.06,1.14,10.51,1.75,20.39-.69-7.14-.52-.7-1.1-3.36.28,7.33,1.11,9.73,1.77,13.47-.15,1.89-.29,3.24-.93-3.26-.41-.37-.15,1.76.13,4.07.3,2.3.65,4.78.31,5.12,1.44,10.72,2.95,14.9,4.25,19.54,1.39,4.64,2.71,9.72,5.02,22.32l-.5-.87c3.91,15.81,5.84,25.08,9.29,39.99.59,3.99,1.14,7.99,1.66,11.99-.63-2.64-2.64-9.63-2.33-6.24-.42-5.9-2.01-11.91-2.99-18.14-.34-.58.08,1.95.2,3.07-.82-3.71-.91-5.63-2.16-10.48-.1.27.92,5.63-.08,1.64l-1.05-6.73c-2.25-8.78-2.13-4.1-4.25-14.51.84,1.83,2.34,5.63,3.35,9.62-1-4.76,1.7,6.26.96,1.88-2.18-6.69-2.46-10.08-4.8-19.05.31,1.04.49,1.3,1.01,3.52-.86-4.39-1.7-8.78-2.47-13.17.13,1.66-.49-1.03-1.18-3.97-.69-2.94-1.38-6.13-1.55-5.47.55,3.51.98,5.88,1.34,7.72.34,1.83.61,3.13.9,4.48.55,2.72,1.15,5.69,2.77,13.68-1.14-4.49-2.91-10.2-3.96-12.83,0-.14-.04-.38-.13-.87-1.03-2.34-.67.18-1.61.32,2.14,7.18,2.68,12.17,5.01,20.71.88,1.5-.49-5.15-1.56-9.39l2.03,7.51-.57-1.44,4.24,19.33c-.86-3.66-1.45-4.83-2.11-6.69.55,2.5.99,4.99,1.44,7.65.36-.66.78-.39,1.33,2.04,2.72,12.48,3.73,19.57,4.07,24.31.11.48.23,1.02.33,1.46.11-2.22,2.63,8.78,3.67,12.65-.55-.11.72,6.6,1.03,10.3.91,1.86,1.33-.85,1.11-5.4-1.91-8.53-1.31-4.74-2.73-8.68-.91-4.56-2-9.09-3.07-13.61l1.08,2.96c-1.13-6.87-3.2-13.24-2.47-12.87,1.2,3.49,2.19,9.48,3.3,12.98l-.68-4.56c2.18,7.86.28,4.18,2.46,13.8-.07-3.67.2.87,1.19,4.99-.09-1.7-.75-6-1.42-9.49-.6-3.5-1.08-6.2-.34-4.84.35,1.24.66,2.93.95,4.88.3,1.95.59,4.14.82,6.4.51,4.51,1.11,9.2,2.08,12.5l-.15-.31c.4,2.48.6,4.57.86,6.35.25,1.78.49,3.26.72,4.54.46,2.57.89,4.35,1.27,6.2.14,2.13.37,4.66.65,7.23.28,2.57.61,5.18.82,7.49l-.27-.09c.2,2.17.47,4.33.61,6.5-.67-3.07-.6-7.62-1.11-13.2l-.43.74c.12-6.5-1.38-10.69-2.37-15.6.32,1.79.62,3.97.92,6.25.14,1.14.29,2.3.43,3.46.1,1.16.2,2.31.3,3.41.4,4.42.81,8.15,1.36,8.97l-.12,4.53c.13.71.2,1.43.3,2.14-.1,1.69-.34,1.68-.61.45-.24-1.24-.61-3.7-.94-6.93.03-1.13.05-1.7.18-1.37-.23-1.49-.5-2.92-.77-4.89-.14-.98-.27-2.1-.41-3.42-.14-1.33-.24-2.86-.45-4.67.26,1.28.46,2.56.65,3.85-.14-2.27-.47-4.47-.72-6.55-.27-2.09-.54-4.05-.8-5.83-.54-3.55-.99-6.36-1.49-7.86.71,6.51,1.41,12.97,2.1,19.33.25,3.19.5,6.35.75,9.48.13,1.56.26,3.12.38,4.67.06.77.13,1.55.19,2.32.04.77.08,1.54.12,2.31,1.29,3.55,2.12,7.83,3.24,9.64.13,2.07.35,4.32.41,6.65.06,2.33.13,4.73.2,7.1.09,4.74.17,9.35-.11,12.94l-.2-.66c-.14,3.5-.11,6.73-.02,9.42-.31,3.69-.52-2.54-.69.04.12,3.95.08,7.88.06,11.83-.22-.37-.25-3.04-.2-6.21,0-3.17.02-6.84.02-9.2.03.89.09,2.69.16,2.12.12-2.75,0-6.68-.05-10.23-.1-3.55-.23-6.71.1-7.92-.17-2.68.6,5.44.47-3.64.07-3.04-.06-5.06-.23-6.39-.17-1.33-.43-1.98-.54-2.29-.18-.09-.14,9.54-.51,6.21.12,4.72.5,6.6.35,12.65-.12-4.69-.77-11.03-.41-13.53-.3-4.62-.92-6.58-1.29-6.85-.39-.26-.65,1.17-.58,3.34.37-1.05.79,16.84,1.07,4.71.3,2.72.5,6.57.68,10.63.18,4.06.13,8.33.28,11.89l-.1-.32c0,2.95.05,5.9.02,8.85-.08-1.25-.21-3.93-.46-4.02l.15,3.07.07,3.06.14,6.13c-.24-6.91-.48,4.26-.8,7.38.37,1.33.36,6.12.86,1.55.5-5.15-.11-3.01.03-7.71l.41,6.67-.09.57.29,4.02c-.56,9.04-.98-4.01-1.14,7.59l.8-1.46c-.37,6.71-1.25,14.33-1.97,21.47-.74,7.13-1.56,13.75-1.82,18.48-.16-2.64-.69-3.85-1.42-.32.48-4.05,1.31-12.2,1.69-18.05.1-.56.19,1.29.12,4.05-.09,2.77-.3,6.46-.67,9.62.72-1.48.93-5.48,1.1-9.18.16-3.71.22-7.13.85-7.46,1.68-16.15-.25-12.14,1.27-25.85-.51-.22-.03-3.92-.49-4.67-.48,2.02-.78,6.61-.99,11.81-.12,2.6-.2,5.36-.35,8.01-.18,2.65-.38,5.21-.62,7.43.03-.87.09-2.63.01-2.98-.66,6.34-.71,8.98-.9,13.44l.11-.55c-.22,7.79-.85,4.76-1.51,9.29-.09,1.77-.84,8.09-.36,7.11l-1.4,8.18.63-.33c-.48,4.65-.97,5.62-1.08,9.87l.5.26,1.45-11.52c-.47,5.87.32,1.68-.27,8.13.21-7.25-.82,5.05-1.44,5.69l-.28,4.75v-1.22c-.71,3.67-.34,4.43-.93,8.74.91-5.06,1.69-8.35,2.1-14.89-.28,4.76-1.1,14.18-1.36,16.49-.41,4.99-1.28,8.4-1.94,13.03.95-8.93-1.96,2.91.7-14.87.06.34-.14,1.79-.27,2.34.96-2.3,1.26-10.71,1.48-14.61-.51.95-.11-3.11-1.16,3.73.52-2.22.16,5.89-.97,12.37l-.67-1.25-1.34,9.47.08-.89c-1,3.5-1.22,10.13-2.45,16.61-.34,4.75-3.14,22.77-1.18,15.12-1.35,5.77-1.42,11-2.24,17.39l1.48-7.9c-.76,9.48-.76,6.72-.91,14.38-.33.73-.76,2.38-.78.82-1.88,12.61-4.69,30.59-5.05,38.08-1.25,8.88-2.43,10.14-3.69,22.67-.22,2.64,1.03-1.95-.26,6.28-.13.55.4-8.03-.7,1.18-.24,6.63-2.2,15.35-2.65,23.94-.69,4.48-1.41,12.31-1.74,10.63.43-3.56.86-7.87,1.21-11.49.38-3.61.63-6.53.6-7.31.19,1.02.88-5.04.5.24,1.64-10.74.47-7.04,1.96-16.67-.12-.69-1.19,4.9-1.27,7-.69-.04,2.09-19.11.18-10.62-.68,5.17-.78,8.56-.9,11.77-.11,3.21-.28,6.24-1.16,10.68.01-3.64.98-9.22.84-13.87-.42,2.44-.77,4.89-1.15,7.33l-.13,5.41-.06-.33c-1.09,6.47-1.22,9.51-1.2,12.38,0,2.87.15,5.58-.27,11.42,1.17-6.7,1.03,1.67,1.84-3.37-.38,3.89-.65,7.27-.96,9.67-.31,2.4-.63,3.82-.97,3.82.35-7.31.19-7.53,0-7.62-.18-.09-.45-.04-.09-6.81-.47,2.19-.67-3.31-1.58,4.72-.3,9.11.81-2.66.25,6.4-.11.53-.22,1.08-.29.75,0,4.19-.55,4.84-.59,9.9l-.03-1.2c-.9,6.17,0,6.82-.83,12.13.66-2.1.17,3.61.27,6.94.57-5.4,1.46-8.28,2.2-18.95-.29-1.32-.58-.56-.4-4.95l-.54,6.94c.03-1.5.06-2.65.09-4.03l.79-6.64c-.44,8.47.32,4.63.43,8.25-.78,7.71-.34,6.38-.82,11.23-.28-.26-.79,3.44-1.34,8.33-.42,4.9-.95,10.96-1.34,15.41.07-1.38.17-3.17.22-4.13-.07-6.49-.7,4.44-.88,4.67.02,1.58.11,3.16.17,4.73-.02-.89-.13-2.12-.26-.11-.03,6.4.56,6.04.53,12.41-.34.48-.71-4.93-.97-.96-.36,1.36-1.07,5.72-.75,14.22.13.6.2,2.8.28,5.35-.04-.35-.04-.8-.07-.96-.09,1.88-.12,3.76-.19,5.64-.78-4.79.09-9.72-.51-14.55l-.53-.41c0-1.88-.08-4.1-.18-6.15-.1-2.04-.15-3.91-.27-5.09-.12,2.87-.14,4.61-.07,6.43.05,1.82.1,3.73.18,6.94-.33.9-.6-3.62-.64-4.28l.31.96c.2-3.83.05-6.69-.02-9.8-.1-3.1-.24-6.44-.08-11.21.05-1.44.07-.56.17-.24-.18-3.87.12-7.69.3-11.49.22-3.79.34-7.57.29-11.33l.11,2.46c.05-2.56.12-6.34.21-10.74.05-2.2.05-4.55.14-6.98.09-2.43.18-4.93.27-7.43l-.2-.1c-.22,1.1.11-2.65.37-4.65h0c.14-5.02.48-9.83.69-13.78-.26,1.24-.53,2.84-.75,4.68.05.79-.24,3.47-.4,5.81-.15,2.34-.24,4.32.09,3.72-.69,4.21-.84,11.07-1.27,14.17.76-5.65.24,3.99.49,5.01-.48,1.88-.54,8.41-.96,7.63-.2,1.11.5-2.77.38-5.2-.03-5.97-1.12,10.86-1.03,3.43-.17,4.72-.37,10.19-.57,15.7-.08,2.75-.22,5.52-.24,8.2,0,2.69,0,5.29.06,7.73l.31-5.45c-.15,4.33-.33,14.57-.49,15.34-.07-3.22.08-6.98.06-11.1-.51-.21-.24,9.89-.53,10.35l.92,11.96v-5.23c.17,1.65.17,5.21.12,9.37.07,4.16.14,8.93.21,12.98-.85-4.63-.54-12.24-.77-20.77-.3-6.21-.68,3.84-.88-2.04-.16,1.52-.13,5.36.06,7.25l-.12,2.32c-.64-5.24-.7-17.01-.96-24.85.06.69.12,1.29.19,1.51.19-3.01.32-6.05.4-9.07.07-3.02.22-6.01.25-8.95-.35,3.1-.27,4.33-.27,6.11-.17.22.02-5.33-.07-7.44-.44,5.46-.43,1-.7,4.46,0-3.57.19-6.45.46-10.79.35-2.24.25,1.88.6,1.44-.02-4.48.95-6.47,1.01-13.01-.73,8.67-.55-2.33-.56-5.34l-.12,1.45c-.2-2.78-.05-5.12.47-6.99-.18,3.56-.45,7-.02,6.01.13-2.35.3-4.69.42-7.35l.07,2.43.93-11.65c-.18-1.87-.4-5-.72-6.66.59-2.76.74-6.67.89-9.33v1.25c.78-5.11,1.89-16.51,1.7-17.51.69-3.62-1.09,26.05,1.63.19,1.14-9.82-.25-6.23.12-11.87,0,0,.06.33.19-.22.61-4.28.31-4.76.6-8.31-.47,2.55-.95,6.28-.97,7.5-.23-1.34,1.17-8.94,1.28-12.26.04,4.34,1.35-8.25,1.23-4.9,1.53-8.47,2.31-17.63,2.5-22.16,1.58-5.66,1.33-10.14,3.04-19.44-.23,1.44-.49,4.06-.87,6.06-.28,5.4,1.66-9.66.92-1.39.18-1.77-.24-.16-.42,1.65-.4,3.16-.61,6.15-.27,5.39l1.53-7.56-.27,2.68,2.27-11.48c-.05-.33-.33.74-.47,1.29,2.21-13.38,4.1-28.76,5.82-40.49-1.06-2.4,3.41-29,3.63-38.61.09,2.59.62,4.08,1.1,2.54-.19,2.13-.17,6.54-.93,11.33-.32.74-1.36,6.64-1.11,2.79-1.59,13.3.84-1.72.84,2.27.91-7.37,1.43-13.23,1.78-18.43.35-5.19.66-9.7.98-14.37l.19-.22.46-7.05c-.72,5.73-1.48,5.35-.39-2l-.06.9c.84-4.18,1.23-13,1.92-19.58,0-1.5-.02-3-.06-4.51.56-6.6,1.44-6.81,2.11-8.93.21-2.59.37-4.91.45-7.05.06-2.14.08-4.1.07-5.96-.03-3.72-.06-7.07-.09-10.76.49-3.31,1.11-18.84,1.28-10.6.03-9.37-2.12-7.51-.83-23.51l.32,4.16c.07-3.83-.1-8.07-.25-12.38-.18-4.31-.24-8.69-.57-12.8-.27-4.11-.52-7.97-.7-11.24-.04-.82-.08-1.6-.12-2.34-.06-.74-.11-1.43-.16-2.08-.09-1.3-.15-2.4-.18-3.29.88,2.76.81-2.02.65-7.86-.05-1.46-.06-2.99-.14-4.47-.08-1.49-.16-2.93-.23-4.24-.11-2.62-.12-4.7.12-5.42-.2.79-.97-4.92-1.22-5.73.03-1.28-.2-3.37-.79-5.54.34,2.97-.15,1.98-.44,1.65-.14-.17-.24-.17-.15.57.09.74.38,2.22.81,5.04-.71-2.82-1.69-6.01-2.58-10.07-.94-4.06-1.77-8.99-2.96-15.18l.55.09.83,4.92c.26,1.64.47,3.29.71,4.94.23-1.06,1,4.02,1.5,6.08-1.3-9.2-.9-8.66-.56-8.15.17.25.33.5.26-.5-.05-1-.4-3.23-1.3-7.91-.69-1.74-.32-.6-1.42-5.44.47,2.28.91,2.62.18-1.06l-1.15-3.45c-.25-3.35.45-.68,1.15,2.12.7,2.8,1.34,5.74,1.09,2.88.93,3.58,2.05,8.49,2.85,12.23.78,3.74,1.41,6.28,1.56,5.05-.41-2.99-.8-5.15-1.18-6.89-.43-1.73-.83-3.06-1.23-4.4-.4-1.34-.82-2.69-1.28-4.49-.45-1.8-.93-4.03-1.51-7.13v-1.37c-1.12-4.3-1.73-4.9-2.52-7.22.11-.25-.02-1.38-.6-4.17-2.31-7.17-3.58-11.99-5.85-18.59,2.34,8.94,3.1,12.8,3.85,16.74.74,3.94,1.54,7.95,3.71,17.16-.77-2.86-3.83-15.87-4.73-16.5l.55.06c-1.64-5.96-3.3-11.92-4.87-19.56l1.35,4.57c-2.67-9.98-3.03-16.92-5.54-24.76.52,2.85,1.05,5.13,1.5,6.86-1.37-5.16-2.64-11.76-3.62-17.5l-1.48-5.87-1.4-5.9c.27.06-.8-7.54.14-3.93-.22-2.17-.43-4.05-.65-5.72-.23-1.67-.47-3.14-.69-4.5-.47-2.71-.91-4.96-1.2-7.47-.11-4.47.11-2.54.48.59.34,3.13.95,7.48,1.35,7.87-1.16-12.22-2.01-25.15-2.72-32.03-.01,2.5-.05,3.71-.19,3.59.15-.38-.09-5.3-.15-8.04l-.4-1.88c.14-4.58.35-3.93.69-.06-.03-4.36-.77-9.56-.29-14.05.43,7.43.3,16.94.71,20.82-.43-7.79-.23-11.71-.02-16.14.2-4.43.4-9.38.25-19.21.17-.24.46,3.09.49-.7-.05-8.77-.69-2.3-1.04-5.04.15,6.75-.08,9.89-.51,13.82l-.28-1.81c.14-.27.18-4.52.32-5.77l-.56-1.1c.62.51,1.16-6.27.99-11.6-.52,5.38-.48,3.92-1.21,5.38-.59-7.5.77-8.44.16-16.84.19.63.25,7.95.49,1.63.09-5.24-.4-4.54-.51-8.06.47,3.96.87,2.95,1.44,7.25-.05,9.3-.06,3.75.06,12.85l.54-7.69c-.01,7.89.53,5.74.72,6.39.7-13.46-.66-10.15-.42-18.81-.3-4.18-.18,8.11-.47,1.58.18-8.1-.32-1.85-.42-10.94l.22,1.52c.35-2.77,0-5.53,0-8.74-.11-3.54-1.88,3.98-1.7-10.56.14.71.22.98.28.98l4.19,14.25c.18-14.73.56-31.71,1.17-48.76.93-4,.49,12.19.9,11.15l-.31,7.78c-.36-.44.17-16.3-.6-9.29.02,13.74-.48,19.97.08,33.01.91-4.04.1-17.17.89-25.63-.11,3.56-.06,6.57.02,9.48.25-7.96.51-16.47.79-25.53l-.17-2.04c-.2,6.1-.35,10.32-.39,10.87.21-8.09-.13-14.93-.75-15.48l-.05,1.44-.14-2.93c.08-1.9.16-3.8.24-5.68ZM46.27,54c.11.48.21.86.33,1.14-.12-.29-.15.05-.33-1.14ZM11.17,735.01c-.77-10.74-1-21.6-1.09-31.95-.47,9.35-.67,17.33-.95,19.07-.26,1.74-.91-2.76-1.2-18.4l-.12-2.05c-.09,4.09.03,11.14.41,17.77.18,1.33.47,3.41.8,5.77.38,2.36.75,5,1.2,7.45.42,2.46.83,4.74,1.18,6.39.33,1.65.55,2.68.58,2.63.19-1.92-.48-4.62-.62-8.06l-.18,1.37Zm-1.39,7.83c.51,6.12.64,4.7,1,5.61-.26-2.14-.53-4.28-.79-6.39.02.82-.02,1.23-.21.78Zm1.2,5.22c-.08-.68-.12-1.27-.12-1.58l.12,1.58Zm-1.8-118.93c0,.27,0,.37,0,.63.04-1.45.08-2.89.12-4.41-.05.59-.09,1.7-.13,3.78Zm-.78,12.41l.43,1.46c.04-1.35.07-2.72.11-4.13-.21.46-.4.94-.54,2.67Zm-1.97,39.91c.52,2.52.53,10.96,1.18,11.48.17.54.21-1.24.27-3.23.02-2.22.05-4.59.07-7.11-.09-.09-.17-.59-.25-1.42-.09,2.48-.26,4.14-.64,3.13.88-6.38-.56-5.73-.28-12.63-.42-2.2-.53,7.68-.35,9.77Zm3.64,525.75c-.08.19-.3.84-.58,1.76l.25-4.87c1.13-8.6,2.96-15.37,3.17-23.21.68-3.59,1.36-5.48,1.94-7.28-.26,1.77-.52,3.42-.76,4.79-.87,10.91-1.49,13.71-2.14,15.97-.63,2.26-1.28,4-1.89,12.83Zm14.62-98.57c-.09.89-.03,1.22-.03,1.22,1.64-19.33,3.44-35.17,4.82-45.52-.73,1.95-2.27,11.18-3.07,15.56l.02-3.97.73-2.38.42-6.84c-.6,1.85-1.24,7.33-2,10.95.05.33-.96,12.12-1.1,15.44l1.65-9.31c-.49,2.51-2.1,14.93-2.68,19.87.24.13,1.86-8.29,1.45-9.43.53-.95-.86,8.82.43,2.7-.64,7.38-2.65,18.99-3.63,24.37l-.78.82c-1.11,5.9.19,4.12-1.2,11.11,1.13-8.68-.92,1.36.03-5.54-.56,2.17-.69-.05-1.64,6.86.02,5.87-1.59,7.2-1.62,12.75-.78,3.6.04-3.98-1.09,3.15-.71,8.27-.32,7.84.23,8.43,1.26-7.64.4-8.73,1.45-14.98l-.71,12.62c.48-2.28.73-3.98.89-5.41-.29,2.51-.43,4.67-.47,6.52-.03,1.05-.06,2.03-.09,2.92,1-7.07,1.9-13.34,2.33-14.41l.16,1.02c.64-2.46,1.01-6.57,1.06-8.48.88-6.33,1.37-12.71,1.97-14.03l-.07,2.44c1.04-7.79,1.14-8.66,2.54-18.45Zm8.74-256.69c-.17,2.46-.3,5.02.07,9.7.17,2.34.54,5.21.95,8.87.35,3.67.86,8.13,1.56,13.64l-.28-1.73c.08,1.4.19,2.78.33,4.16.1,1.38.21,2.76.35,4.15.27,2.77.61,5.55.96,8.41.17,1.43.34,2.88.52,4.36.15,1.48.24,2.99.33,4.53.18,3.08.3,6.3.27,9.71-.75-6.58-.69-6.23-2.01-13.44l.66,7.05c-.71-1.93-.03,5.1.17,10.29l-.94-4.54c.05-3.11-.27-11.18-.42-10.93.07.88.23-1.8.07-5.52-.12-3.73-.36-8.52-.74-11.87-.43.74.94,14.91-.38,8.64.4,2.78.49,4.35.56,5.95.07,1.6.04,3.24.28,6.16-.61-5.58-.73-1.35-1.3-5.49l.64,9.56c-.15.25-1.05-13.91-1.26-6.04.44,3.81.64,14.05,1.15,14.21l-.16.24c.02,7.18.8,3.14.67,11.96.27.1.42-1.58.31-4.74-.18-2.67-.52-3.07-.73-8.56.13-1.24.24.42.27,1.91.05,1.49.13,2.81.45.89.19-.96-.05-4.58-.22-7.47-.16-2.89-.23-5.04.26-3.05l.24,7.17c.59.16.63,5.37,1.06,5.21.28,4.39-.24,8.55.3,13.03.33,1.86.99-1.4.65,6.05-.21,1.45-.37,3.61-.48,6.13-.12,2.52-.17,5.4-.32,8.31-.25,5.8-.37,11.69-.46,14.89v5.62c.19-.23.33-2.91.46-5.08.13-2.17.16-3.83.32-2.02-.09,2.92-.24,5.84-.36,8.76l-.16-.69c-.21,2.9-.16,5.87-.2,8.53-.22-2.75.29-9.05-.33-7.82-.34,4.1-.58,4.71-.69,8.49,0-.83,0-1.54-.09-1.44-.79,8.28.02,8.06.06,10.15.07,8.41,1.31-8.37,1.8-7.26-.55,8.14-.98,16.29-1.72,24.42.02-2.1.04-4.21-.26-3.44-.82,5.95-.44.1-1.21,8.49.4-.26.28,2.39,0,5.85-.3,3.46-.73,7.73-.84,10.72-.61,2.73-.73,3.29-.08-2.75-.57.64-1.23,8.78-1.67,11.65-.08,1.68-.36,4.54-.47,6.36.54-2.39.71-1.32.28,3.94l.06.32c.61-4.28,1.39-9.75,2.12-14.82.65-5.08,1.17-9.77,1.21-12.49l.07,1.55c.79-4.95,1.05-10.41,1.35-15.17.3-4.77.59-8.85,1.2-11.12.33.46.24-2,.75-1.78l.16-7.39.12,1.55.42-6.26.3-6.27.08.34c-.07-2.99-.14-5.66-.19-8.05-.03-1.19-.06-2.32-.09-3.37-.05-1.06-.1-2.05-.15-2.99-.23-.02-.31.36-.41-1.63-.04-2,0-3.51.07-4.85,0-.01,0-.01,0-.01h0c.16-3.07.6-5.11.82-8.89-.07,3.89-.22,7.77-.32,11.66.36.96.8,0,1.27-5.72-.07,2.34.2,3.33.35.43-.09-.32.02-7.66-.39-4.87.02-2.77.07-5.97.17-9.48.05-1.75.11-3.58.16-5.47.03-.95.06-1.91.09-2.88,0-.97,0-1.96,0-2.96,0-3.99-.02-8.17-.11-12.4-.02-2.11-.18-4.24-.32-6.36-.15-2.12-.32-4.24-.51-6.34,1.04,12.08.04-9.73.87,3.7.13-9.42-.9-8.05-1.63-17.58.15-.83.4,5.19,1.02,7.36-1-15.9-3.25-26.68-5.45-41.89l.38-.73c-.52-2.87-1.09-6.05-1.69-9.37Zm-6.75-29.65c-.71-2.87-1.43-5.78-2.17-8.73.06.29.12.56.18.86l-2.37-8.56c1.03,5.36,1.32,8.98-.63,1.6.34.58.08-1.65.79.91-.88-5.05-3.05-16.05-3.13-13.04,2.84,9.43-.42,2.44,1.8,9.86-1.39-3.93-2.1-7.99-3.15-11.77,1.29,3.89.65-1.12-.42-7.15-.69-2.58-2-9.67-3.01-13.98-.14,1.64-1.13-2.11.13,5.01-.31-1.29-.68-2.94-1.05-4.83-.35-1.9-.7-4.05-.99-6.33.4,1.78,1.01,4.91,1.13,4.66-.12-2.99-.73-6.4-.85-8.33-.27-1.5-.55-3.02-.77-4.5.02.45.03.84,0,1.12l-1.11-4.97c1.17,6.67.24,3.13-.04,3.08.55.1-.57-4.32-.84-6.63.02,1.69.04,3.38.11,5.07-.66-2.38-.68-8.59-1.09-7.26.53,5.33,1.04,9.01,1.59,12.55.31,1.76.61,3.49.93,5.38.37,1.88.77,3.91,1.23,6.28l-.27-3.94c1.09,5.34,1.28,7.01,1.4,8.88.14,1.85.27,3.88,1.55,9.87,1.42,4.9,4.01,17.93,4.85,17.99-.58-1.44,1.02,7.56,2.3,11.55,1.77,4.33,4.85,17.94,4.26,13.74-.79-3.69-2.3-8.55-2.51-11.61l1.76,7.11-.67-4.77c.41,2.45.73,2.13,1.04.89Zm-12.76-162.02c0-.08,0-.18.01-.28,0,.11,0,.21,0,.31v-.03Z"/>
      <path class="cls-1" d="m5,1315.29c.18,2.1.19,7.29.59,6.26-.48.14-.12-9.27-.59-6.26Z"/>
      <path class="cls-1" d="m4.63,1321.51c.11.36.27.11.36,2.43l-.16-3.21-.07-3.21c-.04,1.33-.13,2.65-.13,3.98Z"/>
      <path class="cls-1" d="m1.94,1328.11c.44,3.32.66,5.41.85,10.63-1.01,2.01-.59-8.53-1.65-10.86.12,4.79.4,7.92.76,10.82.42,2.9.84,5.59,1.14,9.51.11-1.96-.11-6.92-.3-11.42-.13-4.5-.4-8.55-.8-8.68Z"/>
      <polygon class="cls-1" points=".48 1323.9 .9 1329.22 .94 1328.69 .53 1323.36 .48 1323.9"/>
      <path class="cls-1" d="m15.84,1209.83c.38-.44.44-3.74.57-5.51-.19,1.42-.5,3.41-.57,5.51Z"/>
      <path class="cls-1" d="m51.83,173.58c1.04-13.52,1.84-27.08,2.3-40.66-.43,11.72-.96,22.53-2.3,40.66Z"/>
      <path class="cls-1" d="m32.01,1076.62c-1.18,10.82-1.26,15.69-2.7,26.68,1.37-7.16,1.77-11.97,2.14-16.48.37-4.51.72-8.73,1.83-14.76l-1.26,4.57Z"/>
      <path class="cls-1" d="m34.06,1080.77c-.84,1.71.41-8.43-.25-6.92-.81,7.3.13,3.47-.83,10.06l1.08-3.14Z"/>
      <polygon class="cls-1" points="17.11 1128.12 17.27 1124.81 17 1127.46 17.11 1128.12"/>
      <polygon class="cls-1" points="39.6 1031.39 39.61 1032.6 40.39 1027.18 39.6 1031.39"/>
      <path class="cls-1" d="m39.61,1033.81v-1.21s0,1.21,0,1.21Z"/>
      <polygon class="cls-1" points="16.42 1123.74 15.59 1128.57 15.52 1131.01 16.42 1123.74"/>
      <path class="cls-1" d="m25.75,1081.44l-.41,4.36c.08-.87,1.15-6.76.41-4.36Z"/>
      <polygon class="cls-1" points="42.92 998.1 43.1 992.73 43 993.28 42.82 998.62 42.92 998.1"/>
      <path class="cls-1" d="m28.45,1047.26c-.83,2.94.93-8.67-.24-2.55-.6,5.49-.08,3.3.24,2.55Z"/>
      <path class="cls-1" d="m37.53,983.64c.04-.72.07-1.47.06-2.21-.02.87-.04,1.6-.06,2.21Z"/>
      <path class="cls-1" d="m37.53,983.64c-.13,2.32-.45,4.62-.4,6.22.38-2.87.36-3.93.4-6.22Z"/>
      <path class="cls-1" d="m38.58,957.09l-.11,2.1c-.16-2.15-.16-1.13-.04.79-.06,2.23.09,2.11.18,2.38.04.45.09.89.14,1.38-.04-.69-.08-1.31-.11-1.83.12-3.45.17-5.56-.07-4.81Z"/>
      <path class="cls-1" d="m40.27,857.47c1.06,7.83,1.29,9.86.86,9.49.29,1.85.42,3.17.59,4.17.16,1,.32,1.68.47,2.28.3,1.18.59,1.99.93,4.23-.5-4.21-.81-6.75-1.14-9.49-.41-2.73-.87-5.67-1.72-10.68Z"/>
      <path class="cls-1" d="m43.13,877.63c.12.94.24,1.84.38,2.94-.13-1.23-.26-2.13-.38-2.94Z"/>
      <polygon class="cls-1" points="33.18 987.85 32.9 983.02 32.87 984.79 33.18 987.85"/>
      <path class="cls-1" d="m38.48,845.88c.24,1.44.69,3.75.78,4.91.44.35-1.02-6.35-.78-4.91Z"/>
      <path class="cls-1" d="m35.98,876.86c-.13.81.59,5.74.74,7.76-.3-2.89.09-5.32-.74-7.76Z"/>
      <path class="cls-1" d="m32.4,824.14c.3,1.42.54,3.65.03,2.77.62,2.02,1.87,4.66-.03-2.77Z"/>
      <polygon class="cls-1" points="34.11 862.77 34.16 863.89 35.22 869.11 34.11 862.77"/>
      <path class="cls-1" d="m31.25,882.19c1.13,5.84-.07-9.46,1.51.64-1.1-13.15-.49,1.07-1.57-8.59.53,5.67.31,8.5.06,7.94Z"/>
      <path class="cls-1" d="m31.18,874.25c-.07-.82-.17-1.72-.28-2.68.11,1.07.2,1.93.28,2.68Z"/>
      <path class="cls-1" d="m17.45,791.48c.23.84.41,1.41.58,1.93-.18-.66-.37-1.29-.58-1.93Z"/>
      <path class="cls-1" d="m25.86,843.69c.81,2.86,1.55,5.74,2.31,8.61-1.41-5.77-4.48-20.42-4.96-19.37.91,4.77,2.23,10.44,2.96,12.73l-.31-1.97Z"/>
      <path class="cls-1" d="m17.83,741.15l.66,3.74c-.13-1.57-.3-3.14-.41-4.72.03,1.36-.67-1.04-.25.97Z"/>
      <path class="cls-1" d="m18.01,739.27l.07.91c0-.2-.02-.49-.07-.91Z"/>
      <path class="cls-1" d="m21.5,807.97c.6,2.83,1.14,5.09,1.85,7.64-.12-1.09-1.63-8.15-1.85-7.64Z"/>
      <path class="cls-1" d="m15.17,714.42c.13,2.1.22,4.21.37,6.3-.14-2.29-.22-4.59-.33-6.88l-.04.58Z"/>
      <polygon class="cls-1" points="15.91 684.84 16.04 683.74 15.84 678.47 15.71 679.58 15.91 684.84"/>
      <path class="cls-1" d="m3.88,724.11c.17,4.39.99,7.76,1.04,6.61-.19-2.83-.38-5.65-.51-8.48-.4,2.18.11,2.35.3,7.28-.27-1.8-.57-3.6-.82-5.41Z"/>
      <path class="cls-1" d="m20.64,463.79c.24,1.89-.47,11.03-.82,11.49-.07-1.24.07-6.21-.31-3.1.14,2.43.3,4.86.47,7.29-.99,9.62-.76-7.38-.76-12.16-.67,9.81-.22,12.76-.73,23.2.22-3.08.52-5.02.78-6.64.62-.32-.15,9.39-.36,16.36.44-4.42.55-1.85.65,1.39,0,.58.01.97.04,1.24.01.38.03.73.04,1.1l.03-.83c.06.06.15-.12.29-.72.06-5.85.75-10.29.94-14.05-1.12,3.67.35-12.81.36-17.54l.21-5.46.11-2.04c.13-.4.23.18.25,3.3-.04-2.6.49-11.25.16-10.47l1.27-19.73c.08-.61.18-1.22.28-1.67-.01-.69-.05-.8-.11-.72,2.01-28.65,4.66-57.2,8.1-85.7-.63,4.2-1.18,7.84-1.84,12.17.12-6.6-.94,7.12-1.3,5.14.09-2.96.68-7.25,1.11-9.8-.19-.99-.88,2.63-1.2,2.16-1.64,10.76-.28,12.58-1.65,23.11-.31-.45-.31-3.76-.95,3.17l.09-1.77c-.64,11.13-1.64,8.56-1.3,15.63l-.51-.23c-.09,5.06-.86,14.87-1.26,20.39l-.07-.34c-.3,7.77-.4,9.95-.6,12.36-.17,2.41-.49,5.06-.9,13.78-.03-2.69-.08-5.37-.08-8.06-.68,5.99-.07,7.39-.42,11.7-.08-.32-.53.66-.37-3.42-.14,7.07-.29,14.13-.34,21.21.12,5.07.44-1,.71-1.78Z"/>
      <path class="cls-1" d="m18.49,490.52c-.08,1.12-.15,2.39-.21,3.89.08-1.45.14-2.7.21-3.89Z"/>
      <path class="cls-1" d="m32.24,342.34l-.73,6.01c.26-1.86.5-3.8.73-6.01Z"/>
      <path class="cls-1" d="m18.42,520.92c.4-3.66.29,2.76.47,3.41l.46-13.15c-.21.05-.38-1.26-.58-1l-.35,10.74Z"/>
      <path class="cls-1" d="m19.88,507.38c-.12-.45-.19-1.85-.25-3.41l-.29,7.2c.15-.04.33-.84.54-3.79Z"/>
      <polygon class="cls-1" points="8.99 508.35 9.07 506.02 9.06 502.48 8.99 508.35"/>
      <path class="cls-1" d="m11.56,471.87c-.48,2.77-.48,8.07-.49,9.85.29-6.1.25-3.45.49-9.85Z"/>
      <polygon class="cls-1" points="7.87 479.24 7.99 473.35 7.9 473.9 7.87 479.24"/>
      <path class="cls-1" d="m36.04,297.64c.12-.96.23-1.88.35-2.85-.18,1.3-.28,2.16-.35,2.85Z"/>
      <path class="cls-1" d="m30.01,347.64c2.28-13.8-.62,9.15.66,4.88l.67-7.58.12.67,1.08-9.21c-.59,1.85-.79,3.26-1.1,2.81,1.71-12.28.91-3.82,2.54-12.78l1.76-13.75-.04,1.13c.15-1.16.17-1.68.16-2.08l6.1-46.39c.86-8.48-1.29,4.58-.97-1.72-1.32,9.79-3.71,24.27-3.1,25.19-.05-.34-.17-1.02-.52.95l-.18,5.73.93-5.36c-.2,5.77-2.81,24.09-3.62,27.36,1.2-10.46-.23-5.32,2.14-19.8-.27.63-.96,3.25-.61-.04-2.11,17.06-4.5,32.28-6.03,49.99Z"/>
      <path class="cls-1" d="m51.03,176.21l.05.14c0-.31-.03-.42-.05-.14Z"/>
      <path class="cls-1" d="m50.43,181.98l-.1,8.45c.4-4.36.83-8.72,1.17-13.09l-.42-.99c.02,1.17-.11,5.78-.5,7.54l-.16-1.91Z"/>
      <path class="cls-1" d="m49.75,200.2c.5-6.77-.12-6.46-.78-2.81.38-6.22.98-3.2.78-7.53-.42.1-.96,7.75-1.08,9.51l1.08.83Z"/>
      <polygon class="cls-1" points="43.44 249.77 43.45 247.85 42.77 252.49 43.44 249.77"/>
      <path class="cls-1" d="m43.45,247.85l.66-4.6c-.22.3-.44.59-.66,1.33v3.28Z"/>
      <path class="cls-1" d="m45.82,231.15c.29-1.95.6-4.11.92-6.74l-.92,6.74Z"/>
      <path class="cls-1" d="m45.01,236.42l.1-.15.72-5.12c-.29,1.88-.55,3.57-.81,5.26Z"/>
      <path class="cls-1" d="m44.11,243.24c.5-.7,1.07-1.51,1.79-8.21l-.8,1.23-.99,6.98Z"/>
      <polygon class="cls-1" points="11.01 436.51 11.17 431.18 11.07 431.74 10.91 437.06 11.01 436.51"/>
      <path class="cls-1" d="m13.77,405.92c.04-1.32.04-2.32.04-3.23-.07,1.39-.09,2.49-.04,3.23Z"/>
      <path class="cls-1" d="m13.04,382.9c1.01-6.2-.28,8.66,1.02-2.87.48-.98.44,4.48-.25,9.91-.32-.47.27-5.32-.42-2.01.08,3.65-.34,5,.33,3.79-.22,6.11.07,6.82.09,10.98.41-7.37,2.4-22.73,2.74-32.11-.11-5.2-1.34-2.19-2.28-2.31-.3.75-1.84,14.07-1.23,14.63Z"/>
      <path class="cls-1" d="m11.16,392.64c-.32,2.89-.36,3.77-.45,5.55.37-.45.25-3.22.45-5.55Z"/>
      <path class="cls-1" d="m25.75,327.27c-.06-.56.45-5.77.07-4.69l-.86,7.89c.26-1.84.51-2.47.78-3.2Z"/>
      <path class="cls-1" d="m24.6,333.93l.37-3.46c-.12.86-.24,1.93-.37,3.46Z"/>
      <path class="cls-1" d="m25.88,326.91c-.04.12-.08.23-.13.36.01.11.05.1.13-.36Z"/>
      <path class="cls-1" d="m48.36,212.02c.25.14.49-3.4.62-5.18-.19,1.44-.5,3.45-.62,5.18Z"/>
      <path class="cls-1" d="m53.95,78.39l.05-3.16c-.07,1.12-.1,1.69-.05,3.16Z"/>
      <path class="cls-1" d="m42.67,30.95c-.06-.08-.14-.3-.22-.61.08.3.15.51.22.61Z"/>
      <path class="cls-1" d="m42.45,30.34c-.52-2.07-1.06-8.62-1.84-10.88l.15.28-.92-4.29c.34,2.03.88,5.16,1.38,8.09.45,2.93.9,5.65,1.22,6.81Z"/>
    </g>
  </g>
</svg>